<svg xmlns="http://www.w3.org/2000/svg" xmlns:xlink="http://www.w3.org/1999/xlink" viewBox="0 0 50.57 46.06"><defs><style>.cls-1{isolation:isolate;}.cls-2{fill:url(#Безымянный_градиент_468);}.cls-3{fill:url(#Безымянный_градиент_468-2);}.cls-4{fill:url(#Безымянный_градиент_467);}.cls-12,.cls-13,.cls-5{fill:#fff;}.cls-12,.cls-5{mix-blend-mode:soft-light;}.cls-6{fill:#b30053;opacity:0.3;}.cls-11,.cls-14,.cls-6,.cls-7{mix-blend-mode:multiply;}.cls-7{fill:#da0553;opacity:0.2;}.cls-8{fill:url(#Безымянный_градиент_466);}.cls-9{fill:url(#Безымянный_градиент_540);}.cls-10{fill:#ffe016;}.cls-11,.cls-14{fill:#d42f55;}.cls-11,.cls-12{opacity:0.5;}.cls-14{opacity:0.8;}.cls-15{fill:#dc2c00;}.cls-16{fill:#ffba00;}</style><linearGradient id="Безымянный_градиент_468" x1="29.58" y1="49.45" x2="12.89" y2="3.6" gradientUnits="userSpaceOnUse"><stop offset="0" stop-color="#ff5900"/><stop offset="0.23" stop-color="#fe6800"/><stop offset="0.66" stop-color="#fa9300"/><stop offset="0.85" stop-color="#f66a00"/><stop offset="1" stop-color="#f63f00"/></linearGradient><linearGradient id="Безымянный_градиент_468-2" x1="38.17" y1="46.33" x2="22.3" y2="2.72" xlink:href="#Безымянный_градиент_468"/><linearGradient id="Безымянный_градиент_467" x1="31.55" y1="46.55" x2="15.53" y2="2.54" gradientUnits="userSpaceOnUse"><stop offset="0" stop-color="#ffea34"/><stop offset="0.63" stop-color="#ff8100"/><stop offset="0.7" stop-color="#ffa400"/><stop offset="1" stop-color="#ffba00"/></linearGradient><linearGradient id="Безымянный_градиент_466" x1="29.61" y1="42.14" x2="17.48" y2="8.84" gradientUnits="userSpaceOnUse"><stop offset="0" stop-color="#ffba00"/><stop offset="0.21" stop-color="#fe6800"/><stop offset="1" stop-color="#d41b00"/></linearGradient><linearGradient id="Безымянный_градиент_540" x1="30.11" y1="41.41" x2="18.74" y2="10.16" gradientUnits="userSpaceOnUse"><stop offset="0.04" stop-color="#ff9000"/><stop offset="1" stop-color="#e13e00"/></linearGradient></defs><g class="cls-1"><g id="Слой_2" data-name="Слой 2"><g id="layer1"><path class="cls-2" d="M40,45.65h0l-.93.16h0a18.09,18.09,0,0,1-5.89,0h-.05l-7-3.61-1.42-.72-.67.45L18.79,45.4l-.5.34h0l-.6.06h-.12c-1.55.14-5.12.4-6.74-.08h-.05c-.23-.07-.31-.32-.28-.72.16-1.86,2.93-7,5.35-11.13,1.84-3.17,3.46-5.75,3.46-5.75l.27-3.23.82-9.55L21.61,1.09l.05-.68s4.39-.93,7.25,0l0,0c1,.48,2.89,7.17,4.78,15.18.53,2.25,1.06,4.57,1.57,6.91s1,4.72,1.51,7C38.66,38.37,40,45.65,40,45.65Z"/><path class="cls-3" d="M40.67,31.67s2.5,11.87-.27,13.79a2.25,2.25,0,0,1-.38.19h0a2.45,2.45,0,0,1-.93.16h0a11,11,0,0,1-4-1.16,48,48,0,0,1-6.66-3.91s-.91.64-2.25,1.45l-.82.5h0l-.06,0a23.61,23.61,0,0,1-6.92,3h0a3.21,3.21,0,0,1-.6.06h-.12a3.13,3.13,0,0,1-1-.14,2.15,2.15,0,0,1-.4-.21,2,2,0,0,1-.64-.8c-1.12-2.27-.31-7.68.28-10.79.25-1.32.46-2.2.46-2.2a54.29,54.29,0,0,1-7.47-7.29c-1.39-1.76-2.33-3.49-2.07-4.73.43-2,4.15-3.12,7.63-3.7a50.28,50.28,0,0,1,6-.61l.26,0A62.86,62.86,0,0,1,25.29,3.88C26.43,1.93,27.66.49,28.81.42h.1a1.6,1.6,0,0,1,.47.08c3.75,1.16,7.38,14.83,7.38,14.83s13,.4,13.77,4.33S40.67,31.67,40.67,31.67Z"/><path class="cls-4" d="M34.28,31.67s2.32,9.75.74,13a2,2,0,0,1-.64.81,2.18,2.18,0,0,1-1.21.34c-2.07.06-5.42-1.66-7.88-3.11L24,41.92c-1.09-.68-1.81-1.18-1.81-1.18a49.34,49.34,0,0,1-6.66,3.92,15.1,15.1,0,0,1-2.76,1,4.54,4.54,0,0,1-2,.09h-.05a1.86,1.86,0,0,1-.59-.26C7.46,43.58,9.8,32.22,9.9,31.69v0S-.67,23.44,0,19.65H0c.75-3.92,13.78-4.32,13.78-4.32S17.76.41,21.66.41c1.19,0,2.46,1.47,3.63,3.47a63.3,63.3,0,0,1,4.64,11.44s1.64,0,3.8.3a27.22,27.22,0,0,1,7.71,1.77c1.27.58,2.18,1.32,2.37,2.26.55,2.55-4,7.17-7,9.85C35.37,30.8,34.28,31.67,34.28,31.67Z"/><path class="cls-5" d="M29.93,15.32s5.32-.15,7.58,0c8.81.73,11.17,2.2,11.85,3.22s-5,.1-5.38.08-.67-1.44-5.42-2.06S29.93,15.32,29.93,15.32Z"/><path class="cls-6" d="M40.67,31.67c-1.22.37-4.86.06-5.39,0s7-6.65,8.41-9.29,5.81-2.4,6.46-1.93-2.76,5.05-5,7.37A39.58,39.58,0,0,1,40.67,31.67Z"/><path class="cls-5" d="M39.33,21.14a35.56,35.56,0,0,1-4,1.39,71.64,71.64,0,0,1-15.74,2.36,55,55,0,0,1-10.74-.51c-3.55-.57-6.41-1.62-7.89-3.24a4.94,4.94,0,0,1-.9-1.5A2.74,2.74,0,0,1,1.33,18a0,0,0,0,1,0,0c.13-.09.28-.18.44-.27l.07,0c3.78-2.07,12-2.32,12-2.32S17.76.41,21.66.41a2,2,0,0,1,1,.33,9,9,0,0,1,2.62,3.14,63.3,63.3,0,0,1,4.64,11.44s1.64,0,3.8.3a27.22,27.22,0,0,1,7.71,1.77A3.06,3.06,0,0,1,39.33,21.14Z"/><path class="cls-7" d="M1.86,22.76c-1.51.65,2.37,4.16,5.63,6.1S36,25.09,38.28,25.61s6-3.69,5.35-5.47-1.78-2-1.78-1.69a6.48,6.48,0,0,1-4.45,3.71c-3,.77-26.76,2.55-29.48,2.79S2.09,22.66,1.86,22.76Z"/><path class="cls-5" d="M10.84,45.26c-2.3-.52-2-6.75-.56-8.47s19.57-1.59,23-.52,1.94,8.25.73,9S22.79,39.94,22,40.12,15.29,46.26,10.84,45.26Z"/><path class="cls-8" d="M31.14,29.07l-1.43,1.15.42,1.64a37.14,37.14,0,0,1,1.29,9.07,4.93,4.93,0,0,1,0,.57,34.27,34.27,0,0,1-7.19-4l-1.31-.94-.73-.51-2,1.45a37.31,37.31,0,0,1-5.73,3.42,12.17,12.17,0,0,1-1.35.57,33.59,33.59,0,0,1,1-9.64l.37-1.64L13,29.07c-3.47-2.77-6.9-6.38-7.61-8,1.33-.78,5.58-1.57,9.39-1.7l2.46-.07.64-2.21a47.78,47.78,0,0,1,3.9-9.83c.27.43.55.93.84,1.48a55.13,55.13,0,0,1,3.34,8.35l.7,2.21,2.47.08c3.8.12,8.08.91,9.43,1.69C37.87,22.69,34.54,26.3,31.14,29.07Z"/><path class="cls-9" d="M38.53,21.09c-.61,1.47-3.45,4.62-6.54,7.26l-.85.72-1.43,1.15.42,1.64a37.14,37.14,0,0,1,1.29,9.07,39,39,0,0,1-5.79-3.42l-2-1.45H22.15l-2,1.45a38.14,38.14,0,0,1-5.73,3.42c0-.25,0-.53,0-.83s0-.72,0-1.13a40.68,40.68,0,0,1,.84-6c.07-.36.16-.72.24-1.08l.38-1.64-1.45-1.15c-3.47-2.77-6.87-6.38-7.56-8,1.33-.79,5.59-1.57,9.4-1.7l2.47-.07.64-2.22a54.22,54.22,0,0,1,3.18-8.34,55.84,55.84,0,0,1,3.34,8.34l.7,2.22,2.46.08C32.9,19.52,37.18,20.3,38.53,21.09Z"/><path class="cls-10" d="M22.15,36.06a4.4,4.4,0,0,1,1.93.34c.54.39,4.07,2.79,4.06,3.19S24.42,37.71,22.15,36.06Z"/><path class="cls-5" d="M13.07,41.5c-.5-.2.55-3.49.92-3.77s.28,3,.43,3.2A3.5,3.5,0,0,1,13.07,41.5Z"/><path class="cls-11" d="M14.43,30.22h1.48s-1.51,4.41-1.73,5.59S13.23,34.56,14.43,30.22Z"/><path class="cls-11" d="M6.24,22.46C5.31,20.8,19,21.4,19,21.4s2.78-9.08,4.84-10.06c0,0-1.72-4-2-4.06s-4.54,12-4.54,12A36.85,36.85,0,0,0,5.36,21.09Z"/><path class="cls-11" d="M26.63,19.32S36.88,21.09,37.84,22l.69-.94S35.37,19.54,26.63,19.32Z"/><path class="cls-6" d="M25.26,1.54c-1.94,0,.87,3.34,2.24,6.46s7.69,3.08,7.69,3.08S32.48,3.21,30.8,2.26,25.26,1.54,25.26,1.54Z"/><path class="cls-6" d="M34.32,46c-.4-.3.85-.1,1.37-2.3s5.29-2,5.75-1.75-.29,3-1,3.53S34.32,46,34.32,46Z"/><path class="cls-5" d="M36.15,41.77c-.54-.18-.49-5.32-.47-6.29s5.18-.58,5.44,0,.49,5.67.2,6S36.49,41.89,36.15,41.77Z"/><path class="cls-12" d="M19.16,45.37c1.18-.21,3.7-1.34,3.79-1.68S20.16,43,19.5,43s-4.57,2.22-4.86,2.4A37.78,37.78,0,0,0,19.16,45.37Z"/><path class="cls-11" d="M22.27,40.93a8.42,8.42,0,0,0-2.57,1.74c-.06.31,3,.69,3.41.76a8.83,8.83,0,0,0,2.16-.73S22.38,40.89,22.27,40.93Z"/><path class="cls-11" d="M44.38,21.76c-.35.39-2.29,2.72-2.26,3.31s5.46-.08,5.79-.52,2.77-3.73,2.24-4.1S45.39,20.63,44.38,21.76Z"/><path class="cls-10" d="M29.93,15.32s11.23,1.09,12.75,3.32c2.3,3.39-5,10.07-5,10.07S45,22.24,44,19.06,29.93,15.32,29.93,15.32Z"/><path class="cls-13" d="M42.91,17.86c-.86-.4.46,1.7.26,3.24s.88-.44.87-1.47A2.53,2.53,0,0,0,42.91,17.86Z"/><path class="cls-5" d="M23.41,1.33c-2.23-.83-.89,7,1.46,12.67,2.24,5.41,4.49,3.26,4.95,1.86S25.26,2.72,23.41,1.33Z"/><path class="cls-13" d="M25.71,6.39c-1.62-.2-.68,4.72.32,6.45s2.42.59,2.45-.92S26.32,6.47,25.71,6.39Z"/><path class="cls-5" d="M23.11.56c-.72.22,2.05.73,4.17,1s2.63.27,2.62-.27S27-.63,23.11.56Z"/><path class="cls-5" d="M34.29,45.81c-.19-.19,5.38-.92,6-.81s-.72.7-.72.7S35.81,46.31,34.29,45.81Z"/><path class="cls-12" d="M30.13,31.86a37.14,37.14,0,0,1,1.29,9.07,39,39,0,0,1-5.79-3.42l-2-1.45H22.15l-2,1.45a38.14,38.14,0,0,1-5.73,3.42c0-.25,0-.53,0-.83l.49-.47c-.19,0-.34-.27-.44-.66a10.39,10.39,0,0,1,.84-6,10.14,10.14,0,0,1,4.25-4.88c5.93-3.37,12.45.29,12.45.29l-.85.72-1.43,1.15Z"/><path class="cls-13" d="M9.5,43.75c-.22-1.46.34-2.45.86-2.39s1.2,3.36.72,3.75S9.55,44.14,9.5,43.75Z"/><path class="cls-14" d="M25.21,42.73a23.61,23.61,0,0,1-6.92,3h0a3.21,3.21,0,0,1-.6.06h-.12c-1.55.14-5.12.4-6.74-.08h-.05a1.86,1.86,0,0,1-.59-.26C7.46,43.58,9.8,32.22,9.9,31.69c-.06.51-1.35,10.19-.21,12.53a1.86,1.86,0,0,0,.79.78,6.2,6.2,0,0,0,2.31.64,20.93,20.93,0,0,0,3.8,0c.82-.07,1.58-.16,2.2-.27a8.89,8.89,0,0,0,1.29-.28A48.12,48.12,0,0,0,25.21,42.73Z"/><path class="cls-14" d="M29.38.49,29,.44l-.14,0a18.59,18.59,0,0,0-6.14.32,7.74,7.74,0,0,0-1.06.35,2.13,2.13,0,0,0-.41.18C15.64,4.89,14.38,16,14.38,16s-10,.7-12.53,1.69c3.78-2.07,12-2.32,12-2.32S17.76.41,21.66.41c0,0,4.39-.93,7.25,0A1.6,1.6,0,0,1,29.38.49Z"/><path class="cls-15" d="M41.06,25.61c0-1.41-3.31,1.35-3.54,1.9A2.42,2.42,0,0,0,37.27,29C37.43,29.27,40.73,28.52,41.06,25.61Z"/><path class="cls-11" d="M40.77,25.31a2.17,2.17,0,0,0-2.09,1.85c-.11,1,.89,1,1.75,0S41,25.33,40.77,25.31Z"/><path class="cls-16" d="M37.56,27.43s0,.8.25,1c.48.33,1.55-.09,1.55-.09a5.71,5.71,0,0,1-2.11.93C36.37,29.34,37.56,27.43,37.56,27.43Z"/><path class="cls-13" d="M37,29.19c-.28-.36,1.43-.39,1.58-.43S37.31,29.54,37,29.19Z"/><path class="cls-15" d="M16.86,44c-.22,0,.23-1,.76-1.16s1.27-.15,1.24.2A1.87,1.87,0,0,1,16.86,44Z"/><path class="cls-16" d="M17.26,43.12c-.4.92.23.84.85.72a4,4,0,0,1-1.63.38A1.93,1.93,0,0,1,17.26,43.12Z"/><path class="cls-13" d="M16.56,44.2c-.06-.07.34-.33.59-.34a1,1,0,0,1,.51.14A1.94,1.94,0,0,1,16.56,44.2Z"/><path class="cls-11" d="M18,42.8c-.83.41-.58,1,.08,1s.88-.72.73-.85S18,42.8,18,42.8Z"/><path class="cls-5" d="M11.41,26.41c-1.8-.9,1,2.23,1.81,2.86l1.21.95h1.48A53.29,53.29,0,0,0,11.41,26.41Z"/><path class="cls-13" d="M14.43,30.22c-.37-.29-.63-1.24-.21-1.19s1.69,1.19,1.69,1.19Z"/><path class="cls-10" d="M22.15,36.06a5.1,5.1,0,0,1,1.93.34,19.1,19.1,0,0,1,1.42,1.31A13.76,13.76,0,0,1,22.15,36.06Z"/><path class="cls-14" d="M24.44,42.19A64,64,0,0,0,33.1,45.5a24,24,0,0,0,6.61.24,23.67,23.67,0,0,1-7.08.07C29.3,45.21,24.44,42.19,24.44,42.19Z"/><path class="cls-13" d="M.27,19.75c.31,1.57,2.45-.52,2.92-1.42S.36,17.46.27,19.75Z"/><path class="cls-10" d="M29.71,30.22s7.12-4.87,8.82-9.13A33.23,33.23,0,0,1,29.71,30.22Z"/><path class="cls-6" d="M16.42,29.05c-.68.08-3.93-2.67-4.43-4s3.95,0,10.81-.35,14.58-3.56,14.45-3.15-4.35,5.24-5.41,5.47-3.33-1.34-8.16-1.22S17.34,29,16.42,29.05Z"/></g></g></g></svg>