<svg xmlns="http://www.w3.org/2000/svg" xmlns:xlink="http://www.w3.org/1999/xlink" viewBox="0 0 33.52 56.01"><defs><style>.cls-1{isolation:isolate;}.cls-2{mix-blend-mode:screen;}.cls-13,.cls-2,.cls-5{opacity:0.5;}.cls-3{fill:url(#Безымянный_градиент_93);}.cls-4{fill:url(#Безымянный_градиент_188);}.cls-5,.cls-6,.cls-8{fill:#c9d16d;}.cls-10,.cls-13,.cls-5,.cls-8,.cls-9{mix-blend-mode:multiply;}.cls-6,.cls-7{mix-blend-mode:soft-light;}.cls-11,.cls-7{fill:#fff;}.cls-8{opacity:0.8;}.cls-9{fill:#b5ca6d;}.cls-10{fill:#c9b300;}.cls-12{fill:#006d41;}.cls-13{fill:#967566;}.cls-14{fill:#7cff4a;}</style><radialGradient id="Безымянный_градиент_93" cx="16.76" cy="28" r="23.08" gradientUnits="userSpaceOnUse"><stop offset="0.02" stop-color="#005efe"/><stop offset="1"/></radialGradient><linearGradient id="Безымянный_градиент_188" x1="16.26" y1="22.83" x2="16.26" y2="-32.82" gradientTransform="translate(1.36 34.33) rotate(-4.48)" gradientUnits="userSpaceOnUse"><stop offset="0" stop-color="#d8ff00"/><stop offset="0.26" stop-color="#4dff08"/><stop offset="1" stop-color="#134000"/></linearGradient></defs><g class="cls-1"><g id="Слой_2" data-name="Слой 2"><g id="layer1"><g class="cls-2"><path class="cls-3" d="M0,21.69c-.65,2.87,13.85,32.15,16.5,34.2S30.88,32.47,33.25,25.7,21.78,1.72,19.69.1,1.17,16.64,0,21.69Z"/><path class="cls-3" d="M2,22c.11,3.5,12,10.14,14.9,20.19s5.81-4.59,10-11.49.57-5.49-6.52-8.48-8.37,4.4-6.76,9.21,5.29,2.17,7.34.32S19.47,24.87,18,25.39s-1.31,2.91-2,1.8-.11-2.54,2.51-3.31,2.65,1.8,4.32,5.41S19,38,17,38.11s-5.08-8.89-8.24-14,2.68-3.15,6.27-9,5.8,3.58,11.57,5.7-4-18.46-7-19.94S1.76,15.54,2,22Z"/><path class="cls-3" d="M2.81,22.61c1.06,1.54,5.58-3.38,8.91-5.47s3-4.05,5.56-5.71,5.14,9.23,9.2,8.11-2.27-11.86-4.95-16-10.15,2-13.65,7S1.21,20.29,2.81,22.61Z"/><path class="cls-3" d="M17.72,22.27c-.47,1.3,1.25-2.17,3.62,2.64s3.92,5.46,5.6,2.65-3.74-3.16-6.25-4.75S17.72,22.27,17.72,22.27Z"/><path class="cls-3" d="M24.24,9.1c-3.94-3.94-4.69,7.54.33,9.43S25.62,10.48,24.24,9.1Z"/><path class="cls-3" d="M4.27,16c-1.88,3.49,7.43.13,11.64-4.08s4.42-7.4,2.67-8.82S8.24,8.61,4.27,16Z"/><path class="cls-3" d="M0,21.69c-.27.71,11.76,4.13,14.67,4S19.57,1.49,19.08.4,3.24,13.12,0,21.69Z"/><path class="cls-3" d="M18.89,25.58c-1.69-1,.17-24,.72-24.51S32.38,15.63,32.5,21.51,19.66,26.05,18.89,25.58Z"/><path class="cls-3" d="M18.61,24.71c-.54-4.79,0-20.22.55-20.94s10.75,9.05,8.64,15.31-7.71,7.61-9.19,6.05Z"/><path class="cls-3" d="M16,27.19c-.53-.89-14.26-4.47-14.89-3.84S13.72,53.16,16.39,55.21,16.65,28.28,16,27.19Z"/><path class="cls-3" d="M18.21,26.22c-.4,1.07-.29,24.84,0,26.75s13.27-24.6,14.3-26.84-3-.05-6.19.07S18.39,25.73,18.21,26.22Z"/><path class="cls-3" d="M19.61,53.1c-2.43,1.5,6.48-19.32,9-22.76s3.46-4.65,4-4.65S26,44.33,19.61,53.1Z"/><path class="cls-3" d="M9.9,44.8c-1.53-4.36,7.7,7,7.74,9.55s-1.66,1-1.66,1S11.23,48.6,9.9,44.8Z"/><path class="cls-3" d="M4.31,23.7c-3.17-.61-2.63,2.23.15,8.36S14,47.56,16.23,48.47s.83-20.72-.24-21.28S5.27,23.88,4.31,23.7Z"/><path class="cls-3" d="M15.75,26.41C15.46,26,17,21.54,17.4,21.56s.66,3.21.8,3.79S17.34,27.08,17,27.1,15.75,26.41,15.75,26.41Z"/><path class="cls-3" d="M19.92.72c-.41.64,11,16.81,11.74,17.5S28.28,8.69,19.92.72Z"/><path class="cls-3" d="M0,21.69c1.4.8,4.52-6.44,5.41-8.14S.69,19,0,21.69Z"/><path class="cls-3" d="M7.25,11.87C4.82,16,15.91,22.31,16.65,21.93S18.72,1.71,18.9,1.05,9.13,8.65,7.25,11.87Z"/><path class="cls-3" d="M22.45,25.58c1.07-.22-1.57-3.57-3.26-3S17.05,26.67,22.45,25.58Z"/><path class="cls-3" d="M27.13,10.19c-1.19-.56-3.32,8.3-3.19,8.93s5.5-3.78,5.4-5.25S27.13,10.19,27.13,10.19Z"/><path class="cls-3" d="M8.5,42.05c.69-2.74,3.29,2.86,1.93,3.76Z"/><path class="cls-3" d="M15.29,25.33c-1.19.35.4,1.62.85,2.06s.92-.82.82-1.6S15.29,25.33,15.29,25.33Z"/><path class="cls-3" d="M4.86,23.54c.27-.5,4.42,1.31,4.58,1.72S5.52,27.52,4.86,23.54Z"/><path class="cls-3" d="M5.65,25.33c.62.74,2.3.09,2.68-.32S6.66,23.7,5.69,23.55,5,24.51,5.65,25.33Z"/><path class="cls-3" d="M6.61,25.93c-.13,0,1.84-.66,2-.91s-1.51-1-1.51-1a9.36,9.36,0,0,1,2.46,1.26C9.92,25.73,7.58,26.26,6.61,25.93Z"/><path class="cls-3" d="M18.29,13.51c-.48-.46-1.85,2.32-.63,3.71S19.35,14.52,18.29,13.51Z"/><path class="cls-3" d="M17.26,15c-.28,1.72,1.24,1.69,1.52.27s-.73-1.78-.85-1.65A4,4,0,0,0,17.26,15Z"/><path class="cls-3" d="M17.84,17.39c-.53-.77.91-1.24,1-1.55S18.6,18.14,17.84,17.39Z"/><path class="cls-4" d="M0,21.69c-.65,2.87,13.85,32.15,16.5,34.2S30.88,32.47,33.25,25.7,21.78,1.72,19.69.1,1.17,16.64,0,21.69Z"/><path class="cls-5" d="M2,22c.11,3.5,12,10.14,14.9,20.19s5.81-4.59,10-11.49.57-5.49-6.52-8.48-8.37,4.4-6.76,9.21,5.29,2.17,7.34.32S19.47,24.87,18,25.39s-1.31,2.91-2,1.8-.11-2.54,2.51-3.31,2.65,1.8,4.32,5.41S19,38,17,38.11s-5.08-8.89-8.24-14,2.68-3.15,6.27-9,5.8,3.58,11.57,5.7-4-18.46-7-19.94S1.76,15.54,2,22Z"/><path class="cls-5" d="M2.81,22.61c1.06,1.54,5.58-3.38,8.91-5.47s3-4.05,5.56-5.71,5.14,9.23,9.2,8.11-2.27-11.86-4.95-16-10.15,2-13.65,7S1.21,20.29,2.81,22.61Z"/><path class="cls-5" d="M17.72,22.27c-.47,1.3,1.25-2.17,3.62,2.64s3.92,5.46,5.6,2.65-3.74-3.16-6.25-4.75S17.72,22.27,17.72,22.27Z"/><path class="cls-5" d="M24.24,9.1c-3.94-3.94-4.69,7.54.33,9.43S25.62,10.48,24.24,9.1Z"/><path class="cls-5" d="M4.27,16c-1.88,3.49,7.43.13,11.64-4.08s4.42-7.4,2.67-8.82S8.24,8.61,4.27,16Z"/><path class="cls-6" d="M0,21.69c-.27.71,11.76,4.13,14.67,4S19.57,1.49,19.08.4,3.24,13.12,0,21.69Z"/><path class="cls-7" d="M18.89,25.58c-1.69-1,.17-24,.72-24.51S32.38,15.63,32.5,21.51,19.66,26.05,18.89,25.58Z"/><path class="cls-7" d="M18.61,24.71c-.54-4.79,0-20.22.55-20.94s10.75,9.05,8.64,15.31-7.71,7.61-9.19,6.05Z"/><path class="cls-8" d="M16,27.19c-.53-.89-14.26-4.47-14.89-3.84S13.72,53.16,16.39,55.21,16.65,28.28,16,27.19Z"/><path class="cls-9" d="M18.21,26.22c-.4,1.07-.29,24.84,0,26.75s13.27-24.6,14.3-26.84-3-.05-6.19.07S18.39,25.73,18.21,26.22Z"/><path class="cls-7" d="M19.61,53.1c-2.43,1.5,6.48-19.32,9-22.76s3.46-4.65,4-4.65S26,44.33,19.61,53.1Z"/><path class="cls-7" d="M9.9,44.8c-1.53-4.36,7.7,7,7.74,9.55s-1.66,1-1.66,1S11.23,48.6,9.9,44.8Z"/><path class="cls-10" d="M4.31,23.7c-3.17-.61-2.63,2.23.15,8.36S14,47.56,16.23,48.47s.83-20.72-.24-21.28S5.27,23.88,4.31,23.7Z"/><path class="cls-7" d="M15.75,26.41C15.46,26,17,21.54,17.4,21.56s.66,3.21.8,3.79S17.34,27.08,17,27.1,15.75,26.41,15.75,26.41Z"/><path class="cls-7" d="M19.92.72c-.41.64,11,16.81,11.74,17.5S28.28,8.69,19.92.72Z"/><path class="cls-7" d="M0,21.69c1.4.8,4.52-6.44,5.41-8.14S.69,19,0,21.69Z"/><path class="cls-6" d="M7.25,11.87C4.82,16,15.91,22.31,16.65,21.93S18.72,1.71,18.9,1.05,9.13,8.65,7.25,11.87Z"/><path class="cls-11" d="M22.45,25.58c1.07-.22-1.57-3.57-3.26-3S17.05,26.67,22.45,25.58Z"/><path class="cls-11" d="M27.13,10.19c-1.19-.56-3.32,8.3-3.19,8.93s5.5-3.78,5.4-5.25S27.13,10.19,27.13,10.19Z"/><path class="cls-11" d="M8.5,42.05c.69-2.74,3.29,2.86,1.93,3.76Z"/><path class="cls-11" d="M15.29,25.33c-1.19.35.4,1.62.85,2.06s.92-.82.82-1.6S15.29,25.33,15.29,25.33Z"/><path class="cls-12" d="M4.86,23.54c.27-.5,4.42,1.31,4.58,1.72S5.52,27.52,4.86,23.54Z"/><path class="cls-13" d="M5.65,25.33c.62.74,2.3.09,2.68-.32S6.66,23.7,5.69,23.55,5,24.51,5.65,25.33Z"/><path class="cls-14" d="M6.61,25.93c-.13,0,1.84-.66,2-.91s-1.51-1-1.51-1a9.36,9.36,0,0,1,2.46,1.26C9.92,25.73,7.58,26.26,6.61,25.93Z"/><path class="cls-12" d="M18.29,13.51c-.48-.46-1.85,2.32-.63,3.71S19.35,14.52,18.29,13.51Z"/><path class="cls-13" d="M17.26,15c-.28,1.72,1.24,1.69,1.52.27s-.73-1.78-.85-1.65A4,4,0,0,0,17.26,15Z"/><path class="cls-14" d="M17.84,17.39c-.53-.77.91-1.24,1-1.55S18.6,18.14,17.84,17.39Z"/></g></g></g></g></svg>