<svg xmlns="http://www.w3.org/2000/svg" xmlns:xlink="http://www.w3.org/1999/xlink" viewBox="0 0 21.83 61.92"><defs><style>.cls-1{isolation:isolate;}.cls-2{fill:url(#Безымянный_градиент_136);}.cls-3{fill:#ff6934;}.cls-4{fill:url(#Безымянный_градиент_149);}.cls-5{fill:#ff451d;}.cls-15,.cls-6{fill:#bd3ea9;}.cls-10,.cls-15,.cls-17,.cls-6,.cls-7{mix-blend-mode:multiply;}.cls-6{opacity:0.3;}.cls-7{fill:#912790;}.cls-17,.cls-7{opacity:0.5;}.cls-8{fill:#ffa474;}.cls-11,.cls-8,.cls-9{mix-blend-mode:soft-light;}.cls-9{fill:#ffcfa9;}.cls-10{fill:#ca2790;opacity:0.74;}.cls-11{fill:#ffc08d;}.cls-12{fill:#ffba84;}.cls-13{fill:#ff958e;}.cls-14{fill:url(#Безымянный_градиент_171);}.cls-15{opacity:0.2;}.cls-16{fill:#ffd193;}.cls-17{fill:#d1524a;}</style><linearGradient id="Безымянный_градиент_136" x1="10.91" y1="61.92" x2="10.91" y2="19.83" gradientUnits="userSpaceOnUse"><stop offset="0" stop-color="#fe3136"/><stop offset="1" stop-color="#fb3325"/></linearGradient><linearGradient id="Безымянный_градиент_149" x1="3.54" y1="19.67" x2="18.29" y2="19.67" gradientUnits="userSpaceOnUse"><stop offset="0" stop-color="#dd1527"/><stop offset="1" stop-color="#bd1025"/></linearGradient><linearGradient id="Безымянный_градиент_171" x1="15.09" y1="21.97" x2="15.09" y2="0.25" gradientUnits="userSpaceOnUse"><stop offset="0" stop-color="#fe972c"/><stop offset="0.62" stop-color="#fe9629"/><stop offset="1" stop-color="#ff9322"/></linearGradient></defs><g class="cls-1"><g id="Слой_2" data-name="Слой 2"><g id="layer1"><path class="cls-2" d="M21.83,19.83s-.32,2.05-.73,5.39c-.3,2.37-.64,5.39-1,8.79l0,.38S20.07,35,20,36a178.16,178.16,0,0,0-.66,21.12,10,10,0,0,1-8.41,4.79,10,10,0,0,1-8.4-4.79c.15-3.88.09-8-.07-11.91a.81.81,0,0,0,0-.16c0-.15,0-.3,0-.44a1.09,1.09,0,0,1,0-.12c-.21-4.64-.58-9.11-1-12.93C1.22,29.44,1,27.51.8,25.86v-.08h0C.35,22.11,0,19.83,0,19.83L10.91,21Z"/><path class="cls-3" d="M0,19.39c.5-3.55,19-4.5,21.59,0C24.41,24.25-.78,25,0,19.39Z"/><path class="cls-4" d="M17.38,20.86c-2.66,1.31-10.4,1.39-13-.15-.6-.35-.93-.79-.84-1.32.34-2.23,12.83-2.83,14.58,0C18.51,20,18.17,20.48,17.38,20.86Z"/><path class="cls-5" d="M17.38,20.86c-2.66,1.31-10.4,1.39-13-.15C7,19.4,14.66,19.19,17.38,20.86Z"/><path class="cls-6" d="M20.15,34l0,.38S20.07,35,20,36a178.16,178.16,0,0,0-.66,21.12,10,10,0,0,1-8.41,4.79,10,10,0,0,1-8.4-4.79c.15-3.88.09-8-.07-11.91a.81.81,0,0,0,0-.16c0-.15,0-.3,0-.44a1.09,1.09,0,0,1,0-.12c-.21-4.64-.58-9.11-1-12.93,1.15,8.66,4,23.94,9.77,23.5C16.33,54.67,18.94,42.67,20.15,34Z"/><path class="cls-7" d="M19.32,57.13a10,10,0,0,1-8.41,4.79,10,10,0,0,1-8.4-4.79c.15-3.88.09-8-.07-11.91C2.56,47.57,3,55,3.54,57c.67,2.27,3.71,4.53,7.37,4.68a7.25,7.25,0,0,0,7.57-6.35C18.87,52.12,19.61,40,20,36A178.16,178.16,0,0,0,19.32,57.13Z"/><path class="cls-8" d="M12,23.65C2.48,25,6.29,54.08,11.21,55.07S19.53,39.32,20,31,19.47,22.61,12,23.65Z"/><path class="cls-6" d="M2,22.77c-1.29-.95-.06,12,.89,14.77s4.75-11.33,5.78-13S2,22.77,2,22.77Z"/><path class="cls-9" d="M16,24c-1.7-.19-2.61,16.31-1.45,17.16S17.18,24.18,16,24Z"/><path class="cls-10" d="M11.4,17.59c-4.12.47-2.47,1.36,1.23,2.08s4.52.83,4.75.95,1-.84.41-1.64S14.66,17.22,11.4,17.59Z"/><path class="cls-11" d="M8,23.18c-2.5-.71,6.17-.91,9.42-2.14S21,19,21.66,20,20.17,22.43,16,23A43.42,43.42,0,0,1,8,23.18Z"/><path class="cls-12" d="M2.3,22a25.7,25.7,0,0,0,8.41,2c4.82.32,10.2-2.54,10.2-2.54A31.19,31.19,0,0,1,2.3,22Z"/><path class="cls-13" d="M3.56,19.39s0-.73,1.51-1.24c2.89-1,8-.66,8-.66S5.46,17.19,3.56,19.39Z"/><path class="cls-14" d="M20.91,1.91s-7.2,6.91-8.12,19.88c0,0-2.91.57-3.51-.3A44.26,44.26,0,0,1,12.47,6.54s0,0,0,0h0A18.76,18.76,0,0,1,16.36.68S19.85-.86,20.9,1.91Z"/><path class="cls-15" d="M20.91,1.91s-7.2,6.91-8.12,19.88c0,0-2.91.57-3.51-.3A44.26,44.26,0,0,1,12.47,6.54c-.26.64-2.47,6.3-2,9,.51,2.87,3.88-4.65,6.67-8.76,2.66-3.94,3.69-5,3.75-4.88Z"/><path class="cls-16" d="M16.36.68c-1.63,1.16,4.21,1.42,4.55,1.23S19.2-1.33,16.36.68Z"/><path class="cls-17" d="M11.86,39.54a2.32,2.32,0,0,1-.15.47C11.07,41.4,8.84,43,7.61,42.3a1.35,1.35,0,0,1-.74-1h0C6.57,39.91,8,37.6,8.8,36.23,9.9,34.47,12.13,38.06,11.86,39.54Z"/><path class="cls-17" d="M6.11,43.82a9.25,9.25,0,0,1-.37,1.53c-.41,1.34-1.73.36-2.1-.69a1.6,1.6,0,0,1-.1-.52c0-1.18,1.19-2.22,2.2-1.69C6.09,42.63,6.19,43.11,6.11,43.82Z"/><path class="cls-17" d="M11.86,39.54a2.32,2.32,0,0,1-.15.47l-.1,0a3.71,3.71,0,0,0-.31-1.62c-.39-1.19-1.42-2.58-2.56-1.55S6.9,41.23,6.87,41.34C6.57,39.91,8,37.6,8.8,36.23,9.9,34.47,12.13,38.06,11.86,39.54Z"/><path class="cls-17" d="M6.11,43.82s-.83-1.5-1.65-1.16-.82,2-.82,2a1.6,1.6,0,0,1-.1-.52c0-1.18,1.19-2.22,2.2-1.69C6.09,42.63,6.19,43.11,6.11,43.82Z"/></g></g></g></svg>