<svg xmlns="http://www.w3.org/2000/svg" xmlns:xlink="http://www.w3.org/1999/xlink" viewBox="0 0 50.88 55.98"><defs><style>.cls-1{isolation:isolate;}.cls-2{fill:url(#Безымянный_градиент_126);}.cls-16,.cls-17,.cls-23,.cls-3{fill:#fff;}.cls-16,.cls-3{mix-blend-mode:soft-light;}.cls-17,.cls-20,.cls-3,.cls-6{opacity:0.5;}.cls-20,.cls-4,.cls-8{fill:#912790;}.cls-11,.cls-18,.cls-20,.cls-4,.cls-5,.cls-6,.cls-8{mix-blend-mode:multiply;}.cls-23,.cls-4{opacity:0.3;}.cls-5,.cls-6{fill:#ca2790;}.cls-5{opacity:0.74;}.cls-7{fill:#6d8eff;}.cls-11,.cls-8{opacity:0.2;}.cls-9{fill:#92bdff;}.cls-10{fill:#d6e6ff;}.cls-11,.cls-18{fill:#c68ec5;}.cls-12{fill:url(#Безымянный_градиент_129);}.cls-13{fill:url(#Безымянный_градиент_129-2);}.cls-14{fill:url(#Безымянный_градиент_133);}.cls-15{fill:url(#Безымянный_градиент_133-2);}.cls-18{opacity:0.4;}.cls-19{fill:url(#Безымянный_градиент_129-3);}.cls-21{fill:url(#Безымянный_градиент_129-4);}.cls-22{fill:url(#Безымянный_градиент_129-5);}</style><linearGradient id="Безымянный_градиент_126" x1="25.48" y1="55.98" x2="25.48" y2="10.84" gradientUnits="userSpaceOnUse"><stop offset="0" stop-color="#517eff"/><stop offset="1" stop-color="#6ba2ff"/></linearGradient><linearGradient id="Безымянный_градиент_129" x1="15.28" y1="54.82" x2="15.28" y2="15.23" gradientUnits="userSpaceOnUse"><stop offset="0" stop-color="#a90086"/><stop offset="1" stop-color="#ff003b"/></linearGradient><linearGradient id="Безымянный_градиент_129-2" x1="32.88" y1="55.1" x2="32.88" y2="15.23" xlink:href="#Безымянный_градиент_129"/><linearGradient id="Безымянный_градиент_133" x1="17.48" y1="17.05" x2="17.48" y2="10.81" gradientUnits="userSpaceOnUse"><stop offset="0" stop-color="#e82e86"/><stop offset="1" stop-color="#ff003b"/></linearGradient><linearGradient id="Безымянный_градиент_133-2" x1="33.11" y1="16.6" x2="33.11" y2="11.47" xlink:href="#Безымянный_градиент_133"/><linearGradient id="Безымянный_градиент_129-3" x1="14.58" y1="21.9" x2="14.58" y2="3.73" xlink:href="#Безымянный_градиент_129"/><linearGradient id="Безымянный_градиент_129-4" x1="36.57" y1="17.4" x2="36.57" y2="0" xlink:href="#Безымянный_градиент_129"/><linearGradient id="Безымянный_градиент_129-5" x1="26.11" y1="17.86" x2="26.11" y2="13.85" xlink:href="#Безымянный_градиент_129"/></defs><g class="cls-1"><g id="Слой_2" data-name="Слой 2"><g id="layer1"><path class="cls-2" d="M48.14,38.66h0c-1.08,5.54-2.21,10.22-2.86,10.8C43.65,50.92,26.75,56,24.23,56S6.8,51.45,5.08,49.46A25.38,25.38,0,0,1,3.83,44.7h0C1.94,35.74-1.07,17.29.54,16.28c2.1-1.31,20-5.36,26-5.44s23.32,6.25,24.26,7.9C51.32,19.73,49.8,30.2,48.14,38.66Z"/><path class="cls-3" d="M.55,16.28c-2.81,1.49,18.34,8.41,22.59,8.41s27-5.5,27.62-6S32.3,10.8,26.1,10.85,1.39,15.84.55,16.28Z"/><path class="cls-4" d="M24.23,56c-2.47-.31-1.8-28.93-1.09-30.13s25.71-6.28,26.72-6.05S46.16,48,45.28,49.46,25.37,56.12,24.23,56Z"/><path class="cls-5" d="M48.14,38.66c-1.08,5.54-2.21,10.22-2.86,10.8C43.65,50.92,26.75,56,24.23,56S6.8,51.45,5.08,49.46A25.38,25.38,0,0,1,3.83,44.7C4,45,4.8,48.76,7.24,50c1,.55,12.66,4.74,16.69,4.66S42.49,52,44.59,48.65,48.09,38.92,48.14,38.66Z"/><path class="cls-6" d="M24.23,56c-.92-1.89,7.59-16,9.68-17.32s6.53-2.79,7.93-1.86,3.44,12.66,3.44,12.66-2-11.45-3-12.77L50.77,19S42.5,35.29,42.15,35.87s-4,.41-9,2.33L23.47,25.63s-.23-.09-.33.22,8.64,10.48,8.68,12.81-8,14.22-8.35,15.27S24.23,56,24.23,56Z"/><path class="cls-7" d="M33.08,39.44c-.29,1.05,8-2,8.76-2.64S35.86,36.48,33.08,39.44Z"/><path class="cls-8" d="M26,53.7S31.55,41.11,34,40s7.38-2.5,8.31-2.14,2.8,10.56,2.49,11.46S32.36,54.55,28.63,55,26,53.7,26,53.7Z"/><path class="cls-9" d="M8.43,20.77s11.68,4.68,13.78,4.91S47.57,20.15,49,19.51s1.62-.71,1.62-.71-23,5.62-27.19,5.25A75,75,0,0,1,8.43,20.77Z"/><path class="cls-9" d="M20.06,24.91c1.62.28,2.26,21.25,2.42,22s-.6-17.36.66-21Z"/><path class="cls-10" d="M20.46,25.24c-2.54-1.52,7.94-1.28,8.25-1S22.27,26.83,20.46,25.24Z"/><path class="cls-11" d="M.84,19.79c.34-2,15.66,5,18.29,10.06S22.07,51.13,21.6,53s-13.95-1.73-16-5.48S.21,23.61.84,19.79Z"/><path class="cls-12" d="M17.37,54.39a4.72,4.72,0,0,1-2,.41c-.76-.11-4.83-.84-5.24-1.29S3.78,21.28,4.67,19.31,22.16,15,23.14,15.25A19.63,19.63,0,0,1,26,16.59s-12,3.85-13.39,5,3,32,3.08,32.27S17.37,54.39,17.37,54.39Z"/><path class="cls-13" d="M30.7,54.6s1.89.44,2.38.49A38.31,38.31,0,0,0,39.8,53c.7-.47,3.49-30.23,3.26-32s-16.61-5.7-17.22-5.73a6.07,6.07,0,0,0-3.11.95c-.81.65,11.07,5,11.88,6.65s-1.25,30.85-1.53,31.05A19,19,0,0,1,30.7,54.6Z"/><path class="cls-14" d="M23.74,17.05c-1.82-.52-12.89-3.6-12.89-3.6l-3.28.69s.48-1.45.86-1.62,8.42-2,9.87-1.67,9.09,5.51,9.09,5.51Z"/><path class="cls-15" d="M43.07,15.06a3,3,0,0,0-.24-1.13c-.24-.42-7.28-2.4-8-2.46S23.14,15.6,23.14,15.6a15.77,15.77,0,0,0,3.06,1c1.25.18,14.88-2.21,15.17-2.21A10.27,10.27,0,0,1,43.07,15.06Z"/><path class="cls-5" d="M35,54.57s.77-30.28,1.73-31.24,5-1.17,5.6-1.09S40,52.1,39.62,52.69,35,54.57,35,54.57Z"/><path class="cls-5" d="M17.37,54.39a11,11,0,0,1-2.4.34c-.54-.09-4.39-31.47-4.08-33.2s13.17-4.31,13.17-4.31,9.62,4,10.48,4.71.26,4.39.26,4.39-.36-3-1.07-3.74-6.33-3.64-9-3.53c-1.66.08-3.23,2.83-5.58,3.66-1.5.54-5.2-1.15-5.73-.27C12,24.69,15.94,53.81,16.25,54.05A3.35,3.35,0,0,0,17.37,54.39Z"/><path class="cls-16" d="M5.14,19c-.39.93,4.23,1.83,5.24,1.75s12-3.24,12.31-3.68-4.5-1.14-6-1.1S6.47,18.06,5.14,19Z"/><path class="cls-5" d="M26.11,18.21s9.11.9,14.82.13,2.64-3.11,2.64-3.11l-19,2.28Z"/><path class="cls-17" d="M4.67,19.31C4.16,19.38,8,20.79,9,21s1.12.52,1.78.11S5.17,19.25,4.67,19.31Z"/><path class="cls-17" d="M36.24,22.59c-1.8-.29,4.48-1.45,5.65-1.54S40.41,23.26,36.24,22.59Z"/><path class="cls-18" d="M5.12,21.14c.15-1.06,5,1.11,5.44,1.74s2.09,19.75,1.86,20.8-4.16.74-4.29,0S5,22.13,5.12,21.14Z"/><path class="cls-5" d="M30.7,54.6a7.58,7.58,0,0,0,1.74-1.37c.35-.54,2.36-26.91,2.36-26.91s-1.06,26.33-1.51,27.53S30.7,54.6,30.7,54.6Z"/><path class="cls-19" d="M27,17.06h0a.87.87,0,0,0-.31.06l-.27.1c-2.09.84-9.07,4.45-10.28,4.67a5.44,5.44,0,0,1-1.75-.22C11.14,21,5,18.85,4.58,18.34s-5.42-13,.53-14.49c3.72-.91,8.82,3.51,12.75,6.9,2.37,2.05,4.32,3.73,5.28,3.65,0,0,1.45,1,2.57,1.73,0,0,0,0,0,0l.51.36c.24.15.43.29.56.39S27,17,27,17.06Z"/><path class="cls-20" d="M16,21.14c-2.05.79-3.41-9.91-3-11.62s7.19,7,11.41,7.08S16.46,21,16,21.14Z"/><path class="cls-5" d="M27,16.6l-.19.29,0,.06-.11.16h0l-.27.1c-2.09.84-9.07,4.45-10.28,4.67a5.44,5.44,0,0,1-1.75-.22c-1.5-3.05-4.89-16-.23-13.09,1.14.72,2.43,1.46,3.75,2.18,2.37,2.05,4.32,3.73,5.28,3.65,0,0,1.45,1,2.57,1.73a6.27,6.27,0,0,1-1.08-1.59,9.83,9.83,0,0,1,2,1.53A1.07,1.07,0,0,1,27,16.6Z"/><path class="cls-21" d="M42.58,15.81c-1.24,1.29-14.09,1.91-15.66,1.42a1.3,1.3,0,0,1-.34-.15h0L26.38,17a3.79,3.79,0,0,1-.45-.34h0a4.07,4.07,0,0,1-.41-.42h0a6.34,6.34,0,0,1-.9-1.47,0,0,0,0,0,0,0c1.15,0,5.66-12.7,7.18-14S43-.1,46.9,1.78a4,4,0,0,1,1,.65C50.55,4.87,43.87,14.48,42.58,15.81Z"/><path class="cls-20" d="M26.94,16.43a50.6,50.6,0,0,0,8.37-3.15C41,10.38,43.77,4.4,46.16,4.13s-1.26,10-5.81,11.41C36.2,16.81,26.94,16.43,26.94,16.43Z"/><path class="cls-5" d="M42.58,15.81c-1.24,1.29-14.09,1.91-15.66,1.42a1.3,1.3,0,0,1-.34-.15h0a.49.49,0,0,0-.26.06l-.17.29-.05-.2-.14-.58h0a.19.19,0,0,1,0-.08,1,1,0,0,1,.38-.4c1.52-1,7.26-2.23,11-5.78,4.82-4.64,6.41-8.15,9.6-8.61a4,4,0,0,1,1,.65C50.55,4.87,43.87,14.48,42.58,15.81Z"/><path class="cls-22" d="M22.48,14.26s3.55-.91,5.65,0a2.25,2.25,0,0,1,1.39,3.17c-.23.7-4.42.34-4.42.34a3.54,3.54,0,0,0-.1-1.94C24.65,14.7,22.48,14.26,22.48,14.26Z"/><path class="cls-23" d="M23.14,14.12s2.27,1.13,2.62,1.4,3.18-.36,3.26-.5a4.79,4.79,0,0,0-3-1.09A20.81,20.81,0,0,0,23.14,14.12Z"/><path class="cls-5" d="M26,14.06s2.35-5,4.28-8.83c2.09-4.11,9.63-2.25,9.48,1s-9.13,7.9-10.5,8.11A10.44,10.44,0,0,1,26,14.06Z"/><path class="cls-5" d="M12.44,20.85C14,20.85,10.27,9,7.16,7S3,6.77,2.58,8.14s1.79,9.75,2.53,10.52S12.44,20.85,12.44,20.85Z"/><path class="cls-5" d="M27.38,14.32a7,7,0,0,0,3.5-2c1.24-1.53.57-6.35-.33-6.17S26,14.06,26,14.06Z"/><path class="cls-23" d="M3.12,5.16c-.47.86,5.25.92,6.59,2.78s2.13.21,3.21,0S9,4.39,6.28,4.33,3.12,5.16,3.12,5.16Z"/><path class="cls-23" d="M30.93,2.47c-.46.74,4.66-.77,7.2.48a5.27,5.27,0,0,0,6-.8C45.14,1.14,33.11-1.1,30.93,2.47Z"/><path class="cls-5" d="M39.59,10.19c-2.34,2.38,1.38,5,2,4.85s5.49-6,4.95-9.25S43.89,5.83,39.59,10.19Z"/><path class="cls-5" d="M13.45,15.58c.21.91,9.13,1.14,9.69,1s-3.9-2.07-6.46-4.75S13.21,9.13,13,9.52,13.3,14.89,13.45,15.58Z"/><path class="cls-9" d="M1.21,29.88S0,20.89.77,18.65a8.2,8.2,0,0,1,1.54-3.07,5.1,5.1,0,0,0-2,.74C-.19,16.82-.19,19.76,1.21,29.88Z"/><path class="cls-10" d="M.29,16.68c0,.72.72.86.87.72A13.46,13.46,0,0,0,1.84,16S.25,16,.29,16.68Z"/></g></g></g></svg>