<svg xmlns="http://www.w3.org/2000/svg" xmlns:xlink="http://www.w3.org/1999/xlink" viewBox="0 0 48.45 62.51"><defs><style>.cls-1{isolation:isolate;}.cls-2{fill:#ff0064;}.cls-3{fill:#912790;opacity:0.5;}.cls-11,.cls-13,.cls-15,.cls-3,.cls-8{mix-blend-mode:multiply;}.cls-4{fill:#8d001a;}.cls-5{fill:url(#Безымянный_градиент_103);}.cls-6{fill:#c37886;}.cls-7{fill:url(#Безымянный_градиент_296);}.cls-8{fill:#ca2790;}.cls-11,.cls-8{opacity:0.74;}.cls-21,.cls-9{fill:#fff;}.cls-12,.cls-18,.cls-21,.cls-9{mix-blend-mode:soft-light;}.cls-13,.cls-9{opacity:0.3;}.cls-10{fill:url(#Безымянный_градиент_117);}.cls-11{fill:#d983ea;}.cls-12,.cls-16{fill:#f5ffea;}.cls-13{fill:#bd3ea9;}.cls-14{fill:#ff8959;}.cls-15{fill:#e03d90;opacity:0.8;}.cls-17,.cls-18{fill:#ff6d2c;}.cls-19{fill:url(#Безымянный_градиент_140);}.cls-20{fill:url(#Безымянный_градиент_140-2);}</style><linearGradient id="Безымянный_градиент_103" x1="26.48" y1="62.24" x2="26.48" y2="11.74" gradientUnits="userSpaceOnUse"><stop offset="0" stop-color="#b42b00"/><stop offset="1" stop-color="#b32c11"/></linearGradient><linearGradient id="Безымянный_градиент_296" x1="19.76" y1="62.32" x2="19.76" y2="11.74" gradientUnits="userSpaceOnUse"><stop offset="0" stop-color="#b42b00"/><stop offset="1" stop-color="#ce5411"/></linearGradient><linearGradient id="Безымянный_градиент_117" x1="21.11" y1="53.11" x2="21.11" y2="20.87" gradientUnits="userSpaceOnUse"><stop offset="0" stop-color="#de0086"/><stop offset="0.34" stop-color="#f50051"/><stop offset="1" stop-color="#a4003b"/></linearGradient><linearGradient id="Безымянный_градиент_140" x1="3.83" y1="28.83" x2="0.89" y2="20.75" gradientUnits="userSpaceOnUse"><stop offset="0" stop-color="#ff9600"/><stop offset="1" stop-color="#ffa900"/></linearGradient><linearGradient id="Безымянный_градиент_140-2" x1="5.73" y1="55.94" x2="3.06" y2="48.6" xlink:href="#Безымянный_градиент_140"/></defs><g class="cls-1"><g id="Слой_2" data-name="Слой 2"><g id="layer1"><path class="cls-2" d="M29.26,11.87l-.54.07h0L17,13.33S15.81,4,16,3.44l0,0c.43-.34,6.17,2.34,6.86,1.84A2.31,2.31,0,0,0,23.12,5c.86-1.1,2.7-4.66,4.47-5a.42.42,0,0,1,.29,0C29.53.9,29.26,11.87,29.26,11.87Z"/><path class="cls-3" d="M29.26,11.87l-.54.07h0l-.08-.07c-.4-.44-1.9-10.71-.76-11.81C29.53.9,29.26,11.87,29.26,11.87Z"/><path class="cls-3" d="M23.12,5c-.22.48-.42.87-.5.87S16.71,4.3,16,3.4c.43-.34,6.17,2.34,6.86,1.84A2.31,2.31,0,0,0,23.12,5Z"/><path class="cls-4" d="M45.48,11.88c2.32.09,2.83.55,3,1.8s-1,46.66-1,47.64-26.82,1.92-36.19.35S45.48,11.88,45.48,11.88Z"/><path class="cls-5" d="M10.63,61.55c-1.49-.41-5.58-44.81-4-46.36s36.56-4.06,38.88-3.31.77,48.72,0,49.44S15.42,62.85,10.63,61.55Z"/><path class="cls-6" d="M42.06,15.84s2.06-.39,2.83.64S45,53,44.5,57.28s-5,3.54-5,3.54Z"/><path class="cls-4" d="M38.37,11.88c2.32.09,3.69.55,3.82,1.8s-1,46.66-1,47.64S14.34,63.24,5,61.67,38.37,11.88,38.37,11.88Z"/><path class="cls-7" d="M4.37,61.55c-1.48-.41-5.58-44.81-4-46.36s35.71-4.06,38-3.31.5,48.95-.27,49.67S9.16,62.85,4.37,61.55Z"/><path class="cls-8" d="M8.49,62,6.92,62C6.74,29,4,14.25,4,14.25L6.25,14c0,.42,0,.88,0,1.39C6.44,27.51,8.49,62,8.49,62Z"/><path class="cls-8" d="M8.49,62,6.92,62C6.74,29,4,14.25,4,14.25L6.25,14c0,.42,0,.88,0,1.39h0C4.78,15.19,7.14,59.37,8.49,62Z"/><path class="cls-9" d="M.32,15.19c-.19,1.13,0,21.15,1.87,30.87s3.26-8.26,3.23-13S4,16,3.31,15.19.32,15.19.32,15.19Z"/><path class="cls-8" d="M11.68,22.33c.92-2.36,16.93-3.19,19.15-1.88s.9,30.25,0,32.23-16.27,1.74-17.42.61S10,26.55,11.68,22.33Z"/><path class="cls-10" d="M11.41,23.22c.9-2.21,16.6-3,18.78-1.76s.88,28.41,0,30.26-16,1.64-17.09.58S9.79,27.19,11.41,23.22Z"/><path class="cls-11" d="M30.56,22c-1.53-.85-1.8,27.15-1.5,28.73s1.13,1,1.13,1S32.34,36.22,30.56,22Z"/><path class="cls-12" d="M12,23.63c-.65,1.09,15.27-.15,17-.6s1.24-1.57,1.24-1.57S14.32,19.69,12,23.63Z"/><path class="cls-11" d="M13.1,52.3s8.18,1.1,12.53.38,4.56-1,4.56-1-.1,1.46-7.71,1.68S13.1,52.3,13.1,52.3Z"/><path class="cls-13" d="M8,14.68c-1.45.43,0,4.64,1,6s7.08-1,14.87-1.49,7.85,1,8.2,1.89.29,18.37.61,19.89,6.6,1.21,6.61.62.34-27.61-1-28.9S12.43,13.36,8,14.68Z"/><path class="cls-14" d="M14,53.57s1.38,1.49,8.16,1.2S30.54,53,30.54,53a32.74,32.74,0,0,1-8.4,1.12A31.11,31.11,0,0,1,14,53.57Z"/><path class="cls-15" d="M19.76,30.45c-.87-2.47-4.9,1.71-3.79,6.44s7.75,1.91,9.55-3.59S23.84,26.65,19.76,25s-7.18,4.32-7.24,6.89.13,10.87,5.73,14.86,6.35,5,8.56-1S29,35.27,28.22,34.63s-5.79,8.88-8,9.13-6.44-6.24-5.79-11.45,6.08-4.12,7.9-3-1.73,5.6-2.53,6.5S18,33.6,18.5,32.89s.52,1.29,1.55.45S19.76,30.45,19.76,30.45Z"/><path class="cls-16" d="M23.36,23.65c-2.26-.47.78-2.36,4.35-2.4s2.84,1.32,1,1.83A23.65,23.65,0,0,1,23.36,23.65Z"/><path class="cls-12" d="M13.1,51.07c-1.39-6.79,10.84.16,13,.65S14.59,54,13.1,51.07Z"/><path class="cls-15" d="M17.28,36.06c.48,2,.9,2.77,4.57,0s2.64-5,3.22-6.84-8.2-2.69-9.46-2.36S13,32.8,14.26,37.32s3.25,6.88,6.85,9.6,5.05-1.24,5.76-6-1.74-1.18-3.51,1.78-5.89.91-7.49-2.26-2.26-10.29-.2-12.22,5.85.09,7.47,1.69-2.23,6.85-3.78,6.94S17.69,34,17.6,32.78,16.53,32.92,17.28,36.06Z"/><path class="cls-17" d="M37.42,11.74c-1.93.54,1.6,3.45,2.09,3.45s1.39-2.25.62-2.93S37.42,11.74,37.42,11.74Z"/><path class="cls-17" d="M45.08,11.88c-1,0,.43,1.36,1,1.58s1.73-.65,1.28-1A2.8,2.8,0,0,0,45.08,11.88Z"/><path class="cls-18" d="M34.1,62s3.8-3,4.3-2.41S38.14,62,37.55,62,34.1,62,34.1,62Z"/><path class="cls-19" d="M0,21.06s4.14-.93,4.56,0,.48,6.1.31,7S.44,29.43.44,29.43.08,23.29,0,21.06Z"/><path class="cls-20" d="M2.23,48.9s2.89-.47,3.53,0,.86,6.21.49,6.75-3.08.61-3.08.61Z"/><path class="cls-8" d="M.44,29.43a15.79,15.79,0,0,0,3.89-1.28c.77-.63.5-6,.5-6s.61,5.19.17,6.46-4.56,1-4.56,1Z"/><path class="cls-8" d="M3.17,56.26s2.38-.21,2.94-.74.14-4.89.14-4.89.46,4.57.18,5.19-3.21.78-3.21.78Z"/><path class="cls-21" d="M2.52,48.85C2,49,3.21,54.62,4,55s2.48-.64,2.36-2.49-.49-3.22-1-3.39A21,21,0,0,0,2.52,48.85Z"/><path class="cls-21" d="M.64,21.2c-.48.35,0,5.81.34,6.45s3.37.52,3.54-1.65.39-4.48-.17-4.8S1.22,20.77.64,21.2Z"/><path class="cls-21" d="M42.06,15.84s-.22,5.78.32,6.3,2.84,0,2.84,0,.23-4.72-.33-5.66S42.06,15.84,42.06,15.84Z"/></g></g></g></svg>