<svg xmlns="http://www.w3.org/2000/svg" xmlns:xlink="http://www.w3.org/1999/xlink" viewBox="0 0 54.82 64.95"><defs><style>.cls-1{isolation:isolate;}.cls-2{fill:url(#Безымянный_градиент_97);}.cls-3{fill:url(#Безымянный_градиент_638);}.cls-26,.cls-4{fill:#ca2790;}.cls-13,.cls-24,.cls-26,.cls-28,.cls-4,.cls-7,.cls-9{mix-blend-mode:multiply;}.cls-4,.cls-7,.cls-9{opacity:0.74;}.cls-5{fill:url(#Безымянный_градиент_847);}.cls-6{fill:url(#Безымянный_градиент_847-2);}.cls-7{fill:#d42790;}.cls-23,.cls-29,.cls-8{fill:#fff;}.cls-23,.cls-8{mix-blend-mode:soft-light;}.cls-9{fill:#f36a90;}.cls-10{fill:url(#Безымянный_градиент_638-2);}.cls-11{fill:url(#Безымянный_градиент_847-3);}.cls-12{fill:url(#Безымянный_градиент_847-4);}.cls-13{fill:#600090;}.cls-13,.cls-24,.cls-26{opacity:0.5;}.cls-14{fill:url(#Безымянный_градиент_638-3);}.cls-15{fill:url(#Безымянный_градиент_847-5);}.cls-16{fill:url(#Безымянный_градиент_847-6);}.cls-17{fill:url(#Безымянный_градиент_560);}.cls-18{fill:url(#Безымянный_градиент_140);}.cls-19{fill:url(#Безымянный_градиент_84);}.cls-20{fill:url(#Безымянный_градиент_91);}.cls-21{fill:url(#Безымянный_градиент_560-2);}.cls-22{fill:url(#Безымянный_градиент_15);}.cls-23{opacity:0.3;}.cls-24{fill:#bd3ea9;}.cls-25{fill:#ffc400;}.cls-27{fill:#ffd300;}.cls-28{fill:#e02774;opacity:0.2;}</style><linearGradient id="Безымянный_градиент_97" x1="30.99" y1="18.25" x2="30.99" y2="1.03" gradientUnits="userSpaceOnUse"><stop offset="0" stop-color="#a70057"/><stop offset="1" stop-color="#83003b"/></linearGradient><linearGradient id="Безымянный_градиент_638" x1="25.76" y1="19.46" x2="25.76" gradientUnits="userSpaceOnUse"><stop offset="0" stop-color="#de0086"/><stop offset="1" stop-color="#ff003b"/></linearGradient><linearGradient id="Безымянный_градиент_847" x1="18.49" y1="15.98" x2="25.12" y2="5.76" gradientUnits="userSpaceOnUse"><stop offset="0" stop-color="#ffea34"/><stop offset="0.58" stop-color="#ff8100"/><stop offset="0.7" stop-color="#ffa400"/><stop offset="1" stop-color="#ffba00"/></linearGradient><linearGradient id="Безымянный_градиент_847-2" x1="22.45" y1="16.73" x2="32.46" y2="1.31" xlink:href="#Безымянный_градиент_847"/><linearGradient id="Безымянный_градиент_638-2" x1="11.79" y1="64.95" x2="11.79" y2="41.57" xlink:href="#Безымянный_градиент_638"/><linearGradient id="Безымянный_градиент_847-3" x1="4.51" y1="57.51" x2="13.86" y2="43.11" xlink:href="#Безымянный_градиент_847"/><linearGradient id="Безымянный_градиент_847-4" x1="10.56" y1="62.92" x2="20.3" y2="47.92" xlink:href="#Безымянный_градиент_847"/><linearGradient id="Безымянный_градиент_638-3" x1="-447.15" y1="64.95" x2="-447.15" y2="41.57" gradientTransform="matrix(-1, 0, 0, 1, -404.12, 0)" xlink:href="#Безымянный_градиент_638"/><linearGradient id="Безымянный_градиент_847-5" x1="-454.43" y1="57.51" x2="-445.08" y2="43.11" gradientTransform="matrix(-1, 0, 0, 1, -404.12, 0)" xlink:href="#Безымянный_градиент_847"/><linearGradient id="Безымянный_градиент_847-6" x1="-448.38" y1="62.92" x2="-438.64" y2="47.92" gradientTransform="matrix(-1, 0, 0, 1, -404.12, 0)" xlink:href="#Безымянный_градиент_847"/><linearGradient id="Безымянный_градиент_560" x1="33.86" y1="51.3" x2="20.83" y2="15.52" gradientUnits="userSpaceOnUse"><stop offset="0" stop-color="#f63f00"/><stop offset="0.55" stop-color="#f66a00"/><stop offset="1" stop-color="#fa9300"/></linearGradient><linearGradient id="Безымянный_градиент_140" x1="33.44" y1="48.59" x2="21.25" y2="15.11" gradientTransform="translate(4.41 -3.31) rotate(7.53)" gradientUnits="userSpaceOnUse"><stop offset="0" stop-color="#ff9600"/><stop offset="1" stop-color="#ffa900"/></linearGradient><linearGradient id="Безымянный_градиент_84" x1="31.27" y1="42.63" x2="23.42" y2="21.07" gradientTransform="translate(45.53 -5.99) rotate(66.31)" gradientUnits="userSpaceOnUse"><stop offset="0" stop-color="#fa9300"/><stop offset="0.45" stop-color="#f66a00"/><stop offset="1" stop-color="#f63f00"/></linearGradient><linearGradient id="Безымянный_градиент_91" x1="30.9" y1="42.55" x2="23.79" y2="23.03" gradientUnits="userSpaceOnUse"><stop offset="0" stop-color="#ff9600"/><stop offset="1" stop-color="#ff8e00"/></linearGradient><linearGradient id="Безымянный_градиент_560-2" x1="26.68" y1="40.4" x2="26.68" y2="25.54" xlink:href="#Безымянный_градиент_560"/><linearGradient id="Безымянный_градиент_15" x1="26.68" y1="39.28" x2="26.68" y2="24.42" gradientUnits="userSpaceOnUse"><stop offset="0" stop-color="#ffa800"/><stop offset="1" stop-color="#ffa900"/></linearGradient></defs><g class="cls-1"><g id="Слой_2" data-name="Слой 2"><g id="layer1"><path class="cls-2" d="M28.39,18.25l3.71-1.33c.69-.25,3.67-14,.56-15.7S26.79,8.71,28.39,18.25Z"/><path class="cls-3" d="M32.67,18.71a3.78,3.78,0,0,1-2,0S35.28,6.31,33.49,2.8s-3.44-1.48-4,16.47l-1.55,0-5.46.15s-6.33-12-5.94-14S26-.43,31.94,0h.16C38,.6,33.28,18.36,32.67,18.71Z"/><path class="cls-4" d="M32.67,18.71a3.78,3.78,0,0,1-2,0S35.28,6.31,33.49,2.8s-3.44-1.48-4,16.47l-1.55,0c0-4.69.2-19.27,4-19.27h.16C38,.6,33.28,18.36,32.67,18.71Z"/><path class="cls-4" d="M30.92,3.33c-.34.86-1.79,7.49-.53,10s3.76-4.64,3.51-8.13S32.2.12,30.92,3.33Z"/><path class="cls-5" d="M23.79,19.42S18.37,9.65,17.54,7.34a3.59,3.59,0,0,1,1.1-3.86l1.65-.86A5.75,5.75,0,0,0,19.51,8c.81,2.82,5,11.3,5,11.3Z"/><path class="cls-6" d="M27.3,19.27S26,8.52,26.76,4.73A6.2,6.2,0,0,1,30.45,0a21.73,21.73,0,0,0-3.76.49s-1.29.81-1.93,4.06,1.67,14.76,1.67,14.76Z"/><path class="cls-7" d="M23,19.31s-4-7.52-2.5-9.67,7,8.21,7,9.63Z"/><path class="cls-7" d="M23,19.31c.64.82,2.07-2,.85-5.47-1.93-5.42-3.32-4.22-3.68-3.94S21.24,17,23,19.31Z"/><path class="cls-8" d="M16.92,5.48C15.62,7.35,26.5,5.11,28.79,2S20.19.75,16.92,5.48Z"/><path class="cls-8" d="M22.9,10.07c-1-3,3.88-.26,4.45,1.62s.54,4.72,0,5.13S23.39,11.63,22.9,10.07Z"/><path class="cls-7" d="M28.38,8.72c-.21,2.94,2.34-4.6,2.74-6.61s-.67-.86-.67-.86S28.78,2.91,28.38,8.72Z"/><path class="cls-9" d="M21.33,5.65c-1.48.34,3,2.32,4.43,4S29.09,4.2,29.11,3s-1.93.58-4.35,1.53A16.13,16.13,0,0,1,21.33,5.65Z"/><path class="cls-10" d="M23.57,50.46S13.83,65.81,11.84,64.91,10.39,57.78,9,56.63a1.39,1.39,0,0,0-.4-.22c-2-.78-7.95.06-8.57-1.19S11.84,41.57,11.84,41.57Z"/><path class="cls-11" d="M14,43.17S2.87,54.36,2.42,54.92a1.4,1.4,0,0,0-.39,1h3.7a2.34,2.34,0,0,1,.13-1C6.05,54.33,16.4,45,16.4,45Z"/><path class="cls-12" d="M19.84,47.63S10,59.62,10,59.7s.61,3.26.61,3.26S19.29,52.3,22,49.3Z"/><path class="cls-13" d="M8.6,56.41c-2-.78-7.95.06-8.57-1.19.25-.85,6.4.39,7.56.39A1.13,1.13,0,0,1,8.6,56.41Z"/><path class="cls-13" d="M23.57,50.46S13.83,65.81,11.84,64.91C13.13,65.3,20.18,52.64,23.57,50.46Z"/><path class="cls-8" d="M10.32,59.78a23.08,23.08,0,0,1,3.41-4.49c.45-.29,1.64.5,1.88.89S11.44,61.66,11.06,62,10.32,59.78,10.32,59.78Z"/><path class="cls-8" d="M5.54,54.72c-.7,0-2,0-2.2-.26s3.29-3.76,4.08-4.33a2.92,2.92,0,0,1,2.78,0C10.43,50.46,5.54,54.72,5.54,54.72Z"/><path class="cls-14" d="M31.25,50.46S41,65.81,43,64.91s1.46-7.13,2.85-8.28a1.26,1.26,0,0,1,.4-.22c2-.78,8,.06,8.57-1.19S43,41.57,43,41.57Z"/><path class="cls-15" d="M40.86,43.17S52,54.36,52.4,54.92a1.42,1.42,0,0,1,.38,1h-3.7a2.15,2.15,0,0,0-.13-1c-.19-.59-10.53-9.9-10.53-9.9Z"/><path class="cls-16" d="M35,47.63s9.84,12,9.82,12.07S44.2,63,44.2,63,35.53,52.3,32.78,49.3Z"/><path class="cls-13" d="M46.22,56.41c2-.78,8,.06,8.57-1.19-.25-.85-6.41.39-7.56.39A1.13,1.13,0,0,0,46.22,56.41Z"/><path class="cls-13" d="M31.25,50.46S41,65.81,43,64.91C41.69,65.3,34.64,52.64,31.25,50.46Z"/><path class="cls-8" d="M44.49,59.78a22.31,22.31,0,0,0-3.41-4.49c-.44-.29-1.63.5-1.88.89s4.18,5.48,4.56,5.77S44.49,59.78,44.49,59.78Z"/><path class="cls-8" d="M49.27,54.72c.7,0,2,0,2.2-.26s-3.28-3.76-4.08-4.33a2.9,2.9,0,0,0-2.77,0C44.39,50.46,49.27,54.72,49.27,54.72Z"/><ellipse class="cls-17" cx="27.34" cy="33.41" rx="17.81" ry="19.19"/><circle class="cls-18" cx="27.34" cy="31.85" r="17.81" transform="translate(-3.94 3.86) rotate(-7.53)"/><circle class="cls-19" cx="27.34" cy="31.85" r="11.47" transform="translate(-12.81 44.1) rotate(-66.31)"/><circle class="cls-20" cx="27.34" cy="32.79" r="10.39"/><path class="cls-21" d="M23.45,29s1.26.07,2.26-2.75a6.33,6.33,0,0,1,3.83-.59L29.9,40.4H25.4l-.32-8.54-1.63-.18Z"/><path class="cls-22" d="M23.45,27.86s1.26.08,2.26-2.74a6.25,6.25,0,0,1,3.83-.59l.36,14.75H25.4l-.32-8.54-1.63-.18Z"/><path class="cls-8" d="M9.81,35c.13,1.29,5.61-.06,5.85-.18S14.26,20.66,27.34,20,39.13,33,39.28,34s4.68,0,5.45-1.21S43.05,14,27.8,14.4,9,26.76,9.81,35Z"/><path class="cls-23" d="M17.91,46c-1.15-2.1,5.48-1.69,11.73-2.77s7-4.84,9.18-5.48a4.11,4.11,0,0,1,4.33,1.58c.51.71-4.91,8.87-12.69,9.83A17,17,0,0,1,17.91,46Z"/><path class="cls-8" d="M25.37,32.33c.09.73,2.94.14,3.63-.77s.3-6.44.29-6.76-3.14.12-3.42.38-.89,2.1-1.46,2.46-.69.55-.74.91a5.58,5.58,0,0,0,.12,1.77,6.73,6.73,0,0,0,1.39.05S25.32,32,25.37,32.33Z"/><path class="cls-24" d="M11.71,42.61c.24-1.18,4,3.66,9.29,6.31s4.93,3.25,4.87,3.62S16.92,52,11.71,42.61Z"/><path class="cls-24" d="M35.53,50.46c-1.22-.21,1.59-3,3.29-5s3.24-2.61,4.43-5.6S42.88,47.22,35.53,50.46Z"/><path class="cls-8" d="M25.89,49.66c-.64.24.07,2.37.39,2.65s6-.59,7.31-1.32,2.84-2.43,2.68-3.29S34,49.45,25.89,49.66Z"/><path class="cls-25" d="M11.71,40.39A18.62,18.62,0,0,0,27.27,49,19,19,0,0,0,43,40.39a18.47,18.47,0,0,1-15.76,9.55C16,50.25,11.71,40.39,11.71,40.39Z"/><path class="cls-26" d="M16.44,28.37c-.43,5.25,2.3-4.66,9.5-5.59,8.63-1.11,10.14,8.22,12.3,8.1s-1.46-10.2-9.93-10.46A11.67,11.67,0,0,0,16.44,28.37Z"/><path class="cls-27" d="M19,39.76A6.46,6.46,0,0,0,20.27,41,12,12,0,0,1,19,39.76Z"/><path class="cls-25" d="M27,43.17A10.5,10.5,0,0,1,20.27,41a11.08,11.08,0,0,0,7.07,3C32.19,44,36.28,39,36.28,39A13.61,13.61,0,0,1,27,43.17Z"/><path class="cls-28" d="M26.68,49.19c-3.83.12,1.53-3.57,5.34-6.63s8-.76,8.07,0S36.53,48.89,26.68,49.19Z"/><path class="cls-29" d="M31,15c-2.91-.18,1.48,4.2,4.92,5.45S38.57,15.45,31,15Z"/><path class="cls-29" d="M21.15,41.51c-2.48-.82-.49,1.4,1.86,1.81S21.15,41.51,21.15,41.51Z"/><path class="cls-4" d="M10.32,43.09s.45,6.42,3.25,10.17,7.92.38,7.92.38l1.07-1.73s-7.9-2.21-11.22-10.06Z"/><path class="cls-4" d="M32.17,51.88l1.9,2.85s4,1,7.77-2.85,2-9.45,2-9.45l-.49-.58S39.71,49.94,32.17,51.88Z"/></g></g></g></svg>