<svg xmlns="http://www.w3.org/2000/svg" xmlns:xlink="http://www.w3.org/1999/xlink" viewBox="0 0 50.16 53.75"><defs><style>.cls-1{isolation:isolate;}.cls-2{fill:url(#Безымянный_градиент_140);}.cls-17,.cls-18,.cls-3,.cls-4{fill:#fff;}.cls-17,.cls-18,.cls-3{mix-blend-mode:soft-light;}.cls-5{fill:#a32790;}.cls-12,.cls-20,.cls-21,.cls-5,.cls-9{mix-blend-mode:multiply;}.cls-18,.cls-20,.cls-21,.cls-5,.cls-9{opacity:0.5;}.cls-6{fill:url(#Безымянный_градиент_140-2);}.cls-7{fill:url(#Безымянный_градиент_61);}.cls-8{fill:url(#Безымянный_градиент_13);}.cls-9{fill:#be81a9;}.cls-10{fill:url(#Безымянный_градиент_48);}.cls-11{fill:url(#Безымянный_градиент_507);}.cls-12{fill:#b5266d;opacity:0.8;}.cls-13{fill:url(#Безымянный_градиент_140-3);}.cls-14{fill:url(#Безымянный_градиент_140-4);}.cls-15{fill:#ac0057;}.cls-16{fill:url(#Безымянный_градиент_638);}.cls-17{opacity:0.3;}.cls-19{fill:#8b6ed1;}.cls-20{fill:#a34aa2;}.cls-21{fill:#912790;}</style><linearGradient id="Безымянный_градиент_140" x1="44.89" y1="16.77" x2="44.89" y2="4.97" gradientUnits="userSpaceOnUse"><stop offset="0" stop-color="#ff9600"/><stop offset="1" stop-color="#ffa900"/></linearGradient><linearGradient id="Безымянный_градиент_140-2" x1="-474.98" y1="16.77" x2="-474.98" y2="4.97" gradientTransform="matrix(-1, 0, 0, 1, -469.47, 0)" xlink:href="#Безымянный_градиент_140"/><linearGradient id="Безымянный_градиент_61" x1="25.08" y1="53.75" x2="25.08" y2="3.59" gradientTransform="translate(27.62 -9.34) rotate(45)" gradientUnits="userSpaceOnUse"><stop offset="0" stop-color="#4388e8"/><stop offset="0.28" stop-color="#57198a"/><stop offset="1" stop-color="#511881"/></linearGradient><linearGradient id="Безымянный_градиент_13" x1="25.08" y1="50.16" x2="25.08" gradientUnits="userSpaceOnUse"><stop offset="0" stop-color="#5a2b88"/><stop offset="1" stop-color="#66319a"/></linearGradient><linearGradient id="Безымянный_градиент_48" x1="9.35" y1="25.08" x2="40.8" y2="25.08" gradientUnits="userSpaceOnUse"><stop offset="0" stop-color="#591a8e"/><stop offset="1" stop-color="#511881"/></linearGradient><linearGradient id="Безымянный_градиент_507" x1="25.08" y1="40.8" x2="25.08" y2="12.91" gradientUnits="userSpaceOnUse"><stop offset="0" stop-color="#ffbdca"/><stop offset="1" stop-color="#ffe8d3"/></linearGradient><linearGradient id="Безымянный_градиент_140-3" x1="23.12" y1="18.23" x2="27.76" y2="18.23" xlink:href="#Безымянный_градиент_140"/><linearGradient id="Безымянный_градиент_140-4" x1="25.44" y1="25.6" x2="35.83" y2="25.6" xlink:href="#Безымянный_градиент_140"/><linearGradient id="Безымянный_градиент_638" x1="25.08" y1="30.13" x2="25.08" y2="21.25" gradientUnits="userSpaceOnUse"><stop offset="0" stop-color="#de0086"/><stop offset="1" stop-color="#ff003b"/></linearGradient></defs><g class="cls-1"><g id="Слой_2" data-name="Слой 2"><g id="layer1"><path class="cls-2" d="M40.07,5s6.14,0,8.54,1.23.13,10.57.13,10.57Z"/><path class="cls-3" d="M40.8,5.54c-1.67.2,4.29,3.82,5.63,3.79s3-2.06,2.47-2.91S42.66,5.33,40.8,5.54Z"/><path class="cls-4" d="M48.86,7.4c-.54-1.1-2,1-1.67,1.72S49.25,8.19,48.86,7.4Z"/><path class="cls-5" d="M48,15.8c-2.39,1.9-1.66-4.18.45-6.72S50,14.2,48,15.8Z"/><path class="cls-6" d="M10.33,5S4.18,5,1.79,6.2s-.14,10.57-.14,10.57Z"/><path class="cls-3" d="M9.59,5.54C11.26,5.74,5.3,9.36,4,9.33S1,7.27,1.49,6.42,7.73,5.33,9.59,5.54Z"/><path class="cls-5" d="M1.14,8.42c-.26.64.59,6.68,1.11,7.54s3.3-4.2,3.26-5S1.33,8,1.14,8.42Z"/><path class="cls-4" d="M1.54,7.4c.54-1.1,2.74,1.68.34,2.8C1.13,10.55,1.15,8.19,1.54,7.4Z"/><circle class="cls-7" cx="25.08" cy="28.67" r="25.08" transform="translate(-12.93 26.13) rotate(-45)"/><circle class="cls-8" cx="25.08" cy="25.08" r="25.08"/><path class="cls-9" d="M2.27,35.52c1.39-2.7,20.51,2.94,29.52,3.29s15.46-4.52,15.83-4S37,51.94,21.76,49.93,2.27,35.52,2.27,35.52Z"/><circle class="cls-10" cx="25.08" cy="25.08" r="15.73"/><ellipse class="cls-11" cx="25.08" cy="26.85" rx="15.07" ry="13.95"/><path class="cls-12" d="M25.43,12c-1.68-.1-3.31,7.7-3.1,10.3S20.64,32,24.18,32.74c4.64,1,5.82-4.07,5.82-4.07s5.23-.47,5.74-2.81-8.33-1.52-8.33-1.52Z"/><path class="cls-13" d="M25.08,25.08c-2.3,0-3.15-13.69.66-13.69C28.38,11.39,28.72,25.08,25.08,25.08Z"/><path class="cls-14" d="M25.44,25.33c0-2.3,10.39-2.8,10.39.13C35.83,28.1,25.44,29,25.44,25.33Z"/><path class="cls-15" d="M29.52,26.18a4.71,4.71,0,0,1-4.44,4.93,4.71,4.71,0,0,1-4.44-4.93,4.71,4.71,0,0,1,4.44-4.93A4.71,4.71,0,0,1,29.52,26.18Z"/><path class="cls-16" d="M29.52,25.69a4.44,4.44,0,1,1-4.44-4.44A4.44,4.44,0,0,1,29.52,25.69Z"/><path class="cls-17" d="M1.1,32.45c.71,1.84,8,1.55,8.91,1.15s-3.13-6.5,0-15.24S26.12,5,34.53,11.39c3.61,2.75,8,9.34,7.25,15.46-.56,4.38-4.13,7.79-4.27,9-.32,2.88,11,.24,11.74-6.42.46-4,.48-22.26-14.7-26.72S7,6.72,3.21,14.6-.13,29.25,1.1,32.45Z"/><path class="cls-18" d="M5.8,44.71c-.48-2.59,8.45,5.77,18.44,5.69S39.38,45.8,44,41.51,40.93,53.65,25.08,53.75C13.12,53.82,5.8,44.71,5.8,44.71Z"/><path class="cls-19" d="M12.94,35.12s2.65,5.92,11.54,7,13.43-8,13.43-8A15,15,0,0,1,25.08,40.8C16.14,40.74,12.94,35.12,12.94,35.12Z"/><path class="cls-19" d="M7.85,43.3s7.69,7.78,17.89,6.75S44,41.51,44,41.51,36.2,50.1,25.57,50.6,7.85,43.3,7.85,43.3Z"/><path class="cls-19" d="M10,20.58S12.25,9.26,23.12,7.71s15.24,8.94,15.24,8.94S33,7.86,23.12,9.35,10,20.58,10,20.58Z"/><path class="cls-20" d="M6.28,29.44c-1.94-.24-4.87-1.57-5.11-3.14h0a1.15,1.15,0,0,1,0-.26,7.42,7.42,0,0,1,4-5.82c1.73-.86,3,2,3.24,5.25v0c0,.18,0,.37,0,.55C8.46,29.49,8.31,29.7,6.28,29.44Z"/><path class="cls-20" d="M47.19,16.46h0a1.53,1.53,0,0,1-.31,1.06c-.36.38-1-.18-1.39-.62h0s0,0,0,0c-.18-.2-.3-.36-.3-.36-.42-.92,1.21-1.37,1.61-1.42S47.2,15.76,47.19,16.46Z"/><path class="cls-21" d="M8.37,25.47c-.23-.87-1.43-5.2-3.6-4.72-2.33.52-3.25,5.91-3.6,5.55h0a1.15,1.15,0,0,1,0-.26,7.42,7.42,0,0,1,4-5.82C6.86,19.36,8.16,22.25,8.37,25.47Z"/><path class="cls-21" d="M47.19,16.46a5.6,5.6,0,0,0-.39-1c-.12-.15-.7-.2-1.31.34a.75.75,0,0,0-.05,1.07c-.18-.2-.3-.36-.3-.36-.42-.92,1.21-1.37,1.61-1.42S47.2,15.76,47.19,16.46Z"/><path class="cls-4" d="M31.75,1.5C29.63,1.33,33.56,5.06,35,6a2.48,2.48,0,0,0,3.34-.76C38.9,4.59,36.89,1.9,31.75,1.5Z"/><path class="cls-4" d="M18.16,39.39c-1.52-.16.48,2.3,1.45,2.84s2.69-.42,3.51-.94S18.16,39.39,18.16,39.39Z"/><path class="cls-21" d="M10,23.83c.26,3,4.3-5.78,14.17-7s15.13,6.2,16.3,6.17S38,8.65,25.08,9.35,9.89,22.51,10,23.83Z"/><path class="cls-19" d="M1.41,16.77S6.89,1.5,26.59.17C26.59.17,8.38-2.25,1.41,16.77Z"/></g></g></g></svg>