<svg xmlns="http://www.w3.org/2000/svg" xmlns:xlink="http://www.w3.org/1999/xlink" viewBox="0 0 34.12 55.11"><defs><style>.cls-1{isolation:isolate;}.cls-2{fill:url(#Безымянный_градиент_696);}.cls-3{fill:url(#Безымянный_градиент_660);}.cls-4{fill:#c05cc7;}.cls-10,.cls-11,.cls-4{mix-blend-mode:multiply;opacity:0.5;}.cls-5{fill:#ac9aff;mix-blend-mode:soft-light;}.cls-6{fill:#479dff;}.cls-7{fill:#47ffff;}.cls-8{fill:#fff;}.cls-9{fill:#7c5cf4;}.cls-10{fill:#9a2e69;}.cls-11{fill:#9abaff;}.cls-12{fill:#b5ccff;}.cls-13{fill:#9accff;}.cls-14{fill:#9a90ff;}</style><linearGradient id="Безымянный_градиент_696" x1="23.63" y1="55.05" x2="23.63" y2="0.78" gradientUnits="userSpaceOnUse"><stop offset="0" stop-color="#3d069a"/><stop offset="1" stop-color="#6509ba"/></linearGradient><linearGradient id="Безымянный_градиент_660" x1="15.82" y1="55.11" x2="15.82" y2="0.8" gradientUnits="userSpaceOnUse"><stop offset="0" stop-color="#512eff"/><stop offset="1" stop-color="#7c1acc"/></linearGradient></defs><g class="cls-1"><g id="Слой_2" data-name="Слой 2"><g id="layer1"><path class="cls-2" d="M22.53,1c2.7-1,7.27,2.09,8.21,2.82S23.41,24.49,24,26.65s7.92,2.12,9.93,4.46S22,53.71,20.23,54.42s-5.85.63-5.85.63l5.85-17.12L13.14,15.44Z"/><path class="cls-3" d="M2,3.31C-.38,4-.37,28.3.65,31s8.17,1.16,10.64,2.71,2.55,20,3.09,21.34S30,36.15,31.5,32.8s-9.59-4-11-5.11,4.88-24.52,3.1-26.31S5.06,2.42,2,3.31Z"/><path class="cls-4" d="M20.45,27.69c-3.14-.91-13.65,4-13.39,4.41s4.3-.1,5.52,2.13,1.52,16.48,2.87,17.58,14-16,14.56-18.1S20.45,27.69,20.45,27.69Z"/><path class="cls-5" d="M2.05,3.68c-1.56.57.62,10.19,1.16,12.44s13.65,3.43,16.56,1.28,4.35-13.34,3.78-15S8.32,1.35,2.05,3.68Z"/><path class="cls-6" d="M24,32.41a106.22,106.22,0,0,1-5.88,13.38c-.52.92-.91,1.47-1.08,1.39-.77-.4,0-15.23-1.06-15.79S6,30.72,5.4,29.55,4.34,9.79,5.73,8.84C8,7.33,18.27,5.89,18.4,8a5.72,5.72,0,0,1,0,.73c-.34,4-3.25,19.45-2.5,20.17S24.22,31.05,24,32.41Z"/><path class="cls-7" d="M24,32.41a106.22,106.22,0,0,1-5.88,13.38c-.64-.59.46-13.35-.49-14s-9.71-1.68-10.49-3-1-17.87.24-19,10.76-2.29,11-1.09c-.34,4-3.25,19.45-2.5,20.17S24.22,31.05,24,32.41Z"/><path class="cls-8" d="M15.88,10.16c-.12-.69-3.19.61-5.16.9s.55,3,.78,3.88,1.82-1.29,2-.45-.5,4.44-1,4.16-2.56.77-2.78,2.75S8.3,28,10.19,27.32s2.8-1.35,3.05.07S12,29,13.52,29.21s5.55,2.39,6.19,3.58S20,34,19.4,34.73s-2.42,5.82-.59,4.78,1,.3.6,1.59-1.56,1.44-1.24,2.09a5.87,5.87,0,0,1,.4,1.74s1.08-5.17,1.69-5.87S19,39,19.6,37.22s1.53-3.43,1.65-4.13-1-1.49-2.45-2.24-5-.4-4.74-2.83,1.2-4.18-.72-3.13-3.16,2.23-3.32.74.73-5.67,1.32-6.31,2.12,1.24,2.47,1.59,1-.7,1.58-3.58.89-4.53-.18-4.38-3.68,1.39-2.82-.35,2.85-1.39,3.76-.84S15.88,10.16,15.88,10.16Z"/><path class="cls-9" d="M1.56,3.79S13.92.88,20.85,1.22s9.89,2.57,9.89,2.57A19.06,19.06,0,0,0,23,.1c-4.14-.73-20.5,2.81-20.75,3S1.56,3.79,1.56,3.79Z"/><path class="cls-10" d="M25.93,1.89c-1.8-.34-4.48,17.78-4.67,21.43s3.12-4.46,5.51-8.92S30.34,5,30.12,4.16,25.93,1.89,25.93,1.89Z"/><path class="cls-11" d="M5.38,9.58c-.3,1.95.38.7,4.07-.71s9-.66,8.91-.19,0-1.63-.47-1.76S5.69,7.44,5.38,9.58Z"/><path class="cls-10" d="M15.25,55.11c.1-.64,10.23-13.22,12-14.62s1.94-1.7,2.68-1.23-6.83,12.49-8.4,13.87S15.25,55.11,15.25,55.11Z"/><path class="cls-9" d="M20.45,27.69c-.21-.66,5,.35,9.28,1.46s4.34,2.28,4.34,2.28a6,6,0,0,1-2.94,0C29.84,31,29.45,30.27,20.45,27.69Z"/><path class="cls-12" d="M30.58,31.21c-.55.16.8,1.38,1,1.39s1-.85.9-1A3.61,3.61,0,0,0,30.58,31.21Z"/><path class="cls-12" d="M22.8.49c-1.43.22,1.06,2,1.62,2.29s1.08-.77.95-1.43S23.72.35,22.8.49Z"/><path class="cls-13" d="M5.4,29.55s.29.57,1.9.86c4.12.72,7.82,1.42,8.38,1.48a3.81,3.81,0,0,0,1.4-.27,8.83,8.83,0,0,0-3.72-.71C10.93,30.88,6.28,30.23,5.4,29.55Z"/><path class="cls-14" d="M4.83,20.66S4.1,10.2,5,8.75s9.61-1.84,9.61-1.84-7.65.84-8.86,1.93S4.83,20.66,4.83,20.66Z"/></g></g></g></svg>