<svg xmlns="http://www.w3.org/2000/svg" xmlns:xlink="http://www.w3.org/1999/xlink" viewBox="0 0 48.34 61.14"><defs><style>.cls-1{isolation:isolate;}.cls-2{fill:url(#Безымянный_градиент_375);}.cls-3{fill:#ff7a00;}.cls-4{fill:#b10053;}.cls-14,.cls-17,.cls-20,.cls-4,.cls-6{mix-blend-mode:multiply;}.cls-14,.cls-4,.cls-6{opacity:0.3;}.cls-5{fill:#ff6500;}.cls-6{fill:#d42f55;}.cls-15,.cls-16,.cls-7{fill:#fff;}.cls-16,.cls-7{mix-blend-mode:soft-light;}.cls-10,.cls-17,.cls-20,.cls-7{opacity:0.5;}.cls-8{fill:url(#Безымянный_градиент_432);}.cls-9{fill:url(#Безымянный_градиент_375-2);}.cls-10{fill:url(#Безымянный_градиент_11);}.cls-11{fill:url(#Безымянный_градиент_178);}.cls-12{fill:url(#Безымянный_градиент_45);}.cls-13{fill:url(#Безымянный_градиент_140);}.cls-14{fill:#912790;}.cls-17{fill:#e09590;}.cls-18{fill:#ffa457;}.cls-19{mix-blend-mode:screen;fill:url(#Безымянный_градиент_43);}.cls-20{fill:#9a376d;}</style><linearGradient id="Безымянный_градиент_375" x1="6.63" y1="57.17" x2="41.7" y2="57.17" gradientUnits="userSpaceOnUse"><stop offset="0" stop-color="#a71100"/><stop offset="0.39" stop-color="#d83303"/><stop offset="1" stop-color="#ec5c11"/></linearGradient><linearGradient id="Безымянный_градиент_432" x1="23.57" y1="54.55" x2="23.57" y2="13.53" gradientUnits="userSpaceOnUse"><stop offset="0" stop-color="#e8e5ed"/><stop offset="0.05" stop-color="#e5ddea"/><stop offset="0.28" stop-color="#dabbdc"/><stop offset="0.46" stop-color="#d3a7d4"/><stop offset="0.59" stop-color="#d19fd1"/><stop offset="0.64" stop-color="#be92c3"/><stop offset="0.72" stop-color="#a57fb0"/><stop offset="0.81" stop-color="#9272a3"/><stop offset="0.9" stop-color="#886b9b"/><stop offset="1" stop-color="#846898"/></linearGradient><linearGradient id="Безымянный_градиент_375-2" x1="0.01" y1="10.56" x2="48.33" y2="10.56" xlink:href="#Безымянный_градиент_375"/><radialGradient id="Безымянный_градиент_11" cx="24.15" cy="-2949.88" r="16.21" gradientTransform="translate(0 4697.53) scale(1 1.58)" gradientUnits="userSpaceOnUse"><stop offset="0" stop-color="#e8e5ed"/><stop offset="0.14" stop-color="#e3dde3"/><stop offset="0.42" stop-color="#dbd1d5"/><stop offset="0.66" stop-color="#d8cdd0"/><stop offset="0.68" stop-color="#d4c5ce"/><stop offset="0.75" stop-color="#c7acc9"/><stop offset="0.83" stop-color="#be99c5"/><stop offset="0.91" stop-color="#b98fc3"/><stop offset="1" stop-color="#b78bc2"/></radialGradient><linearGradient id="Безымянный_градиент_178" x1="25.2" y1="41.32" x2="25.2" y2="21.14" gradientUnits="userSpaceOnUse"><stop offset="0" stop-color="#ffa900"/><stop offset="1" stop-color="#ff9600"/></linearGradient><linearGradient id="Безымянный_градиент_45" x1="12.36" y1="24.07" x2="37.43" y2="24.07" gradientUnits="userSpaceOnUse"><stop offset="0" stop-color="#ffb100"/><stop offset="1" stop-color="#ffc500"/></linearGradient><linearGradient id="Безымянный_градиент_140" x1="24.03" y1="53.3" x2="24.03" y2="42.41" gradientUnits="userSpaceOnUse"><stop offset="0" stop-color="#ff9600"/><stop offset="1" stop-color="#ffa900"/></linearGradient><linearGradient id="Безымянный_градиент_43" x1="11.4" y1="23.63" x2="21.68" y2="23.63" gradientUnits="userSpaceOnUse"><stop offset="0.02" stop-color="#008dfe"/><stop offset="1"/></linearGradient></defs><g class="cls-1"><g id="Слой_2" data-name="Слой 2"><g id="layer1"><path class="cls-2" d="M6.63,53.52a33,33,0,0,0,1.41,5c.54.94,9.4,2.66,15.67,2.66s16-2.08,16.47-2.51,1.52-5.42,1.52-5.42Z"/><path class="cls-3" d="M6.81,52.75c2-3.41,31.52-3.88,34.72,0S3.52,58.32,6.81,52.75Z"/><path class="cls-4" d="M14.76,60.34s11.2.27,17.34-1.53,7.78-3.88,8.68-4.74S32,50,32,50l-3.27-.64s10,3.41,8.55,5.7c-3.18,5-25.78,4.63-25.78,4.63Z"/><path class="cls-4" d="M7.57,57.24s7.72,1.61,8.73-.7-9-4.3-9-4.3L7.76,52s12.93,3.6,9.23,5.23a24.31,24.31,0,0,1-8.44,1.6S7.87,59.2,7.57,57.24Z"/><path class="cls-5" d="M20.26,60.28a57.94,57.94,0,0,0,10.6-.84,21.08,21.08,0,0,0,7.79-3.51S33,60.19,20.26,60.28Z"/><path class="cls-5" d="M10.91,58.7a27.1,27.1,0,0,0,5.32-.92c2-.68,1.37-1.48,1.37-1.48s.24.76-1.33,1.33A35.7,35.7,0,0,1,10.91,58.7Z"/><path class="cls-6" d="M19.14,56.5c-1.44.09-1.28,1.31-4.59,2.36s5.6.78,12.14-.16,8.54-2.16,8.84-2.77-7.35.37-10.53.37S19.14,56.5,19.14,56.5Z"/><path class="cls-6" d="M28.55,60.61c-.89-.31,8.65-3.08,10.62-4.68s1.44,1.48.34,2.36S28.55,60.61,28.55,60.61Z"/><path class="cls-7" d="M18.27,56.25c-1.23,0-.74-.69.17-1.25s15.23-.51,17.87-.45S30.15,56.45,18.27,56.25Z"/><path class="cls-7" d="M7.59,52.66c-.9,0-.44,1.77,1.36,2.34s5.59,1,6.34.73S12.53,52.82,7.59,52.66Z"/><path class="cls-8" d="M37.28,27.06c2.41-2.48,5.8-13.53,5.8-13.53L23.57,16,4.06,13.53s3.44,11,5.86,13.53,7,4.16,8.66,7.57-3.87,5.25-5.65,8.94a14.19,14.19,0,0,0-1.1,4,31.23,31.23,0,0,0-.22,5.61s3.31,1.36,12.05,1.36c8.22,0,12-1.36,12-1.36a31.54,31.54,0,0,0-.13-4.75h0a15.49,15.49,0,0,0-1.22-4.87c-1.8-3.69-7.26-5.63-5.69-8.94S34.92,29.5,37.28,27.06ZM29.7,41.32c2.83,3.31,3.1,9.29,2.43,10.58s-8,1.31-8,1.31-7.33,0-8-1.31-.41-7.27,2.42-10.58,3.85-5.08,3.31-8-3.65-3.46-6.89-5.5S8.76,16.62,9.77,14.94l14.38,1.44,14.38-1.44c1,1.68-1.94,10.74-5.23,12.83s-6.35,2.45-6.9,5.5S26.79,37.9,29.7,41.32Z"/><path class="cls-9" d="M0,5.2s1.3,5.92,2.05,7.31S15,16.38,23.55,16.38s21.89-3,22.58-3.66,2.2-8,2.2-8Z"/><path class="cls-3" d="M.24,4.07C3-1,43.77-1.7,48.12,4.07,52.29,9.61-4.14,12.26.24,4.07Z"/><path class="cls-10" d="M37.55,21.16c-1,2.76-2.58,5.55-4.25,6.61-3,1.88-5.85,2.37-6.72,4.81a3.67,3.67,0,0,0-.18.69c-.55,3,.39,4.63,3.3,8s3.1,9.29,2.43,10.58-8,1.31-8,1.31-7.33,0-8-1.31-.41-7.27,2.42-10.58c2.63-3.08,3.65-4.73,3.43-7.19a6.82,6.82,0,0,0-.12-.86c-.55-3.05-3.65-3.46-6.89-5.5a7.81,7.81,0,0,1-2.15-2.31.11.11,0,0,0,0,0C10.58,22,9,16.23,9.77,14.94l14.38,1.44,14.38-1.44C39,15.77,38.55,18.44,37.55,21.16Z"/><path class="cls-11" d="M37.55,21.14v0c-1,2.76-2.58,5.55-4.25,6.61-3,1.88-5.85,2.37-6.72,4.81-1,1.48-1.87,8.86-2.43,8.74S23,36.52,22,34.13a6.82,6.82,0,0,0-.12-.86c-.55-3.05-3.65-3.46-6.89-5.5a7.81,7.81,0,0,1-2.15-2.31.11.11,0,0,0,0,0Z"/><path class="cls-12" d="M12.36,24.64c0-3.29,24.4-4.1,25-3.56s-3.68,5.6-14.23,6.08S12.36,24.64,12.36,24.64Z"/><path class="cls-13" d="M32.13,51.9c-.56,1.83-13.85,1.89-16,0A2.8,2.8,0,0,1,16,49h0c2-2.79,7.38-6.46,8.14-6.55s6.48,3.7,8.09,6.63l0,0A5.25,5.25,0,0,1,32.13,51.9Z"/><path class="cls-14" d="M11.3,28.25c1.11.8,7.24,1.76,9.3,3.39s1.55,5,.09,6.29-1-.48-1.6-3.07S11.3,28.25,11.3,28.25Z"/><path class="cls-14" d="M37.28,27.06c-1.13,1-8.08,1.58-9.94,4.58s-.45,5,.42,5.48-.07-2.4,2.2-4.65S35.41,29,37.28,27.06Z"/><path class="cls-15" d="M35.41,27.52c-1.1-.41,1.38-3.28,2-5s.87.08.47,2.51S35.6,27.59,35.41,27.52Z"/><path class="cls-16" d="M8,19.34c-.59,1,1.44,6.45,3.08,7.51s1.3-1.1,1-1.9S8.78,18,8,19.34Z"/><path class="cls-15" d="M15.83,41.54c-.39,1.34,1.84-.64,2.78-2.25S16.35,39.7,15.83,41.54Z"/><path class="cls-15" d="M31.05,41.1c-.4,0,.3,2.94,1.79,3.15S32.93,40.85,31.05,41.1Z"/><path class="cls-17" d="M13.77,26.06s5.12,4.66,9,5.06,9.43-2.57,10.85-4a20,20,0,0,0,2.76-3.93s-3.7,3-10.6,3.85A28.25,28.25,0,0,1,13.77,26.06Z"/><path class="cls-17" d="M32.13,51.9c-.56,1.83-13.85,1.89-16,0A2.8,2.8,0,0,1,16,49c0,.22-.24,2.87,5.77,3.3,6.24.44,8.48-2.65,10.22-3.2a.74.74,0,0,1,.25,0l0,0A5.25,5.25,0,0,1,32.13,51.9Z"/><path class="cls-7" d="M24.15,42.41c-1-.2-.25,5.05.78,6.56s5.27.17,5.81-.56S26.09,42.81,24.15,42.41Z"/><path class="cls-4" d="M4.71,1.85s26-2.05,33.85.84c7.69,2.83-13,5.37-24.51,5S0,5.2,0,5.2s14.27,2.38,26.32,1S2.77,2.44,2.77,2.44Z"/><path class="cls-4" d="M16.81,15.42s14.16-.6,20.38-3.05S45.6,6.45,46,4.91s-2-3.22-2-3.22,3.69,2,2.79,4.49S35.58,14.66,30,15.8,16.81,15.42,16.81,15.42Z"/><path class="cls-5" d="M31.73,15.33a38.46,38.46,0,0,0,8-2.75A23.33,23.33,0,0,0,46.27,6.9S43.86,10.61,31.73,15.33Z"/><path class="cls-6" d="M10.92,9.66C7.27,10,7,12.12,7.46,13.53s8.71,2,15.29,1.17,17-3.65,18.11-5.4-9.3-.36-15.38,0S10.92,9.66,10.92,9.66Z"/><path class="cls-7" d="M11.89,8.65c-1.21-.55,13.37-.39,18.5-1.51S42.16,4.79,43.2,5.36s1,.94.73,1.38S23.81,10.58,11.89,8.65Z"/><path class="cls-18" d="M47.34,5.46c-.49-.3-1.29,1.28-1.77,2.27s1.86-1.16,2-1.66S47.34,5.46,47.34,5.46Z"/><path class="cls-18" d="M39.83,55c-.14-.5.43-1.66.54-1.58s1,.23.75.67S39.83,55,39.83,55Z"/><path class="cls-19" d="M11.9,18.11c-1.84.85,1.69,8.78,6.66,10.76s3-6.12,1.19-8.56S11.9,18.11,11.9,18.11Z"/><path class="cls-15" d="M33.62,17.18c-2.36.78-4.75,5.6-4,6.93s7.24-1.61,7.93-4.95S35,16.74,33.62,17.18Z"/><path class="cls-20" d="M4.36,14.47c-.07-.22,13.83,4.52,20.75,4.15s17.68-4.16,17.68-4.16l.29-.93S30.31,16,22.52,16.22,4.06,13.53,4.06,13.53Z"/><path class="cls-17" d="M26.17,30.81c-2.11-.79,3.2-4.38,6.62-5.24s0,2.2-1.45,3.16A27.23,27.23,0,0,1,26.17,30.81Z"/><path class="cls-20" d="M35.7,53.19s-3.82,1.36-12,1.36c-8.74,0-12-1.36-12-1.36a31.23,31.23,0,0,1,.22-5.61h0s.12,4.47,1.28,5.63,14.66,1.08,18.7.52,3.74-5.29,3.74-5.29h0A31.54,31.54,0,0,1,35.7,53.19Z"/><path class="cls-15" d="M26.44,40.86c-1.9.27-1,3.76.79,4.62s1.55-3,1.26-3.58A2.53,2.53,0,0,0,26.44,40.86Z"/></g></g></g></svg>