<svg xmlns="http://www.w3.org/2000/svg" xmlns:xlink="http://www.w3.org/1999/xlink" viewBox="0 0 22.83 61.88"><defs><style>.cls-1{isolation:isolate;}.cls-2{fill:url(#Безымянный_градиент_432);}.cls-13,.cls-20,.cls-23,.cls-28,.cls-3,.cls-7{opacity:0.5;}.cls-3{fill:url(#Безымянный_градиент_11);}.cls-4{fill:url(#Безымянный_градиент_201);}.cls-5{fill:#0cbbff;}.cls-6{fill:#3dd4ff;}.cls-7,.cls-8{fill:#9cd1ff;}.cls-13,.cls-16,.cls-20,.cls-22,.cls-25,.cls-7{mix-blend-mode:multiply;}.cls-10,.cls-23,.cls-26,.cls-8,.cls-9{mix-blend-mode:soft-light;}.cls-9{fill:#9cffff;}.cls-10{fill:#00c2ff;}.cls-11{fill:#fbffff;}.cls-12,.cls-23,.cls-26{fill:#fff;}.cls-13,.cls-16{fill:#9a376d;}.cls-14{fill:url(#Безымянный_градиент_423);}.cls-15{fill:#ebc3d3;}.cls-16,.cls-22{opacity:0.3;}.cls-17{fill:url(#Безымянный_градиент_375);}.cls-18{fill:#ff7a00;}.cls-19{opacity:0.45;fill:url(#Безымянный_градиент_375-2);}.cls-20{fill:#b10053;}.cls-21{fill:#97001a;}.cls-22,.cls-25{fill:#d42f55;}.cls-24{fill:#ffa457;}.cls-25{opacity:0.8;}.cls-27{fill:#ff6500;}.cls-28{fill:url(#Безымянный_градиент_11-2);}.cls-29{mix-blend-mode:screen;fill:url(#Безымянный_градиент_43);}</style><linearGradient id="Безымянный_градиент_432" x1="5.08" y1="57.71" x2="5.08" y2="15.42" gradientTransform="matrix(1, 0, 0, 1, 6.51, 4.17)" gradientUnits="userSpaceOnUse"><stop offset="0" stop-color="#e8e5ed"/><stop offset="0.05" stop-color="#e5ddea"/><stop offset="0.28" stop-color="#dabbdc"/><stop offset="0.46" stop-color="#d3a7d4"/><stop offset="0.59" stop-color="#d19fd1"/><stop offset="0.64" stop-color="#be92c3"/><stop offset="0.72" stop-color="#a57fb0"/><stop offset="0.81" stop-color="#9272a3"/><stop offset="0.9" stop-color="#886b9b"/><stop offset="1" stop-color="#846898"/></linearGradient><radialGradient id="Безымянный_градиент_11" cx="5.1" cy="-3490.49" r="11.2" gradientTransform="matrix(1, 0, 0, 1.74, 8.16, 6128.63)" gradientUnits="userSpaceOnUse"><stop offset="0" stop-color="#e8e5ed"/><stop offset="0.14" stop-color="#e3dde3"/><stop offset="0.42" stop-color="#dbd1d5"/><stop offset="0.66" stop-color="#d8cdd0"/><stop offset="0.68" stop-color="#d4c5ce"/><stop offset="0.75" stop-color="#c7acc9"/><stop offset="0.83" stop-color="#be99c5"/><stop offset="0.91" stop-color="#b98fc3"/><stop offset="1" stop-color="#b78bc2"/></radialGradient><linearGradient id="Безымянный_градиент_201" x1="4.99" y1="54.7" x2="4.99" y2="19.23" gradientTransform="matrix(1, 0, 0, 1, 6.51, 4.17)" gradientUnits="userSpaceOnUse"><stop offset="0" stop-color="#0cbbff"/><stop offset="1" stop-color="#0057ff"/></linearGradient><linearGradient id="Безымянный_градиент_423" x1="-6.51" y1="12.34" x2="16.32" y2="12.34" gradientTransform="matrix(1, 0, 0, 1, 6.51, 4.17)" gradientUnits="userSpaceOnUse"><stop offset="0" stop-color="#9082a9"/><stop offset="0.22" stop-color="#9386ab"/><stop offset="0.42" stop-color="#9d90b3"/><stop offset="0.6" stop-color="#ada3c0"/><stop offset="0.79" stop-color="#c4bcd1"/><stop offset="0.96" stop-color="#e1dde8"/><stop offset="1" stop-color="#e8e5ed"/></linearGradient><linearGradient id="Безымянный_градиент_375" x1="-4.65" y1="2.76" x2="13.89" y2="2.76" gradientTransform="matrix(1, 0, 0, 1, 6.51, 4.17)" gradientUnits="userSpaceOnUse"><stop offset="0" stop-color="#a71100"/><stop offset="0.39" stop-color="#d83303"/><stop offset="1" stop-color="#ec5c11"/></linearGradient><linearGradient id="Безымянный_градиент_375-2" x1="-1.67" y1="12.98" x2="11.81" y2="12.98" xlink:href="#Безымянный_градиент_375"/><radialGradient id="Безымянный_градиент_11-2" cx="5.36" cy="16.58" r="3.95" gradientTransform="matrix(1, 0, 0, 1, 6.51, 4.17)" xlink:href="#Безымянный_градиент_11"/><linearGradient id="Безымянный_градиент_43" x1="3.04" y1="46.06" x2="8.27" y2="46.06" gradientTransform="translate(3.25 -5.87) rotate(1.53)" gradientUnits="userSpaceOnUse"><stop offset="0.02" stop-color="#008dfe"/><stop offset="1"/></linearGradient></defs><g class="cls-1"><g id="Слой_2" data-name="Слой 2"><g id="layer1"><path class="cls-2" d="M19.73,57.53a1.17,1.17,0,0,1-.05.2c-1.13,3.67-8.08,4.15-8.08,4.15s-6.95-.48-8.08-4.15a8.54,8.54,0,0,1-.26-1.5v0C2.53,49.24,4,20.8,3,19.6l3.15.56-.65.16c1.46,2-1.87,32-.34,35.84,1.41,3.52,11.11,3.34,12.53,1S17.08,23,17.6,20.09v0l2.57-.46C19.07,20.9,20.87,53,19.73,57.53Z"/><path class="cls-3" d="M17.71,57.16c-1.42,2.35-11.12,2.53-12.53-1-.9-2.22-.28-11.86.23-21,.21-3.86.4-7.55.44-10.3h0c0-2.44,0-4.11-.33-4.5l.65-.16,5.42,1,6-1.07v0a41.18,41.18,0,0,0,0,4.64c.06,2.53.18,5.83.31,9.32C18.26,44.35,18.66,55.59,17.71,57.16Z"/><path class="cls-4" d="M17.71,57.16c-1.42,2.35-11.12,2.53-12.53-1-.9-2.22-.28-11.86.23-21,.21-3.86.4-7.55.44-10.3h0C6.27,22.23,17.4,24,17.4,24l.18.75c.06,2.53.18,5.83.31,9.32C18.26,44.35,18.66,55.59,17.71,57.16Z"/><path class="cls-5" d="M5.85,24.82c-1.17,2.58,11.93.95,11.71-.72S7.17,21.9,5.85,24.82Z"/><path class="cls-6" d="M6.07,25.63s.68.85,4,.82a17.1,17.1,0,0,0,6.2-1.36S9,27,6.07,25.63Z"/><path class="cls-7" d="M5.81,28c1-1.27-.53,16.76,5.55,22.17s5.88-19.08,5.91-22.76-3.19-.29-6.26-.5-4.71-1.07-5-.71A5.63,5.63,0,0,0,5.81,28Z"/><path class="cls-8" d="M5.12,55.14C4,49.07,6.68,51.6,12.46,52.41s6.77,4.81,3.18,6S5.72,58.47,5.12,55.14Z"/><path class="cls-9" d="M7.76,58.2c-3.19-1.56,3.62-2.45,6.25-.76S10.52,59.55,7.76,58.2Z"/><path class="cls-7" d="M12.21,26.67c-4.33.63-2.28,10.51.32,14.07s5.54-11.6,4.72-13.86S12.21,26.67,12.21,26.67Z"/><path class="cls-10" d="M14,32.4c-.51-2.22-6.31-.38-6.65.54s-.16,9.09.5,9.36S10.24,42,10.78,44s.71,5.7,1.85,5.27,3.13-8,2.81-8.92-2,.2-2.49-2S14,32.4,14,32.4Z"/><path class="cls-11" d="M14.86,40.74a43.49,43.49,0,0,1-2.15,6.2c-.19.34-.33.54-.39.51-.28-.14,0-5.57-.39-5.77S8.27,41.43,8.06,41s-.39-7.22.12-7.57c.82-.55,4.58-1.08,4.63-.33a1.33,1.33,0,0,1,0,.27c-.13,1.46-1.17,6-.9,6.26S15,40.24,14.86,40.74Z"/><path class="cls-12" d="M3.75,57.55a19.52,19.52,0,0,1,0-6c.36-.8.27,3.73,2.15,6S4.18,58.45,3.75,57.55Z"/><path class="cls-12" d="M17.35,59.32c-.71-.66.35-1.17.77-2.68s.18-5.34.7-5.71,1.21,4.79.54,6.62S17.52,59.48,17.35,59.32Z"/><path class="cls-12" d="M4.14,39.09c-.32.38-.39-5.51-.06-5.93S6,36.81,4.14,39.09Z"/><path class="cls-13" d="M18,38a2.26,2.26,0,0,0,0,.26c0-.18,0-.27,0-.27Z"/><path class="cls-13" d="M17.71,57.16c-1.42,2.34-11.12,2.52-12.53-1a20,20,0,0,1-.46-5.89c0,.2-.28,5.72,1.54,6.89s8.26,2.16,11-.23c1.24-1.1.88-16.26.81-18.67C18.35,47.24,18.54,55.79,17.71,57.16Z"/><path class="cls-13" d="M19.73,57.53a1.17,1.17,0,0,1-.05.2c-1.13,3.67-8.08,4.15-8.08,4.15s-6.95-.48-8.08-4.15a8.54,8.54,0,0,1-.26-1.5c.48,2.57,3.5,4.77,8.34,5S18.65,59.74,19.73,57.53Z"/><path class="cls-12" d="M18.74,45.18c-.43.22-.26,2.87.11,3.29S19.54,44.76,18.74,45.18Z"/><path class="cls-12" d="M6.57,44c-.75.25-.66,3.69.16,3.3S7.33,43.71,6.57,44Z"/><path class="cls-13" d="M3.44,21.55c.81-.6,3.15,2.76,8,3.12s7-1.27,7.65-2.12a4.49,4.49,0,0,0,.72-2.05,85.59,85.59,0,0,1-16.52,0Z"/><path class="cls-12" d="M11.66,60.94c-1.59,0,2.19-2.06,4-2.13S17.39,61.12,11.66,60.94Z"/><path class="cls-14" d="M.2,12.26c-.6.88.26,5.79,1.09,7.1,1.88,2.92,18.51,2,20.14.32,1.25-1.31,1.63-6.78,1.28-7.6S.2,12.26.2,12.26Z"/><path class="cls-15" d="M.2,12.26c-.53,2,22.19,3.36,22.51-.18S1.38,7.77.2,12.26Z"/><path class="cls-13" d="M3.74,12.09c-.37,1.4,15.17,1.82,15.38-.61S4.55,9,3.74,12.09Z"/><path class="cls-16" d="M3.15,13.93c-2.3-.56-1.26,3,0,5s15.86,1.95,17.18-1,0-2.63-5.56-2.83A113.69,113.69,0,0,1,3.15,13.93Z"/><path class="cls-17" d="M4.35,12.09,1.86,3.66,20.4.72,17.86,12.09A22.93,22.93,0,0,1,4.35,12.09Z"/><path class="cls-18" d="M1.86,3.66C.13,3,18.94-1.38,20.29.44S11,7.14,1.86,3.66Z"/><path class="cls-19" d="M5,14.28c-.81-.19,1.12,3.76,4.12,5.33s8.37-1.51,9.18-4.34C18.33,15.27,9.77,14.82,5,14.28Z"/><path class="cls-20" d="M6.35,1.93s7,1.6,7.81,2.32S13.5,13,13.5,13l1.31-.18s.86-7.93.72-8.92S13.63,2,6.35,1.93Z"/><path class="cls-20" d="M5.69,2.1s6,.92,6.45,2.53S11,11.72,8.46,12,3.25,8.35,3.25,8.35L2.86,7s2,4.31,5.38,4.43,3.41-5.94,3.34-6.59S8.85,2.71,5.69,2.1Z"/><path class="cls-21" d="M12.2,3.45s1.81.28,2.13,1.21-.34,5.53-.22,6,1.92-6,1.36-7S12.2,3.45,12.2,3.45Z"/><path class="cls-22" d="M13.89,4.88c-.34-.5-1.58.44-1.69,1s-1.42,5.2-2.47,6.42,2.63,1.92,3.54-.56S13.89,4.88,13.89,4.88Z"/><path class="cls-22" d="M11.08,5.49c-.64-.63-7.29-.56-8-.75s.43,4.38,3.83,5.78S11.78,6.19,11.08,5.49Z"/><path class="cls-23" d="M16.4,3.36a8.36,8.36,0,0,1-2.47-1.15c-.59-.28,5.12-.84,5.91-1.41s-.07,1.28-1.45,1.92A5.64,5.64,0,0,1,16.4,3.36Z"/><path class="cls-23" d="M12.49,4.48c-.47-.15-.81-.44-.29-.62a1.59,1.59,0,0,1,1.38.38C13.61,4.37,12.7,4.55,12.49,4.48Z"/><path class="cls-23" d="M10.88,4.73c-.19.12-5.63.17-6.56-.49s3.78-.81,5.22-.58S11,4.68,10.88,4.73Z"/><path class="cls-24" d="M15.26,3c-.41.06.44.82.68.85a5.21,5.21,0,0,0,1.66-.67A12.55,12.55,0,0,0,15.26,3Z"/><path class="cls-24" d="M12,4.18c-.09,0,.06.49.23.55s.9-.23.9-.23A5.82,5.82,0,0,0,12,4.18Z"/><path class="cls-22" d="M19.06,6.72a5.3,5.3,0,0,0-2.51,2.34c-1.31,2-1.43,3.2-1.37,3.43s2.3-.51,2.62-1A48.05,48.05,0,0,0,19.06,6.72Z"/><path class="cls-12" d="M12.76,13.22c-4.45.42,2.85,1.2,5.16.81s3-1.67,2.87-2.06-2.15.45-4.41.86A20.88,20.88,0,0,1,12.76,13.22Z"/><path class="cls-12" d="M21.85,16.74c-.74-.17-2.53,2.21-3.52,3.15s2.28.25,3.21-.94S22.24,16.83,21.85,16.74Z"/><path class="cls-12" d="M.75,11.72c-.55.54,0,1.23,1.11,1.5s.29-1.5-.11-1.63A1.87,1.87,0,0,0,.75,11.72Z"/><path class="cls-25" d="M4,10.74S6.51,13.2,11.59,13a8.06,8.06,0,0,0,6.92-3.86l-.65,2.94s-7.14,2.43-13.51,0Z"/><path class="cls-22" d="M16.38,4c-.72.46-.83,2.74-.8,3.21s2.22-2,2.93-3.21.79-1.38.61-1.44A18.75,18.75,0,0,0,16.38,4Z"/><path class="cls-26" d="M5.72,21C4,20.68,3.54,16.25,4.21,15.46S11.54,20.33,10.7,21,5.72,21,5.72,21Z"/><path class="cls-26" d="M.54,13.7a12.49,12.49,0,0,0,.68,4.84A2.18,2.18,0,0,0,2.89,20c.33.09-1.09-3.09-1.54-4.65C.74,13.26.74,13.26.54,13.7Z"/><path class="cls-27" d="M5.93,11.11a4.6,4.6,0,0,0,2.7,1.11c1.48,0,2.32-2.37,2.32-2.37a4.5,4.5,0,0,1-2.07,2C7.58,12.33,5.93,11.11,5.93,11.11Z"/><path class="cls-27" d="M14.88,12.21s.52-1.38.7-2.12a7.67,7.67,0,0,0-.19-2.35Z"/><path class="cls-28" d="M17.4,20.81l-5.81.72-5.24-.65C8.82,20.46,17.64,19.09,17.4,20.81Z"/><path class="cls-29" d="M6.27,56.48c-2.15-.87-1.42-29.94.86-32.2S10.61,46.36,9.87,51.2C9.2,55.61,6.27,56.48,6.27,56.48Z"/><path class="cls-12" d="M16.39,24.55c-.82.59-.63,13.89.12,15.34S17.73,23.59,16.39,24.55Z"/></g></g></g></svg>