<svg xmlns="http://www.w3.org/2000/svg" xmlns:xlink="http://www.w3.org/1999/xlink" viewBox="0 0 49.3 53.98"><defs><style>.cls-1{isolation:isolate;}.cls-2{fill:url(#Безымянный_градиент_189);}.cls-3{fill:url(#Безымянный_градиент_216);}.cls-25,.cls-4{fill:#fff;mix-blend-mode:soft-light;}.cls-17,.cls-20,.cls-27,.cls-4{opacity:0.5;}.cls-5{fill:url(#Безымянный_градиент_189-2);}.cls-10,.cls-11,.cls-6{fill:#dea0bb;}.cls-10,.cls-11,.cls-12,.cls-14,.cls-15,.cls-17,.cls-18,.cls-20,.cls-27,.cls-6{mix-blend-mode:multiply;}.cls-7{fill:url(#Безымянный_градиент_213);}.cls-8{fill:#8d001a;}.cls-9{fill:url(#Безымянный_градиент_189-3);}.cls-10,.cls-12{opacity:0.7;}.cls-11{opacity:0.2;}.cls-12{fill:#dec0cf;}.cls-13{fill:#f0dbd6;}.cls-14{fill:#e6b7cb;}.cls-15,.cls-18{opacity:0.3;}.cls-16{fill:#c00053;}.cls-17,.cls-18{fill:#be2f55;}.cls-19{fill:#dedbca;}.cls-21{fill:#c4b3bb;}.cls-22{fill:#7f4b6e;}.cls-23{fill:#c0a9ac;}.cls-24{fill:#996f8b;}.cls-25{opacity:0.8;}.cls-26{fill:#a92511;}.cls-27{fill:#be0e55;}.cls-28{fill:#ff7c48;}</style><linearGradient id="Безымянный_градиент_189" x1="32.3" y1="9.55" x2="38.24" y2="51.79" gradientUnits="userSpaceOnUse"><stop offset="0" stop-color="#97777d"/><stop offset="1" stop-color="#9c89a2"/></linearGradient><linearGradient id="Безымянный_градиент_216" x1="20.87" y1="0.22" x2="28.3" y2="53.05" gradientUnits="userSpaceOnUse"><stop offset="0" stop-color="#e0d9e1"/><stop offset="1" stop-color="#b9a4a8"/></linearGradient><linearGradient id="Безымянный_градиент_189-2" x1="20.92" y1="7.08" x2="26.34" y2="45.68" xlink:href="#Безымянный_градиент_189"/><radialGradient id="Безымянный_градиент_213" cx="17.75" cy="19.88" r="25.95" gradientUnits="userSpaceOnUse"><stop offset="0" stop-color="#ce5411"/><stop offset="1" stop-color="#b42b00"/></radialGradient><linearGradient id="Безымянный_градиент_189-3" x1="29.84" y1="-1.04" x2="31.16" y2="8.36" xlink:href="#Безымянный_градиент_189"/></defs><g class="cls-1"><g id="Слой_2" data-name="Слой 2"><g id="layer1"><path class="cls-2" d="M49.3,10.93c0,.42-.38,4.07-1.06,8.63l-.11.08h0c-.27.2-1,.77-1,1.37a2,2,0,0,0,.6,1.21l0,.05c-.14.89-.3,1.81-.46,2.72a.34.34,0,0,1,0,.1c0,.09,0,.19,0,.29-1,5.46-2.15,10.9-3.37,13.16-2.75,5.12-16.69,14.73-17.57,14.91s-4.62.53-4.62.53L45.91,7.64s.76.51,1.56,1.16S49.26,10.37,49.3,10.93Z"/><path class="cls-3" d="M46.22,9.93c0,5.6-1.91,19.64-4.14,26.1S25.21,53.46,21.74,54c-1.21.19-17-11.25-20-19.61A9.1,9.1,0,0,1,1.4,33,116,116,0,0,1,.13,10.35h0A7.14,7.14,0,0,1,.61,7.75c.46-.69,5.73.21,10.11-1.32C16.38,4.43,21.47,0,22.47,0s5.65,4.72,11.14,6.45,11.72.47,12.3,1.19A5.18,5.18,0,0,1,46.22,9.93Z"/><path class="cls-4" d="M1.4,27.27C0,29.44,2.29,36.67,6.53,40.7s33.61-3.31,35.05-5.61,4.21-16.74,3.78-19.69S31.9,19.63,20.94,23.72,2.07,26.26,1.4,27.27Z"/><path class="cls-5" d="M39.45,15.72a127.24,127.24,0,0,1-3.71,19.1c-1.13,3.29-10.81,10.44-14.32,11.5h0a2.23,2.23,0,0,1-.84.13C19.37,46.31,8.76,36.66,7.05,32c-.72-2-1.73-9.17-1.8-14.42v0c0-.81,0-1.56,0-2.25a.07.07,0,0,1,0,0c.09-1.66.35-2.9.83-3.34.93-.85,4.86-.4,8.36-1.43,3.94-1.16,7.51-3.74,8.7-3.67s4.33,2.18,8,3.57,7.64,2.07,8.18,2.65a1.54,1.54,0,0,1,.2.89A15.87,15.87,0,0,1,39.45,15.72Z"/><path class="cls-6" d="M21.74,54s6.5-2.39,14.13-10,7.68-6.49,8-5.9-4.34,6.46-9.68,9.78S26.81,53.4,26,53.51,21.74,54,21.74,54Z"/><path class="cls-7" d="M35.67,34.59c-1.16,3.36-11,10.65-14.61,11.73h0C19.16,45.61,11.19,37.07,9.49,33s-2.1-18.1-1.81-19.36c.15-.63,3.82-.9,7-2.16l.53-.22c3.07-1.27,6.33-3.14,7.88-3.09s4.89,2.11,8.8,3.31c3.56,1.09,7,1.16,7.6,1.73C39.69,17.11,36.81,31.3,35.67,34.59Z"/><path class="cls-8" d="M14.71,11.52S12,22.64,15.08,40.8l.93,1s-2-11.56-2.1-17.56A76.1,76.1,0,0,1,15,11.39Z"/><path class="cls-8" d="M27.72,9.9a142.31,142.31,0,0,0-1.11,18c.15,8.59.55,14.94.55,14.94l.88-.63s-1.29-10.38-1.28-16.06,1.36-13.59,1.38-14.28A8.14,8.14,0,0,0,27.72,9.9Z"/><path class="cls-9" d="M22.47,0S27.7,2.05,29,2.89s5.27,4.36,9.5,4.44C38.53,7.33,30.49,7.35,22.47,0Z"/><path class="cls-4" d="M42.17,37.62c-.68-.31,1.09-4.33,1.38-5.55s2.05-.93,2.31-.79-1.14,5.44-1.29,5.83S42.17,37.62,42.17,37.62Z"/><path class="cls-10" d="M48.13,19.64h0c-.27.2-1,.77-1,1.37a2,2,0,0,0,.6,1.21c-.18,1.24-.32,2.24-.41,2.77a.34.34,0,0,1,0,.1c0,.09,0,.16,0,.22l0,.07c-.3,1.25-2.91,3.46-2.24-1.89s1-15.22,2.4-14.69a6.59,6.59,0,0,1,1.5,2C49.16,11.31,48.64,15.78,48.13,19.64Z"/><path class="cls-11" d="M7.59,42.75c-.93-1,4.75-1.15,7.21.12s5.48,4.24,6.14,4.33,11.48-7.52,12.86-8.46,6.21-2.13,7.29-1.63S28,50.73,24.34,52.35,14.83,50.27,7.59,42.75Z"/><path class="cls-12" d="M46.22,9.93a0,0,0,0,1,0,0c-.13-1.6-1.61-1.2-10.69-2.66s-10-4.78-12-5.3S20.11,2,15.32,5,.63,7.75.13,10.34A7.14,7.14,0,0,1,.61,7.75c.46-.69,5.73.21,10.11-1.32C16.38,4.43,21.47,0,22.47,0s5.65,4.72,11.14,6.45,11.72.47,12.3,1.19A5.18,5.18,0,0,1,46.22,9.93Z"/><path class="cls-13" d="M34.67,45.12S40.05,40.56,42,34.53s4-20.8,4-20.8S44.2,31.4,42.08,36,34.67,45.12,34.67,45.12Z"/><path class="cls-13" d="M13,39.89S6.91,33.36,5.73,24.55A49.09,49.09,0,0,0,7,32.46C7.83,34.67,13,39.89,13,39.89Z"/><path class="cls-14" d="M21.74,54c-1.21.19-17-11.25-20-19.61h0A60.57,60.57,0,0,0,21.74,54Z"/><g class="cls-15"><path class="cls-16" d="M14.45,31s-1.38-9.3,1.45-13.87,10.63,11.1,10.87,16.93.28,7.2,0,7.34S24.07,27.85,20,22.48s-4.91,13.2-4.91,13.2Z"/><path class="cls-16" d="M15.58,39.19s.53-9.44,2.5-11.26,7.68,15.54,7.68,15.54l-.8.46s-4.14-12.6-6.22-12.65S16,41.81,16,41.81Z"/><path class="cls-16" d="M27,22.19s.76,8.18,2.21,11.46,7.52-2.37,7.52-2.37l.43-3.35s-4.77,4.37-6.62,2.88-3.13-13-3.13-13Z"/><path class="cls-16" d="M27.86,14s1.31,10.39,3.55,13,7.51-2.5,7.82-9.86c0,0-2.19,11.39-6.61,9.74-3.5-1.3-4.76-13.69-4.76-13.69Z"/><path class="cls-16" d="M8.13,25.9c.36-9.58,6-10.94,6-10.94l-.2,1.78A19.07,19.07,0,0,0,8.35,27.79Z"/><path class="cls-16" d="M9.37,32.72s-1-9,4.41-14.14l0,.56s-5.11,4.09-3.57,15.24Z"/></g><path class="cls-4" d="M16.64,36.23s.74-4,2.05-4.32,3,3.67,3,3.67-1.76-4.36-3.1-4.46S16.64,36.23,16.64,36.23Z"/><path class="cls-4" d="M28.33,31s.57,2.89,1.7,3.58,5.49-2.29,5.49-2.29S32.81,35,30.81,35.35,28.85,32.68,28.33,31Z"/><path class="cls-4" d="M29.5,22.48S30.39,27,32,27.79s3.32-1.31,3.32-1.31-1.57,1.57-2.93,1.14C30.45,27,29.5,22.48,29.5,22.48Z"/><path class="cls-17" d="M39.45,15.72c-1.36.23-11.83-4.15-15.23-5.37-3.61-1.3-6.65,6-15.66,5.27-1-.07-1.74,3.49-2.82,3-.27-.12-.42-.52-.49-1.09v0a10.76,10.76,0,0,1,0-2.25.07.07,0,0,1,0,0,9.56,9.56,0,0,1,.83-3.34c.93-.85,4.86-.4,8.36-1.43,3.94-1.16,7.51-3.74,8.7-3.67s4.33,2.18,8,3.57,7.64,2.07,8.18,2.65a1.54,1.54,0,0,1,.2.89A15.87,15.87,0,0,1,39.45,15.72Z"/><path class="cls-18" d="M35.67,34.59c-1.16,3.36-11,10.65-14.61,11.73h0C19.16,45.61,11.19,37.07,9.49,33s-2.1-18.1-1.81-19.36c0,0,.42,13.38,4.1,19.33s17.85,4.09,21.66-.33,1.71-15.77,0-18S20.38,10.12,16.57,11l-1.33.31c3.07-1.27,6.33-3.14,7.88-3.09s4.89,2.11,8.8,3.31c3.56,1.09,7,1.16,7.6,1.73C39.69,17.11,36.81,31.3,35.67,34.59Z"/><path class="cls-17" d="M15.08,40.8A69.53,69.53,0,0,1,13,25.44a74.77,74.77,0,0,1,1.55-13.19,111.42,111.42,0,0,0-1,14.14A70.45,70.45,0,0,0,15.08,40.8Z"/><path class="cls-17" d="M27.72,9.9a103.38,103.38,0,0,0-1.6,17,130.18,130.18,0,0,0,1,16s-1.48-18.45.56-33Z"/><path class="cls-19" d="M15.9,42.75s3.89,2.47,5.26,2.71,8-4.07,8-4.07S23.11,46.46,21,46.71C19.66,46.88,15.9,42.75,15.9,42.75Z"/><g class="cls-20"><path class="cls-21" d="M27.74,48c-3.14-.68,2.94-6.85,5.45-8.16s2.12,3,.38,5.07S27.74,48,27.74,48Z"/><path class="cls-21" d="M36.15,40.66c-.91-.29.06-2.38,1.33-2S37.45,41.06,36.15,40.66Z"/><path class="cls-21" d="M2.1,10.34c-2.18,1.26-1.06,5.05,0,5.95s3-2.23,2.45-4.4S3.11,9.76,2.1,10.34Z"/><path class="cls-21" d="M2.77,18.2c-.21-.46.84-1.79,1.39-1.23S3.39,19.54,2.77,18.2Z"/></g><path class="cls-22" d="M44,28.3c-1.14.36-1-3.6.17-4.35S46.42,27.54,44,28.3Z"/><path class="cls-22" d="M5.68,25.57c-.59-.76-.79-2.43-.14-3s1.45,2.88.82,3.14S5.68,25.57,5.68,25.57Z"/><path class="cls-6" d="M43.46,25.23A1.44,1.44,0,0,0,44.72,27c.6,0,1.32-1.13.56-2.44S43.58,24.69,43.46,25.23Z"/><path class="cls-23" d="M43.25,26.39c.19-.24,0,1,.71,1.28s1.22-.7,1.32-.6-.93,1.54-1.45,1.54C43.08,28.61,43.25,26.39,43.25,26.39Z"/><path class="cls-6" d="M5.18,23.31c.05,1.21.24,1.5.82,1.62s.64-1.44.09-2.1S5.18,23.31,5.18,23.31Z"/><path class="cls-23" d="M5.31,24.85s.37.72.84.57c.3-.1.32-1,.32-1s.35,1.26-.18,1.47S5.46,25.45,5.31,24.85Z"/><path class="cls-24" d="M4.65,32.07C4,31.6,3.57,30.46,4.09,30s1.78,1.84,1.22,2.1S4.65,32.07,4.65,32.07Z"/><path class="cls-6" d="M3.86,30.54c.22.84.44,1,1,1s.39-1.06-.21-1.46S3.86,30.54,3.86,30.54Z"/><path class="cls-23" d="M4.21,31.6s.44.47.86.31c.27-.1.18-.7.18-.7s.5.84,0,1S4.43,32,4.21,31.6Z"/><path class="cls-11" d="M24.27,1.66c-1.23-.67.42,4.11,2.65,6S37,12.31,40,12.5s5.54-3.59,5.59-4.29-3.36-.06-10.29-1.43A24.78,24.78,0,0,1,24.27,1.66Z"/><path class="cls-25" d="M40.36,14.7c-.33-2.2,4.73-4.93,5.26-5.59s.4,3.76-.66,5S40.36,14.7,40.36,14.7Z"/><path class="cls-8" d="M15.06,21.14c-.45.39-.77,5-.57,6.27.5,3.13,3.86,5.21,4.75,5.67s4.88-2.54,5.62-4.63a15.38,15.38,0,0,0,.27-7.95c-.34-.84-5.38,4.22-6.33,4S15.7,20.6,15.06,21.14Z"/><path class="cls-26" d="M25.23,23.42c-.21-.52-3.65,1.94-4.37,2s-2.06-1-2.06-1-2.29-2.12-2.52-1.85a14.2,14.2,0,0,0,0,5.9c.56,1.57,3.18,3.78,3.36,3.9C20.33,32.89,26.5,31,25.23,23.42Z"/><path class="cls-27" d="M15.52,21.21c-.77-.09-.8,2.16-.42,3.88s.8.05,1.4-.23,4.13,4.44,4.9,4.8,3.44-4,3.76-5.13.6-3.69,0-4-4.7,3.95-6.16,3.87S15.52,21.21,15.52,21.21Z"/><path class="cls-28" d="M14.79,28.54S15,30,17.13,32.07s3.07,1.9,4.77.3A16.16,16.16,0,0,0,25,28.12a17.32,17.32,0,0,1-2.88,3.46c-1.35,1.11-2.2,1.81-3.34,1.23A10.17,10.17,0,0,1,14.79,28.54Z"/></g></g></g></svg>