<svg xmlns="http://www.w3.org/2000/svg" xmlns:xlink="http://www.w3.org/1999/xlink" viewBox="0 0 46.66 51.34"><defs><style>.cls-1{isolation:isolate;}.cls-2{fill:url(#Безымянный_градиент_468);}.cls-3{fill:url(#Безымянный_градиент_468-2);}.cls-4{fill:url(#Безымянный_градиент_467);}.cls-5{fill:url(#Безымянный_градиент_466);}.cls-6{fill:url(#Безымянный_градиент_533);}.cls-14,.cls-7{fill:#d42f55;}.cls-11,.cls-14,.cls-7,.cls-9{mix-blend-mode:multiply;}.cls-7{opacity:0.5;}.cls-13,.cls-8{fill:#fff;}.cls-10,.cls-8{mix-blend-mode:soft-light;}.cls-9{fill:#da0553;opacity:0.2;}.cls-10{fill:#ff973b;}.cls-11{fill:#b30053;opacity:0.3;}.cls-12{fill:#ffe016;}.cls-14{opacity:0.8;}.cls-15{fill:url(#Безымянный_градиент_465);}.cls-16{fill:url(#Безымянный_градиент_464);}.cls-17{fill:#ed4800;}.cls-18{fill:#ffba00;}</style><linearGradient id="Безымянный_градиент_468" x1="26.91" y1="51.05" x2="26.91" y2="0.25" gradientUnits="userSpaceOnUse"><stop offset="0" stop-color="#ff5900"/><stop offset="0.23" stop-color="#fe6800"/><stop offset="0.66" stop-color="#fa9300"/><stop offset="0.85" stop-color="#f66a00"/><stop offset="1" stop-color="#f63f00"/></linearGradient><linearGradient id="Безымянный_градиент_468-2" x1="25.28" y1="51.34" x2="25.28" y2="0" xlink:href="#Безымянный_градиент_468"/><linearGradient id="Безымянный_градиент_467" x1="28.3" y1="49.08" x2="11.23" y2="2.16" gradientUnits="userSpaceOnUse"><stop offset="0" stop-color="#ffea34"/><stop offset="0.63" stop-color="#ff8100"/><stop offset="0.7" stop-color="#ffa400"/><stop offset="1" stop-color="#ffba00"/></linearGradient><linearGradient id="Безымянный_градиент_466" x1="23.83" y1="42.35" x2="12.95" y2="12.47" gradientUnits="userSpaceOnUse"><stop offset="0" stop-color="#ffba00"/><stop offset="0.21" stop-color="#fe6800"/><stop offset="1" stop-color="#d41b00"/></linearGradient><linearGradient id="Безымянный_градиент_533" x1="19.09" y1="43.54" x2="19.09" y2="11.31" gradientUnits="userSpaceOnUse"><stop offset="0.04" stop-color="#ef6300"/><stop offset="1" stop-color="#e13e00"/></linearGradient><linearGradient id="Безымянный_градиент_465" x1="18.81" y1="25.66" x2="18.81" y2="-5.8" gradientTransform="translate(0.26 18.79) rotate(-3.78)" gradientUnits="userSpaceOnUse"><stop offset="0" stop-color="#c82400"/><stop offset="0.51" stop-color="#d84400"/><stop offset="1" stop-color="#d42f00"/></linearGradient><linearGradient id="Безымянный_градиент_464" x1="17.44" y1="25.53" x2="17.44" y2="-5.74" gradientTransform="translate(0.26 18.79) rotate(-3.78)" gradientUnits="userSpaceOnUse"><stop offset="0" stop-color="#ffab00"/><stop offset="0.49" stop-color="#ffba00"/><stop offset="1" stop-color="#ef6c00"/></linearGradient></defs><g class="cls-1"><g id="Слой_2" data-name="Слой 2"><g id="layer1"><path class="cls-2" d="M46.47,28.64c-1.41,13-10.3,22.41-20,22.41-.52,0-1,0-1.54-.08a14.2,14.2,0,0,1-1.61-.25C15.06,49,8.13,40.26,7.24,28.64c-1-13,5.85-25.2,16.09-27.87a15.22,15.22,0,0,1,4-.52c11.71,0,20,12.42,19.3,26.46v0C46.59,27.37,46.54,28,46.47,28.64Z"/><path class="cls-3" d="M20.18,51.05s6.43.89,10-.45L32,1.14S29.79-.66,18.59.26Z"/><path class="cls-4" d="M39.42,28.64C38.54,40.26,31.6,49,23.33,50.72a15,15,0,0,1-3.15.33c-6.54,0-12.57-4.18-16.29-10.73-.07-.12-.13-.23-.19-.32l-.2-.38a30.29,30.29,0,0,1-3.3-11C-1.41,13.85,7.06.25,19.33.25a15.3,15.3,0,0,1,4,.52C33.57,3.44,40.41,15.59,39.42,28.64Z"/><path class="cls-5" d="M31,28.64c-.3,8.24-5.41,14.51-11.57,14.9-.21,0-.43,0-.65,0-6.45,0-12.21-6.42-12.91-14.93C5.09,19.39,10.51,11.27,18,11.27a6.17,6.17,0,0,1,.75,0C25.92,11.84,31.3,19.71,31,28.64Z"/><path class="cls-6" d="M31,28.64c-.3,8.24-5.41,14.51-11.57,14.9-6.17-.39-11.54-6.66-12.17-14.9-.67-8.93,4.41-16.8,11.53-17.33C25.92,11.84,31.3,19.71,31,28.64Z"/><path class="cls-7" d="M6.79,20.65s.79,1.22,1.25.61,2.62-7.2,9.8-8,12.06,8,12.06,8-3.83-10.42-12.15-10S6.79,20.65,6.79,20.65Z"/><path class="cls-8" d="M1.61,17.66c-.09,3.49,3.62,2.79,4.12,2.63s3.21-6.56,9-9.26S26.05,13.32,28,15.84s7.16-1.83,7.57-3.9S26.42-1.58,15.32,1.42C4.49,4.35,1.61,17.66,1.61,17.66Z"/><path class="cls-9" d="M1.46,19.63C-.12,19.71.2,27.17.78,30s3.65,1.62,4.22.67.85-8.86.94-9.46-1-.41-2.47-.54S1.83,19.61,1.46,19.63Z"/><path class="cls-9" d="M30,17.26c-1,.48.68,6.21,1.68,9.82S36.49,26,38,26.19s-.28-11.38-1.33-12.38S33.52,16.37,30,17.26Z"/><path class="cls-10" d="M12.82,48.55c-3.34-4.28,4.29-2.87,9.14-5s7-5.59,8.29-6.73,5.16,2.65,4.75,4.35S26.76,54.86,12.82,48.55Z"/><path class="cls-11" d="M27.86,1.42c-.75,0,6.77,6.4,8.67,9.69s2.88,7,3.63,7.8,5.51-.32,5.51-.32-1-7.16-5.5-12.13C35.46,1.28,27.86,1.42,27.86,1.42Z"/><path class="cls-11" d="M30.29,48c-1,1,3.37.78,3.87.6s6.4-3.41,8.13-7.39c1.8-4.15-2.87-4.27-3.74-4.28s-2.29,4-5.23,7.55S30.29,48,30.29,48Z"/><path class="cls-8" d="M39.62,19.63c-.76,0,.17,5.58.25,9.93.08,4.17,6,2.66,6.11,2.16a60.18,60.18,0,0,0,.38-8.18c-.17-2.49.47-4.43-1.48-4.46A38.76,38.76,0,0,0,39.62,19.63Z"/><path class="cls-12" d="M10.93,40.15c-.91-2.8.39.39,4.51,2.3s9.11,0,11.23-2.55a10.49,10.49,0,0,1-15.74.25Z"/><path class="cls-8" d="M17.77.94c-4,.35-4.11,9.35-.91,9.42s6.42.32,10.79,5.1c4.2,4.59,7.67-3.26,7.52-4.82S28.92-.62,17.77.94Z"/><path class="cls-8" d="M7.5,45.22c-4.37-4.91,1.05-5.82,2-5.56S13,43.26,18,43.77,19.9,50.5,18,50.65,10.44,48.53,7.5,45.22Z"/><path class="cls-13" d="M24.56,1.42c-1.88.09.76,6.49,3.08,8.75s6-.95,5.85-2.08S28.29,2.62,24.56,1.42Z"/><path class="cls-13" d="M9.33,45.05c-.82-1.75,3.43.86,2.94,1.78S10.13,46.77,9.33,45.05Z"/><path class="cls-8" d="M32.4,29.56c-1,.62-1,4.32-4.94,10.24-3.74,5.59.31,7.67,1.18,7.73s6.59-5.34,8.83-11.73c2.39-6.82.53-8-.1-8.28S33.22,29,32.4,29.56Z"/><path class="cls-8" d="M27.31,1.42c-2.75,0,4,3.29,6.28,4.46s5-.92,5-.92S35.52.58,27.31,1.42Z"/><path class="cls-8" d="M5.8,27.91a13.27,13.27,0,0,1,1-5.11c.26-.41,1.21,7.46.91,8.92S5.92,28.83,5.8,27.91Z"/><path class="cls-12" d="M33.51,7.78S41.73,18,38.32,34.47C38.32,34.47,43.87,18.47,33.51,7.78Z"/><path class="cls-7" d="M18,50.89a23.44,23.44,0,0,0,6,.35c3.09-.27,8.06-5.42,8.06-5.42A16.43,16.43,0,0,1,18,50.89Z"/><path class="cls-14" d="M20.18,51.05c-6.54,0-12.57-4.18-16.29-10.73C5.34,42.75,9.82,49.13,20.18,51.05Z"/><path class="cls-7" d="M3.7,40l.19.32C3.82,40.2,3.76,40.09,3.7,40Z"/><path class="cls-7" d="M46.47,28.64c-1.41,13-10.3,22.41-20,22.41-.52,0-1,0-1.54-.08a25.27,25.27,0,0,0,16.37-8.78c3.38-3.79,5.2-14.75,5.31-15.45C46.59,27.37,46.54,28,46.47,28.64Z"/><path class="cls-14" d="M.85,17.75A25,25,0,0,1,7.57,6.28c5.32-4.81,15-6,15-6L27,.08S20.21,0,18.32.25,4.88,1.53.85,17.75Z"/><path class="cls-15" d="M13.49,36.49a6.26,6.26,0,0,1,.13-2.6,4.14,4.14,0,0,1,1.29-.47,5.93,5.93,0,0,1,1.8.41A5.69,5.69,0,0,1,17,35.06,4.6,4.6,0,0,0,19,36c-.37-2.4-.64-4.24-.8-5.49a13.4,13.4,0,0,1-2-.45,6.86,6.86,0,0,1-1.71-.86A4.4,4.4,0,0,1,13,27.52a7.78,7.78,0,0,1-.75-2.64,10.14,10.14,0,0,1,1-6.1,6.13,6.13,0,0,1,4-3.45L17,12c.09-.23,1.6-.14,1.6-.14l.57,3.42a7.11,7.11,0,0,1,2.47.78,3.45,3.45,0,0,1,.49-1.75,2.75,2.75,0,0,1,1.42-.65,1.61,1.61,0,0,1,1.69.65A10.08,10.08,0,0,1,26,17.61a9.37,9.37,0,0,1-.1,2.73A1.47,1.47,0,0,1,25,21.42a3.09,3.09,0,0,1-1,.3,2.53,2.53,0,0,1-1.76-.38A4,4,0,0,1,22,20.1a4.79,4.79,0,0,0-2.06-.36q.51,3.24.81,6.44a9.24,9.24,0,0,1,4.73,1.35,5,5,0,0,1,1.72,4,8.9,8.9,0,0,1-1.53,5.79,5.72,5.72,0,0,1-4.33,2.54v3a7.42,7.42,0,0,1-2,.41l.29-3.38a5.09,5.09,0,0,1-2.41-1.14,1.91,1.91,0,0,1-.12,1.09,2.26,2.26,0,0,1-1.35.25,2,2,0,0,1-1.43-.47A8.67,8.67,0,0,1,13.49,36.49Zm2.19-12.62a2.31,2.31,0,0,0,2.09,2.36c-.12-1.32-.24-3.32-.36-6C16.05,20.8,15.48,22,15.68,23.87Zm5.58,11.88a3.84,3.84,0,0,0,1.44-1.34,3,3,0,0,0,.49-1.85c-.09-1.1-.8-1.75-2.14-1.92C21.15,32.36,21.22,34.07,21.26,35.75Z"/><path class="cls-16" d="M25.85,31.59a5.05,5.05,0,0,0-1.74-4,4.39,4.39,0,0,0-.67-.4,10.65,10.65,0,0,0-4.07-.95.34.34,0,0,0,0-.1c0-.24-.05-.48-.07-.73-.21-1.85-.46-3.73-.77-5.61a5.11,5.11,0,0,1,2.06.36,4.26,4.26,0,0,0,.28,1.24,2.48,2.48,0,0,0,1.76.38,2.65,2.65,0,0,0,1-.3,1.47,1.47,0,0,0,.92-1.08,9.85,9.85,0,0,0,.08-2.72,19.66,19.66,0,0,0-.43-3.58,2.18,2.18,0,0,0-2-.4,2.64,2.64,0,0,0-1.42.65,3.37,3.37,0,0,0-.48,1.76,6.78,6.78,0,0,0-2.49-.79l-.58-3.42q-1.22.45-1.35.78l0,2.72a6.08,6.08,0,0,0-4,3.45,10.11,10.11,0,0,0-1,6.1s0,.07,0,.11a7.72,7.72,0,0,0,.76,2.52,4.3,4.3,0,0,0,1.43,1.65,6.79,6.79,0,0,0,1.72.87,13.67,13.67,0,0,0,2,.45c.08.58.18,1.29.31,2.14s.31,2.07.52,3.34a4.53,4.53,0,0,1-2-.92,6.23,6.23,0,0,0-.32-1.23,6,6,0,0,0-1.8-.41A4.24,4.24,0,0,0,12.3,34a6.1,6.1,0,0,0-.12,2.6,8.64,8.64,0,0,0,.91,3.09,2,2,0,0,0,1.42.47,2.35,2.35,0,0,0,1.35-.24,2,2,0,0,0,.12-1.1,5.09,5.09,0,0,0,2.41,1.14L19,43.14a2.42,2.42,0,0,0,1.13-.24l0-3a5.66,5.66,0,0,0,4.32-2.54A8.87,8.87,0,0,0,25.85,31.59ZM15.77,26.16a2.38,2.38,0,0,1-1.49-2.22c-.2-1.83.35-3.06,1.72-3.64.13,2.55.25,4.47.37,5.79v.08a.34.34,0,0,1,0,.14A2.45,2.45,0,0,1,15.77,26.16Zm5.6,8.33a3.58,3.58,0,0,1-1.43,1.33c0-1.25-.1-2.51-.16-3.79,0-.43-.05-.87-.08-1.32a3,3,0,0,1,1.39.5,1.86,1.86,0,0,1,.76,1.43A2.92,2.92,0,0,1,21.37,34.49Z"/><path class="cls-8" d="M24.51,20.42a1.47,1.47,0,0,1-.92,1.08,2.65,2.65,0,0,1-1,.3,2.48,2.48,0,0,1-1.76-.38,4.26,4.26,0,0,1-.28-1.24,5.11,5.11,0,0,0-2.06-.36c.31,1.88.56,3.76.77,5.61a17.48,17.48,0,0,1-2.92.66c-.12-1.32-.24-3.24-.37-5.79-1.37.58-1.92,1.81-1.72,3.64a2.38,2.38,0,0,0,1.49,2.22,6.83,6.83,0,0,1-4.85-1.08s0-.07,0-.11a10.11,10.11,0,0,1,1-6.1,6.08,6.08,0,0,1,4-3.45l0-2.72q.13-.33,1.35-.78l.58,3.42a6.78,6.78,0,0,1,2.49.79,3.37,3.37,0,0,1,.48-1.76,2.64,2.64,0,0,1,1.42-.65,2.18,2.18,0,0,1,2,.4,19.66,19.66,0,0,1,.43,3.58A9.85,9.85,0,0,1,24.51,20.42Z"/><path class="cls-9" d="M22.6,29.64a8.34,8.34,0,0,1-1.51,1.57,3,3,0,0,0-1.39-.5c0,.45.05.89.08,1.32a6.32,6.32,0,0,1-2.6.68c-.13-.85-.23-1.56-.31-2.14a13.67,13.67,0,0,1-2-.45,6.79,6.79,0,0,1-1.72-.87,4.3,4.3,0,0,1-1.43-1.65,7.72,7.72,0,0,1-.76-2.52s0-.07,0-.11.2,1.07,4.86,1.19h.6c1,0,2.05,0,3,0a.34.34,0,0,1,0,.1,10.65,10.65,0,0,1,4.07.95C23.66,27.73,23.43,28.51,22.6,29.64Z"/><path class="cls-13" d="M15.7,35.13c-.06-.32,2,.92,2,.92S15.91,36,15.7,35.13Z"/><path class="cls-13" d="M21.72,13.82c-.76.08.87,3.78,1.81,4.51s1-3.5.63-4.21S21.72,13.82,21.72,13.82Z"/><path class="cls-8" d="M16.63,12.14c-.81.56.82,1.93.82,1.93s-.09-2-.41-2.1A.3.3,0,0,0,16.63,12.14Z"/><path class="cls-13" d="M38.81,17.15c-.63-2.63-.53,2.34,0,5s.92,1.91.92,1.91S39.84,19,38.81,17.15Z"/><path class="cls-8" d="M24.64,51.22c-3.11,0,2.77-1.52,4.05-2.29s4.75.18,4.75.18S30.36,51.45,24.64,51.22Z"/><path class="cls-17" d="M38.32,34.47c-1.52-.2-3.1,4.91-2.26,6s2.83-1.95,3.22-2.94S38.32,34.47,38.32,34.47Z"/><path class="cls-17" d="M32.1,45.82c-1.11-.17,1.49-2.19,2-2.28s.31,1-.09,1.76S32.51,45.89,32.1,45.82Z"/><path class="cls-18" d="M32.13,45c-.3.58.29.94,1.18.73a1.82,1.82,0,0,0,.61-.36,3.34,3.34,0,0,1-1.75,1C31.3,46.41,31.54,45.6,32.13,45Z"/><path class="cls-18" d="M36,38.26s0,.63,1,.63a3.5,3.5,0,0,0,2.27-1.28s-1.17,2.84-2.61,3.4S35.74,39.13,36,38.26Z"/><path class="cls-7" d="M36.45,36.6c-.57,2.44,1.68.61,2.1.28s.81.2.81.2-.38-2.42-1-2.61S36.45,36.6,36.45,36.6Z"/><path class="cls-7" d="M32.91,44.28c-.31.86.51,1.16,1,.85s.33-1.67.13-1.59S32.91,44.28,32.91,44.28Z"/><path class="cls-13" d="M37,40.79c-.62.11.28-.55.83-1.06S37.56,40.53,37,40.79Z"/><path class="cls-13" d="M32.25,46.34c-.1-.05.9-.55,1-.45C33.23,46.19,32.25,46.34,32.25,46.34Z"/></g></g></g></svg>