<svg xmlns="http://www.w3.org/2000/svg" xmlns:xlink="http://www.w3.org/1999/xlink" viewBox="0 0 46.95 54.87"><defs><style>.cls-1{isolation:isolate;}.cls-2{fill:#404c29;}.cls-3{fill:url(#Безымянный_градиент_71);}.cls-4{fill:url(#Безымянный_градиент_10);}.cls-5{fill:#d8ec38;}.cls-6{fill:url(#Безымянный_градиент_10-2);}.cls-7{fill:#912774;}.cls-12,.cls-13,.cls-15,.cls-17,.cls-19,.cls-7{mix-blend-mode:multiply;}.cls-13,.cls-17,.cls-19,.cls-7,.cls-8{opacity:0.3;}.cls-14,.cls-16,.cls-18,.cls-8{fill:#fff;}.cls-16,.cls-18,.cls-8{mix-blend-mode:soft-light;}.cls-9{fill:url(#Безымянный_градиент_71-2);}.cls-10{fill:url(#Безымянный_градиент_83);}.cls-11{fill:url(#Безымянный_градиент_638);}.cls-12,.cls-13{fill:#a42e89;}.cls-12,.cls-18{opacity:0.5;}.cls-15{fill:#f0ae89;opacity:0.2;}.cls-17{fill:#911d3d;}.cls-19{fill:#be81a9;}.cls-20{fill:#beef31;}.cls-21{fill:#bee009;}</style><linearGradient id="Безымянный_градиент_71" x1="14.58" y1="54.73" x2="14.58" y2="2.19" gradientUnits="userSpaceOnUse"><stop offset="0" stop-color="#427038"/><stop offset="0.99" stop-color="#636f00"/></linearGradient><linearGradient id="Безымянный_градиент_10" x1="28.67" y1="54.87" x2="28.67" gradientUnits="userSpaceOnUse"><stop offset="0" stop-color="#84a61d"/><stop offset="1" stop-color="#aec200"/></linearGradient><linearGradient id="Безымянный_градиент_10-2" x1="30.7" y1="43.87" x2="30.7" y2="11.14" xlink:href="#Безымянный_градиент_10"/><linearGradient id="Безымянный_градиент_71-2" x1="4.16" y1="53.77" x2="4.16" y2="10.41" xlink:href="#Безымянный_градиент_71"/><linearGradient id="Безымянный_градиент_83" x1="5.03" y1="31.37" x2="46.95" y2="31.37" gradientUnits="userSpaceOnUse"><stop offset="0" stop-color="#f8d5e0"/><stop offset="1" stop-color="#ffe4ec"/></linearGradient><linearGradient id="Безымянный_градиент_638" x1="6.15" y1="32.01" x2="46.77" y2="32.01" gradientUnits="userSpaceOnUse"><stop offset="0" stop-color="#de0086"/><stop offset="1" stop-color="#ff003b"/></linearGradient></defs><g class="cls-1"><g id="Слой_2" data-name="Слой 2"><g id="layer1"><path class="cls-2" d="M.69,10.41C1,10,4.43,9.55,4.43,9.55L9.11,21.64H6.71Z"/><path class="cls-2" d="M5.54,5.78,8,5.39l4.29,12.54L10.74,21.7,4.43,7.62S4.5,6,5.54,5.78Z"/><path class="cls-3" d="M27,54.61s-4.33.14-8.91.11h0c-4.8,0-9.89-.22-10.51-1S8.76,42.52,8,29.83,1.45,10.2,2.27,8.61A12.58,12.58,0,0,1,5.54,5.78c-.81.63,0,1.28,1.41,3.37s3.49,8.13,3.49,8.13C9.8,10.94,7.26,5,8.17,4.11l0,0,0,0a15.35,15.35,0,0,1,4.07-1.88h0L26.05,6.88,27,54.15Z"/><path class="cls-4" d="M44.35,46.25Q44.2,47.18,44,48s0,0,0,0c-.56,2.67-1.29,4.6-2.21,5.4-1.39,1.24-18.62,1.65-23.74,1.25h0a5.79,5.79,0,0,1-1.3-.18.75.75,0,0,1-.35-.48c-1-2.89.7-17.69-1.07-31.58C13.38,7.36,11.68,4.6,11.79,2.63c0-.14.18-.29.5-.44h0c3.79-1.75,27.38-3.43,30.43-.9,1,.84,1.85,5.69,2.33,12.12a.15.15,0,0,1,0,.06c.1,1.29.18,2.63.25,4v.07h0C45.79,27.16,45.59,38.77,44.35,46.25Z"/><path class="cls-5" d="M17.45,14.12c-1.37,1.34.33,29.78.56,31.19s3.46,1.67,7.64,6.91c2.4,3,10.46,1.58,11.57-2.11s5.12-5.91,6.23-8.58-.3-28-1.31-29.38-5-4.13-5.7-9.3c-.39-3-15.3-1.43-15.75-.66S23.48,8.18,17.45,14.12Z"/><path class="cls-6" d="M28.55,11.19c-10.14,1-10,30.69,2.07,32.61S44.71,9.55,28.55,11.19Z"/><path class="cls-5" d="M29.58,26c-1.18-1.38-.14-2.37,1-2.66s4.87,3.35,5.54,3.37c0,0,1.23-2.89,1.11-3.78-.09-.67-1.84-3.23-4.24-4.68a15.19,15.19,0,0,0-.2-3.12c-.47-.46-3.87-.33-4.57-.19a8.88,8.88,0,0,0-.08,3c-2.42,1.64-3.9,6.09-2.75,9,1.48,3.69,7.25,2.14,8.08,3.1s-1.35,3.35-2.72,3.25l-.27-.06c-1.19-.42-1.82-3-2.54-3.29a3,3,0,0,0-3.1,1.7c-.29,1,2.76,3.2,5.07,4.18a5.94,5.94,0,0,0,.47,2s1.93.4,2.2,0a14.07,14.07,0,0,0,.16-2.12,13.21,13.21,0,0,0,4.59-5.92C38,27.54,30.76,27.37,29.58,26Z"/><path class="cls-7" d="M8.2,4.09l0,0-.05,0Z"/><path class="cls-7" d="M14.58,54.67c-1.71-.54.41-11,.63-14.45,0,0-.89,6-2.29,9.16s-1.75,5.15-.45,5.21S14.58,54.67,14.58,54.67Z"/><path class="cls-8" d="M13,2.73c-1.3.38,2.79,14.69,4.91,20.25s24.43,1.12,26-1.23S43.71,5,42,2.19,18.68,1.06,13,2.73Z"/><path class="cls-9" d="M.69,10.41c-.34.7-.78,1.22-.67,1.69S4.26,15.71,6.72,25s-.39,27.61-.45,28.23,1.26.52,1.26.52,1.25-16.39.59-26S.69,10.41.69,10.41Z"/><path class="cls-10" d="M6.19,23.18a6.22,6.22,0,0,0-1.14.75c-.15.22.93,3.44,1.3,8.16A36.15,36.15,0,0,1,6,40.22c0,.8,8.55,1.23,10.13,1.31S45,41.3,45,41.3s1-.17,1.25-.79S47,23,47,22.25s-1.48-1.05-1.48-1.05l0,1.27s-27.35,2.09-29.93,2.1-9.14-.64-9.14-.64Z"/><path class="cls-11" d="M6.15,30.89s7.47.65,9.38.83,31.24-2.21,31.24-2.21l-.11,3.22S17.71,34,15.57,34s-8.83.49-8.83.49Z"/><path class="cls-12" d="M15.56,24.57c-.64.59-.11,1.93,0,8.26s-.4,7.77,0,8.23,27.36.31,30.66-.55A1.2,1.2,0,0,1,45,41.3l-.08.87s-25.4,1.31-28.77,1A61,61,0,0,1,7.5,41.54v-.77S6,40.61,6,40.22a26.81,26.81,0,0,0,.4-7.17C6.05,29.41,5,24.29,5,24.11s1.16-.93,1.16-.93l.18.6A52.65,52.65,0,0,0,15.56,24.57Z"/><path class="cls-13" d="M5.1,24.57c.5-.31,8.78.11,9.48,1.09s.92,13.92.59,14.85-8.39.29-8.77,0,.73-2.85.21-7.78A47.74,47.74,0,0,0,5.1,24.57Z"/><path class="cls-14" d="M13.15,24.67a86.11,86.11,0,0,0,18,.46c8-.88,15.83-2.59,15.83-2.59l-1.46-.07S24.58,24.81,13.15,24.67Z"/><path class="cls-15" d="M17,25.34c-1.29.65,1.88,7.56,4.26,8.83s13.33,2.57,18,.87,6.85-10.87,7-11.7S36.8,24.82,30.7,25.06,17.8,24.93,17,25.34Z"/><path class="cls-16" d="M15.67,25.66c.67-.63,3.12,5.59,3.57,8.85s-2.64,6-3.36,6S15.67,25.66,15.67,25.66Z"/><path class="cls-17" d="M42.73,1.29c1,.84,1.85,5.69,2.33,12.12-.47-4.32-1.84-10.69-5.73-12.34-6-2.55-27,1.12-27,1.12C16.09.44,39.68-1.24,42.73,1.29Z"/><path class="cls-17" d="M45.33,17.58h0Z"/><path class="cls-18" d="M32.7.17c-7.55.84-1.4,7.42,3.85,10.24S43.22,6,41.68,2.93,32.7.17,32.7.17Z"/><path class="cls-19" d="M6.37,23.78s-1.1-5.05-.43-8.19,4.13,1.5,5.25,3.12S8.79,7.38,9.85,5.39s5.87,17.05,5.64,18.53S6.37,23.78,6.37,23.78Z"/><path class="cls-20" d="M15.56,24.57a32.6,32.6,0,0,0-.61-9A84.12,84.12,0,0,0,12.1,4.77,110,110,0,0,1,15.56,24.57Z"/><path class="cls-21" d="M16.12,43.22s.12,10.8,1.27,11.44A1.16,1.16,0,0,1,16.24,54C15.91,53.29,15.91,45.63,16.12,43.22Z"/><path class="cls-17" d="M44,48.07c-.56,2.67-1.29,4.6-2.21,5.4-1.39,1.24-18.62,1.65-23.74,1.25h0c-4.8,0-9.89-.22-10.51-1a29.21,29.21,0,0,0,8.86.3c2.05-.32,6.22-.06,10.57.09,4.53.16,9.26.2,11.94-.69A7.77,7.77,0,0,0,44,48.07Z"/></g></g></g></svg>