<svg xmlns="http://www.w3.org/2000/svg" xmlns:xlink="http://www.w3.org/1999/xlink" viewBox="0 0 50.79 47"><defs><style>.cls-1{isolation:isolate;}.cls-2{fill:url(#Безымянный_градиент_560);}.cls-3{fill:url(#Безымянный_градиент_140);}.cls-4{fill:#bd3ea9;}.cls-10,.cls-11,.cls-4,.cls-8{mix-blend-mode:multiply;opacity:0.5;}.cls-5{fill:#ffb048;}.cls-6{fill:#ffba48;}.cls-7{fill:#ffd300;}.cls-8{fill:#e07090;}.cls-13,.cls-9{fill:#fff;mix-blend-mode:soft-light;}.cls-9{opacity:0.3;}.cls-10{fill:#ffd4bd;}.cls-11{fill:#e386a2;}.cls-12{fill:url(#Безымянный_градиент_560-2);}.cls-13{opacity:0.4;}</style><linearGradient id="Безымянный_градиент_560" x1="36.23" y1="48.32" x2="19.07" y2="1.18" gradientUnits="userSpaceOnUse"><stop offset="0" stop-color="#f63f00"/><stop offset="0.55" stop-color="#f66a00"/><stop offset="1" stop-color="#fa9300"/></linearGradient><linearGradient id="Безымянный_градиент_140" x1="32.51" y1="47.7" x2="16" y2="2.35" gradientUnits="userSpaceOnUse"><stop offset="0" stop-color="#ff9600"/><stop offset="1" stop-color="#ffa900"/></linearGradient><linearGradient id="Безымянный_градиент_560-2" x1="35.29" y1="17.29" x2="41.83" y2="17.29" xlink:href="#Безымянный_градиент_560"/></defs><g class="cls-1"><g id="Слой_2" data-name="Слой 2"><g id="layer1"><path class="cls-2" d="M40.92,32.37s2.39,10.05.76,13.37a1.91,1.91,0,0,1-.66.83c-.33.24-6.34.35-6.84.36-2.13.06,0-1.71-2.53-3.2-.47-.28-.92-.55-1.31-.8-1.12-.7-1.86-1.22-1.86-1.22a49.69,49.69,0,0,1-6.87,4,16,16,0,0,1-2.84,1,67,67,0,0,1-7.68.09c-2.79-1.94,4.6-13.91,4.71-14.46v0S4.9,23.89,5.63,20h0c.77-4,14.19-4.45,14.19-4.45S18.39,2.87,21.92.16c.45-.34,5.54,0,6,0,1.23,0,2.54,1.51,3.74,3.57a64.41,64.41,0,0,1,4.78,11.79s1.7.05,3.92.31a28.57,28.57,0,0,1,7.95,1.82c1.3.6,2.24,1.36,2.44,2.33.57,2.63-4.14,7.39-7.22,10.16C42,31.47,40.92,32.37,40.92,32.37Z"/><path class="cls-3" d="M37.93,30.13c-1.49,1.34-2.6,2.24-2.6,2.24a59.64,59.64,0,0,1,1.16,6.9v0c.26,2.5.28,5-.4,6.43a2.08,2.08,0,0,1-.66.84,2.22,2.22,0,0,1-1.25.35c-2.13.06-5.58-1.71-8.12-3.2-.47-.29-.92-.55-1.3-.81-1.13-.69-1.87-1.2-1.87-1.2a50.15,50.15,0,0,1-6.87,4,16,16,0,0,1-2.84,1,4.67,4.67,0,0,1-2,.1l-.05,0a1.82,1.82,0,0,1-.6-.26c-2.8-1.94-.4-13.64-.28-14.19v0s-5.85-4.56-8.69-8.53l-.05-.07C.46,22.35-.16,21,0,20H0c.78-4,14.2-4.45,14.2-4.45S18.31.16,22.32.16c1.23,0,2.53,1.51,3.74,3.57a64.78,64.78,0,0,1,4.79,11.79s1.69.05,3.92.31a27.56,27.56,0,0,1,7.94,1.83C44,18.25,45,19,45.16,20,45.72,22.62,41,27.37,37.93,30.13Z"/><path class="cls-4" d="M45.2,22.05c1.28-2.13,4.81-1.37,5.07-.87s-4.05,7.17-6.75,9a16.17,16.17,0,0,1-7.36,2c-.63,0,4.44-4.22,6-6.48A31,31,0,0,1,45.2,22.05Z"/><path class="cls-4" d="M25.72,43.52s-2.3-1.36-3.12-1.21-5.47,3.2-6.53,3.63.54,1.24,3.28.67S25.72,43.52,25.72,43.52Z"/><path class="cls-5" d="M30.84,15.52s8.59.16,12.15.67,6.93,2.47,7,3.18-3.35.45-4.22.24S42.51,16.07,30.84,15.52Z"/><path class="cls-6" d="M22.32.16C24.52,0,27,3.84,28.8,4.72s1.29-3,0-4.08S22.32.16,22.32.16Z"/><path class="cls-4" d="M35,46.81c1.74-.4,1.74-1.63,4.67-2.48S41.89,46,41,46.57,35,46.81,35,46.81Z"/><path class="cls-7" d="M30.84,15.52a73.29,73.29,0,0,1,9.59,1.77c4.15,1.17,4.68,2.54,4.68,2.54s.37-1.57-4.45-3.1A30.07,30.07,0,0,0,30.84,15.52Z"/><path class="cls-7" d="M1.4,18.22a54.83,54.83,0,0,1,12.83-2.7S7.05,15.25,1.4,18.22Z"/><path class="cls-7" d="M16.88,7.57s2.65-5.72,5.44-6.21,6.49,8.28,6.49,8.28S25.48,0,22.6,0,16.88,7.57,16.88,7.57Z"/><path class="cls-8" d="M36.09,45.74a2.08,2.08,0,0,1-.66.84,2.22,2.22,0,0,1-1.25.35c-2.13.06-5.58-1.71-8.12-3.2-.47-.29-.92-.55-1.3-.81-1.13-.69-1.87-1.2-1.87-1.2a50.15,50.15,0,0,1-6.87,4,16,16,0,0,1-2.84,1,4.67,4.67,0,0,1-2,.1l-.05,0a1.82,1.82,0,0,1-.6-.26c-2.8-1.94-.4-13.64-.28-14.19v0s-5.85-4.56-8.69-8.53c.59.69,5.45,6.22,10.11,8.35,0,0-2.93,9.27-.89,12.73S22.6,41.2,22.6,41.2,29.24,46,33.07,45.86c3.63-.14,3.45-6,3.42-6.55C36.75,41.81,36.77,44.36,36.09,45.74Z"/><path class="cls-9" d="M1.4,20.57C1,22.41,8.65,31,16,34.22s27.82-8.77,29.14-13-14.56-4.56-14.56-4.56S26.45.67,22.32,1.36s-7.5,15.29-7.5,15.29S2.44,15.82,1.4,20.57Z"/><path class="cls-10" d="M23.28,34.77c-3.75,2.79,4,11.48,9,11.06S36.11,32.25,35,31.62,23.28,34.77,23.28,34.77Z"/><path class="cls-11" d="M17.38,26.54c-2.12-.26-5.32-1.72-5.58-3.43h0a.88.88,0,0,1,0-.28,8.11,8.11,0,0,1,4.36-6.36c1.88-.94,3.31,2.21,3.53,5.74v0l0,.6C19.76,26.59,19.6,26.82,17.38,26.54Z"/><path class="cls-11" d="M21.41,14.53h0a1.8,1.8,0,0,1-.34,1.16c-.4.41-1.09-.2-1.52-.68h0l0,0a5.13,5.13,0,0,1-.33-.4c-.47-1,1.31-1.49,1.75-1.55C21.19,13,21.42,13.76,21.41,14.53Z"/><path class="cls-11" d="M19.66,22.2c-.24-1-1.56-5.68-3.93-5.16-2.55.57-3.56,6.46-3.93,6.07h0a.88.88,0,0,1,0-.28,8.11,8.11,0,0,1,4.36-6.36C18,15.52,19.44,18.67,19.66,22.2Z"/><path class="cls-11" d="M21.41,14.53A7.14,7.14,0,0,0,21,13.41c-.13-.16-.77-.21-1.44.38a.81.81,0,0,0,0,1.17,5.13,5.13,0,0,1-.33-.4c-.47-1,1.31-1.49,1.75-1.55C21.19,13,21.42,13.76,21.41,14.53Z"/><path class="cls-12" d="M36.11,15.82c-2.41,0,1,2.58,3,2.91s3-1.49,2.67-1.62A24.86,24.86,0,0,0,36.11,15.82Z"/><path class="cls-4" d="M35.84,17a6.07,6.07,0,0,0,4.23.74c1.69-.64-2.22-1.75-3.41-1.89S35,16.37,35.84,17Z"/><path class="cls-7" d="M36.5,17.54a8.37,8.37,0,0,0,3.49,1c1.32-.15,1.5-.63,1.5-.63S41.27,19,39.36,19A5.09,5.09,0,0,1,36.5,17.54Z"/><path class="cls-13" d="M37.19,40.26c-.4.18-.09,3.77,0,4.08s3.32-.5,4.3-.18.46-3.28.34-3.9S37.77,40,37.19,40.26Z"/><path class="cls-4" d="M12.24,46.93A24.67,24.67,0,0,0,17.76,45c1.58-1,3.83-1.16,4.53-.63s-1.37,1.71-3.76,2.27A26.86,26.86,0,0,1,12.24,46.93Z"/></g></g></g></svg>