<svg xmlns="http://www.w3.org/2000/svg" xmlns:xlink="http://www.w3.org/1999/xlink" viewBox="0 0 46.9 48.28"><defs><style>.cls-1{isolation:isolate;}.cls-2{fill:url(#Безымянный_градиент_177);}.cls-3{fill:url(#Безымянный_градиент_177-2);}.cls-4{fill:url(#Безымянный_градиент_178);}.cls-5{fill:#f42774;opacity:0.2;}.cls-12,.cls-15,.cls-20,.cls-5{mix-blend-mode:multiply;}.cls-11,.cls-14,.cls-6{fill:#fff;}.cls-14,.cls-6{mix-blend-mode:soft-light;}.cls-7{fill:url(#Безымянный_градиент_170);}.cls-8{fill:#ff6b04;}.cls-9{fill:url(#Безымянный_градиент_173);}.cls-10{fill:url(#Безымянный_градиент_140);}.cls-12{fill:#de376d;opacity:0.7;}.cls-13{fill:#ffe016;}.cls-14,.cls-15{opacity:0.5;}.cls-15,.cls-20{fill:#d42f55;}.cls-16{fill:url(#Безымянный_градиент_533);}.cls-17{fill:#ff9500;}.cls-18{fill:url(#Безымянный_градиент_533-2);}.cls-19{fill:url(#Безымянный_градиент_533-3);}.cls-20{opacity:0.8;}</style><linearGradient id="Безымянный_градиент_177" x1="27.19" y1="47.81" x2="27.19" y2="0.61" gradientUnits="userSpaceOnUse"><stop offset="0.05" stop-color="#ff3f00"/><stop offset="0.72" stop-color="#ff6a03"/><stop offset="1" stop-color="#ffff04"/></linearGradient><linearGradient id="Безымянный_градиент_177-2" x1="24.2" y1="48.28" x2="24.2" y2="0" xlink:href="#Безымянный_градиент_177"/><linearGradient id="Безымянный_градиент_178" x1="20.53" y1="48.28" x2="20.53" gradientUnits="userSpaceOnUse"><stop offset="0" stop-color="#ffa900"/><stop offset="1" stop-color="#ff9600"/></linearGradient><linearGradient id="Безымянный_градиент_170" x1="20.35" y1="40.87" x2="20.35" y2="9.18" gradientUnits="userSpaceOnUse"><stop offset="0" stop-color="#ff7c04"/><stop offset="1" stop-color="#d92000"/></linearGradient><linearGradient id="Безымянный_градиент_173" x1="26.01" y1="37.26" x2="17.06" y2="12.68" gradientUnits="userSpaceOnUse"><stop offset="0" stop-color="#ea5104"/><stop offset="1" stop-color="#d92000"/></linearGradient><linearGradient id="Безымянный_градиент_140" x1="24.88" y1="37.15" x2="16.09" y2="13" gradientUnits="userSpaceOnUse"><stop offset="0" stop-color="#ff9600"/><stop offset="1" stop-color="#ffa900"/></linearGradient><linearGradient id="Безымянный_градиент_533" x1="39.44" y1="37.46" x2="39.44" y2="31.82" gradientUnits="userSpaceOnUse"><stop offset="0.04" stop-color="#ef6300"/><stop offset="1" stop-color="#e13e00"/></linearGradient><linearGradient id="Безымянный_градиент_533-2" x1="34.62" y1="36.14" x2="34.62" y2="32.59" xlink:href="#Безымянный_градиент_533"/><linearGradient id="Безымянный_градиент_533-3" x1="9.09" y1="19.41" x2="9.09" y2="16.43" gradientTransform="translate(1.46 -3.08) rotate(0.6)" xlink:href="#Безымянный_градиент_533"/></defs><g class="cls-1"><g id="Слой_2" data-name="Слой 2"><g id="layer1"><path class="cls-2" d="M46.85,25.69a27.49,27.49,0,0,1-2.05,8.87,23.08,23.08,0,0,1-1.21,2.5h0a23.23,23.23,0,0,1-3.16,4.44l-.05.05a20.61,20.61,0,0,1-1.63,1.61l-.06,0a19.23,19.23,0,0,1-2.54,1.89l-.08,0a0,0,0,0,0,0,0,17.37,17.37,0,0,1-8.62,2.64H26.3l-.34,0-.31,0-.36,0-.21,0a17.63,17.63,0,0,1-3-.62,19.87,19.87,0,0,1-1.87-.69c-7-3.09-12.3-11-12.72-20.71a28.58,28.58,0,0,1,.24-5.09c1.16-8.34,6-15.39,12.59-18.42A16.93,16.93,0,0,1,25,.78l.17,0,.11,0a16.49,16.49,0,0,1,2-.13h.51A18.22,18.22,0,0,1,41.93,8.34c.07.08.12.16.15.2l.07.09A26.34,26.34,0,0,1,46.85,25.69Z"/><path class="cls-3" d="M28.19,47.75l-.76.06h-.06l-4,.27h-.09l-1.78.12h0l-1.17.08h-.07V46.4l.07-26.35,0-17.87V0l2.73.22h0L27.8.61v1.3l.1,12.79.25,30.41v2.64Z"/><path class="cls-4" d="M40.65,25.69a27.73,27.73,0,0,1-2,9.14h0a0,0,0,0,1,0,0h0c0,.1-.15.39-.36.83a6,6,0,0,1-.28.63,23.49,23.49,0,0,1-3.49,5.33c-.19.22-.38.44-.58.65a19.8,19.8,0,0,1-5.78,4.26,16.69,16.69,0,0,1-3.1,1.15c-.29.07-.58.15-.88.21h0l-.75.14-.09,0a17.87,17.87,0,0,1-2.65.2h-.49a17,17,0,0,1-5.17-1c-.23-.07-.44-.15-.65-.23l-.14,0A19.76,19.76,0,0,1,9,43.85l0,0a22.46,22.46,0,0,1-3.42-3.65h0A27,27,0,0,1,.42,25.69a28,28,0,0,1,1.8-11.86s0-.14.16-.38C4.75,7.58,9.08,3,14.47,1h0a8.47,8.47,0,0,1,1-.32L16,.56c.32-.08.62-.15.93-.21l.55-.1A15.82,15.82,0,0,1,20.34,0a17.74,17.74,0,0,1,2.73.22h0A16.43,16.43,0,0,1,25.3.74a.17.17,0,0,1,.1,0,8.09,8.09,0,0,1,.83.28l.05,0c.52.19,1,.4,1.53.64C35.83,5.52,41.14,15.07,40.65,25.69Z"/><path class="cls-5" d="M33,7c-.15,1-2,4.44-5,7.66a22.12,22.12,0,0,1-7.63,5.35,16.32,16.32,0,0,1-4.12,1.08,20.76,20.76,0,0,1-8.43-.53c-4-1.22-5.85-3.67-5.79-4.77a32.44,32.44,0,0,1,4.27-8A19.23,19.23,0,0,1,14.47,1h0a8.47,8.47,0,0,1,1-.32L15.85.6l.16,0c.32-.08.62-.15.93-.21l.55-.1a15.48,15.48,0,0,1,2.85-.2,16.26,16.26,0,0,1,4.57.7.45.45,0,0,1,.11,0,17.78,17.78,0,0,1,2.8,1.13c.4.2.78.42,1.15.64s.83.55,1.28.88C32.08,4.83,33.07,6.28,33,7Z"/><path class="cls-6" d="M2.75,34.6c.91,1.45,14-4.61,20.17-6.42s15.9.11,16.78-.63.4-11.72-3.1-17.17c-3.6-5.61-3.62.3-7.44,3s-18.87,7.37-22.1,7S2.7,18.58,1.5,18.76-1.7,27.55,2.75,34.6Z"/><path class="cls-7" d="M33.43,25.69c-.22,8.15-5.51,14.58-12,15.13-.31,0-.63,0-.95,0-6.93,0-12.83-6.64-13.2-15.18C6.9,16.75,12.68,9.18,20.22,9.18c.35,0,.69,0,1,.05C28.3,9.89,33.66,17.17,33.43,25.69Z"/><path class="cls-8" d="M33.43,25.69c-.22,8.15-5.51,14.58-12,15.13-6.5-.55-11.87-7-12.18-15.13-.32-8.53,5-15.81,12-16.46C28.3,9.89,33.66,17.17,33.43,25.69Z"/><path class="cls-9" d="M27.58,29.42s1.1,5.18.3,6.86a1.09,1.09,0,0,1-.33.42,14.06,14.06,0,0,1-2.11.18c-1,0-1.16-.86-2.38-1.62l-.63-.4c-.54-.36-.9-.62-.9-.62a24.49,24.49,0,0,1-3.29,2,6.68,6.68,0,0,1-1.35.51,17.1,17.1,0,0,1-2.69.09c-1.36-1,1.05-7.16,1.1-7.45h0s-5.49-4.48-5.21-6.58h0c.31-2.19,7-2.42,7-2.42s.6-7,2.39-8.61c.23-.2,1.38,0,1.61,0,.63,0,1.3.86,1.92,2a38.61,38.61,0,0,1,2.4,6.57s.85,0,2,.17a12.88,12.88,0,0,1,4,1,1.93,1.93,0,0,1,1.19,1.26c.25,1.42-2.14,3.95-3.68,5.41C28.14,29,27.58,29.42,27.58,29.42Z"/><path class="cls-10" d="M29.87,25.47h0c-.06.08-.12.17-.19.25A21.55,21.55,0,0,1,28.2,27.4c-.3.31-.6.6-.87.86C26.6,29,26,29.42,26,29.42s.3,1.42.48,3a8.64,8.64,0,0,1-.15,3.86,1,1,0,0,1-.33.42,1.09,1.09,0,0,1-.6.18c-1,0-2.67-.86-3.89-1.62-.23-.14-.45-.27-.64-.4-.54-.36-.9-.62-.9-.62a24.05,24.05,0,0,1-3.28,2,7.16,7.16,0,0,1-1.36.51,2,2,0,0,1-1,.05s0,0,0,0a1,1,0,0,1-.3-.13c-.87-.62-.78-3.25-.59-5.18,0-.53.11-1,.16-1.38l.11-.71h0A26.91,26.91,0,0,1,9.2,24.71a0,0,0,0,1,0,0,3.77,3.77,0,0,1-.65-1.42v0a1.36,1.36,0,0,1,0-.4,1.24,1.24,0,0,1,.26-.6,6,6,0,0,1,3.35-1.44,23.53,23.53,0,0,1,3.4-.39s.17-.76.46-1.84c.69-2.51,2.07-6.77,3.51-6.77.63,0,1.3.86,1.92,2a22.8,22.8,0,0,1,1.12,2.55c.79,2.07,1.31,4,1.31,4s.85,0,2,.17a12.93,12.93,0,0,1,4,1A2,2,0,0,1,31,22.84,4.08,4.08,0,0,1,29.87,25.47Z"/><path class="cls-11" d="M1.42,31.46C.77,28.65,7,32.21,3,35.52A17.55,17.55,0,0,1,1.42,31.46Z"/><path class="cls-6" d="M27.43.6C25.71.43,36,4.59,38.37,12.05c2.32,7.17,7.31,4.89,7.31,4.89S41.7,1.25,27.43.6Z"/><path class="cls-12" d="M44.8,34.56a11.38,11.38,0,0,1-1.21,2.5h0A30.54,30.54,0,0,1,40,41.87h0c-.42.45-.83.88-1.26,1.29l-.06,0a12.27,12.27,0,0,1-2.54,1.89l-.08,0a0,0,0,0,0,0,0,25.37,25.37,0,0,1-7.86,2.42c-.9.13-1.58.19-1.89.21h-.19a.49.49,0,0,1-.15,0l-.14,0c-.19-.13.82-.31,2.37-1,2.7-1.16,7.11-3.83,9.84-10.44,0,0,5.4-2.81,6.68-2.57C44.92,33.79,45,34.09,44.8,34.56Z"/><path class="cls-13" d="M26.2,1S38.08,3.92,41,18.94c2.67,13.92-7.77,24.43-7.77,24.43a35.39,35.39,0,0,0,6.56-22.94A23.23,23.23,0,0,0,26.2,1Z"/><path class="cls-11" d="M40.71,19.16c-.79-1.27-2.78,5.57-.51,6.85C41.3,26.63,42.24,21.59,40.71,19.16Z"/><path class="cls-14" d="M38.67,34.86c0,.1-.15.39-.36.83a27.32,27.32,0,0,1-3.77,6,19,19,0,0,1-6.36,5.06,15.41,15.41,0,0,1-2.89,1c-.23.05-.45.11-.69.15h0c-.36.07-.73.13-1.12.17l-.18,0-.15,0c-.56,0-1.11.09-1.63.1h0c-.43,0-.84,0-1.24,0a18.23,18.23,0,0,1-5.82-1.12l-.14,0A15.23,15.23,0,0,1,9,43.85l0,0,0,0a30,30,0,0,0,6.11,2.68,18.45,18.45,0,0,0,5.13.74,17.3,17.3,0,0,0,1.87-.13l.5-.08a19,19,0,0,0,5.58-1.9A28.58,28.58,0,0,0,38.67,34.86Z"/><path class="cls-14" d="M29.87,25.47h0c-.06.08-.12.17-.19.25A21.55,21.55,0,0,1,28.2,27.4a22.89,22.89,0,0,0-5.51.78c-2.39.7-5.84,2.05-9.2,3.34,0-.53.11-1,.16-1.38l.11-.71h0A26.91,26.91,0,0,1,9.2,24.71a0,0,0,0,1,0,0,3.77,3.77,0,0,1-.65-1.42v0a1.36,1.36,0,0,1,0-.4,1.24,1.24,0,0,1,.26-.6,6,6,0,0,1,3.35-1.44,23.53,23.53,0,0,1,3.4-.39s.17-.76.46-1.84c2.2-.65,4.48-1.41,6.55-2.19.79,2.07,1.31,4,1.31,4s.85,0,2,.17a12.93,12.93,0,0,1,4,1A2,2,0,0,1,31,22.84,4.08,4.08,0,0,1,29.87,25.47Z"/><path class="cls-13" d="M11.77,36.88s9.51,7.37,17,.41C28.73,37.29,20.58,45.91,11.77,36.88Z"/><path class="cls-15" d="M7.65,20.57c.52,2.72,2.56-6.09,10.91-8.86S33,21.09,33,21.09s-1.38-12-13.1-12C10.73,9.12,7.65,20.57,7.65,20.57Z"/><path class="cls-12" d="M27.58,29.42H26a35.86,35.86,0,0,0,4.34-4.69c1.53-2.17,2-.82,2-.82A16.63,16.63,0,0,1,27.58,29.42Z"/><path class="cls-11" d="M25,20.49s-1.12.79,0,2.12,4.2.18,4.56-.69S26.57,20.46,25,20.49Z"/><path class="cls-6" d="M29.72,46.08c-.77.46,3.51.54,5.29-.41s4.36-2.85,4.75-4-2.06-1-3.54-.59S33.33,43.9,29.72,46.08Z"/><path class="cls-16" d="M40.21,31.87c-1.44-.47-3.43,2.54-2.41,5S43.48,32.94,40.21,31.87Z"/><path class="cls-12" d="M38,34c-.14,1.82,2,1.92,2.84,1s.81-3.1-.79-3.15S38,34,38,34Z"/><path class="cls-17" d="M37.53,35.57c.46-1.1,1.72.25,2.5.31s-.56,1.84-1.45,1.58S37.53,35.57,37.53,35.57Z"/><path class="cls-18" d="M35.44,32.65c-1.45-.46-2.89,1.71-2.28,3.17S38,33.45,35.44,32.65Z"/><path class="cls-12" d="M34.8,32.59a1.7,1.7,0,0,0-.94,2.24c.39.44,2.29-.1,2.37-1.12A1.13,1.13,0,0,0,34.8,32.59Z"/><path class="cls-17" d="M33,35.3c.26-1.33.8,0,1.58.15S33.05,37.08,33,35.3Z"/><path class="cls-19" d="M10.94,13.51c-1.17-.4-2.23,1.41-1.68,2.63S13,14.2,10.94,13.51Z"/><path class="cls-12" d="M10.43,13.45a1.38,1.38,0,0,0-.65,1.87c.33.38,1.82-.06,1.83-.92A1,1,0,0,0,10.43,13.45Z"/><path class="cls-17" d="M9.12,15.71c.15-1.12.64,0,1.26.14S9.23,17.2,9.12,15.71Z"/><path class="cls-20" d="M42.08,8.54l-.15-.2Z"/><path class="cls-20" d="M41.93,8.34a17.88,17.88,0,0,0-3.52-3.25l0,0A23.67,23.67,0,0,0,27.8,1a.64.64,0,0,0-.2,0c-.71-.1-1.44-.16-2.2-.2h-.49A33.5,33.5,0,0,0,21.2.84l-.86.1A22.57,22.57,0,0,0,6.22,7.83a20.59,20.59,0,0,0-3.84,5.62C4.75,7.58,9.08,3,14.47,1h0a8.47,8.47,0,0,1,1-.32L15.85.6l.16,0c.32-.08.62-.15.93-.21l.55-.1A15.82,15.82,0,0,1,20.34,0a17.74,17.74,0,0,1,2.73.22h0L27.8.61h0A18.19,18.19,0,0,1,41.93,8.34Z"/><path class="cls-20" d="M40.37,41.56a20.61,20.61,0,0,1-1.63,1.61l-.06,0a12.27,12.27,0,0,1-2.54,1.89l-.08,0a0,0,0,0,0,0,0,17.37,17.37,0,0,1-8.62,2.64h-.06l-4,.27a17.87,17.87,0,0,1-2.65.2h-.49a17,17,0,0,1-5.17-1c-.23-.07-.44-.15-.65-.23l-.14,0A15.23,15.23,0,0,1,9,43.85l0,0a22.46,22.46,0,0,1-3.42-3.65,29.58,29.58,0,0,0,9.51,6.3,20.9,20.9,0,0,0,5.13,1.35,18.13,18.13,0,0,0,4,.09h0l.37,0h0q.54,0,1-.12l.17,0q1.23-.16,2.37-.42A27.85,27.85,0,0,0,40,41.88h0Z"/><path class="cls-11" d="M31.27,1.71C28.78,1.6,34,5.7,36,7.46s5.39.52,5.49.35S36.3,1.94,31.27,1.71Z"/></g></g></g></svg>