<svg xmlns="http://www.w3.org/2000/svg" xmlns:xlink="http://www.w3.org/1999/xlink" viewBox="0 0 48.18 44.25"><defs><style>.cls-1{isolation:isolate;}.cls-2{fill:url(#Безымянный_градиент_557);}.cls-3{fill:url(#Безымянный_градиент_557-2);}.cls-4{fill:url(#Безымянный_градиент_557-3);}.cls-5{fill:url(#Безымянный_градиент_557-4);}.cls-6{fill:url(#Безымянный_градиент_557-5);}.cls-7{fill:url(#Безымянный_градиент_557-6);}.cls-8{fill:url(#Безымянный_градиент_557-7);}.cls-9{fill:url(#Безымянный_градиент_557-8);}.cls-10{fill:url(#Безымянный_градиент_557-9);}.cls-11{fill:url(#Безымянный_градиент_557-10);}.cls-12{fill:url(#Безымянный_градиент_557-11);}.cls-13{fill:url(#Безымянный_градиент_557-12);}.cls-14{fill:url(#Безымянный_градиент_557-13);}.cls-15{fill:url(#Безымянный_градиент_557-14);}.cls-16{fill:url(#Безымянный_градиент_557-15);}.cls-17{fill:url(#Безымянный_градиент_557-16);}.cls-18{fill:url(#Безымянный_градиент_557-17);}.cls-19{fill:url(#Безымянный_градиент_557-18);}.cls-20{fill:url(#Безымянный_градиент_557-19);}.cls-21{fill:url(#Безымянный_градиент_557-20);}.cls-22{fill:url(#Безымянный_градиент_557-21);}.cls-23{fill:url(#Безымянный_градиент_557-22);}.cls-24{fill:url(#Безымянный_градиент_557-23);}.cls-25{fill:url(#Безымянный_градиент_557-24);}.cls-26{fill:url(#Безымянный_градиент_557-25);}.cls-27{fill:url(#Безымянный_градиент_557-26);}.cls-28{fill:url(#Безымянный_градиент_557-27);}.cls-29{fill:url(#Безымянный_градиент_557-28);}.cls-30{fill:url(#Безымянный_градиент_557-29);}.cls-31{fill:url(#Безымянный_градиент_557-30);}.cls-32{fill:url(#Безымянный_градиент_557-31);}.cls-33{fill:url(#Безымянный_градиент_557-32);}.cls-34{fill:url(#Безымянный_градиент_557-33);}.cls-35{fill:url(#Безымянный_градиент_557-34);}.cls-36{fill:url(#Безымянный_градиент_557-35);}.cls-37{fill:url(#Безымянный_градиент_557-36);}.cls-38{fill:url(#Безымянный_градиент_557-37);}.cls-39{fill:url(#Безымянный_градиент_557-38);}.cls-40{fill:url(#Безымянный_градиент_557-39);}.cls-41{fill:url(#Безымянный_градиент_557-40);}.cls-42{fill:url(#Безымянный_градиент_557-41);}.cls-43{fill:url(#Безымянный_градиент_557-42);}.cls-44{fill:url(#Безымянный_градиент_557-43);}.cls-45{fill:url(#Безымянный_градиент_557-44);}.cls-46{fill:url(#Безымянный_градиент_557-45);}.cls-47{fill:url(#Безымянный_градиент_557-46);}.cls-48{fill:url(#Безымянный_градиент_557-47);}.cls-49{fill:url(#Безымянный_градиент_557-48);}.cls-50{fill:url(#Безымянный_градиент_557-49);}.cls-51{fill:url(#Безымянный_градиент_557-50);}.cls-52{fill:url(#Безымянный_градиент_557-51);}.cls-53{fill:url(#Безымянный_градиент_557-52);}.cls-54{fill:url(#Безымянный_градиент_557-53);}.cls-55{fill:url(#Безымянный_градиент_557-54);}.cls-56{fill:url(#Безымянный_градиент_557-55);}.cls-57{fill:url(#Безымянный_градиент_557-56);}.cls-58{fill:url(#Безымянный_градиент_557-57);}.cls-59{fill:url(#Безымянный_градиент_557-58);}.cls-60{fill:url(#Безымянный_градиент_557-59);}.cls-61{fill:url(#Безымянный_градиент_557-60);}.cls-62{fill:url(#Безымянный_градиент_557-61);}.cls-63{fill:url(#Безымянный_градиент_140);}.cls-64,.cls-68{fill:#ca2790;mix-blend-mode:multiply;}.cls-64,.cls-71{opacity:0.5;}.cls-65{fill:url(#Безымянный_градиент_473);}.cls-66{fill:#ff9000;}.cls-67{fill:#ffc400;}.cls-68,.cls-72{opacity:0.3;}.cls-69{fill:url(#Безымянный_градиент_560);}.cls-70{fill:url(#Безымянный_градиент_45);}.cls-71,.cls-72,.cls-74,.cls-75{fill:#fff;}.cls-71,.cls-72,.cls-75{mix-blend-mode:soft-light;}.cls-73{fill:#ffd300;}</style><linearGradient id="Безымянный_градиент_557" x1="17.77" y1="1.72" x2="23.74" y2="44.19" gradientUnits="userSpaceOnUse"><stop offset="0" stop-color="#fa9300"/><stop offset="0.45" stop-color="#f66a00"/><stop offset="1" stop-color="#f63f00"/></linearGradient><linearGradient id="Безымянный_градиент_557-2" x1="17.87" y1="1.69" x2="23.84" y2="44.19" xlink:href="#Безымянный_градиент_557"/><linearGradient id="Безымянный_градиент_557-3" x1="17.96" y1="1.66" x2="23.94" y2="44.19" xlink:href="#Безымянный_градиент_557"/><linearGradient id="Безымянный_градиент_557-4" x1="18.06" y1="1.64" x2="24.04" y2="44.19" xlink:href="#Безымянный_градиент_557"/><linearGradient id="Безымянный_градиент_557-5" x1="18.16" y1="1.61" x2="24.14" y2="44.19" xlink:href="#Безымянный_градиент_557"/><linearGradient id="Безымянный_градиент_557-6" x1="18.25" y1="1.58" x2="24.24" y2="44.19" xlink:href="#Безымянный_градиент_557"/><linearGradient id="Безымянный_градиент_557-7" x1="18.35" y1="1.55" x2="24.34" y2="44.19" xlink:href="#Безымянный_градиент_557"/><linearGradient id="Безымянный_градиент_557-8" x1="18.44" y1="1.53" x2="24.44" y2="44.19" xlink:href="#Безымянный_градиент_557"/><linearGradient id="Безымянный_градиент_557-9" x1="18.54" y1="1.5" x2="24.54" y2="44.19" xlink:href="#Безымянный_градиент_557"/><linearGradient id="Безымянный_градиент_557-10" x1="18.63" y1="1.47" x2="24.64" y2="44.19" xlink:href="#Безымянный_градиент_557"/><linearGradient id="Безымянный_градиент_557-11" x1="18.73" y1="1.44" x2="24.73" y2="44.19" xlink:href="#Безымянный_градиент_557"/><linearGradient id="Безымянный_градиент_557-12" x1="18.82" y1="1.42" x2="24.83" y2="44.19" xlink:href="#Безымянный_градиент_557"/><linearGradient id="Безымянный_градиент_557-13" x1="18.92" y1="1.39" x2="24.93" y2="44.19" xlink:href="#Безымянный_градиент_557"/><linearGradient id="Безымянный_градиент_557-14" x1="19.01" y1="1.36" x2="25.03" y2="44.19" xlink:href="#Безымянный_градиент_557"/><linearGradient id="Безымянный_градиент_557-15" x1="19.11" y1="1.33" x2="25.13" y2="44.19" xlink:href="#Безымянный_градиент_557"/><linearGradient id="Безымянный_градиент_557-16" x1="19.2" y1="1.31" x2="25.23" y2="44.19" xlink:href="#Безымянный_градиент_557"/><linearGradient id="Безымянный_градиент_557-17" x1="19.3" y1="1.28" x2="25.33" y2="44.19" xlink:href="#Безымянный_градиент_557"/><linearGradient id="Безымянный_градиент_557-18" x1="19.39" y1="1.25" x2="25.43" y2="44.19" xlink:href="#Безымянный_градиент_557"/><linearGradient id="Безымянный_градиент_557-19" x1="19.49" y1="1.22" x2="25.53" y2="44.19" xlink:href="#Безымянный_градиент_557"/><linearGradient id="Безымянный_градиент_557-20" x1="19.59" y1="1.2" x2="25.63" y2="44.19" xlink:href="#Безымянный_градиент_557"/><linearGradient id="Безымянный_градиент_557-21" x1="19.68" y1="1.17" x2="25.73" y2="44.19" xlink:href="#Безымянный_градиент_557"/><linearGradient id="Безымянный_градиент_557-22" x1="19.78" y1="1.14" x2="25.83" y2="44.19" xlink:href="#Безымянный_градиент_557"/><linearGradient id="Безымянный_градиент_557-23" x1="19.87" y1="1.12" x2="25.93" y2="44.19" xlink:href="#Безымянный_градиент_557"/><linearGradient id="Безымянный_градиент_557-24" x1="19.97" y1="1.09" x2="26.02" y2="44.19" xlink:href="#Безымянный_градиент_557"/><linearGradient id="Безымянный_градиент_557-25" x1="20.06" y1="1.06" x2="26.12" y2="44.19" xlink:href="#Безымянный_градиент_557"/><linearGradient id="Безымянный_градиент_557-26" x1="20.16" y1="1.03" x2="26.22" y2="44.19" xlink:href="#Безымянный_градиент_557"/><linearGradient id="Безымянный_градиент_557-27" x1="20.25" y1="1.01" x2="26.32" y2="44.19" xlink:href="#Безымянный_градиент_557"/><linearGradient id="Безымянный_градиент_557-28" x1="20.35" y1="0.98" x2="26.42" y2="44.19" xlink:href="#Безымянный_градиент_557"/><linearGradient id="Безымянный_градиент_557-29" x1="20.44" y1="0.95" x2="26.52" y2="44.19" xlink:href="#Безымянный_градиент_557"/><linearGradient id="Безымянный_градиент_557-30" x1="20.54" y1="0.92" x2="26.62" y2="44.19" xlink:href="#Безымянный_градиент_557"/><linearGradient id="Безымянный_градиент_557-31" x1="20.63" y1="0.9" x2="26.72" y2="44.19" xlink:href="#Безымянный_градиент_557"/><linearGradient id="Безымянный_градиент_557-32" x1="20.73" y1="0.87" x2="26.82" y2="44.19" xlink:href="#Безымянный_градиент_557"/><linearGradient id="Безымянный_градиент_557-33" x1="20.82" y1="0.84" x2="26.92" y2="44.19" xlink:href="#Безымянный_градиент_557"/><linearGradient id="Безымянный_градиент_557-34" x1="20.92" y1="0.81" x2="27.02" y2="44.19" xlink:href="#Безымянный_градиент_557"/><linearGradient id="Безымянный_градиент_557-35" x1="21.02" y1="0.79" x2="27.12" y2="44.19" xlink:href="#Безымянный_градиент_557"/><linearGradient id="Безымянный_градиент_557-36" x1="21.11" y1="0.76" x2="27.21" y2="44.19" xlink:href="#Безымянный_градиент_557"/><linearGradient id="Безымянный_градиент_557-37" x1="21.21" y1="0.73" x2="27.31" y2="44.19" xlink:href="#Безымянный_градиент_557"/><linearGradient id="Безымянный_градиент_557-38" x1="21.3" y1="0.7" x2="27.41" y2="44.19" xlink:href="#Безымянный_градиент_557"/><linearGradient id="Безымянный_градиент_557-39" x1="21.4" y1="0.68" x2="27.51" y2="44.19" xlink:href="#Безымянный_градиент_557"/><linearGradient id="Безымянный_градиент_557-40" x1="21.49" y1="0.65" x2="27.61" y2="44.19" xlink:href="#Безымянный_градиент_557"/><linearGradient id="Безымянный_градиент_557-41" x1="21.59" y1="0.62" x2="27.71" y2="44.19" xlink:href="#Безымянный_градиент_557"/><linearGradient id="Безымянный_градиент_557-42" x1="21.68" y1="0.59" x2="27.81" y2="44.19" xlink:href="#Безымянный_градиент_557"/><linearGradient id="Безымянный_градиент_557-43" x1="21.78" y1="0.57" x2="27.91" y2="44.19" xlink:href="#Безымянный_градиент_557"/><linearGradient id="Безымянный_градиент_557-44" x1="21.87" y1="0.54" x2="28.01" y2="44.19" xlink:href="#Безымянный_градиент_557"/><linearGradient id="Безымянный_градиент_557-45" x1="21.97" y1="0.51" x2="28.11" y2="44.19" xlink:href="#Безымянный_градиент_557"/><linearGradient id="Безымянный_градиент_557-46" x1="22.06" y1="0.48" x2="28.21" y2="44.19" xlink:href="#Безымянный_градиент_557"/><linearGradient id="Безымянный_градиент_557-47" x1="22.16" y1="0.46" x2="28.31" y2="44.19" xlink:href="#Безымянный_градиент_557"/><linearGradient id="Безымянный_градиент_557-48" x1="22.25" y1="0.43" x2="28.4" y2="44.19" xlink:href="#Безымянный_градиент_557"/><linearGradient id="Безымянный_градиент_557-49" x1="22.35" y1="0.4" x2="28.5" y2="44.19" xlink:href="#Безымянный_градиент_557"/><linearGradient id="Безымянный_градиент_557-50" x1="22.45" y1="0.37" x2="28.6" y2="44.19" xlink:href="#Безымянный_градиент_557"/><linearGradient id="Безымянный_градиент_557-51" x1="22.54" y1="0.35" x2="28.7" y2="44.19" xlink:href="#Безымянный_градиент_557"/><linearGradient id="Безымянный_градиент_557-52" x1="22.64" y1="0.32" x2="28.8" y2="44.19" xlink:href="#Безымянный_градиент_557"/><linearGradient id="Безымянный_градиент_557-53" x1="22.73" y1="0.29" x2="28.9" y2="44.19" xlink:href="#Безымянный_градиент_557"/><linearGradient id="Безымянный_градиент_557-54" x1="22.83" y1="0.26" x2="29" y2="44.19" xlink:href="#Безымянный_градиент_557"/><linearGradient id="Безымянный_градиент_557-55" x1="22.92" y1="0.24" x2="29.1" y2="44.19" xlink:href="#Безымянный_градиент_557"/><linearGradient id="Безымянный_градиент_557-56" x1="23.02" y1="0.21" x2="29.2" y2="44.19" xlink:href="#Безымянный_градиент_557"/><linearGradient id="Безымянный_градиент_557-57" x1="23.11" y1="0.18" x2="29.3" y2="44.19" xlink:href="#Безымянный_градиент_557"/><linearGradient id="Безымянный_градиент_557-58" x1="23.21" y1="0.15" x2="29.4" y2="44.19" xlink:href="#Безымянный_градиент_557"/><linearGradient id="Безымянный_градиент_557-59" x1="23.3" y1="0.13" x2="29.5" y2="44.19" xlink:href="#Безымянный_градиент_557"/><linearGradient id="Безымянный_градиент_557-60" x1="23.4" y1="0.1" x2="29.59" y2="44.19" xlink:href="#Безымянный_градиент_557"/><linearGradient id="Безымянный_градиент_557-61" x1="23.49" y1="0.07" x2="29.69" y2="44.19" xlink:href="#Безымянный_градиент_557"/><linearGradient id="Безымянный_градиент_140" x1="26.59" y1="44.25" x2="26.59" y2="0.02" gradientUnits="userSpaceOnUse"><stop offset="0" stop-color="#ff9600"/><stop offset="1" stop-color="#ffa900"/></linearGradient><linearGradient id="Безымянный_градиент_473" x1="0.26" y1="27.41" x2="10.2" y2="27.41" gradientUnits="userSpaceOnUse"><stop offset="0" stop-color="#ffa900"/><stop offset="1" stop-color="#ffc600"/></linearGradient><linearGradient id="Безымянный_градиент_560" x1="26.2" y1="32.38" x2="26.2" y2="11.89" gradientUnits="userSpaceOnUse"><stop offset="0" stop-color="#f63f00"/><stop offset="0.55" stop-color="#f66a00"/><stop offset="1" stop-color="#fa9300"/></linearGradient><linearGradient id="Безымянный_градиент_45" x1="27.49" y1="32.38" x2="27.49" y2="11.89" gradientUnits="userSpaceOnUse"><stop offset="0" stop-color="#ffb100"/><stop offset="1" stop-color="#ffc500"/></linearGradient></defs><g class="cls-1"><g id="Слой_2" data-name="Слой 2"><g id="layer1"><path class="cls-2" d="M21,27.76a4.88,4.88,0,1,1,4.88-4.88A4.87,4.87,0,0,1,21,27.76Zm20.24-.52c-.88-.68-3.38-.65-4.33-1a16.38,16.38,0,0,0,.35-3.39,16.56,16.56,0,0,0-.48-3.95c1-.35,3.41-.44,4.25-1.15,1.12-.94-1.87-5.48-1.87-5.48s-2.45-4.85-3.83-4.36c-1,.38-2.36,2.52-3.14,3.15a16.33,16.33,0,0,0-6.9-3.9c.1-.93,1.36-3.24,1.15-4.37-.25-1.44-5.68-1.13-5.68-1.13s-5.43-.31-5.69,1.13C14.86,4,16.27,6.5,16.24,7.33a16.27,16.27,0,0,0-7.1,4.42C8.46,11.68,6.77,9,5.55,8.59c-1.4-.44-3.64,4.52-3.64,4.52S-.87,17.78.28,18.67s5.11.57,4.67,1.4L5,20a16,16,0,0,0,.2,6.78l-.11-.21c.47.81-3.49.65-4.6,1.59s1.87,5.49,1.87,5.49S4.81,38.46,6.18,38s3.21-4,3.68-3.2l0-.08a16.26,16.26,0,0,0,6.4,3.75c.27.62-1.36,3.39-1.14,4.66.26,1.44,5.69,1.13,5.69,1.13s5.43.31,5.68-1.13c.22-1.19-1.2-3.69-1.16-4.52a16.26,16.26,0,0,0,7.34-4.31c.78.51,2.25,2.71,3.35,3.06,1.39.44,3.63-4.52,3.63-4.52S42.39,28.13,41.24,27.24Z"/><path class="cls-3" d="M21.1,27.75A4.88,4.88,0,1,1,26,22.87,4.88,4.88,0,0,1,21.1,27.75Zm20.25-.52c-.88-.68-3.38-.66-4.33-1a16.45,16.45,0,0,0,.35-3.39,16.64,16.64,0,0,0-.48-4c1-.34,3.41-.43,4.25-1.14,1.12-.95-1.87-5.49-1.87-5.49s-2.46-4.86-3.83-4.36c-1,.38-2.37,2.52-3.14,3.15a16.2,16.2,0,0,0-6.91-3.9c.1-.94,1.36-3.25,1.16-4.38-.26-1.43-5.69-1.13-5.69-1.13s-5.44-.3-5.69,1.13C15,4,16.36,6.47,16.33,7.3a16.29,16.29,0,0,0-7.1,4.43C8.55,11.66,6.86,9,5.63,8.57,4.24,8.13,2,13.09,2,13.09S-.79,17.76.36,18.65s5.12.57,4.68,1.4l0-.11a15.73,15.73,0,0,0-.27,2.93,16.38,16.38,0,0,0,.46,3.86l-.1-.22c.47.82-3.49.66-4.61,1.6S2.44,33.6,2.44,33.6,4.9,38.46,6.27,38s3.21-4,3.68-3.2l0-.08a16.33,16.33,0,0,0,6.4,3.75c.27.62-1.36,3.39-1.13,4.66.25,1.44,5.69,1.13,5.69,1.13s5.43.31,5.69-1.13c.21-1.19-1.21-3.69-1.17-4.52a16.19,16.19,0,0,0,7.34-4.32c.79.51,2.26,2.72,3.36,3.06,1.39.44,3.63-4.52,3.63-4.52S42.5,28.12,41.35,27.23Z"/><path class="cls-4" d="M21.19,27.74a4.89,4.89,0,1,1,4.89-4.88A4.89,4.89,0,0,1,21.19,27.74Zm20.27-.52c-.88-.68-3.38-.66-4.34-1a15.86,15.86,0,0,0,.36-3.39,16.09,16.09,0,0,0-.49-4c1-.35,3.42-.44,4.26-1.15,1.12-.94-1.87-5.49-1.87-5.49S36.92,7.4,35.55,7.9c-1,.38-2.37,2.52-3.15,3.15a16.09,16.09,0,0,0-6.91-3.9c.1-.94,1.36-3.25,1.16-4.38C26.39,1.33,21,1.64,21,1.64s-5.43-.31-5.69,1.13c-.21,1.19,1.2,3.68,1.16,4.51a16.35,16.35,0,0,0-7.1,4.43C8.64,11.64,7,8.93,5.72,8.55c-1.39-.44-3.64,4.52-3.64,4.52S-.71,17.74.45,18.64s5.11.56,4.68,1.4l0-.11a16.63,16.63,0,0,0-.26,2.93,16.23,16.23,0,0,0,.46,3.85l-.1-.21c.47.82-3.5.66-4.62,1.6s1.88,5.5,1.88,5.5S5,38.46,6.36,38s3.21-4,3.68-3.21l0-.08a16.28,16.28,0,0,0,6.4,3.75c.27.63-1.36,3.39-1.13,4.67.26,1.44,5.69,1.13,5.69,1.13s5.44.31,5.7-1.13c.21-1.19-1.21-3.7-1.17-4.52a16.31,16.31,0,0,0,7.35-4.32c.78.5,2.25,2.71,3.36,3.06,1.39.44,3.63-4.52,3.63-4.52S42.61,28.11,41.46,27.22Z"/><path class="cls-5" d="M21.29,27.73a4.89,4.89,0,1,1,4.89-4.89A4.89,4.89,0,0,1,21.29,27.73Zm20.28-.52c-.88-.68-3.38-.66-4.34-1a16.55,16.55,0,0,0,.36-3.4,16.15,16.15,0,0,0-.49-4c1-.35,3.42-.44,4.26-1.15,1.12-.94-1.87-5.49-1.87-5.49S37,7.37,35.65,7.87c-1,.39-2.37,2.52-3.14,3.15a16.4,16.4,0,0,0-6.92-3.9c.1-.94,1.36-3.25,1.16-4.38-.26-1.44-5.7-1.13-5.7-1.13s-5.44-.31-5.7,1.13c-.21,1.19,1.2,3.68,1.17,4.52a16.32,16.32,0,0,0-7.11,4.43C8.73,11.62,7,8.91,5.81,8.52c-1.4-.44-3.64,4.53-3.64,4.53S-.62,17.73.53,18.62s5.12.57,4.68,1.4l0-.11A16.63,16.63,0,0,0,5,22.84a16.32,16.32,0,0,0,.47,3.86l-.1-.21c.47.81-3.5.66-4.62,1.6s1.87,5.5,1.87,5.5S5.07,38.45,6.45,38s3.21-4,3.69-3.2l-.06-.09a16.27,16.27,0,0,0,6.41,3.76c.27.62-1.36,3.39-1.14,4.67.26,1.44,5.7,1.13,5.7,1.13s5.44.31,5.7-1.13c.21-1.2-1.21-3.7-1.17-4.53a16.17,16.17,0,0,0,7.35-4.32c.79.51,2.26,2.72,3.36,3.06,1.4.44,3.64-4.52,3.64-4.52S42.73,28.1,41.57,27.21Z"/><path class="cls-6" d="M21.39,27.72a4.89,4.89,0,1,1,4.89-4.89A4.89,4.89,0,0,1,21.39,27.72Zm20.29-.52c-.88-.69-3.39-.66-4.34-1a16.45,16.45,0,0,0,.36-3.39,16.23,16.23,0,0,0-.49-4c1-.34,3.42-.43,4.26-1.14,1.12-.95-1.87-5.5-1.87-5.5s-2.46-4.87-3.84-4.37c-1,.38-2.37,2.52-3.15,3.15a16.34,16.34,0,0,0-6.92-3.9c.1-.94,1.36-3.25,1.16-4.39-.26-1.44-5.7-1.13-5.7-1.13s-5.45-.31-5.7,1.13c-.21,1.19,1.19,3.69,1.16,4.52A16.34,16.34,0,0,0,9.5,11.67C8.82,11.6,7.13,8.89,5.9,8.5,4.5,8.06,2.25,13,2.25,13S-.54,17.71.62,18.6s5.12.57,4.68,1.4l0-.1a16.63,16.63,0,0,0-.27,2.93,15.88,15.88,0,0,0,.47,3.86l-.11-.21c.47.81-3.5.66-4.62,1.6s1.88,5.5,1.88,5.5S5.16,38.45,6.54,38s3.21-4,3.69-3.21l-.06-.08a16.39,16.39,0,0,0,6.41,3.76c.27.62-1.36,3.39-1.13,4.67.25,1.44,5.7,1.13,5.7,1.13s5.44.31,5.7-1.13c.21-1.2-1.21-3.7-1.17-4.53A16.27,16.27,0,0,0,33,34.23c.78.51,2.26,2.72,3.36,3.07,1.4.44,3.64-4.53,3.64-4.53S42.84,28.09,41.68,27.2Z"/><path class="cls-7" d="M21.49,27.71a4.9,4.9,0,1,1,4.89-4.9A4.9,4.9,0,0,1,21.49,27.71Zm20.3-.53c-.88-.68-3.39-.65-4.34-1a16.47,16.47,0,0,0,.35-3.4,16.71,16.71,0,0,0-.48-4c1-.35,3.42-.44,4.26-1.15,1.12-.95-1.88-5.5-1.88-5.5s-2.46-4.87-3.83-4.37c-1.06.38-2.38,2.52-3.15,3.15a16.35,16.35,0,0,0-6.93-3.91c.1-.94,1.36-3.25,1.16-4.38-.26-1.45-5.71-1.14-5.71-1.14s-5.44-.31-5.7,1.14c-.21,1.19,1.2,3.68,1.17,4.52a16.23,16.23,0,0,0-7.12,4.44C8.91,11.57,7.21,8.86,6,8.48,4.59,8,2.34,13,2.34,13S-.46,17.69.7,18.59s5.12.57,4.69,1.4l.05-.11a15.73,15.73,0,0,0-.27,2.93,16.4,16.4,0,0,0,.46,3.87l-.1-.21c.47.81-3.5.66-4.62,1.6s1.88,5.51,1.88,5.51,2.46,4.86,3.83,4.36,3.22-4,3.7-3.21l-.06-.08a16.3,16.3,0,0,0,6.42,3.76c.27.63-1.37,3.4-1.14,4.68.26,1.44,5.7,1.13,5.7,1.13s5.45.31,5.71-1.13c.21-1.2-1.21-3.71-1.17-4.53a16.31,16.31,0,0,0,7.36-4.33c.79.51,2.26,2.72,3.37,3.07,1.39.44,3.64-4.54,3.64-4.54S43,28.08,41.79,27.18Z"/><path class="cls-8" d="M21.58,27.7a4.9,4.9,0,1,1,4.9-4.9A4.89,4.89,0,0,1,21.58,27.7Zm20.32-.53c-.88-.68-3.39-.65-4.35-1a15.88,15.88,0,0,0,.36-3.4,16.23,16.23,0,0,0-.49-4c1-.35,3.43-.44,4.27-1.15,1.12-.94-1.88-5.5-1.88-5.5S37.35,7.3,36,7.8c-1,.39-2.37,2.53-3.15,3.16a16.29,16.29,0,0,0-6.93-3.91c.1-.94,1.36-3.26,1.16-4.39-.26-1.44-5.71-1.13-5.71-1.13s-5.45-.31-5.71,1.13c-.21,1.19,1.2,3.69,1.17,4.52a16.4,16.4,0,0,0-7.12,4.45C9,11.55,7.3,8.84,6.07,8.45,4.67,8,2.42,13,2.42,13S-.38,17.67.78,18.57s5.13.57,4.7,1.4l0-.1a16.11,16.11,0,0,0,.2,6.8l-.1-.21c.47.81-3.51.66-4.63,1.6s1.88,5.51,1.88,5.51,2.46,4.87,3.84,4.37,3.22-4,3.7-3.21l-.06-.09a16.33,16.33,0,0,0,6.42,3.77c.27.62-1.36,3.4-1.14,4.67.26,1.45,5.71,1.14,5.71,1.14s5.45.31,5.71-1.14c.21-1.19-1.21-3.7-1.17-4.53a16.3,16.3,0,0,0,7.37-4.33c.79.51,2.26,2.72,3.36,3.07,1.4.44,3.65-4.53,3.65-4.53S43.06,28.07,41.9,27.17Z"/><path class="cls-9" d="M21.68,27.69a4.9,4.9,0,1,1,4.9-4.9A4.9,4.9,0,0,1,21.68,27.69ZM42,27.16c-.88-.68-3.39-.65-4.35-1a16,16,0,0,0,.36-3.4,16.37,16.37,0,0,0-.49-4c1-.34,3.43-.43,4.27-1.15,1.12-.94-1.88-5.51-1.88-5.51s-2.46-4.87-3.84-4.37c-1,.38-2.38,2.53-3.16,3.16A16.23,16.23,0,0,0,26,7c.1-1,1.36-3.26,1.16-4.4-.26-1.44-5.71-1.13-5.71-1.13S16,1.19,15.73,2.63c-.21,1.2,1.2,3.7,1.17,4.53a16.28,16.28,0,0,0-7.13,4.45c-.69-.08-2.38-2.79-3.61-3.18C4.76,8,2.51,13,2.51,13S-.29,17.66.87,18.55,6,19.12,5.56,20l.05-.11a16.65,16.65,0,0,0-.27,2.94,16.47,16.47,0,0,0,.47,3.87l-.11-.21c.48.81-3.5.66-4.63,1.6S3,33.56,3,33.56s2.46,4.88,3.84,4.38,3.22-4,3.7-3.22l-.06-.08a16.27,16.27,0,0,0,6.43,3.76c.27.63-1.37,3.41-1.14,4.68.26,1.45,5.71,1.14,5.71,1.14s5.45.31,5.71-1.14c.21-1.19-1.21-3.7-1.17-4.53a16.3,16.3,0,0,0,7.37-4.33c.79.5,2.27,2.72,3.37,3.07,1.4.44,3.65-4.54,3.65-4.54S43.17,28.06,42,27.16Z"/><path class="cls-10" d="M21.78,27.68a4.91,4.91,0,1,1,4.9-4.91A4.91,4.91,0,0,1,21.78,27.68Zm20.34-.53c-.88-.68-3.39-.66-4.35-1a16.64,16.64,0,0,0,.36-3.41,16.23,16.23,0,0,0-.49-4c1-.35,3.43-.44,4.27-1.15C43,16.7,40,12.13,40,12.13s-2.46-4.87-3.84-4.37c-1.06.38-2.38,2.53-3.16,3.16A16.34,16.34,0,0,0,26.09,7c.1-.94,1.36-3.26,1.16-4.39C27,1.16,21.54,1.47,21.54,1.47s-5.46-.31-5.72,1.14C15.61,3.8,17,6.3,17,7.14a16.34,16.34,0,0,0-7.13,4.45c-.69-.08-2.38-2.79-3.61-3.18C4.85,8,2.59,13,2.59,13S-.21,17.64,1,18.54s5.14.57,4.7,1.4l0-.11a15.92,15.92,0,0,0-.27,2.94,16.55,16.55,0,0,0,.46,3.88l-.1-.22c.47.82-3.51.66-4.63,1.61S3,33.56,3,33.56s2.47,4.87,3.85,4.37,3.22-4,3.7-3.22l-.06-.08A16.29,16.29,0,0,0,17,38.4c.27.63-1.37,3.41-1.14,4.68.26,1.45,5.72,1.14,5.72,1.14s5.45.31,5.71-1.14c.22-1.19-1.21-3.71-1.17-4.53a16.39,16.39,0,0,0,7.38-4.34c.79.51,2.26,2.72,3.37,3.07,1.4.44,3.65-4.54,3.65-4.54S43.28,28.05,42.12,27.15Z"/><path class="cls-11" d="M21.88,27.67a4.91,4.91,0,1,1,4.9-4.91A4.91,4.91,0,0,1,21.88,27.67Zm20.35-.53c-.88-.68-3.4-.66-4.35-1a16.64,16.64,0,0,0,.36-3.41,16.81,16.81,0,0,0-.49-4c1-.35,3.43-.44,4.27-1.15,1.13-.95-1.88-5.52-1.88-5.52s-2.47-4.88-3.85-4.38c-1,.39-2.38,2.53-3.16,3.17A16.18,16.18,0,0,0,26.19,7c.1-1,1.37-3.26,1.16-4.4-.26-1.45-5.72-1.14-5.72-1.14s-5.46-.31-5.71,1.14c-.22,1.19,1.2,3.7,1.16,4.53A16.36,16.36,0,0,0,10,11.57c-.69-.08-2.38-2.8-3.62-3.19-1.4-.44-3.65,4.55-3.65,4.55S-.13,17.62,1,18.52s5.13.57,4.7,1.41l0-.11A16.66,16.66,0,0,0,6,26.64l-.1-.22c.47.82-3.51.66-4.64,1.61s1.89,5.52,1.89,5.52S5.59,38.43,7,37.93s3.23-4,3.71-3.22l-.06-.08a16.43,16.43,0,0,0,6.43,3.77c.28.62-1.36,3.4-1.13,4.68.25,1.45,5.71,1.14,5.71,1.14s5.46.31,5.72-1.14c.22-1.2-1.21-3.71-1.17-4.54a16.21,16.21,0,0,0,7.38-4.34c.79.51,2.27,2.73,3.37,3.08,1.41.44,3.66-4.55,3.66-4.55S43.39,28,42.23,27.14Z"/><path class="cls-12" d="M22,27.66a4.91,4.91,0,1,1,4.91-4.91A4.91,4.91,0,0,1,22,27.66Zm20.37-.53c-.88-.68-3.4-.66-4.35-1a16.62,16.62,0,0,0,.35-3.4,16.39,16.39,0,0,0-.49-4c1-.34,3.44-.43,4.29-1.15,1.12-.94-1.89-5.52-1.89-5.52S37.78,7.21,36.4,7.71c-1.06.38-2.38,2.53-3.16,3.16a16.48,16.48,0,0,0-7-3.92c.1-.94,1.37-3.26,1.16-4.4-.25-1.44-5.72-1.13-5.72-1.13S16.27,1.11,16,2.55c-.21,1.2,1.2,3.7,1.17,4.54A16.37,16.37,0,0,0,10,11.54c-.69-.07-2.39-2.79-3.62-3.18C5,7.92,2.76,12.91,2.76,12.91S0,17.61,1.12,18.5s5.14.57,4.7,1.41l0-.11a16.86,16.86,0,0,0-.27,2.95,16.47,16.47,0,0,0,.47,3.87L6,26.41c.47.82-3.52.66-4.64,1.61s1.88,5.52,1.88,5.52,2.47,4.89,3.85,4.38,3.23-4,3.71-3.22l-.06-.08a16.4,16.4,0,0,0,6.44,3.77c.27.63-1.37,3.41-1.14,4.69.26,1.45,5.72,1.14,5.72,1.14s5.47.31,5.72-1.14c.22-1.2-1.21-3.71-1.17-4.54a16.48,16.48,0,0,0,7.39-4.34c.79.51,2.27,2.72,3.37,3.07,1.4.44,3.66-4.54,3.66-4.54S43.5,28,42.34,27.13Z"/><path class="cls-13" d="M22.07,27.64A4.91,4.91,0,1,1,27,22.73,4.91,4.91,0,0,1,22.07,27.64Zm20.38-.52c-.88-.69-3.4-.66-4.36-1a16,16,0,0,0,.36-3.41,16.31,16.31,0,0,0-.49-4c1-.35,3.44-.44,4.29-1.15,1.12-1-1.89-5.53-1.89-5.53s-2.47-4.89-3.85-4.38c-1.06.38-2.39,2.53-3.17,3.16a16.32,16.32,0,0,0-7-3.92c.1-.94,1.37-3.27,1.16-4.4-.25-1.45-5.72-1.14-5.72-1.14s-5.47-.31-5.73,1.14c-.21,1.19,1.2,3.7,1.17,4.54a16.37,16.37,0,0,0-7.14,4.45c-.69-.07-2.39-2.79-3.62-3.18-1.4-.44-3.66,4.55-3.66,4.55S0,17.59,1.2,18.49s5.15.57,4.71,1.4l0-.1a16.2,16.2,0,0,0,.2,6.82l-.11-.21c.48.82-3.52.66-4.64,1.61S3.3,33.53,3.3,33.53s2.47,4.89,3.85,4.39,3.23-4,3.71-3.22l-.06-.09a16.3,16.3,0,0,0,6.44,3.78c.27.63-1.37,3.41-1.14,4.69.26,1.45,5.73,1.14,5.73,1.14s5.47.31,5.72-1.14c.22-1.2-1.21-3.72-1.16-4.55a16.26,16.26,0,0,0,7.38-4.34c.79.51,2.27,2.73,3.38,3.08,1.4.44,3.66-4.55,3.66-4.55S43.62,28,42.45,27.12Z"/><path class="cls-14" d="M22.17,27.63a4.92,4.92,0,1,1,4.91-4.91A4.91,4.91,0,0,1,22.17,27.63Zm20.39-.52c-.88-.69-3.4-.66-4.36-1a16.64,16.64,0,0,0,.36-3.41,16.39,16.39,0,0,0-.49-4c1-.35,3.44-.44,4.29-1.15,1.12-.95-1.89-5.53-1.89-5.53S38,7.16,36.61,7.66c-1,.39-2.38,2.54-3.16,3.17a16.35,16.35,0,0,0-7-3.92c.1-1,1.37-3.27,1.17-4.41-.26-1.45-5.73-1.14-5.73-1.14S16.45,1.05,16.2,2.5C16,3.7,17.4,6.2,17.37,7a16.46,16.46,0,0,0-7.15,4.46c-.69-.07-2.39-2.8-3.62-3.18-1.41-.45-3.67,4.55-3.67,4.55s-2.81,4.7-1.64,5.6S6.44,19,6,19.88l0-.11a16,16,0,0,0-.27,2.95,16.49,16.49,0,0,0,.46,3.88l-.1-.21c.47.82-3.52.66-4.64,1.61s1.88,5.53,1.88,5.53,2.48,4.89,3.86,4.39,3.23-4.05,3.71-3.23l-.06-.08a16.58,16.58,0,0,0,6.45,3.78c.27.62-1.37,3.41-1.14,4.69.25,1.45,5.73,1.14,5.73,1.14s5.47.31,5.73-1.14c.21-1.2-1.22-3.72-1.17-4.55a16.46,16.46,0,0,0,7.39-4.35c.79.51,2.27,2.74,3.38,3.08,1.4.45,3.66-4.55,3.66-4.55S43.73,28,42.56,27.11Z"/><path class="cls-15" d="M22.27,27.62a4.92,4.92,0,1,1,4.91-4.92A4.92,4.92,0,0,1,22.27,27.62Zm20.4-.52c-.88-.69-3.4-.66-4.36-1a16.67,16.67,0,0,0,.36-3.42,16.31,16.31,0,0,0-.49-4c1-.35,3.44-.44,4.29-1.16,1.12-.95-1.89-5.53-1.89-5.53S38.1,7.14,36.72,7.64c-1.06.38-2.39,2.54-3.17,3.17a16.27,16.27,0,0,0-7-3.93c.1-.94,1.37-3.27,1.17-4.41C27.5,1,22,1.33,22,1.33S16.55,1,16.29,2.47c-.21,1.2,1.2,3.71,1.17,4.55a16.27,16.27,0,0,0-7.15,4.46c-.69-.07-2.39-2.8-3.63-3.19C5.28,7.85,3,12.85,3,12.85s-2.81,4.7-1.65,5.61,5.15.57,4.72,1.4l0-.1a16.25,16.25,0,0,0,.2,6.83l-.1-.21C6.7,27.2,2.7,27,1.58,28s1.89,5.53,1.89,5.53,2.47,4.89,3.86,4.39,3.23-4,3.71-3.23L11,34.6a16.34,16.34,0,0,0,6.45,3.78c.27.63-1.37,3.42-1.14,4.7.26,1.45,5.73,1.14,5.73,1.14s5.48.31,5.74-1.14c.21-1.2-1.22-3.72-1.17-4.55A16.35,16.35,0,0,0,34,34.18c.79.51,2.27,2.73,3.38,3.08,1.41.44,3.67-4.55,3.67-4.55S43.84,28,42.67,27.1Z"/><path class="cls-16" d="M22.36,27.61a4.92,4.92,0,1,1,4.92-4.92A4.92,4.92,0,0,1,22.36,27.61Zm20.42-.52c-.88-.69-3.4-.66-4.36-1a16.74,16.74,0,0,0,.36-3.42,16.4,16.4,0,0,0-.5-4c1-.35,3.45-.44,4.3-1.15,1.12-1-1.89-5.54-1.89-5.54s-2.48-4.9-3.86-4.39c-1.06.38-2.39,2.53-3.17,3.17a16.36,16.36,0,0,0-7-3.93c.1-1,1.37-3.27,1.17-4.41C27.6,1,22.12,1.31,22.12,1.31S16.64,1,16.38,2.45C16.17,3.64,17.59,6.16,17.56,7a16.42,16.42,0,0,0-7.16,4.47C9.71,11.39,8,8.66,6.77,8.27,5.36,7.83,3.1,12.83,3.1,12.83S.29,17.54,1.46,18.44s5.15.57,4.71,1.41l0-.11a16.86,16.86,0,0,0-.27,3,16.12,16.12,0,0,0,.47,3.89l-.11-.21c.48.81-3.52.66-4.65,1.61s1.89,5.53,1.89,5.53,2.48,4.9,3.86,4.4,3.24-4,3.72-3.23l-.06-.08a16.55,16.55,0,0,0,6.46,3.78c.27.63-1.38,3.42-1.15,4.7.26,1.45,5.74,1.14,5.74,1.14s5.48.31,5.74-1.14c.21-1.2-1.22-3.73-1.17-4.56a16.35,16.35,0,0,0,7.4-4.35c.79.51,2.27,2.74,3.38,3.09,1.41.44,3.67-4.56,3.67-4.56S44,28,42.78,27.09Z"/><path class="cls-17" d="M22.46,27.6a4.93,4.93,0,1,1,4.93-4.92A4.93,4.93,0,0,1,22.46,27.6Zm20.43-.53c-.88-.68-3.41-.66-4.37-1a16.14,16.14,0,0,0,.36-3.42,16.47,16.47,0,0,0-.49-4c1-.35,3.45-.44,4.3-1.15,1.12-1-1.89-5.54-1.89-5.54s-2.48-4.9-3.87-4.4c-1.06.39-2.39,2.54-3.17,3.18a16.43,16.43,0,0,0-7-3.94c.1-.94,1.37-3.27,1.17-4.41C27.7,1,22.22,1.28,22.22,1.28S16.74,1,16.48,2.42c-.22,1.2,1.2,3.71,1.17,4.55a16.42,16.42,0,0,0-7.16,4.47c-.69-.08-2.39-2.8-3.63-3.19-1.41-.45-3.67,4.56-3.67,4.56S.37,17.52,1.54,18.42,6.7,19,6.26,19.83l0-.11a16.06,16.06,0,0,0-.27,3,16.64,16.64,0,0,0,.46,3.89l-.1-.22c.48.82-3.53.67-4.65,1.62s1.89,5.54,1.89,5.54,2.48,4.9,3.86,4.39,3.24-4,3.72-3.23l-.06-.08a16.31,16.31,0,0,0,6.46,3.78c.27.63-1.37,3.42-1.14,4.71.26,1.45,5.74,1.14,5.74,1.14s5.48.31,5.74-1.14c.21-1.2-1.22-3.73-1.17-4.56a16.37,16.37,0,0,0,7.4-4.36c.79.51,2.28,2.74,3.39,3.09,1.4.44,3.67-4.56,3.67-4.56S44.06,28,42.89,27.07Z"/><path class="cls-18" d="M22.56,27.59a4.93,4.93,0,1,1,4.93-4.93A4.93,4.93,0,0,1,22.56,27.59ZM43,27.06c-.88-.68-3.41-.66-4.37-1A16,16,0,0,0,39,22.66a16.39,16.39,0,0,0-.49-4c1-.35,3.45-.44,4.3-1.16,1.12-1-1.9-5.54-1.9-5.54S38.43,7.07,37,7.57C36,8,34.65,10.11,33.87,10.75a16.42,16.42,0,0,0-7-3.94c.1-.95,1.37-3.28,1.17-4.42C27.8.94,22.31,1.25,22.31,1.25S16.83.94,16.57,2.39c-.21,1.2,1.21,3.72,1.17,4.56a16.33,16.33,0,0,0-7.16,4.47c-.69-.08-2.4-2.81-3.63-3.2-1.41-.44-3.68,4.57-3.68,4.57S.46,17.5,1.62,18.41s5.17.57,4.73,1.41l0-.11a16.34,16.34,0,0,0,.2,6.85l-.1-.22C7,27.16,3,27,1.83,28S3.72,33.5,3.72,33.5s2.48,4.9,3.87,4.4,3.24-4,3.72-3.23l-.06-.09a16.37,16.37,0,0,0,6.47,3.79c.27.63-1.38,3.42-1.15,4.71.26,1.45,5.74,1.14,5.74,1.14s5.49.31,5.75-1.14c.21-1.21-1.22-3.73-1.17-4.56a16.49,16.49,0,0,0,7.41-4.36c.79.51,2.27,2.74,3.38,3.09,1.41.44,3.67-4.57,3.67-4.57S44.17,28,43,27.06Z"/><path class="cls-19" d="M22.65,27.58a4.93,4.93,0,1,1,4.94-4.93A4.93,4.93,0,0,1,22.65,27.58Zm20.47-.53c-.89-.68-3.42-.66-4.38-1a16.74,16.74,0,0,0,.36-3.42,16.47,16.47,0,0,0-.49-4c1-.35,3.45-.44,4.3-1.16C44,16.54,41,12,41,12S38.53,7,37.15,7.55c-1.06.38-2.4,2.54-3.18,3.17a16.34,16.34,0,0,0-7-3.93c.1-1,1.37-3.28,1.17-4.42C27.9.91,22.41,1.22,22.41,1.22S16.92.91,16.66,2.37c-.21,1.2,1.21,3.71,1.18,4.55a16.41,16.41,0,0,0-7.17,4.48C10,11.32,8.27,8.59,7,8.2c-1.41-.44-3.67,4.57-3.67,4.57S.54,17.49,1.71,18.39,6.87,19,6.43,19.8l.05-.11a17,17,0,0,0-.27,3,16.72,16.72,0,0,0,.47,3.9l-.1-.22C7.05,27.15,3,27,1.92,28s1.89,5.54,1.89,5.54S6.29,38.4,7.68,37.9s3.24-4.06,3.72-3.24l-.06-.08a16.56,16.56,0,0,0,6.47,3.79c.27.63-1.38,3.42-1.15,4.71.26,1.45,5.75,1.14,5.75,1.14s5.49.31,5.75-1.14c.21-1.21-1.21-3.73-1.17-4.57a16.4,16.4,0,0,0,7.41-4.36c.8.51,2.28,2.74,3.39,3.09,1.41.44,3.67-4.56,3.67-4.56S44.28,28,43.12,27.05Z"/><path class="cls-20" d="M22.75,27.57a4.94,4.94,0,1,1,4.94-4.94A4.94,4.94,0,0,1,22.75,27.57ZM43.23,27c-.89-.69-3.42-.66-4.38-1a16.76,16.76,0,0,0,.36-3.43,16.48,16.48,0,0,0-.5-4c1-.35,3.46-.44,4.31-1.15,1.13-1-1.9-5.55-1.9-5.55S38.64,7,37.25,7.52c-1.06.39-2.39,2.55-3.17,3.18a16.5,16.5,0,0,0-7-3.94c.1-1,1.37-3.28,1.17-4.42C28,.88,22.51,1.2,22.51,1.2S17,.88,16.76,2.34C16.54,3.54,18,6.06,17.93,6.9a16.44,16.44,0,0,0-7.17,4.48c-.69-.08-2.4-2.81-3.64-3.2-1.41-.45-3.68,4.57-3.68,4.57S.62,17.47,1.79,18.37,7,19,6.52,19.79l.05-.11a16,16,0,0,0-.27,2.95,16.14,16.14,0,0,0,.47,3.9l-.11-.21c.48.82-3.53.66-4.66,1.62s1.9,5.55,1.9,5.55,2.48,4.91,3.87,4.4,3.24-4.06,3.72-3.24l-.06-.08a16.44,16.44,0,0,0,6.47,3.79c.28.63-1.37,3.43-1.14,4.72.26,1.45,5.75,1.14,5.75,1.14s5.49.31,5.75-1.14c.22-1.21-1.21-3.74-1.17-4.57a16.45,16.45,0,0,0,7.42-4.37c.79.52,2.28,2.75,3.39,3.1,1.41.44,3.67-4.57,3.67-4.57S44.39,28,43.23,27Z"/><path class="cls-21" d="M22.85,27.56a4.94,4.94,0,1,1,4.94-4.94A4.94,4.94,0,0,1,22.85,27.56ZM43.34,27c-.89-.69-3.42-.66-4.39-1a16.16,16.16,0,0,0,.36-3.43,16.47,16.47,0,0,0-.49-4c1-.35,3.46-.44,4.31-1.16,1.13-.95-1.9-5.55-1.9-5.55S38.75,7,37.36,7.5c-1.06.38-2.4,2.55-3.18,3.18a16.39,16.39,0,0,0-7-3.94c.1-1,1.38-3.28,1.17-4.43C28.1.86,22.61,1.17,22.61,1.17s-5.5-.31-5.76,1.14C16.64,3.51,18.06,6,18,6.87a16.43,16.43,0,0,0-7.18,4.49c-.69-.08-2.4-2.82-3.64-3.21-1.41-.44-3.68,4.58-3.68,4.58S.71,17.45,1.88,18.36s5.17.57,4.73,1.41l0-.11a17,17,0,0,0-.27,3,16.66,16.66,0,0,0,.47,3.9l-.1-.21c.48.82-3.54.66-4.67,1.62S4,33.48,4,33.48s2.48,4.91,3.87,4.41,3.25-4.06,3.73-3.24l-.06-.09A16.43,16.43,0,0,0,18,38.36c.27.63-1.38,3.43-1.15,4.71.26,1.46,5.76,1.15,5.76,1.15s5.49.31,5.75-1.15c.22-1.2-1.21-3.73-1.17-4.57a16.29,16.29,0,0,0,7.42-4.36c.8.51,2.28,2.74,3.4,3.09,1.41.45,3.67-4.57,3.67-4.57S44.51,27.93,43.34,27Z"/><path class="cls-22" d="M23,27.55a4.94,4.94,0,1,1,4.94-4.94A4.94,4.94,0,0,1,23,27.55ZM43.45,27c-.89-.69-3.42-.66-4.39-1a16.23,16.23,0,0,0,.36-3.43,16.56,16.56,0,0,0-.49-4c1-.35,3.46-.44,4.31-1.16,1.13-1-1.9-5.55-1.9-5.55S38.86,7,37.47,7.48c-1.07.38-2.4,2.54-3.18,3.18a16.61,16.61,0,0,0-7-3.95c.1-1,1.38-3.28,1.17-4.42C28.2.83,22.7,1.14,22.7,1.14S17.2.83,16.94,2.29c-.21,1.2,1.21,3.72,1.18,4.56a16.5,16.5,0,0,0-7.18,4.48c-.69-.07-2.4-2.81-3.65-3.2-1.41-.44-3.67,4.58-3.67,4.58S.79,17.43,2,18.34s5.17.57,4.73,1.41l0-.1a17,17,0,0,0-.27,3,16.72,16.72,0,0,0,.47,3.9l-.1-.21c.47.82-3.54.66-4.67,1.62s1.9,5.55,1.9,5.55,2.48,4.92,3.87,4.41,3.25-4.06,3.73-3.24l-.06-.08a16.62,16.62,0,0,0,6.48,3.8c.27.63-1.37,3.43-1.15,4.71.26,1.46,5.76,1.15,5.76,1.15s5.5.31,5.76-1.15c.22-1.2-1.21-3.73-1.17-4.57a16.48,16.48,0,0,0,7.43-4.37c.79.51,2.28,2.75,3.39,3.1,1.41.44,3.68-4.58,3.68-4.58S44.62,27.92,43.45,27Z"/><path class="cls-23" d="M23,27.54A4.95,4.95,0,1,1,28,22.59,4.95,4.95,0,0,1,23,27.54ZM43.56,27c-.89-.69-3.43-.66-4.39-1a16.94,16.94,0,0,0,.36-3.44,16.62,16.62,0,0,0-.49-4c1-.35,3.46-.44,4.31-1.15,1.13-1-1.9-5.56-1.9-5.56S39,7,37.57,7.45c-1.06.39-2.4,2.55-3.18,3.19a16.45,16.45,0,0,0-7-3.95c.1-1,1.38-3.29,1.17-4.43C28.3.8,22.8,1.11,22.8,1.11S17.3.8,17,2.26c-.22,1.2,1.21,3.72,1.18,4.57A16.48,16.48,0,0,0,11,11.31c-.7-.07-2.41-2.81-3.65-3.2C6,7.66,3.7,12.69,3.7,12.69S.87,17.42,2.05,18.32s5.17.58,4.73,1.42l0-.11a16.06,16.06,0,0,0-.27,3A16.23,16.23,0,0,0,7,26.5l-.11-.21c.48.82-3.54.66-4.67,1.62s1.9,5.56,1.9,5.56S6.64,38.38,8,37.88s3.25-4.07,3.73-3.24l-.06-.09a16.46,16.46,0,0,0,6.49,3.8c.27.63-1.38,3.43-1.15,4.72.26,1.46,5.76,1.15,5.76,1.15s5.5.31,5.76-1.15c.22-1.2-1.21-3.74-1.17-4.57a16.48,16.48,0,0,0,7.43-4.37c.8.51,2.29,2.74,3.4,3.09,1.41.45,3.68-4.57,3.68-4.57S44.73,27.91,43.56,27Z"/><path class="cls-24" d="M23.14,27.53a5,5,0,1,1,4.95-5A5,5,0,0,1,23.14,27.53ZM43.67,27c-.89-.69-3.43-.67-4.39-1a16.94,16.94,0,0,0,.36-3.44,16.08,16.08,0,0,0-.5-4c1-.35,3.47-.44,4.32-1.16,1.13-1-1.9-5.56-1.9-5.56s-2.49-4.93-3.88-4.42c-1.06.38-2.4,2.55-3.19,3.19a16.29,16.29,0,0,0-7-3.95c.1-1,1.38-3.29,1.17-4.44C28.4.77,22.9,1.09,22.9,1.09S17.39.77,17.13,2.23C16.92,3.44,18.34,6,18.31,6.8a16.46,16.46,0,0,0-7.19,4.49c-.7-.07-2.41-2.81-3.65-3.21-1.41-.44-3.68,4.59-3.68,4.59S1,17.4,2.13,18.31s5.18.57,4.74,1.41l0-.11a16.25,16.25,0,0,0-.28,3,16.74,16.74,0,0,0,.47,3.91L7,26.27c.48.83-3.54.67-4.67,1.63s1.9,5.56,1.9,5.56,2.49,4.92,3.88,4.42,3.25-4.07,3.73-3.25l-.06-.08a16.58,16.58,0,0,0,6.49,3.8c.27.63-1.38,3.43-1.15,4.72.26,1.46,5.77,1.15,5.77,1.15s5.5.31,5.76-1.15c.22-1.21-1.21-3.74-1.17-4.58a16.52,16.52,0,0,0,7.44-4.37c.79.51,2.28,2.75,3.4,3.1,1.41.44,3.68-4.58,3.68-4.58S44.84,27.9,43.67,27Z"/><path class="cls-25" d="M23.24,27.52a4.95,4.95,0,1,1,5-4.95A4.95,4.95,0,0,1,23.24,27.52ZM43.78,27c-.89-.69-3.43-.67-4.39-1a16.84,16.84,0,0,0,.36-3.43,16.64,16.64,0,0,0-.5-4c1-.35,3.47-.44,4.32-1.16,1.13-.95-1.9-5.57-1.9-5.57S39.18,6.9,37.79,7.41c-1.07.38-2.4,2.55-3.19,3.19a16.5,16.5,0,0,0-7-4c.1-.95,1.38-3.29,1.18-4.44C28.51.75,23,1.06,23,1.06S17.49.75,17.23,2.2C17,3.41,18.44,5.94,18.4,6.78a16.46,16.46,0,0,0-7.19,4.49c-.7-.07-2.41-2.82-3.65-3.21-1.42-.44-3.69,4.59-3.69,4.59S1,17.38,2.21,18.29,7.4,18.86,7,19.71l0-.11a16.49,16.49,0,0,0,.2,6.88l-.1-.22c.48.83-3.55.67-4.68,1.63s1.9,5.56,1.9,5.56,2.49,4.93,3.88,4.42,3.26-4.07,3.74-3.25l-.06-.08a16.38,16.38,0,0,0,6.5,3.8c.27.64-1.38,3.44-1.15,4.73.26,1.46,5.77,1.15,5.77,1.15s5.51.31,5.77-1.15c.21-1.21-1.22-3.74-1.18-4.58A16.39,16.39,0,0,0,35,34.11c.8.52,2.29,2.75,3.4,3.1,1.42.45,3.69-4.58,3.69-4.58S45,27.89,43.78,27Z"/><path class="cls-26" d="M23.34,27.51a5,5,0,1,1,4.95-5A5,5,0,0,1,23.34,27.51ZM43.89,27c-.89-.69-3.43-.67-4.4-1a16.26,16.26,0,0,0,.36-3.44,16.56,16.56,0,0,0-.49-4c1-.36,3.47-.45,4.32-1.17,1.13-.95-1.9-5.57-1.9-5.57s-2.49-4.92-3.89-4.42c-1.06.39-2.4,2.56-3.19,3.19a16.53,16.53,0,0,0-7-3.95c.1-1,1.38-3.29,1.18-4.44C28.61.72,23.09,1,23.09,1S17.58.72,17.32,2.18c-.22,1.2,1.21,3.73,1.18,4.58a16.44,16.44,0,0,0-7.2,4.49C10.6,11.17,8.89,8.43,7.64,8,6.23,7.59,4,12.63,4,12.63S1.12,17.37,2.3,18.27s5.18.58,4.74,1.42l0-.11a17.18,17.18,0,0,0-.27,3,16.37,16.37,0,0,0,.47,3.92l-.1-.22c.47.83-3.55.67-4.68,1.63s1.9,5.57,1.9,5.57,2.49,4.92,3.88,4.42,3.26-4.08,3.74-3.25L12,34.53a16.59,16.59,0,0,0,6.5,3.81c.27.63-1.38,3.44-1.15,4.73.26,1.46,5.77,1.15,5.77,1.15s5.52.31,5.78-1.15c.21-1.21-1.22-3.75-1.18-4.58a16.6,16.6,0,0,0,7.45-4.38c.79.51,2.28,2.75,3.4,3.1,1.42.45,3.69-4.59,3.69-4.59S45.06,27.88,43.89,27Z"/><path class="cls-27" d="M23.43,27.5a5,5,0,1,1,5-5A5,5,0,0,1,23.43,27.5ZM44,27c-.89-.69-3.43-.66-4.4-1A16.26,16.26,0,0,0,40,22.54a16.64,16.64,0,0,0-.49-4c1-.35,3.47-.44,4.32-1.16,1.13-1-1.9-5.58-1.9-5.58S39.39,6.85,38,7.36c-1.07.39-2.4,2.55-3.19,3.19a16.42,16.42,0,0,0-7-4c.1-1,1.38-3.3,1.18-4.45C28.71.69,23.19,1,23.19,1S17.67.69,17.41,2.15c-.21,1.21,1.22,3.74,1.18,4.58a16.46,16.46,0,0,0-7.2,4.5C10.69,11.15,9,8.41,7.73,8,6.32,7.57,4,12.61,4,12.61s-2.83,4.74-1.66,5.65,5.19.57,4.75,1.42l0-.11a16.49,16.49,0,0,0,.2,6.88l-.11-.21c.48.82-3.55.67-4.68,1.62s1.9,5.58,1.9,5.58S7,38.37,8.38,37.86s3.26-4.07,3.74-3.25l-.06-.08a16.59,16.59,0,0,0,6.5,3.81c.28.63-1.38,3.44-1.15,4.73.26,1.46,5.78,1.15,5.78,1.15s5.52.31,5.78-1.15c.21-1.21-1.22-3.75-1.18-4.59a16.42,16.42,0,0,0,7.45-4.38c.8.51,2.29,2.75,3.41,3.11,1.41.44,3.69-4.59,3.69-4.59S45.17,27.87,44,27Z"/><path class="cls-28" d="M23.53,27.48a5,5,0,1,1,5-5A5,5,0,0,1,23.53,27.48ZM44.11,27c-.89-.69-3.43-.66-4.4-1a17,17,0,0,0,.36-3.45,16.7,16.7,0,0,0-.49-4c1-.35,3.47-.44,4.32-1.16,1.13-1-1.9-5.58-1.9-5.58s-2.5-4.93-3.89-4.43c-1.07.39-2.41,2.56-3.2,3.2a16.54,16.54,0,0,0-7-4c.1-1,1.38-3.3,1.18-4.45C28.81.66,23.29,1,23.29,1S17.77.66,17.51,2.12c-.22,1.21,1.21,3.74,1.18,4.59a16.4,16.4,0,0,0-7.21,4.5c-.7-.08-2.41-2.82-3.66-3.22-1.42-.44-3.69,4.6-3.69,4.6s-2.84,4.74-1.66,5.65,5.19.58,4.75,1.42l0-.11a17.18,17.18,0,0,0-.27,3,16.76,16.76,0,0,0,.47,3.92l-.1-.21c.48.82-3.55.67-4.69,1.62s1.91,5.58,1.91,5.58,2.49,4.94,3.89,4.43,3.26-4.08,3.74-3.26l-.06-.08a16.56,16.56,0,0,0,6.51,3.81c.27.64-1.38,3.45-1.15,4.74.26,1.46,5.78,1.15,5.78,1.15s5.52.31,5.78-1.15c.21-1.21-1.22-3.75-1.18-4.59a16.53,16.53,0,0,0,7.46-4.39c.79.52,2.29,2.76,3.41,3.11,1.41.45,3.69-4.59,3.69-4.59S45.28,27.86,44.11,27Z"/><path class="cls-29" d="M23.63,27.47a5,5,0,1,1,5-5A5,5,0,0,1,23.63,27.47Zm20.59-.53c-.9-.69-3.44-.66-4.4-1a17,17,0,0,0,.36-3.45,16.64,16.64,0,0,0-.5-4c1-.36,3.48-.44,4.33-1.17,1.14-1-1.9-5.58-1.9-5.58s-2.5-4.94-3.9-4.43c-1.06.39-2.4,2.56-3.19,3.2a16.52,16.52,0,0,0-7-4c.1-1,1.38-3.3,1.18-4.45C28.91.64,23.38,1,23.38,1S17.86.64,17.6,2.1c-.22,1.21,1.21,3.74,1.18,4.58a16.51,16.51,0,0,0-7.21,4.51c-.7-.08-2.42-2.83-3.66-3.22-1.42-.45-3.7,4.6-3.7,4.6s-2.84,4.75-1.66,5.65,5.2.58,4.75,1.43l0-.11a16.53,16.53,0,0,0,.2,6.89l-.1-.21c.47.82-3.56.67-4.69,1.62s1.9,5.58,1.9,5.58,2.5,4.94,3.9,4.44,3.26-4.09,3.74-3.26l-.06-.08a16.63,16.63,0,0,0,6.51,3.81c.28.63-1.38,3.45-1.15,4.74.26,1.46,5.78,1.15,5.78,1.15s5.53.31,5.79-1.15c.22-1.21-1.22-3.76-1.18-4.59a16.66,16.66,0,0,0,7.46-4.39c.8.51,2.29,2.75,3.41,3.11,1.42.44,3.7-4.6,3.7-4.6S45.4,27.85,44.22,26.94Z"/><path class="cls-30" d="M23.73,27.46a5,5,0,1,1,5-5A5,5,0,0,1,23.73,27.46Zm20.6-.53c-.9-.69-3.44-.66-4.41-1a16.42,16.42,0,0,0,.37-3.45,16.72,16.72,0,0,0-.5-4c1-.35,3.48-.44,4.33-1.16,1.14-1-1.91-5.59-1.91-5.59s-2.49-4.94-3.89-4.43c-1.07.39-2.41,2.56-3.2,3.2a16.43,16.43,0,0,0-7-4c.1-.95,1.39-3.3,1.18-4.45C29,.61,23.48.92,23.48.92S18,.61,17.69,2.07c-.21,1.21,1.22,3.74,1.19,4.59a16.63,16.63,0,0,0-7.23,4.51C11,11.09,9.24,8.34,8,8c-1.41-.45-3.69,4.6-3.69,4.6S1.46,17.3,2.63,18.21s5.2.57,4.76,1.42l.05-.11a16.58,16.58,0,0,0,.2,6.9l-.11-.21C8,27,4,26.87,2.84,27.83s1.91,5.59,1.91,5.59,2.5,4.94,3.89,4.43,3.27-4.08,3.75-3.26l-.06-.08a16.62,16.62,0,0,0,6.52,3.82c.27.63-1.39,3.44-1.16,4.74.26,1.46,5.79,1.15,5.79,1.15s5.53.31,5.79-1.15c.22-1.21-1.22-3.76-1.18-4.6a16.51,16.51,0,0,0,7.47-4.39c.79.52,2.29,2.76,3.41,3.11,1.42.45,3.7-4.6,3.7-4.6S45.51,27.84,44.33,26.93Z"/><path class="cls-31" d="M23.82,27.45a5,5,0,1,1,5-5A5,5,0,0,1,23.82,27.45Zm20.62-.53c-.9-.69-3.44-.66-4.41-1a16.28,16.28,0,0,0,.36-3.45,16.72,16.72,0,0,0-.49-4c1-.35,3.48-.44,4.33-1.16,1.14-1-1.91-5.59-1.91-5.59s-2.5-4.94-3.89-4.44c-1.07.39-2.41,2.57-3.2,3.21a16.52,16.52,0,0,0-7-4c.1-1,1.39-3.3,1.18-4.46C29.11.58,23.58.9,23.58.9S18.05.58,17.79,2C17.57,3.25,19,5.79,19,6.64a16.6,16.6,0,0,0-7.23,4.51c-.69-.08-2.41-2.83-3.66-3.23-1.42-.44-3.7,4.61-3.7,4.61s-2.84,4.75-1.66,5.66,5.2.58,4.76,1.42l0-.11a16.18,16.18,0,0,0,.2,6.91l-.11-.22c.48.83-3.56.67-4.69,1.63s1.9,5.59,1.9,5.59,2.5,4.94,3.9,4.44,3.27-4.09,3.75-3.26l-.06-.09a16.5,16.5,0,0,0,6.52,3.82c.28.64-1.38,3.45-1.15,4.75.26,1.46,5.79,1.15,5.79,1.15s5.53.31,5.79-1.15c.22-1.22-1.22-3.76-1.18-4.6a16.62,16.62,0,0,0,7.47-4.4c.8.52,2.3,2.77,3.42,3.12,1.42.44,3.7-4.6,3.7-4.6S45.62,27.83,44.44,26.92Z"/><path class="cls-32" d="M23.92,27.44a5,5,0,1,1,5-5A5,5,0,0,1,23.92,27.44Zm20.63-.53c-.9-.69-3.44-.67-4.41-1a16.35,16.35,0,0,0,.36-3.45,16.72,16.72,0,0,0-.49-4c1-.36,3.48-.44,4.33-1.17,1.14-1-1.91-5.59-1.91-5.59s-2.5-4.95-3.9-4.44c-1.07.39-2.41,2.57-3.2,3.21a16.47,16.47,0,0,0-7-4c.1-1,1.39-3.31,1.18-4.46C29.21.55,23.68.87,23.68.87S18.14.55,17.88,2c-.22,1.21,1.22,3.75,1.19,4.59a16.76,16.76,0,0,0-7.24,4.51c-.69-.07-2.41-2.83-3.66-3.22-1.42-.45-3.7,4.6-3.7,4.6S1.62,17.26,2.8,18.17,8,18.75,7.57,19.6l0-.11a17.2,17.2,0,0,0-.27,3,17,17,0,0,0,.47,3.93l-.1-.22c.48.83-3.56.67-4.7,1.63S4.92,33.4,4.92,33.4s2.5,5,3.9,4.44,3.27-4.09,3.75-3.26l-.06-.08A16.59,16.59,0,0,0,19,38.32c.27.63-1.39,3.45-1.16,4.75.26,1.46,5.8,1.15,5.8,1.15s5.53.31,5.79-1.15c.22-1.22-1.22-3.77-1.18-4.61a16.54,16.54,0,0,0,7.48-4.39c.8.51,2.29,2.76,3.41,3.11,1.42.45,3.71-4.6,3.71-4.6S45.73,27.82,44.55,26.91Z"/><path class="cls-33" d="M24,27.43a5,5,0,1,1,5-5A5,5,0,0,1,24,27.43Zm20.64-.53c-.9-.69-3.44-.67-4.41-1a17,17,0,0,0,.36-3.45,16.26,16.26,0,0,0-.5-4c1-.35,3.49-.44,4.34-1.17,1.14-1-1.91-5.59-1.91-5.59S40,6.71,38.64,7.22c-1.07.39-2.41,2.56-3.2,3.2a16.67,16.67,0,0,0-7-4c.1-1,1.39-3.31,1.18-4.46C29.31.52,23.77.84,23.77.84S18.24.52,18,2c-.21,1.21,1.22,3.75,1.19,4.6a16.67,16.67,0,0,0-7.24,4.51C11.23,11,9.51,8.27,8.26,7.88c-1.42-.45-3.71,4.6-3.71,4.6s-2.84,4.77-1.66,5.68,5.21.58,4.76,1.42l0-.11a16.68,16.68,0,0,0,.2,6.92l-.1-.22c.47.83-3.57.67-4.71,1.63S5,33.4,5,33.4s2.5,5,3.9,4.44,3.27-4.09,3.75-3.27l-.06-.08a16.54,16.54,0,0,0,6.53,3.82c.27.64-1.39,3.46-1.16,4.76.27,1.46,5.8,1.15,5.8,1.15s5.54.31,5.8-1.15c.22-1.22-1.22-3.77-1.18-4.61a16.56,16.56,0,0,0,7.48-4.4c.8.52,2.3,2.77,3.42,3.12,1.42.45,3.71-4.61,3.71-4.61S45.84,27.81,44.66,26.9Z"/><path class="cls-34" d="M24.12,27.42a5,5,0,1,1,5-5A5,5,0,0,1,24.12,27.42Zm20.65-.53c-.9-.7-3.44-.67-4.42-1a16.45,16.45,0,0,0,.37-3.46,16.87,16.87,0,0,0-.5-4c1-.35,3.49-.44,4.34-1.16,1.14-1-1.91-5.6-1.91-5.6s-2.5-4.95-3.9-4.45c-1.07.39-2.42,2.57-3.21,3.21a16.56,16.56,0,0,0-7-4c.1-1,1.39-3.31,1.18-4.47C29.41.5,23.87.81,23.87.81S18.33.5,18.07,2c-.22,1.22,1.22,3.76,1.18,4.61A16.58,16.58,0,0,0,12,11.08C11.32,11,9.6,8.25,8.34,7.85c-1.42-.44-3.7,4.61-3.7,4.61S1.79,17.23,3,18.14s5.21.58,4.77,1.43l0-.11a16.27,16.27,0,0,0-.28,3A16.54,16.54,0,0,0,8,26.38l-.11-.22c.48.83-3.56.67-4.7,1.63s1.91,5.6,1.91,5.6,2.5,5,3.91,4.45,3.27-4.1,3.75-3.27l-.06-.09a16.63,16.63,0,0,0,6.53,3.83c.28.64-1.38,3.46-1.15,4.76.26,1.46,5.8,1.15,5.8,1.15s5.54.31,5.8-1.15c.22-1.22-1.22-3.77-1.18-4.61A16.66,16.66,0,0,0,36,34.05c.8.52,2.3,2.77,3.42,3.12,1.42.45,3.71-4.61,3.71-4.61S46,27.8,44.77,26.89Z"/><path class="cls-35" d="M24.21,27.41a5,5,0,1,1,5-5A5,5,0,0,1,24.21,27.41Zm20.67-.53c-.9-.7-3.45-.67-4.42-1a16.52,16.52,0,0,0,.37-3.46,16.74,16.74,0,0,0-.5-4c1-.36,3.49-.44,4.34-1.17,1.14-1-1.91-5.6-1.91-5.6s-2.51-5-3.91-4.45c-1.07.39-2.41,2.57-3.2,3.21a16.66,16.66,0,0,0-7.06-4c.1-1,1.39-3.31,1.18-4.46C29.51.47,24,.79,24,.79S18.42.47,18.16,1.94c-.21,1.21,1.22,3.75,1.19,4.6a16.72,16.72,0,0,0-7.25,4.52C11.41,11,9.68,8.23,8.43,7.83,7,7.38,4.72,12.44,4.72,12.44s-2.85,4.77-1.67,5.68,5.22.58,4.78,1.43l0-.11a17.32,17.32,0,0,0-.27,3,17,17,0,0,0,.47,3.93L8,26.15c.48.83-3.57.67-4.71,1.63s1.92,5.6,1.92,5.6,2.5,5,3.9,4.45,3.28-4.1,3.76-3.27l-.06-.08a16.72,16.72,0,0,0,6.54,3.83c.27.63-1.39,3.46-1.16,4.75.26,1.47,5.81,1.16,5.81,1.16s5.54.31,5.8-1.16c.22-1.21-1.22-3.76-1.18-4.61a16.54,16.54,0,0,0,7.49-4.4c.8.51,2.3,2.77,3.42,3.12,1.43.45,3.72-4.61,3.72-4.61S46.06,27.79,44.88,26.88Z"/><path class="cls-36" d="M24.31,27.4a5,5,0,1,1,5-5A5,5,0,0,1,24.31,27.4ZM45,26.87c-.9-.7-3.45-.67-4.42-1a16.54,16.54,0,0,0,.36-3.47,16.87,16.87,0,0,0-.49-4c1-.35,3.48-.44,4.34-1.17,1.14-1-1.91-5.6-1.91-5.6s-2.51-5-3.91-4.45c-1.07.39-2.42,2.57-3.21,3.21a16.56,16.56,0,0,0-7.06-4c.1-1,1.39-3.32,1.19-4.47C29.61.44,24.07.76,24.07.76S18.52.44,18.26,1.91C18,3.12,19.48,5.67,19.44,6.52A16.72,16.72,0,0,0,12.19,11C11.5,11,9.77,8.2,8.52,7.81c-1.42-.45-3.71,4.61-3.71,4.61S2,17.2,3.14,18.11s5.22.58,4.77,1.43l0-.11a16.27,16.27,0,0,0-.27,3,16.48,16.48,0,0,0,.47,3.94l-.1-.21c.48.83-3.57.67-4.71,1.63s1.91,5.61,1.91,5.61,2.51,5,3.91,4.45,3.28-4.1,3.76-3.27l0-.09a16.56,16.56,0,0,0,6.53,3.83c.28.64-1.39,3.46-1.15,4.76.26,1.47,5.81,1.16,5.81,1.16s5.54.31,5.81-1.16c.21-1.21-1.23-3.77-1.19-4.61A16.64,16.64,0,0,0,36.19,34c.8.52,2.3,2.77,3.42,3.13,1.43.44,3.71-4.62,3.71-4.62S46.17,27.78,45,26.87Z"/><path class="cls-37" d="M24.41,27.39a5,5,0,1,1,5-5A5,5,0,0,1,24.41,27.39Zm20.69-.53c-.9-.7-3.45-.67-4.42-1A17.06,17.06,0,0,0,41,22.4a16.32,16.32,0,0,0-.5-4c1-.36,3.49-.45,4.35-1.17C46,16.22,43,11.58,43,11.58s-2.51-5-3.91-4.46c-1.08.39-2.42,2.58-3.22,3.22a16.56,16.56,0,0,0-7.06-4c.1-1,1.39-3.32,1.19-4.48C29.71.41,24.16.73,24.16.73S18.61.41,18.35,1.88c-.22,1.22,1.22,3.76,1.19,4.61A16.62,16.62,0,0,0,12.28,11c-.69-.08-2.42-2.84-3.67-3.23C7.18,7.34,4.89,12.4,4.89,12.4S2,17.18,3.22,18.09s5.22.58,4.78,1.43l.05-.11a16.28,16.28,0,0,0,.2,6.93l-.11-.21c.48.83-3.57.67-4.71,1.63s1.92,5.61,1.92,5.61,2.51,5,3.91,4.45,3.28-4.1,3.76-3.27l0-.08a16.53,16.53,0,0,0,6.54,3.83c.27.64-1.39,3.46-1.16,4.76.26,1.47,5.81,1.16,5.81,1.16s5.55.31,5.82-1.16c.21-1.21-1.23-3.77-1.19-4.61A16.61,16.61,0,0,0,36.29,34c.8.52,2.3,2.78,3.43,3.13,1.42.45,3.71-4.62,3.71-4.62S46.29,27.77,45.1,26.86Z"/><path class="cls-38" d="M24.51,27.38a5,5,0,1,1,5-5A5,5,0,0,1,24.51,27.38Zm20.7-.54c-.9-.69-3.45-.66-4.42-1a17.13,17.13,0,0,0,.36-3.46,16.4,16.4,0,0,0-.5-4.05c1-.35,3.49-.44,4.35-1.17,1.15-1-1.91-5.61-1.91-5.61s-2.51-5-3.92-4.46c-1.07.39-2.42,2.57-3.21,3.22a16.63,16.63,0,0,0-7.06-4c.09-1,1.38-3.32,1.18-4.47C29.82.39,24.26.7,24.26.7S18.7.39,18.44,1.86c-.21,1.21,1.22,3.76,1.19,4.61A16.62,16.62,0,0,0,12.37,11c-.7-.08-2.42-2.84-3.68-3.24C7.27,7.31,5,12.38,5,12.38s-2.86,4.78-1.67,5.7,5.22.57,4.78,1.42l.05-.11a16.32,16.32,0,0,0,.2,6.94l-.11-.22c.48.83-3.57.68-4.71,1.64s1.91,5.61,1.91,5.61,2.51,5,3.92,4.46,3.28-4.11,3.76-3.28l0-.08A16.67,16.67,0,0,0,19.6,38.3c.28.63-1.39,3.46-1.16,4.76.26,1.47,5.82,1.16,5.82,1.16s5.56.31,5.82-1.16c.22-1.22-1.23-3.77-1.19-4.62A16.68,16.68,0,0,0,36.4,34c.8.52,2.3,2.77,3.43,3.13,1.42.45,3.71-4.62,3.71-4.62S46.4,27.76,45.21,26.84Z"/><path class="cls-39" d="M24.6,27.37a5,5,0,1,1,5-5A5,5,0,0,1,24.6,27.37Zm20.72-.54c-.9-.69-3.45-.67-4.43-1a16.54,16.54,0,0,0,.37-3.47,17,17,0,0,0-.5-4.05c1-.35,3.49-.44,4.35-1.17,1.15-1-1.91-5.61-1.91-5.61s-2.52-5-3.92-4.46c-1.07.39-2.42,2.57-3.22,3.22a16.53,16.53,0,0,0-7.06-4c.09-1,1.38-3.32,1.18-4.48C29.92.36,24.36.68,24.36.68S18.8.36,18.54,1.83c-.22,1.22,1.22,3.76,1.19,4.62A16.66,16.66,0,0,0,12.46,11c-.7-.08-2.42-2.85-3.68-3.24-1.42-.45-3.72,4.62-3.72,4.62s-2.85,4.78-1.67,5.7,5.23.58,4.78,1.43l.05-.11a16.77,16.77,0,0,0,.2,6.94l-.1-.22c.48.83-3.58.67-4.72,1.64s1.92,5.62,1.92,5.62,2.51,5,3.91,4.45,3.29-4.1,3.77-3.27l0-.09a16.4,16.4,0,0,0,6.55,3.84c.27.64-1.4,3.47-1.16,4.77.26,1.47,5.82,1.16,5.82,1.16s5.56.31,5.82-1.16C30.4,41.84,29,39.28,29,38.44A16.69,16.69,0,0,0,36.5,34c.8.52,2.31,2.78,3.43,3.13,1.43.45,3.72-4.62,3.72-4.62S46.51,27.75,45.32,26.83Z"/><path class="cls-40" d="M24.7,27.36a5,5,0,1,1,5-5A5,5,0,0,1,24.7,27.36Zm20.74-.54c-.91-.69-3.46-.67-4.44-1a16.54,16.54,0,0,0,.37-3.47,16.83,16.83,0,0,0-.5-4.05c1-.36,3.49-.45,4.35-1.17,1.15-1-1.91-5.62-1.91-5.62s-2.52-5-3.92-4.47c-1.08.39-2.43,2.58-3.22,3.22a16.78,16.78,0,0,0-7.07-4c.09-1,1.39-3.32,1.18-4.48C30,.33,24.45.65,24.45.65S18.89.33,18.63,1.8C18.41,3,19.85,5.57,19.82,6.42A16.68,16.68,0,0,0,12.55,11c-.7-.08-2.43-2.85-3.68-3.24-1.43-.45-3.72,4.62-3.72,4.62S2.29,17.13,3.47,18s5.24.58,4.79,1.43l.05-.11a16.82,16.82,0,0,0,.2,7l-.1-.22c.48.83-3.58.67-4.73,1.64S5.6,33.35,5.6,33.35s2.52,5,3.92,4.46,3.29-4.11,3.77-3.28l0-.08a16.7,16.7,0,0,0,6.55,3.84c.28.64-1.39,3.47-1.16,4.77.26,1.47,5.82,1.16,5.82,1.16s5.57.31,5.83-1.16c.22-1.22-1.23-3.78-1.19-4.62A16.67,16.67,0,0,0,36.61,34c.8.51,2.3,2.77,3.43,3.13,1.43.45,3.72-4.63,3.72-4.63S46.62,27.74,45.44,26.82Z"/><path class="cls-41" d="M24.8,27.35a5,5,0,1,1,5-5A5,5,0,0,1,24.8,27.35Zm20.75-.54c-.91-.7-3.47-.67-4.44-1A16.81,16.81,0,0,0,41,18.29c1-.35,3.5-.44,4.37-1.17,1.14-1-1.92-5.63-1.92-5.63S40.9,6.52,39.49,7c-1.07.39-2.42,2.58-3.22,3.22a16.61,16.61,0,0,0-7.07-4c.09-1,1.39-3.33,1.18-4.48C30.12.3,24.55.62,24.55.62S19,.3,18.72,1.78C18.51,3,20,5.55,19.91,6.4a16.64,16.64,0,0,0-7.27,4.54c-.7-.08-2.43-2.85-3.68-3.25-1.43-.45-3.73,4.63-3.73,4.63S2.37,17.11,3.56,18s5.23.58,4.79,1.43l.05-.11a16.41,16.41,0,0,0-.28,3A16.62,16.62,0,0,0,8.6,26.3l-.11-.22c.48.83-3.58.67-4.72,1.64s1.92,5.62,1.92,5.62,2.51,5,3.92,4.47,3.29-4.12,3.77-3.29l-.05-.08a16.54,16.54,0,0,0,6.55,3.84c.28.64-1.39,3.48-1.16,4.78.27,1.47,5.83,1.16,5.83,1.16s5.57.31,5.83-1.16c.22-1.22-1.23-3.78-1.19-4.63A16.67,16.67,0,0,0,36.71,34c.8.52,2.31,2.78,3.44,3.13,1.43.45,3.72-4.63,3.72-4.63S46.73,27.73,45.55,26.81Z"/><path class="cls-42" d="M24.9,27.34a5,5,0,1,1,5-5A5,5,0,0,1,24.9,27.34Zm20.76-.54c-.91-.7-3.47-.67-4.44-1a17.33,17.33,0,0,0,.36-3.48,16.48,16.48,0,0,0-.5-4.06c1-.35,3.5-.44,4.37-1.17,1.14-1-1.93-5.63-1.93-5.63S41,6.5,39.6,7c-1.08.39-2.43,2.58-3.22,3.22a16.6,16.6,0,0,0-7.08-4c.09-1,1.39-3.33,1.18-4.49C30.22.28,24.65.59,24.65.59S19.08.28,18.82,1.75C18.6,3,20,5.52,20,6.37a16.73,16.73,0,0,0-7.28,4.55C12,10.84,10.3,8.07,9,7.67,7.61,7.22,5.32,12.3,5.32,12.3S2.46,17.09,3.64,18s5.24.58,4.8,1.43l0-.11a17.52,17.52,0,0,0-.27,3,17.24,17.24,0,0,0,.47,4l-.1-.22c.48.83-3.58.67-4.73,1.64s1.92,5.63,1.92,5.63,2.52,5,3.93,4.46,3.29-4.11,3.77-3.28l-.05-.09A16.64,16.64,0,0,0,20,38.28c.27.64-1.4,3.47-1.16,4.78.26,1.47,5.83,1.16,5.83,1.16s5.57.31,5.83-1.16c.22-1.22-1.23-3.79-1.19-4.63A16.69,16.69,0,0,0,36.82,34c.8.52,2.31,2.78,3.43,3.14,1.43.45,3.73-4.63,3.73-4.63S46.84,27.72,45.66,26.8Z"/><path class="cls-43" d="M25,27.33a5,5,0,1,1,5-5A5,5,0,0,1,25,27.33Zm20.78-.54c-.91-.7-3.47-.67-4.45-1a16.54,16.54,0,0,0,.37-3.47,17,17,0,0,0-.5-4.06c1-.36,3.5-.45,4.37-1.18,1.14-1-1.93-5.63-1.93-5.63s-2.51-5-3.92-4.47c-1.08.39-2.43,2.59-3.23,3.23a16.72,16.72,0,0,0-7.08-4c.1-1,1.39-3.33,1.18-4.49C30.32.25,24.75.57,24.75.57S19.17.25,18.91,1.72c-.22,1.22,1.23,3.78,1.19,4.63a16.77,16.77,0,0,0-7.28,4.54c-.7-.07-2.43-2.85-3.69-3.24C7.7,7.2,5.4,12.28,5.4,12.28S2.54,17.08,3.73,18s5.24.58,4.79,1.44l.05-.11a16.82,16.82,0,0,0,.2,7l-.1-.21c.48.83-3.59.67-4.73,1.64s1.92,5.63,1.92,5.63,2.52,5,3.93,4.47,3.29-4.12,3.77-3.29l-.05-.08a16.71,16.71,0,0,0,6.56,3.85c.28.64-1.39,3.47-1.16,4.78.26,1.47,5.84,1.16,5.84,1.16s5.57.31,5.83-1.16c.22-1.22-1.23-3.79-1.19-4.64A16.71,16.71,0,0,0,36.92,34c.81.52,2.31,2.78,3.44,3.13,1.43.45,3.73-4.63,3.73-4.63S47,27.71,45.77,26.79Z"/><path class="cls-44" d="M25.09,27.31a5,5,0,1,1,5-5A5,5,0,0,1,25.09,27.31Zm20.79-.53c-.91-.7-3.47-.67-4.45-1a16.56,16.56,0,0,0,.37-3.48,17,17,0,0,0-.5-4.06c1-.35,3.5-.44,4.37-1.17,1.14-1-1.93-5.64-1.93-5.64s-2.52-5-3.93-4.47c-1.07.39-2.43,2.58-3.22,3.23a16.65,16.65,0,0,0-7.09-4c.1-1,1.39-3.33,1.18-4.49C30.42.22,24.84.54,24.84.54S19.27.22,19,1.7c-.21,1.22,1.23,3.77,1.2,4.63a16.74,16.74,0,0,0-7.29,4.54c-.7-.07-2.43-2.85-3.69-3.25-1.43-.45-3.73,4.64-3.73,4.64S2.62,17.06,3.81,18s5.25.58,4.8,1.43l.05-.11a16.42,16.42,0,0,0,.2,7l-.11-.21c.49.83-3.58.67-4.73,1.64s1.92,5.63,1.92,5.63,2.52,5,3.93,4.47,3.3-4.12,3.78-3.28l-.05-.09a16.56,16.56,0,0,0,6.57,3.85c.27.64-1.4,3.48-1.17,4.79.27,1.47,5.84,1.16,5.84,1.16s5.58.31,5.84-1.16c.22-1.23-1.23-3.79-1.19-4.64A16.72,16.72,0,0,0,37,34c.8.52,2.31,2.78,3.44,3.14,1.43.45,3.73-4.64,3.73-4.64S47.06,27.7,45.88,26.78Z"/><path class="cls-45" d="M25.19,27.3a5,5,0,1,1,5-5A5,5,0,0,1,25.19,27.3ZM46,26.77c-.91-.7-3.47-.67-4.45-1a16.86,16.86,0,0,0-.14-7.54c1-.36,3.51-.45,4.38-1.18,1.14-1-1.93-5.64-1.93-5.64s-2.52-5-3.93-4.47c-1.08.39-2.43,2.58-3.23,3.23a16.72,16.72,0,0,0-7.09-4c.1-1,1.39-3.33,1.18-4.49C30.52.19,24.94.51,24.94.51S19.36.19,19.1,1.67c-.22,1.22,1.22,3.78,1.19,4.63A16.85,16.85,0,0,0,13,10.85C12.3,10.78,10.57,8,9.31,7.6c-1.44-.45-3.74,4.64-3.74,4.64S2.71,17,3.89,18s5.25.58,4.81,1.44l0-.12a17.55,17.55,0,0,0-.27,3,16.64,16.64,0,0,0,.48,4L8.84,26c.48.84-3.59.68-4.74,1.65S6,33.31,6,33.31s2.52,5,3.93,4.48,3.3-4.12,3.78-3.29l-.05-.08a16.68,16.68,0,0,0,6.57,3.85c.28.64-1.4,3.48-1.16,4.79.26,1.47,5.84,1.16,5.84,1.16s5.58.31,5.84-1.16c.22-1.23-1.23-3.8-1.19-4.64A16.69,16.69,0,0,0,37.13,34c.81.52,2.32,2.79,3.45,3.15,1.43.45,3.73-4.65,3.73-4.65S47.17,27.68,46,26.77Z"/><path class="cls-46" d="M25.28,27.29a5,5,0,1,1,5-5A5,5,0,0,1,25.28,27.29Zm20.82-.53c-.91-.7-3.47-.68-4.45-1a16.9,16.9,0,0,0-.14-7.55c1-.36,3.51-.45,4.38-1.18C47,16.06,44,11.39,44,11.39S41.44,6.4,40,6.91C39,7.3,37.59,9.5,36.8,10.15a16.71,16.71,0,0,0-7.1-4c.1-1,1.39-3.34,1.19-4.5C30.62.16,25,.48,25,.48S19.45.16,19.19,1.64c-.22,1.22,1.23,3.78,1.2,4.64a16.65,16.65,0,0,0-7.3,4.55c-.7-.08-2.44-2.85-3.7-3.25C8,7.13,5.66,12.22,5.66,12.22S2.79,17,4,17.94s5.25.59,4.8,1.44l.05-.11a16.92,16.92,0,0,0,.2,7L8.93,26c.48.84-3.59.68-4.74,1.65s1.93,5.64,1.93,5.64,2.52,5,3.93,4.48,3.3-4.13,3.78-3.3l-.05-.08a16.53,16.53,0,0,0,6.58,3.85c.27.64-1.4,3.49-1.17,4.8.26,1.47,5.85,1.16,5.85,1.16s5.58.31,5.85-1.16c.21-1.23-1.24-3.8-1.2-4.65A16.7,16.7,0,0,0,37.24,34c.8.52,2.31,2.78,3.44,3.14,1.44.45,3.74-4.64,3.74-4.64S47.29,27.67,46.1,26.76Z"/><path class="cls-47" d="M25.38,27.28a5,5,0,1,1,5-5A5,5,0,0,1,25.38,27.28Zm20.83-.53c-.91-.7-3.48-.68-4.46-1a16.74,16.74,0,0,0-.13-7.56c1-.35,3.51-.44,4.38-1.17,1.14-1-1.93-5.65-1.93-5.65s-2.52-5-3.94-4.48c-1.08.39-2.43,2.59-3.23,3.23a16.63,16.63,0,0,0-7.1-4c.1-1,1.39-3.34,1.19-4.5C30.72.14,25.14.46,25.14.46S19.55.14,19.28,1.62c-.21,1.22,1.23,3.78,1.2,4.64a16.7,16.7,0,0,0-7.3,4.55c-.7-.08-2.44-2.86-3.7-3.25C8.05,7.1,5.74,12.2,5.74,12.2S2.87,17,4.06,17.93s5.26.58,4.81,1.43l.05-.11a16.51,16.51,0,0,0,.2,7L9,26c.48.84-3.6.68-4.75,1.65S6.2,33.3,6.2,33.3s2.53,5,3.94,4.48,3.3-4.13,3.78-3.29l-.05-.09a16.62,16.62,0,0,0,6.58,3.86c.28.64-1.4,3.49-1.17,4.8.27,1.47,5.86,1.16,5.86,1.16s5.58.31,5.85-1.16c.21-1.23-1.24-3.8-1.2-4.65A16.72,16.72,0,0,0,37.34,34c.81.52,2.32,2.79,3.45,3.15,1.43.45,3.74-4.65,3.74-4.65S47.4,27.66,46.21,26.75Z"/><path class="cls-48" d="M25.48,27.27a5,5,0,1,1,5-5A5,5,0,0,1,25.48,27.27Zm20.84-.54c-.91-.7-3.48-.67-4.46-1a16.73,16.73,0,0,0,.37-3.49,17,17,0,0,0-.5-4.07c1-.36,3.51-.45,4.38-1.18,1.15-1-1.93-5.65-1.93-5.65s-2.53-5-3.94-4.48C39.16,7.26,37.8,9.46,37,10.1a16.85,16.85,0,0,0-7.11-4c.1-1,1.39-3.34,1.19-4.5C30.82.11,25.23.43,25.23.43S19.64.11,19.38,1.59c-.22,1.22,1.23,3.79,1.19,4.64a16.81,16.81,0,0,0-7.3,4.56c-.7-.08-2.44-2.86-3.7-3.26-1.44-.45-3.74,4.65-3.74,4.65S3,17,4.15,17.91s5.26.58,4.81,1.44l0-.11a16.52,16.52,0,0,0-.28,3,16.79,16.79,0,0,0,.48,4L9.1,26c.49.84-3.59.68-4.74,1.65s1.93,5.64,1.93,5.64,2.52,5,3.94,4.49,3.3-4.13,3.78-3.3l0-.08a16.74,16.74,0,0,0,6.58,3.86c.28.64-1.4,3.49-1.16,4.79.26,1.48,5.85,1.17,5.85,1.17s5.59.31,5.86-1.17c.22-1.22-1.24-3.8-1.2-4.64A16.69,16.69,0,0,0,37.44,34c.81.53,2.32,2.8,3.46,3.15,1.43.45,3.74-4.65,3.74-4.65S47.51,27.65,46.32,26.73Z"/><path class="cls-49" d="M25.58,27.26a5,5,0,1,1,5-5A5,5,0,0,1,25.58,27.26Zm20.85-.54c-.91-.7-3.48-.67-4.46-1a16.56,16.56,0,0,0-.14-7.56c1-.36,3.52-.45,4.39-1.18,1.15-1-1.93-5.65-1.93-5.65s-2.53-5-3.94-4.49c-1.08.39-2.44,2.59-3.24,3.24a16.85,16.85,0,0,0-7.11-4c.1-1,1.4-3.34,1.19-4.51C30.92.08,25.33.4,25.33.4S19.74.08,19.47,1.56c-.22,1.23,1.23,3.79,1.2,4.65a16.7,16.7,0,0,0-7.31,4.56c-.7-.08-2.44-2.86-3.7-3.26-1.44-.45-3.75,4.65-3.75,4.65S3,17,4.23,17.89s5.26.59,4.82,1.44l0-.11a17.64,17.64,0,0,0-.27,3,16.87,16.87,0,0,0,.48,4L9.19,26c.48.83-3.6.67-4.75,1.65s1.93,5.65,1.93,5.65,2.53,5,3.94,4.48,3.31-4.13,3.79-3.29l0-.09a16.66,16.66,0,0,0,6.59,3.86c.28.64-1.4,3.49-1.17,4.8.27,1.48,5.86,1.17,5.86,1.17s5.59.31,5.86-1.17c.22-1.22-1.24-3.8-1.2-4.65A16.75,16.75,0,0,0,37.55,34c.81.52,2.32,2.79,3.45,3.15,1.44.45,3.75-4.66,3.75-4.66S47.62,27.64,46.43,26.72Z"/><path class="cls-50" d="M25.67,27.25a5,5,0,1,1,5-5A5,5,0,0,1,25.67,27.25Zm20.87-.54c-.91-.7-3.48-.67-4.46-1a17,17,0,0,0-.14-7.57c1-.35,3.52-.44,4.39-1.18,1.15-1-1.93-5.65-1.93-5.65s-2.53-5-3.95-4.49c-1.08.39-2.44,2.59-3.23,3.24A16.8,16.8,0,0,0,30.1,6c.1-1,1.4-3.34,1.19-4.5C31,.05,25.43.37,25.43.37s-5.6-.32-5.86,1.17c-.22,1.22,1.23,3.79,1.19,4.64a16.72,16.72,0,0,0-7.31,4.57c-.7-.08-2.44-2.87-3.71-3.26C8.31,7,6,12.14,6,12.14S3.12,17,4.31,17.88s5.27.58,4.82,1.44l0-.11a16.52,16.52,0,0,0-.28,3,16.73,16.73,0,0,0,.48,4L9.28,26c.48.83-3.6.67-4.75,1.65s1.93,5.65,1.93,5.65,2.53,5,3.94,4.49,3.31-4.14,3.8-3.3l-.06-.08a16.78,16.78,0,0,0,6.59,3.86c.28.64-1.4,3.49-1.16,4.8.26,1.49,5.86,1.17,5.86,1.17s5.59.32,5.86-1.17c.22-1.22-1.24-3.8-1.2-4.65A16.72,16.72,0,0,0,37.65,34c.81.52,2.33,2.8,3.46,3.15,1.44.45,3.75-4.65,3.75-4.65S47.73,27.63,46.54,26.71Z"/><path class="cls-51" d="M25.77,27.24a5,5,0,1,1,5-5A5,5,0,0,1,25.77,27.24Zm20.88-.54c-.91-.7-3.48-.67-4.46-1a17.43,17.43,0,0,0,.36-3.49,16.58,16.58,0,0,0-.5-4.08c1-.36,3.52-.45,4.39-1.18,1.15-1-1.93-5.66-1.93-5.66S42,6.28,40.56,6.8c-1.08.39-2.44,2.59-3.24,3.24A16.74,16.74,0,0,0,30.2,6c.1-1,1.4-3.35,1.19-4.51C31.13,0,25.52.35,25.52.35S19.92,0,19.66,1.51c-.22,1.22,1.23,3.79,1.2,4.65a16.81,16.81,0,0,0-7.32,4.57c-.7-.08-2.44-2.87-3.71-3.27C8.39,7,6.08,12.12,6.08,12.12S3.21,16.94,4.4,17.86s5.27.58,4.82,1.44l0-.11a16.56,16.56,0,0,0,.2,7L9.36,26c.49.83-3.6.67-4.75,1.64s1.93,5.66,1.93,5.66,2.53,5,4,4.5,3.31-4.14,3.8-3.31l-.06-.08a16.72,16.72,0,0,0,6.6,3.87c.28.64-1.41,3.49-1.17,4.8.26,1.49,5.86,1.17,5.86,1.17s5.61.32,5.87-1.17c.22-1.23-1.24-3.81-1.2-4.65a16.77,16.77,0,0,0,7.57-4.46c.81.53,2.32,2.8,3.46,3.16,1.43.45,3.75-4.66,3.75-4.66S47.84,27.62,46.65,26.7Z"/><path class="cls-52" d="M25.87,27.23a5,5,0,1,1,5-5A5,5,0,0,1,25.87,27.23Zm20.89-.54c-.91-.7-3.48-.67-4.47-1a16.83,16.83,0,0,0,.37-3.5,17.14,17.14,0,0,0-.5-4.08c1-.36,3.52-.45,4.39-1.18,1.15-1-1.93-5.66-1.93-5.66s-2.54-5-3.95-4.5c-1.09.4-2.45,2.6-3.25,3.25A16.74,16.74,0,0,0,30.3,6c.1-1,1.4-3.35,1.19-4.52C31.23,0,25.62.32,25.62.32S20,0,19.75,1.48C19.53,2.71,21,5.28,21,6.14a16.72,16.72,0,0,0-7.32,4.57c-.71-.08-2.45-2.87-3.71-3.27C8.48,7,6.17,12.1,6.17,12.1s-2.88,4.82-1.69,5.74,5.27.59,4.83,1.45l0-.11a17.46,17.46,0,0,0-.27,3,16.81,16.81,0,0,0,.48,4L9.45,26c.49.84-3.6.68-4.76,1.65s1.94,5.67,1.94,5.67,2.53,5,4,4.49,3.31-4.14,3.8-3.3l-.06-.09a16.72,16.72,0,0,0,6.6,3.87c.28.64-1.4,3.5-1.17,4.81.27,1.49,5.87,1.17,5.87,1.17s5.61.32,5.87-1.17c.22-1.23-1.24-3.81-1.2-4.66a16.66,16.66,0,0,0,7.57-4.45c.81.52,2.33,2.8,3.47,3.15,1.43.46,3.75-4.66,3.75-4.66S48,27.61,46.76,26.69Z"/><path class="cls-53" d="M26,27.22a5,5,0,1,1,5-5A5,5,0,0,1,26,27.22Zm20.9-.54c-.91-.7-3.49-.68-4.47-1a16.83,16.83,0,0,0,.37-3.5,17.22,17.22,0,0,0-.5-4.09c1-.35,3.52-.44,4.39-1.18,1.15-1-1.94-5.66-1.94-5.66s-2.53-5-3.95-4.5c-1.08.39-2.44,2.6-3.24,3.25A16.79,16.79,0,0,0,30.4,6c.1-1,1.4-3.35,1.19-4.51C31.33,0,25.72.29,25.72.29S20.11,0,19.85,1.46c-.22,1.22,1.23,3.79,1.2,4.65a16.87,16.87,0,0,0-7.33,4.57C13,10.61,11.27,7.82,10,7.42,8.57,7,6.25,12.08,6.25,12.08s-2.88,4.83-1.68,5.75,5.27.58,4.82,1.44l0-.11a17.06,17.06,0,0,0,.2,7l-.1-.22c.48.84-3.61.68-4.76,1.65s1.93,5.67,1.93,5.67,2.54,5,4,4.5,3.32-4.15,3.81-3.31l-.06-.08A16.69,16.69,0,0,0,21,38.24c.27.64-1.41,3.5-1.17,4.81.26,1.49,5.87,1.17,5.87,1.17s5.61.32,5.87-1.17c.22-1.23-1.24-3.81-1.2-4.66A16.85,16.85,0,0,0,38,33.93c.81.52,2.33,2.8,3.46,3.16,1.44.45,3.75-4.67,3.75-4.67S48.06,27.6,46.87,26.68Z"/><path class="cls-54" d="M26.06,27.21a5,5,0,1,1,5.05-5A5,5,0,0,1,26.06,27.21ZM47,26.67c-.91-.7-3.49-.68-4.47-1a16.69,16.69,0,0,0-.14-7.59c1-.36,3.53-.45,4.4-1.18,1.15-1-1.94-5.67-1.94-5.67s-2.53-5-3.95-4.5c-1.08.39-2.45,2.6-3.25,3.24A16.78,16.78,0,0,0,30.5,6c.1-1,1.4-3.35,1.19-4.52C31.43-.06,25.82.26,25.82.26S20.2-.06,19.94,1.43c-.22,1.23,1.23,3.8,1.2,4.66a16.78,16.78,0,0,0-7.33,4.57c-.71-.07-2.45-2.87-3.72-3.27-1.44-.45-3.75,4.67-3.75,4.67s-2.88,4.83-1.69,5.75,5.28.59,4.83,1.44l0-.11a16.65,16.65,0,0,0,.2,7l-.1-.22c.48.84-3.61.68-4.77,1.65S6.8,33.25,6.8,33.25s2.53,5,4,4.5,3.32-4.14,3.81-3.3l-.06-.09a16.76,16.76,0,0,0,6.61,3.87c.28.65-1.4,3.51-1.17,4.82.26,1.49,5.88,1.17,5.88,1.17s5.61.32,5.87-1.17c.22-1.23-1.24-3.81-1.2-4.67a16.69,16.69,0,0,0,7.58-4.45c.81.52,2.33,2.8,3.47,3.16,1.44.45,3.75-4.67,3.75-4.67S48.18,27.59,47,26.67Z"/><path class="cls-55" d="M26.16,27.2a5,5,0,1,1,5.05-5.05A5,5,0,0,1,26.16,27.2Zm20.93-.54c-.91-.71-3.49-.68-4.47-1A16.92,16.92,0,0,0,43,22.15a16.72,16.72,0,0,0-.5-4.09c1-.36,3.53-.45,4.4-1.18,1.15-1-1.94-5.67-1.94-5.67S42.41,6.19,41,6.7c-1.09.4-2.45,2.6-3.25,3.25a16.87,16.87,0,0,0-7.14-4c.1-1,1.4-3.36,1.19-4.53C31.53-.08,25.91.24,25.91.24S20.3-.08,20,1.4c-.22,1.23,1.24,3.8,1.2,4.66a16.86,16.86,0,0,0-7.33,4.58c-.71-.08-2.45-2.87-3.72-3.27C8.74,6.92,6.42,12,6.42,12s-2.88,4.83-1.69,5.75,5.29.59,4.84,1.45l0-.11a16.71,16.71,0,0,0-.28,3,16.9,16.9,0,0,0,.48,4l-.11-.22c.49.84-3.61.68-4.76,1.65s1.93,5.68,1.93,5.68,2.54,5,4,4.5,3.32-4.15,3.81-3.31l-.06-.09a16.66,16.66,0,0,0,6.61,3.88c.28.64-1.4,3.5-1.17,4.82.27,1.49,5.88,1.17,5.88,1.17s5.62.32,5.88-1.17c.22-1.23-1.24-3.82-1.2-4.67a16.83,16.83,0,0,0,7.59-4.46c.81.52,2.33,2.8,3.47,3.16,1.44.45,3.75-4.67,3.75-4.67S48.29,27.58,47.09,26.66Z"/><path class="cls-56" d="M26.26,27.19a5.05,5.05,0,1,1,5-5.05A5,5,0,0,1,26.26,27.19Zm20.94-.54c-.91-.71-3.49-.68-4.48-1a16.87,16.87,0,0,0-.13-7.59c1-.36,3.53-.45,4.4-1.19,1.15-1-1.94-5.68-1.94-5.68s-2.54-5-4-4.5c-1.08.39-2.45,2.6-3.25,3.25a16.77,16.77,0,0,0-7.14-4c.1-1,1.4-3.36,1.19-4.52C31.63-.11,26,.21,26,.21s-5.62-.32-5.88,1.17c-.22,1.22,1.23,3.8,1.2,4.66A16.84,16.84,0,0,0,14,10.62c-.71-.08-2.45-2.87-3.72-3.27C8.83,6.89,6.51,12,6.51,12s-2.89,4.83-1.69,5.76,5.28.58,4.83,1.44l0-.11a16.74,16.74,0,0,0-.27,3,16.45,16.45,0,0,0,.48,4l-.11-.22c.49.84-3.62.68-4.77,1.65S7,33.24,7,33.24s2.54,5,4,4.51,3.32-4.16,3.81-3.32l-.06-.08a16.81,16.81,0,0,0,6.62,3.88c.28.64-1.41,3.5-1.17,4.82.26,1.49,5.88,1.17,5.88,1.17s5.62.32,5.88-1.17c.22-1.23-1.24-3.82-1.2-4.67a16.76,16.76,0,0,0,7.59-4.47c.82.53,2.34,2.81,3.47,3.17,1.44.45,3.76-4.68,3.76-4.68S48.4,27.57,47.2,26.65Z"/><path class="cls-57" d="M26.36,27.18a5.06,5.06,0,1,1,5.05-5.06A5.07,5.07,0,0,1,26.36,27.18Zm21-.54c-.91-.71-3.49-.68-4.48-1a16.85,16.85,0,0,0,.37-3.51A17.22,17.22,0,0,0,42.7,18c1-.36,3.53-.45,4.4-1.19,1.16-1-1.94-5.68-1.94-5.68s-2.54-5-4-4.5c-1.09.39-2.45,2.6-3.25,3.25a16.87,16.87,0,0,0-7.15-4c.1-1,1.4-3.36,1.2-4.53C31.73-.14,26.11.18,26.11.18s-5.62-.32-5.89,1.17C20,2.58,21.46,5.16,21.42,6a16.84,16.84,0,0,0-7.34,4.58c-.71-.08-2.46-2.88-3.72-3.27C8.91,6.87,6.59,12,6.59,12S3.71,16.84,4.9,17.76s5.29.59,4.84,1.45l0-.11a16.71,16.71,0,0,0-.28,3,17,17,0,0,0,.48,4l-.1-.22c.48.84-3.62.68-4.78,1.65s1.94,5.68,1.94,5.68,2.54,5,4,4.51,3.32-4.15,3.81-3.31l-.06-.09a16.81,16.81,0,0,0,6.62,3.88c.28.65-1.4,3.51-1.17,4.83.27,1.49,5.89,1.17,5.89,1.17s5.62.32,5.89-1.17c.22-1.24-1.25-3.82-1.21-4.68a16.78,16.78,0,0,0,7.6-4.46c.81.52,2.33,2.8,3.47,3.16,1.44.46,3.76-4.68,3.76-4.68S48.51,27.56,47.31,26.64Z"/><path class="cls-58" d="M26.45,27.17a5.06,5.06,0,1,1,5.06-5.06A5.06,5.06,0,0,1,26.45,27.17Zm21-.55c-.91-.7-3.49-.67-4.48-1A16.78,16.78,0,0,0,42.8,18c1-.36,3.54-.45,4.41-1.18,1.16-1-1.94-5.69-1.94-5.69s-2.54-5-4-4.51c-1.09.4-2.46,2.61-3.26,3.26a16.83,16.83,0,0,0-7.15-4c.1-1,1.41-3.36,1.2-4.53C31.83-.17,26.21.15,26.21.15s-5.63-.32-5.9,1.17C20.09,2.55,21.55,5.13,21.52,6a16.83,16.83,0,0,0-7.35,4.59c-.71-.08-2.46-2.88-3.73-3.28C9,6.85,6.68,12,6.68,12S3.79,16.82,5,17.74s5.29.59,4.84,1.45l.05-.11a16.7,16.7,0,0,0,.2,7L10,25.89c.49.84-3.62.68-4.77,1.65s1.94,5.69,1.94,5.69,2.54,5,4,4.51,3.33-4.16,3.82-3.32l-.06-.08a16.85,16.85,0,0,0,6.63,3.88c.28.64-1.41,3.51-1.18,4.83.27,1.49,5.9,1.17,5.9,1.17s5.62.32,5.89-1.17c.22-1.24-1.25-3.83-1.21-4.68a16.8,16.8,0,0,0,7.6-4.47c.82.52,2.34,2.81,3.48,3.17,1.44.45,3.76-4.68,3.76-4.68S48.62,27.55,47.42,26.62Z"/><path class="cls-59" d="M26.55,27.15a5.06,5.06,0,1,1,5.06-5A5.06,5.06,0,0,1,26.55,27.15Zm21-.54c-.91-.7-3.5-.67-4.48-1a16.92,16.92,0,0,0,.37-3.51,16.75,16.75,0,0,0-.51-4.1c1-.36,3.54-.45,4.41-1.19,1.16-1-1.94-5.69-1.94-5.69s-2.54-5-4-4.51C40.33,7,39,9.22,38.16,9.87a16.82,16.82,0,0,0-7.16-4c.1-1,1.41-3.36,1.2-4.53C31.93-.19,26.3.13,26.3.13S20.67-.19,20.41,1.3c-.22,1.23,1.24,3.81,1.2,4.67a16.8,16.8,0,0,0-7.35,4.59c-.71-.08-2.46-2.88-3.73-3.28C9.09,6.82,6.76,12,6.76,12S3.87,16.8,5.07,17.73s5.3.59,4.85,1.45l0-.11a17.69,17.69,0,0,0-.27,3,17,17,0,0,0,.48,4l-.11-.22c.49.85-3.62.68-4.78,1.66s2,5.69,2,5.69,2.54,5,4,4.51,3.33-4.16,3.82-3.32L15,34.33a17,17,0,0,0,6.63,3.89c.28.64-1.41,3.51-1.17,4.83.26,1.49,5.89,1.17,5.89,1.17s5.63.32,5.9-1.17c.22-1.24-1.25-3.83-1.21-4.68a16.85,16.85,0,0,0,7.61-4.48c.81.53,2.33,2.81,3.47,3.17,1.45.46,3.77-4.68,3.77-4.68S48.73,27.54,47.53,26.61Z"/><path class="cls-60" d="M26.65,27.14a5.06,5.06,0,1,1,5.06-5.06A5.05,5.05,0,0,1,26.65,27.14Zm21-.54c-.91-.7-3.5-.68-4.49-1a17,17,0,0,0,.37-3.52A16.8,16.8,0,0,0,43,18c1-.36,3.54-.45,4.41-1.19,1.16-1-1.94-5.69-1.94-5.69s-2.55-5-4-4.52c-1.09.4-2.46,2.61-3.26,3.27a16.82,16.82,0,0,0-7.16-4c.1-1,1.41-3.37,1.2-4.54C32-.22,26.4.1,26.4.1s-5.63-.32-5.9,1.17C20.28,2.5,21.74,5.08,21.71,6a16.77,16.77,0,0,0-7.36,4.59c-.71-.08-2.46-2.88-3.73-3.28-1.45-.46-3.77,4.68-3.77,4.68S4,16.79,5.15,17.71s5.3.59,4.85,1.45l.05-.11a16.74,16.74,0,0,0,.2,7l-.1-.22c.49.84-3.63.68-4.78,1.66s1.94,5.69,1.94,5.69,2.55,5,4,4.52,3.33-4.16,3.82-3.32L15,34.32a16.72,16.72,0,0,0,6.64,3.89c.28.65-1.41,3.52-1.18,4.84.27,1.49,5.9,1.17,5.9,1.17s5.63.32,5.9-1.17c.22-1.24-1.25-3.83-1.21-4.69a16.78,16.78,0,0,0,7.61-4.47c.82.52,2.34,2.81,3.48,3.17,1.45.45,3.77-4.69,3.77-4.69S48.84,27.53,47.64,26.6Z"/><path class="cls-61" d="M26.75,27.13a5.06,5.06,0,1,1,5.06-5.06A5.06,5.06,0,0,1,26.75,27.13Zm21-.54c-.92-.7-3.51-.68-4.5-1a17,17,0,0,0,.37-3.52,17.39,17.39,0,0,0-.5-4.11c1-.36,3.54-.45,4.41-1.18,1.16-1-1.94-5.7-1.94-5.7s-2.55-5-4-4.52c-1.09.4-2.46,2.61-3.26,3.26a16.9,16.9,0,0,0-7.17-4c.1-1,1.41-3.37,1.2-4.54C32.13-.25,26.5.07,26.5.07s-5.64-.32-5.91,1.17c-.22,1.23,1.24,3.82,1.21,4.68a16.85,16.85,0,0,0-7.36,4.6c-.71-.08-2.46-2.89-3.74-3.29-1.44-.45-3.77,4.69-3.77,4.69S4,16.77,5.24,17.7s5.3.58,4.85,1.45l.05-.12a16.79,16.79,0,0,0,.2,7l-.1-.22c.48.84-3.63.68-4.79,1.66s2,5.7,2,5.7,2.54,5,4,4.52,3.33-4.17,3.82-3.33l-.06-.08a17,17,0,0,0,6.64,3.89c.28.64-1.41,3.52-1.18,4.83.27,1.5,5.91,1.18,5.91,1.18s5.63.32,5.9-1.18c.22-1.23-1.25-3.83-1.21-4.68a16.88,16.88,0,0,0,7.62-4.48c.81.53,2.34,2.81,3.48,3.17,1.44.46,3.77-4.68,3.77-4.68S49,27.52,47.76,26.59Z"/><path class="cls-62" d="M26.84,27.12a5.07,5.07,0,1,1,5.07-5.06A5.06,5.06,0,0,1,26.84,27.12Zm21-.54c-.92-.71-3.51-.68-4.5-1A16.82,16.82,0,0,0,43.23,18c1-.36,3.55-.45,4.42-1.19,1.16-1-1.94-5.7-1.94-5.7s-2.55-5-4-4.52c-1.09.39-2.45,2.61-3.26,3.26a16.79,16.79,0,0,0-7.17-4c.1-1,1.41-3.37,1.2-4.54C32.23-.28,26.59,0,26.59,0S21-.28,20.69,1.22C20.47,2.45,21.93,5,21.9,5.9a16.83,16.83,0,0,0-7.37,4.6c-.71-.08-2.46-2.89-3.74-3.29C9.35,6.75,7,11.9,7,11.9s-2.9,4.85-1.7,5.78,5.31.59,4.86,1.45l.05-.11a16.79,16.79,0,0,0,.2,7l-.11-.22c.49.84-3.63.68-4.78,1.66s1.94,5.7,1.94,5.7,2.55,5,4,4.52,3.33-4.17,3.82-3.32l-.06-.09a16.76,16.76,0,0,0,6.65,3.89c.27.65-1.42,3.52-1.18,4.84.26,1.5,5.9,1.18,5.9,1.18s5.64.32,5.91-1.18c.22-1.23-1.25-3.83-1.21-4.69a16.65,16.65,0,0,0,7.62-4.48c.82.53,2.34,2.82,3.49,3.18,1.44.45,3.77-4.69,3.77-4.69S49.07,27.51,47.87,26.58Z"/><path class="cls-63" d="M47.87,26.58c-.92-.71-3.51-.68-4.5-1a17.09,17.09,0,0,0,.37-3.52,16.74,16.74,0,0,0-.46-3.91,1.46,1.46,0,0,0-.05-.2c1-.37,3.55-.45,4.43-1.19,1.15-1-1.95-5.7-1.95-5.7s-2.55-5-4-4.52c-1.08.4-2.46,2.61-3.26,3.27A16.71,16.71,0,0,0,31.3,5.76c.1-1,1.41-3.37,1.2-4.54C32.23-.28,26.59.05,26.59.05S21-.28,20.69,1.22C20.47,2.45,21.93,5,21.9,5.9a16.9,16.9,0,0,0-7.37,4.59c-.71-.07-2.46-2.88-3.74-3.28C9.35,6.76,7,11.9,7,11.9s-2.9,4.85-1.7,5.78,5.08.61,4.89,1.38v0A17,17,0,0,0,10,22v.08a16.59,16.59,0,0,0,.48,4l-.11-.22c.49.84-3.63.68-4.79,1.66s2,5.7,2,5.7,2.55,5,4,4.52,3.24-4,3.79-3.38l0,0a16.9,16.9,0,0,0,6.65,3.9c.27.64-1.42,3.52-1.18,4.84.26,1.49,5.9,1.17,5.9,1.17s5.64.32,5.91-1.17c.22-1.24-1.25-3.84-1.21-4.69a16.9,16.9,0,0,0,7.62-4.49c.82.53,2.34,2.82,3.49,3.18,1.44.46,3.77-4.69,3.77-4.69S49.07,27.51,47.87,26.58Zm-21,.54a5.07,5.07,0,1,1,5.07-5.06A5.07,5.07,0,0,1,26.84,27.12Z"/><path class="cls-64" d="M.28,18.67c-.17-.21,4.53-1.09,5.32-.82s4.33.87,4.33.87a23.54,23.54,0,0,1-4.35,1.13C4.85,19.74.52,19.07.28,18.67Z"/><path class="cls-64" d="M16.24,7.33S21.92,6.17,21.9,5.9s-1-4.4-1.76-4.51a17.75,17.75,0,0,0-4.78,1.43C15.05,3.07,16.24,7.33,16.24,7.33Z"/><path class="cls-65" d="M.28,28.65c.77-.84,4.31-1.4,5.34-1.53a40.92,40.92,0,0,0,4.58-.92,23.5,23.5,0,0,0-5,.54c-.66.3-1.91.28-3.48.67S.28,28.65.28,28.65Z"/><path class="cls-64" d="M15.07,43.09c.18.66,4.58-.29,5.13-.64s1.91-4.17,1.67-4.25-5.21.34-5.21.34S14.79,42,15.07,43.09Z"/><path class="cls-66" d="M4.42,17.05a14.86,14.86,0,0,1-3.84.8C0,17.85,3.05,11,4.21,9.67S8.51,7.81,9,7.88,4.61,17,4.42,17.05Z"/><path class="cls-67" d="M5.1,16.51s3-6.89,3.58-7.68S6.5,10.27,5.1,16.51Z"/><path class="cls-68" d="M5.68,37.94C4.5,37.7-.08,29.88.51,29s3.52-.55,4-.37S9.61,37,9.68,37.21,6.22,38.05,5.68,37.94Z"/><path class="cls-69" d="M26.2,11.89A10.25,10.25,0,1,0,36.44,22.13,10.25,10.25,0,0,0,26.2,11.89Zm0,15.31a5.07,5.07,0,1,1,5.06-5.07A5.07,5.07,0,0,1,26.2,27.2Z"/><path class="cls-70" d="M27.49,11.89A10.25,10.25,0,1,0,37.73,22.13,10.24,10.24,0,0,0,27.49,11.89Zm0,15.31a5.07,5.07,0,1,1,5.07-5.07A5.07,5.07,0,0,1,27.49,27.2Z"/><path class="cls-64" d="M17.25,27.09a10.54,10.54,0,0,0,9.59,5c6.59-.42,9.35-4.58,9.35-4.58s-1.71,6.41-9.6,6.63A9.07,9.07,0,0,1,17.25,27.09Z"/><path class="cls-71" d="M17.34,20.74c0,1.43,2.94,2.91,3.66,3.07s1.26-5.41,4.88-6.76,6.45,1.95,6.94,3.13,3-.76,3.62-1.24-2.14-7.72-9.85-7S17.4,18.4,17.34,20.74Z"/><path class="cls-72" d="M47.66,16.76c-.88.74-3.43.82-4.43,1.19a1.46,1.46,0,0,1,.05.2c-3,.39-5.59.49-6.11-.3-1.31-2-6.06-9-14.22-5.93s-7,13-7.65,13.2-4.64-.89-4.64-3L10,22a17,17,0,0,1,.27-3v0c.19-.77-3.72-.48-4.89-1.38S7,11.9,7,11.9s2.33-5.14,3.77-4.69c1.28.4,3,3.21,3.74,3.28A16.9,16.9,0,0,1,21.9,5.9c0-.87-1.43-3.45-1.21-4.68C21-.28,26.59.05,26.59.05s5.64-.33,5.91,1.17c.21,1.17-1.1,3.56-1.2,4.54a16.71,16.71,0,0,1,7.17,4.05c.8-.66,2.18-2.87,3.26-3.27,1.43-.52,4,4.52,4,4.52S48.81,15.78,47.66,16.76Z"/><path class="cls-73" d="M20.69,1.22S25.34.27,27.75,0A29.81,29.81,0,0,0,21.9.35C20.34.81,20.69,1.22,20.69,1.22Z"/><path class="cls-73" d="M38.47,9.81A9.12,9.12,0,0,0,40.72,8C41.41,7.12,42,6.5,42,6.5S40.9,6.15,38.47,9.81Z"/><path class="cls-73" d="M43.37,25.58a38.49,38.49,0,0,1,4.54,1.62c.13.26.25-.11.25-.11S48.78,26,43.37,25.58Z"/><path class="cls-64" d="M23.84,18.62c-.26.46,1.88,1,2.42,3.44s5.83.33,5.87-1.06S29.05,15.23,23.84,18.62Z"/><path class="cls-74" d="M19.94,15.17c-.6,1.34,3.63,1.43,4.77,0a1.6,1.6,0,0,0-.89-2.57C23.41,12.61,20.72,13.45,19.94,15.17Z"/><path class="cls-74" d="M15,10.64c-.35,1.42,3.26.69,3.56-1.4S15.44,9.06,15,10.64Z"/><path class="cls-75" d="M34.2,35.74c-1.11-.32,2.72-3.49,3.85-3.26S37.28,36.63,34.2,35.74Z"/></g></g></g></svg>