<svg xmlns="http://www.w3.org/2000/svg" xmlns:xlink="http://www.w3.org/1999/xlink" viewBox="0 0 58.36 48.15"><defs><style>.cls-1{isolation:isolate;}.cls-2{fill:url(#Безымянный_градиент_676);}.cls-3{fill:url(#Безымянный_градиент_696);}.cls-4{fill:url(#Безымянный_градиент_660);}.cls-5{fill:url(#Безымянный_градиент_37);}.cls-6{fill:url(#Безымянный_градиент_638);}.cls-7{fill:url(#Безымянный_градиент_37-2);}.cls-8{fill:url(#Безымянный_градиент_14);}.cls-9{fill:url(#Безымянный_градиент_689);}.cls-10{fill:url(#Безымянный_градиент_14-2);}.cls-11{fill:url(#Безымянный_градиент_689-2);}.cls-12{fill:url(#Безымянный_градиент_33);}.cls-13{fill:#912790;}.cls-13,.cls-15,.cls-17{mix-blend-mode:multiply;}.cls-13,.cls-14,.cls-15,.cls-17{opacity:0.5;}.cls-14,.cls-16,.cls-18{fill:#fff;mix-blend-mode:soft-light;}.cls-15{fill:#912774;}.cls-16{opacity:0.8;}.cls-17{fill:#a34aa2;}</style><linearGradient id="Безымянный_градиент_676" x1="41.37" y1="48.15" x2="41.37" gradientUnits="userSpaceOnUse"><stop offset="0" stop-color="#de0057"/><stop offset="1" stop-color="#83003b"/></linearGradient><linearGradient id="Безымянный_градиент_696" x1="25.92" y1="43.5" x2="25.92" y2="1.27" gradientUnits="userSpaceOnUse"><stop offset="0" stop-color="#3d069a"/><stop offset="1" stop-color="#6509ba"/></linearGradient><linearGradient id="Безымянный_градиент_660" x1="24.37" y1="48.15" x2="24.37" y2="6.58" gradientUnits="userSpaceOnUse"><stop offset="0" stop-color="#512eff"/><stop offset="1" stop-color="#7c1acc"/></linearGradient><linearGradient id="Безымянный_градиент_37" x1="45.86" y1="6.58" x2="45.86" gradientUnits="userSpaceOnUse"><stop offset="0" stop-color="#f8e1f2"/><stop offset="1" stop-color="#e5eaff"/></linearGradient><linearGradient id="Безымянный_градиент_638" x1="35.55" y1="48.15" x2="35.55" y2="6.58" gradientUnits="userSpaceOnUse"><stop offset="0" stop-color="#de0086"/><stop offset="1" stop-color="#ff003b"/></linearGradient><linearGradient id="Безымянный_градиент_37-2" x1="12.6" y1="6.58" x2="12.6" y2="1.26" xlink:href="#Безымянный_градиент_37"/><linearGradient id="Безымянный_градиент_14" x1="32.94" y1="11.17" x2="48.74" y2="11.17" gradientUnits="userSpaceOnUse"><stop offset="0" stop-color="#f2c6e6"/><stop offset="1" stop-color="#e3c2d6"/></linearGradient><linearGradient id="Безымянный_градиент_689" x1="52.76" y1="0.07" x2="52.97" y2="15.68" gradientUnits="userSpaceOnUse"><stop offset="0.01" stop-color="#bd9bb5"/><stop offset="1" stop-color="#9f819e"/></linearGradient><linearGradient id="Безымянный_градиент_14-2" x1="0" y1="10.67" x2="15.78" y2="10.67" xlink:href="#Безымянный_градиент_14"/><linearGradient id="Безымянный_градиент_689-2" x1="20.26" y1="1.33" x2="20.42" y2="13.81" xlink:href="#Безымянный_градиент_689"/><linearGradient id="Безымянный_градиент_33" x1="27.04" y1="35.95" x2="27.04" y2="30.34" gradientUnits="userSpaceOnUse"><stop offset="0" stop-color="#a10048"/><stop offset="1" stop-color="#83003b"/></linearGradient></defs><g class="cls-1"><g id="Слой_2" data-name="Слой 2"><g id="layer1"><path class="cls-2" d="M58.36,0s-4,22.05-6.55,28.91A26.1,26.1,0,0,1,48.53,35h0c-4.69,6.61-12.9,12.63-23,13.07-.39,0-.78,0-1.18,0l1.14-1.08L39.89,33.49,48.74,6.58Z"/><path class="cls-3" d="M15.38,6.58l9.83-5.31s-1.09,18.53.45,25.19c.89,3.84,4.57,8.07,12.45-1.72L29.29,43.5,13.73,36Z"/><path class="cls-4" d="M48.74,6.58l-3.16,21.2a26.18,26.18,0,0,1-3.39,9.55,0,0,0,0,0,0,0,23.76,23.76,0,0,1-5,5.86,19.9,19.9,0,0,1-12.85,4.93,16.65,16.65,0,0,1-2-.12c-9.24-1-17.5-9-19.19-20.19a.28.28,0,0,1,0-.06L0,6.58H15.38l1.17,21.2a8.66,8.66,0,0,0,5.82,8,7,7,0,0,0,2,.3c4.07,0,7.57-3.58,7.83-8.27l1.17-21.2Z"/><polygon class="cls-5" points="33.37 6.58 42.48 0.11 58.36 0 48.74 6.58 33.37 6.58"/><path class="cls-6" d="M48.74,6.58l-3.16,21.2c-1.8,12-11.18,20.37-21.21,20.37a16.65,16.65,0,0,1-2-.12V35.75a7,7,0,0,0,2,.3c4.07,0,7.57-3.58,7.83-8.27l1.17-21.2Z"/><path class="cls-7" d="M25.2,1.26,23.06,2.43,15.38,6.58H0l.08,0,.22-.1,1.37-.66L2,5.64,9.54,2Z"/><polygon class="cls-8" points="33.37 6.58 32.94 14.32 47.37 15.76 48.74 6.58 33.37 6.58"/><polygon class="cls-9" points="58.36 0 56.47 9.32 47.37 15.76 48.74 6.58 58.36 0"/><polygon class="cls-10" points="15.78 13.87 1.22 14.76 0 6.58 15.38 6.58 15.78 13.87"/><polygon class="cls-11" points="25.2 1.26 25.14 3.44 24.95 10.67 15.78 13.87 15.38 6.58 23.06 2.43 25.2 1.26"/><path class="cls-12" d="M22.37,35.75l6.47-5.13a5.69,5.69,0,0,0,2.87-.28S30,37.2,22.37,35.75Z"/><path class="cls-13" d="M49.62,6.58c-1.37.77-5,26.53-4.56,28.15s5-3.49,7.07-9S57.67,3.14,57.37,2,49.62,6.58,49.62,6.58Z"/><path class="cls-13" d="M16.36,6.58c-1.43.9,1,20.78,1.85,23.1s5.05-.55,6.16-2.32.33-21.13.43-24.07S16.36,6.58,16.36,6.58Z"/><path class="cls-14" d="M34,11.17c1.82-3.73,12.49-2.86,13.12-2s-1.34,19.57-3.88,25-8,9.67-11.49,8.84.63-10,1.23-15.63S33.66,11.78,34,11.17Z"/><path class="cls-14" d="M2,10.05C4.24,6.58,13.91,7,14.62,8.89S14.13,27.1,16.9,32.4s4.38,12.78,2.85,13.73S7.35,39.51,4.84,30.84,2,10.05,2,10.05Z"/><path class="cls-15" d="M25.55,48.1c-.39,0-.78,0-1.18,0a16.65,16.65,0,0,1-2-.12c-9.24-1-17.5-9-19.19-20.19.25,1,4.43,17.23,18.91,19a24.06,24.06,0,0,0,3.42.2,19,19,0,0,0,11.71-3.85,17.4,17.4,0,0,0,5-5.86,0,0,0,0,1,0,0s1.36,2.83,6.33-2.3C43.83,41.64,35.62,47.66,25.55,48.1Z"/><path class="cls-13" d="M16,7.88c-.36,2.12.81,10.58,2.3,11.82S24.43,6.78,24.2,4.36,16.38,5.55,16,7.88Z"/><path class="cls-16" d="M19.45,34.07c-2.46-3,10.86-2.37,11.37-2.19S25.86,39.42,19.45,34.07Z"/><path class="cls-17" d="M8.93,30.55c-1.75-.26-4.42-1.73-4.64-3.44h0a1.31,1.31,0,0,1,0-.28,8.27,8.27,0,0,1,3.62-6.38c1.57-.93,2.76,2.22,2.94,5.76v0c0,.2,0,.4,0,.6C10.92,30.6,10.79,30.83,8.93,30.55Z"/><path class="cls-17" d="M12.71,30.22h0a1.7,1.7,0,0,1-.23.93c-.27.33-.73-.16-1-.54h0l0,0a3.86,3.86,0,0,1-.22-.32c-.31-.8.88-1.2,1.17-1.25S12.71,29.6,12.71,30.22Z"/><path class="cls-13" d="M10.83,26.2c-.2-1-1.29-5.7-3.26-5.17-2.12.57-3,6.47-3.28,6.08h0a1.31,1.31,0,0,1,0-.28,8.27,8.27,0,0,1,3.62-6.38C9.46,19.51,10.65,22.66,10.83,26.2Z"/><path class="cls-13" d="M13,32.89h0s0,0,0,0Z"/><path class="cls-13" d="M12.71,30.22a6.58,6.58,0,0,0-.29-.9c-.09-.13-.51-.17-1,.3a.74.74,0,0,0,0,.94,3.86,3.86,0,0,1-.22-.32c-.31-.8.88-1.2,1.17-1.25S12.71,29.6,12.71,30.22Z"/><path class="cls-18" d="M18,32.4s1,2.7,4.77,4.19,7.38-3.45,7.38-3.45a7.45,7.45,0,0,1-7.38,2.58A6.81,6.81,0,0,1,18,32.4Z"/></g></g></g></svg>