<svg xmlns="http://www.w3.org/2000/svg" xmlns:xlink="http://www.w3.org/1999/xlink" viewBox="0 0 61.94 47.39"><defs><style>.cls-1{isolation:isolate;}.cls-2{fill:url(#Безымянный_градиент_557);}.cls-3{fill:url(#Безымянный_градиент_557-2);}.cls-4{fill:url(#Безымянный_градиент_140);}.cls-5{fill:url(#Безымянный_градиент_140-2);}.cls-6{fill:#ff4d74;opacity:0.2;}.cls-12,.cls-14,.cls-18,.cls-19,.cls-20,.cls-22,.cls-6{mix-blend-mode:multiply;}.cls-7{fill:url(#Безымянный_градиент_558);}.cls-8{fill:url(#Безымянный_градиент_554);}.cls-9{fill:url(#Безымянный_градиент_140-3);}.cls-10{fill:url(#Безымянный_градиент_554-2);}.cls-11{fill:url(#Безымянный_градиент_560);}.cls-12,.cls-14{fill:#de5155;}.cls-12,.cls-24{opacity:0.3;}.cls-13,.cls-21{fill:#ff450c;mix-blend-mode:screen;}.cls-13,.cls-14,.cls-18,.cls-19,.cls-20,.cls-22{opacity:0.5;}.cls-15,.cls-16,.cls-24{fill:#fff;}.cls-15,.cls-24{mix-blend-mode:soft-light;}.cls-17{fill:#ffe861;}.cls-19{fill:#e56d8d;}.cls-20{fill:#be2f55;}.cls-22{fill:#e52f55;}.cls-23{fill:url(#Безымянный_градиент_533);}.cls-25{fill:url(#Безымянный_градиент_140-4);}.cls-26{fill:url(#Безымянный_градиент_554-3);}.cls-27{fill:url(#Безымянный_градиент_554-4);}</style><linearGradient id="Безымянный_градиент_557" x1="40.73" y1="17.58" x2="60.36" y2="17.58" gradientUnits="userSpaceOnUse"><stop offset="0" stop-color="#fa9300"/><stop offset="0.45" stop-color="#f66a00"/><stop offset="1" stop-color="#f63f00"/></linearGradient><linearGradient id="Безымянный_градиент_557-2" x1="31.27" y1="17.58" x2="50.9" y2="17.58" gradientTransform="matrix(-1, 0, 0, 1, 52.54, 0)" xlink:href="#Безымянный_градиент_557"/><linearGradient id="Безымянный_градиент_140" x1="51.39" y1="30.2" x2="51.39" y2="6.92" gradientUnits="userSpaceOnUse"><stop offset="0" stop-color="#ff9600"/><stop offset="1" stop-color="#ffa900"/></linearGradient><linearGradient id="Безымянный_градиент_140-2" x1="10.56" y1="30.2" x2="10.56" y2="6.92" xlink:href="#Безымянный_градиент_140"/><linearGradient id="Безымянный_градиент_558" x1="1.72" y1="7.56" x2="14.55" y2="7.56" gradientUnits="userSpaceOnUse"><stop offset="0" stop-color="#ffe834"/><stop offset="1" stop-color="#ffcd00"/></linearGradient><linearGradient id="Безымянный_градиент_554" x1="47.97" y1="7.05" x2="59.67" y2="7.05" gradientUnits="userSpaceOnUse"><stop offset="0" stop-color="#ffcd00"/><stop offset="1" stop-color="#ffe834"/></linearGradient><linearGradient id="Безымянный_градиент_140-3" x1="13.99" y1="26.59" x2="49.13" y2="26.59" xlink:href="#Безымянный_градиент_140"/><linearGradient id="Безымянный_градиент_554-2" x1="13.9" y1="4.6" x2="49.12" y2="4.6" xlink:href="#Безымянный_градиент_554"/><linearGradient id="Безымянный_градиент_560" x1="26.42" y1="3.47" x2="51.82" y2="3.47" gradientTransform="matrix(1.04, -0.03, 0.03, 1, -8.74, 2.19)" gradientUnits="userSpaceOnUse"><stop offset="0" stop-color="#f63f00"/><stop offset="0.55" stop-color="#f66a00"/><stop offset="1" stop-color="#fa9300"/></linearGradient><linearGradient id="Безымянный_градиент_533" x1="31.47" y1="18.33" x2="31.47" y2="2.27" gradientTransform="translate(0 9.08) scale(1 0.96)" gradientUnits="userSpaceOnUse"><stop offset="0.04" stop-color="#ef6300"/><stop offset="1" stop-color="#e13e00"/></linearGradient><linearGradient id="Безымянный_градиент_140-4" x1="31.06" y1="24.06" x2="31.06" y2="13.56" xlink:href="#Безымянный_градиент_140"/><linearGradient id="Безымянный_градиент_554-3" x1="28.78" y1="14.68" x2="33.09" y2="14.68" xlink:href="#Безымянный_градиент_554"/><linearGradient id="Безымянный_градиент_554-4" x1="25.1" y1="24.56" x2="38.41" y2="24.56" xlink:href="#Безымянный_градиент_554"/></defs><g class="cls-1"><g id="Слой_2" data-name="Слой 2"><g id="layer1"><path class="cls-2" d="M51.05,9.69c4.25-3.14,5.3,5.88,3.06,9.58s-9,3.27-11.84,3.89-1,4.23-1,4.23l17-5.49,2-11.42L54.25,7.76S51.89,8.26,51.05,9.69Z"/><path class="cls-3" d="M11,9.69c-4.25-3.14-5.31,5.88-3.07,9.58s9,3.27,11.83,3.89,1,4.23,1,4.23l-17-5.49-2-11.42L7.75,7.76S10.11,8.26,11,9.69Z"/><path class="cls-4" d="M47.39,9.25s3.07-2.5,10.32-2.32,3.6,12.37.73,16.37c-2.75,3.84-12.33,2.15-14.11,3.15s-.27,3.3-1,3.7-3-2-2.43-4S51.56,23,55.16,19.66s2.55-10.14-.74-10.58c-3.83-.51-4.27,1.49-4.52,3.76S46,15.63,46,15.63Z"/><path class="cls-5" d="M19,30.17h0l-.23,0h0a.35.35,0,0,1-.13-.05c-.72-.4.77-2.7-1-3.7S6.25,27.14,3.5,23.3C.63,19.3-3,7.11,4.23,6.93S14.55,9.24,14.55,9.24l1.38,6.39s-3.65-.57-3.89-2.79-.68-4.27-4.51-3.76c-3.3.44-4.48,7.17-.74,10.58S20.48,24.12,21,26.17c0,.09,0,.19.06.27A3.94,3.94,0,0,1,19,30.17Z"/><path class="cls-6" d="M43.48,27.14c-.9-1.39,5.7-4.43,9.44-5s4.83,1.12,4.8,1.52-1.32,1.79-5.89,2.2S44.92,25.64,43.48,27.14Z"/><path class="cls-6" d="M7.29,25.47c-4.66-2.08,4.58-2.55,8.48-1.5s3.54,3.36,3.1,3.42-.19-1-1.84-1.13S9,26,7.29,25.47Z"/><path class="cls-7" d="M1.72,7.76C5,5,14,6.1,14,6.1l.56,3.15S5.4,5.48,1.72,7.76Z"/><path class="cls-8" d="M49.13,5.24s8.61-.3,10.54,2.16c0,0-3.62-1.83-11.7,1.47Z"/><path class="cls-9" d="M49.13,5.79s-1.86,7.82-3.73,13.35c0,.06,0,.13-.07.21a.88.88,0,0,0,0,.15,22.47,22.47,0,0,1-1.84,4.27c-2.18,3.36-10.31,6.9-11.3,13.14a4.76,4.76,0,0,0,.69,3.6c1.72,2.54,5.81,3,6.47,3.44l.06,0A8.44,8.44,0,0,1,41,46.7a73.78,73.78,0,0,1-10.11.69,72.24,72.24,0,0,1-10-.69A8.14,8.14,0,0,1,22.57,44c.66-.46,5-.92,6.71-3.56a4.73,4.73,0,0,0,.65-3.48c-1-6.24-9.33-9.78-11.5-13.14-1.27-1.94-2.5-7.24-3.35-11.53C14.41,8.86,14,6.1,14,6.1L31.05,8.82Z"/><path class="cls-10" d="M14.42,4.51c4-4.38,23.9-7,33.23-.93C58.2,10.48,8.31,11.3,14.42,4.51Z"/><path class="cls-11" d="M19.12,5.12c3.51,3,21.83,3,25.46,0C47,3,39.24,1.22,31.48,1.3,24.06,1.37,16.92,3.22,19.12,5.12Z"/><path class="cls-12" d="M45.28,19.5a22.47,22.47,0,0,1-1.84,4.27c-2.18,3.36-10.31,6.9-11.3,13.14a4.76,4.76,0,0,0,.69,3.6c-1.83,1.91-2.75,1.36-3.55-.12a4.73,4.73,0,0,0,.65-3.48c-1-6.24-9.33-9.78-11.5-13.14-1.27-1.94-2.5-7.24-3.35-11.53l.08-.19S16.6,24.52,26.41,27.39,43.74,23.71,45.28,19.5Z"/><path class="cls-13" d="M21.44,25.86c.39-.87,4.85,2.72,8.74,3.87s.75,3.8-.7,3.39S22.26,26.73,21.44,25.86Z"/><path class="cls-14" d="M41,46.7a73.78,73.78,0,0,1-10.11.69,72.24,72.24,0,0,1-10-.69A8.14,8.14,0,0,1,22.57,44c-.44,1.89,14.25.45,16.79,0A8.44,8.44,0,0,1,41,46.7Z"/><path class="cls-14" d="M33,47.35c-2.55-.45-2.91-1.79-1.47-2.49.87-.42,2.7-.34,4.23-.45,4.05-.29,4.68,2.06,4.59,2.22A51.74,51.74,0,0,1,33,47.35Z"/><path class="cls-13" d="M26.35,44.9c-.26,0-.48,1.88-.18,2.12a17.64,17.64,0,0,0,3.42.33c.45,0,.93-2,1.34-2.31S26.35,44.9,26.35,44.9Z"/><path class="cls-15" d="M25.6,44.73c-1.51-.06.78-2.09,4.11-2.09s4.66,1,4.74,1.31S29.57,44.9,25.6,44.73Z"/><path class="cls-13" d="M16.8,7.76c-1-.35-.41,17,9.61,19.63S44.56,14.11,45.28,10.86,33.85,10.53,26,9.29,16.8,7.76,16.8,7.76Z"/><path class="cls-13" d="M38.38,2c-6.11.53-5.14,4.31-4.24,5s8.94-.9,10.13-2.51S38.38,2,38.38,2Z"/><path class="cls-16" d="M38.38,2c-2.47.5.49,2.67,1.7,2.6s2.5-1.76,1.59-2S38.38,2,38.38,2Z"/><path class="cls-6" d="M54.51,7.39c-.45.44,2.68,1.79,3.5,6s3.73.56,3.58-2.57S57.68,6.73,54.51,7.39Z"/><path class="cls-6" d="M.65,13.57c.18,2.79,2.18,4.09,2.57,4s-.33-7,4.47-9.3c2.05-1-5.59-.7-6.31,0S.49,10.86.65,13.57Z"/><path class="cls-16" d="M19.81,9.9c-1.71.82.23,3.3,1,3.14S21.52,9.08,19.81,9.9Z"/><path class="cls-17" d="M16.18,7.56s16.27,2.33,27.22.66C43.4,8.22,28.08,10.86,16.18,7.56Z"/><g class="cls-18"><path class="cls-19" d="M45.16,15.18a2.54,2.54,0,0,1-.16.49c-.67,1.45-3,3.07-4.28,2.4a1.42,1.42,0,0,1-.77-1h0c-.32-1.49,1.12-3.91,2-5.33C43.11,9.89,45.44,13.63,45.16,15.18Z"/><path class="cls-19" d="M39.15,19.65a9.11,9.11,0,0,1-.37,1.6c-.44,1.39-1.81.38-2.2-.72a1.56,1.56,0,0,1-.1-.55c0-1.23,1.24-2.31,2.3-1.76C39.14,18.41,39.24,18.91,39.15,19.65Z"/><path class="cls-19" d="M45.16,15.18a2.54,2.54,0,0,1-.16.49l-.1,0A4,4,0,0,0,44.58,14c-.41-1.24-1.49-2.69-2.68-1.62S40,17,40,17.06c-.32-1.49,1.12-3.91,2-5.33C43.11,9.89,45.44,13.63,45.16,15.18Z"/><path class="cls-19" d="M39.15,19.65s-.87-1.57-1.71-1.22-.86,2.1-.86,2.1a1.56,1.56,0,0,1-.1-.55c0-1.23,1.24-2.31,2.3-1.76C39.14,18.41,39.24,18.91,39.15,19.65Z"/></g><path class="cls-14" d="M46.54,15.52a8.15,8.15,0,0,0,3-2.66c1-1.67-.69-5.94-.69-5.94Z"/><path class="cls-14" d="M14.19,7.2s-.29,1.48-.63,1.67-1.65,3-1,4.61,3.36,2.15,3.36,2.15A68.58,68.58,0,0,1,14.19,7.2Z"/><path class="cls-20" d="M4.5,13.48c.28,2.89,1.18,3.31,1.8,3.1S6,10.3,9,9A4.22,4.22,0,0,0,4.5,13.48Z"/><path class="cls-20" d="M53.82,9.2c.08.37,2.38,3.34,2.37,6.32s1.94-3,.34-4.95S53.82,9.2,53.82,9.2Z"/><path class="cls-21" d="M6.5,20c-1.47-.3.92,3.31,3.84,3.43a27.35,27.35,0,0,0,3.82,0S7.36,20.17,6.5,20Z"/><path class="cls-21" d="M49.86,22.4s5.1-.06,6.29-.67,1.32-3,1-3.17-1.5,1.23-3.8,2.35A30.89,30.89,0,0,1,49.86,22.4Z"/><path class="cls-16" d="M51.39,7.76c-.81.2-.58-1.39,1.78-1.64a2.9,2.9,0,0,1,2.69.82A20.55,20.55,0,0,0,51.39,7.76Z"/><path class="cls-16" d="M7.55,7.25c-1-.64,6.44-.41,4.22,1A21.92,21.92,0,0,0,7.55,7.25Z"/><path class="cls-16" d="M26.35,44.9c-1.31-.13,1-1.61,2.65-.95S29.34,45.18,26.35,44.9Z"/><path class="cls-16" d="M51.59,21.73c-.18.25,1.82.18,2.31-.73S52,21.2,51.59,21.73Z"/><path class="cls-16" d="M12.57,22.57c0,.36-2.86-.22-2.75-.84S12.49,22.1,12.57,22.57Z"/><path class="cls-22" d="M40.91,26.18C42.85,24.54,42.55,30,42.55,30S40.3,28,40.91,26.18Z"/><path class="cls-22" d="M19,30.17h0l-.23,0h0c-.11-.62,1.12-4.35,2.36-3.76A3.94,3.94,0,0,1,19,30.17Z"/><path class="cls-20" d="M18.73,4.46c.14-1,5.46-3,8.7-2.44s6.28,4.48,6,4.92S20.37,7.69,18.73,4.46Z"/><path class="cls-14" d="M34.45,31.23c-1.21.08-2.76-1.34-1.8-2.17,1.59-1.37,6.93-2.71,8.79-4.46l3-2.8a10.43,10.43,0,0,1-3.12,4.13C38.85,28,35.07,31.2,34.45,31.23Z"/><path class="cls-23" d="M38.93,18.66a7.48,7.48,0,1,1-14.92,0,7.46,7.46,0,0,1,14.92,0Z"/><path class="cls-24" d="M24.64,21.39c.69-2.76,13.35-4.68,14-4s-.79,8.47-6.94,8.54S24.45,22.14,24.64,21.39Z"/><path class="cls-25" d="M28.78,16s.89,0,1.6-1.94a4.44,4.44,0,0,1,2.71-.42l.25,10.43H30.16l-.23-6-1.15-.12Z"/><path class="cls-26" d="M28.78,16l.09-.39a2.45,2.45,0,0,0,1.33-1.82S32,13,33.09,13.63a4.29,4.29,0,0,0-2.6.42S30,15.86,28.78,16Z"/><path class="cls-20" d="M24,18.66s1.67-6.49,7.7-6.49a7.23,7.23,0,0,1,7.09,5,7.24,7.24,0,0,0-7.51-5.94C24.78,11.43,24,18,24,18.66Z"/><path class="cls-27" d="M25.1,23A7.79,7.79,0,0,0,32,26.62c4.67-.21,6.46-4.84,6.46-4.84s-2.18,5.56-6.7,5.57S25.1,23,25.1,23Z"/></g></g></g></svg>