<svg xmlns="http://www.w3.org/2000/svg" xmlns:xlink="http://www.w3.org/1999/xlink" viewBox="0 0 39.32 61.4"><defs><style>.cls-1{isolation:isolate;}.cls-2{fill:url(#Безымянный_градиент_407);}.cls-3{fill:url(#Безымянный_градиент_393);}.cls-4{fill:#8354ab;}.cls-5{fill:url(#Безымянный_градиент_393-2);}.cls-6{fill:#be5286;}.cls-18,.cls-19,.cls-6,.cls-9{mix-blend-mode:multiply;}.cls-11,.cls-19,.cls-6{opacity:0.5;}.cls-11,.cls-7,.cls-8{fill:#fff;}.cls-10,.cls-11,.cls-7,.cls-8{mix-blend-mode:soft-light;}.cls-7{opacity:0.2;}.cls-18,.cls-8{opacity:0.3;}.cls-9{fill:#6d2f55;opacity:0.8;}.cls-10{fill:#a2ffff;}.cls-12{fill:#479dff;}.cls-13{fill:#47ffff;}.cls-14{fill:url(#Безымянный_градиент_428);}.cls-15{fill:url(#Безымянный_градиент_428-2);}.cls-16{fill:url(#Безымянный_градиент_428-3);}.cls-17{fill:url(#Безымянный_градиент_428-4);}.cls-18{fill:#a42f55;}.cls-19{fill:#be8186;}.cls-20{fill:#be9ad1;}</style><linearGradient id="Безымянный_градиент_407" x1="19.7" y1="61.4" x2="19.7" y2="20.47" gradientUnits="userSpaceOnUse"><stop offset="0" stop-color="#420c57"/><stop offset="1" stop-color="#66319a"/></linearGradient><linearGradient id="Безымянный_градиент_393" x1="9.63" y1="22.65" x2="29.8" y2="22.65" gradientUnits="userSpaceOnUse"><stop offset="0" stop-color="#511881"/><stop offset="1" stop-color="#591a8e"/></linearGradient><linearGradient id="Безымянный_градиент_393-2" x1="14.81" y1="18.97" x2="24" y2="18.97" xlink:href="#Безымянный_градиент_393"/><linearGradient id="Безымянный_градиент_428" x1="19.78" y1="19.91" x2="19.78" y2="10.23" gradientUnits="userSpaceOnUse"><stop offset="0" stop-color="#d4652c"/><stop offset="1" stop-color="#ff9500"/></linearGradient><linearGradient id="Безымянный_градиент_428-2" x1="18.72" y1="17.88" x2="18.72" y2="4.28" xlink:href="#Безымянный_градиент_428"/><linearGradient id="Безымянный_градиент_428-3" x1="15.2" y1="8.98" x2="15.2" y2="0.39" xlink:href="#Безымянный_градиент_428"/><linearGradient id="Безымянный_градиент_428-4" x1="8.76" y1="5.28" x2="8.76" y2="0" xlink:href="#Безымянный_градиент_428"/></defs><g class="cls-1"><g id="Слой_2" data-name="Слой 2"><g id="layer1"><path class="cls-2" d="M39.32,40.09A22.22,22.22,0,0,1,35.4,52.47c-3.58,5.25-9.28,8.93-15.7,8.93C11.91,61.4,5.19,56,2,48.92l0-.07,0,0A21.65,21.65,0,0,1,.08,40.09,19.46,19.46,0,0,1,1,34.3H1a19.63,19.63,0,0,1,38,1.9A20,20,0,0,1,39.32,40.09Z"/><path class="cls-3" d="M10.37,23.38l-.74-4,20.17-.47-1.47,4S18.53,30.37,10.37,23.38Z"/><path class="cls-4" d="M9.63,19.39c-1.8-4.12,21-2.25,20.17-.47C28.76,21,11.77,24.32,9.63,19.39Z"/><path class="cls-5" d="M14.9,18.92c.91-1.34,7.51-1.08,9-.08S13.72,20.66,14.9,18.92Z"/><path class="cls-6" d="M10.44,23.7a10.46,10.46,0,0,1,0-2.67c.22-.14,4.69,1.24,7.71,1.57s2,2.95,1.52,3.1S15.31,27.15,10.44,23.7Z"/><path class="cls-7" d="M20.92,25.73c-1,.09-.14-3.21,0-3.63S25.47,21,25.75,21s-.28,3.46-.65,3.6A35.54,35.54,0,0,1,20.92,25.73Z"/><path class="cls-6" d="M39.32,40.09c0,10.83-8.79,21.31-19.62,21.31S.08,50.92.08,40.09A19.46,19.46,0,0,1,1,34.3H1c2-4.43,12.44,19.59,23.05,21s15.15-8.63,14.89-17.94a7.86,7.86,0,0,1,0-1.12A20,20,0,0,1,39.32,40.09Z"/><path class="cls-8" d="M14.5,27.17c-5.76.12-4.28,19.94,6.55,25.17s19-7,17.84-15S31,25.63,28.8,25.44,22.4,27,14.5,27.17Z"/><path class="cls-9" d="M10.27,22.88a10.35,10.35,0,0,0,8.92,3.18,17.33,17.33,0,0,0,9.25-3.41l.51.13A28.29,28.29,0,0,1,17.26,26.7C10.22,27.48,10.27,22.88,10.27,22.88Z"/><path class="cls-8" d="M2,48.85l0,.07Z"/><path class="cls-10" d="M35.4,52.47c-3.58,5.25-9.28,8.93-15.7,8.93C11.91,61.4,5.19,56,2,48.92A22.89,22.89,0,0,0,13.16,59.29c7.9,3.28,15.07-2.56,19.42-6A3.71,3.71,0,0,1,35.4,52.47Z"/><path class="cls-6" d="M6,53.58c-2.95-3.78-.7-7.89,4.55-5.94s10,6.72,13.64,7.69S16.11,66.5,6,53.58Z"/><path class="cls-11" d="M25.82,30.86c-1.78.59-.63,5.54,1.49,5.12S28.25,30.07,25.82,30.86Z"/><path class="cls-10" d="M.65,44.9C2,47.59.72,40.09,3.57,32.28A25.57,25.57,0,0,1,8.91,23.7S-2.85,31.19.65,44.9Z"/><path class="cls-12" d="M16.2,32.15a3.33,3.33,0,0,0-2.46-1.41,6.51,6.51,0,0,0-2.35.22,10,10,0,0,0-6.27,5.6c-1.52,3.36-1,7.1,0,7.95a2,2,0,0,0,1.69.7c.39-.05.63-.21.81,0a.64.64,0,0,1,.11.22,2.57,2.57,0,0,1-.08,1.47A8.19,8.19,0,0,1,7.23,48c.37,1.08,4.22,2,4.46,1.85v0c.05-.24,0-1.9,0-1.9s.33,1,.56,1.59a1.38,1.38,0,0,0,.22.4A1.06,1.06,0,0,0,13,49.8c.82-.23,2.35-.85,2.27-1.09s-1.61-2.41-1.76-3.53V45.1c0-.33.32-.39.81-.33h.13a12.17,12.17,0,0,0,1.53.16h0c.71,0,1.32-.2,1.49-1,.07-.38.13-.79.17-1.23C17.93,39.39,17.9,34.5,16.2,32.15ZM11.41,45h0a5.71,5.71,0,0,1-2.22-.47c-.48-.35.38-1.91.8-2.36.11-.11.27,0,.46.14a8.59,8.59,0,0,1,1.35,2.4C11.87,44.88,11.7,45,11.41,45ZM7,42.31c-1,.07-1.81-.43-1.81-2,0-3,1.53-4.68,3-4.37l.14,0c1.58.44,1.51,3.87.95,4.94A3.1,3.1,0,0,1,7,42.31Zm6.87.32a3.55,3.55,0,0,1-3-1.66c-.58-1.1.08-4.55,1.91-5.07a2,2,0,0,1,1,0c1.22.26,1.78,1.95,1.67,4.72,0,1.45-.74,2-1.58,2.06Z"/><path class="cls-13" d="M16.2,32.15a3.33,3.33,0,0,0-2.46-1.41,7.26,7.26,0,0,0-1.8.24,10.06,10.06,0,0,0-6.27,5.6c-1.53,3.36-1,7.11,0,8a2.52,2.52,0,0,0,1.13.67,1.66,1.66,0,0,0,.81,0c.33-.08.53-.16.67.25a2.67,2.67,0,0,1-.09,1.47A8.19,8.19,0,0,1,7.78,48c.29.85,2.78,1.62,3.91,1.82v0c.05-.24,0-1.9,0-1.9h0c0-.56.55,0,.55,0A18.85,18.85,0,0,0,13,49.8c.82-.23,2.35-.85,2.27-1.09s-1.61-2.41-1.76-3.53V45.1c0-.33.32-.39.81-.33h.13a2.09,2.09,0,0,1,.42,0c.32,0,.71.1,1.11.14h0c.71,0,1.32-.2,1.49-1,.07-.38.13-.79.17-1.23C17.93,39.39,17.9,34.5,16.2,32.15ZM7,42.31H7c-1,.07-1.81-.43-1.81-2,0-3,1.53-4.68,3-4.37a1.81,1.81,0,0,1,.69,0c1.58.45,1.51,3.88,1,5A3,3,0,0,1,7,42.31ZM11.41,45h0a5.71,5.71,0,0,1-2.22-.47c-.48-.35.46-1.85.8-2.36a.53.53,0,0,1,.68,0,13.75,13.75,0,0,1,1.68,2.62C12.45,45,12,45.05,11.41,45ZM16,40.6c-.07,1.75-1.07,2.21-2.13,2h0a3.55,3.55,0,0,1-3-1.66c-.58-1.1.08-4.55,1.91-5.07a2,2,0,0,1,1,0C15.36,35.68,16.1,37.44,16,40.6Z"/><path class="cls-14" d="M22.22,17.87h0a16.2,16.2,0,0,1-.54,1.85l-4.54.18s-.15-1.69-.13-2c0-.15.07-.28.1-.42a28.07,28.07,0,0,1,1.06-3.14c.68-1.66,1.63-3.41,2.81-4.09C21,10.23,23.43,12.56,22.22,17.87Z"/><path class="cls-15" d="M21,10.23s-.16.19-.42.53a20.48,20.48,0,0,0-3.45,6.7c0,.14-.07.27-.1.42a61.21,61.21,0,0,1-.5-8.9A7.69,7.69,0,0,1,18.89,4.3l0,0h0A9.23,9.23,0,0,1,21,10.23Z"/><path class="cls-16" d="M18.92,4.28h0l0,0c-.2.25-2.13,2.61-2.38,4.68,0,0-4-1.24-4.49-3.7a27.9,27.9,0,0,1-.51-4.18c0-.06,0-.12,0-.17V.87a.06.06,0,0,0,0,0V.48s3.86-.4,5.26.5A4.66,4.66,0,0,1,18.92,4.28Z"/><path class="cls-17" d="M12,5.28A8.5,8.5,0,0,1,7.87,4.06,11.07,11.07,0,0,1,6.15,2.69l-.05,0a4.22,4.22,0,0,1-.61-.74,5.12,5.12,0,0,1,6-1.43h0V.83s0,0,0,.06v0A22.91,22.91,0,0,0,12,5.28Z"/><path class="cls-18" d="M22.22,17.88a16.2,16.2,0,0,1-.54,1.85l-4.54.18s-.15-1.69-.13-2a61.21,61.21,0,0,1-.5-8.9s-4-1.24-4.49-3.7A8.5,8.5,0,0,1,7.87,4.06,11.07,11.07,0,0,1,6.15,2.69a9.23,9.23,0,0,0,3.93,1.93c1.83.18.46-3.5.7-3.92a.56.56,0,0,1,.69-.23h0V.66s0,.13,0,.21V.93s0,.11,0,.17c.07,1.21.32,3.91,1.19,5.25a5.22,5.22,0,0,0,3.63,2s-.17-2.34.67-3a7,7,0,0,1,1.91-1A13.43,13.43,0,0,0,16.7,10c-.45,3.32.25,5.34.5,5.61.09.1.47-.47,1-1.27a28.45,28.45,0,0,1,2.39-3.56A1.32,1.32,0,0,1,21,10.4s-2.87,4.2-3.15,6.51S21.23,19.89,22.22,17.88Z"/><path class="cls-11" d="M18.52,21.92C17,21.49,20,19.59,23.65,19.31s4.85.55,4.67.63A39.83,39.83,0,0,1,18.52,21.92Z"/><path class="cls-18" d="M12.07,5.51c.21-1.17,3.53.06,4.44,3.47C16.51,9,13.1,7.63,12.07,5.51Z"/><path class="cls-18" d="M16.85,16.48a5.88,5.88,0,0,0,1.87-4.12A3,3,0,0,0,16.51,9,38.45,38.45,0,0,0,16.85,16.48Z"/><path class="cls-11" d="M12.28,1.33c-.75.3,1.65,3.9,2.53,4.35s3-1.11,3-2.18S14,.67,12.28,1.33Z"/><path class="cls-11" d="M19.41,6.07c-1.72.44-1.34,2.46-.69,4.47s1.92.06,1.74-1.56A7.34,7.34,0,0,0,19.41,6.07Z"/><path class="cls-11" d="M19.78,13.05c-1,1.18-1.65,4-1.06,4.95s2.67,1.36,3.23-2.1S19.78,13.05,19.78,13.05Z"/><path class="cls-19" d="M37.24,43.27a2.31,2.31,0,0,1-.19.58c-.77,1.69-3.49,3.58-5,2.79a1.65,1.65,0,0,1-.9-1.17h0c-.37-1.73,1.31-4.56,2.35-6.22C34.85,37.09,37.57,41.46,37.24,43.27Z"/><path class="cls-19" d="M30.23,48.49a11.12,11.12,0,0,1-.44,1.87c-.51,1.62-2.11.44-2.56-.84a1.9,1.9,0,0,1-.12-.64c0-1.44,1.45-2.7,2.68-2.06C30.21,47,30.34,47.63,30.23,48.49Z"/><path class="cls-6" d="M37.24,43.27a2.31,2.31,0,0,1-.19.58l-.11,0a4.48,4.48,0,0,0-.38-2c-.48-1.46-1.73-3.14-3.12-1.9s-2.25,5.34-2.28,5.46c-.37-1.73,1.31-4.56,2.35-6.22C34.85,37.09,37.57,41.46,37.24,43.27Z"/><path class="cls-6" d="M30.23,48.49s-1-1.83-2-1.42-1,2.45-1,2.45a1.9,1.9,0,0,1-.12-.64c0-1.44,1.45-2.7,2.68-2.06C30.21,47,30.34,47.63,30.23,48.49Z"/><path class="cls-20" d="M15.2,21.92a25.4,25.4,0,0,0,6.82.15,14.92,14.92,0,0,0,7.5-2.82A33.86,33.86,0,0,1,15.2,21.92Z"/></g></g></g></svg>