<svg xmlns="http://www.w3.org/2000/svg" xmlns:xlink="http://www.w3.org/1999/xlink" viewBox="0 0 55.53 47.25"><defs><style>.cls-1{isolation:isolate;}.cls-2{fill:url(#Безымянный_градиент_551);}.cls-12,.cls-3{fill:#be2f55;}.cls-11,.cls-12,.cls-14,.cls-17,.cls-3,.cls-6{mix-blend-mode:multiply;}.cls-3{opacity:0.8;}.cls-4{fill:url(#Безымянный_градиент_704);}.cls-5{fill:url(#Безымянный_градиент_702);}.cls-6{fill:#e22f55;}.cls-12,.cls-14,.cls-6{opacity:0.5;}.cls-7{fill:url(#Безымянный_градиент_534);}.cls-8{fill:url(#Безымянный_градиент_534-2);}.cls-9{fill:url(#Безымянный_градиент_9);}.cls-10{fill:url(#Безымянный_градиент_9-2);}.cls-11{fill:#f15e74;opacity:0.3;}.cls-13{fill:#ff8390;mix-blend-mode:screen;opacity:0.92;}.cls-14{fill:#d4135b;}.cls-15,.cls-18{fill:#fff;}.cls-15{mix-blend-mode:soft-light;}.cls-16{fill:#ff8d93;}.cls-17{fill:#d13966;opacity:0.6;}.cls-19{fill:#75fef6;}</style><linearGradient id="Безымянный_градиент_551" x1="27.67" y1="44.31" x2="27.67" y2="25.97" gradientUnits="userSpaceOnUse"><stop offset="0" stop-color="#fe6581"/><stop offset="1" stop-color="#ff846f"/></linearGradient><linearGradient id="Безымянный_градиент_704" x1="27.77" y1="47.25" x2="27.77" y2="0.02" gradientUnits="userSpaceOnUse"><stop offset="0" stop-color="#ffb6ca"/><stop offset="1" stop-color="#ffddc7"/></linearGradient><linearGradient id="Безымянный_градиент_702" x1="27.45" y1="28.94" x2="27.45" y2="21.12" gradientUnits="userSpaceOnUse"><stop offset="0" stop-color="#eb5e63"/><stop offset="1" stop-color="#c20631"/></linearGradient><linearGradient id="Безымянный_градиент_534" x1="39.22" y1="23.05" x2="39.22" y2="6.97" gradientUnits="userSpaceOnUse"><stop offset="0" stop-color="#c52e27"/><stop offset="1" stop-color="#770031"/></linearGradient><linearGradient id="Безымянный_градиент_534-2" x1="15.66" y1="23.35" x2="15.66" y2="8.93" xlink:href="#Безымянный_градиент_534"/><linearGradient id="Безымянный_градиент_9" x1="38.14" y1="22.9" x2="38.14" y2="9.37" gradientUnits="userSpaceOnUse"><stop offset="0.01" stop-color="#54d9ff"/><stop offset="1" stop-color="#0063ff"/></linearGradient><linearGradient id="Безымянный_градиент_9-2" x1="17.36" y1="23.57" x2="17.36" y2="10.45" xlink:href="#Безымянный_градиент_9"/></defs><g class="cls-1"><g id="Слой_2" data-name="Слой 2"><g id="layer1"><path class="cls-2" d="M.09,26C-.36,30.52,7.16,44.81,28.46,44.3c23.61-.57,26.8-17.56,26.8-17.56Z"/><path class="cls-3" d="M9.58,33c-5.26-2.64-3,11.59,16.79,11.27s20.42-8.38,21-9.55-14.83,2.19-21.92,1.77S9.58,33,9.58,33Z"/><path class="cls-4" d="M52.2,31.44c-5.24,3.13-9.9,2.92-12.12,5-.16.14-.33.09-.36.21a3.15,3.15,0,0,0,.26,1.1h0c.67,2,2.45,6,3.13,8a3.27,3.27,0,0,1,.25,1c-.19.51-6.95.83-9,.23a1.09,1.09,0,0,1-.46-.22l-.06-.06a.35.35,0,0,1-.06-.09c-.58-.92-.61-4.23-.91-5.84,0-.13,0-.25-.08-.36-.11-.44-.27-.65-.49-.51a1.55,1.55,0,0,0-.46.78,1.4,1.4,0,0,0-.09.29.36.36,0,0,0,0,.11l-.2.76c-.05.23-.1.45-.16.68s-.07.31-.11.47-.08.32-.12.48a0,0,0,0,1,0,0,2.68,2.68,0,0,1-.07.27,9.8,9.8,0,0,1-.51,1.53l-.09.17a2.25,2.25,0,0,1-.73.94h0a1.07,1.07,0,0,1-.53.17h-.13c-2.56.12-18.75.44-18.8-.42a7.28,7.28,0,0,1,.42-1.82c.73-2.25,2.12-5.68,2.17-7h0a.83.83,0,0,0-.15-.44l0-.06C11.26,31.14.87,31.32.09,26c-.75-5.18,3.13-16,10-21C16.66,0,39.1-2,44.87,2.58,52.54,8.63,60.07,26.72,52.2,31.44Z"/><path class="cls-5" d="M21.21,28.55c-2.74-1.57,4.23-7.27,6.4-7.43s7,5.78,6.71,7-5.66.86-6.15.44-.52-1.8-.52-1.8-.65,1.63-1,1.8S22.24,29.14,21.21,28.55Z"/><path class="cls-6" d="M32.84,4.32c-5,.85-3.25,12-.34,16.28s15,2.29,17.56.35S45.56,2.15,32.84,4.32Z"/><path class="cls-6" d="M23.4,7C19.07,4.21,9.73,11.12,6.25,17.87c-3.63,7,8.68,7.5,15.38,4S25,8.06,23.4,7Z"/><path class="cls-7" d="M33.09,20.33c-3.08-2.89-3.51-10.8-.2-12.79S45.73,8.77,47.64,16.4C49.64,24.41,37.5,24.47,33.09,20.33Z"/><path class="cls-8" d="M23,20.33c-1.21,1.72-11.57,4.33-14.93,2.26S10.74,8.93,18.75,8.93C25.43,8.93,24.72,17.89,23,20.33Z"/><path class="cls-9" d="M30.69,11.67c3.58-6.54,13.89,2.4,14.93,7.63,1.07,5.4-9.85,3.94-12.83.72S30.69,11.67,30.69,11.67Z"/><path class="cls-10" d="M23.44,11.77c-5.23-4.86-12.36,5-12.52,9.51s9.88,1.18,11.81-1.18S23.44,11.77,23.44,11.77Z"/><path class="cls-6" d="M31.48,5c-.94,1.37-1,4.53-.93,4.73S31.8,7.59,34.45,7s8.34,2.32,8.69,2.26-3.91-4.42-6.45-4.9C32.82,3.59,31.48,5,31.48,5Z"/><path class="cls-6" d="M13.63,9.62c-.46.36,2.85-1.3,5.94-.86s4.62,3.48,5.25,3.44,0-4.37-2.05-5.52S16.23,7.57,13.63,9.62Z"/><path class="cls-11" d="M5.41,22.07c-1-2.63-2.52,4.36.11,6.91s13-2.38,16.2-4.86S15.12,26,11,25.6,5.59,22.53,5.41,22.07Z"/><path class="cls-11" d="M33.26,23.09c.1.37,2.48,4.33,8.55,6.61s9.85-6.22,9.82-7.63S48.07,24.66,42,24.91,33.14,22.63,33.26,23.09Z"/><path class="cls-12" d="M27.65,21.65c-.58.12.17,6.09,1,6.64A5.33,5.33,0,0,0,33,28C34.12,27.29,28.7,21.43,27.65,21.65Z"/><path class="cls-12" d="M27.07,21.77c0-.56-5.45,4.28-5.17,5.83S25.08,29,26.33,28,27.07,22.11,27.07,21.77Z"/><path class="cls-13" d="M23.44,22.29c-.06.42,2.92-1.48,4-1.63s5,1.76,5.3,1.83S29.77,17,28.32,16.27,23.48,22.06,23.44,22.29Z"/><path class="cls-11" d="M20.54,29.4s4.29,1.27,6.3,1.68,7-1.58,7-1.58a49.39,49.39,0,0,0-6.55-.45C24.36,29.11,20.54,29.4,20.54,29.4Z"/><path class="cls-14" d="M40,37.71c-.83-.18-4.84-1-5.92,0s.06,7.61.34,9.18a1.09,1.09,0,0,1-.46-.22l-.06-.06a.35.35,0,0,1-.06-.09c-.58-.92-.61-4.23-.91-5.84,0-.13,0-.25-.08-.36-.11-.44-.27-.65-.49-.51a1.55,1.55,0,0,0-.46.78,1.4,1.4,0,0,0-.09.29.36.36,0,0,0,0,.11c-.07.23-.13.49-.2.76s-.11.45-.16.68-.07.31-.11.47l-.12.48a0,0,0,0,1,0,0,2.68,2.68,0,0,1-.07.27,9.8,9.8,0,0,1-.51,1.53l-.09.17a2.25,2.25,0,0,1-.73.94c.08-.3,2.18-8.23.92-8.34-.6-.06-1.39-2.62-5.25-.16A6.71,6.71,0,0,0,20,37.74c-.22,0-.47,1.63-.47,1.63a2.52,2.52,0,0,0-.34-1.4c-.37-.42-4.26-2.32-6.26-.64h0l-.15-.44,0-.06c5.6-1.32,6.78,0,6.78,0,4.19-1,5.91.16,5.91.16a10.86,10.86,0,0,1,7-.59c2.63-.69,7.68,0,7.68,0-.16.14-.33.09-.36.21A3.15,3.15,0,0,0,40,37.71Z"/><path class="cls-14" d="M34.4,46.92a1.09,1.09,0,0,1-.46-.22c-1-.88-.62-7.51-1.6-6.86a.91.91,0,0,0-.29.36l.13-.5s.12-2.93.45-3.18S34.4,46.92,34.4,46.92Z"/><path class="cls-12" d="M29.09,46.54c-2.56.12-18.75.44-18.8-.42a7.28,7.28,0,0,1,.42-1.82C10.78,45.35,20.63,46.24,29.09,46.54Z"/><path class="cls-12" d="M43.37,46.69c-.19.51-6.95.83-9,.23a1.09,1.09,0,0,1-.46-.22s0,0,0-.06c1.27,0,2.44,0,3.44,0a20.53,20.53,0,0,0,5.79-.93A3.27,3.27,0,0,1,43.37,46.69Z"/><path class="cls-11" d="M8.7,6c3.26-3.8,1,1.75-.26,4.73S3.68,16.77,2.1,25C1.49,28.18.29,26.74.29,26.74S-1.56,17.43,8.7,6Z"/><path class="cls-13" d="M10.83,4.4C10.29,7.48,15,6.21,24.3,4.68s18-1.79,18.48-2.63S35.89-.91,25.24.44A54.09,54.09,0,0,0,10.83,4.4Z"/><path class="cls-11" d="M44.87,2.58c-1.61-.94-2.93-.5-2.61,1.68s6.65,5.27,10.05,14.06C55.91,27.6,54.38,10,44.87,2.58Z"/><path class="cls-15" d="M23.84,45.68c-.67-.55.82-7,2-8.07s3.91-.68,4.31.79-.37,6.92-1,7.52S24.22,46,23.84,45.68Z"/><path class="cls-15" d="M23.14,45.49c-.9,1.35-4.78.39-4.75-.53s1.18-5.94,2-6.76,3.74-.23,3.95,0A36.93,36.93,0,0,1,23.14,45.49Z"/><path class="cls-13" d="M34.06,37.74c-.43.55,0,5.25.57,6s5.79.95,6.47.59-.18-5.61-1.38-6.53S34.92,36.65,34.06,37.74Z"/><path class="cls-16" d="M49.47,29.61c-1.91-.46-.08-2.87,1-3.47s2.8,1.22,2.69,1.92C52.86,29.83,50.2,29.79,49.47,29.61Z"/><path class="cls-17" d="M48.65,29.07c0,.26.19-.69,1.18-1.05s2.68,0,2.82-.22c.29-.38-.74-1.71-1.66-1.78S48.45,27.81,48.65,29.07Z"/><path class="cls-18" d="M48.79,29.22a5.28,5.28,0,0,0,2.55.38,2.38,2.38,0,0,0,1.77-1.85c.07-.08.81,1.46-1.44,2S48.79,29.22,48.79,29.22Z"/><path class="cls-16" d="M42.57,4.72c-.72.19-1.79-1.47-1.92-2s1.4,0,1.81.39C43.48,4.07,42.85,4.65,42.57,4.72Z"/><path class="cls-17" d="M42.05,4.62c.17.13-.39-.4-.38-.81s.59-.62.51-.75S41,2.35,40.7,2.52,41.22,4,42.05,4.62Z"/><path class="cls-18" d="M42.17,4.67c-.09-.07.66.1.82-.38S42.3,3,42.26,2.94s1.08.57.92,1.37S42.17,4.67,42.17,4.67Z"/><path class="cls-13" d="M15.84,35c-1.44-1.12,4.42-4.58,5.15-4.92s5.62,1.52,6.44,1.45,6.84-2,8-1.84,3.91,4.63,3.85,5.61-10.12.39-13.78.47A78.77,78.77,0,0,1,15.84,35Z"/><path class="cls-18" d="M28.08,19.68c-.34.81,1.2,1.32,2.66,1.8s-.81-2-1.37-2.36S28.08,19.68,28.08,19.68Z"/><path class="cls-18" d="M31.25,1.89c-3.83,1.5-2,2.43,3.88,1.4S34.83.48,31.25,1.89Z"/><path class="cls-11" d="M.3,22.59c2.31-6.26,3.14-4.95,3.35-4.27S2.25,26,1.19,26.59-.06,23.55.3,22.59Z"/><path class="cls-11" d="M52.21,12.9c-1.94-2.72.41,7.3,1.28,7.76S54.21,15.68,52.21,12.9Z"/><path class="cls-19" d="M32.4,17c.05-2.87,3.69-.83,3,1.55S32.34,20.28,32.4,17Z"/><path class="cls-19" d="M22.34,16.21c-1.64-.58-3.34,4.42-1.76,4.43S24.6,17,22.34,16.21Z"/></g></g></g></svg>