<svg xmlns="http://www.w3.org/2000/svg" xmlns:xlink="http://www.w3.org/1999/xlink" viewBox="0 0 42.06 46.34"><defs><style>.cls-1{isolation:isolate;}.cls-2{fill:#ff7e83;}.cls-3{fill:#c72c5b;}.cls-4{fill:#ffede2;}.cls-5{fill:#c92f6a;}.cls-6{fill:#f9b5ca;}.cls-12,.cls-15,.cls-6,.cls-8,.cls-9{mix-blend-mode:multiply;}.cls-6,.cls-7{opacity:0.3;}.cls-10,.cls-7{fill:#fff;}.cls-7{mix-blend-mode:overlay;}.cls-15,.cls-8{fill:#e39aa9;}.cls-8,.cls-9{opacity:0.8;}.cls-9{fill:#f29aa9;}.cls-11{fill:#ffa497;}.cls-12{fill:#cd2f55;opacity:0.78;}.cls-13{fill:url(#Безымянный_градиент_507);}.cls-14{fill:#6b0045;}.cls-15{opacity:0.5;}</style><linearGradient id="Безымянный_градиент_507" x1="16.95" y1="41.42" x2="16.95" y2="0.44" gradientUnits="userSpaceOnUse"><stop offset="0" stop-color="#ffbdca"/><stop offset="1" stop-color="#ffe8d3"/></linearGradient></defs><g class="cls-1"><g id="Слой_2" data-name="Слой 2"><g id="layer1"><path class="cls-2" d="M40.65,42.24c-.3,1.5-.66,2.49-1.07,2.75l0,0a3.94,3.94,0,0,1-1.16.37l-.08,0a67.32,67.32,0,0,1-11.65.65h-.29a92.6,92.6,0,0,1-12.84-.88h0a6.94,6.94,0,0,1-3-1,1.53,1.53,0,0,1-.26-.42c-2-4.37-2.9-34.55-1-36.29s8.7-2.34,15.69-2.42h.55c7.44,0,14.73.6,15.61,1.67C42.5,8.52,42.4,33.69,40.65,42.24Z"/><path class="cls-3" d="M38.3,43.08A3.54,3.54,0,0,1,37.41,45a4.56,4.56,0,0,1-1.36.42,57.85,57.85,0,0,1-9.41.64h-.29c-6.53,0-14-.41-16.94-1.3h0a2.92,2.92,0,0,1-1.11-.53C6.77,42.73,5.78,26,6,15.65H6C6.1,11.28,6.42,8,7,7.5,8.9,5.72,17.2,5,24.86,5.08h.55c6.63.08,12.65.71,13.44,1.67C40.37,8.58,40.22,35.5,38.3,43.08Z"/><path class="cls-4" d="M9.9,6.26s14.73-2.7,29,.49H41s-1.14-1.36-8.66-1.9A83.34,83.34,0,0,0,9.9,6.26Z"/><path class="cls-5" d="M39.58,45l0,0a6,6,0,0,1-1.16.37l-.08,0c-1.8.44-5.79,1.06-13.8.91-11.86-.21-14.9-1.48-15.08-1.56h0s1.59.21,4.1.43h0a136.86,136.86,0,0,0,14.2.6c.44,0,.85,0,1.26,0,2.1,0,3.83-.12,5.23-.2h0c.68,0,1.29-.08,1.82-.13A29.37,29.37,0,0,0,39.58,45Z"/><path class="cls-6" d="M8.76,8.49c-2.21,1.24-.67,20.6,3.33,26.7s23.67-6.93,26.16-12.9S37.28,8.53,34,6.75,11.16,7.13,8.76,8.49Z"/><path class="cls-7" d="M20.05,45.54c-5.62-1.62,15.87-13.62,17.73-14.33s1,11.9-.34,13.53S20.05,45.54,20.05,45.54Z"/><path class="cls-8" d="M39.88,6.75c-.55,0,.33,9.62,0,21s-.86,13.62-.3,14.05,2.63-11.32,2.47-20.14S41.31,7.29,41,7.12A7,7,0,0,0,39.88,6.75Z"/><path class="cls-9" d="M40.65,42.24c-.3,1.5-.66,2.49-1.07,2.75l0,0a3.94,3.94,0,0,1-1.16.37l-.08,0c-1.8.44-5.79,1.06-13.8.91-11.86-.21-14.9-1.48-15.08-1.56h0a2.92,2.92,0,0,1-1.11-.53C6.77,42.73,5.78,26,6,15.65c.12,4.52.72,22.73,2.14,26.31a3.76,3.76,0,0,0,2,1.83c2.21,1,5.84,1.55,9.76,1.72,1.8.07,3.67.08,5.48,0a47.45,47.45,0,0,0,12.62-2.38l.24-.08C39.7,42.62,40.57,42.27,40.65,42.24Z"/><path class="cls-10" d="M29,5.66c-3.16.22-.58,3.94,2.13,5.35s5.13-3.46,5.53-4.26S30.9,5.52,29,5.66Z"/><path class="cls-2" d="M38.06,42.24c-.3,1.5-.66,2.49-1.07,2.75l-.05,0a4.15,4.15,0,0,1-1.16.37l-.08,0a67.39,67.39,0,0,1-11.65.65h-.3a92.33,92.33,0,0,1-12.83-.88h0a6.89,6.89,0,0,1-3-1,1.32,1.32,0,0,1-.26-.42c-2-4.37-2.91-34.55-1-36.29s8.7-2.34,15.69-2.42h.56c7.43,0,14.73.6,15.61,1.67C39.9,8.52,39.8,33.69,38.06,42.24Z"/><path class="cls-11" d="M35.7,43.08A3.55,3.55,0,0,1,34.82,45a4.65,4.65,0,0,1-1.37.42,57.71,57.71,0,0,1-9.4.64h-.3c-6.52,0-14-.41-16.94-1.3h0a3,3,0,0,1-1.12-.53C4.17,42.73,3.18,26,3.41,15.65h0c.1-4.36.41-7.61,1-8.14C6.31,5.72,14.61,5,22.26,5.08h.56c6.63.08,12.64.71,13.43,1.67C37.78,8.58,37.63,35.5,35.7,43.08Z"/><path class="cls-4" d="M7.31,6.26s14.72-2.7,29,.49h2.17s-1.15-1.36-8.67-1.9A83.29,83.29,0,0,0,7.31,6.26Z"/><path class="cls-5" d="M37,45l-.05,0a6.33,6.33,0,0,1-1.16.37l-.08,0c-1.8.44-5.79,1.06-13.8.91C10,46.1,7,44.83,6.81,44.75h0s1.58.21,4.1.43h0a136.86,136.86,0,0,0,14.2.6c.43,0,.85,0,1.25,0,2.11,0,3.84-.12,5.23-.2h0c.69,0,1.29-.08,1.82-.13A29.42,29.42,0,0,0,37,45Z"/><path class="cls-6" d="M6.17,8.49C4,9.73,5.49,29.09,9.49,35.19s23.67-6.93,26.16-12.9-1-13.76-4.21-15.54S8.57,7.13,6.17,8.49Z"/><path class="cls-7" d="M17.46,45.54c-5.62-1.62,15.87-13.62,17.73-14.33s1,11.9-.34,13.53S17.46,45.54,17.46,45.54Z"/><path class="cls-8" d="M37.28,6.75c-.54,0,.34,9.62,0,21S36.42,41.34,37,41.77s2.62-11.32,2.46-20.14-.74-14.34-1-14.51A7.36,7.36,0,0,0,37.28,6.75Z"/><path class="cls-9" d="M38.06,42.24c-.3,1.5-.66,2.49-1.07,2.75l-.05,0a4.15,4.15,0,0,1-1.16.37l-.08,0c-1.8.44-5.79,1.06-13.8.91C10,46.1,7,44.83,6.81,44.75h0a3,3,0,0,1-1.12-.53C4.17,42.73,3.18,26,3.41,15.65c.13,4.52.72,22.73,2.14,26.31a3.78,3.78,0,0,0,2.06,1.83c2.2,1,5.83,1.55,9.76,1.72,1.8.07,3.66.08,5.48,0a47.36,47.36,0,0,0,12.61-2.38l.24-.08C37.11,42.62,38,42.27,38.06,42.24Z"/><path class="cls-10" d="M26.39,5.66c-3.16.22-.57,3.94,2.13,5.35s5.13-3.46,5.53-4.26S28.31,5.52,26.39,5.66Z"/><path class="cls-12" d="M4.69,40.75s11.36,2.79,20.77,2.57c10.24-.24,10.42-2.48,11-7.25.41-3.16.64-23.37.39-26.35s-1.28-3.24-1.28-3.24L4.49,39.58Z"/><path class="cls-2" d="M34.68,37.6c-.3,1.51-.66,2.49-1.07,2.75l0,0a4,4,0,0,1-1.16.38l-.08,0a67.6,67.6,0,0,1-11.65.64,1.5,1.5,0,0,1-.3,0,94.1,94.1,0,0,1-12.83-.87h0a7.17,7.17,0,0,1-3-1,1.28,1.28,0,0,1-.26-.43c-2-4.36-2.91-34.54-1-36.29C4.92,1.26,11.9.53,18.88.44h.56c7.43,0,14.73.61,15.61,1.67C36.52,3.89,36.42,29.05,34.68,37.6Z"/><path class="cls-13" d="M32.32,38.45a3.5,3.5,0,0,1-.88,1.9,4.32,4.32,0,0,1-1.37.43,57.94,57.94,0,0,1-9.4.63,1.5,1.5,0,0,1-.3,0c-6.52,0-14-.4-16.94-1.3h0a2.85,2.85,0,0,1-1.11-.53C.79,38.09-.2,21.4,0,11H0C.13,6.65.44,3.4,1,2.86,2.93,1.08,11.23.39,18.88.44h.56c6.63.08,12.64.71,13.44,1.67C34.4,4,34.25,30.87,32.32,38.45Z"/><path class="cls-4" d="M3.93,1.63s14.73-2.7,29,.48h2.17S33.91.76,26.39.22A82.93,82.93,0,0,0,3.93,1.63Z"/><path class="cls-5" d="M33.61,40.35l0,0a6.86,6.86,0,0,1-1.16.38l-.08,0c-1.8.44-5.79,1-13.8.91-11.86-.21-14.9-1.49-15.09-1.57h0s1.58.2,4.1.43h0a139.72,139.72,0,0,0,14.2.6l1.25,0c2.11,0,3.84-.12,5.23-.2h0l1.82-.13A27.45,27.45,0,0,0,33.61,40.35Z"/><path class="cls-6" d="M2.79,3.85C.57,5.1,2.11,24.46,6.11,30.56s23.67-6.93,26.16-12.91-1-13.76-4.21-15.54S5.19,2.5,2.79,3.85Z"/><path class="cls-14" d="M9.43,16.83h0a29.27,29.27,0,0,1,7.33-6s7.18,5.12,8.07,9.4h0a3.2,3.2,0,0,1-.82,3c-4.12,4.31-7.45-1.08-7.49-2.94,0,0-1.52,6.6-6.38,3.42C7.86,22.21,7.8,18.92,9.43,16.83Z"/><path class="cls-14" d="M16.53,20.3s.28,7-4.44,9.21h8.33S16.35,26.83,16.53,20.3Z"/><path class="cls-7" d="M16.87,11.68c-1-.32-6.28,3.28-6.91,6.18s4.77,1.71,6.29,1.93,4.62,3.44,6.9,2.29S21,13,16.87,11.68Z"/><path class="cls-10" d="M19.4,13.53c-1.42-.51.14,2.17.91,2.2S20.57,14,19.4,13.53Z"/><path class="cls-7" d="M14.08,40.9C8.46,39.28,30,27.28,31.81,26.58s1,11.9-.34,13.53S14.08,40.9,14.08,40.9Z"/><path class="cls-15" d="M33.91,2.11c-.55,0,.33,9.62,0,21s-.87,13.63-.3,14.06S36.23,25.82,36.07,17s-.74-14.35-1-14.51A7.69,7.69,0,0,0,33.91,2.11Z"/><path class="cls-9" d="M34.68,37.6c-.3,1.51-.66,2.49-1.07,2.75l0,0a4,4,0,0,1-1.16.38l-.08,0c-1.8.44-5.79,1-13.8.91-11.86-.21-14.9-1.49-15.09-1.57h0a2.85,2.85,0,0,1-1.11-.53C.79,38.09-.2,21.4,0,11c.13,4.52.72,22.72,2.14,26.31a3.77,3.77,0,0,0,2.06,1.82c2.2,1,5.83,1.55,9.76,1.73,1.8.07,3.66.08,5.48,0a47,47,0,0,0,12.61-2.37l.24-.08C33.73,38,34.6,37.64,34.68,37.6Z"/><path class="cls-10" d="M23,1c-3.16.23-.57,4,2.13,5.35s5.13-3.45,5.53-4.26S24.93.89,23,1Z"/></g></g></g></svg>