<svg xmlns="http://www.w3.org/2000/svg" xmlns:xlink="http://www.w3.org/1999/xlink" viewBox="0 0 45.96 57.45"><defs><style>.cls-1{isolation:isolate;}.cls-2{fill:url(#Безымянный_градиент_478);}.cls-3{fill:url(#Безымянный_градиент_375);}.cls-4{fill:#90160f;}.cls-5{fill:#be0e55;opacity:0.8;}.cls-12,.cls-13,.cls-14,.cls-17,.cls-18,.cls-19,.cls-21,.cls-5,.cls-6,.cls-7,.cls-9{mix-blend-mode:multiply;}.cls-6,.cls-9{fill:#b10053;}.cls-6,.cls-7{opacity:0.3;}.cls-7{fill:#d42f55;}.cls-8{fill:#c72429;}.cls-12,.cls-14,.cls-17,.cls-18,.cls-19,.cls-9{opacity:0.5;}.cls-10{fill:#8a666d;}.cls-11{fill:url(#Безымянный_градиент_216);}.cls-12{fill:#e39aa9;}.cls-13,.cls-17{fill:#be2f55;}.cls-13{opacity:0.78;}.cls-14,.cls-24{fill:#e5e0e5;}.cls-15{fill:#a5848d;}.cls-16{fill:#bda5ac;}.cls-18{fill:#cd9fa3;}.cls-19{fill:#be9ab6;}.cls-20{fill:#7f4b6e;}.cls-21{fill:#dea0bb;}.cls-22{fill:#c0a9ac;}.cls-23{fill:#996f8b;}.cls-25{fill:#cfc5cf;}</style><linearGradient id="Безымянный_градиент_478" x1="5.44" y1="24.25" x2="5.44" y2="0.45" gradientUnits="userSpaceOnUse"><stop offset="0" stop-color="#997a80"/><stop offset="1" stop-color="#a691a8"/></linearGradient><linearGradient id="Безымянный_градиент_375" x1="-36.78" y1="-365.08" x2="-24.04" y2="-365.08" gradientTransform="matrix(1, 0.04, -0.02, -1.01, 48.32, -338.07)" gradientUnits="userSpaceOnUse"><stop offset="0" stop-color="#a71100"/><stop offset="0.39" stop-color="#d83303"/><stop offset="1" stop-color="#ec5c11"/></linearGradient><linearGradient id="Безымянный_градиент_216" x1="23.6" y1="-1.38" x2="26.59" y2="19.9" gradientUnits="userSpaceOnUse"><stop offset="0" stop-color="#e0d9e1"/><stop offset="1" stop-color="#b9a4a8"/></linearGradient></defs><g class="cls-1"><g id="Слой_2" data-name="Слой 2"><g id="layer1"><path class="cls-2" d="M1.05,24.25c-2.58-.6.32-19.74,1.09-20.93S9.54.59,10.66.45,8.42,15.91,8.42,15.91Z"/><path class="cls-3" d="M21.17,12.56c.63,3.79-4.05,42.31-2.57,43.9S28.84,57.62,30.69,56s-4.9-40.47-2.77-45C30.14,6.25,17.67-8.38,21.17,12.56Z"/><path class="cls-4" d="M18.6,56.46c-.62-3.58,10-3.19,11.53-1.06S18.92,58.26,18.6,56.46Z"/><path class="cls-5" d="M22.64,2.31c-3.22,0,3.86,7.59,5.1,7.35S26.77,2.27,22.64,2.31Z"/><path class="cls-6" d="M20.55,57.29A4.65,4.65,0,0,0,25,53.82c.44-1.8-4.25-32.21-4.14-33.6s.19-2.65.19-2.65,5,35,5,36.33S23.87,57.19,20.55,57.29Z"/><path class="cls-6" d="M24.23,57.45s4.24-.72,4.8-2.84S25.32,24.5,21.14,15.67l0-3.11S28.33,31.7,29.31,41c.83,7.82.69,12.76.35,13.72S26,57.48,24.23,57.45Z"/><path class="cls-6" d="M20.72,6s5.07,14.4,6.56,18.68c1.38,3.94,1.08,1,1.08,1l-.58-6.86s-3.4-5.34-4.19-8.46A6.65,6.65,0,0,0,20.72,6Z"/><path class="cls-5" d="M28,56a5.09,5.09,0,0,0,1.62-1.26c.38-.62-.78-4-.78-4s.54,2.88.15,3.89A2.66,2.66,0,0,1,28,56Z"/><path class="cls-7" d="M20.93,54.19c-2.61,1.08,2,1.92,2.42,2.11s1.22-2.29,1.23-2.49A22.72,22.72,0,0,0,20.93,54.19Z"/><path class="cls-7" d="M26.19,54.18c-.21,0-1.05,1.18-.09,1.7s3-1.24,2.75-1.35A9,9,0,0,0,26.19,54.18Z"/><path class="cls-8" d="M25.91,54.45s-.56-4.9-.42-5.07a30.56,30.56,0,0,1,1.93,4.86C27.4,54.46,25.91,54.45,25.91,54.45Z"/><path class="cls-8" d="M29.5,55.05c-.29.45.63.35.63.35S30.71,53.17,29.5,55.05Z"/><path class="cls-9" d="M22.91,30.75c-1.1-2.71,1.46,16.19,1.46,16.19s.53.14.3-2.61S22.91,30.75,22.91,30.75Z"/><path class="cls-9" d="M18.34,55.07a16.61,16.61,0,0,1,3.32-3c1.62-1,.49-15.09,0-21.89s-.11-7.4-.56-7.33S18.51,50.62,18.34,55.07Z"/><path class="cls-10" d="M5.92,15.75C4.6,16,.47,23,1.05,24.25s19.37.81,19.37.81l.35-3.84s6-2.06,7.12.74l.47,3.73s11.26.13,12-.24,5.45-7.68,5.45-8.25S14.38,14.29,5.92,15.75Z"/><path class="cls-11" d="M45.79,17.2c.86-.86-1.72-15.47-2.87-16.41S13.81-.23,10.66.45,5.53,15.53,5.92,15.75,45.79,17.2,45.79,17.2Z"/><path class="cls-12" d="M5.92,15.75c-2.83,1.81-2,7.65.32,8.5s14.18.05,14.18.05l.3-2.71s1-1.59,5.73-1.34,3.45,2.88,4.24,3.5,11.55-3.58,13.2-5.42S5.92,15.75,5.92,15.75Z"/><path class="cls-13" d="M20.18,28.45c2.7-4.93,8.21-1.26,8.21-1.26L27.89,22s-.77-2.9-7.12-.74Z"/><path class="cls-14" d="M6.6,14.33C6.67,15.72,26,6.51,34.49,4.26s9.47,7.58,10.26,7.5S43.24,1.57,42.16,1.22,14.62-.15,11.26,2.31,6.53,12.9,6.6,14.33Z"/><path class="cls-12" d="M.22,22.82C.22,23.62,4.3,16,5,14.33S8.45,2,8.5,1.59,4.36,2.08,2.69,3.8.23,18.87.22,22.82Z"/><path class="cls-15" d="M5.87,12.9c.4-1,1.73,2,10.19,3.11S46,15.31,46,15.75a12.85,12.85,0,0,1-.17,1.45S6,16,5.73,15.89,5.87,12.9,5.87,12.9Z"/><path class="cls-16" d="M8.11,1.49c.17,1.06,6.88-1,6.88-1S9-.07,8.11,1.49Z"/><path class="cls-17" d="M20.42,25.06s-4.59.42-5.43-1.31,4.73-3.44,10-4,3,3.11,3,3.11L27.89,22s-2.78-2-7.17-.37Z"/><path class="cls-12" d="M1.05,24.25c-.83-1.43,3.74-7.42,4.82-7.85S23,16.51,23,16.51,12.55,23.34,9.9,24.43,1.05,24.25,1.05,24.25Z"/><path class="cls-18" d="M42,5.83a2.4,2.4,0,0,1-.19.55C41,8,38.41,9.83,37,9.08A1.61,1.61,0,0,1,36.1,8h0c-.35-1.67,1.26-4.39,2.26-6C39.66-.11,42.27,4.09,42,5.83Z"/><path class="cls-18" d="M35.21,10.86a11.06,11.06,0,0,1-.43,1.79c-.49,1.57-2,.43-2.46-.8a1.75,1.75,0,0,1-.12-.62c0-1.39,1.39-2.6,2.58-2C35.19,9.46,35.31,10,35.21,10.86Z"/><path class="cls-19" d="M42,5.83a2.4,2.4,0,0,1-.19.55l-.1,0a4.44,4.44,0,0,0-.37-1.9c-.46-1.4-1.67-3-3-1.83S36.13,7.82,36.1,7.94c-.35-1.67,1.26-4.39,2.26-6C39.66-.11,42.27,4.09,42,5.83Z"/><path class="cls-19" d="M35.21,10.86s-1-1.77-1.93-1.37-1,2.36-1,2.36a1.75,1.75,0,0,1-.12-.62c0-1.39,1.39-2.6,2.58-2C35.19,9.46,35.31,10,35.21,10.86Z"/><path class="cls-20" d="M12.74,6.58c-1.1.35-1-3.47.16-4.18S15,5.85,12.74,6.58Z"/><path class="cls-21" d="M12.19,3.63a1.38,1.38,0,0,0,1.22,1.69c.57,0,1.26-1.09.53-2.34S12.31,3.11,12.19,3.63Z"/><path class="cls-22" d="M12,4.74c.18-.23,0,.94.68,1.23s1.17-.67,1.27-.57-.89,1.48-1.39,1.48C11.83,6.88,12,4.74,12,4.74Z"/><path class="cls-23" d="M11.17,8.87c-.64-.45-1.05-1.55-.54-2s1.71,1.78,1.17,2S11.17,8.87,11.17,8.87Z"/><path class="cls-21" d="M10.4,7.41c.21.8.42,1,1,1s.38-1-.2-1.41S10.4,7.41,10.4,7.41Z"/><path class="cls-22" d="M10.74,8.42s.43.45.83.3.17-.67.17-.67.48.81,0,1S11,8.82,10.74,8.42Z"/><path class="cls-24" d="M23.68.37c-2.36.88,3.23,2.81,7.1,2.49S38.19,1.58,38.47.94,23.68.37,23.68.37Z"/><path class="cls-25" d="M36.72,15.75c-1-1.15,5.4-3.41,6.71-3.57s2.44,3.64,2,3.57S36.72,15.75,36.72,15.75Z"/><path class="cls-25" d="M16.1,15.75c.26,0-7.48-8.48-8.11-8.1s-2,3.67-1.8,4.7A18.49,18.49,0,0,0,16.1,15.75Z"/><path class="cls-12" d="M5.11,2.3c-2,1.1-1.22,7.18-1,8.16s4-6.15,4-7.56S5.11,2.3,5.11,2.3Z"/></g></g></g></svg>