<svg xmlns="http://www.w3.org/2000/svg" xmlns:xlink="http://www.w3.org/1999/xlink" viewBox="0 0 55.71 39.16"><defs><style>.cls-1{isolation:isolate;}.cls-2{fill:url(#Безымянный_градиент_147);}.cls-3{fill:url(#Безымянный_градиент_153);}.cls-4{fill:url(#Безымянный_градиент_153-2);}.cls-5{fill:url(#Безымянный_градиент_147-2);}.cls-20,.cls-6{fill:#de376d;}.cls-17,.cls-20,.cls-21,.cls-23,.cls-24,.cls-6{mix-blend-mode:multiply;}.cls-22,.cls-6{opacity:0.5;}.cls-7{fill:url(#Безымянный_градиент_140);}.cls-8{fill:url(#Безымянный_градиент_140-2);}.cls-9{fill:url(#Безымянный_градиент_140-3);}.cls-10{fill:url(#Безымянный_градиент_458);}.cls-11{fill:url(#Безымянный_градиент_458-2);}.cls-12{fill:url(#Безымянный_градиент_458-3);}.cls-13{fill:url(#Безымянный_градиент_476);}.cls-14{fill:url(#Безымянный_градиент_638);}.cls-15,.cls-16,.cls-19,.cls-22{fill:#fff;}.cls-15,.cls-22{mix-blend-mode:soft-light;}.cls-16{opacity:0.75;}.cls-17{fill:#b82774;}.cls-17,.cls-24{opacity:0.8;}.cls-18{fill:url(#Безымянный_градиент_458-4);}.cls-20{opacity:0.7;}.cls-21{fill:#e02774;opacity:0.2;}.cls-23{fill:#ff6f74;opacity:0.3;}.cls-24{fill:#d12774;}</style><linearGradient id="Безымянный_градиент_147" x1="12.05" y1="14.05" x2="12.05" y2="4.26" gradientUnits="userSpaceOnUse"><stop offset="0.05" stop-color="#f33c00"/><stop offset="1" stop-color="#ff4f04"/></linearGradient><linearGradient id="Безымянный_градиент_153" x1="14.47" y1="32.5" x2="14.47" y2="4.25" gradientUnits="userSpaceOnUse"><stop offset="0.05" stop-color="#ff3f00"/><stop offset="1" stop-color="#ff7c04"/></linearGradient><linearGradient id="Безымянный_градиент_153-2" x1="41.26" y1="32.5" x2="41.26" y2="4.24" xlink:href="#Безымянный_градиент_153"/><linearGradient id="Безымянный_градиент_147-2" x1="43.76" y1="14.15" x2="43.76" y2="4.25" xlink:href="#Безымянный_градиент_147"/><linearGradient id="Безымянный_градиент_140" y1="15.42" x2="55.71" y2="15.42" gradientUnits="userSpaceOnUse"><stop offset="0" stop-color="#ff9600"/><stop offset="1" stop-color="#ffa900"/></linearGradient><linearGradient id="Безымянный_градиент_140-2" x1="6.02" y1="33.26" x2="51.08" y2="33.26" xlink:href="#Безымянный_градиент_140"/><linearGradient id="Безымянный_градиент_140-3" x1="3.92" y1="28.29" x2="52.76" y2="28.29" xlink:href="#Безымянный_градиент_140"/><linearGradient id="Безымянный_градиент_458" x1="48.24" y1="18.66" x2="48.24" y2="11.21" gradientUnits="userSpaceOnUse"><stop offset="0" stop-color="#ffde00"/><stop offset="1" stop-color="#ffe834"/></linearGradient><linearGradient id="Безымянный_градиент_458-2" x1="-556.15" y1="18.72" x2="-556.15" y2="11.28" gradientTransform="matrix(-1, 0, 0, 1, -547.99, 0)" xlink:href="#Безымянный_градиент_458"/><linearGradient id="Безымянный_градиент_458-3" x1="27.71" y1="10.39" x2="27.71" y2="0" xlink:href="#Безымянный_градиент_458"/><linearGradient id="Безымянный_градиент_476" x1="28.82" y1="28.49" x2="28.82" y2="13.94" gradientUnits="userSpaceOnUse"><stop offset="0.05" stop-color="#ff4b00"/><stop offset="1" stop-color="#ff7204"/></linearGradient><linearGradient id="Безымянный_градиент_638" x1="29.12" y1="28" x2="29.12" y2="15.47" gradientUnits="userSpaceOnUse"><stop offset="0" stop-color="#de0086"/><stop offset="1" stop-color="#ff003b"/></linearGradient><linearGradient id="Безымянный_градиент_458-4" x1="21.25" y1="27.35" x2="37.2" y2="27.35" xlink:href="#Безымянный_градиент_458"/></defs><g class="cls-1"><g id="Слой_2" data-name="Слой 2"><g id="layer1"><path class="cls-2" d="M14.07,4.26s-2,.66-2.54,2.07c-.24.66-.74,5.56-2.17,7.3s5.58-2.42,5.58-2.42Z"/><path class="cls-3" d="M.16,11.71C2.62,10.43,4.43,13.62,8.08,14s4.1-9.24,6-9.71S24.58,15.14,28.78,16.34L28.29,32.5s-15.48-.15-17.82-1S.16,11.71.16,11.71Z"/><path class="cls-4" d="M55.57,11.58s-1.71,4.08-3.78,8.55c-1.2,2.58-2.51,5.29-3.68,7.41s-2.21,3.68-2.85,3.93c-2,.76-13.72,1-17,1h-.84l-.08-2.76L27,16.34a5.55,5.55,0,0,0,.91-.38c1.8-.94,4.13-3.13,6.38-5.37,3.27-3.25,6.36-6.6,7.41-6.34,1.89.47,1.17,10.29,4.8,10S53.73,10.5,55.57,11.58Z"/><path class="cls-5" d="M45.87,14.15c-2.8-2.22-1.69-6.2-2.19-7.51a4.35,4.35,0,0,0-2-2.39s.79.57,1.41,4.95S45.87,14.15,45.87,14.15Z"/><path class="cls-6" d="M51.79,20.13c-1.2,2.58-2.51,5.29-3.68,7.41L28.37,29.63l-1,.1L16.75,30.86,5.92,21.22c-1.15-3.86,6-8.86,15.64-10.54a38,38,0,0,1,12.69-.09c1,.16,2,.37,3,.62C44.85,13.2,49.26,16.86,51.79,20.13Z"/><path class="cls-7" d="M55.7,11.83c-.25-1.86-5.87,5.63-10,6.5S34.54,2.74,28.51.65c-6,2.09-12.79,18.55-16.91,17.68S.26,10.1,0,12,6,27.44,6,27.44c9.25,2.06,22.41,2.75,22.41,2.75s13.17-.69,22.43-2.75C50.86,27.44,56,13.67,55.7,11.83Z"/><path class="cls-8" d="M6,27.44l.33,8.23s8.44,3.42,22.06,3.42,22.67-3.66,22.67-3.66l-.22-8S29.06,31.53,6,27.44Z"/><path class="cls-9" d="M5.16,25.55s-1.31.57-1.24,1.19S6.08,29,6.08,29s21.63,5.61,44.81-.46A10.38,10.38,0,0,0,52.75,26c.15-.7-1.1-.78-1.1-.78s-9.15,4-23.8,4S5.16,25.55,5.16,25.55Z"/><path class="cls-10" d="M45.87,14.15c1.74.68,6.18-1.69,7.1-1.49s-6,5-8.08,5-4-2.86-4-2.86,2,3.43,4.17,3.84c4,.76,10.23-6.46,10.53-7s-.68-.52-3.23.31S48.55,14.2,45.87,14.15Z"/><path class="cls-11" d="M9.15,13.75c-1.91,1-4.51-.88-5.44-.68s5.36,4.88,7.43,4.8,5.07-2.94,5.07-2.94-2.31,3.31-4.52,3.73C7.66,19.42.46,12.27.16,11.71s.74-.65,3.29.18S6.46,14,9.15,13.75Z"/><path class="cls-12" d="M19.48,10.39s7-8.67,9.62-8.09S36,8,36,8,30.88.17,28.55,0,19.48,10.39,19.48,10.39Z"/><path class="cls-13" d="M22,28c-5.6-2.46,3.05-12.61,6.2-13.92s12.38,10.6,8.15,12.84C31.09,29.68,22,28,22,28Z"/><path class="cls-14" d="M21.29,25.64c-.46-4,3.83-9.65,7.49-10.14s8.76,7.19,8.14,10.14S21.67,29,21.29,25.64Z"/><path class="cls-15" d="M24.07,25c-.29-1.53,3.27-6,5.05-6.45s4.86,4,4.86,5.9S24.38,26.56,24.07,25Z"/><path class="cls-16" d="M21.6,24.35a1.55,1.55,0,0,0,2.46-.25c.53-.92,4.8-5.47,5-6.21a7.93,7.93,0,0,0-.24-2.39S22.89,17,21.6,24.35Z"/><path class="cls-17" d="M21.9,26.61c-.63-.6,2.42-1.3,2.42-1.3a11.32,11.32,0,0,0,4.7.78,14.27,14.27,0,0,0,4.74-1.22,4.49,4.49,0,0,1,2.51,1.41c0,.38-3,1.71-7.31,1.71A16.92,16.92,0,0,1,21.9,26.61Z"/><path class="cls-18" d="M21.25,27.52A40.57,40.57,0,0,0,29,28.2c5.86-.19,8.18-2.13,8.18-2.13s-.51,2.41-8.18,2.55C22.53,28.73,21.25,27.52,21.25,27.52Z"/><path class="cls-19" d="M25,17.85s-.34,2,1.06,2.32,2.53-1.9,2.73-2.61a6.21,6.21,0,0,0,0-2.06A11.26,11.26,0,0,0,25,17.85Z"/><path class="cls-19" d="M33.87,23.69c-.1-.09-.89,1.4-.7,1.41a11.2,11.2,0,0,1,1.42,0C34.73,25.16,34.23,24,33.87,23.69Z"/><path class="cls-20" d="M6.08,29s23.84,8.62,44.81-.46C50.89,28.51,32.36,34.45,6.08,29Z"/><path class="cls-15" d="M33.14,29.16c-3.39,1.66,3.22,1.42,7.72,1s7.31-2.9,7.38-3.33S33.14,29.16,33.14,29.16Z"/><path class="cls-21" d="M9.75,29.26c-2.83-.94-.84-2.2,6-.77S14.56,30.86,9.75,29.26Z"/><path class="cls-22" d="M18,13.94c-2.29,2.75-5.18,13.5-.15,12.49,1.78-.36,4.42-11.68,10.35-13.65S39.06,23.89,40.86,24.85s3.44-3.48,3.44-4.64S32.92,2.66,28.55,3.23,25,5.48,18,13.94Z"/><path class="cls-21" d="M3.92,16.46c0-.43,5.43,2.42,7.08,4.76a26.12,26.12,0,0,1,3,6.45c.07.35-4.49-.44-5.62-1.24S3.92,16.46,3.92,16.46Z"/><path class="cls-21" d="M8.93,36c-1.51-.65-.46-4.79-.19-5.29S20.67,32,22.47,32.44s2,5.6,1.86,6.18S12.48,37.52,8.93,36Z"/><path class="cls-15" d="M34,38.89c-1.89.16,1.32-5.93,2-6.22s9.5-2.46,10.34-2.2,1.23,6.11,1.23,6.11A115.13,115.13,0,0,1,34,38.89Z"/><path class="cls-19" d="M29.6,1c-1.29-.44.72,2.87,2.74,4.06S31.58,1.65,29.6,1Z"/><path class="cls-19" d="M47.21,18.38c-1.53.15,3.25-3.43,4.83-4.23S51.39,17.94,47.21,18.38Z"/><path class="cls-19" d="M41.66,27.84c-1.28.5,2.31.93,3.83.56a3,3,0,0,0,2-1.56C47.78,26.59,41.66,27.84,41.66,27.84Z"/><path class="cls-15" d="M4.36,26.43c-.41.58,2.12,2,2.89,2.06a4.15,4.15,0,0,0,2.3-1C9.78,27.17,4.93,25.63,4.36,26.43Z"/><path class="cls-15" d="M6.79,29.53c-.54-.21-.58,5.93.15,6s1.47-4.1,1.56-5S6.79,29.53,6.79,29.53Z"/><path class="cls-15" d="M1,14.72c.05-1.28,5.49,8,5.91,9.62s-1.37,1.56-1.78.92S1,15.49,1,14.72Z"/><path class="cls-23" d="M49.11,25.67c-2.33.39.14-6.71,3.65-10.25S51.27,25,51.08,25.26,49.11,25.67,49.11,25.67Z"/><path class="cls-23" d="M47.53,29.81c-.68.51,0,5.85.35,6.21s2.47-.65,2.82-1,.24-5.25,0-5.77S47.53,29.81,47.53,29.81Z"/><path class="cls-20" d="M6.22,32.5s4,7.27,23.44,6.23,21.27-6.06,21.27-6.06l.15,2.76s-21.3,8.22-44.73.24Z"/><path class="cls-19" d="M1,11.89c-.59.71,3.18,3.57,3.78,4a3.92,3.92,0,0,0,1.82.52C6.81,16.41,2.32,12,1,11.89Z"/><path class="cls-19" d="M30.41,28.44c-.25-.62,3.92-.6,3.92-.6S31.85,28.88,30.41,28.44Z"/><path class="cls-24" d="M20.19,25.5s3.65-9.48,8.63-9.82,8.63,9.42,8.63,9.42c0-3.31-4.78-11.43-8.33-11.87S20,22.26,20.19,25.5Z"/><path class="cls-20" d="M5.16,25.55s20.37,7.77,46.49-.29L53,21.55S44.57,29,28.4,28.64,4.13,23.19,4.13,23.19Z"/></g></g></g></svg>