<svg xmlns="http://www.w3.org/2000/svg" xmlns:xlink="http://www.w3.org/1999/xlink" viewBox="0 0 32.31 63.23"><defs><style>.cls-1{isolation:isolate;}.cls-2{fill:url(#Безымянный_градиент_432);}.cls-3{fill:url(#Безымянный_градиент_423);}.cls-4{fill:#ebc3d3;}.cls-5,.cls-6{fill:#9a376d;}.cls-10,.cls-12,.cls-16,.cls-22,.cls-32,.cls-33,.cls-5,.cls-6{mix-blend-mode:multiply;}.cls-10,.cls-13,.cls-19,.cls-20,.cls-22,.cls-32,.cls-5{opacity:0.5;}.cls-12,.cls-33,.cls-6{opacity:0.3;}.cls-7{fill:url(#Безымянный_градиент_375);}.cls-8{fill:#ff7a00;}.cls-9{opacity:0.45;fill:url(#Безымянный_градиент_375-2);}.cls-10{fill:#b10053;}.cls-11{fill:#97001a;}.cls-12,.cls-16{fill:#d42f55;}.cls-13,.cls-15,.cls-17{fill:#fff;}.cls-13,.cls-17,.cls-28{mix-blend-mode:soft-light;}.cls-14{fill:#ffa457;}.cls-16{opacity:0.8;}.cls-18{fill:#ff6500;}.cls-19{fill:url(#Безымянный_градиент_11);}.cls-20{fill:url(#Безымянный_градиент_11-2);}.cls-21{fill:url(#Безымянный_градиент_248);}.cls-22{fill:#c9d16d;}.cls-23{fill:#b6cc00;}.cls-24{fill:#d6fe00;}.cls-25{mix-blend-mode:screen;fill:url(#Безымянный_градиент_43);}.cls-26{fill:url(#Безымянный_градиент_65);}.cls-27{fill:url(#Безымянный_градиент_65-2);}.cls-28{fill:#ffb192;opacity:0.6;}.cls-29{fill:url(#Безымянный_градиент_65-3);}.cls-30{fill:#cf4060;}.cls-31{fill:#ffd4cd;}.cls-32{fill:#ffb4ba;}.cls-33{fill:#f96fff;}.cls-34{fill:#ffc4b6;}.cls-35{fill:#955179;}.cls-36{fill:url(#Безымянный_градиент_65-4);}</style><linearGradient id="Безымянный_градиент_432" x1="19.45" y1="56.02" x2="19.45" y2="13.36" gradientTransform="translate(1.62 6.91) rotate(0.92)" gradientUnits="userSpaceOnUse"><stop offset="0" stop-color="#e8e5ed"/><stop offset="0.05" stop-color="#e5ddea"/><stop offset="0.28" stop-color="#dabbdc"/><stop offset="0.46" stop-color="#d3a7d4"/><stop offset="0.59" stop-color="#d19fd1"/><stop offset="0.64" stop-color="#be92c3"/><stop offset="0.72" stop-color="#a57fb0"/><stop offset="0.81" stop-color="#9272a3"/><stop offset="0.9" stop-color="#886b9b"/><stop offset="1" stop-color="#846898"/></linearGradient><linearGradient id="Безымянный_градиент_423" x1="7.75" y1="9.33" x2="30.79" y2="9.33" gradientTransform="translate(1.62 6.91) rotate(0.92)" gradientUnits="userSpaceOnUse"><stop offset="0" stop-color="#9082a9"/><stop offset="0.22" stop-color="#9386ab"/><stop offset="0.42" stop-color="#9d90b3"/><stop offset="0.6" stop-color="#ada3c0"/><stop offset="0.79" stop-color="#c4bcd1"/><stop offset="0.96" stop-color="#e1dde8"/><stop offset="1" stop-color="#e8e5ed"/></linearGradient><linearGradient id="Безымянный_градиент_375" x1="9.63" y1="-0.34" x2="28.34" y2="-0.34" gradientTransform="translate(1.62 6.91) rotate(0.92)" gradientUnits="userSpaceOnUse"><stop offset="0" stop-color="#a71100"/><stop offset="0.39" stop-color="#d83303"/><stop offset="1" stop-color="#ec5c11"/></linearGradient><linearGradient id="Безымянный_градиент_375-2" x1="12.64" y1="9.98" x2="26.25" y2="9.98" xlink:href="#Безымянный_градиент_375"/><radialGradient id="Безымянный_градиент_11" cx="19.75" cy="-3491.33" r="11.43" gradientTransform="matrix(1, 0.02, -0.03, 1.74, -97.08, 6129.15)" gradientUnits="userSpaceOnUse"><stop offset="0" stop-color="#e8e5ed"/><stop offset="0.14" stop-color="#e3dde3"/><stop offset="0.42" stop-color="#dbd1d5"/><stop offset="0.66" stop-color="#d8cdd0"/><stop offset="0.68" stop-color="#d4c5ce"/><stop offset="0.75" stop-color="#c7acc9"/><stop offset="0.83" stop-color="#be99c5"/><stop offset="0.91" stop-color="#b98fc3"/><stop offset="1" stop-color="#b78bc2"/></radialGradient><radialGradient id="Безымянный_градиент_11-2" cx="19.74" cy="13.61" r="3.98" gradientTransform="translate(1.62 6.91) rotate(0.92)" xlink:href="#Безымянный_градиент_11"/><linearGradient id="Безымянный_градиент_248" x1="19.33" y1="51.67" x2="19.33" y2="24.38" gradientTransform="translate(1.62 6.91) rotate(0.92)" gradientUnits="userSpaceOnUse"><stop offset="0" stop-color="#a9ff00"/><stop offset="1" stop-color="#548600"/></linearGradient><linearGradient id="Безымянный_градиент_43" x1="16.5" y1="43.27" x2="22.88" y2="43.27" gradientTransform="translate(-1.16 -4.75) rotate(2.46)" gradientUnits="userSpaceOnUse"><stop offset="0.02" stop-color="#008dfe"/><stop offset="1"/></linearGradient><linearGradient id="Безымянный_градиент_65" x1="9.99" y1="17.2" x2="29.43" y2="17.2" gradientTransform="translate(1.62 6.91) rotate(0.92)" gradientUnits="userSpaceOnUse"><stop offset="0" stop-color="#5b1833"/><stop offset="1" stop-color="#6d2948"/></linearGradient><linearGradient id="Безымянный_градиент_65-2" x1="9.47" y1="14.9" x2="29.65" y2="14.9" xlink:href="#Безымянный_градиент_65"/><linearGradient id="Безымянный_градиент_65-3" x1="9.8" y1="20.78" x2="29.4" y2="20.78" xlink:href="#Безымянный_градиент_65"/><linearGradient id="Безымянный_градиент_65-4" x1="8.23" y1="22.42" x2="13.78" y2="22.42" xlink:href="#Безымянный_градиент_65"/></defs><g class="cls-1"><g id="Слой_2" data-name="Слой 2"><g id="layer1"><path class="cls-2" d="M31.48,57.18a1.86,1.86,0,0,1-.05.27c-1.24,5.22-11.26,5.78-11.26,5.78s-10-.88-11.07-6.14a10,10,0,0,1-.14-2v0c0-8.57,4.47-33.75,3.56-34.59l3,.43-.64.1C16.25,22.39,10,50.16,11.57,55s15.27,4.84,17.09,1.62S26.29,23,26.71,21v0l2.47-.27C28.18,21.58,32.53,51.27,31.48,57.18Z"/><path class="cls-3" d="M9.5,12.07c-.62.88.16,5.85,1,7.18,1.85,3,18.64,2.35,20.31.66,1.29-1.3,1.76-6.82,1.42-7.65S9.5,12.07,9.5,12.07Z"/><path class="cls-4" d="M9.5,12.07c-.58,2,22.33,3.76,22.71.19S10.76,7.57,9.5,12.07Z"/><path class="cls-5" d="M13.07,12c-.39,1.4,15.27,2.08,15.53-.36S13.94,8.87,13.07,12Z"/><path class="cls-6" d="M12.44,13.81c-2.31-.6-1.31,3-.08,5s16,2.23,17.35-.73,0-2.65-5.56-2.94A117.65,117.65,0,0,1,12.44,13.81Z"/><path class="cls-7" d="M13.69,12,11.31,3.42,30.07.76,27.31,12.19A23.11,23.11,0,0,1,13.69,12Z"/><path class="cls-8" d="M11.31,3.42C9.58,2.73,28.63-1.38,30,.48S20.43,7.08,11.31,3.42Z"/><path class="cls-9" d="M14.34,14.19c-.81-.21,1.07,3.81,4.07,5.45s8.46-1.39,9.33-4.23C27.74,15.41,19.11,14.81,14.34,14.19Z"/><path class="cls-10" d="M15.87,1.75s7.05,1.73,7.84,2.47S22.9,13,22.9,13l1.33-.16s1-8,.87-9S23.21,2,15.87,1.75Z"/><path class="cls-10" d="M15.2,1.91s6.07,1,6.46,2.67-1.24,7.12-3.82,7.33-5.21-3.73-5.21-3.73l-.36-1.33s1.93,4.38,5.36,4.56,3.53-5.94,3.47-6.6S18.38,2.58,15.2,1.91Z"/><path class="cls-11" d="M21.75,3.39s1.82.31,2.13,1.24-.43,5.58-.32,6.06,2-6,1.48-7S21.75,3.39,21.75,3.39Z"/><path class="cls-12" d="M23.43,4.85c-.33-.5-1.61.42-1.72,1S20.2,11,19.11,12.25s2.63,2,3.58-.51S23.43,4.85,23.43,4.85Z"/><path class="cls-12" d="M20.58,5.42c-.63-.65-7.34-.68-8-.88S12.89,9,16.3,10.43,21.28,6.14,20.58,5.42Z"/><path class="cls-13" d="M26,3.36a8.36,8.36,0,0,1-2.47-1.2c-.6-.29,5.17-.77,6-1.32S29.41,2.13,28,2.75A5.68,5.68,0,0,1,26,3.36Z"/><path class="cls-13" d="M22,4.43c-.47-.16-.82-.46-.29-.63a1.6,1.6,0,0,1,1.39.4C23.15,4.34,22.24,4.5,22,4.43Z"/><path class="cls-13" d="M20.4,4.66c-.2.1-5.69.07-6.61-.61s3.82-.76,5.27-.5S20.5,4.6,20.4,4.66Z"/><path class="cls-14" d="M24.85,3c-.42,0,.43.83.66.86a5.25,5.25,0,0,0,1.69-.64A12.51,12.51,0,0,0,24.85,3Z"/><path class="cls-14" d="M21.51,4.12c-.1,0,0,.49.22.56s.9-.23.9-.23A6.21,6.21,0,0,0,21.51,4.12Z"/><path class="cls-12" d="M28.62,6.8A5.34,5.34,0,0,0,26,9.11c-1.35,2-1.49,3.21-1.44,3.45s2.33-.48,2.66-1A46.49,46.49,0,0,0,28.62,6.8Z"/><path class="cls-15" d="M22.16,13.25c-4.51.34,2.85,1.25,5.19.9s3-1.64,2.93-2-2.18.42-4.47.79A21,21,0,0,1,22.16,13.25Z"/><path class="cls-15" d="M31.27,17c-.74-.19-2.6,2.18-3.61,3.12s2.29.29,3.26-.89S31.65,17,31.27,17Z"/><path class="cls-15" d="M10.06,11.54c-.56.53,0,1.24,1.1,1.53s.32-1.51-.09-1.64A1.78,1.78,0,0,0,10.06,11.54Z"/><path class="cls-16" d="M13.31,10.61S15.85,13.12,21,13A8.13,8.13,0,0,0,28,9.24l-.72,2.95S20.08,14.53,13.69,12Z"/><path class="cls-12" d="M26,4c-.72.46-.88,2.76-.86,3.23s2.28-1.95,3-3.19.81-1.38.64-1.44A18.71,18.71,0,0,0,26,4Z"/><path class="cls-17" d="M14.92,21c-1.75-.34-2.12-4.82-1.43-5.6s7.31,5,6.45,5.68S14.92,21,14.92,21Z"/><path class="cls-17" d="M9.82,13.53c-.26.56.12,3.61.61,4.89A2.22,2.22,0,0,0,12.08,20c.34.09-1.05-3.14-1.48-4.72C10,13.09,10,13.09,9.82,13.53Z"/><path class="cls-18" d="M15.29,11A4.7,4.7,0,0,0,18,12.17c1.49,0,2.37-2.35,2.37-2.35a4.52,4.52,0,0,1-2.12,2C16.94,12.27,15.29,11,15.29,11Z"/><path class="cls-18" d="M24.3,12.27s.55-1.39.74-2.14a7.65,7.65,0,0,0-.14-2.37Z"/><path class="cls-19" d="M28.66,56.64C26.84,59.86,13.14,59.89,11.57,55c-.93-2.89.9-13.88,2.26-22.62.92-5.95,1.63-10.86,1.09-11.43l.64-.1,5.28.75L26.71,21v0c-.15.74.3,5.18.86,10.7C28.54,41.45,29.83,54.57,28.66,56.64Z"/><path class="cls-20" d="M26.71,21l-5.87.64-5.28-.75C18.05,20.49,27,19.25,26.71,21Z"/><path class="cls-21" d="M28.66,56.64C26.84,59.86,13.14,59.89,11.57,55c-.4-1.24-.29-4,.07-7.33h0c.47-4.53,1.41-10.27,2.19-15.28,1.64,3.25,10.08,3.21,13.74-.7.11,1.13.22,2.31.34,3.51h0a1.94,1.94,0,0,0,0,.24C28.82,44.54,29.69,54.83,28.66,56.64Z"/><path class="cls-22" d="M12.62,39.38c-.24,6.31-.12,1.29,2.74-1.17s6.52,4.32,8.39,8.68-5.16,3.44-6.56,3.93-3.12-6.44-1.28-6.4S18.4,47.64,20,47.34s0-5.15-1.86-6.21-3,1-3.37,4.59,1.43,8.87,3.49,10.05S27,51.55,28.05,51s-3.32-10.26-2.64-13.17,1.61-1.68,2-2.62a11,11,0,0,0,.15-3.5l-13.75.42Z"/><path class="cls-23" d="M13.83,32.4C13.49,29,21.19,31,24.38,31.34s3.13-.2,3.19.36-3.27,3.86-7.48,4.15S13.89,33,13.83,32.4Z"/><path class="cls-15" d="M9.44,56.85c-.28-.74.19-6.69.75-7.63s-.13,4.66,2.15,7.68S9.91,58.1,9.44,56.85Z"/><path class="cls-15" d="M28.32,59.62c-1-.95.4-1.63.86-3.67s-.15-6.76.51-7.18,2,6,1.28,8.43S28.57,59.86,28.32,59.62Z"/><path class="cls-15" d="M12.06,36c-.4.35.07-4.93.46-5.28S14.36,33.92,12.06,36Z"/><path class="cls-5" d="M27.92,35.22a1.94,1.94,0,0,0,0,.24l0-.25Z"/><path class="cls-5" d="M28.66,56.64C26.84,59.86,13.14,59.89,11.57,55c-.4-1.24-.29-4,.07-7.33,0,.24-1,7.09,1.31,8.69s11.38,3.18,15-.07c1.62-1.43.15-18.56,0-20.85C28.82,44.54,29.69,54.83,28.66,56.64Z"/><path class="cls-5" d="M31.48,57.18a1.86,1.86,0,0,1-.05.27c-1.24,5.22-11.26,5.78-11.26,5.78s-10-.88-11.07-6.14a10,10,0,0,1-.14-2c.28,3.52,4.28,6.76,11.22,7.24C27,62.78,30.19,60.25,31.48,57.18Z"/><path class="cls-15" d="M29.17,42.32c-.51.23-.13,3.12.37,3.6S30.11,41.9,29.17,42.32Z"/><path class="cls-22" d="M20.62,36.68c-1.89,1.09,2.35,6.47,3.13,10.21s2,.83,1.35-4.37.63-7.42,1.4-8.23S20.62,36.68,20.62,36.68Z"/><path class="cls-22" d="M16.49,35.15c-2.21-1.64-3.12,2.1-3.22,3.79s1.4-2.8,3.83-1.43,3-.71,3.2-1.2S18.21,36.43,16.49,35.15Z"/><path class="cls-13" d="M12.28,55.12c-.86-3.22.26-6.51,1.28-6.48s2.28,6.41,5,7.83,7-4.34,8.54-4.26,1.13,3-.25,4.4-7.13,1.75-9.57,1.2A15.09,15.09,0,0,1,12.28,55.12Z"/><path class="cls-24" d="M14.15,33.09a8.87,8.87,0,0,0,5.17,2.43c3.13.29,7.4-2.54,7.4-2.54s-4.37,3.65-7.53,3.57S14.15,33.09,14.15,33.09Z"/><path class="cls-25" d="M14.16,55.09c-2.82-1.18.55-29.87,3-31.5s3.14,19.53,2.09,25S14.16,55.09,14.16,55.09Z"/><path class="cls-15" d="M25.26,28.1c-1.68.49-1.7,14.56,0,16.39S28,27.3,25.26,28.1Z"/><path class="cls-15" d="M14.5,40.82c-.92.25-1.1,3.93-.05,3.52S15.43,40.58,14.5,40.82Z"/><path class="cls-5" d="M12.6,22.3c.83-1.05,3.1,5,8,5.7s7.12-2.15,7.78-3.64a12.61,12.61,0,0,0,.78-3.65s-8.76,1.51-16.66-.27Z"/><path class="cls-15" d="M20.27,61.84c-2.27-.12,3.12-2.92,5.69-3S28.5,62.24,20.27,61.84Z"/><path class="cls-26" d="M12.63,21.75c-1.41-.14-1.85,1.25-.24,2.87s8.12,2.76,12.89,2.23S32.05,22.1,30,22.27,13.72,21.85,12.63,21.75Z"/><path class="cls-27" d="M11.1,19.83c-.94.93.85,4,9.7,4.4S31,21.17,31.05,20.74s-.6-.6-.6-.6-1.77,1.22-9.16,1.22S11.1,19.83,11.1,19.83Z"/><path class="cls-5" d="M11.72,21.73s.9,2.38,8.42,3.17S30.26,22,30.26,22a22.23,22.23,0,0,1-9.18,2.3A16.11,16.11,0,0,1,11.72,21.73Z"/><path class="cls-5" d="M11.1,19.83a32.5,32.5,0,0,0,10.34,3,13,13,0,0,0,9.35-2.87,96.81,96.81,0,0,1-10.85,1.14C12.94,21.46,11.1,19.83,11.1,19.83Z"/><path class="cls-28" d="M22.88,24c-1.63-.25,1.48-1.27,4.94-2.3s.63,1.16-.4,1.47S22.88,24,22.88,24Z"/><path class="cls-28" d="M20.12,26.25c-.9-.23,3.92-1.5,7.29-1.89s1,2.11-1.3,2.36A24.26,24.26,0,0,1,20.12,26.25Z"/><path class="cls-5" d="M12.39,24.62a15.64,15.64,0,0,0,8,2.15,22.6,22.6,0,0,0,8.81-1.48S26.6,28,20.89,28A11.37,11.37,0,0,1,12.39,24.62Z"/><path class="cls-29" d="M12.39,24.62c-3,.65-.88,4.21,7.65,6.22S31,27.48,30.69,26.54c-.16-.56-1.48-.95-1.48-.95l0,1.25s-2.28,3-8.54,2.43-8.2-3.95-8.2-3.95Z"/><path class="cls-5" d="M9.39,48.57s3,3.68,5.76,4.18,3.94-17.47,3.16-19.32-6.74-1.9-6.74-1.9Z"/><path class="cls-5" d="M11.12,26a15,15,0,0,0,10.51,4.93c7,.46,8.72-3.07,8.72-3.07l-.74,1.46.05.92s-4.09,3.67-8.07,3S12,27.71,12,27.71l0-.28S11.1,26.38,11.12,26Z"/><path class="cls-30" d="M9.28,31.13c.37-1.29,2.93-.38,3.23.08s0,.66,0,.66.32-.1.3-.66-.47-1.28-1.91-1.6A1.23,1.23,0,0,0,9.28,31.13Z"/><path class="cls-30" d="M7.84,46.7,7.9,47a30.28,30.28,0,0,1-5.72-2.51C.52,43.36.12,42.58,0,42.33a.37.37,0,0,1,0-.09l9.71,4a2.82,2.82,0,0,0-1.43.26Z"/><path class="cls-30" d="M10.39,47.75a2.33,2.33,0,0,0,0-.5,1.23,1.23,0,0,0-.49-.93L14.07,48C13.6,48.42,12.14,48.22,10.39,47.75Z"/><path class="cls-31" d="M9.5,32a2.1,2.1,0,0,1,.27-2.31c.69-.45,2.63.48,2.92,1.55S9.91,32.66,9.5,32Zm.38,14.28a1.23,1.23,0,0,1,.49.93,9.56,9.56,0,0,0,3.7.79c.27-.1.54-.63.81-1.46-.84-.93-.25-1.13.33-1.13,1.12-4.38,2-12.8,1.56-13.84-.63-1.37-10.51-4.3-11.74-4S-.15,41,0,42.24a.37.37,0,0,0,0,.09c.39.8,4.55,2.76,8.26,4.17a2.82,2.82,0,0,1,1.43-.26l.15.07Z"/><path class="cls-32" d="M9.88,46.32a1.23,1.23,0,0,1,.49.93,9.56,9.56,0,0,0,3.7.79c.27-.1.54-.64.81-1.46-.85-.93-.25-1.13.33-1.13,1.13-4.38,2-12.81,1.56-13.84-.63-1.37-10.51-4.3-11.74-4S-.14,41,0,42.24l0,.09c.38.8,4.54,2.76,8.25,4.17a2.71,2.71,0,0,1,1.43-.25l.15.06Zm-1.45-.81c-2.35.71-4.35-.77-6-2.14S.91,37.34,2,35.9s3.17-7.64,4.59-7.78,9.54,2.08,9.91,4.07a43,43,0,0,1-.6,5.73c-.58,3.49-1.59,9.08-2.47,9.58S10.78,44.79,8.43,45.51Z"/><path class="cls-33" d="M5.41,44.08c-3-1.21-2.23-7.53-2-9.92s5.46-1.94,9-1,3.49,5,2.32,8.78S8,45.13,5.41,44.08Z"/><path class="cls-30" d="M10.39,47.75s-.23-1.15-.71-1.33S7.9,47,7.9,47l-.06-.28s1.25-.78,1.95-.52S10.39,47.75,10.39,47.75Z"/><path class="cls-34" d="M7.9,47a4.8,4.8,0,0,1,.3-.51,2.09,2.09,0,0,1,1.38-.33C9.76,46.25,7.9,47,7.9,47Z"/><path class="cls-35" d="M11.8,34.82a3.75,3.75,0,0,0-3.05-1.18,4.28,4.28,0,0,0-3.43,2.13c-.94,1.47-1.16,3.22-.72,3.7.78.87,1.44.24,1.46.69a1.05,1.05,0,0,1-.36.65,4.85,4.85,0,0,1-.5.43c0,.53,2.23,1.39,2.33,1.29s.51-.84.51-.84a4.16,4.16,0,0,0,0,1,6.49,6.49,0,0,0,2.07-.22,6.47,6.47,0,0,1-.34-1.75.08.08,0,0,1,0,0c0-.15.26-.13.56,0,.66.16,1.71.58,2.09,0a2.9,2.9,0,0,0,.26-.53A5.34,5.34,0,0,0,11.8,34.82Zm-3,5.46c0,.33-1.47-.23-1.61-.36s.52-.82.83-1S8.74,40,8.77,40.28ZM5.18,37.57c.26-1.45,1.15-2.1,2.09-1.71s.84,2,.4,2.44C7.08,38.87,4.93,39,5.18,37.57Zm3.47.93c-.25-.57.23-2.14,1.33-2.19s1.85.94,1.52,2.51S9,39.28,8.65,38.5Z"/><path class="cls-36" d="M12.51,31.21a2.27,2.27,0,0,1-2.39,0c-1.42-.76-.16-2.81.72-3.25a7,7,0,0,1,3.56-.33c.27.22.82.13.62.91s-1.56,1-2.28,1S12,30.67,12,30.67Z"/><path class="cls-28" d="M10.14,29.11c0,1.46.64.71,2.66-.14S10.15,27,10.14,29.11Z"/></g></g></g></svg>