<svg xmlns="http://www.w3.org/2000/svg" xmlns:xlink="http://www.w3.org/1999/xlink" viewBox="0 0 46.97 62.17"><defs><style>.cls-1{isolation:isolate;}.cls-2{fill:url(#Безымянный_градиент_375);}.cls-3{fill:#ff7a00;}.cls-17,.cls-4{fill:#be0e55;}.cls-10,.cls-11,.cls-12,.cls-14,.cls-15,.cls-17,.cls-18,.cls-19,.cls-4,.cls-5{mix-blend-mode:multiply;}.cls-19,.cls-4{opacity:0.8;}.cls-5{fill:#b10053;}.cls-15,.cls-5{opacity:0.3;}.cls-6{fill:#97001a;}.cls-7{fill:#fff;}.cls-13,.cls-16,.cls-7{mix-blend-mode:soft-light;}.cls-12,.cls-16,.cls-17,.cls-18,.cls-7{opacity:0.5;}.cls-8{fill:#ffa457;}.cls-9{fill:url(#Безымянный_градиент_242);}.cls-10,.cls-11{fill:#4f6a00;}.cls-10,.cls-14{opacity:0.2;}.cls-11{opacity:0.4;}.cls-12{fill:#9a8b00;}.cls-13{fill:#fffe84;}.cls-14{fill:#a6931f;}.cls-15,.cls-18{fill:#b07c6d;}.cls-16{fill:#ffd377;}.cls-19{fill:#912774;}.cls-20{fill:#f9ff53;}</style><linearGradient id="Безымянный_градиент_375" x1="0.62" y1="35.37" x2="13.12" y2="35.37" gradientUnits="userSpaceOnUse"><stop offset="0" stop-color="#a71100"/><stop offset="0.39" stop-color="#d83303"/><stop offset="1" stop-color="#ec5c11"/></linearGradient><linearGradient id="Безымянный_градиент_242" y1="21.11" x2="46.97" y2="21.11" gradientUnits="userSpaceOnUse"><stop offset="0" stop-color="#84a600"/><stop offset="1" stop-color="#b5ce00"/></linearGradient></defs><g class="cls-1"><g id="Слой_2" data-name="Слой 2"><g id="layer1"><path class="cls-2" d="M5.58,55.56C5.86,52.88-.37,15.84.76,13.17s10-5.82,12-4.12-4.06,44.3-2.49,47.54S4.31,67.87,5.58,55.56Z"/><path class="cls-3" d="M.76,13.17c-.18,5,9.76.88,11.34-2.9S.85,10.52.76,13.17Z"/><path class="cls-4" d="M6.87,62.14c-2-.11,2.38-4.79,3.24-4.63S9.52,62.28,6.87,62.14Z"/><path class="cls-5" d="M2.45,11.28c2-1,3.94,1,4.43,3.3S4.9,49,5,50s.25,2,.25,2S8,16,7.9,14.09,5.63,10.12,2.45,11.28Z"/><path class="cls-5" d="M6,9.58s4.36-.67,5,2.33S8.12,46.36,5.44,53.38l.14,2.18s4.81-16,5.63-25.87.74-16.85.38-18.17S7.74,8.82,6,9.58Z"/><path class="cls-5" d="M5.54,59.82S8.56,49.65,9.62,46s.83-.92.83-.92l-.39,5.7S7.71,54.88,7.26,57A3.91,3.91,0,0,1,5.54,59.82Z"/><path class="cls-6" d="M9.89,10.27a3.54,3.54,0,0,1,1.7,1.25c.39.79-.8,6-.8,6s.54-4.3.14-5.65S9.89,10.27,9.89,10.27Z"/><path class="cls-7" d="M3.06,15.47c-2.43-.57,1.71-3.39,2.12-3.84s1.3,2.83,1.31,3.11S3.06,15.47,3.06,15.47Z"/><path class="cls-7" d="M8.05,13.63a1.75,1.75,0,0,1-.15-2.45c.93-1.13,3.13.65,2.84.92A9.38,9.38,0,0,1,8.05,13.63Z"/><path class="cls-8" d="M7.76,13.34a4.39,4.39,0,0,0,.14,1.25c.15.18,1.4-1.18,1.38-1.5S7.76,13.34,7.76,13.34Z"/><path class="cls-8" d="M11.42,11.07c-.3-.57.68-.8.68-.8S12.68,13.4,11.42,11.07Z"/><path class="cls-9" d="M44,37.45a.87.87,0,0,1-.61-.26c-.8-.65-1.92-2.39-4.55-3.47a14.9,14.9,0,0,0-6.93-.88c-9.44.72-19.9,6.69-19.9,6.69-2.66,4-7.79,2.64-9.2,1.07a10,10,0,0,1-1-3.36c0-.07,0-.12,0-.17s0-.16,0-.24C.62,31.4-.27,22.06.08,21.13a3.42,3.42,0,0,1,1-1.6s1.43,2.64,5.46,1.93a10.94,10.94,0,0,0,6.33-3.73V16.06l.28-.36A59.77,59.77,0,0,1,23.48,5.11C32.32-1.43,44.62-.77,46.65,2.46a1.57,1.57,0,0,1,.26.71,1,1,0,0,1,0,.18C47.29,7.87,45.32,37.29,44,37.45Z"/><path class="cls-10" d="M13.4,16.09a4.79,4.79,0,0,1-.56,0A3.71,3.71,0,0,1,13.4,16.09Z"/><path class="cls-11" d="M39.06,33.24a1.75,1.75,0,0,1-.24.48,14.9,14.9,0,0,0-6.93-.88c-9.44.72-19.9,6.69-19.9,6.69s2.88-22.52,2.39-23a1.76,1.76,0,0,0-1-.42A2.66,2.66,0,0,0,16,14.74C16.76,13.05,31-.45,40.55,3,46.34,5.15,39.06,32.88,39.06,33.24Z"/><path class="cls-12" d="M44,37.45c-.49-.5-.74-2.48-.32-8.43.74-10.5.8-28,3-26.56l.27.89C47.29,7.87,45.32,37.29,44,37.45Z"/><path class="cls-13" d="M.08,21.13c-.4,2.9,4.81,4,8.77,2.7a8.32,8.32,0,0,0,5.58-7c-.09-.81-1.59-.75-1.59-.75l-.08,1.48a9.55,9.55,0,0,1-6.63,4.27c-4.63.71-5.08-2.28-5.08-2.28Z"/><path class="cls-13" d="M18.71,9.31c-3,4.69,5.45-3.18,12.63-5.66S40.75,1.89,42,2.46s4.13-.56,4.13-.56-3-3.33-12.42-1.17A30.83,30.83,0,0,0,18.71,9.31Z"/><path class="cls-14" d="M37.78,2.37C31.75,2,24,7,20.73,10.77s13.18,7.87,15.76,12.84,6.4-8.36,6.26-15.13S37.78,2.37,37.78,2.37Z"/><path class="cls-15" d="M43.45,37.16l-.08,0c-.8-.65-1.92-2.39-4.55-3.47a14.9,14.9,0,0,0-6.93-.88c-9.44.72-19.9,6.69-19.9,6.69s2.57-15,2.39-23a1.94,1.94,0,0,0-1.54-.45l.28-.36s2.4-1.08,3-.63S13.79,28.32,13.4,34.49,25,32,33.32,31.34,43.45,37.16,43.45,37.16Z"/><path class="cls-16" d="M.05,23.64c.71-1.61,4.79,1,6,2.89s1,13.82-.42,14.7-3,0-3.57-2.56S.05,23.64.05,23.64Z"/><path class="cls-17" d="M1.05,17.56S.6,20.77,6.27,20.34s6.57-4.28,6.57-4.28v1.67s-2.95,4-6.71,4.08-5.08-2.28-5.08-2.28Z"/><path class="cls-18" d="M14.38,16.51s.72,1.14-1,4.06c-.77,1.33.4,2.15-.4,9.09-.74,6.46-1.71,10.76-1.95,11s.94-1.1.94-1.1,3-16.36,3-19.33S14.38,16.51,14.38,16.51Z"/><path class="cls-11" d="M14.38,16.51A35.84,35.84,0,0,1,21,9.88c3.31-2.29-.75,14.3-3.74,21.39S12,39.53,12,39.53,14.73,24.84,15,21,14.38,16.51,14.38,16.51Z"/><path class="cls-11" d="M12.42,36.83,12,39.53c-2.66,4-7.79,2.64-9.2,1.07a10,10,0,0,1-1-3.36,5.75,5.75,0,0,0,4.77,4.33C10.85,42.29,12.42,36.83,12.42,36.83Z"/><path class="cls-19" d="M3.91,42.14s.45,1.39,3.44,1.94,3.36-1.66,3.36-1.66l.11-1.59s-2.54,1.84-7,.58Z"/><path class="cls-20" d="M40.46,1.38c-1.11.21,1.88,2.65,3,2.37s1.76-1.87,1.76-1.87A22.45,22.45,0,0,0,40.46,1.38Z"/><path class="cls-20" d="M8.44,24c-2.54.22,2-4.29,3.55-4.61s1.77,0,1.77,0A5.74,5.74,0,0,1,8.44,24Z"/></g></g></g></svg>