<svg xmlns="http://www.w3.org/2000/svg" xmlns:xlink="http://www.w3.org/1999/xlink" viewBox="0 0 41.34 54.45"><defs><style>.cls-1{isolation:isolate;}.cls-2{fill:url(#Безымянный_градиент_231);}.cls-3{fill:url(#Безымянный_градиент_234);}.cls-4{fill:url(#Безымянный_градиент_177);}.cls-5{fill:url(#Безымянный_градиент_480);}.cls-6{fill:url(#Безымянный_градиент_233);}.cls-7{fill:url(#Безымянный_градиент_231-2);}.cls-8{fill:url(#Безымянный_градиент_480-2);}.cls-9{fill:url(#Безымянный_градиент_480-3);}.cls-10{fill:url(#Безымянный_градиент_470);}.cls-11{fill:url(#Безымянный_градиент_231-3);}.cls-12{fill:#de2e69;opacity:0.3;}.cls-12,.cls-13,.cls-14,.cls-17{mix-blend-mode:multiply;}.cls-13,.cls-14{fill:#de376d;}.cls-13{opacity:0.7;}.cls-14{opacity:0.5;}.cls-15{fill:#e53751;}.cls-16{fill:#ffd377;mix-blend-mode:soft-light;}.cls-17{fill:#f42774;opacity:0.2;}.cls-18{fill:url(#Безымянный_градиент_458);}.cls-19{fill:url(#Безымянный_градиент_458-2);}.cls-20{fill:url(#Безымянный_градиент_458-3);}.cls-21{fill:#fff;}.cls-22{fill:url(#Безымянный_градиент_458-4);}.cls-23{fill:url(#Безымянный_градиент_458-5);}.cls-24{fill:url(#Безымянный_градиент_458-6);}</style><linearGradient id="Безымянный_градиент_231" x1="-56.08" y1="52.52" x2="-56.08" y2="38.96" gradientTransform="translate(-9.89 -21.21) rotate(-86.91)" gradientUnits="userSpaceOnUse"><stop offset="0" stop-color="#ff6a03"/><stop offset="0.95" stop-color="#ff3f00"/></linearGradient><linearGradient id="Безымянный_градиент_234" x1="-64.9" y1="45.74" x2="-64.9" y2="20.33" gradientTransform="translate(-9.89 -21.21) rotate(-86.91)" gradientUnits="userSpaceOnUse"><stop offset="0" stop-color="#ffff04"/><stop offset="0.28" stop-color="#ff6a03"/><stop offset="0.95" stop-color="#ff3f00"/></linearGradient><linearGradient id="Безымянный_градиент_177" x1="-57.4" y1="29.59" x2="-57.4" y2="13.58" gradientTransform="translate(-9.89 -21.21) rotate(-86.91)" gradientUnits="userSpaceOnUse"><stop offset="0.05" stop-color="#ff3f00"/><stop offset="0.72" stop-color="#ff6a03"/><stop offset="1" stop-color="#ffff04"/></linearGradient><linearGradient id="Безымянный_градиент_480" x1="-61.39" y1="52.42" x2="-61.39" y2="13.57" gradientTransform="translate(-9.89 -21.21) rotate(-86.91)" gradientUnits="userSpaceOnUse"><stop offset="0" stop-color="#ffa200"/><stop offset="1" stop-color="#ffb82f"/></linearGradient><linearGradient id="Безымянный_градиент_233" x1="-32.04" y1="52.52" x2="-32.04" y2="39.82" gradientTransform="translate(-9.89 -21.21) rotate(-86.91)" gradientUnits="userSpaceOnUse"><stop offset="0" stop-color="#ffb82f"/><stop offset="1" stop-color="#ffa200"/></linearGradient><linearGradient id="Безымянный_градиент_231-2" x1="-21.59" y1="52.26" x2="-21.59" y2="39.85" xlink:href="#Безымянный_градиент_231"/><linearGradient id="Безымянный_градиент_480-2" x1="-40.92" y1="39.05" x2="-40.92" y2="27.6" xlink:href="#Безымянный_градиент_480"/><linearGradient id="Безымянный_градиент_480-3" x1="-30.86" y1="40.21" x2="-30.86" y2="26.78" xlink:href="#Безымянный_градиент_480"/><linearGradient id="Безымянный_градиент_470" x1="-22.35" y1="40.22" x2="-22.35" y2="26.77" gradientTransform="translate(-9.89 -21.21) rotate(-86.91)" gradientUnits="userSpaceOnUse"><stop offset="0.05" stop-color="#ff3f00"/><stop offset="1" stop-color="#ff6a03"/></linearGradient><linearGradient id="Безымянный_градиент_231-3" x1="-31.36" y1="52.19" x2="-31.36" y2="46.36" xlink:href="#Безымянный_градиент_231"/><linearGradient id="Безымянный_градиент_458" x1="-62.98" y1="43.1" x2="-62.98" y2="39.85" gradientTransform="translate(-9.89 -21.21) rotate(-86.91)" gradientUnits="userSpaceOnUse"><stop offset="0" stop-color="#ffde00"/><stop offset="1" stop-color="#ffe834"/></linearGradient><linearGradient id="Безымянный_градиент_458-2" x1="-66.85" y1="36.57" x2="-66.85" y2="24.06" xlink:href="#Безымянный_градиент_458"/><linearGradient id="Безымянный_градиент_458-3" x1="-60.49" y1="28.25" x2="-60.49" y2="13.64" xlink:href="#Безымянный_градиент_458"/><linearGradient id="Безымянный_градиент_458-4" x1="-38.83" y1="39.82" x2="-38.83" y2="27.83" xlink:href="#Безымянный_градиент_458"/><linearGradient id="Безымянный_градиент_458-5" x1="-24.85" y1="38.13" x2="-24.85" y2="29.12" xlink:href="#Безымянный_градиент_458"/><linearGradient id="Безымянный_градиент_458-6" x1="-40.98" y1="34.16" x2="-39.9" y2="34.16" xlink:href="#Безымянный_градиент_458"/></defs><g class="cls-1"><g id="Слой_2" data-name="Слой 2"><g id="layer1"><path class="cls-2" d="M26.54,26.68S38,38.53,39.08,42.31a2.61,2.61,0,0,1,.07.42,38.44,38.44,0,0,1-.27,5.09l0,0-.67-.92L26.33,30.61Z"/><path class="cls-3" d="M12.37,43.44c-1,2.37,11.35,2.84,14.42,1.71s.74-4.78.74-4.78l4.8,4.73-8.18,5.95L6.62,50l2.57-7.34Z"/><path class="cls-4" d="M0,47.3a35.48,35.48,0,0,1,1.21-7.07c.88-2.53,6.84-8.23,15.51-13l.15,4.54Z"/><path class="cls-5" d="M25.9,29.45a2,2,0,0,0,.43,1c2.12,3.07,10.93,10,12.37,15.22a4.6,4.6,0,0,1,.15,2.1,4.32,4.32,0,0,1-2.3,2.94c-4.23,2.51-12.28,3.89-19.88,3.72-9.39-.22-18-2.79-16.51-8.26C2.83,36.11,17.42,32.11,17.33,30.45l.6,8.75s-9.24,5.39-6.67,8.12,17.41,1.12,18.15-1.79-4.19-8-4.19-8Z"/><path class="cls-6" d="M27.83,18.65s12,2.88,12.42,2.91.22-7.57.22-7.57-5-.56-5-.72a5.3,5.3,0,0,1,.11-1.49c.12-.15,5,.56,5,.56S41,5.94,41,5.69s-12.21,0-12.21,0Z"/><path class="cls-7" d="M28.74,5.67l0-2.28S41.1-.2,41.23,0,41,5.69,41,5.69Z"/><path class="cls-8" d="M16.84,39.4a7.66,7.66,0,0,0,9.05-1.11l2-34.59L16.49,2.2Z"/><path class="cls-9" d="M15.84,18.42,15.67,2,29,3.86l-1.2,14.79S23.13,23,15.84,18.42Z"/><path class="cls-10" d="M15.67,2C15.11,5.66,28.31,6.87,29,3.86,29.55,1.64,16.28-2,15.67,2Z"/><path class="cls-11" d="M40.47,14l.09-1.65s-5.37-.86-5.56-.78a2.6,2.6,0,0,0-.2,1.82C35,13.7,40.47,14,40.47,14Z"/><path class="cls-12" d="M23.77,39.73S26.09,36.62,26.24,29c.1-5.24.1-7.74-.2-8.18s-5.12,1.92-9.55-2c0,0,3.89,3.46,10.48.46l-.43,7.41,3.63,3.88s1.35,1.91,1.18,3.37-1.59-.2-2.61-.42S27,39.59,27,39.59l-1.07-1.3A12,12,0,0,1,23.77,39.73Z"/><path class="cls-13" d="M8.42,35.83c-1.38-.78,2.27-4.94,4.07-6.07s4.24-2.54,4.24-2.54.36,3.34-.22,3.91S8.42,35.83,8.42,35.83Z"/><path class="cls-13" d="M39,46.59s.31-1.87-2.88-5.5-3-5.25-2.64-5.77,4.37,4.34,5.15,5.93S39,46.59,39,46.59Z"/><path class="cls-14" d="M28.66,18.85S31.12,6.91,31.5,6s4.68-1.49,5-2.61-7.83,0-7.83,0A3.28,3.28,0,0,1,29,5.05c-.05,1-1.15,13.6-1.15,13.6Z"/><path class="cls-14" d="M35,11.56l-2.42-.3a17.92,17.92,0,0,0-.17,3.28c.18.22,2.76-1,2.76-1l3.91-1.42Z"/><path class="cls-15" d="M40.25,21.56s1.5-8.21,1-21.55L41,5.69l-.39,6.65L40.47,14Z"/><path class="cls-16" d="M15.84,17.79c0,.63,3.67,2.52,5.48,2.34s1.13-12.5.77-13.3S17.56,5,16.39,4,15.84,17.79,15.84,17.79Z"/><path class="cls-16" d="M17.2,19.82c-.55-.15-.36,18.25-.15,19s2.92,1.54,3.66,1.27,1-17.72.37-18.46S17.2,19.82,17.2,19.82Z"/><path class="cls-16" d="M15.75,32.42c.37-.06.92,6.54.54,7.31s-5.85,3.13-5.82,6.3,10.6,2.47,11.59,3.17.88,4.35.44,4.73S1.7,55,.84,47.28,15,32.54,15.75,32.42Z"/><path class="cls-13" d="M13.5,48.14s6,.34,7.77-.52-8.07-2.42-8.74-3-2.1,1.1-1.69,1.9S13.5,48.14,13.5,48.14Z"/><path class="cls-17" d="M21.66,40.35c-.95-.24-.13-16.23-.21-18s1.73-1.06,1.9-.49-.94,17.25-1.15,17.92S21.66,40.35,21.66,40.35Z"/><path class="cls-17" d="M22.37,19.87c0,.74,1.8,0,2.15-.24S25.36,7,25.06,6.57,22.93,6,22.66,6,22.61,13.34,22.37,19.87Z"/><path class="cls-17" d="M22.85,54c.26.22,3.36-.13,3.83-.21s.51-5.43-.05-5.58a10.64,10.64,0,0,0-3.68.62C22.6,49.11,22.85,54,22.85,54Z"/><path class="cls-18" d="M26.31,47.53s2.21-1.4,2.56-2.75-1.49-4.62-1.49-4.62a11.28,11.28,0,0,1,2.29,4.37C30.05,46.67,26.31,47.53,26.31,47.53Z"/><path class="cls-19" d="M23,48.33s-6.55.93-9.82.32-2.75-2.6-2.07-3.55c0,0-.54,1,.66,2.24S23,48.33,23,48.33Z"/><path class="cls-20" d="M.26,48.72S-.45,44.49,5,39.36a45.5,45.5,0,0,1,10.55-7.43S8.3,35.44,4.77,38.78-.53,46.16.26,48.72Z"/><path class="cls-21" d="M3,40.66c-.78,1.18,3.09,1.66,5.79-.48s1-4.79.7-4.81S4.17,38.93,3,40.66Z"/><path class="cls-21" d="M29.16,46c.25.84,1.27-.4,1.62-1.28s-1.24-2-1.75-2S29,45.36,29.16,46Z"/><path class="cls-21" d="M16.92,31.05c.37,3.62,2.23-1.49,2.21-5.48S17.74,20,17.2,19.82,16.92,31.05,16.92,31.05Z"/><path class="cls-13" d="M27,19.27v1.18s-6.27,2.61-10.47-1.64A11.42,11.42,0,0,0,27,19.27Z"/><path class="cls-22" d="M15.84,18.42s6.87,3.18,12,.23C27.83,18.65,22.48,22.87,15.84,18.42Z"/><path class="cls-23" d="M17.88,4.44s5,3.25,9,.95A27.3,27.3,0,0,1,17.88,4.44Z"/><path class="cls-16" d="M38.38,14.7c2.06.27,2,6.2,1.41,6.41s-8.47-1.33-9.47-2.25,3.73-4.79,4.84-5S38.38,14.7,38.38,14.7Z"/><path class="cls-16" d="M31.6,9.69c0,.84,8.71,2.52,9,2.09s.09-5.07-.23-5.37-7.63-.51-8.29-.29S31.6,9.69,31.6,9.69Z"/><path class="cls-13" d="M21.63,5.22A5.43,5.43,0,0,0,26.5,2.43c.27-.61-8.11-3.13-10-1.18S19.24,5,21.63,5.22Z"/><path class="cls-13" d="M39.08,42.31a2.61,2.61,0,0,1,.07.42,38.44,38.44,0,0,1-.27,5.09l0,0a4.32,4.32,0,0,1-2.3,2.94c-4.23,2.51-12.28,3.89-19.88,3.72l-.14-.1S30,54,35.39,50.57a7,7,0,0,0,3.31-4.89A7.89,7.89,0,0,0,39.08,42.31Z"/><path class="cls-21" d="M16.14,8.72c.27,1.27,1.19-.44,1.56-1.61s-.38-2.71-1.19-2.79S16.14,8.72,16.14,8.72Z"/><path class="cls-21" d="M33.4,19.75c-2.31-1.1,2.69-1.11,3.63.19S35,20.49,33.4,19.75Z"/><path class="cls-13" d="M26.33,30.46s1.49,1.24,2.67.67-2.46-4.45-2.46-4.45Z"/><path class="cls-13" d="M25.89,38.29,24,39.44A30.64,30.64,0,0,0,26.37,30Z"/><path class="cls-21" d="M17.25,39.62l1.19.45a19.39,19.39,0,0,1-1.52-9S16.77,38,17.25,39.62Z"/><path class="cls-21" d="M.8,44.21c0,.37,1.55-3.51,1.66-3.9S1.75,40,1.75,40A7.44,7.44,0,0,0,.8,44.21Z"/><path class="cls-24" d="M25.5,20.9s-4.11.91-6.89-.61A6.56,6.56,0,0,0,25.5,20.9Z"/></g></g></g></svg>