<svg xmlns="http://www.w3.org/2000/svg" xmlns:xlink="http://www.w3.org/1999/xlink" viewBox="0 0 45.91 47.12"><defs><style>.cls-1{isolation:isolate;}.cls-2{fill:url(#Безымянный_градиент_177);}.cls-3{fill:url(#Безымянный_градиент_177-2);}.cls-4{fill:url(#Безымянный_градиент_178);}.cls-5{fill:#f42774;opacity:0.2;}.cls-10,.cls-13,.cls-18,.cls-5{mix-blend-mode:multiply;}.cls-12,.cls-6,.cls-9{fill:#fff;}.cls-12,.cls-6{mix-blend-mode:soft-light;}.cls-7{fill:url(#Безымянный_градиент_170);}.cls-8{fill:#ff6b04;}.cls-10{fill:#de376d;opacity:0.7;}.cls-11{fill:#ffe016;}.cls-12,.cls-13{opacity:0.5;}.cls-13,.cls-18{fill:#d42f55;}.cls-14{fill:url(#Безымянный_градиент_533);}.cls-15{fill:#ff9500;}.cls-16{fill:url(#Безымянный_градиент_533-2);}.cls-17{fill:url(#Безымянный_градиент_533-3);}.cls-18{opacity:0.8;}.cls-19{fill:url(#Безымянный_градиент_173);}.cls-20{fill:url(#Безымянный_градиент_173-2);}.cls-21{fill:url(#Безымянный_градиент_140);}.cls-22{fill:url(#Безымянный_градиент_140-2);}</style><linearGradient id="Безымянный_градиент_177" x1="26.62" y1="46.6" x2="26.62" y2="0.52" gradientUnits="userSpaceOnUse"><stop offset="0.05" stop-color="#ff3f00"/><stop offset="0.72" stop-color="#ff6a03"/><stop offset="1" stop-color="#ffff04"/></linearGradient><linearGradient id="Безымянный_градиент_177-2" x1="23.75" y1="47.12" x2="23.75" y2="0" xlink:href="#Безымянный_градиент_177"/><linearGradient id="Безымянный_градиент_178" x1="20.11" y1="47.12" x2="20.11" gradientUnits="userSpaceOnUse"><stop offset="0" stop-color="#ffa900"/><stop offset="1" stop-color="#ff9600"/></linearGradient><linearGradient id="Безымянный_градиент_170" x1="19.94" y1="39.06" x2="19.94" y2="8.06" gradientUnits="userSpaceOnUse"><stop offset="0" stop-color="#ff7c04"/><stop offset="1" stop-color="#d92000"/></linearGradient><linearGradient id="Безымянный_градиент_533" x1="39.02" y1="35.47" x2="39.02" y2="29.67" gradientUnits="userSpaceOnUse"><stop offset="0.04" stop-color="#ef6300"/><stop offset="1" stop-color="#e13e00"/></linearGradient><linearGradient id="Безымянный_градиент_533-2" x1="34.18" y1="34.09" x2="34.18" y2="30.45" xlink:href="#Безымянный_градиент_533"/><linearGradient id="Безымянный_градиент_533-3" x1="8.48" y1="17" x2="8.48" y2="14.24" gradientTransform="translate(2.18 -2.38) rotate(0.6)" xlink:href="#Безымянный_градиент_533"/><linearGradient id="Безымянный_градиент_173" x1="24.04" y1="33.01" x2="16.87" y2="13.31" gradientUnits="userSpaceOnUse"><stop offset="0" stop-color="#ea5104"/><stop offset="1" stop-color="#d92000"/></linearGradient><linearGradient id="Безымянный_градиент_173-2" x1="21.69" y1="28.33" x2="18.1" y2="18.47" xlink:href="#Безымянный_градиент_173"/><linearGradient id="Безымянный_градиент_140" x1="22.59" y1="33.01" x2="15.42" y2="13.31" gradientUnits="userSpaceOnUse"><stop offset="0" stop-color="#ff9600"/><stop offset="1" stop-color="#ffa900"/></linearGradient><linearGradient id="Безымянный_градиент_140-2" x1="20.06" y1="28.32" x2="16.47" y2="18.47" xlink:href="#Безымянный_градиент_140"/></defs><g class="cls-1"><g id="Слой_2" data-name="Слой 2"><g id="layer1"><path class="cls-2" d="M45.91,23.56a26.74,26.74,0,0,1-1.5,8.91,22.56,22.56,0,0,1-1.07,2.58,0,0,0,0,1,0,0,22.94,22.94,0,0,1-3,4.69l-.05,0a20.21,20.21,0,0,1-1.6,1.72l-.06.06a19.08,19.08,0,0,1-2.55,2.05l-.08.06h0a16.85,16.85,0,0,1-8.89,2.9H26l-.37,0-.32,0c-.13,0-.24,0-.37,0l-.22,0a15.63,15.63,0,0,1-3.12-.68A17.56,17.56,0,0,1,19.62,45C12.43,41.68,7.33,33.33,7.33,23.56a27.29,27.29,0,0,1,.44-4.92C9.19,10.85,13.91,4.53,20.09,1.88A16.81,16.81,0,0,1,24.41.67l.16,0h.1c.6-.07,1.22-.11,1.83-.12H27A17.83,17.83,0,0,1,40.29,7.31l.15.18.06.08A25.44,25.44,0,0,1,45.91,23.56Z"/><path class="cls-3" d="M27.91,46.54l-.79.05h-.06l-4.19.3h-.09L20.92,47h0l-1.22.09H19.6V45l.29-26.92.18-16.24V0l2.51.19h0L27,.52V1l0,.43v.27l.23,11.44.63,30.54,0,1.59v1.32Z"/><path class="cls-4" d="M39.84,23.56a27.55,27.55,0,0,1-1.56,9.18h0v0h0c0,.1-.14.41-.32.86-.08.22-.18.44-.27.65a24,24,0,0,1-3.35,5.62l-.58.69a19.84,19.84,0,0,1-5.87,4.63,16.47,16.47,0,0,1-3.21,1.26c-.3.09-.6.17-.91.24h0c-.26.06-.51.11-.78.15l-.1,0a16.76,16.76,0,0,1-2.76.23H19.6A16.85,16.85,0,0,1,14.22,46c-.22-.08-.45-.16-.66-.25l-.14-.05a19.08,19.08,0,0,1-5.31-3.47l0,0a22.59,22.59,0,0,1-3.34-3.91h0A26.5,26.5,0,0,1,.39,23.56a27.1,27.1,0,0,1,2.4-11.27A3.28,3.28,0,0,1,3,11.94,20.75,20.75,0,0,1,14.71.9l0,0q.45-.15.9-.27l.48-.13L17,.3l.5-.09A16.25,16.25,0,0,1,20.11,0a17.35,17.35,0,0,1,2.51.19h0a15.24,15.24,0,0,1,2.05.45l.09,0c.26.07.51.15.77.24l0,0c.47.16,1,.35,1.41.55C34.49,4.81,39.84,13.44,39.84,23.56Z"/><path class="cls-5" d="M31.85,6.15c-.13.91-1.76,4-4.63,6.94a21.19,21.19,0,0,1-7.31,5,16.12,16.12,0,0,1-4,1,20.14,20.14,0,0,1-8.15-.5c-3.83-1.16-5.45-3.47-5.34-4.5A31.22,31.22,0,0,1,6.85,6.85,18.59,18.59,0,0,1,14.71.9l0,0q.45-.15.9-.27L16,.51l.15,0L17,.3l.5-.09A16.94,16.94,0,0,1,20.11,0a15.6,15.6,0,0,1,4.2.61l.1,0a16.28,16.28,0,0,1,2.58,1,11.87,11.87,0,0,1,1.07.55c.38.22.78.48,1.2.77C31,4.19,31.94,5.48,31.85,6.15Z"/><path class="cls-6" d="M2.18,32.51C3,34,16.31,27.82,22.44,26s15.71.11,16.54-.62-.1-11.24-3.62-16.24-3.41.27-7,2.76-18.16,6.9-21.27,6.56S3,16.73,1.84,16.89-1.81,25.39,2.18,32.51Z"/><path class="cls-7" d="M32.75,23.56c0,8.17-5.21,14.86-11.84,15.45-.32,0-.64.05-1,.05-7.09,0-12.82-6.94-12.82-15.5s5.73-15.5,12.82-15.5c.33,0,.65,0,1,0C27.54,8.7,32.75,15.4,32.75,23.56Z"/><path class="cls-8" d="M32.75,23.56c0,8.17-5.21,14.86-11.84,15.45-6.63-.58-11.86-7.28-11.86-15.45S14.28,8.7,20.91,8.11C27.54,8.7,32.75,15.4,32.75,23.56Z"/><path class="cls-9" d="M1,29.31c-.48-2.83,5.55.75,1.3,4.14A17.29,17.29,0,0,1,1,29.31Z"/><path class="cls-6" d="M26.62.52C25,.37,34.59,4,37.09,10.66s7.18,4.52,7.18,4.52S39.77,1.07,26.62.52Z"/><path class="cls-10" d="M44.41,32.47a11.33,11.33,0,0,1-1.07,2.58,0,0,0,0,1,0,0A31,31,0,0,1,40,40.13l0,0c-.4.48-.81.94-1.23,1.37l-.06.06a12.2,12.2,0,0,1-2.55,2.05l-.08.06h0a24.5,24.5,0,0,1-8.11,2.66c-.93.15-1.63.21-1.95.24h-.21l-.16,0a.42.42,0,0,1-.14,0c-.2-.14.85-.34,2.45-1.08,2.79-1.27,7.26-4.17,9.79-11.16,0,0,5.3-2.9,6.59-2.65C44.49,31.67,44.53,32,44.41,32.47Z"/><path class="cls-11" d="M25.5.89s11,2.51,14.34,16.17S33,41.74,33,41.74a35.46,35.46,0,0,0,5.74-23.27A22.09,22.09,0,0,0,25.5.89Z"/><path class="cls-9" d="M39.61,17.27c-.82-1.2-2.48,5.35-.2,6.6C40.52,24.49,41.19,19.59,39.61,17.27Z"/><path class="cls-12" d="M38.27,32.77c0,.1-.14.41-.32.86a28.16,28.16,0,0,1-3.62,6.27,19.09,19.09,0,0,1-6.45,5.48,15.67,15.67,0,0,1-3,1.13c-.24.06-.47.12-.72.16h0a11,11,0,0,1-1.17.19l-.19,0-.16,0c-.58.06-1.15.1-1.7.11h0c-.45,0-.88,0-1.3,0a18,18,0,0,1-6-1.24l-.14-.05a14.86,14.86,0,0,1-5.31-3.47l0,0,0,0a29.05,29.05,0,0,0,6.24,2.92,17.72,17.72,0,0,0,5.31.81,14.18,14.18,0,0,0,1.94-.14l.53-.09a18.78,18.78,0,0,0,5.77-2.08A28.46,28.46,0,0,0,38.27,32.77Z"/><path class="cls-11" d="M11.17,34.86s9.56,7.83,17.14.43C28.31,35.29,20,44.5,11.17,34.86Z"/><path class="cls-13" d="M7.68,18.6c.41,2.62,2.69-5.7,10.67-8.24s13.87,8.75,13.87,8.75S30.64,8,19.63,8C11,8,7.68,18.6,7.68,18.6Z"/><path class="cls-6" d="M29.47,44.69c-.79.5,3.66.6,5.48-.44s4.38-3.11,4.73-4.36-2.15-1-3.65-.63S33.15,42.31,29.47,44.69Z"/><path class="cls-14" d="M39.68,29.72c-1.45-.48-3.33,2.59-2.2,5.17S43,30.8,39.68,29.72Z"/><path class="cls-10" d="M37.53,31.88c-.07,1.88,2.11,2,2.89,1s.66-3.17-.93-3.21S37.53,31.88,37.53,31.88Z"/><path class="cls-15" d="M37.15,33.5c.42-1.13,1.74.26,2.53.32s-.48,1.92-1.4,1.65S37.15,33.5,37.15,33.5Z"/><path class="cls-16" d="M35,30.51c-1.46-.47-2.84,1.75-2.2,3.25S37.49,31.32,35,30.51Z"/><path class="cls-10" d="M34.31,30.45a1.72,1.72,0,0,0-.88,2.29c.41.45,2.31-.1,2.34-1.15A1.17,1.17,0,0,0,34.31,30.45Z"/><path class="cls-15" d="M32.59,33.23c.23-1.37.81,0,1.59.15S32.68,35.07,32.59,33.23Z"/><path class="cls-17" d="M11.09,12c-1.1-.37-2.17,1.3-1.69,2.44S13,12.63,11.09,12Z"/><path class="cls-10" d="M10.6,11.94a1.31,1.31,0,0,0-.68,1.73c.31.35,1.75-.06,1.78-.85A.9.9,0,0,0,10.6,11.94Z"/><path class="cls-15" d="M9.28,14c.18-1,.61,0,1.2.13S9.34,15.43,9.28,14Z"/><path class="cls-18" d="M40.44,7.49l-.15-.18Z"/><path class="cls-18" d="M40.29,7.31a17.43,17.43,0,0,0-3.42-2.89h0A23.14,23.14,0,0,0,27,.86a1.13,1.13,0,0,0-.18,0c-.65-.08-1.33-.14-2-.17h-.45A28.28,28.28,0,0,0,20.9.73L20.1.8A22.18,22.18,0,0,0,6.85,6.85,20.14,20.14,0,0,0,3,11.94,20.75,20.75,0,0,1,14.71.9l0,0q.45-.15.9-.27L16,.51l.15,0L17,.3l.5-.09A16.25,16.25,0,0,1,20.11,0a17.35,17.35,0,0,1,2.51.19h0L27,.52h0A17.83,17.83,0,0,1,40.29,7.31Z"/><path class="cls-18" d="M40.3,39.8a20.21,20.21,0,0,1-1.6,1.72l-.06.06a12.2,12.2,0,0,1-2.55,2.05l-.08.06h0a16.85,16.85,0,0,1-8.89,2.9h-.06l-4.19.3a16.76,16.76,0,0,1-2.76.23H19.6A16.85,16.85,0,0,1,14.22,46c-.22-.08-.45-.16-.66-.25l-.14-.05a14.86,14.86,0,0,1-5.31-3.47l0,0a22.59,22.59,0,0,1-3.34-3.91,29.09,29.09,0,0,0,9.56,6.8,20.71,20.71,0,0,0,5.3,1.49,17.88,17.88,0,0,0,4.15.1h0l.38,0h0c.37,0,.73-.08,1.09-.13l.18,0c.86-.12,1.68-.28,2.46-.46a27.36,27.36,0,0,0,12-5.91l0,0Z"/><path class="cls-9" d="M30.18,1.47c-2.3-.09,2.57,3.49,4.5,5.05s5.06.46,5.16.31S34.82,1.67,30.18,1.47Z"/><path class="cls-19" d="M32.58,23.43c-.28-2.61-6.66-12.58-13.69-10.8C12.74,14.18,9,21.52,9.22,25.34c.07,1.41,3.64,8.43,10.82,8.45S32.86,26,32.58,23.43ZM19.93,29.67c-6.18,0-7.75-4.21-8.1-4.93-.66-1.34,2.45-6.67,7.65-7.31s9.31,4.68,9.43,6.12S26,29.67,19.93,29.67Z"/><path class="cls-20" d="M24.36,23.4c0,3-2,5.34-4.47,5.34s-4.46-2.39-4.46-5.34,2-5.35,4.46-5.35S24.36,20.45,24.36,23.4Z"/><path class="cls-21" d="M24.69,14.51C22.55,12.92,20,12,17.44,12.63a13,13,0,0,0-7.54,6,12.78,12.78,0,0,0-2.14,6.72,11.19,11.19,0,0,0,3.52,5.49,10.66,10.66,0,0,0,7.31,2.95C25,33.81,30.22,27.57,31,24.4a2.7,2.7,0,0,0,.11-1C31,21.79,28.35,17.22,24.69,14.51ZM18.47,29.66A11.58,11.58,0,0,1,17,29.57a7.75,7.75,0,0,1-6.6-4.83c-.44-.89.77-3.51,3.13-5.37A9.12,9.12,0,0,1,18,17.43a7.18,7.18,0,0,1,2.23.08c4.1.77,7.1,4.81,7.21,6a5.24,5.24,0,0,1-1.81,3.25A10,10,0,0,1,18.47,29.66Z"/><path class="cls-22" d="M22.66,23.4c0,3-2,5.34-4.39,5.34s-4.4-2.39-4.4-5.34a5.84,5.84,0,0,1,1.7-4.22,3.93,3.93,0,0,1,2.7-1.13,4,4,0,0,1,.6.05C21,18.46,22.66,20.69,22.66,23.4Z"/><path class="cls-13" d="M10.54,24.3c.12,1,2.4-4.57,6.75-6.06S27,22.39,27,22.39a9.81,9.81,0,0,0-8.54-5C12.25,17.24,10.54,24.3,10.54,24.3Z"/><path class="cls-6" d="M17,29.57a37.9,37.9,0,0,1-5.7,1.27,11.19,11.19,0,0,1-3.52-5.49A12.78,12.78,0,0,1,9.9,18.63a9.63,9.63,0,0,0,3.61.74c-2.36,1.86-3.57,4.48-3.13,5.37A7.75,7.75,0,0,0,17,29.57Z"/><path class="cls-6" d="M22.9,23.4c0,3-2,5.34-4.46,5.34S14,26.35,14,23.4a5.77,5.77,0,0,1,1.72-4.22,14.59,14.59,0,0,0,3.35-1.08C21.23,18.46,22.9,20.69,22.9,23.4Z"/><path class="cls-6" d="M31.13,23.43a2.7,2.7,0,0,1-.11,1,30.86,30.86,0,0,1-5.37,2.4,5.24,5.24,0,0,0,1.81-3.25c-.11-1.23-3.11-5.27-7.21-6a31.53,31.53,0,0,0,4.44-3C28.35,17.22,31,21.79,31.13,23.43Z"/><path class="cls-9" d="M25.29,15a2.64,2.64,0,0,0,.4,2.4,2,2,0,0,0,2.61.72S26.68,15.38,25.29,15Z"/></g></g></g></svg>