<svg xmlns="http://www.w3.org/2000/svg" xmlns:xlink="http://www.w3.org/1999/xlink" viewBox="0 0 49.66 48.7"><defs><style>.cls-1{isolation:isolate;}.cls-2{fill:url(#Безымянный_градиент_177);}.cls-3{fill:url(#Безымянный_градиент_177-2);}.cls-4{fill:url(#Безымянный_градиент_178);}.cls-5{fill:#f42774;opacity:0.2;}.cls-10,.cls-13,.cls-18,.cls-5{mix-blend-mode:multiply;}.cls-12,.cls-6,.cls-9{fill:#fff;}.cls-12,.cls-6{mix-blend-mode:soft-light;}.cls-7{fill:url(#Безымянный_градиент_170);}.cls-8{fill:#ff6b04;}.cls-10{fill:#de376d;opacity:0.7;}.cls-11{fill:#ffe016;}.cls-12,.cls-13{opacity:0.5;}.cls-13,.cls-18{fill:#d42f55;}.cls-14{fill:url(#Безымянный_градиент_533);}.cls-15{fill:#ff9500;}.cls-16{fill:url(#Безымянный_градиент_533-2);}.cls-17{fill:url(#Безымянный_градиент_533-3);}.cls-18{opacity:0.8;}.cls-19{fill:url(#Безымянный_градиент_173);}.cls-20{fill:url(#Безымянный_градиент_140);}</style><linearGradient id="Безымянный_градиент_177" x1="28.79" y1="48.2" x2="28.79" y2="0.58" gradientUnits="userSpaceOnUse"><stop offset="0.05" stop-color="#ff3f00"/><stop offset="0.72" stop-color="#ff6a03"/><stop offset="1" stop-color="#ffff04"/></linearGradient><linearGradient id="Безымянный_градиент_177-2" x1="25.65" y1="48.7" x2="25.65" y2="0" xlink:href="#Безымянный_градиент_177"/><linearGradient id="Безымянный_градиент_178" x1="21.74" y1="48.7" x2="21.74" gradientUnits="userSpaceOnUse"><stop offset="0" stop-color="#ffa900"/><stop offset="1" stop-color="#ff9600"/></linearGradient><linearGradient id="Безымянный_градиент_170" x1="21.56" y1="40.93" x2="21.56" y2="8.92" gradientUnits="userSpaceOnUse"><stop offset="0" stop-color="#ff7c04"/><stop offset="1" stop-color="#d92000"/></linearGradient><linearGradient id="Безымянный_градиент_533" x1="41.92" y1="37.4" x2="41.92" y2="31.6" gradientUnits="userSpaceOnUse"><stop offset="0.04" stop-color="#ef6300"/><stop offset="1" stop-color="#e13e00"/></linearGradient><linearGradient id="Безымянный_градиент_533-2" x1="36.78" y1="36.03" x2="36.78" y2="32.38" xlink:href="#Безымянный_градиент_533"/><linearGradient id="Безымянный_градиент_533-3" x1="9.83" y1="18.39" x2="9.83" y2="15.44" gradientTransform="translate(1.45 -2.41) rotate(0.6)" xlink:href="#Безымянный_градиент_533"/><linearGradient id="Безымянный_градиент_173" x1="26.87" y1="36.33" x2="18.46" y2="13.24" gradientUnits="userSpaceOnUse"><stop offset="0" stop-color="#ea5104"/><stop offset="1" stop-color="#d92000"/></linearGradient><linearGradient id="Безымянный_градиент_140" x1="25.2" y1="36" x2="16.96" y2="13.35" gradientUnits="userSpaceOnUse"><stop offset="0" stop-color="#ff9600"/><stop offset="1" stop-color="#ffa900"/></linearGradient></defs><g class="cls-1"><g id="Слой_2" data-name="Слой 2"><g id="layer1"><path class="cls-2" d="M49.64,25.36a26.69,26.69,0,0,1-2,9A24.37,24.37,0,0,1,46.42,37a0,0,0,0,1,0,0A24.25,24.25,0,0,1,43.1,41.6l-.05,0a21,21,0,0,1-1.74,1.67l-.06.06a20.08,20.08,0,0,1-2.72,2l-.08,0a0,0,0,0,0,0,0,18.85,18.85,0,0,1-9.29,2.77H27.93l-.38,0c-.11,0-.23,0-.33,0a2.56,2.56,0,0,1-.39,0l-.22,0a17.67,17.67,0,0,1-3.25-.66,18.69,18.69,0,0,1-2-.72C13.8,43.48,8.22,35.27,7.93,25.36a27.1,27.1,0,0,1,.34-5.12C9.6,12,14.7,5.05,21.6,2.1A18.75,18.75,0,0,1,26.46.75l.18,0h.12A19.78,19.78,0,0,1,28.82.58h.52A19.57,19.57,0,0,1,44.11,8.11a1.79,1.79,0,0,1,.16.19l.07.09A25.57,25.57,0,0,1,49.64,25.36Z"/><path class="cls-3" d="M30,48.14l-.82,0h-.07l-4.34.29h-.1l-1.93.13h0l-1.26.08h-.08v-2l.16-27,.1-17.6V0l2.83.21h0l4.89.37V1.85l.16,12.51.41,31,0,1.53v1.25Z"/><path class="cls-4" d="M43.07,25.36a26.67,26.67,0,0,1-2,9.32h0a0,0,0,0,1,0,0s0,0,0,0-.16.4-.37.85c-.09.22-.19.44-.3.65a24,24,0,0,1-3.67,5.52c-.2.23-.41.46-.62.68A21.3,21.3,0,0,1,30,46.89a19.24,19.24,0,0,1-3.34,1.2l-1,.22h0l-.81.15-.1,0a19.49,19.49,0,0,1-2.87.22h-.53a19,19,0,0,1-5.59-1l-.7-.24-.15-.05A20.75,20.75,0,0,1,9.29,44l0,0a23.26,23.26,0,0,1-3.62-3.79h0A26.35,26.35,0,0,1,.43,25.36,27.05,27.05,0,0,1,2.58,13.5s0-.13.17-.37A22.06,22.06,0,0,1,15.54,1l0,0c.33-.12.67-.22,1-.31l.54-.14,1-.21.56-.09A18.07,18.07,0,0,1,21.61,0a18.85,18.85,0,0,1,2.83.21h0a17.94,17.94,0,0,1,2.31.51l.09,0q.43.12.87.27l.05,0c.54.18,1.07.39,1.59.62C37.72,5.35,43.4,14.73,43.07,25.36Z"/><path class="cls-5" d="M34.74,6.83c-.16,1-2,4.36-5.22,7.53a23.28,23.28,0,0,1-8,5.34,17.88,17.88,0,0,1-4.35,1.07,22.58,22.58,0,0,1-8.88-.53C4,19,2.17,16.58,2.25,15.48A32.56,32.56,0,0,1,6.88,7.6,20,20,0,0,1,15.54,1l0,0c.33-.12.67-.22,1-.31L17,.58l.17,0,1-.21.56-.09A18.75,18.75,0,0,1,21.61,0a18.19,18.19,0,0,1,4.74.69l.11,0a18.61,18.61,0,0,1,2.9,1.1c.42.19.82.4,1.2.61s.87.53,1.34.86C33.81,4.67,34.85,6.09,34.74,6.83Z"/><path class="cls-6" d="M2.71,34.45c1,1.49,15-4.72,21.56-6.57s16.9.12,17.82-.64.23-11.75-3.51-17.13-3.78.29-7.76,3S11,20.42,7.55,20.07,3,18.23,1.72,18.4-1.86,27.24,2.71,34.45Z"/><path class="cls-7" d="M35.41,25.36c-.15,8.31-5.76,14.94-12.74,15.52-.34,0-.68,0-1,0C14.2,40.93,8,34.07,7.7,25.36c-.26-9,5.89-16.44,13.77-16.44.36,0,.72,0,1.07.05C29.91,9.62,35.57,16.82,35.41,25.36Z"/><path class="cls-8" d="M35.41,25.36c-.15,8.31-5.76,14.94-12.74,15.52-7-.57-12.67-7.21-12.88-15.52C9.57,16.81,15.19,9.62,22.54,9,29.91,9.62,35.57,16.82,35.41,25.36Z"/><path class="cls-9" d="M1.36,31.23c-.63-2.87,6,.76,1.55,4.16A17.36,17.36,0,0,1,1.36,31.23Z"/><path class="cls-6" d="M29,.58c-1.78-.16,8.9,3.87,11.51,11.16,2.54,7.12,7.75,4.85,7.75,4.85S43.75,1.21,29,.58Z"/><path class="cls-10" d="M47.66,34.41A11.69,11.69,0,0,1,46.42,37a0,0,0,0,1,0,0,31.26,31.26,0,0,1-3.74,5l0,0c-.44.46-.88.91-1.34,1.33l-.06.06a13.47,13.47,0,0,1-2.72,2l-.08,0a0,0,0,0,0,0,0A27.62,27.62,0,0,1,30,48c-1,.14-1.7.2-2,.23h-.22l-.16,0-.15,0c-.2-.14.89-.33,2.56-1A19.18,19.18,0,0,0,40.44,36.22s5.73-2.9,7.1-2.64C47.77,33.62,47.8,33.92,47.66,34.41Z"/><path class="cls-11" d="M27.69,1S40,3.8,43.28,18.58c3.1,14.07-8,25-8,25A35,35,0,0,0,42,20.07C40.66,5.81,27.69,1,27.69,1Z"/><path class="cls-9" d="M43,18.8c-.86-1.27-2.86,5.59-.44,6.89C43.77,26.32,44.67,21.24,43,18.8Z"/><path class="cls-12" d="M41.11,34.72c0,.1-.16.4-.37.85a27.72,27.72,0,0,1-4,6.17A20.16,20.16,0,0,1,30,47a16.85,16.85,0,0,1-3.12,1.07c-.24.06-.49.12-.74.16h0c-.39.07-.79.13-1.21.18l-.2,0-.16,0c-.61.06-1.2.1-1.77.11h0c-.46,0-.91,0-1.34,0a20.6,20.6,0,0,1-6.29-1.18l-.15-.05A16.37,16.37,0,0,1,9.29,44l0,0,0,0a32.31,32.31,0,0,0,6.57,2.81,20,20,0,0,0,5.53.77,15.36,15.36,0,0,0,2-.14l.55-.08a20.7,20.7,0,0,0,6-2A29.74,29.74,0,0,0,41.11,34.72Z"/><path class="cls-11" d="M12.33,36.79s10.16,7.66,18.17.43C30.5,37.22,21.73,46.19,12.33,36.79Z"/><path class="cls-13" d="M8.17,20.21c.51,2.73,2.78-6.06,11.55-8.79s15.19,9.31,15.19,9.31S33.37,8.87,21.13,8.87C11.56,8.87,8.17,20.21,8.17,20.21Z"/><path class="cls-6" d="M31.61,46.37c-.83.49,3.8.58,5.72-.42s4.66-3,5.06-4.22-2.23-1-3.82-.61S35.49,44.09,31.61,46.37Z"/><path class="cls-14" d="M42.7,31.65c-1.53-.48-3.62,2.6-2.49,5.17S46.21,32.74,42.7,31.65Z"/><path class="cls-10" d="M40.34,33.83c-.11,1.87,2.19,2,3.06,1s.8-3.18-.89-3.22S40.34,33.83,40.34,33.83Z"/><path class="cls-15" d="M39.9,35.44c.48-1.12,1.85.26,2.68.32s-.57,1.91-1.53,1.63S39.9,35.44,39.9,35.44Z"/><path class="cls-16" d="M37.63,32.45c-1.55-.47-3.07,1.75-2.4,3.25S40.32,33.26,37.63,32.45Z"/><path class="cls-10" d="M37,32.38a1.71,1.71,0,0,0-1,2.3c.42.46,2.45-.1,2.51-1.15S37.37,32.27,37,32.38Z"/><path class="cls-15" d="M35.06,35.17c.27-1.37.86,0,1.69.15S35.13,37,35.06,35.17Z"/><path class="cls-17" d="M11.72,13.18c-1.22-.39-2.35,1.4-1.79,2.62S13.85,13.87,11.72,13.18Z"/><path class="cls-10" d="M11.19,13.13A1.36,1.36,0,0,0,10.48,15c.35.37,1.92-.06,1.94-.91A1,1,0,0,0,11.19,13.13Z"/><path class="cls-15" d="M9.79,15.37c.17-1.11.67,0,1.32.14S9.88,16.85,9.79,15.37Z"/><path class="cls-18" d="M44.27,8.3a1.46,1.46,0,0,0-.16-.19A1.79,1.79,0,0,1,44.27,8.3Z"/><path class="cls-18" d="M44.11,8.11a18.13,18.13,0,0,0-3.72-3.18h0a25.61,25.61,0,0,0-11-4l-.21,0c-.73-.09-1.5-.15-2.29-.19h-.5a33.35,33.35,0,0,0-3.84.08l-.9.09A24.38,24.38,0,0,0,6.88,7.6a20.75,20.75,0,0,0-4.13,5.53A22.06,22.06,0,0,1,15.54,1l0,0c.33-.12.67-.22,1-.31L17,.58l.17,0,1-.21.56-.09A18.07,18.07,0,0,1,21.61,0a18.85,18.85,0,0,1,2.83.21h0l4.89.37h0A19.55,19.55,0,0,1,44.11,8.11Z"/><path class="cls-18" d="M43.05,41.65a21,21,0,0,1-1.74,1.67l-.06.06a13.47,13.47,0,0,1-2.72,2l-.08,0a0,0,0,0,0,0,0,18.85,18.85,0,0,1-9.29,2.77h-.07l-4.34.29a19.49,19.49,0,0,1-2.87.22h-.53a19,19,0,0,1-5.59-1l-.7-.24-.15-.05A16.37,16.37,0,0,1,9.29,44l0,0a23.26,23.26,0,0,1-3.62-3.79A31.56,31.56,0,0,0,15.81,46.8a22.77,22.77,0,0,0,5.53,1.42,19.89,19.89,0,0,0,4.31.09h0l.4,0h0c.38,0,.76-.08,1.13-.13h.18c.89-.12,1.75-.27,2.57-.44A30.21,30.21,0,0,0,42.65,42l0,0Z"/><path class="cls-9" d="M33,1.65c-2.59-.11,2.82,3.87,4.95,5.59s5.62.51,5.73.34S38.17,1.87,33,1.65Z"/><path class="cls-19" d="M20.51,12.76c-9.72,1.13-10.34,15.61-7.9,17.45s3.92-.12,4.2,1-1.72,3.29-1.72,3.29C15.25,36,21.66,37,21.86,36.7s.92-2.46.92-2.46-1.35,2.42-1.11,2.58,7.62-1,7.59-1.43S26.55,32,26.67,30.61s7.11,1.32,7.71-1.4S34.67,11.12,20.51,12.76ZM13.17,24.91c-.07-3.92,1.92-6.09,4.59-5.57s3.25,4.84,2.31,6.2C18.82,27.35,13.25,28.78,13.17,24.91Zm6.39,5.14c-.74-.43.94-2.42,1.67-3s2.5,2.28,2.73,3.11S20,30.31,19.56,30.05Zm3.19-4.5c-1-1.37-.5-5.72,2.36-6.42s5.31,1.5,5.27,5.78S24.08,27.41,22.75,25.55Z"/><path class="cls-20" d="M27.62,14.2A10.11,10.11,0,0,0,19,12.71a11.5,11.5,0,0,0-8,7.41c-1.72,4.34-1.38,9.07,0,10.12,2.53,1.88,4-.12,4.25,1a2.77,2.77,0,0,1-.63,1.89,11.14,11.14,0,0,1-1.1,1.42c.16,1.42,6.63,2.48,6.84,2.16s.92-2.47.92-2.47a10.74,10.74,0,0,0,.37,2.54c.23.16,5.39-1.25,5.36-1.65s-1.82-3-1.82-4.42v-.11c0-.43.63-.5,1.47-.45,1.83.09,4.81.66,5.5-1.14a8.09,8.09,0,0,0,.43-1.54C33.37,23.34,31.77,17.24,27.62,14.2Zm-5.15,16c.24.84-4,.14-4.44-.12-.75-.43.94-2.43,1.68-3S22.24,29.35,22.47,30.19Zm-10.9-5.28c-.09-3.93,1.91-6.12,4.61-5.6s3.3,4.87,2.35,6.24C17.27,27.35,11.66,28.8,11.57,24.91Zm9.67.64c-1-1.37-.52-5.75,2.36-6.45s5.37,1.51,5.34,5.81S22.58,27.42,21.24,25.55Z"/><path class="cls-13" d="M12.57,21c.07,1.54,1.66,0,3-.68s2.69.67,2.69.67S15.64,17,12.57,21Z"/><path class="cls-13" d="M21.17,21.63c.08,2.91,1.28.32,3.23-1.21a2.36,2.36,0,0,1,3.38.16,3.69,3.69,0,0,0-6.61,1.05Z"/><path class="cls-6" d="M27.62,14.2c-4.83.88-13.74,5.32-16.63,5.92-1.72,4.34-1.38,9.07,0,10.12,2.53,1.88,4-.12,4.25,1a2.77,2.77,0,0,1-.63,1.89A35.39,35.39,0,0,0,25.2,30.75l1.47-.56a62.51,62.51,0,0,0,5.93-2.68C33.37,23.34,31.77,17.24,27.62,14.2Zm-16,10.71c-.09-3.93,1.91-6.12,4.61-5.6s3.3,4.87,2.35,6.24C17.27,27.35,11.66,28.8,11.57,24.91ZM18,30.07c-.75-.43.94-2.43,1.68-3s2.53,2.29,2.76,3.13S18.48,30.33,18,30.07Zm3.21-4.52c-1-1.37-.52-5.75,2.36-6.45s5.37,1.51,5.34,5.81S22.58,27.42,21.24,25.55Z"/><path class="cls-9" d="M28.66,15.18c-.53-.52,0,2.58.92,3.46a1.05,1.05,0,0,0,1.64,0A16.69,16.69,0,0,0,28.66,15.18Z"/></g></g></g></svg>