<svg xmlns="http://www.w3.org/2000/svg" xmlns:xlink="http://www.w3.org/1999/xlink" viewBox="0 0 49.71 66.27"><defs><style>.cls-1{isolation:isolate;}.cls-2{fill:#cf4060;}.cls-3{fill:#ffbdb3;}.cls-4{fill:#ffb4ba;}.cls-12,.cls-13,.cls-19,.cls-23,.cls-26,.cls-29,.cls-32,.cls-36,.cls-4,.cls-5{mix-blend-mode:multiply;}.cls-12,.cls-19,.cls-21,.cls-27,.cls-4{opacity:0.5;}.cls-5{fill:#f96fff;}.cls-13,.cls-23,.cls-31,.cls-32,.cls-5{opacity:0.3;}.cls-6{fill:#7770ff;}.cls-7{fill:#ffc4b6;}.cls-8{fill:url(#Безымянный_градиент_65);}.cls-9{fill:url(#Безымянный_градиент_432);}.cls-10{fill:url(#Безымянный_градиент_423);}.cls-11{fill:#ebc3d3;}.cls-12,.cls-13{fill:#9a376d;}.cls-14{opacity:0.45;fill:url(#Безымянный_градиент_375);}.cls-15,.cls-16,.cls-21,.cls-31{fill:#fff;}.cls-16,.cls-21,.cls-31,.cls-35,.cls-39{mix-blend-mode:soft-light;}.cls-17{fill:url(#Безымянный_градиент_375-2);}.cls-18{fill:#ff7a00;}.cls-19{fill:#b10053;}.cls-20{fill:#97001a;}.cls-22{fill:#ffa457;}.cls-23,.cls-26{fill:#d42f55;}.cls-24{fill:#ff6500;}.cls-25{fill:#e23100;}.cls-26{opacity:0.8;}.cls-27{fill:url(#Безымянный_градиент_11);}.cls-28{fill:url(#Безымянный_градиент_40);}.cls-29,.cls-36{fill:#9a7aff;}.cls-29{opacity:0.2;}.cls-30{fill:url(#Безымянный_градиент_8);}.cls-32{fill:#9a3792;}.cls-33{mix-blend-mode:screen;fill:url(#Безымянный_градиент_43);}.cls-34{fill:#59c7ff;}.cls-35{fill:#75ffff;}.cls-36{opacity:0.4;}.cls-37{fill:url(#Безымянный_градиент_65-2);}.cls-38{fill:url(#Безымянный_градиент_65-3);}.cls-39{fill:#ffb192;opacity:0.6;}</style><linearGradient id="Безымянный_градиент_65" x1="50.83" y1="53.44" x2="58.13" y2="53.44" gradientTransform="matrix(0.99, 0.13, -0.13, 0.99, -17.8, -33.08)" gradientUnits="userSpaceOnUse"><stop offset="0" stop-color="#5b1833"/><stop offset="1" stop-color="#6d2948"/></linearGradient><linearGradient id="Безымянный_градиент_432" x1="17.35" y1="70.24" x2="17.35" y2="27.35" gradientTransform="matrix(1, -0.03, 0.03, 1, 2.13, -3.39)" gradientUnits="userSpaceOnUse"><stop offset="0" stop-color="#e8e5ed"/><stop offset="0.05" stop-color="#e5ddea"/><stop offset="0.28" stop-color="#dabbdc"/><stop offset="0.46" stop-color="#d3a7d4"/><stop offset="0.59" stop-color="#d19fd1"/><stop offset="0.64" stop-color="#be92c3"/><stop offset="0.72" stop-color="#a57fb0"/><stop offset="0.81" stop-color="#9272a3"/><stop offset="0.9" stop-color="#886b9b"/><stop offset="1" stop-color="#846898"/></linearGradient><linearGradient id="Безымянный_градиент_423" x1="6" y1="23.25" x2="28.04" y2="23.25" gradientTransform="matrix(1, -0.03, 0.03, 1, 2.13, -3.39)" gradientUnits="userSpaceOnUse"><stop offset="0" stop-color="#9082a9"/><stop offset="0.22" stop-color="#9386ab"/><stop offset="0.42" stop-color="#9d90b3"/><stop offset="0.6" stop-color="#ada3c0"/><stop offset="0.79" stop-color="#c4bcd1"/><stop offset="0.96" stop-color="#e1dde8"/><stop offset="1" stop-color="#e8e5ed"/></linearGradient><linearGradient id="Безымянный_градиент_375" x1="10.67" y1="23.87" x2="23.69" y2="23.87" gradientTransform="matrix(1, -0.03, 0.03, 1, 2.13, -3.39)" gradientUnits="userSpaceOnUse"><stop offset="0" stop-color="#a71100"/><stop offset="0.39" stop-color="#d83303"/><stop offset="1" stop-color="#ec5c11"/></linearGradient><linearGradient id="Безымянный_градиент_375-2" x1="8.18" y1="12.42" x2="28.42" y2="12.42" xlink:href="#Безымянный_градиент_375"/><radialGradient id="Безымянный_градиент_11" cx="17.16" cy="51.65" r="20.21" gradientTransform="matrix(1, -0.03, 0.03, 1, 2.13, -3.39)" gradientUnits="userSpaceOnUse"><stop offset="0" stop-color="#e8e5ed"/><stop offset="0.14" stop-color="#e3dde3"/><stop offset="0.42" stop-color="#dbd1d5"/><stop offset="0.66" stop-color="#d8cdd0"/><stop offset="0.68" stop-color="#d4c5ce"/><stop offset="0.75" stop-color="#c7acc9"/><stop offset="0.83" stop-color="#be99c5"/><stop offset="0.91" stop-color="#b98fc3"/><stop offset="1" stop-color="#b78bc2"/></radialGradient><linearGradient id="Безымянный_градиент_40" x1="17.05" y1="66.48" x2="17.05" y2="39.55" gradientTransform="matrix(1, -0.03, 0.03, 1, 2.13, -3.39)" gradientUnits="userSpaceOnUse"><stop offset="0" stop-color="#3dffff"/><stop offset="0.32" stop-color="#4a9eff"/><stop offset="1" stop-color="#6540ff"/></linearGradient><linearGradient id="Безымянный_градиент_8" x1="2.05" y1="42.93" x2="33.3" y2="42.93" gradientTransform="matrix(1, -0.03, 0.03, 1, 2.13, -3.39)" gradientUnits="userSpaceOnUse"><stop offset="0" stop-color="#3d9dff"/><stop offset="1" stop-color="#65b8ff"/></linearGradient><linearGradient id="Безымянный_градиент_43" x1="-0.97" y1="47.45" x2="11.43" y2="47.45" gradientTransform="matrix(1, -0.03, 0.03, 1, 2.13, -3.39)" gradientUnits="userSpaceOnUse"><stop offset="0.02" stop-color="#008dfe"/><stop offset="1"/></linearGradient><linearGradient id="Безымянный_градиент_65-2" x1="10.71" y1="29.35" x2="24.3" y2="29.35" gradientTransform="matrix(1, -0.03, 0.03, 1, 2.13, -3.39)" xlink:href="#Безымянный_градиент_65"/><linearGradient id="Безымянный_градиент_65-3" x1="10.55" y1="31.18" x2="24.16" y2="31.18" gradientTransform="matrix(1, -0.03, 0.03, 1, 2.13, -3.39)" xlink:href="#Безымянный_градиент_65"/></defs><g class="cls-1"><g id="Слой_2" data-name="Слой 2"><g id="layer1"><path class="cls-2" d="M33.39,28.87C32,28.8,32.33,26,32.72,25.62s.66-.1.66-.1-.17-.29-.73-.15-1.15.77-1.15,2.28A1.27,1.27,0,0,0,33.39,28.87Z"/><path class="cls-2" d="M49.24,26.67l.27-.13a31.8,31.8,0,0,1-1.17,6.29c-.72,1.92-1.4,2.49-1.64,2.64l-.08.05,1.73-10.61a2.88,2.88,0,0,0,.59,1.36Z"/><path class="cls-2" d="M49.7,23.88a3.23,3.23,0,0,0-.5.15,1.3,1.3,0,0,0-.82.7l.75-4.58C49.61,20.54,49.76,22,49.7,23.88Z"/><path class="cls-3" d="M34.25,28.43a2.14,2.14,0,0,1-2.37.27c-.61-.58-.13-2.73.87-3.27S34.77,27.88,34.25,28.43Zm14.13-3.7a1.3,1.3,0,0,1,.82-.7,9.91,9.91,0,0,0-.07-3.88c-.16-.24-.76-.39-1.65-.47-.73,1.06-1.06.52-1.2-.06-4.62-.1-13.24.95-14.16,1.67-1.22.94-1.83,11.47-1.21,12.62S45.41,36,46.62,35.52l.08-.05c.71-.57,1.7-5.17,2.24-9.2a2.88,2.88,0,0,1-.59-1.36l0-.17Z"/><path class="cls-4" d="M48.39,24.73a1.23,1.23,0,0,1,.81-.7c.18-2,.2-3.47-.07-3.88-.16-.24-.76-.39-1.65-.47-.73,1.06-1.06.52-1.2-.06-4.63-.1-13.24.95-14.15,1.67-1.23.95-1.84,11.48-1.22,12.62S45.41,36,46.62,35.52l.08-.05c.71-.57,1.7-5.17,2.24-9.2a2.79,2.79,0,0,1-.59-1.36l0-.17Zm-.47,1.63c1.26,2.18.25,4.51-.74,6.45S41.53,35.76,39.83,35,31.48,33.62,31,32.24s-.15-10,1.75-10.83a43.82,43.82,0,0,1,5.85-.73c3.61-.25,9.43-.54,10.12.22S46.66,24.19,47.92,26.36Z"/><path class="cls-5" d="M47.2,29.71c-.51,3.27-7,4-9.43,4.29s-3.21-5-3.06-8.69,4.2-4.65,8.21-4.36S47.63,26.87,47.2,29.71Z"/><path class="cls-6" d="M37.21,24c2.57-4.43,6.76.14,8.87,3.12S41.13,31.75,40,33s-4.34,0-4.85-3.84,4.9-3.79,6-4.71,2.11,4,1.65,5.07a3.2,3.2,0,0,1-4.25,1.18c-1.73-.92-1-3.23,1-4.18s1.68.5,1.9,1.21-1.73,1-2.37.42-.89,1.71.14,2.4,3.07-1.08,3.09-2.5-.58-2.67-3.5-2.16-3,3.42-2.28,5.23,3.57,1.34,6.52-.24.42-4.9-.93-6.76-3.75,1.07-4.64.87S37.21,24,37.21,24Z"/><path class="cls-2" d="M49.7,23.88s-1.09.5-1.16,1,1,1.64,1,1.64l-.27.13s-1.07-1.06-1-1.82S49.7,23.88,49.7,23.88Z"/><path class="cls-7" d="M49.51,26.54a3.31,3.31,0,0,1-.58-.17,2.1,2.1,0,0,1-.65-1.31C48.35,24.87,49.51,26.54,49.51,26.54Z"/><path class="cls-8" d="M25.72,27c2-2.05,6.61-1,7-.48s.09,1.37-.6,1.09a5.48,5.48,0,0,0-3.33-.62c-2,.16-2.08,1.29-2.86.95A.56.56,0,0,1,25.72,27Z"/><path class="cls-9" d="M41.84,42.82a15.17,15.17,0,0,0-3.3-7.88c-7.26-7.61-12.41-6.81-12.9-8.82a2.62,2.62,0,0,1,1-2.91l-6.3.66L14,23.6a2.64,2.64,0,0,1,1.17,2.85c-.36,2-5.55,1.56-12.31,9.61C1.1,38.18-.16,42.33,0,46.89v0c.33,8.47,5.6,18.37,21.65,19.36C39.43,64.05,43.17,51.67,41.84,42.82Zm-39.43.75c2.21-12,12.72-14.26,13.79-15.75A5.62,5.62,0,0,0,16.79,24l6.51-.2a5.63,5.63,0,0,0,.83,3.76c1.15,1.42,11.79,3,14.74,14.85s-6.43,19-17.61,20.1C10,62.1.22,55.62,2.41,43.57Z"/><path class="cls-10" d="M8.92,15.55c-.56.87.42,5.58,1.26,6.81,1.9,2.77,17.92,1.41,19.44-.29,1.17-1.3,1.37-6.59,1-7.37S8.92,15.55,8.92,15.55Z"/><path class="cls-11" d="M8.92,15.55c-.46,2,21.51,2.57,21.7-.85S9.92,11.19,8.92,15.55Z"/><path class="cls-12" d="M12.32,15.28c-.31,1.36,14.69,1.29,14.83-1S13,12.29,12.32,15.28Z"/><path class="cls-13" d="M11.81,17.07c-2.24-.47-1.12,2.9.15,4.79s15.37,1.4,16.54-1.49-.08-2.53-5.44-2.55S11.81,17.07,11.81,17.07Z"/><path class="cls-14" d="M13.64,17.35c-.79-.16,1.19,3.6,4.13,5s8-1.7,8.72-4.46C26.49,17.91,18.23,17.73,13.64,17.35Z"/><path class="cls-15" d="M21.07,16.1c-4.29.53,2.78,1.07,5,.62s4.69-1.58,4.39-2.11c-.19-.33-3.75.54-5.92,1A19.65,19.65,0,0,1,21.07,16.1Z"/><path class="cls-15" d="M29.94,19.22c-.72-.14-2.38,2.2-3.31,3.15s2.21.17,3.08-1S30.31,19.29,29.94,19.22Z"/><path class="cls-15" d="M9.43,15c-.51.54.08,1.19,1.12,1.42s.23-1.46-.16-1.57A1.75,1.75,0,0,0,9.43,15Z"/><path class="cls-16" d="M14.5,23.8c-1.69-.24-2.24-4.51-1.62-5.28S20.1,23,19.3,23.65,14.5,23.8,14.5,23.8Z"/><path class="cls-16" d="M9.29,16.93a11.88,11.88,0,0,0,.8,4.64A2.07,2.07,0,0,0,11.74,23c.33.08-1.14-2.94-1.62-4.44C9.46,16.5,9.46,16.5,9.29,16.93Z"/><path class="cls-13" d="M10.47,13.94c-1.25,1-1.74,1.42,3.47,0s11.28-1.17,12.59-.69,1,1.71,3.38,1.17-3.55-2.5-10.33-2.19S10.47,13.94,10.47,13.94Z"/><path class="cls-17" d="M13.41,15.86A130.35,130.35,0,0,0,10.5,2.53s13.54-5,20.31,2c0,0-3.75,5.52-4.08,10.57C26.73,15.13,21.76,16.86,13.41,15.86Z"/><path class="cls-18" d="M30.52,5C27.15,8.87,8.66,3.8,10.62,2.14s5.46-2.22,9-2.13a3.9,3.9,0,0,0,1.47.52A4.29,4.29,0,0,0,22.39.2l.37,0h0s0,1.64,1.52.24h0C28.8,1.33,32.16,3.13,30.52,5Z"/><path class="cls-19" d="M15.22,16s-1.49-10.2-.64-11.42,6.81-3,11.19-2.46,4.95,2.58,4.95,2.58a7.41,7.41,0,0,0-6.19-2.26c-4.07.33-8.6,1.14-9.11,2.82s.9,10.81.9,10.81Z"/><path class="cls-19" d="M18.24,16.19S17.73,7.68,19,5.74s10.81-.18,10.81-.18-8.65-1-10.23.28,0,10.3,0,10.3Z"/><path class="cls-19" d="M22,16s-.75-5,2.28-7,3.87.59,3.87.59L27.61,11s-.81-2.65-3.17-1.39S22.57,16,22.57,16Z"/><path class="cls-20" d="M15.57,10.28s-1.33-4.18-1-5.66,8.4-2,8.4-2-6,.74-7.37,2.29C14.65,6,15.57,10.28,15.57,10.28Z"/><path class="cls-20" d="M18.92,9.56s-.53-3.47.51-4.19,4.42-.19,4.42-.19-3.28-.23-4.24.66S18.92,9.56,18.92,9.56Z"/><path class="cls-21" d="M11.28,1.92c-1,.25,2,2.07,2.71,2.24S17.11,3,18.44,2.77,12.62,1.56,11.28,1.92Z"/><path class="cls-21" d="M15.81,4.74a14.46,14.46,0,0,0,2.89.93c.35-.11,1.4-.66,2-.94S18.86,3,15.81,4.74Z"/><path class="cls-21" d="M20.05,5.92a50.83,50.83,0,0,0,6.19.49A7,7,0,0,0,28.87,6S24.12,4.36,20.05,5.92Z"/><path class="cls-22" d="M19.3,6.25a2.84,2.84,0,0,0,1-.2.7.7,0,0,0,.26-.6A2.17,2.17,0,0,0,19.3,6.25Z"/><path class="cls-22" d="M15.29,5.61s.81-.15.88-.53S16,4.62,16,4.62,15.56,4.72,15.29,5.61Z"/><path class="cls-23" d="M19.92,15.94s-.78-6.9-.48-8.25,4-1,6.28-1-.39.06-2.22,2.5-1.58,6.06-1.89,6.43S19.92,15.94,19.92,15.94Z"/><path class="cls-23" d="M16.21,5.75c-.36.1-.6,4.92.26,8.15s1.45.58,1.56-.1.12-6.52.33-7.15S16.21,5.75,16.21,5.75Z"/><path class="cls-23" d="M14.25,4.68c0-.33-3.12-1.06-3.06-1s2,9.47,2.49,10.55S14.07,10.26,14.25,4.68Z"/><path class="cls-24" d="M22.59,13.58A8.77,8.77,0,0,1,24,10.19a2.22,2.22,0,0,1,1.83-.84s-.9-.36-2.07.83A5.62,5.62,0,0,0,22.59,13.58Z"/><path class="cls-24" d="M19.21,13.18s-.09-4.39,0-5.43.11-1.5.11-1.5S18.39,7.67,19.21,13.18Z"/><path class="cls-25" d="M22.76.25l.7.77S22.74,1.33,22.76.25Z"/><path class="cls-25" d="M19.66,0A5.64,5.64,0,0,0,22.39.2,2.28,2.28,0,0,1,19.66,0Z"/><path class="cls-20" d="M30.13,4.07a3.64,3.64,0,0,1,.26,1.07,6.1,6.1,0,0,1-.35.67s.66-1,.68-1.07S30.13,4.07,30.13,4.07Z"/><path class="cls-26" d="M13.13,14.15s.63,1.81,6.78,1.68,7-1.82,7-1.82l-.13,1.12s-5,1.83-13.32.73Z"/><path class="cls-27" d="M21.26,62.52c-11.24-.42-21-6.9-18.85-19a18.69,18.69,0,0,1,3.05-7.49c3.94-5.65,10-7.15,10.74-8.26A5.62,5.62,0,0,0,16.79,24l6.51-.2a5.63,5.63,0,0,0,.83,3.76c.89,1.09,7.42,2.27,11.72,8.2a19,19,0,0,1,3,6.65C41.82,54.31,32.44,61.4,21.26,62.52Z"/><path class="cls-28" d="M21.26,62.52c-11.24-.42-21-6.9-18.85-19a18.69,18.69,0,0,1,3.05-7.49L21.2,41l14.65-5.22a19,19,0,0,1,3,6.65C41.82,54.31,32.44,61.4,21.26,62.52Z"/><path class="cls-29" d="M3.59,39.52C5.46,36.08,14.14,42,20.67,50.31s10.08,1.76,12.63-3.64,2.28,6.62-1.22,10.54,5.61-.75,7.08-7.77-3.31-13.67-3.31-13.67,1.75,4.87-1.18,6.32-16.48-.83-21.77-2.86-7.44-3.15-7.44-3.15A17.56,17.56,0,0,0,3.59,39.52Z"/><path class="cls-30" d="M6.46,35.56c-4.82-.11,7.79,6.51,20.82,7.45s9.43-6.62,7.63-8.43-14.18,3.21-19.6,3.73S8.3,35.6,6.46,35.56Z"/><path class="cls-31" d="M5.23,55.78C.12,43.73,18.51,57.85,24.59,58.86s8.71-.59,8.71-.59-7.14,5-14.81,4S5.23,55.78,5.23,55.78Z"/><path class="cls-32" d="M2.1,46.82S3.78,62.68,21,62.14,39.43,46,39.43,46s.9,16.34-18.16,16.94S2.1,46.82,2.1,46.82Z"/><path class="cls-15" d="M24.39,65.17c-1.73-.43,6.36-3.37,10.78-7.11S36,64.37,24.39,65.17Z"/><path class="cls-15" d="M1,41.79c-.34,3.49,3.67-5.08,5.09-7.46S1.52,36.11,1,41.79Z"/><path class="cls-15" d="M6.87,33.4c-.58,0,.68-1.61,1.2-1.63S7.6,33.46,6.87,33.4Z"/><path class="cls-15" d="M36.08,33.74c-.89.14,1.91,4.27,3,7.4s2,.61,1.73-1.65S37.61,33.48,36.08,33.74Z"/><path class="cls-12" d="M14.2,27.6c2.47-.77.87,1.78,5.85,2.95s5.83-1.93,5.47-3.94a4,4,0,0,1,1.12-3.4A33.52,33.52,0,0,1,14,23.6S16.05,25.66,14.2,27.6Z"/><path class="cls-33" d="M7.46,56.7s-7.29-5-3.74-15.48C6.34,33.44,12,31,12,31s2.3-.26,2.85,8.43S11.39,56.77,7.46,56.7Z"/><path class="cls-34" d="M9.07,38.5a55.32,55.32,0,0,0,16.15,4.86c9.8,1.48,11.15-2.78,11.15-2.78S34,42.9,26,42.46,9.07,38.5,9.07,38.5Z"/><path class="cls-16" d="M21.51,42.68c-.68-.42,3.31-.51,5.34,0s.71,1-.08.89S21.51,42.68,21.51,42.68Z"/><path class="cls-29" d="M13.64,40.43C12,39.82,20,49.14,23.78,53.17s6.91-3.23,8.69-6.47a28.34,28.34,0,0,1,3.14-4.77A24.19,24.19,0,0,1,26,43.46C21,43.09,13.64,40.43,13.64,40.43Z"/><path class="cls-12" d="M21.67,66.27C5.62,65.28.35,55.38,0,46.91c.07.7,1.13,18.17,21.18,18.71,20.46.53,20.64-22.8,20.64-22.8C43.17,51.67,39.43,64.05,21.67,66.27Z"/><path class="cls-29" d="M15.44,42.28C7.33,38,8.94,46.79,12,52s2.5-2.29,5.56-2,3,4.64,6.29,6.9S19.07,61.28,17,58.52s1.22-2.7,1.53-2.16,4.45,2.73,1.86-1.46-4.07-1.68-5.56.87-5.11.42-8.47-6.84S4.49,37.5,6,37.35,13,40.59,20.43,42.78,19.58,46.75,15.44,42.28Z"/><path class="cls-16" d="M14.86,61.69c-4.94-3.38,3.34-3.38,10.83-2.39S24.52,63.71,14.86,61.69Z"/><path class="cls-15" d="M26.89,31.18c-3.68.8-.44,7,3.4,9.56S35,37,33.49,34.44,27.87,31,26.89,31.18Z"/><path class="cls-15" d="M13.22,32.44c0-2.07-3.42.41-3.6,1.78S13.24,34.33,13.22,32.44Z"/><path class="cls-16" d="M27.11,28c-1,.24,3.57,1.92,5.93,3.79S32.11,28.6,27.11,28Z"/><path class="cls-35" d="M3.82,53.73c-3.19-4.46-.16,6.19,6.85,9.5s12.21.7,12.5.11-6.44-.26-11.25-2.1S3.82,53.73,3.82,53.73Z"/><path class="cls-36" d="M34.75,43A10.32,10.32,0,0,0,37.5,38.7c.07-.14,3.37,5.92,1.22,10.63s-3.09,5.31-3.66,3.8,1-8.17-.83-8-3.49,7.41-6.49,8S24.81,49,26.61,46.6s1.12,1.41,2.75.48,1.81-3.15-4.56-3.27-3.47,4.65-1.17,2.88.06,4.81-.82,5-2.38-2.21-6.28-6.76-5.48-4.4-7-2.42,2.66,8.95.29,9.27S4.89,47,4.68,42.5s-.2-4.88.79-5.14,9.7,5.06,18,5.76S34.75,43,34.75,43Z"/><path class="cls-15" d="M4.49,46.87c-1.73-1.15-1.6,3.05-.58,4S6.06,47.92,4.49,46.87Z"/><path class="cls-37" d="M14.59,24.08c-1.35-.44-1.64,1.61,2.84,2.82s9.35-1.13,9.76-2a1.07,1.07,0,0,0-.7-1.5c-.31-.05-.78,1.11-.83,1.37S22.52,26,19.17,25.8,15.09,25,15,24.68A3.6,3.6,0,0,0,14.59,24.08Z"/><path class="cls-38" d="M14.71,25.21c-1.32-.43-2.75,3.15,4.12,4.13,4.87.69,8.44-1.87,8.41-2.95s-1.5-.88-1.76-.82.26.92.26.92-4.15,1.75-6.85,1.28-3.58-1.24-3.66-1.55S15,25.31,14.71,25.21Z"/><path class="cls-39" d="M18.52,28c-.76.55,2.26,1.58,4.32,1s3.24-1.67,3.21-2.11-3.44.85-4.9,1A26,26,0,0,1,18.52,28Z"/><path class="cls-39" d="M17.57,25.87c-.41.37,1.05,1,3.65,1s4.44-1.21,4.49-1.59-3.41.58-4.64.62S17.79,25.67,17.57,25.87Z"/></g></g></g></svg>