<svg xmlns="http://www.w3.org/2000/svg" xmlns:xlink="http://www.w3.org/1999/xlink" viewBox="0 0 59.76 43.19"><defs><style>.cls-1{isolation:isolate;}.cls-2{fill:url(#Безымянный_градиент_327);}.cls-3{fill:url(#Безымянный_градиент_348);}.cls-4{fill:url(#Безымянный_градиент_355);}.cls-5{fill:url(#Безымянный_градиент_327-2);}.cls-6{fill:#be2f55;}.cls-15,.cls-18,.cls-19,.cls-20,.cls-6,.cls-8{mix-blend-mode:multiply;}.cls-18,.cls-6{opacity:0.5;}.cls-7{fill:url(#Безымянный_градиент_382);}.cls-8{fill:#ff8355;}.cls-19,.cls-20,.cls-8{opacity:0.2;}.cls-9{fill:url(#Безымянный_градиент_364);}.cls-10{fill:url(#Безымянный_градиент_348-2);}.cls-11{fill:url(#Безымянный_градиент_360);}.cls-12{fill:url(#Безымянный_градиент_334);}.cls-13{fill:url(#Безымянный_градиент_379);}.cls-14{fill:url(#Безымянный_градиент_338);}.cls-15,.cls-18{fill:#e32f55;}.cls-15{opacity:0.3;}.cls-16{fill:url(#Безымянный_градиент_348-3);}.cls-17{fill:url(#Безымянный_градиент_385);}.cls-19{fill:#f57755;}.cls-20{fill:#ff738d;}.cls-21{fill:#ffe355;}.cls-22{fill:#ffe5d2;}</style><linearGradient id="Безымянный_градиент_327" x1="42.62" y1="17.45" x2="42.62" y2="1.69" gradientUnits="userSpaceOnUse"><stop offset="0" stop-color="#fabb36"/><stop offset="1" stop-color="#f69c13"/></linearGradient><linearGradient id="Безымянный_градиент_348" x1="53.82" y1="18.61" x2="53.82" y2="2.45" gradientUnits="userSpaceOnUse"><stop offset="0" stop-color="#df7000"/><stop offset="1" stop-color="#ea4500"/></linearGradient><linearGradient id="Безымянный_градиент_355" x1="10.45" y1="27.83" x2="51.64" y2="27.83" gradientUnits="userSpaceOnUse"><stop offset="0" stop-color="#faab00"/><stop offset="1" stop-color="#f77700"/></linearGradient><linearGradient id="Безымянный_градиент_327-2" x1="10.46" y1="18.6" x2="50.88" y2="18.6" xlink:href="#Безымянный_градиент_327"/><linearGradient id="Безымянный_градиент_382" x1="30.53" y1="23.39" x2="30.53" y2="13.14" gradientUnits="userSpaceOnUse"><stop offset="0" stop-color="#ff0"/><stop offset="1" stop-color="#fc0"/></linearGradient><linearGradient id="Безымянный_градиент_364" x1="31.28" y1="17.32" x2="41.2" y2="17.32" gradientUnits="userSpaceOnUse"><stop offset="0" stop-color="#fa9300"/><stop offset="1" stop-color="#fc9c00"/></linearGradient><linearGradient id="Безымянный_градиент_348-2" x1="46.16" y1="25.01" x2="46.16" y2="6.53" xlink:href="#Безымянный_градиент_348"/><linearGradient id="Безымянный_градиент_360" x1="50.14" y1="10.41" x2="50.14" y2="6.14" gradientUnits="userSpaceOnUse"><stop offset="0" stop-color="#fabb36"/><stop offset="1" stop-color="#ffd627"/></linearGradient><linearGradient id="Безымянный_градиент_334" x1="2.79" y1="10.18" x2="12.54" y2="10.18" gradientUnits="userSpaceOnUse"><stop offset="0" stop-color="#fa9300"/><stop offset="1" stop-color="#ea6a00"/></linearGradient><linearGradient id="Безымянный_градиент_379" x1="16.4" y1="17.59" x2="16.4" y2="0.11" gradientUnits="userSpaceOnUse"><stop offset="0" stop-color="#fa9a36"/><stop offset="1" stop-color="#f69c13"/></linearGradient><linearGradient id="Безымянный_градиент_338" x1="12.83" y1="2.71" x2="12.83" gradientUnits="userSpaceOnUse"><stop offset="0" stop-color="#fa9300"/><stop offset="1" stop-color="#fb0"/></linearGradient><linearGradient id="Безымянный_градиент_348-3" x1="16.33" y1="26.5" x2="16.33" y2="19.51" xlink:href="#Безымянный_градиент_348"/><linearGradient id="Безымянный_градиент_385" y1="21.33" x2="31.52" y2="21.33" gradientUnits="userSpaceOnUse"><stop offset="0" stop-color="#fabb36"/><stop offset="1" stop-color="#ffc227"/></linearGradient></defs><g class="cls-1"><g id="Слой_2" data-name="Слой 2"><g id="layer1"><path class="cls-2" d="M29.32,13.14S33.79,1.72,34.76,1.69s20,.75,21,.76-4.34,15-4.34,15S43,13.76,29.32,13.14Z"/><path class="cls-3" d="M55.77,2.45s1,.84,1,1.46-5.66,14.7-5.66,14.7l-.23-1.48Z"/><path class="cls-4" d="M48.81,33.15c-.55,2.14-1,3.72-1.16,4-.55,1.14-15.36,5.86-17.6,6s-14-3.9-15.86-5.29a9.52,9.52,0,0,1-.95-3,0,0,0,0,0,0,0C12,29.56,10.36,19,10.46,17.77c.13-1.7,15.63-5.64,18.89-5.27,4.42.49,20.85,3.7,22.08,4.95C52.31,18.35,50.25,27.61,48.81,33.15Z"/><path class="cls-5" d="M10.46,17.77c0,.87,17.35,6.94,20.84,7s18.46-6,19.53-7S35.16,13.2,29.92,12.51,10.41,16.77,10.46,17.77Z"/><path class="cls-6" d="M32.55,25c-1,.47-2,16.85-1.88,17.48s16.61-4.09,17-5.3,4.77-16.59,4-18S32.55,25,32.55,25Z"/><path class="cls-7" d="M48,17.49c.15,1.15-12.27,5.43-16.71,5.89-1.73.18-17.58-4.79-18.19-5.89s12-4.35,16.23-4.35S47.83,16.34,48,17.49Z"/><path class="cls-8" d="M29.32,13.14v9.93c-1.74.18-15.62-4.48-16.23-5.58S25,13.14,29.32,13.14Z"/><path class="cls-9" d="M32.55,25s8.29-14,8.53-14.6c.31-.77-.06-.81-.44-.76s-9.39,14-9.36,14.18A8.38,8.38,0,0,0,32.55,25Z"/><path class="cls-10" d="M41.08,10.41S58.41,6.53,59.65,6.53s-8,12.25-8,12.25S37.72,24.54,32.55,25Z"/><path class="cls-11" d="M40.64,9.65s9-1.65,18.28-3.51c0,0,.64.07.73.39s-18.57,3.88-18.57,3.88S41.71,9.71,40.64,9.65Z"/><path class="cls-12" d="M10.6,17.87S2.42,4.45,2.81,3.36s.8-1,1.17-.77,8.56,15,8.56,15A4,4,0,0,1,10.6,17.87Z"/><path class="cls-13" d="M4,2.59S14.21-.85,22.54.38c1,.83,6.28,12.07,6.28,12.07S17,14.63,12.54,17.59A65.21,65.21,0,0,1,4,2.59Z"/><path class="cls-14" d="M3.13,2.71S5,1.35,12,.47,21.78.18,22.54.38A48.32,48.32,0,0,0,11.85,1C6.61,1.94,4,2.59,4,2.59Z"/><path class="cls-15" d="M12,28.71s13,6.73,16.71,8.61c2.1,1.08,2.46-8.68,3.83-12.31l-20.7-1.18Z"/><path class="cls-16" d="M31.52,23.39l1,1.62S19.36,26.6,15.76,26.49,1.08,22.58.6,22a5.59,5.59,0,0,1-.49-2.45Z"/><path class="cls-17" d="M13.09,17.49s-11.68,1.52-13,2,9.42,4.68,14.2,5.5,17.21-1.62,17.21-1.62S22,20.85,13.09,17.49Z"/><path class="cls-18" d="M15.36,26c-.09-.43,7.36-.94,10.48-1.51a29.07,29.07,0,0,1,5.44-.65c.52,0,1.27,1.18,1.27,1.18S22.47,26.18,17,26.48C15.61,26.56,16.2,26,15.36,26Z"/><path class="cls-6" d="M33.22,24.8c-.79.05,7.68-12.3,10.42-14.26S58.56,7.41,59,7.5,52.2,18.07,51.64,18.78,39.3,24.4,33.22,24.8Z"/><path class="cls-18" d="M30.82,38.75c-.12,2.32,16.53-6.46,18.51-11.54s2.22-8.17,2-8.19a78.34,78.34,0,0,1-9.23,3.39c-5,1.34-8.76,2-9.53,2.6S30.82,38.75,30.82,38.75Z"/><path class="cls-6" d="M48.81,33.15c-.55,2.14-1,3.72-1.16,4-.55,1.14-15.36,5.86-17.6,6s-14-3.9-15.86-5.29a9.52,9.52,0,0,1-.95-3c.13.28,1.26,2.61,6.23,5.05a27.83,27.83,0,0,0,11.21,2.54c.41,0,14.31-3.84,16.08-5.48A9.34,9.34,0,0,0,48.81,33.15Z"/><path class="cls-19" d="M4,2.59c-.7.22,5.24,7.55,14.29,7.73s5-9.25,4.27-9.66S12.93-.23,4,2.59Z"/><path class="cls-20" d="M14.36,24.26c-3.62-.44-5.5-1.74-5.59-3.4S26.43,22.54,28.57,23,18.42,24.87,14.36,24.26Z"/><path class="cls-18" d="M2.81,3.36c.57-.89,1.27.63,3.75,4.89s4.73,7.9,4.73,7.9S6.65,13.28,2.81,3.36Z"/><path class="cls-20" d="M30.34,11.71C30.22,13.24,37,7.42,43.11,5.27s11-1.44,11.2-2.15-17.7-1.2-18.89-1.06S30.56,8.72,30.34,11.71Z"/><path class="cls-18" d="M28.35,12.54l2,.08,2-6.66-2.64,6.36-.86.13L24.75,4.18Z"/><path class="cls-15" d="M34.76,1.69s8.6.73,12.32,1a55.1,55.1,0,0,0,8.69-.26Z"/><path class="cls-21" d="M40.64,9.65s-.07.45,5.75-.27A71.06,71.06,0,0,0,59.22,6.14S46.42,7.52,40.64,9.65Z"/><path class="cls-6" d="M14.21,35.43c-.4-.42-.81-3.43-.4-3.8s4.57,1.34,5,1.71.39,3.83.24,4.15S14.67,35.91,14.21,35.43Z"/><path class="cls-22" d="M14,35.19c-.4-.42-.81-3.44-.41-3.81s4.58,1.35,5,1.71.39,3.83.24,4.16S14.45,35.67,14,35.19Z"/></g></g></g></svg>