<svg xmlns="http://www.w3.org/2000/svg" xmlns:xlink="http://www.w3.org/1999/xlink" viewBox="0 0 34 49.39"><defs><style>.cls-1{isolation:isolate;}.cls-2{fill:url(#Безымянный_градиент_113);}.cls-3{fill:#8b8bfe;}.cls-10,.cls-11,.cls-3,.cls-4,.cls-6{mix-blend-mode:multiply;}.cls-10,.cls-3,.cls-6{opacity:0.4;}.cls-4{fill:#8b74c4;}.cls-5{fill:#ffb64a;}.cls-5,.cls-7{mix-blend-mode:screen;}.cls-11,.cls-5{opacity:0.3;}.cls-6{fill:#7c66fe;}.cls-7{fill:url(#Безымянный_градиент_409);}.cls-8,.cls-9{fill:#fff;}.cls-9{mix-blend-mode:soft-light;}.cls-10{fill:#7c5cbf;}.cls-11{fill:#bbbbfe;}</style><linearGradient id="Безымянный_градиент_113" x1="17" y1="49.39" x2="17" gradientUnits="userSpaceOnUse"><stop offset="0" stop-color="#f7e2f8"/><stop offset="0.19" stop-color="#d0bfdf"/><stop offset="0.45" stop-color="#a196c0"/><stop offset="0.68" stop-color="#7f77aa"/><stop offset="0.87" stop-color="#6b659d"/><stop offset="1" stop-color="#635e98"/></linearGradient><linearGradient id="Безымянный_градиент_409" x1="1.13" y1="20.65" x2="17.37" y2="20.65" gradientUnits="userSpaceOnUse"><stop offset="0.02" stop-color="#0045fe"/><stop offset="1"/></linearGradient></defs><g class="cls-1"><g id="Слой_2" data-name="Слой 2"><g id="layer1"><path class="cls-2" d="M33,39.53C29.16,52.4,1.47,54.49.08,34.77v-.1c0-.76-.07-1.5-.08-2.22v-.11a32.62,32.62,0,0,1,1.42-9.82C5.9,7.79,19.58.78,21.11.12s1.22,1.13,2.33,6.69a31.56,31.56,0,0,0,3.69,9.47l0,0C29.78,21,32.82,24.91,33.73,30A20.06,20.06,0,0,1,33,39.53Z"/><path class="cls-3" d="M2.08,34.17C6.56,46.59,18.26,27,23.51,26.1S30.8,31,32.12,29.86s-9-18.07-10.36-25.52S-.75,10.76,2.08,34.17Z"/><path class="cls-4" d="M33,39.53C29.16,52.4,1.47,54.49.09,34.76.58,38.48,3,45.4,13.71,47.8c15,3.34,19.24-10.25,20-17.77A20.06,20.06,0,0,1,33,39.53Z"/><path class="cls-5" d="M13.71,47.8c-4.42-1.41,12.92-6,14.7-5.55S25.7,49.89,13.71,47.8Z"/><path class="cls-6" d="M13.32,5c-3.67,3.8-2.48,5.37,7.57,12.43s1.43-10.54.87-14.19S13.32,5,13.32,5Z"/><path class="cls-7" d="M10.55,8.34C7.85,10.49.63,23.2,1.15,32.11s11.62-1.37,14.61-13.24S17.85,2.53,10.55,8.34Z"/><path class="cls-8" d="M23.9,17.36c-5.57-4.19-1.5,12.23,3.28,11.55S23.9,17.36,23.9,17.36Z"/><path class="cls-9" d="M10.29,46.79c-1.73-1.63,18.82-.63,23.07-14.23,0,0-.93,10.73-8.77,14.23A17,17,0,0,1,10.29,46.79Z"/><path class="cls-10" d="M3.84,44.26c-.94-2.68,4.58,2.5,10.64,4.09S8.5,50.11,3.84,44.26Z"/><path class="cls-8" d="M28,31.65c-1.48,0-1.81,3.31-.82,4.45S31.76,31.61,28,31.65Z"/><path class="cls-8" d="M5.05,16.27c-.75,2.3,2.79,1.73,2.7-.94S6,13.48,5.05,16.27Z"/><path class="cls-11" d="M7.44,45.51c-6.06-1.32,6.28-9.78,11.13-8.44S19.75,48.19,7.44,45.51Z"/><path class="cls-6" d="M25.45,14.23c-5.21-6.09-11-1-13.07-2.48s2-5.13,7-6.72S22.2,7.46,25.45,14.23Z"/><path class="cls-9" d="M27.13,16.28C22.58,10.53,22.65,5.47,22,4S18.66,1.44,12.76,6.4,1.42,22.52,1.42,22.52C5.9,7.79,19.58.78,21.11.12s1.22,1.13,2.33,6.69A31.56,31.56,0,0,0,27.13,16.28Z"/><path class="cls-8" d="M12.78,46.94c-1.87-.74.26-1.31,3.3-1.83s5.48,1.09,4.77,1.82S15.91,48.18,12.78,46.94Z"/></g></g></g></svg>