<svg xmlns="http://www.w3.org/2000/svg" xmlns:xlink="http://www.w3.org/1999/xlink" viewBox="0 0 49.5 51.61"><defs><style>.cls-1{isolation:isolate;}.cls-2{fill:url(#Безымянный_градиент_94);}.cls-3{fill:url(#Безымянный_градиент_102);}.cls-4{fill:#9a002b;}.cls-5{fill:#ff4a2b;}.cls-6{fill:url(#Безымянный_градиент_870);}.cls-7{fill:url(#Безымянный_градиент_94-2);}.cls-8{fill:url(#Безымянный_градиент_102-2);}.cls-9{fill:#e85955;}.cls-12,.cls-14,.cls-15,.cls-17,.cls-20,.cls-23,.cls-9{mix-blend-mode:multiply;}.cls-14,.cls-9{opacity:0.5;}.cls-10{fill:url(#Безымянный_градиент_815);}.cls-11{fill:url(#Безымянный_градиент_815-2);}.cls-12{fill:#ca006d;}.cls-13,.cls-21{fill:#fff;}.cls-13,.cls-16,.cls-24{mix-blend-mode:soft-light;}.cls-14{fill:#f35;}.cls-15,.cls-17,.cls-20{fill:#d42f55;}.cls-15,.cls-16{opacity:0.8;}.cls-16{fill:#fff886;}.cls-18{fill:#cc0034;}.cls-19{fill:#ff3634;}.cls-20{opacity:0.6;}.cls-22{fill:url(#Безымянный_градиент_108);}.cls-23{fill:#bd0955;}.cls-24{fill:#ffc283;}</style><linearGradient id="Безымянный_градиент_94" x1="29.55" y1="51.3" x2="29.55" y2="0.88" gradientUnits="userSpaceOnUse"><stop offset="0" stop-color="#f4002b"/><stop offset="1" stop-color="#ff1d34"/></linearGradient><linearGradient id="Безымянный_градиент_102" x1="44.12" y1="26.25" x2="49.22" y2="26.25" gradientUnits="userSpaceOnUse"><stop offset="0" stop-color="#ac002b"/><stop offset="1" stop-color="#b30034"/></linearGradient><linearGradient id="Безымянный_градиент_870" x1="41.02" y1="49.94" x2="41.02" y2="2.6" gradientUnits="userSpaceOnUse"><stop offset="0" stop-color="#ffa274"/><stop offset="1" stop-color="#ffc488"/></linearGradient><linearGradient id="Безымянный_градиент_94-2" x1="15.31" y1="50.16" x2="15.31" y2="-0.22" gradientTransform="matrix(1, 0, 0.02, 1, 2.9, 0.92)" xlink:href="#Безымянный_градиент_94"/><linearGradient id="Безымянный_градиент_102-2" x1="31.17" y1="25.13" x2="36.27" y2="25.13" gradientTransform="matrix(1, 0, 0.02, 1, 2.9, 0.92)" xlink:href="#Безымянный_градиент_102"/><linearGradient id="Безымянный_градиент_815" x1="29.47" y1="50.42" x2="29.47" y2="38.33" gradientUnits="userSpaceOnUse"><stop offset="0" stop-color="#ff8b00"/><stop offset="1" stop-color="#ffae00"/></linearGradient><linearGradient id="Безымянный_градиент_815-2" x1="29.88" y1="13.84" x2="29.88" y2="1.53" xlink:href="#Безымянный_градиент_815"/><linearGradient id="Безымянный_градиент_108" x1="29.87" y1="27.24" x2="49.44" y2="27.24" gradientUnits="userSpaceOnUse"><stop offset="0" stop-color="#ff5911"/><stop offset="1" stop-color="#d83303"/></linearGradient></defs><g class="cls-1"><g id="Слой_2" data-name="Слой 2"><g id="layer1"><path class="cls-2" d="M12.44,3.57C14.38.85,43.65.08,45.94,1.8s-1.59,45.87-1.82,48.14-26.44,1.07-28.5.83S12.44,3.57,12.44,3.57Z"/><path class="cls-3" d="M45.94,1.8s2.27-.55,3.13.66-2.23,48-2.89,48.3-2.06-.82-2.06-.82S46.3,12.74,45.94,1.8Z"/><path class="cls-4" d="M15.62,50.77s12.13,1.9,30.56,0a2.57,2.57,0,0,0-2.06-.82C42.93,50.09,28.8,52.08,15.62,50.77Z"/><path class="cls-5" d="M14.18,2.69s23.27-5.06,34.18-.78l-2.64-.23S34.93-.42,14.18,2.69Z"/><path class="cls-6" d="M39.07,2.69s5.32-.48,5.4.82-1.39,44.42-1.71,45.54-5.2.87-5.2.87Z"/><path class="cls-7" d="M0,3.4C2,.66,33.17-.12,35.66,1.62s-.36,46-.54,48.31S7,51,4.75,50.76,0,3.4,0,3.4Z"/><path class="cls-8" d="M35.66,1.62s2.41-.56,3.36.66-1,48.15-1.68,48.48-2.22-.83-2.22-.83S36.37,12.59,35.66,1.62Z"/><path class="cls-4" d="M4.75,50.76s13,1.91,32.59,0a2.93,2.93,0,0,0-2.22-.83C33.85,50.08,18.84,52.08,4.75,50.76Z"/><path class="cls-5" d="M1.82,2.52s24.67-5.09,36.43-.8l-2.83-.23S23.85-.61,1.82,2.52Z"/><path class="cls-9" d="M39.07,2.69c3.77,1,2.49,33.53,1.53,40.17s-3,7.06-3,7.06S39.31,23.77,39.07,2.69Z"/><path class="cls-10" d="M24.46,50.38C23,50,33.23,38.62,34.12,38.33s.45,9.11-.21,10.47S25.25,50.56,24.46,50.38Z"/><path class="cls-11" d="M25,2.13c-1.6,1,7.81,11.19,8.82,11.69s1-8.9,1.12-10.83S26.24,1.35,25,2.13Z"/><path class="cls-12" d="M25.39,4s5.62,7.84,7.19,8.7,1-8.66,1.45-9.79.91.05.91.05.45,9.35-.65,11.56S25.39,4,25.39,4Z"/><path class="cls-12" d="M34.42,38.71c-1.13-.69-.76,9.12-1.28,10.2s-8.42,1.51-8.42,1.51,6.53.31,8.76-.51S34.42,38.71,34.42,38.71Z"/><path class="cls-13" d="M27.77,45.93c-.85,2.68,4,1.22,4.86.43s.94-7,.66-7S28.16,44.7,27.77,45.93Z"/><path class="cls-13" d="M25.41,2.73c-1.06.76,4.14,4,5.8,3.42s3.1-3.1,2.57-3.7S27,1.63,25.41,2.73Z"/><path class="cls-14" d="M26.68,49.78c-1.19-.19,4.95-2.43,5.83-2.54S32.62,50.75,26.68,49.78Z"/><path class="cls-14" d="M28,5.79c-.22.26,1.47,2.14,3.16,2.87s2.37-1.82,2.39-2.89-.81.19-2.31.38S28.26,5.45,28,5.79Z"/><path class="cls-15" d="M38.6,2.69c-1.07-1-2.08.29-2.45,1S35.73,36,36,37.8,38.59,19.46,39,13.45A45.19,45.19,0,0,0,38.6,2.69Z"/><path class="cls-15" d="M5.35,1.82S6.69,47.41,8,51.12,6.36,11.26,5.35,1.82Z"/><path class="cls-12" d="M5.35,1.82A112.83,112.83,0,0,0,4.42,16C4.32,24.55,8,51.12,8,51.12Z"/><path class="cls-16" d="M0,3.4s.52,17.25,2.16,31c1.61,13.56,5.15,11.67,4.05,1S3.78,23.69,4.47,13.54s.77-10.43,0-11S0,3.4,0,3.4Z"/><path class="cls-17" d="M.79,16.16S4,48,6.38,49.92s17.74,1.56,17.74,1.56S5.61,52,4.75,50.76C2.47,47.48.79,16.16.79,16.16Z"/><path class="cls-4" d="M11.76,35.35c-.91,1.8,5.4,4,7.22,6.64s11.38-7.41,13.14-15.5-5.85-11.58-7.85-15.94-10,3.23-12.79,5.86-1.35,9,.57,12.41,6.58,2.62,8.47,0,6.63-3.85,4.27-9.75-4.34-1.84-7.53-1.23-2.07,6.23-.7,7.45,4.52-.89,4.48-2.57S18.13,20.33,18.09,19s3-2.31,4.38-1.43.17,6.86-4.54,10-6.22-7.81-5.8-10S19,11.92,22.7,13.38s5.87,5.17,4.36,12.29-6,10.39-10.58,8.09S11.76,35.35,11.76,35.35Z"/><path class="cls-18" d="M16.64,39.69c-2.76-2.43-2.63-5.45-1.91-5.91s2.74,2.18,6.16.79,6.79-2.77,7.59-9.94-2.4-9.93-5-10.89a8.51,8.51,0,0,0-8.76,1.16c-3.28,2.42-2.48,10.54-.46,12.26s4.27.76,4.51,1-1.94,3.28-4.65,1.65-3.72-10-3.13-12.2,6-5,8.84-6.22,4-1.53,5,.23,6.52,6.08,7.24,10.18-.37,6.73-2.2,10.39A28.16,28.16,0,0,1,22,41.55C19.28,43.45,18.85,41.63,16.64,39.69Z"/><path class="cls-18" d="M18.56,17.4c-.59.22-2.62,3.07-2.31,5.13s2.17,3.47,3.61,1.73.59-2.53-1.06-3.88-.31-2.84,1.63-3.39,2.82,1.23,3.28,3-3.39,6.49-4.26,7.56.56.2,2.62-.7a5.33,5.33,0,0,0,3.32-5.57c-.31-2.67-1.56-4.71-2.9-5.27S19.59,17,18.56,17.4Z"/><path class="cls-19" d="M29.13,33.52a38.1,38.1,0,0,1-7,8.83c-3.86,3.3-3.92-1.14-5.51-2.35s-3.76-2.68-3.76-2.68a48.65,48.65,0,0,1,5,3.19c.75.75.83,2.25,2.7,1.91S29.13,33.52,29.13,33.52Z"/><path class="cls-19" d="M24.87,24.25c-.69,1.65-3.75,3.13-4.57,3.95s-2.46,3-4.59,2.87c-2.54-.16-4-2.8-4-2.8A4.65,4.65,0,0,0,15,31.06c2.62.66,4.42-.88,6-2.35S24.14,25.93,24.87,24.25Z"/><path class="cls-16" d="M6.56,2.8C5.8,3,6.67,14,7.84,15.91s7.65-4.78,12.09-6.68,4.54.12,6,2.42,3.33.55,3.54-.34S25,4.43,24.33,2.74,11.1,1.42,6.56,2.8Z"/><path class="cls-20" d="M12.88,38.35c-3.48-2-4,7.21-3.12,10s11.48.89,13.48,0S31,42,32.15,36.66s-8.62,6.17-12.61,6.75-3.6-3.11-5.13-4.08Z"/><path class="cls-21" d="M29.9,1.57c-1.85.47.3,1.72,1.33,1.77s2.11-.76,1.5-1.22A8.07,8.07,0,0,0,29.9,1.57Z"/><path class="cls-21" d="M31,42c-.83,1.22,2.15.52,2.38-1.38S31.83,40.8,31,42Z"/><path class="cls-22" d="M30.55,23.18s-1.64,5.08.19,8c0,0,16.55.87,17.62.65s1.56-7.06.43-8.16S37.35,22.12,30.55,23.18Z"/><path class="cls-9" d="M38.25,22.77c-1.31,0-1.14,7.14-.69,7.73s10.2,1,10.8.71,1.64-5,.86-6.58S42.54,22.75,38.25,22.77Z"/><path class="cls-23" d="M30.74,31.21c-.43-.88,4.17-.4,10.28-.15s7.34.8,7.34.8h-.49l-.12,1.79s-2.37.15-2.64.22a13.21,13.21,0,0,0-1.68,1.57l-5,.74.06-3.55s-1.63-.08-3.06-.28A46.63,46.63,0,0,1,30.74,31.21Z"/><path class="cls-9" d="M37.34,26.3c.23,4.93,8.38.29,10.22-1.14s-8.18-2.62-9.31-2.39S37.34,26.3,37.34,26.3Z"/><path class="cls-24" d="M30.55,24.25c-1,.92.85,4.7,1.62,5.37s3.89.59,4.51,0,1.1-6.25.52-6.44S31.91,23,30.55,24.25Z"/></g></g></g></svg>