<svg xmlns="http://www.w3.org/2000/svg" xmlns:xlink="http://www.w3.org/1999/xlink" viewBox="0 0 57.66 50.29"><defs><style>.cls-1{isolation:isolate;}.cls-2{fill:#562795;}.cls-3{fill:#5e43c3;}.cls-4{fill:url(#Безымянный_градиент_7);}.cls-5{fill:#abc0ff;}.cls-6,.cls-7{fill:#b82774;}.cls-10,.cls-13,.cls-15,.cls-6,.cls-7{mix-blend-mode:multiply;}.cls-6{opacity:0.5;}.cls-10,.cls-7{opacity:0.2;}.cls-8,.cls-9{fill:#aeceff;}.cls-8{mix-blend-mode:soft-light;}.cls-10{fill:#938bff;}.cls-11{fill:#cee0ff;}.cls-12{fill:#fff;}.cls-13{fill:#b88bc0;opacity:0.3;}.cls-14{fill:url(#Безымянный_градиент_524);}.cls-15{fill:#ca006d;}</style><linearGradient id="Безымянный_градиент_7" x1="25.93" y1="49.83" x2="25.93" y2="0.87" gradientUnits="userSpaceOnUse"><stop offset="0" stop-color="#72aeea"/><stop offset="1" stop-color="#939fff"/></linearGradient><linearGradient id="Безымянный_градиент_524" x1="26.73" y1="40.45" x2="26.73" y2="12.29" gradientUnits="userSpaceOnUse"><stop offset="0" stop-color="#ff003b"/><stop offset="1" stop-color="#de0086"/></linearGradient></defs><g class="cls-1"><g id="Слой_2" data-name="Слой 2"><g id="layer1"><path class="cls-2" d="M20.73,49.45a27.34,27.34,0,0,0,8.29.83,22.46,22.46,0,0,0,8.74-1.64L32.17,49S25.18,50.52,20.73,49.45Z"/><path class="cls-3" d="M56.46,33c0,1.11-2.83,5.36-4.53,7.82-.71,1-1.23,1.74-1.28,1.82h-6a.38.38,0,0,1-.18-.07.67.67,0,0,1-.21-.1c-.28-.16-.68-.44-1.12-.76L43,41.55c-.38-.28-.78-.6-1.18-.91l-.06,0c-1.19-1-2.31-1.88-2.45-2h0L43.33,12.2l.63-4H44a28.62,28.62,0,0,1,5.93,0s6.18,9.94,5.87,10.73-6.14,2.94-6.14,2.94L49,31.18S56.47,31.38,56.46,33Z"/><path class="cls-3" d="M31.8,34.38c-4.38,0-8-3.23-8.07-7.33s3.6-7.72,8.23-7.72,8.23,3.51,8.07,7.72S36.19,34.38,31.8,34.38Zm24.87-2c-.56-.82-4.33-.81-6.86-1.47a16,16,0,0,0,.29-9.11c2.94-1.28,7.35-1.86,7.55-3.18C57.94,16.68,51.84,8,50,8.16c-.68.08-1.66,1.22-2.75,2.55-.75.91-1.55,1.89-2.35,2.7a18.5,18.5,0,0,0-1.53-1.21,18.11,18.11,0,0,0-2.2-1.33,18.87,18.87,0,0,0-3.64-1.43c.68-3.13,2.69-7,1.57-7.84-.92-.71-5-.88-8.52-.6-2.88.23-5.45.74-5.85,1.5-.52,1,1.18,4.28,1.87,7a19.08,19.08,0,0,0-9.09,5.64,30.65,30.65,0,0,1-3.13-2.55c-1.56-1.37-2.93-2.53-3.73-2.16A6.41,6.41,0,0,0,8.72,12.8C6.92,16,5.1,21.31,6,22.29s4.61.81,7.38,1.42a15.47,15.47,0,0,0-.16,3.34,15.8,15.8,0,0,0,1.33,5.59C11.9,34,7.34,34.46,7.37,35.74c0,1.1,2.77,4.44,5.16,6.62,1.35,1.23,2.59,2.1,3.18,2s1.63-1.36,2.68-2.71a20,20,0,0,1,1.78-2,19.11,19.11,0,0,0,6.57,3.09c-.25,2.53-2.27,5.87-1.17,6.57a5.4,5.4,0,0,0,2.05.44c3.39.31,9.55-.13,10.14-1.1.49-.8-1.15-3.56-1.68-5.77a19.85,19.85,0,0,0,5.27-2l.42-.24h0l.07,0a18.55,18.55,0,0,0,2.8-2,22.09,22.09,0,0,1,2.64,2.08c.57.51,1.12,1,1.61,1.37a3.76,3.76,0,0,0,1.12.62,1,1,0,0,0,.63,0h0c1-.41,3.07-3.24,4.53-5.87l0-.06C56.3,34.74,57,32.9,56.67,32.36Z"/><path class="cls-4" d="M51.15,32.36c-.57-.82-4.36-.81-6.89-1.47a16.21,16.21,0,0,0,.1-9.11c2.93-1.28,7.32-1.86,7.5-3.18s-2.32-5.2-4.65-7.89C45.94,9.24,44.72,8.16,44,8.15H44c-.71.08-1.71,1.31-2.83,2.71-.7.85-1.43,1.78-2.17,2.54a19.13,19.13,0,0,0-7.45-4c.62-3.13,2.55-7,1.43-7.84a5.81,5.81,0,0,0-2.4-.6c-4-.42-11.3.19-11.95,1.5-.52,1,1.25,4.28,2,7a19.09,19.09,0,0,0-6.24,3.09h0l0,0a17.92,17.92,0,0,0-2.66,2.48l0,0A28.59,28.59,0,0,1,8.72,12.8a30,30,0,0,0-2.33-1.89c-.71-.48-1.31-.73-1.74-.53C2.81,11.26-1,20.94.24,22.29c.76.84,4.63.81,7.4,1.42a16.15,16.15,0,0,0-.09,3.34A16.35,16.35,0,0,0,9,32.64C6.41,34,1.85,34.46,1.9,35.74s4.28,6,6.86,7.89l0,0a3.08,3.08,0,0,0,1.65.74c.57-.08,1.29-1,2.1-2a26.21,26.21,0,0,1,2.26-2.73,19,19,0,0,0,3.6,2,20.41,20.41,0,0,0,3,1c-.2,2.53-2.16,5.87-1.05,6.57.83.53,4.24.65,7.25.44,2.43-.16,4.6-.54,4.93-1.1.47-.8-1.22-3.56-1.79-5.77a19,19,0,0,0,8.49-4.28h0a20.66,20.66,0,0,1,2.59,2l.2.19.9.77.22.17a5.69,5.69,0,0,0,1.12.76.67.67,0,0,0,.21.1l.18.07h0a.94.94,0,0,0,.62,0,1,1,0,0,0,.24-.14,8.13,8.13,0,0,0,1.73-1.85C49.33,37.94,51.79,33.28,51.15,32.36Zm-24.84,2c-4.38,0-8.06-3.23-8.21-7.33s3.45-7.72,8.07-7.72,8.31,3.51,8.23,7.72S30.7,34.38,26.31,34.38Z"/><path class="cls-3" d="M10.42,44.39a12.34,12.34,0,0,0,5.29,0,24.45,24.45,0,0,0,2.82-2.89l-3.74-1.87A51.84,51.84,0,0,1,10.42,44.39Z"/><path class="cls-5" d="M14.33,12.54l0,0-2.66,2.48,0,0-.53.49A38.56,38.56,0,0,0,6,11a3.11,3.11,0,0,0-1.39-.63c1.1-.66,5.11-.62,6.69,0a18.28,18.28,0,0,1,3,2.16Z"/><path class="cls-6" d="M44.37,21.78c.23.95,5.73,0,5.73,0s6.78-2,7.16-2.6-4.95-.48-5.78,0S44.37,21.78,44.37,21.78Z"/><path class="cls-6" d="M36.08,42.86l-5.25.25s5.08-1.7,6.32-2.93,2.11-1.54,2.42-1.33,1.92,1.75,1.92,1.75A15.66,15.66,0,0,1,36.08,42.86Z"/><path class="cls-5" d="M44.26,30.89s5.88.87,7,1.5,5.38,0,5.38,0-.54-1.22-6.86-1.47C47.14,30.79,44.26,30.89,44.26,30.89Z"/><path class="cls-6" d="M18.46,26.36c.84,4.11,1.61,4.22,3.76,4.49s.34-4.58,2-7.33a9.78,9.78,0,0,1,4.5-3.81s-4.34-1.15-6.75.79S18.14,24.75,18.46,26.36Z"/><path class="cls-6" d="M31.51,9.43s5.44.41,5.62.13,2.11-6,1.8-7.08-3.89,0-4.77,0S31.51,9.43,31.51,9.43Z"/><path class="cls-5" d="M18.58,2.5A16.27,16.27,0,0,1,26.36.89a18.44,18.44,0,0,1,7.8,1.59l4.9-.88S37.6-.16,29.32,0,18.67,2.11,18.58,2.5Z"/><path class="cls-6" d="M14.79,39.63s-2.2,2.39-1.85,3.48,3.88.31,4.51-.39,1.08-1.22,1.08-1.22Z"/><path class="cls-7" d="M52.49,33c-1.3.26-3.7,6.76-3.9,7.95s3.24,0,5.22-3.06,2.72-4,2.59-4.57S52.49,33,52.49,33Z"/><path class="cls-8" d="M44,8.16c.83.28,4.81,3.64,7.84,7.94s5.43.85,5.43.85-4-7.25-6.59-8.59S44,8.16,44,8.16Z"/><path class="cls-9" d="M18.76,29.79s.79,5.18,7.92,5.59,7.72-8.33,7.72-8.33-1.31,7.65-8.09,7.33S18.76,29.79,18.76,29.79Z"/><path class="cls-10" d="M1,21.14c.11,1,6,2.28,6.7,2.57S8.27,32.23,12,35.88,22.12,40,23.93,38.36s-6.85-5-6.51-12.23c.35-7.58,8.8-8.71,14-6.76s4.21,9.47,3.22,14c-1,4.35,8.29,6.38,9.65,8s6.91-7.16,6.05-8-5.24-.84-6.11-2.06-.13-8.89.16-10.07,5.47-1.34,5.81-2.89S45.47,10,44.39,9.66s-3.66,4.94-5.15,4.76-8-3.21-8.18-4.52,2-5.78.93-6.58-12.53-1.56-12.7-.45,2.61,6.31,2.12,6.79-7.5,3.88-9.36,6.44-5.42-4-6.59-3.92S.77,19.53,1,21.14Z"/><path class="cls-11" d="M50.91,16a12.5,12.5,0,0,0,.37,3.31c.2-.1,1.3,0,1.54-.39S50.91,16,50.91,16Z"/><path class="cls-11" d="M50.56,32.11c-.44.06.43.66.68.85s1.6-.3,1.6-.3A3.52,3.52,0,0,0,50.56,32.11Z"/><path class="cls-6" d="M55.18,36.78c-1.46,2.63-3.53,5.46-4.53,5.87h0a1,1,0,0,1-.63,0h-4.7a.94.94,0,0,1-.62,0h0a.38.38,0,0,1-.18-.07.67.67,0,0,1-.21-.1,5.69,5.69,0,0,1-1.12-.76L43,41.55c-.38-.28-.78-.6-1.18-.91l-.42.24-.15-.56.51.27.07,0c.09,0,.18.09.27.15,1.06.57,2.8,1.47,3.51,1.73A8.06,8.06,0,0,0,48.9,42a16.62,16.62,0,0,0,3-1.2,3.27,3.27,0,0,0,.71-.51A28.9,28.9,0,0,0,55.18,36.78Z"/><path class="cls-6" d="M8.76,43.63C6.18,41.79,2,37.09,1.9,35.74S6.41,34,9,32.64a16.35,16.35,0,0,1-1.44-5.59,16.15,16.15,0,0,1,.09-3.34c-.37,3.65,2,9.25,2,9.25s-7.19,1.21-7.28,2.92S8.36,43.25,8.76,43.63Z"/><path class="cls-12" d="M28.81,1.25c-4.84-.2-.65,4.16.89,4.16s4.06-2.1,3-3.09S28.81,1.25,28.81,1.25Z"/><path class="cls-12" d="M21.23,33c-1.22-.59.09,1.52,1.38,2a2.51,2.51,0,0,0,2.48-.24C25.4,34.44,22.44,33.57,21.23,33Z"/><path class="cls-6" d="M14.33,12.54c-.23-.13-4.51-2.41-7.94-1.63l-.18,0A.49.49,0,0,0,6,11c-3.45,1.16-6,9.53-5.8,11.28-1.22-1.35,2.57-11,4.41-11.91,1.1-.66,5.11-.62,6.69,0A18.28,18.28,0,0,1,14.33,12.54Z"/><path class="cls-13" d="M4.65,10.38c-.45-.07-3.35,5.76-2.37,7.4s7.37.85,8.72,0S6.19,10.63,4.65,10.38Z"/><path class="cls-9" d="M44.36,21.78a60.64,60.64,0,0,1,.44,6.71C44.62,29.48,46,26.7,44.36,21.78Z"/><path class="cls-3" d="M26.62,12.29l-.64,0c-8.93,0-15.73,6.81-15.23,14.78.48,7.56,7.41,13.41,15.51,13.41h.58c7.84-.27,14.34-6,14.67-13.4C41.85,19.28,35.25,12.61,26.62,12.29Zm.16,26h-.54c-6.77,0-12.52-4.9-12.86-11.2C13,20.47,18.67,14.91,26,14.91c.19,0,.39,0,.59,0h.09c7,.34,12.41,5.75,12.19,12.12-.21,6.1-5.53,10.9-12,11.19Z"/><path class="cls-14" d="M26.62,12.29c-8.62.32-15.11,7-14.65,14.76.44,7.38,7,13.13,14.87,13.4,7.84-.27,14.34-6,14.67-13.4C41.85,19.28,35.25,12.61,26.62,12.29Zm.79,26H26.24c-6.77,0-12.52-4.9-12.86-11.2C13,20.47,18.67,14.91,26,14.91c.19,0,.39,0,.59,0h.09c.2,0,.4,0,.59,0,7.34,0,13.07,5.56,12.82,12.14C39.85,33.35,34.18,38.25,27.41,38.25Z"/><path class="cls-15" d="M11.17,24c-.4,3.93,3.14-9.16,13.65-10.3S39,21.55,40.49,26s2.18-11.09-11.75-13.41C15.88,10.41,11.54,20.26,11.17,24Z"/></g></g></g></svg>