<svg xmlns="http://www.w3.org/2000/svg" xmlns:xlink="http://www.w3.org/1999/xlink" viewBox="0 0 23 64.27"><defs><style>.cls-1{isolation:isolate;}.cls-2{fill:url(#Безымянный_градиент_480);}.cls-3{fill:#d60066;}.cls-11,.cls-14,.cls-18,.cls-19,.cls-20,.cls-23,.cls-3,.cls-5{mix-blend-mode:multiply;}.cls-11,.cls-3{opacity:0.3;}.cls-10,.cls-4{fill:#fff;}.cls-20,.cls-5{fill:#d42f55;}.cls-14,.cls-18,.cls-23,.cls-5{opacity:0.8;}.cls-6{fill:url(#Безымянный_градиент_35);}.cls-7{fill:url(#Безымянный_градиент_820);}.cls-8{fill:url(#Безымянный_градиент_28);}.cls-9{fill:url(#Безымянный_градиент_44);}.cls-10{mix-blend-mode:soft-light;}.cls-11,.cls-12{fill:#6e5086;}.cls-13{fill:#a08caf;}.cls-14{fill:#936366;}.cls-15{fill:#b1a4b0;}.cls-16{fill:#816c7e;}.cls-17{fill:#e0dbe0;}.cls-18{fill:#934f66;}.cls-19{fill:#b10053;}.cls-19,.cls-20{opacity:0.5;}.cls-21{fill:#ff6500;}.cls-22{fill:#ffa457;}.cls-23{fill:#93637f;}</style><linearGradient id="Безымянный_градиент_480" x1="11.51" y1="64.27" x2="11.51" y2="59.46" gradientUnits="userSpaceOnUse"><stop offset="0" stop-color="#ffa200"/><stop offset="1" stop-color="#ffb82f"/></linearGradient><linearGradient id="Безымянный_градиент_35" x1="11.5" y1="60.77" x2="11.5" y2="49.23" gradientUnits="userSpaceOnUse"><stop offset="0" stop-color="#a71100"/><stop offset="1" stop-color="#8b2203"/></linearGradient><linearGradient id="Безымянный_градиент_820" x1="3.88" y1="49.84" x2="19.71" y2="49.84" gradientUnits="userSpaceOnUse"><stop offset="0" stop-color="#a71100"/><stop offset="0.65" stop-color="#d83303"/><stop offset="1" stop-color="#ec5c11"/></linearGradient><linearGradient id="Безымянный_градиент_28" x1="12.78" y1="49.23" x2="10.78" y2="43.74" gradientUnits="userSpaceOnUse"><stop offset="0" stop-color="#ff7e03"/><stop offset="1" stop-color="#ff9811"/></linearGradient><linearGradient id="Безымянный_градиент_44" x1="11.5" y1="46.62" x2="11.5" gradientUnits="userSpaceOnUse"><stop offset="0" stop-color="#728ee3"/><stop offset="0.3" stop-color="#836888"/><stop offset="0.8" stop-color="#e1d9e0"/></linearGradient></defs><g class="cls-1"><g id="Слой_2" data-name="Слой 2"><g id="layer1"><path class="cls-2" d="M16,59.46a13.42,13.42,0,0,1-1.56,2.9h0a3.94,3.94,0,0,1-2.92,1.9A3.43,3.43,0,0,1,9,62.91a12.73,12.73,0,0,1-2-3.45S12.69,61.63,16,59.46Z"/><path class="cls-3" d="M7.66,60.29a7,7,0,0,0,2,2.59c.7.62,1.23-1.34,2.53-1.93s1.65.88,2,.73a5.35,5.35,0,0,0,1.45-1.75c.1-.32-2.19.68-4,.75S7.49,59.38,7.66,60.29Z"/><path class="cls-4" d="M12.34,63.11c-.89-.13,1.34-2.25,2.15-2.24S13.9,63.35,12.34,63.11Z"/><path class="cls-5" d="M14.46,62.36h0a3.94,3.94,0,0,1-2.92,1.9A3.43,3.43,0,0,1,9,62.91c.24.07,1.51,1.38,2.7,1.21A4.62,4.62,0,0,0,14.46,62.36Z"/><path class="cls-6" d="M16.9,58.84c0-1.46-4.34-.57-3.57-9.51l-1.89-.1-1.89.1c.89,8.94-3.41,8.05-3.44,9.51s5.41,1.93,5.41,1.93S17,60.17,16.9,58.84Z"/><path class="cls-7" d="M19.71,46.54l-1,5.58a23.46,23.46,0,0,1-13.76,0l-1-5.58Z"/><path class="cls-8" d="M3.88,46.54c-1.29-1,13-1.62,15.6-.34,1.37.67-3,1.59-7.35,1.68C8.64,48,4.93,47.38,3.88,46.54Z"/><path class="cls-9" d="M22.87,19.4h0s0,.06,0,.09c-.32,1.93-1.16,5.35-2.14,9.08h0l-.25,0-.36,0-.41,0A8.24,8.24,0,0,0,18,29c-.8.28.29,2.55.89,3.48a1.79,1.79,0,0,0,.29.37c.08.05.25,0,.49-.22-1.9,7-3.83,13.56-3.83,13.56a25,25,0,0,1-4.48.47c-1.4-.11-3.91-.47-3.91-.47S2.8,30.07.85,22.23A25.21,25.21,0,0,1,0,18.09C.22,16.56,8.2,1.69,10.5.1a.67.67,0,0,1,.61,0h0c3.17,1,11.56,15.74,11.87,18A5.38,5.38,0,0,1,22.87,19.4Z"/><path class="cls-10" d="M10,1.23c1.21-1.15-2.73,22.14.25,45.09,0,.23-2.74.11-2.86-.32S.17,19.76.41,18.09,10,1.23,10,1.23Z"/><path class="cls-5" d="M9.61,53.15c-.08.62-.46,3.58-.67,4.55s3.18.56,3.93-1.17a5.08,5.08,0,0,0,.22-3.38Z"/><path class="cls-10" d="M8.09,59.23c-1.25-1.59,3.15-.4,5.65-1.28s2.4.69,2.22,1.06S12.8,61.32,8.09,59.23Z"/><path class="cls-11" d="M10.6.05s.37-.43.5,1.16S9.68,23.42,9.8,32.5c.12,8.18,3.54,13.35,3.18,13.64s-2.29.8-2.41.22C7.47,31.86,10.6.05,10.6.05Z"/><path class="cls-12" d="M20.18,32.42c-1.9,7-4.37,13.72-4.37,13.72.32-2.25,1.74-7.87,3-13.72a2,2,0,0,0,.29.38A2.43,2.43,0,0,0,20.18,32.42Z"/><path class="cls-12" d="M22.87,19.39h0s0,.06,0,.09c-.33,1.92-1.17,5.35-2.15,9.08h0l-.25,0-.36,0-.41,0c.89-4.31,1.57-8.31,1.47-10.46-.26-5.81-9.37-16.68-10-18.14,3.17,1,11.56,15.74,11.87,18A5.28,5.28,0,0,1,22.87,19.39Z"/><path class="cls-13" d="M22.42,18.51c-1,.1-2.52-4.39-2.19-5.07S23.34,17.55,22.42,18.51Z"/><path class="cls-10" d="M.41,18.09c1.48-3.14,8.23,8,8.46,9.05s1.72-16.53.33-20.83C7.74,1.81,1,13.92.41,18.09Z"/><path class="cls-14" d="M22.87,19.39h0s0,.06,0,.09c-.57,2.55-1.7,6.63-2.41,9.1l-.36,0c.4-3.1,1-8.56,1.1-8.79S22.45,17.8,22.87,19.39Z"/><path class="cls-10" d="M11,25.08c.09,1.31,8.16-3.78,9-7.39C20.93,13.93,12.43,2,11.92,2S10.78,20.09,11,25.08Z"/><path class="cls-14" d="M6.8,43.88a3.47,3.47,0,0,0,2.92,2.44c2.36.29,6-.89,6.34-1.59s-.25,1.41-.25,1.41a19.5,19.5,0,0,1-5.3.71c-3,0-3.09-.71-3.09-.71Z"/><path class="cls-15" d="M20.18,32.42c.3-.65-2-3-2-3.19s.35-.42.35-.42-.85,0-1,.25a13.3,13.3,0,0,0,1.42,4C19.38,33.52,20.18,32.42,20.18,32.42Z"/><path class="cls-16" d="M2.7,25c-.45.64.16,2.05.74,2.53s1.1-1.35.74-2.13S3,24.56,2.7,25Z"/><path class="cls-17" d="M2.75,26.45c.44.78,1.48.16,1.48.16s-.3,1-.68,1.15S2.75,26.45,2.75,26.45Z"/><path class="cls-11" d="M2.69,25.29c-.16,1.15,1.23,1.47,1.33.41S2.85,24.16,2.69,25.29Z"/><path class="cls-16" d="M4.39,27.56c-.28.4.09,1.27.45,1.56s.7-.83.47-1.31A.56.56,0,0,0,4.39,27.56Z"/><path class="cls-17" d="M4.41,28.48c.27.48.93.1.93.1s-.19.59-.43.71S4.41,28.48,4.41,28.48Z"/><path class="cls-11" d="M4.38,27.77c-.1.7.77.9.83.25S4.49,27.07,4.38,27.77Z"/><path class="cls-18" d="M17.52,28.89c-.32.23.36,2,.59,2.31s-.07-1.71.05-2a2.28,2.28,0,0,1,.65-.58Z"/><path class="cls-19" d="M7,52.68s-1.16-3.41-1-4.52,3.9-.4,7-.7,4.86,4.9,4.86,4.9S15.72,48,13.61,47.7a13.81,13.81,0,0,0-5,.18c-1.07.27-.45,5-.45,5Z"/><path class="cls-19" d="M9.06,53s-.25-3,2-3.75,5.65,3.38,5.65,3.38l-.75.15s-2.56-3.92-4.6-3.27S9.28,53,9.28,53Z"/><path class="cls-20" d="M9.92,51.22c-.24,1.08,4.39,1.71,5.12,1.65s-1.41-2.56-2.54-3S9.92,51.22,9.92,51.22Z"/><path class="cls-20" d="M9.15,50.61c-.52-.17-.77-1.84,0-2.46s3.51-.48,4.22.09-1,.52-2.5.91A2.12,2.12,0,0,0,9.15,50.61Z"/><path class="cls-21" d="M10.07,50.47c-.35.52,1.68-.67,1.94-.83S11,49,10.07,50.47Z"/><path class="cls-21" d="M13.61,47.7c-.47-.06,1.57,1.67,2.24,2S15.05,47.88,13.61,47.7Z"/><path class="cls-22" d="M14.57,47.74c-.56-.17,1.52-1.26,3.06-1.46s1.8.52,1.64.59A32.53,32.53,0,0,1,14.57,47.74Z"/><path class="cls-22" d="M11.77,47.74c-1-.17,1.63-.18,1.84,0S12.74,47.91,11.77,47.74Z"/><path class="cls-22" d="M4.77,47c-1.62-1.09,2.53-.28,4.42.13s-1.94.47-2.67.32S4.77,47,4.77,47Z"/><path class="cls-23" d="M11.12.05A17,17,0,0,0,7.37,4.47a40.19,40.19,0,0,0-4.48,8.7c-1.38,3.91-2.54,7-2,9.06A25.21,25.21,0,0,1,0,18.09C.22,16.56,8.2,1.69,10.5.1a.67.67,0,0,1,.61,0Z"/><path class="cls-23" d="M2.75,29.3S4.65,34.11,6,38a27,27,0,0,1,1.35,8L2.67,29.18Z"/><path class="cls-14" d="M18.86,32.92A52,52,0,0,0,18,38.14a50.76,50.76,0,0,0,2-4.89c.11-.37-.29-.08-.73-.08S18.86,32.92,18.86,32.92Z"/><path class="cls-11" d="M9.82,29.36c-.86-3.43,7.65-6.81,9.49-9s.78,1.6.9,3.3S10,29.94,9.82,29.36Z"/></g></g></g></svg>