<svg xmlns="http://www.w3.org/2000/svg" xmlns:xlink="http://www.w3.org/1999/xlink" viewBox="0 0 58.45 51.92"><defs><style>.cls-1{isolation:isolate;}.cls-2{fill:url(#Безымянный_градиент_882);}.cls-3{fill:#db2734;}.cls-14,.cls-15,.cls-16,.cls-4,.cls-6,.cls-7{mix-blend-mode:multiply;}.cls-4,.cls-7{opacity:0.5;}.cls-5,.cls-6{fill:#dc6a94;}.cls-14,.cls-6{opacity:0.2;}.cls-14,.cls-15,.cls-16,.cls-7{fill:#c60055;}.cls-8{fill:url(#Безымянный_градиент_870);}.cls-9{fill:url(#Безымянный_градиент_891);}.cls-10{fill:url(#Безымянный_градиент_899);}.cls-11{fill:url(#Безымянный_градиент_891-2);}.cls-12{fill:#b52e4b;}.cls-13{fill:#ffb64a;mix-blend-mode:screen;}.cls-13,.cls-15{opacity:0.3;}.cls-16{opacity:0.4;}</style><linearGradient id="Безымянный_градиент_882" x1="27.01" y1="50.67" x2="27.01" y2="0.79" gradientUnits="userSpaceOnUse"><stop offset="0" stop-color="#ffc7ab"/><stop offset="0.43" stop-color="#ffba82"/><stop offset="1" stop-color="#ef7c79"/></linearGradient><linearGradient id="Безымянный_градиент_870" x1="34.66" y1="19.5" x2="34.66" gradientUnits="userSpaceOnUse"><stop offset="0" stop-color="#ffa274"/><stop offset="1" stop-color="#ffc488"/></linearGradient><linearGradient id="Безымянный_градиент_891" x1="4.04" y1="51.05" x2="1.67" y2="-1.26" gradientUnits="userSpaceOnUse"><stop offset="0" stop-color="#eb7463"/><stop offset="1" stop-color="#e45445"/></linearGradient><linearGradient id="Безымянный_градиент_899" x1="9.36" y1="50.81" x2="6.99" y2="-1.5" gradientUnits="userSpaceOnUse"><stop offset="0" stop-color="#eb7463"/><stop offset="1" stop-color="#d13145"/></linearGradient><linearGradient id="Безымянный_градиент_891-2" x1="11.34" y1="50.72" x2="8.97" y2="-1.59" xlink:href="#Безымянный_градиент_891"/></defs><g class="cls-1"><g id="Слой_2" data-name="Слой 2"><g id="layer1"><path class="cls-2" d="M53.06,49.35,17.58,50.67a0,0,0,0,1,0,0A30,30,0,0,1,5.32,39.14l.77-.54s5.39,0,5.05-.25S5,36.65,5,36.65a6.29,6.29,0,0,1-.86.27,30.14,30.14,0,0,1-1.75-4.47c.2-.17.42-.37.63-.57.44-.42.81-.87.79-1.15a5.47,5.47,0,0,0-1.71-2.49,1.49,1.49,0,0,0-.66.06c0-.11,0-.21-.05-.32C-1.57,8.54,11.87,2.86,11.87,2.86l1.46-.07,38.33-2S42.84,5.65,39.44,19.23a13.52,13.52,0,0,0-.33,4.19c-1,.66-3.11,2.08-2.55,2.31a11.07,11.07,0,0,0,2.87.12C41.62,37,53.06,49.35,53.06,49.35Z"/><path class="cls-3" d="M22.72,45.72a.57.57,0,0,1-.18,0c-.39-.14-.73-.27-1-.39a.54.54,0,0,1-.28-.7.52.52,0,0,1,.69-.27l1,.36a.54.54,0,0,1,.32.68A.53.53,0,0,1,22.72,45.72Z"/><path class="cls-3" d="M20.51,44.44h-.06a.52.52,0,0,1-.46-.59c.08-.65.88-.92,2.32-1.19a.53.53,0,0,1,.19,1,4.77,4.77,0,0,0-1.5.41A.52.52,0,0,1,20.51,44.44Zm3.46-1a.53.53,0,0,1-.08-1l.49-.07,1.6-.25a.52.52,0,0,1,.61.43.53.53,0,0,1-.44.61l-1.61.25-.49.07Zm3.66-.6a.53.53,0,0,1-.52-.43.55.55,0,0,1,.42-.62c.76-.14,1.43-.29,2-.44a.51.51,0,0,1,.64.38.53.53,0,0,1-.38.64c-.63.16-1.32.31-2.1.46Zm3.59-.91a.52.52,0,0,1-.17-1,11.06,11.06,0,0,0,1.84-.82.53.53,0,0,1,.53.91,11.08,11.08,0,0,1-2,.9A.47.47,0,0,1,31.22,41.93Zm3.17-1.83A.54.54,0,0,1,34,40a.51.51,0,0,1,0-.74,2.83,2.83,0,0,0,.39-.56,2.16,2.16,0,0,0,.28-1,.54.54,0,0,1,.53-.54.5.5,0,0,1,.53.5,3.14,3.14,0,0,1-.4,1.48,3.69,3.69,0,0,1-.55.78A.5.5,0,0,1,34.39,40.1Zm0-3.2a.55.55,0,0,1-.3-.09,5.69,5.69,0,0,0-1.78-.72.53.53,0,0,1-.38-.64.54.54,0,0,1,.65-.38,6.7,6.7,0,0,1,2.12.87.55.55,0,0,1,.13.74A.53.53,0,0,1,34.43,36.9Zm-3.5-1.12h-.09c-.56-.1-1.2-.2-2.07-.32a.53.53,0,1,1,.15-1.05c.88.13,1.54.23,2.11.33a.53.53,0,0,1,.42.62A.52.52,0,0,1,30.93,35.78Zm-3.66-.54H27.2l-2.1-.3a.53.53,0,1,1,.16-1l2.08.3a.53.53,0,0,1-.07,1.05Zm-3.66-.56h-.09c-.75-.13-1.44-.26-2.1-.41a.53.53,0,0,1,.23-1c.64.14,1.31.27,2.05.4a.53.53,0,0,1-.09,1ZM20,33.9l-.13,0c-.73-.19-1.42-.41-2.07-.63a.54.54,0,0,1-.32-.68.53.53,0,0,1,.68-.32c.61.22,1.28.42,2,.61a.53.53,0,0,1-.14,1Zm11.47-.36a6.9,6.9,0,0,1-1.41-.15.53.53,0,0,1-.41-.62.52.52,0,0,1,.62-.41,5.73,5.73,0,0,0,1.93.07.52.52,0,0,1,.59.45.53.53,0,0,1-.45.6A6.25,6.25,0,0,1,31.46,33.54ZM33.75,33a.53.53,0,0,1-.31-1A1.25,1.25,0,0,0,34,30.89c0-.08,0-.17,0-.26A.53.53,0,0,1,35,30.52c0,.13,0,.25,0,.37a2.33,2.33,0,0,1-.95,2A.52.52,0,0,1,33.75,33Zm-5.1,0a.54.54,0,0,1-.21,0,11.55,11.55,0,0,1-1.94-1.05.53.53,0,1,1,.59-.88,10.19,10.19,0,0,0,1.76,1,.52.52,0,0,1,.28.69A.53.53,0,0,1,28.65,32.93ZM16.5,32.69a.57.57,0,0,1-.22,0l-.11,0a5.82,5.82,0,0,1-1.79-1.23.53.53,0,0,1,0-.75.53.53,0,0,1,.75,0,4.88,4.88,0,0,0,1.48,1l.1,0a.53.53,0,0,1,.27.7A.52.52,0,0,1,16.5,32.69Zm-2.66-2.45a.55.55,0,0,1-.48-.29,6.15,6.15,0,0,1-.6-2.22.53.53,0,1,1,1.05-.09,4.83,4.83,0,0,0,.5,1.83.53.53,0,0,1-.24.71A.46.46,0,0,1,13.84,30.24Zm20.22-.67a.52.52,0,0,1-.49-.33,12.76,12.76,0,0,0-.91-1.81.53.53,0,0,1,.18-.73.55.55,0,0,1,.73.19,13.74,13.74,0,0,1,1,2,.53.53,0,0,1-.3.69A.63.63,0,0,1,34.06,29.57Zm-20.7-2.94h-.09a.53.53,0,0,1-.44-.6,7.85,7.85,0,0,1,.7-2.15.53.53,0,0,1,.71-.24.52.52,0,0,1,.24.7,6.32,6.32,0,0,0-.6,1.86A.53.53,0,0,1,13.36,26.63Zm18.9-.28a.53.53,0,0,1-.44-.23c-.37-.53-.79-1.09-1.24-1.66a.54.54,0,0,1,.09-.75.53.53,0,0,1,.74.09c.47.59.9,1.17,1.28,1.72a.54.54,0,0,1-.14.74A.52.52,0,0,1,32.26,26.35ZM30,23.43a.55.55,0,0,1-.41-.18c-.32-.39-.66-.77-1-1.15a1.48,1.48,0,0,0-.33-.26.52.52,0,0,1-.17-.73A.53.53,0,0,1,28.8,21a2.63,2.63,0,0,1,.55.43l1,1.18a.52.52,0,0,1-.06.74A.5.5,0,0,1,30,23.43Zm-15.14-.14a.54.54,0,0,1-.32-.11.53.53,0,0,1-.09-.74,8.31,8.31,0,0,1,1.63-1.56.53.53,0,0,1,.74.13.52.52,0,0,1-.12.73,7,7,0,0,0-1.42,1.35A.55.55,0,0,1,14.85,23.29Zm12.23-2a.57.57,0,0,1-.18,0,16,16,0,0,0-2-.55.53.53,0,0,1-.41-.62.53.53,0,0,1,.63-.41,17,17,0,0,1,2.11.59.52.52,0,0,1,.31.67A.51.51,0,0,1,27.08,21.26Zm-9.32-.2a.53.53,0,0,1-.49-.32.53.53,0,0,1,.28-.69,8.69,8.69,0,0,1,2.15-.61.53.53,0,0,1,.61.43.54.54,0,0,1-.44.61A7.54,7.54,0,0,0,18,21,.52.52,0,0,1,17.76,21.06Zm5.72-.62h-.06a14.94,14.94,0,0,0-1.73-.1h-.31a.52.52,0,0,1-.54-.51.53.53,0,0,1,.51-.54h.37a16.43,16.43,0,0,1,1.82.11.53.53,0,0,1-.06,1.05Z"/><path class="cls-3" d="M25.49,30.93a.55.55,0,0,1-.34-.13,8.41,8.41,0,0,1-.81-.77.52.52,0,1,1,.77-.71s.27.28.73.68a.53.53,0,0,1-.35.93Z"/><path class="cls-3" d="M19.84,31a.53.53,0,0,1-.21-1l5.82-2.47a.53.53,0,0,1,.7.28.53.53,0,0,1-.28.69L20,31A.51.51,0,0,1,19.84,31Z"/><path class="cls-3" d="M23.89,32.65a.53.53,0,0,1-.52-.45l-.83-5.27a.53.53,0,1,1,1-.17L24.41,32a.53.53,0,0,1-.44.6Z"/><g class="cls-4"><path class="cls-5" d="M18.92,47.44c-.11-.11-11.37-11.6-11.25-22.31s8.7-21.64,8.79-21.75l.41.32c-.09.11-8.56,10.91-8.67,21.43S19.19,47,19.3,47.07Z"/><path class="cls-5" d="M30.75,47.2c-.11-.12-11.25-12-10.71-22.86S26.72,3.5,26.79,3.4l.44.28c-.06.1-6.13,10-6.66,20.69S31,46.72,31.13,46.84Z"/><path class="cls-5" d="M43.34,44.7c-.47-.4-11.49-9.94-12-17.57S35.59,5,35.64,4.82l.5.17c0,.14-4.79,14.63-4.28,22.1S43.57,44.2,43.68,44.3Z"/><path class="cls-5" d="M3.71,21.05l0-.53c.17,0,17.54-.86,32.72-1.28v.52C21.25,20.19,3.89,21,3.71,21.05Z"/><path class="cls-5" d="M6.16,32.57l0-.53c.2,0,19.86-1.2,32.4-1.66l0,.53C26,31.37,6.36,32.56,6.16,32.57Z"/><path class="cls-5" d="M10.92,42.51,10.83,42c.18,0,18.42-3.19,31.23-2.33l0,.53C29.27,39.33,11.1,42.48,10.92,42.51Z"/></g><path class="cls-6" d="M39.31,19.81a59.54,59.54,0,0,1-18.06,9.88c-11.07,3.8-17.91-3.51-18-10.76s4.31-12,8.44-13S40.18,16.65,40.18,16.65Z"/><path class="cls-7" d="M9.58,6.75C5.24,9,1.48,16.82,4.08,21.65s25.53,2,30,.43a10.44,10.44,0,0,0,5.88-4.61S18.57,1.93,9.58,6.75Z"/><path class="cls-8" d="M58.13,6.75C56.28,11.82,47,17.94,47,17.94c-10.35-1.65-34,1.56-34,1.56.1-.18.2-.35.29-.53C19.54,7.13,10.87,2.12,10.87,2.12l1.31,0C31.36,1.52,42.78-1.31,52.85.74a15.41,15.41,0,0,1,1.94.52,8.06,8.06,0,0,1,1.06.43h0C58.45,2.93,58.86,4.75,58.13,6.75Z"/><path class="cls-9" d="M3,31.88a29.85,29.85,0,0,0,2,4.77,6.29,6.29,0,0,1-.86.27,5.83,5.83,0,0,1-.87.16,35.08,35.08,0,0,1-1.64-4s.35-.25.76-.6C2.58,32.28,2.8,32.08,3,31.88Z"/><path class="cls-10" d="M13.61,18.94h0a4.67,4.67,0,0,1-.54.56l-.67-.59-1.18-1c4.12.19,5.41-13.17-.51-11.91-5.45,1.16-11,9.85-8.62,22.26a1.49,1.49,0,0,0-.66.06,9.67,9.67,0,0,0-1,.28,24.84,24.84,0,0,1,.32-11C3.57,7.25,8.72,1,12.18,2.08a2.93,2.93,0,0,1,1.15.71A7.76,7.76,0,0,1,15.2,6.88C16.68,14.08,14.64,17.66,13.61,18.94Z"/><path class="cls-11" d="M17.58,50.67l-.92,1.25A32.89,32.89,0,0,1,4.6,39.63l.72-.49.77-.54A41,41,0,0,0,17.57,50.66,0,0,0,0,0,17.58,50.67Z"/><path class="cls-12" d="M16.66,51.92s23.32-2,35.73-1.32l.67-1.25L17.58,50.66Z"/><path class="cls-12" d="M3.26,37.08s5.48,1.74,6.47,1.57a9.72,9.72,0,0,0,1.41-.3S5.85,36.7,5,36.65A3.75,3.75,0,0,0,3.26,37.08Z"/><path class="cls-12" d="M39.11,23.42s-.82,1.12-1,1.41-1.6.9-1.6.9S35.78,25.52,39.11,23.42Z"/><path class="cls-6" d="M13.07,19.5s16.1-6.34,29-8.83,11,1,10.5,2.21-4.43,3.87-6.89,4.28S34.89,16.16,13.07,19.5Z"/><path class="cls-13" d="M10.71,44.14s-3.38-4-2.43-4.51,19.5-1.26,28.74.3,14.38,8.2,14,8.85-28.85,1-33,.57S10.71,44.14,10.71,44.14Z"/><path class="cls-12" d="M.46,28.58A15,15,0,0,1,2.9,30.73c.5.74.11,1.15.11,1.15s1-1,1.07-1.27A11.41,11.41,0,0,0,2,27.94C1.71,27.76.46,28.58.46,28.58Z"/><path class="cls-13" d="M15.32,2c-2,.82,15,5,22.48,5.11s18.26-3.36,18.79-4S47.44.24,43.46,0,15.32,2,15.32,2Z"/><path class="cls-14" d="M58.13,6.75C56.28,11.82,47,17.94,47,17.94c-10.35-1.65-34,1.56-34,1.56l-.67-.59a2.26,2.26,0,0,0,1,.06l.25,0h0c1.91-.37,17.46-2.77,24.19-3s7.84,1.13,10.05.43S56.88,9.1,58.13,6.75Z"/><path class="cls-6" d="M14.87,19.27S29.74,17.77,33,17.16s9.49-5.31,9.6-6.21S27,14.3,22.27,16.44A52,52,0,0,1,14.87,19.27Z"/><path class="cls-13" d="M5.71,36.52A4,4,0,0,1,4.08,33c.27-.95,4.42-.35,7.68,1.85s.61,3.59-.67,3.21S5.71,36.52,5.71,36.52Z"/><path class="cls-14" d="M24.27,8.87a1.39,1.39,0,0,1,2.48-.76,2.25,2.25,0,0,1-1.41,2.57C24.3,10.93,24.23,9.67,24.27,8.87Z"/><path class="cls-15" d="M24.37,8.37c.24,2.15.16,0,1.18-.5s1.29.84,1.28.9a1,1,0,0,0-1.15-1.19C24.23,7.66,24.37,8.37,24.37,8.37Z"/><path class="cls-14" d="M46.28,46.49c-1.33-1-.6-1.78.11-1.52s1.8,1.47,1.7,2.07S46.93,47,46.28,46.49Z"/><path class="cls-15" d="M45.9,46.17c1.84,1.1,0-.09-.06-.8s1.07-.09,1.12,0-1-.85-1.32-.17A.72.72,0,0,0,45.9,46.17Z"/><path class="cls-14" d="M22.69,14c1-1.24-.26-5.4-3.16-5.18s-1.46,4.4,0,5.39A2.21,2.21,0,0,0,22.69,14Z"/><path class="cls-15" d="M17.93,11.28c.14.68.12-1.65,1.48-2.22s1.94,1.23,3,2.22-.22-2.86-2.85-2.46A1.83,1.83,0,0,0,17.93,11.28Z"/><path class="cls-16" d="M55.85,1.69A46.39,46.39,0,0,0,46.42.26C40.77,0,37.27,1.59,30,1.66s-17.8.42-17.8.42C31.36,1.52,42.78-1.31,52.85.74a15.41,15.41,0,0,1,1.94.52Z"/><path class="cls-7" d="M13.07,19.5l-1.85-1.61A3.08,3.08,0,0,0,13.7,16a37.93,37.93,0,0,0,1.17-8c.1-2,1.61,2.82.58,6.71S13.07,19.5,13.07,19.5Z"/><path class="cls-7" d="M10.87,2.12c-1.46.29-4.62,4.2-4.33,4.8s2.58-1.87,5.16-1,2.9-.13,2.72-1S13.17,1.67,10.87,2.12Z"/></g></g></g></svg>