<svg xmlns="http://www.w3.org/2000/svg" xmlns:xlink="http://www.w3.org/1999/xlink" viewBox="0 0 52.97 60.99"><defs><style>.cls-1{isolation:isolate;}.cls-2{fill:url(#Безымянный_градиент_846);}.cls-3{fill:url(#Безымянный_градиент_864);}.cls-4{fill:url(#Безымянный_градиент_864-2);}.cls-5{fill:url(#Безымянный_градиент_856);}.cls-6{fill:#ff8390;}.cls-21,.cls-6{mix-blend-mode:screen;}.cls-15,.cls-6{opacity:0.3;}.cls-22,.cls-7{fill:#d42f55;}.cls-10,.cls-15,.cls-16,.cls-17,.cls-18,.cls-22,.cls-7{mix-blend-mode:multiply;}.cls-10,.cls-7{opacity:0.8;}.cls-8{fill:#ff7a7a;}.cls-9{fill:url(#Безымянный_градиент_846-2);}.cls-10{fill:#b32a55;}.cls-11{fill:url(#Безымянный_градиент_842);}.cls-12{fill:#ffc59f;}.cls-13{fill:url(#Безымянный_градиент_846-3);}.cls-14{fill:url(#Безымянный_градиент_846-4);}.cls-15,.cls-17,.cls-18{fill:#c60055;}.cls-16{fill:#ef7a98;}.cls-16,.cls-18,.cls-21{opacity:0.2;}.cls-17{opacity:0.7;}.cls-19{fill:#db6345;}.cls-20{fill:#ffdbb1;}.cls-21{fill:#ff6d42;}.cls-22{opacity:0.5;}.cls-23{fill:#ffdec8;}</style><linearGradient id="Безымянный_градиент_846" x1="-477.6" y1="154.9" x2="-467.4" y2="154.9" gradientTransform="translate(64.93 -453.45) rotate(-67.94)" gradientUnits="userSpaceOnUse"><stop offset="0" stop-color="#a71100"/><stop offset="1" stop-color="#b32203"/></linearGradient><linearGradient id="Безымянный_градиент_864" x1="146.28" y1="-139.7" x2="162.43" y2="-139.7" gradientTransform="translate(-153.71 103.93) rotate(27.37)" gradientUnits="userSpaceOnUse"><stop offset="0" stop-color="#f4002b"/><stop offset="1" stop-color="#ff4234"/></linearGradient><linearGradient id="Безымянный_градиент_864-2" x1="145.94" y1="-139.44" x2="162.45" y2="-139.44" xlink:href="#Безымянный_градиент_864"/><linearGradient id="Безымянный_градиент_856" x1="144.53" y1="-138.19" x2="160.16" y2="-138.19" gradientTransform="translate(-153.71 103.93) rotate(27.37)" gradientUnits="userSpaceOnUse"><stop offset="0" stop-color="#b6002b"/><stop offset="1" stop-color="#cc0034"/></linearGradient><linearGradient id="Безымянный_градиент_846-2" x1="37.3" y1="45.68" x2="44.42" y2="45.68" gradientTransform="matrix(1, 0, 0, 1, 0, 0)" xlink:href="#Безымянный_градиент_846"/><linearGradient id="Безымянный_градиент_842" x1="19.13" y1="60.99" x2="19.13" y2="0.83" gradientUnits="userSpaceOnUse"><stop offset="0" stop-color="#ffa274"/><stop offset="1" stop-color="#e47745"/></linearGradient><linearGradient id="Безымянный_градиент_846-3" x1="9.16" y1="38.43" x2="33.63" y2="38.43" gradientTransform="matrix(1, 0, 0, 1, 0, 0)" xlink:href="#Безымянный_градиент_846"/><linearGradient id="Безымянный_градиент_846-4" x1="9.28" y1="30.77" x2="35.24" y2="30.77" gradientTransform="matrix(1, 0, 0, 1, 0, 0)" xlink:href="#Безымянный_градиент_846"/></defs><g class="cls-1"><g id="Слой_2" data-name="Слой 2"><g id="layer1"><path class="cls-2" d="M38.23,43.14c-.34.51-6.38-3.37-10.66.13s-6.78,1.33-4.36-2,12-4.11,15.62-.3C41,43.25,38.23,43.14,38.23,43.14Z"/><path class="cls-3" d="M43.57,44.51c-3.4,2.33-5.06,4.88-3.94,7.18,2.32,4.76,12.23,8.45,13,6.86C53.9,56.19,51.33,39.19,43.57,44.51Zm-.41,6.71c-1.55-2.24,1-6.17,3.3-4.81,1,.62,2.89,3,2,4.7A3.14,3.14,0,0,1,43.16,51.22Z"/><path class="cls-4" d="M49.32,59.34l-.41,0s0-.2,0-.54c0-1.71-.24-7.16-1.47-10-1.47-3.37-6.11-4.18-6.11-4.18h0a6.83,6.83,0,0,1,6.76-.75c4.07,1.56,4.86,13.59,4.59,14.7C52.46,59.42,50.26,59.39,49.32,59.34Z"/><path class="cls-5" d="M50,58.82C51,56,48.5,40.53,41.33,44.61h0a5.84,5.84,0,0,0-.53.33,6.85,6.85,0,0,0-3.09,3.89.66.66,0,0,0,0,.09c-1.17,5.55,9,10.89,11.64,10.41a.73.73,0,0,0,.57-.34Zm-9.59-7.16c-1.56-2.23,1-6.17,3.3-4.8,1,.62,2.89,3,2,4.69A3.14,3.14,0,0,1,40.38,51.66Z"/><path class="cls-6" d="M46,43.69c-.92.17,2.86,3.87,3.19,6A1.86,1.86,0,0,0,52,51.32c.39-.42-1.07-4.72-2.41-6.28A4.57,4.57,0,0,0,46,43.69Z"/><path class="cls-7" d="M40.46,48.11c-1,2.69.36,2.6,1.39,1.08a16.87,16.87,0,0,1,1.83-2.33S42,45.67,40.46,48.11Z"/><path class="cls-7" d="M49.32,59.34c-2.66.48-12.81-4.86-11.64-10.41-.08.54-.3,3.37,3.89,6.59,3.29,2.52,5.81,3.14,7.33,3.26a8.64,8.64,0,0,0,1.07,0l.3,0c.93,0,2.41-.24,2.41-.24C52.46,59.42,50.26,59.39,49.32,59.34Z"/><path class="cls-7" d="M39.67,46.1c-1.44,1.78-1.49,2.23-.86,2.92s1.41-3.41,4.69-2.45,3.17,4.1,2,6.13,2.93,5.84,4,5.84.65-7.17-1.59-11.12S42.17,43,39.67,46.1Z"/><path class="cls-8" d="M43.94,43.88a5.72,5.72,0,0,1,3.83,2.22c1.28,1.94,2,6.73,2,6.73S48.75,45,43.94,43.88Z"/><path class="cls-9" d="M44.42,47.48s-1.26,3.35-4,2.36a5.07,5.07,0,0,1-3.07-5.39,4.1,4.1,0,0,1,1.18-2.24c1.57-1.56,3.4-.73,4.57.12a8.18,8.18,0,0,1,1.17,1.06S41.52,44.28,41,45s0,1.73,1.2,1.44S44.42,47.48,44.42,47.48Z"/><path class="cls-10" d="M33.47,39.31c4,1,3.43,2.18,2.29,2.51s-2.07-.46-4.54,0S30.55,38.58,33.47,39.31Z"/><path class="cls-10" d="M44.42,47.48s-1.26,3.35-4,2.36a5.07,5.07,0,0,1-3.07-5.39h0c.25,2.43,1.22,1.3,3-1.28a2,2,0,0,1,2.75-.84,8.18,8.18,0,0,1,1.17,1.06S41.52,44.28,41,45s0,1.73,1.2,1.44S44.42,47.48,44.42,47.48Z"/><path class="cls-11" d="M37.93,9.67c-.32,2.61-1.87,7.37-3.44,12.64h0s0,0,0,0c-.43,1.43-.85,2.9-1.25,4.37s-.75,2.81-1.07,4.19a1.11,1.11,0,0,0,0,.13.74.74,0,0,0,0,.14v0c-.19.8-.35,1.6-.5,2.38,0,.15-.06.29-.08.43-.06.3-.11.59-.16.88a.38.38,0,0,0,0,.1l-.09.55c0,.18-.06.37-.08.55,0,0,0,.06,0,.09-.07.48-.12.94-.17,1.41s-.07.92-.1,1.36c-.06,1.39-.09,2.7-.07,3.92,0,.22,0,.44,0,.65v.1c0,1,.08,2,.15,2.89a.55.55,0,0,1,0,.12q.08,1,.18,1.83a60.14,60.14,0,0,0,1.31,7.08c0,.61-1.59,5.77-8.63,5.44h-.15a16.64,16.64,0,0,1-3.28-.53h0c-5.35-1.42-9.24-5.06-9.28-5.85,0-.4.42-1.84.83-4a32.6,32.6,0,0,0,.53-8.26c0-.43-.08-.86-.13-1.29-.09-.73-.21-1.46-.37-2.21-.1-.47-.22-1-.37-1.55-.36-1.28-.84-2.79-1.42-4.41v0c-.11-.32-.24-.66-.36-1l-.39-1.06C5.93,21.32.27,9.07.27,9.07,4.55-1,15.62,1,15.62,1L16.25,3l.28.9C23.45,2.41,30,3.12,34,4.77a1.57,1.57,0,0,0,0,.38c0,.15,0,.31,0,.47l0,.14a14.87,14.87,0,0,0,.53,2.06c.35.37.87.1,1.34-.32l.16-.15,0,0a9.27,9.27,0,0,0,.74-.84,3.28,3.28,0,0,1,1.11,1.78h0c0,.08,0,.17,0,.26A6.83,6.83,0,0,1,37.93,9.67Z"/><path class="cls-12" d="M10.77,12.53a4.12,4.12,0,0,0,.77,1.85C6.76,13.54,2.68,12.09.86,10-3.75,4.55,11.7,0,11.7,0l3.92,1S3.49,2.65,2.15,7.26c-.62,2.14,3.24,4,8.62,5.26Z"/><path class="cls-12" d="M15.75,11.18C4.86,10.51,2.21,5.23,16.25,3c1.45-.22,3.07-.42,4.88-.57,6.35-.54,10.73.31,13.43,1.77-.39-.1-.56.14-.59.54a1.57,1.57,0,0,0,0,.38C31.57,3.7,27.38,2.86,21,3.5,11,4.5,6.9,6.86,9.65,8.32l.13.07,0,0a2.08,2.08,0,0,0,.3.13,16.58,16.58,0,0,0,4.44.87l.23,0c.93.08,2,.13,3.14.15a29.12,29.12,0,0,0,4.7-.2c3.7-.5,3.28-1.76,3.28-1.76l4.1.61h0C29.88,8.44,27.42,11.9,15.75,11.18Z"/><path class="cls-12" d="M37.93,9.67c-.37,2-2.24,3.8-5.25,4.58-4.08,1.06-10.88,1.34-17.23.67.16-.73.3-1.41.31-1.48A62.75,62.75,0,0,0,28,14h.09l.25,0h.11c.82-.06,1.61-.15,2.35-.26a9.73,9.73,0,0,0,2.08-.56l.09,0a6,6,0,0,0,2.92-2.26A3.64,3.64,0,0,0,36.44,9v-.1a3.17,3.17,0,0,0-.2-1.13,4.16,4.16,0,0,0-.16-.4,9.27,9.27,0,0,0,.74-.84L37,6.22a4.42,4.42,0,0,1,.93,2h0c0,.08,0,.17,0,.26A4,4,0,0,1,37.93,9.67Z"/><path class="cls-13" d="M33.35,36.88a13.56,13.56,0,0,1-2.52,6l0,0a8.29,8.29,0,0,1-7.3,3,18.45,18.45,0,0,1-11.12-4.87A13.23,13.23,0,0,1,9.86,38a4.93,4.93,0,0,1-.53-3.8,1.94,1.94,0,0,1,.89-1.3v0a11.79,11.79,0,0,0,.95,1.49l.41.5a34.9,34.9,0,0,0,2.94,3.18l.59.53a21.53,21.53,0,0,0,2.44,1.92c2.12,1.43,4.57,2.45,7,2.11a7.2,7.2,0,0,0,6.16-4.86,10,10,0,0,0,.45-1.59h0s0-.06,0-.09c0-.2.07-.39.1-.56s0-.39.07-.54a.38.38,0,0,1,0-.1c0-.09,0-.17,0-.23s.07-.38.13-.65.05-.28.08-.43c.17-.85.4-1.88.5-2.38v0a1,1,0,0,0,0-.14,1.11,1.11,0,0,1,0-.13,2.62,2.62,0,0,1,1.28,1.22v0a4.08,4.08,0,0,1,.18,1.34A17.11,17.11,0,0,1,33.35,36.88Z"/><path class="cls-14" d="M33.62,33.49a9.92,9.92,0,0,1-2.45,2.69h0c-4.44,3.4-11.37,3.54-16,2.42a12.77,12.77,0,0,1-3.47-1.29,4.32,4.32,0,0,1-1.06-.81,4.76,4.76,0,0,1-1.25-2.32,2.88,2.88,0,0,1,.53-2.3,5.32,5.32,0,0,0,1.73,2.38c1.66,1.3,4.56,2,9.53,1,7.61-1.63,11.42-6.92,11.63-7.76l.06-.2.07-.27,0-.15c.44-1.38,1.43-4.14,1.55-4.48,0,0,0,0,0,0S36.67,28.56,33.62,33.49Z"/><path class="cls-15" d="M36.45,8.85V9a3.55,3.55,0,0,1-.2,1s0,0,0,.06c-.94,2.47-4.41,3.42-6.53,3.76h0a12,12,0,0,1-1.24.16H28.3l-.25,0H28l.06-.16,2-5.57h0l-4.1-.61a.2.2,0,0,0,0-.12s-.07,0-.19,0l-.13.09h0l-.3.26h0c-.18.17-.42.4-.73.72a3.55,3.55,0,0,1-1.92.74,31.29,31.29,0,0,1-7.84,0l-.23,0a20.32,20.32,0,0,1-4.44-.87,2.08,2.08,0,0,1-.3-.13l0,0-.13-.07C7.5,7.08,12,4.76,19.41,4.08c1.49-.13,3-.2,4.39-.2h.12c1,0,2,0,3,.12l.59,0,.21,0A18.52,18.52,0,0,1,34,5.62l0,.14a14.87,14.87,0,0,0,.53,2.06c.35.37.87.1,1.34-.32l.16-.15a1.85,1.85,0,0,1,.19.37A2.53,2.53,0,0,1,36.45,8.85Z"/><path class="cls-15" d="M7.14,10.77a5.2,5.2,0,0,1-.5-3.41c.42-1.8,4.27-3.33,6.94-3.83S15.3.42,12,1.68,1.46,4.72,2.72,9.1C3.16,10.65,7.14,10.77,7.14,10.77Z"/><path class="cls-16" d="M4.83,13.19c-2.55,1.24,5.28,17.18,7,20.49s10.57.35,16.35-3.52,7.16-14.38,7.05-15.65-9.8,3.17-17.9,2.68S5.28,13,4.83,13.19Z"/><path class="cls-6" d="M18.21,57.58c-.84-3.61-1.37-8.79,0-10.27s5,.85,8.67-.63,5.39,6.87,5.29,8.88S24.94,63.6,18.21,57.58Z"/><path class="cls-15" d="M36.26,9.87a.24.24,0,0,0,0,.08s0,0,0,.06a3.7,3.7,0,0,1-.36.81,5.52,5.52,0,0,1-2.92,2.26l-.09,0a12,12,0,0,1-3.16.66h0a12.65,12.65,0,0,1-1.63,0l2-5.57h0s-3-.92-4.09-.73a.74.74,0,0,0-.19,0l-.13.09h0a1.16,1.16,0,0,1-.3.26h0c-.88.6-3,1.35-3.89.46s-3.48-4.45,2.41-4.5h.12c1,0,2,0,3,.12l.59,0,.21,0A16.68,16.68,0,0,1,34,5.76a14.87,14.87,0,0,0,.53,2.06c.35.37.87.1,1.34-.32A3.41,3.41,0,0,1,36.26,9.87Z"/><path class="cls-15" d="M2.1,7.93c.1,1.46,1.19,1.89,3.59,2.69,1.69.56,1.53.91,1.53.91S5.65,8.68,6.81,6.94s-1-2.3-2.2-2.05C2.58,5.33,2.1,7.93,2.1,7.93Z"/><path class="cls-17" d="M10.77,12.52s4.24,3.11,4.5,3.1c0,0-.28,1.21-.44,1.15s-3.06-2.07-3.48-2.37S10.77,12.52,10.77,12.52Z"/><path class="cls-15" d="M9.1,14a11.32,11.32,0,0,1,5.63,3.4c.63.81.72-2.45.72-2.45l.06-.27s-.26,1.77-.68,1.84-3.48-2.09-3.48-2.09Z"/><path class="cls-18" d="M15.89,20.34c.09-2,2.68-1.86,3.1-.95a2.82,2.82,0,0,1-1.76,3.21C15.92,22.92,15.84,21.34,15.89,20.34Z"/><path class="cls-15" d="M16,19.72c.3,2.68.19,0,1.47-.62s1.6,1,1.59,1.12.38-1.58-1.43-1.48S16,19.72,16,19.72Z"/><path class="cls-18" d="M14,52.32a1.07,1.07,0,0,1,1.9-.59,1.73,1.73,0,0,1-1.08,2C14,53.89,14,52.93,14,52.32Z"/><path class="cls-15" d="M14.09,51.94c.18,1.64.12,0,.9-.39s1,.64,1,.69.24-1-.87-.91S14.09,51.94,14.09,51.94Z"/><path class="cls-18" d="M13.92,26.75C15.2,25.19,13.59,20,10,20.28S8.16,25.78,10,27,13.22,27.59,13.92,26.75Z"/><path class="cls-15" d="M8,23.35c.18.86.15-2.05,1.84-2.76s2.43,1.53,3.72,2.76-.28-3.56-3.56-3.07A2.28,2.28,0,0,0,8,23.35Z"/><path class="cls-16" d="M20.5,15.28s9.18.37,10.29.45,2.12,1.73,3.6.56,2.83-3.51,2.8-4.17-1.85,2.16-5.5,2.69A104.47,104.47,0,0,1,20.5,15.28Z"/><path class="cls-17" d="M20.43,60.44c-5.35-1.42-9.24-5.06-9.28-5.85A28.71,28.71,0,0,0,20.43,60.44Z"/><path class="cls-17" d="M32.49,55.54c0,.61-1.59,5.77-8.63,5.44h-.15a5.4,5.4,0,0,0,.58-.08,8.65,8.65,0,0,0,6.93-7.34,29,29,0,0,0,0-5.09A60.14,60.14,0,0,0,32.49,55.54Z"/><path class="cls-19" d="M34.56,4.23C35,4.08,34.94,8,34.94,8s-.34.38-.82-.8A4.36,4.36,0,0,1,34,4.61C34.13,4,34.56,4.23,34.56,4.23Z"/><path class="cls-20" d="M34.94,8A11.88,11.88,0,0,0,37,6.22a4.65,4.65,0,0,1-.76,1.5A2.1,2.1,0,0,1,34.94,8Z"/><path class="cls-15" d="M7.89,26.72s-.41-9.85-1.25-11.64S.91,10.46.91,10.46Z"/><path class="cls-15" d="M11.15,54.59s2.73-6.32,3.21-8.08-1.92-5.15-1.92-5.15S13.39,46.26,11.15,54.59Z"/><path class="cls-15" d="M34,5.15c-.58-.59-4.76-1.46-5.49-1.27S29.85,7.17,30,8.24s-2,5.72-2,5.72,5.57-.16,7.28-2.43.92-3.81.92-3.81-1.14.4-1.69.1S34,5.15,34,5.15Z"/><path class="cls-7" d="M33.62,33.49a17.11,17.11,0,0,1-.27,3.39,2,2,0,0,1-.86.26,3.54,3.54,0,0,0-1.49.45c-.1,0,.13-1.05,0-1-1.13.81-1.67,2.13-3.88,3.25-1.89.95-6.54,1.22-9.61.67-2-.36-3.5-.54-3.57.08-.15,1.59,3.55,4.55,8.28,4.86a14,14,0,0,0,8.53-2.58v0l0,.61v.09h0c-.09.28-1.88,5.39-7.13,3.8C19,46,14.4,42.68,12.51,42.36c0-.43-.08-.86-.13-1.29A13.23,13.23,0,0,1,9.86,38a4.93,4.93,0,0,1-.53-3.8,2.88,2.88,0,0,1,.53-2.3l-.39-1.06L8.78,29l2.81,5.26a2.3,2.3,0,0,0,0,.63c.08.84.59,2.31,2.94,3.18a11.59,11.59,0,0,0,2.53.58c5.1.61,11.18-.68,14.21-3.11h0a5.63,5.63,0,0,0,1.47-1.69,9.35,9.35,0,0,0,.69-1.69c.93-3,.74-6.37-.21-5.43a2.66,2.66,0,0,0-.48.73l.06-.2.07-.27,0-.15c.44-1.38,1.43-4.14,1.55-4.48,0,0,0,0,0,0S36.67,28.56,33.62,33.49Z"/><path class="cls-21" d="M15.47,37.91c-.43.69,7.62,1.1,12.47-1.75s6.27-6.86,5.87-8.45-2.91,5.46-7.21,7.1S15.8,37.36,15.47,37.91Z"/><path class="cls-21" d="M18.31,42.75c-1.91.64,3.73,2.71,7.32,1.9S31.19,42.9,31.86,40,30.12,42.7,25,43.57,19.08,42.48,18.31,42.75Z"/><path class="cls-22" d="M9.86,31.88s2.22,4.92,10.89,3.23,13.09-11,13.09-11a17,17,0,0,1-1.09,3.3c-.56,1-3.47,6.68-11.86,8s-9.68-.8-10.5-1.69A2.12,2.12,0,0,1,9.86,31.88Z"/><path class="cls-7" d="M9.33,34.18s-.47,3.18,5.78,4.42c0,0-3.21,1.35-4.42.63S9.33,34.18,9.33,34.18Z"/><path class="cls-23" d="M22.26,15.28c-1.14-.52,8.56-1,11.06-2.09s2.2-2.81,3.27-2.73-1.2,3.57-4.9,4.35A44.94,44.94,0,0,1,22.26,15.28Z"/><path class="cls-23" d="M14.79,9.43c-3,.31,2.12,2.21,5.81,1.81s6-.43,7.07-1.81-1.31-.81-5.41,0A18.71,18.71,0,0,1,14.79,9.43Z"/><path class="cls-23" d="M6.87,11.41c-3.49-.17.52,2,1.46,2.28a8.8,8.8,0,0,0,2.6.58c.23-.11-.16-1.75-.16-1.75Z"/></g></g></g></svg>