<svg xmlns="http://www.w3.org/2000/svg" xmlns:xlink="http://www.w3.org/1999/xlink" viewBox="0 0 61.17 44.32"><defs><style>.cls-1{isolation:isolate;}.cls-2{fill:url(#Безымянный_градиент_806);}.cls-3{fill:url(#Безымянный_градиент_820);}.cls-10,.cls-4,.cls-6{fill:#d42f55;}.cls-10,.cls-12,.cls-17,.cls-4,.cls-6{mix-blend-mode:multiply;}.cls-4{opacity:0.91;}.cls-5{fill:url(#Безымянный_градиент_817);}.cls-6{opacity:0.8;}.cls-7{fill:#97001a;}.cls-8{fill:url(#Безымянный_градиент_815);}.cls-9{fill:url(#Безымянный_градиент_815-2);}.cls-10,.cls-12{opacity:0.5;}.cls-11,.cls-16{fill:#fff;}.cls-11,.cls-19,.cls-21{mix-blend-mode:soft-light;}.cls-12,.cls-17{fill:#f35;}.cls-13{fill:url(#Безымянный_градиент_815-3);}.cls-14{fill:#ffe016;}.cls-15{fill:url(#Безымянный_градиент_743);}.cls-17{opacity:0.2;}.cls-18{fill:#ff5215;}.cls-19{fill:#ffa200;}.cls-20{fill:#ff740e;}.cls-21{fill:#ffe2c2;}</style><linearGradient id="Безымянный_градиент_806" x1="26.92" y1="43" x2="26.92" y2="1.71" gradientUnits="userSpaceOnUse"><stop offset="0" stop-color="#d83303"/><stop offset="1" stop-color="#ff8911"/></linearGradient><linearGradient id="Безымянный_градиент_820" x1="50.71" y1="42.99" x2="50.71" y2="2.23" gradientUnits="userSpaceOnUse"><stop offset="0" stop-color="#a71100"/><stop offset="0.65" stop-color="#d83303"/><stop offset="1" stop-color="#ec5c11"/></linearGradient><linearGradient id="Безымянный_градиент_817" x1="50.35" y1="39.5" x2="50.35" y2="6.14" gradientUnits="userSpaceOnUse"><stop offset="0" stop-color="#a71100"/><stop offset="1" stop-color="#d83303"/></linearGradient><linearGradient id="Безымянный_градиент_815" x1="41.39" y1="44.32" x2="41.39" gradientUnits="userSpaceOnUse"><stop offset="0" stop-color="#ff8b00"/><stop offset="1" stop-color="#ffae00"/></linearGradient><linearGradient id="Безымянный_градиент_815-2" x1="13.03" y1="44.32" x2="13.03" y2="1.27" xlink:href="#Безымянный_градиент_815"/><linearGradient id="Безымянный_градиент_815-3" x1="19.75" y1="29.65" x2="19.75" y2="16.06" xlink:href="#Безымянный_градиент_815"/><linearGradient id="Безымянный_градиент_743" x1="19.34" y1="26.57" x2="19.34" y2="19.89" gradientUnits="userSpaceOnUse"><stop offset="0" stop-color="#de330e"/><stop offset="1" stop-color="#930000"/></linearGradient></defs><g class="cls-1"><g id="Слой_2" data-name="Слой 2"><g id="layer1"><path class="cls-2" d="M53.84,2.65l-10.09,40-.1.38H5.25a95.74,95.74,0,0,1-3.8-12.19C-1.38,18.74.39,12.16,2.85,8.6h0A10.5,10.5,0,0,1,6.21,5.43a7.12,7.12,0,0,1,2.21-.91c3.37-.47,6.51-.87,9.44-1.21,1.9-.22,3.73-.41,5.45-.58l.25,0,.23,0,.83-.08c5.34-.49,9.8-.75,13.5-.85h0a98.34,98.34,0,0,1,12,.3c.53.06,1,.11,1.4.17a19.51,19.51,0,0,1,2.28.41S53.83,2.64,53.84,2.65Z"/><path class="cls-3" d="M58.75,29.65l0,.14a.11.11,0,0,1,0,.06c0,.08,0,.18-.05.31l0,.16c0,.09,0,.18-.05.28C57.42,37.2,56,42.36,56,42.36L43.65,43l-.09-.38C43,40,39.86,24.78,42.4,12.41c1.39-6.76,5.35-10.16,9.15-10.18a6.42,6.42,0,0,1,2.28.41s0,0,0,0c2.9,1.08,5.35,4.34,5.95,9.76C60.37,17.62,59.69,24.08,58.75,29.65Z"/><path class="cls-4" d="M54.52,38.57a15.46,15.46,0,0,1-6,.93A11.83,11.83,0,0,1,46,39.09S41,7.56,51.25,6.14l.39,0C62.35,5.42,54.52,38.57,54.52,38.57Z"/><path class="cls-5" d="M53.15,38.57a15.6,15.6,0,0,1-4.59.93A11.83,11.83,0,0,1,46,39.09S41,7.56,51.25,6.14C60.48,7.54,53.15,38.57,53.15,38.57Z"/><path class="cls-6" d="M55.73,40.29c1.26-1.47,2.43-7.36,2.85-9.69C57.42,37.2,56,42.36,56,42.36L43.65,43h-38l7.17-2.32a29.32,29.32,0,0,0,6.55,1.22c4.46.48,22.25.7,24.22.72h.19C44,42.6,54.16,42.11,55.73,40.29Z"/><path class="cls-7" d="M0,23.48l41.42-.66,18.2-.52s-16.71,1.16-18.2,1.18S0,23.48,0,23.48Z"/><path class="cls-8" d="M52.36,2.23s-1-.09-2.21-.17A18.49,18.49,0,0,0,46.9,2c-1.06.21-7.22,2.25-8.9,14.47C36.65,26.32,39.5,42.77,40,43h0a7,7,0,0,0,2.16,0,12.46,12.46,0,0,1-2.6,1.13c-.51,0-6.56.44-6.92,0A5,5,0,0,1,32.34,43a108.33,108.33,0,0,1-1.78-25C31.15,8.28,35,3.85,37.94,1.88l.18-.12A9.55,9.55,0,0,1,41,.43,64,64,0,0,1,49.49,0c1,.24,2.7,2,2.86,2.19Z"/><path class="cls-9" d="M23.79,2.69l-.23,0-.25,0c-1.2.11-4.31.41-5.45.58l-.24,0c-1.05.2-7.08,2.17-8,14-.72,9.34,3,24.87,3.63,25.64l0,0a7.44,7.44,0,0,0,2.17,0,11.89,11.89,0,0,1-2.53,1.08c-.5,0-6.53.43-6.92,0A5.24,5.24,0,0,1,5.63,43,104.28,104.28,0,0,1,2.27,18.78C2.27,12,4.13,7.92,6.21,5.43A11.45,11.45,0,0,1,7.43,4.16a10,10,0,0,1,4.2-2.38A32.47,32.47,0,0,1,19.8,1.4a29,29,0,0,1,3.92,1.26A.14.14,0,0,1,23.79,2.69Z"/><path class="cls-10" d="M49.49,0C46,.16,39.28,4,37.05,14.13c-2.08,9.45,2,30.13,2.52,30S42.17,43,42.17,43a6.82,6.82,0,0,1-1.59-.8C40,41.75,37.47,24,39.35,14.48S48.44,2,48.44,2l3.92.24S50.39,0,49.49,0Z"/><path class="cls-10" d="M23.79,2.69a14.89,14.89,0,0,0-5-1c-2.29.08-8,2.06-10.11,12S12.32,44,12.94,44.13,16,43,16,43a5.35,5.35,0,0,1-2.24-1c-.65-.65-4.1-18.55-3-28.24C11.62,6.64,17.21,2.61,23.79,2.69Z"/><path class="cls-11" d="M31.08,13.71c-.27,2.72,4.8.85,5.38.64S38.74,7.78,41.39,4s-2.63-3-4.13-1.58A17.45,17.45,0,0,0,31.08,13.71Z"/><path class="cls-11" d="M2.5,14.86c-.18,2,4.46,1.15,5.33,0S10.3,7,13,4,3.84,1.85,2.5,14.86Z"/><path class="cls-12" d="M31.24,15.64c-.47,0-.67,3.79-.17,4.66s4.47.05,4.93,0,.64-5.3.59-5.44S33.4,15.86,31.24,15.64Z"/><path class="cls-12" d="M2.78,16.06c-.41-.13-.54,4.72,0,5.26s4.86.07,5.19,0,.35-4.57.26-5.26S5,16.75,2.78,16.06Z"/><path class="cls-13" d="M9.13,17.77a17.13,17.13,0,0,0,0,7.46s8.29,4,10.46,4.4,10.79-4.3,10.82-4.4-.36-6.64.37-9.17Z"/><path class="cls-14" d="M9.13,17.77S25,15,30.78,16.06C30.78,16.06,13.74,18,9.13,17.77Z"/><path class="cls-10" d="M20.17,29.63c-3.1.12,10.22-5.33,10.22-5.33l0,1.69S23.65,29.5,20.17,29.63Z"/><path class="cls-11" d="M8.78,20.09c.46,3,6.63-.2,13.12-.56S30,18.7,30.41,16.8s-7.14.5-13.48.36S8.5,18.25,8.78,20.09Z"/><path class="cls-12" d="M9.13,22.17c.29,2.06,8.55-1.85,14.37-1.61s6.88.38,6.9-1.69-.71.06-3.81.58S21.1,20.38,16.2,21a58.58,58.58,0,0,1-7.07.38C8.71,21.48,9.13,22.17,9.13,22.17Z"/><path class="cls-15" d="M19,23.2s-2.48-2.86.19-3.28.53,3.28.53,3.28,1.21,3,1.19,3.25-2.77.08-3,0S19,23.2,19,23.2Z"/><path class="cls-14" d="M9.13,25.23s7.29,3.11,9.67,3.16,9.37-3.16,9.37-3.16-7.74,3.91-9.4,3.75S9.13,25.23,9.13,25.23Z"/><path class="cls-16" d="M13.44,17.65c-2.13,1.6,1.57,1.77,3,1.07s1.4-1.56,1.4-1.56S14.19,17.08,13.44,17.65Z"/><path class="cls-16" d="M38.49,4c-1.19,1.46-.71,3.46,0,2.6s2-2.49,1.35-2.6A4.83,4.83,0,0,0,38.49,4Z"/><path class="cls-16" d="M9.13,4.66C8.46,4.17,7.36,6.49,8,6.76S10,5.29,9.13,4.66Z"/><path class="cls-17" d="M5.49,35.17c-1,1.29.26,7.31,1,8.23s5.36.36,5.63,0-2.57-8.64-2.76-9.6S6.75,33.47,5.49,35.17Z"/><path class="cls-17" d="M32.11,37c-.22-3.36,3.64-1.94,4.86-1.38s1.87,7,1.59,7.76-4.89.4-5.55,0S32.14,37.41,32.11,37Z"/><path class="cls-10" d="M38.39,9.91c-1.72,3.6,2.86-2.65,5.29-4.92A14.52,14.52,0,0,1,48.82,1.9,1.85,1.85,0,0,0,47,.93C45.52.93,41.48,3.42,38.39,9.91Z"/><path class="cls-10" d="M9.4,11.48a34.61,34.61,0,0,1,4.42-5.25c2.6-2.49,7.41-3.3,7.41-3.3a5.38,5.38,0,0,0-3.41-1.09C15.77,1.9,11.3,4.72,9.4,11.48Z"/><path class="cls-18" d="M60,18.87a17.53,17.53,0,0,1,1.13,2.71,19.41,19.41,0,0,1-.59,5.68,6.94,6.94,0,0,1-1.67,1.57Z"/><path class="cls-14" d="M9.7,32.11s.62,9.57,3.24,12A80.25,80.25,0,0,1,9.7,32.11Z"/><path class="cls-14" d="M36.46,25.07s-.12,9.68,2.21,15.82C38.67,40.89,37.32,32,36.46,25.07Z"/><path class="cls-6" d="M45.92,12.56c.65.41,2.23-5.65,5.62-5.9s3.57,9.12,4.94,10.5,1.14-9.11-3-10.79S46.94,9.29,45.92,12.56Z"/><path class="cls-19" d="M11.72,12.94c-.09,1.85,15.41.93,17.14-.84S34.56,4.23,36.2,3,23.64,2.38,20,3.47,11.94,8.49,11.72,12.94Z"/><path class="cls-19" d="M39.46,14c.6.71,1.75-2,4-5.83s5.75-5,5.37-5.58S40.25,5.77,39.46,14Z"/><path class="cls-12" d="M43.75,42.61S41.13,25.45,41.43,24.3s2.41-1,2.73-.81,1,14.45,1.76,16.5S43.75,42.61,43.75,42.61Z"/><path class="cls-20" d="M38.31,23.49s2.38.38,3.15.46a20,20,0,0,0,3.48-.61Z"/><path class="cls-20" d="M.23,23.48s0,.59.24.66a10.08,10.08,0,0,0,2-.65Z"/><path class="cls-12" d="M30.4,27.26c0-1.27-8.94,2.71-11.75,6.18s-3.85,7.35-2.57,8.45,13.34.92,14.7.5S30.4,27.26,30.4,27.26Z"/><path class="cls-12" d="M43.09,11c-.68,2.45,4.38-3.57,8.55-4.9s1.83-3.34.43-3.8S45.47,2.42,43.09,11Z"/><path class="cls-11" d="M31.3,4.59c-.46-.92-4.27,1.07-4.38,1.55S32.11,6.24,31.3,4.59Z"/><path class="cls-6" d="M1.45,30.81C-1.38,18.74.39,12.16,2.85,8.6a18.36,18.36,0,0,0-1.63,5C.26,18.55,1,26.89,1.45,30.81Z"/><path class="cls-6" d="M19.8,1.4a29,29,0,0,1,3.92,1.26l-1.14.06a20.87,20.87,0,0,0-8.22-.88A22.5,22.5,0,0,0,7.43,4.16a10,10,0,0,1,4.2-2.38A32.47,32.47,0,0,1,19.8,1.4Z"/><path class="cls-6" d="M52.35,2.22A19.54,19.54,0,0,0,43,.6c-3.46.45-4.55.94-4.88,1.16a.73.73,0,0,0-.14.12h-.07l-13.32.73c5.34-.49,9.8-.75,13.5-.85A9.55,9.55,0,0,1,41,.43,64,64,0,0,1,49.49,0C50.51.27,52.19,2,52.35,2.22Z"/><path class="cls-21" d="M38.89,22.77a5,5,0,0,0,2-.16c.56-.31,1.06-7.44,1.06-7.44A5.23,5.23,0,0,0,40,16.8C38.86,18.17,38.89,22.77,38.89,22.77Z"/><path class="cls-21" d="M.84,23.43c-.68-.31-.12-4.73.29-5.65s1,4.74,1,5.28S.84,23.43.84,23.43Z"/><path class="cls-11" d="M46,39.09a12.14,12.14,0,0,0,7-.47l1.5,0S50.35,41.67,46,39.09Z"/></g></g></g></svg>