<svg xmlns="http://www.w3.org/2000/svg" xmlns:xlink="http://www.w3.org/1999/xlink" viewBox="0 0 41 47.84"><defs><style>.cls-1{isolation:isolate;}.cls-2{fill:url(#Безымянный_градиент_476);}.cls-3{fill:url(#Безымянный_градиент_480);}.cls-4{fill:url(#Безымянный_градиент_458);}.cls-5{fill:url(#Безымянный_градиент_458-2);}.cls-6{fill:#b82774;}.cls-6,.cls-7,.cls-8,.cls-9{mix-blend-mode:multiply;}.cls-6,.cls-7,.cls-8{opacity:0.5;}.cls-7{fill:#f35;}.cls-8{fill:#c52774;}.cls-9{fill:#ffc055;opacity:0.3;}.cls-10{fill:#ffffdb;}.cls-11{fill:#dc2c00;}.cls-12{fill:#ffc434;}</style><linearGradient id="Безымянный_градиент_476" x1="14.85" y1="47.84" x2="14.85" y2="3.92" gradientUnits="userSpaceOnUse"><stop offset="0.05" stop-color="#ff4b00"/><stop offset="1" stop-color="#ff7204"/></linearGradient><linearGradient id="Безымянный_градиент_480" x1="23.35" y1="47.84" x2="23.35" y2="0.37" gradientUnits="userSpaceOnUse"><stop offset="0" stop-color="#ffa200"/><stop offset="1" stop-color="#ffb82f"/></linearGradient><linearGradient id="Безымянный_градиент_458" x1="16.31" y1="6.8" x2="16.31" gradientUnits="userSpaceOnUse"><stop offset="0" stop-color="#ffde00"/><stop offset="1" stop-color="#ffe834"/></linearGradient><linearGradient id="Безымянный_градиент_458-2" x1="34.9" y1="27.48" x2="34.9" y2="24.08" xlink:href="#Безымянный_градиент_458"/></defs><g class="cls-1"><g id="Слой_2" data-name="Слой 2"><g id="layer1"><path class="cls-2" d="M29.69,29.61,23,46.74l-.43,1.09h0s-4-.24-4.89-1.76a3.17,3.17,0,0,1-.29-1h0c-.57-3.31-.48-12.37-1.9-12.26-1.64.11-11.38,1.31-13.93-.23S0,8.67,1.38,6.61,8.69,3.92,8.69,3.92Z"/><path class="cls-3" d="M40.94,28.29A8.19,8.19,0,0,1,40,30h0C36.4,35.27,24.66,48.15,22.61,47.83a.3.3,0,0,1-.18-.08,1.17,1.17,0,0,1-.27-.47c-1-2.81.95-14.37-.38-14.72S6.39,34,5.81,31.4,7.15,5.51,8.69,3.92C11.81.73,30.87-.25,32.1.73s-4.42,22.5-3.2,23.34S41.93,25.19,40.94,28.29Z"/><path class="cls-4" d="M1.38,6.62S2.67,3.94,12,1.42,31.24.5,31.24.5s-15-.74-23.17,4.61C8.07,5.11,1.26,7.45,1.38,6.62Z"/><path class="cls-5" d="M28.9,24.08c.34,1.62,4.56,2.33,8,2.58s4,.82,4,.82-.07-.95-2.63-1.55S29.88,24.58,28.9,24.08Z"/><path class="cls-6" d="M15.53,32.78c.53.49,1.76,2.61,3.23,8.21s4.33-6.34,3.4-7.7S15.53,32.78,15.53,32.78Z"/><path class="cls-6" d="M1.6,32.55a47,47,0,0,1,6.39,0c3.16.25,7.54.23,7.54.23S5.82,34.32,1.6,32.55Z"/><path class="cls-7" d="M1.6,7.11c-.49.16-1.59,12.76-.77,18s4.82,1,5.37-4.83S7.87,7.84,7.54,6.62,1.6,7.11,1.6,7.11Z"/><path class="cls-8" d="M40,30C36.4,35.27,24.66,48.15,22.61,47.83h0s-4-.24-4.89-1.76a3.17,3.17,0,0,1-.29-1c.16.13,2.68,2.24,4.44,2.31a.64.64,0,0,0,.29-.08c.22-.09.46-.36.88-.54C28.9,44.16,39.52,30.49,40,30Z"/><path class="cls-9" d="M26.78,24.64c-3.13,5.12-15.65,7.11-18.71,5S7.26,8.1,11.17,4.88,30.67,1.35,31.24,3.4,27.28,23.83,26.78,24.64Z"/><path class="cls-10" d="M4.67,6.18c.21.46,4.39-.18,6-2.26S4.67,6.18,4.67,6.18Z"/><path class="cls-10" d="M33,26.17c0-1.09,3.65-.63,4.63.55S33,27.64,33,26.17Z"/><path class="cls-11" d="M7.19,21.26c-.13-1.6.62-4.21,1.92-4.27s1,3.92,0,5S7.27,22.22,7.19,21.26Z"/><path class="cls-11" d="M7.09,12.61C5,12,5.45,14.85,6.44,15.46S9.33,13.23,7.09,12.61Z"/><path class="cls-6" d="M6,12.71c-1.09.55.52,2,1.17,2s1.1-1,.77-1.57A1.65,1.65,0,0,0,6,12.71Z"/><path class="cls-6" d="M8,17.82C7.59,18.6,8.32,21,9.09,21s1.17-3.25.45-3.79S8,17.82,8,17.82Z"/><path class="cls-12" d="M5.71,14.3s.32.92,1,1,1.2-.75,1.2-.75-.62,1.86-1.31,1.71S5.71,14.3,5.71,14.3Z"/><path class="cls-12" d="M7.23,21.52a1.12,1.12,0,0,0,1,.78,1.63,1.63,0,0,0,1.21-.78S8.94,23,8.05,23,7.23,21.52,7.23,21.52Z"/><path class="cls-9" d="M24.27,46.08c-2.35-3.82,3.18-15.84,7-16.47s5.27-1,6.44,1.32S24.27,46.08,24.27,46.08Z"/></g></g></g></svg>