<svg xmlns="http://www.w3.org/2000/svg" xmlns:xlink="http://www.w3.org/1999/xlink" viewBox="0 0 43.57 61.33"><defs><style>.cls-1{isolation:isolate;}.cls-2{fill:url(#Безымянный_градиент_468);}.cls-3{fill:url(#Безымянный_градиент_772);}.cls-4{fill:url(#Безымянный_градиент_466);}.cls-5{fill:#f70;}.cls-31,.cls-6,.cls-8{fill:#d42f55;}.cls-25,.cls-27,.cls-30,.cls-31,.cls-6,.cls-8{mix-blend-mode:multiply;}.cls-27,.cls-6{opacity:0.3;}.cls-7{fill:url(#Безымянный_градиент_458);}.cls-25,.cls-30,.cls-8{opacity:0.5;}.cls-9{fill:url(#Безымянный_градиент_728);}.cls-10{fill:#ffce32;}.cls-11{fill:#ffff36;}.cls-12{fill:url(#Безымянный_градиент_728-2);}.cls-13{fill:url(#Безымянный_градиент_728-3);}.cls-14{fill:url(#Безымянный_градиент_728-4);}.cls-15{fill:url(#Безымянный_градиент_728-5);}.cls-16{fill:url(#Безымянный_градиент_728-6);}.cls-17{fill:url(#Безымянный_градиент_728-7);}.cls-18{fill:url(#Безымянный_градиент_728-8);}.cls-19{fill:#e1332c;}.cls-20{fill:url(#Безымянный_градиент_774);}.cls-21{fill:url(#Безымянный_градиент_728-9);}.cls-22{fill:url(#Безымянный_градиент_772-2);}.cls-23{fill:url(#Безымянный_градиент_743);}.cls-24,.cls-28{fill:#fff;}.cls-24{mix-blend-mode:soft-light;}.cls-25,.cls-27{fill:#f35;}.cls-26{fill:#ffb311;mix-blend-mode:screen;opacity:0.2;}.cls-29{fill:#ffe016;}.cls-30{fill:#ffab55;}.cls-31{opacity:0.8;}.cls-32{fill:#ffcc16;}.cls-33{fill:#dc2c00;}.cls-34{fill:#ffc716;}</style><linearGradient id="Безымянный_градиент_468" x1="32.83" y1="61.7" x2="20.32" y2="27.35" gradientUnits="userSpaceOnUse"><stop offset="0" stop-color="#ff5900"/><stop offset="0.23" stop-color="#fe6800"/><stop offset="0.66" stop-color="#fa9300"/><stop offset="0.85" stop-color="#f66a00"/><stop offset="1" stop-color="#f63f00"/></linearGradient><linearGradient id="Безымянный_градиент_772" x1="25.83" y1="61.91" x2="13.19" y2="27.17" gradientUnits="userSpaceOnUse"><stop offset="0" stop-color="#ff8100"/><stop offset="1" stop-color="#ffbb34"/></linearGradient><linearGradient id="Безымянный_градиент_466" x1="23.95" y1="58.67" x2="14.26" y2="32.05" gradientUnits="userSpaceOnUse"><stop offset="0" stop-color="#ffba00"/><stop offset="0.21" stop-color="#fe6800"/><stop offset="1" stop-color="#d41b00"/></linearGradient><linearGradient id="Безымянный_градиент_458" x1="1.78" y1="30.07" x2="42.5" y2="30.07" gradientUnits="userSpaceOnUse"><stop offset="0" stop-color="#ffde00"/><stop offset="1" stop-color="#ffe834"/></linearGradient><linearGradient id="Безымянный_градиент_728" x1="33.76" y1="38.2" x2="33.76" y2="34.55" gradientUnits="userSpaceOnUse"><stop offset="0" stop-color="#d41b00"/><stop offset="0.79" stop-color="#fe6800"/></linearGradient><linearGradient id="Безымянный_градиент_728-2" x1="17.48" y1="33.49" x2="17.48" y2="29.63" xlink:href="#Безымянный_градиент_728"/><linearGradient id="Безымянный_градиент_728-3" x1="2.37" y1="38.2" x2="2.37" y2="34.55" xlink:href="#Безымянный_градиент_728"/><linearGradient id="Безымянный_градиент_728-4" x1="33.39" y1="49.74" x2="33.39" y2="46.56" xlink:href="#Безымянный_градиент_728"/><linearGradient id="Безымянный_градиент_728-5" x1="3.44" y1="49.74" x2="3.44" y2="46.56" xlink:href="#Безымянный_градиент_728"/><linearGradient id="Безымянный_градиент_728-6" x1="31.27" y1="59.05" x2="31.27" y2="56.23" xlink:href="#Безымянный_градиент_728"/><linearGradient id="Безымянный_градиент_728-7" x1="18.94" y1="60.63" x2="18.94" y2="57.87" xlink:href="#Безымянный_градиент_728"/><linearGradient id="Безымянный_градиент_728-8" x1="6.96" y1="59.05" x2="6.96" y2="56.23" xlink:href="#Безымянный_градиент_728"/><radialGradient id="Безымянный_градиент_774" cx="21.01" cy="15.49" r="16.42" gradientUnits="userSpaceOnUse"><stop offset="0" stop-color="#ffea34"/><stop offset="0.63" stop-color="#ff8100"/><stop offset="0.92" stop-color="#ffa400"/><stop offset="1" stop-color="#ffba00"/></radialGradient><linearGradient id="Безымянный_градиент_728-9" x1="22.98" y1="56.59" x2="15.74" y2="36.71" xlink:href="#Безымянный_градиент_728"/><linearGradient id="Безымянный_градиент_772-2" x1="21.92" y1="56.64" x2="14.74" y2="36.92" xlink:href="#Безымянный_градиент_772"/><linearGradient id="Безымянный_градиент_743" x1="18.82" y1="53.98" x2="18.82" y2="38.65" gradientUnits="userSpaceOnUse"><stop offset="0" stop-color="#de330e"/><stop offset="1" stop-color="#930000"/></linearGradient></defs><g class="cls-1"><g id="Слой_2" data-name="Слой 2"><g id="layer1"><path class="cls-2" d="M43.09,44.42v0c-.84,7-2.67,14.3-4.28,15.06l0,0a9.26,9.26,0,0,1-2,.49h0a74,74,0,0,1-8.71.76c-1.38.05-2.8.07-4.2.07-5.85,0-11.41-.59-12.61-2.1C8.58,55.4,4.9,35.49,9.37,31.64s31.28-2.45,33.13-.19C43.81,33.05,43.79,38.64,43.09,44.42Z"/><path class="cls-3" d="M32.53,59.43l-.14.08a8.61,8.61,0,0,1-2.08.53,79,79,0,0,1-9.94.79c-.89,0-1.8,0-2.7,0a53.9,53.9,0,0,1-9.49-.7,11.17,11.17,0,0,1-2.25-.65,2.94,2.94,0,0,1-1.14-.76A16.74,16.74,0,0,1,2.55,53.7h0c-2.25-7.19-4-19.16-.76-22.06a6.29,6.29,0,0,1,2.41-1.16c8-2.38,29-1,30.71,1C37.91,34.94,35.34,57.44,32.53,59.43Z"/><path class="cls-4" d="M29.33,56.7c-1.11.54-6.07,1-10.95,1.07S8.77,57.39,7.73,56.1C5.6,53.44,2.54,38.18,5.86,35.32,7.41,34,12.67,33.51,18,33.55c6,0,12,.76,12.81,1.63C33.18,37.81,31.55,55.59,29.33,56.7Z"/><path class="cls-5" d="M29.33,56.7c-1.11.54-6.07,1-10.95,1.07-4.49,0-8.73-.47-9.69-1.67C6.57,53.44,3.6,38.18,6.94,35.32c1.45-1.24,6.12-1.74,11-1.77,6,0,12,.76,12.81,1.63C33.18,37.81,31.55,55.59,29.33,56.7Z"/><path class="cls-6" d="M6.33,36.1C3.69,39.5,6,48,8,49.74S23.55,45.39,28.37,46c3.54.45,4.88-8.59,2.06-11.08S8.52,33.29,6.33,36.1Z"/><path class="cls-7" d="M1.78,31.64s4.86-2.86,16.72-2.2,15.66,1.9,16.85,2.2,7.15-.19,7.15-.19-2.35-2.24-17.42-2.93S2.62,30.45,1.78,31.64Z"/><path class="cls-8" d="M32.27,35.56c-.39.35-.79,4,1.24,4.43s2-3.6,2-3.6Z"/><path class="cls-9" d="M35.49,36.39a1.93,1.93,0,0,1-1.85,1.81A1.64,1.64,0,0,1,32,36.39a1.93,1.93,0,0,1,1.85-1.84A1.64,1.64,0,0,1,35.49,36.39Z"/><path class="cls-10" d="M35,36.39a1.85,1.85,0,0,1-1.69,1.81,1.58,1.58,0,0,1-1.45-1.81,1.86,1.86,0,0,1,1.69-1.84A1.59,1.59,0,0,1,35,36.39Z"/><path class="cls-11" d="M31.89,36.16a1.78,1.78,0,0,1,1.56-1.42,2.16,2.16,0,0,1,1.85.68,1.6,1.6,0,0,0-1.42-1A1.88,1.88,0,0,0,31.89,36.16Z"/><path class="cls-8" d="M15.87,30.7c-.37.37-.43,4.26,1.7,4.68s1.68-3.8,1.68-3.8Z"/><path class="cls-12" d="M19.25,31.58a1.8,1.8,0,0,1-1.73,1.91,1.91,1.91,0,0,1-1.82-1.91,1.81,1.81,0,0,1,1.73-1.95A1.91,1.91,0,0,1,19.25,31.58Z"/><path class="cls-10" d="M18.76,31.58a1.73,1.73,0,0,1-1.56,1.91,1.84,1.84,0,0,1-1.66-1.91,1.74,1.74,0,0,1,1.56-1.95A1.85,1.85,0,0,1,18.76,31.58Z"/><path class="cls-11" d="M15.53,31.33A1.66,1.66,0,0,1,17,29.83a2.44,2.44,0,0,1,2,.72,1.9,1.9,0,0,0-1.55-1C16.2,29.35,15.61,30.44,15.53,31.33Z"/><path class="cls-8" d="M.74,35.56c-.33.35-.07,4,2,4.43s1.33-3.6,1.33-3.6Z"/><path class="cls-13" d="M4.1,36.39A1.56,1.56,0,0,1,2.57,38.2,2,2,0,0,1,.65,36.39a1.56,1.56,0,0,1,1.52-1.84A2,2,0,0,1,4.1,36.39Z"/><path class="cls-10" d="M3.62,36.39A1.49,1.49,0,0,1,2.26,38.2,2,2,0,0,1,.49,36.39a1.5,1.5,0,0,1,1.36-1.84A2,2,0,0,1,3.62,36.39Z"/><path class="cls-11" d="M.46,36.16a1.43,1.43,0,0,1,1.31-1.42,2.58,2.58,0,0,1,2,.68,2,2,0,0,0-1.59-1C1,34.29.47,35.32.46,36.16Z"/><path class="cls-8" d="M32,47.44c-.37.31-.74,3.52,1.16,3.87S35,48.17,35,48.17Z"/><path class="cls-14" d="M35,48.17a1.75,1.75,0,0,1-1.73,1.57,1.47,1.47,0,0,1-1.5-1.57,1.76,1.76,0,0,1,1.73-1.61A1.48,1.48,0,0,1,35,48.17Z"/><path class="cls-10" d="M34.55,48.17A1.66,1.66,0,0,1,33,49.74a1.4,1.4,0,0,1-1.35-1.57,1.66,1.66,0,0,1,1.57-1.61A1.41,1.41,0,0,1,34.55,48.17Z"/><path class="cls-11" d="M31.64,48a1.6,1.6,0,0,1,1.45-1.24,2.08,2.08,0,0,1,1.73.59,1.48,1.48,0,0,0-1.32-.84A1.72,1.72,0,0,0,31.64,48Z"/><path class="cls-8" d="M29.67,29.19c-1.27.2,6.73,2.49,8.47,2.14S29.67,29.19,29.67,29.19Z"/><path class="cls-8" d="M1.92,47.44c-.31.31-.09,3.52,1.87,3.87s1.26-3.14,1.26-3.14Z"/><path class="cls-15" d="M5.05,48.17a1.4,1.4,0,0,1-1.43,1.57,1.84,1.84,0,0,1-1.79-1.57,1.41,1.41,0,0,1,1.43-1.61A1.84,1.84,0,0,1,5.05,48.17Z"/><path class="cls-10" d="M4.61,48.17a1.34,1.34,0,0,1-1.29,1.57,1.76,1.76,0,0,1-1.64-1.57A1.35,1.35,0,0,1,3,46.56,1.78,1.78,0,0,1,4.61,48.17Z"/><path class="cls-11" d="M1.66,48a1.28,1.28,0,0,1,1.23-1.24,2.46,2.46,0,0,1,1.83.59,1.89,1.89,0,0,0-1.48-.84A1.39,1.39,0,0,0,1.66,48Z"/><path class="cls-8" d="M32.53,59.43l-.15.09a8.83,8.83,0,0,1-2.07.52A3,3,0,0,1,30,57l2.84.65A5.53,5.53,0,0,1,32.53,59.43Z"/><path class="cls-16" d="M32.79,57.65a1.59,1.59,0,0,1-1.61,1.4,1.36,1.36,0,0,1-1.43-1.4,1.58,1.58,0,0,1,1.6-1.42A1.37,1.37,0,0,1,32.79,57.65Z"/><path class="cls-10" d="M32.37,57.65a1.51,1.51,0,0,1-1.47,1.4,1.3,1.3,0,0,1-1.29-1.4,1.49,1.49,0,0,1,1.46-1.42A1.3,1.3,0,0,1,32.37,57.65Z"/><path class="cls-11" d="M29.62,57.47A1.43,1.43,0,0,1,31,56.38a2.08,2.08,0,0,1,1.64.52,1.44,1.44,0,0,0-1.26-.75A1.58,1.58,0,0,0,29.62,57.47Z"/><path class="cls-8" d="M20.37,60.83c-.89,0-1.8,0-2.7,0a2.87,2.87,0,0,1-.08-2.23l2.85.63A5.7,5.7,0,0,1,20.37,60.83Z"/><path class="cls-17" d="M20.44,59.26A1.41,1.41,0,0,1,19,60.63a1.47,1.47,0,0,1-1.52-1.37,1.4,1.4,0,0,1,1.47-1.39A1.48,1.48,0,0,1,20.44,59.26Z"/><path class="cls-10" d="M20,59.26a1.33,1.33,0,0,1-1.33,1.37,1.4,1.4,0,0,1-1.39-1.37,1.33,1.33,0,0,1,1.33-1.39A1.4,1.4,0,0,1,20,59.26Z"/><path class="cls-11" d="M17.29,59.09A1.3,1.3,0,0,1,18.55,58a2.21,2.21,0,0,1,1.66.52,1.59,1.59,0,0,0-1.31-.74A1.42,1.42,0,0,0,17.29,59.09Z"/><path class="cls-8" d="M8.18,60.17a11.17,11.17,0,0,1-2.25-.65A3.17,3.17,0,0,1,5.54,57l2.94.65S8.82,59.45,8.18,60.17Z"/><path class="cls-18" d="M8.48,57.65a1.31,1.31,0,0,1-1.39,1.4,1.65,1.65,0,0,1-1.65-1.4,1.31,1.31,0,0,1,1.38-1.42A1.65,1.65,0,0,1,8.48,57.65Z"/><path class="cls-10" d="M8.06,57.65a1.24,1.24,0,0,1-1.24,1.4,1.57,1.57,0,0,1-1.52-1.4,1.24,1.24,0,0,1,1.24-1.42A1.57,1.57,0,0,1,8.06,57.65Z"/><path class="cls-11" d="M5.28,57.47a1.19,1.19,0,0,1,1.19-1.09,2.38,2.38,0,0,1,1.71.52,1.73,1.73,0,0,0-1.37-.75A1.32,1.32,0,0,0,5.28,57.47Z"/><path class="cls-19" d="M38.8,59.52l0,0c-.19.06-.81.25-2,.49h0a67.53,67.53,0,0,1-9.65,1.12c-1.69.09-3.58.15-5.68.17-12.08.12-15.54-1.79-15.79-1.94a73.38,73.38,0,0,0,13.05,1.49,49.32,49.32,0,0,0,5.14-.24A48.84,48.84,0,0,0,30,60.09c1.34-.28,2.11-.54,2.35-.58.4-.07,3.14,0,4.9,0Z"/><path class="cls-20" d="M36.26,31l-6.59-1.8a41.15,41.15,0,0,0,1.69-9.28A10.54,10.54,0,0,0,30.44,14v0A8.77,8.77,0,0,0,29,11.48l-.16-.2c-.15-.17-.32-.33-.5-.5a6.66,6.66,0,0,0-1.89-1.24h0a11.53,11.53,0,0,0-4.78-.88c-3.57,0-6.17,1-8,3s-2.66,2.66-3,5.7a29.87,29.87,0,0,0-.15,4.31c0,.16,0,.32,0,.47a36.51,36.51,0,0,0,.86,6.66L4.75,30.21c0-.12-.15-.63-.3-1.45a44.81,44.81,0,0,1-.69-10.21s0,0,0,0C4,14,5.17,9.05,8.36,5.4S16,0,21.69,0c7,0,10.87,2.91,12.84,5.36A14.94,14.94,0,0,1,37,9.74c.23.63.42,1.28.59,1.93C39.66,19.93,36.69,29.63,36.26,31Z"/><path class="cls-21" d="M23.18,46.46s4.7,7.37,4.4,8.34-12.11,1.29-14,.33,2.48-8.33,2.48-8.33a7.17,7.17,0,0,1-3.3-6c-.2-5.9,11.28-6.33,13-1.56C27.11,43,23.18,46.46,23.18,46.46Z"/><path class="cls-22" d="M22.1,46.46s4.31,7.19,3.82,8.61c-.32,1-11.47,1-13.36.06S15,46.8,15,46.8a7,7,0,0,1-3-6.36c.53-5.14,10.9-5.93,12.66-1.16C26,43,22.1,46.46,22.1,46.46Z"/><path class="cls-23" d="M17.68,46.26s-7.21-6.59.56-7.54,1.53,7.54,1.53,7.54,3.53,6.94,3.48,7.45-8.08.18-8.77,0S17.68,46.26,17.68,46.26Z"/><path class="cls-8" d="M12.56,55.13s1.66.81,7.43.69,7.59-1,7.59-1-.71,1.4-7.14,1.59S12.56,55.13,12.56,55.13Z"/><path class="cls-8" d="M5.23,36.16c-.8,4.15,1.72-1.88,12-1.91s14.43,3.9,14.52,4.4a7.62,7.62,0,0,0-.94-3.47c-.83-1-9.2-1.91-16.08-1.63S5.68,34.94,5.23,36.16Z"/><path class="cls-8" d="M22.11,40.55c-.89-3.55-5.94-.49-5.72,2.08s3.16,3.93,3.38,3.63S22.63,42.58,22.11,40.55Z"/><path class="cls-8" d="M20.09,47.44c-.86-.44-3.84,5.83-3.36,6.15s6,.53,6.52.12S20.09,47.44,20.09,47.44Z"/><path class="cls-8" d="M18.54,7.88c5.41-.43,8.18,1.34,9.83,2.9-1.54-1.42-3.73-2.12-6.68-2.12a10.48,10.48,0,0,0-8,3c-2.93,3-3.27,5.68-3.15,10C10.58,21.7,8.26,8.71,18.54,7.88Z"/><path class="cls-8" d="M30.43,14A8.77,8.77,0,0,0,29,11.48,6.49,6.49,0,0,1,30.43,14Z"/><path class="cls-24" d="M5,17.07c.28,6.07,1.84-8.34,9.66-12.51S29.74,6.85,31,9.94s4.92,2.61,5.43.35S29-2.11,17.35.55,4.78,13.31,5,17.07Z"/><path class="cls-25" d="M11.46,28.84,4.75,30.21c0-.11-.15-.63-.3-1.45h0C9,31.33,3.71,21.27,10,11.15c2.44-4,1,4.93.79,6.24a31.35,31.35,0,0,0-.16,4.31A36.84,36.84,0,0,0,11.46,28.84Z"/><path class="cls-26" d="M11.16,15.88c1.1-3.56-2.48,1.34-2.52,6.89s1.56,6.11,2.09,5.64S8.64,24,11.16,15.88Z"/><path class="cls-27" d="M38.32,15.49C36.46,8.46,32.61,20.7,32,25s1.09,4.54,3.27,4.81S38.39,20.44,38.32,15.49Z"/><path class="cls-28" d="M4.73,25.52c.77,2.17,1.09-4,.8-5.77S3.34,21.59,4.73,25.52Z"/><path class="cls-24" d="M8.92,6.3C7.39,9,11.85,4.86,18.43,3.3S22.48.78,21,.35A12.07,12.07,0,0,0,8.92,6.3Z"/><path class="cls-8" d="M43.29,33.55c-1-2.79-5.49-.75-6.43,0s0,9.35-1.37,17.13-1.34,7.56,1.61,8,4.4-6.52,5.4-12.77A71.33,71.33,0,0,0,43.29,33.55Z"/><path class="cls-8" d="M36.94,34.43c-.29,1.32-.45,4.58,0,5.59s5.89.07,6.25-.74.44-6.11-1-6.91S37.22,33.16,36.94,34.43Z"/><path class="cls-29" d="M7.28,55.36s.58,1.55,4.5,2,15.23.19,16.75-.69a5.12,5.12,0,0,0,2.07-2.48s-.45,2.44-1.15,2.87-10.46,1-15,.77-6.13-.84-6.34-1A9.24,9.24,0,0,1,7.28,55.36Z"/><path class="cls-29" d="M4.4,41.56S4.25,36,5.64,34.85s8-1.24,8-1.24-6.45.51-7.77,1.71S4.4,41.56,4.4,41.56Z"/><path class="cls-28" d="M33.94,31.28a23.7,23.7,0,0,0,2.72,2.21A36.87,36.87,0,0,0,40,31.73C40.33,31.6,33.94,31.28,33.94,31.28Z"/><path class="cls-30" d="M13.46,45a3,3,0,0,0,2.79.92c.7-.1-2-3-1.85-5.18s5.18-3.1,7.37-2.07-.82,6-.73,6.95,3.94-2,3.71-4.84-3.23-5.14-8.37-4.13S11.46,42.72,13.46,45Z"/><path class="cls-26" d="M32.38,59.52c.61-.61,1.64-1.44,2.18-1.41a33.16,33.16,0,0,1,4.24.7c.54.22-.54.63-2.55.57A29.8,29.8,0,0,0,32.38,59.52Z"/><path class="cls-31" d="M22.1,46.46h1.08a5.84,5.84,0,0,0,2.24-3.23c.42-2-.29-1.81-.29-1.81A10.7,10.7,0,0,1,22.1,46.46Z"/><path class="cls-8" d="M36.26,31l-6.59-1.8a41.15,41.15,0,0,0,1.69-9.28c.68,5.33,2-3.05,4.3-6.91.69-1.13,1.34-1.46,1.92-1.33C39.66,19.93,36.69,29.63,36.26,31Z"/><path class="cls-32" d="M36.25,36.45s-.42,13.36-1.51,17.25A41.16,41.16,0,0,0,36.25,36.45Z"/><path class="cls-31" d="M43.08,44.46c-.84,7-2.67,14.3-4.28,15.06l0,0a9.26,9.26,0,0,1-2,.49h0a67.53,67.53,0,0,1-9.65,1.12l.94-.36c.55-.21,1.27-.47,2-.7a11.19,11.19,0,0,1,2.35-.58c1.27,0,2.74.69,4.9,0l.06,0C39.48,58.76,42.87,45.3,43.08,44.46Z"/><path class="cls-31" d="M2.55,53.7h0c-2.25-7.19-4-19.16-.76-22.06a6.29,6.29,0,0,1,2.41-1.16A7.34,7.34,0,0,0,.32,35.84C-.67,41.73,2.55,53.7,2.55,53.7Z"/><path class="cls-26" d="M2.37,32.38c-1,1.19,0,2.2,2.35,2.17s9-1.21,9.68-2.17,1-2.55.52-2.87S5.2,29.06,2.37,32.38Z"/><path class="cls-33" d="M36.63,37.55c-.89-.72-.87,2.77-.65,3.2s.58.91.82.94A3.23,3.23,0,0,0,36.63,37.55Z"/><path class="cls-8" d="M36.29,37.57a1.77,1.77,0,0,0,.07,2.27c.56.58,1.07-.05.91-1.09S36.43,37.43,36.29,37.57Z"/><path class="cls-34" d="M36,40.68s.48.45.75.37c.46-.13.75-1,.75-1a4.63,4.63,0,0,1-.51,1.8C36.52,42.42,36,40.68,36,40.68Z"/><path class="cls-33" d="M25.35,52.53c-.06.24-1.08-.33-1.23-.93s-.08-1.42.31-1.36A2.08,2.08,0,0,1,25.35,52.53Z"/><path class="cls-34" d="M24.35,52c1,.52,1-.18.86-.88a4.43,4.43,0,0,1,.3,1.83A2.14,2.14,0,0,1,24.35,52Z"/><path class="cls-8" d="M24.05,51.2c.39.94,1.1.71,1.08,0s-.74-1-.9-.87S24.05,51.2,24.05,51.2Z"/><path class="cls-32" d="M12,40.44s.27-2.59,4.7-3.64a11.35,11.35,0,0,1,7.15.3,10.21,10.21,0,0,0-6.35-.94C13.54,36.71,12.18,38.83,12,40.44Z"/><path class="cls-31" d="M37,9.74h0S31.77-1.7,17.15,1.06c-10.81,2-13,12.28-13.39,17.47C4,14,5.17,9.05,8.36,5.4S16,0,21.69,0c7,0,10.87,2.91,12.85,5.36A15.14,15.14,0,0,1,37,9.74Z"/><path class="cls-28" d="M29.93,3.67c-1.26.48,1.93,4.8,4.15,4.59S30.82,3.33,29.93,3.67Z"/><path class="cls-28" d="M26.28,1.88c-.32.28,2.19,1.67,2.51,1S27.37.94,26.28,1.88Z"/><path class="cls-8" d="M26.47,9.54a11.53,11.53,0,0,0-4.78-.88c-3.57,0-6.17,1-8,3s-2.66,2.66-3,5.7a29.87,29.87,0,0,0-.15,4.31c0,.16,0,.32,0,.47h0a16.65,16.65,0,0,1,2.17-10.76C16,5.62,24.57,8.29,26.47,9.54Z"/></g></g></g></svg>