<svg xmlns="http://www.w3.org/2000/svg" xmlns:xlink="http://www.w3.org/1999/xlink" viewBox="0 0 63.35 41.88"><defs><style>.cls-1{isolation:isolate;}.cls-2{fill:url(#Безымянный_градиент_213);}.cls-3{fill:url(#Безымянный_градиент_296);}.cls-4{fill:url(#Безымянный_градиент_300);}.cls-5{fill:#d42f55;opacity:0.3;}.cls-16,.cls-17,.cls-23,.cls-5{mix-blend-mode:multiply;}.cls-6{fill:url(#Безымянный_градиент_313);}.cls-7{fill:#8d001a;}.cls-8{fill:url(#Безымянный_градиент_140);}.cls-9{fill:url(#Безымянный_градиент_310);}.cls-10{fill:url(#Безымянный_градиент_307);}.cls-11{fill:url(#Безымянный_градиент_140-2);}.cls-12{fill:url(#Безымянный_градиент_140-3);}.cls-13{fill:#9f001a;}.cls-14{fill:url(#Безымянный_градиент_316);}.cls-15{fill:url(#Безымянный_градиент_140-4);}.cls-16{fill:#be2f55;}.cls-16,.cls-17{opacity:0.5;}.cls-17{fill:#ff6d55;}.cls-18{fill:url(#Безымянный_градиент_307-2);}.cls-19{fill:url(#Безымянный_градиент_140-5);}.cls-20{fill:url(#Безымянный_градиент_458);}.cls-21{fill:url(#Безымянный_градиент_458-2);}.cls-22,.cls-24{fill:#fff;}.cls-22,.cls-25{mix-blend-mode:soft-light;}.cls-23{fill:#e02774;opacity:0.2;}.cls-25{fill:#ff9ca1;}</style><radialGradient id="Безымянный_градиент_213" cx="12.32" cy="15.32" r="25.17" gradientUnits="userSpaceOnUse"><stop offset="0" stop-color="#ce5411"/><stop offset="1" stop-color="#b42b00"/></radialGradient><linearGradient id="Безымянный_градиент_296" x1="26.08" y1="40.42" x2="26.08" y2="2.82" gradientUnits="userSpaceOnUse"><stop offset="0" stop-color="#b42b00"/><stop offset="1" stop-color="#ce5411"/></linearGradient><linearGradient id="Безымянный_градиент_300" x1="47.84" y1="40.42" x2="47.84" y2="4.24" gradientUnits="userSpaceOnUse"><stop offset="0" stop-color="#a71100"/><stop offset="1" stop-color="#b53303"/></linearGradient><linearGradient id="Безымянный_градиент_313" x1="49.48" y1="41.8" x2="49.48" y2="2.63" gradientUnits="userSpaceOnUse"><stop offset="0.05" stop-color="#ff3f00"/><stop offset="1" stop-color="#d92e03"/></linearGradient><linearGradient id="Безымянный_градиент_140" x1="38.79" y1="41.87" x2="38.79" gradientUnits="userSpaceOnUse"><stop offset="0" stop-color="#ff9600"/><stop offset="1" stop-color="#ffa900"/></linearGradient><linearGradient id="Безымянный_градиент_310" x1="47.52" y1="41.88" x2="47.52" y2="0.22" gradientUnits="userSpaceOnUse"><stop offset="0" stop-color="#ff7c00"/><stop offset="1" stop-color="#ff6800"/></linearGradient><linearGradient id="Безымянный_градиент_307" x1="34.35" y1="22.99" x2="60.45" y2="22.99" gradientUnits="userSpaceOnUse"><stop offset="0" stop-color="#ff7a00"/><stop offset="1" stop-color="#ff6800"/></linearGradient><linearGradient id="Безымянный_градиент_140-2" x1="47.4" y1="20.99" x2="47.4" y2="20.22" xlink:href="#Безымянный_градиент_140"/><linearGradient id="Безымянный_градиент_140-3" x1="7.44" y1="41.8" x2="7.44" y2="2.63" xlink:href="#Безымянный_градиент_140"/><linearGradient id="Безымянный_градиент_316" x1="13.74" y1="41.8" x2="13.74" y2="2.46" gradientUnits="userSpaceOnUse"><stop offset="0" stop-color="#ff6400"/><stop offset="1" stop-color="#ff6800"/></linearGradient><linearGradient id="Безымянный_градиент_140-4" x1="16.27" y1="25.16" x2="16.27" y2="19.1" xlink:href="#Безымянный_градиент_140"/><linearGradient id="Безымянный_градиент_307-2" x1="36.5" y1="39.51" x2="56.64" y2="39.51" xlink:href="#Безымянный_градиент_307"/><linearGradient id="Безымянный_градиент_140-5" x1="19.46" y1="41.87" x2="19.46" y2="37.77" xlink:href="#Безымянный_градиент_140"/><linearGradient id="Безымянный_градиент_458" x1="19.14" y1="37.88" x2="19.14" y2="36.04" gradientUnits="userSpaceOnUse"><stop offset="0" stop-color="#ffde00"/><stop offset="1" stop-color="#ffe834"/></linearGradient><linearGradient id="Безымянный_градиент_458-2" x1="16.17" y1="20.45" x2="16.17" y2="18.99" xlink:href="#Безымянный_градиент_458"/></defs><g class="cls-1"><g id="Слой_2" data-name="Слой 2"><g id="layer1"><path class="cls-2" d="M7.54,39.86S-.53,20.07,3.1,10.91s24.9-8.61,29.39,0-1.9,29.51-1.9,29.51Z"/><path class="cls-3" d="M7.54,40.42h36L50,4.44s-17-4-38.81.51c0,0-8.48,2.07-9.06,10.26S7.54,40.42,7.54,40.42Z"/><path class="cls-4" d="M37,40.42S32.58,20.07,35.6,10.91s20.75-8.61,24.5,0-3.88,29-3.88,29Z"/><path class="cls-5" d="M52.7,7.44c-.79-1.11-8.63.07-9.74,1.11s-.91,26.82-.35,27.6,7.93.51,8.33.5S52.7,7.44,52.7,7.44Z"/><path class="cls-5" d="M56.06,8.39c-1.24-.12-4.36,28.52-4,28.57s2.79-.57,4.59-5.05,2.7-15.34,2.42-17.72S56.06,8.39,56.06,8.39Z"/><path class="cls-6" d="M56.75,40.44h0c-.1.29-.18.54-.25.73,0,0,0,0,0,0-.13.35-.2.56-.21.6v0l-2.64-.08v0l.21-.54c.27-.69.77-2,1.35-3.7,2.1-6,5.4-17,4.18-23.36C57.88,6.21,48.56,2.26,41.82,4.52a.53.53,0,0,0-.15.05,9.82,9.82,0,0,0-4,2.56l-.06.06c5.73-6.41,22-7.19,23.53,5C62.4,22.45,58.2,36.14,56.75,40.44Z"/><path class="cls-7" d="M40.87,5.5l.59,31.72S42.23,9.61,40.87,5.5Z"/><path class="cls-7" d="M53.32,5.91l-2,31.47S53.9,15.42,53.32,5.91Z"/><path class="cls-8" d="M34.55,41.87H30.07s-3.68-18.33-2.16-28.46C29.67,1.59,40.55-1.28,50,.47c0,0-10.41-.63-14.26,6.45S34.55,41.87,34.55,41.87Z"/><path class="cls-9" d="M62.27,27.13h0A139.26,139.26,0,0,1,59,41.8H56.28v0s.08-.25.21-.6c0,0,0,0,0,0,.07-.19.15-.44.25-.73h0c1.42-4.28,5.54-17.79,4.38-27.52-1-8.21-11.88-11.24-19.31-8.4a.53.53,0,0,0-.15.05,11.62,11.62,0,0,0-4,2.56l-.06.06a9.18,9.18,0,0,0-2.38,4.19c-2.11,8.1,0,19.8,1.45,25.84.44,1.9.81,3.8.95,4.29l.06.2-3.13.17s-5.27-17.82-1.48-31.22C37.82-6.08,62.25-.79,63.26,13.13A63,63,0,0,1,62.27,27.13Z"/><path class="cls-10" d="M34.35,20.45s15.09.49,26.1.46c0,0-.4,3.39-.55,4.25s-25.35,0-25.35,0Z"/><path class="cls-11" d="M34.35,20.45s17.21.81,26.1.46A199.81,199.81,0,0,0,34.35,20.45Z"/><path class="cls-12" d="M7.13,41.8S-1.82,25.4.34,12.85C2.12,2.46,14.88,2.63,14.88,2.63A14.68,14.68,0,0,0,5,11.08C2,18.16,10.58,41.8,10.58,41.8Z"/><path class="cls-13" d="M15.92,39.86s-6.68-15.66-5.26-26S22.07,3.31,22.07,3.31s-8.64,1.5-10.72,9.31C8.8,22.17,15.92,39.86,15.92,39.86Z"/><path class="cls-13" d="M25.43,39.86S19.77,21.08,22,11.05c2-9.23,10-8.23,10-8.23S24.49,2,22.24,12.09C19.85,22.83,25.43,39.86,25.43,39.86Z"/><path class="cls-14" d="M23.59,3.18a26.61,26.61,0,0,0-10.86-.36C6.2,3.79,3.18,11.28,4,20.66S10.58,41.8,10.58,41.8h2.49l2.81-1.94-3.43,0S4.77,25.36,6.62,13.58C8.16,3.79,23.59,3.18,23.59,3.18Z"/><path class="cls-15" d="M5.57,24.57a14.52,14.52,0,0,1-.77-4.12C5,19.2,27.54,19.1,27.54,19.1l.21,5.47S12.12,25.88,5.57,24.57Z"/><path class="cls-13" d="M14.8,24.09,15,23s-.84-1-.58-1.63A1,1,0,0,1,15.86,21c.28.32-.2,1.89-.2,1.89l.61,1.25Z"/><path class="cls-16" d="M3.94,15.83a21.65,21.65,0,0,0,2.48,4S6.36,13,9.32,9.26,21.45,3.31,21.45,3.31s-5.57-2.12-10.77.38S3.94,15.83,3.94,15.83Z"/><path class="cls-16" d="M34.38,17.43C34.56,18.32,36.8,8,48.16,8S58.94,16.65,60.45,17,62.36,7.3,54.61,4.87s-14-.73-17.09,2.4S34.38,17.43,34.38,17.43Z"/><path class="cls-16" d="M35.16,29.36c0-3,17.65-2.9,19.87-3.18s2.5,4.62,3.54,3.18a10.83,10.83,0,0,0,1.33-4.2s-10.36.1-25.35,0Z"/><path class="cls-17" d="M37.68,41.71s-2.28.13-3.13-.6-3.5-15.86-2.7-23.31S36.44,4.1,38.79,3s-2,2.19-3.89,8.14S33.79,32.15,37.68,41.71Z"/><path class="cls-18" d="M56.36,41.16c0,.33-.07.56-.07.62v0l-2.63-.1L38,41.72h-.32l-.06-.2L36.5,37.22h.17c1.62,0,14.36.12,18.54.24a12.34,12.34,0,0,1,1.33.07C56.78,37.65,56.51,40,56.36,41.16Z"/><path class="cls-19" d="M8.84,37.88c.59-.25,20.59,0,20.59,0l.64,4L10.58,41.8Z"/><path class="cls-20" d="M8.84,37.88,11,36.8A51.69,51.69,0,0,0,29.13,36l.3,1.84Z"/><path class="cls-21" d="M4.8,20.45l1.62-.62s14.32-1.2,21.12-.73C27.54,19.1,14.9,20.4,4.8,20.45Z"/><path class="cls-16" d="M5.57,24.57s2,4.47,2.79,5.05,0-2.89,8.92-3.44,10.86,2.65,10.86,2.65l-.39-4.26S13.37,25.12,5.57,24.57Z"/><path class="cls-22" d="M28.41,12.44c-.16,1.35,3.06.72,3.51.48s2.71-6.42,3.26-7.43-2.57-.37-3.48.14S28.79,9.21,28.41,12.44Z"/><path class="cls-22" d="M3.6,14.47c-.21.93-3.52.47-3.52.47S.81,9.75,2.3,8.11s3.17-2.26,3.87-2S4.64,9.83,3.6,14.47Z"/><path class="cls-23" d="M.08,15.61a29.14,29.14,0,0,0,.34,5.16c.26.46,2.71.75,3.18.57s.1-5.31,0-5.73S.08,15.61.08,15.61Z"/><path class="cls-23" d="M28.74,13.28c-.8-.09-.47,4.6-.6,5.13s2.48.43,2.74.27a14.93,14.93,0,0,0,.82-4.89C31.5,13.06,28.74,13.28,28.74,13.28Z"/><path class="cls-23" d="M27.18,19.72c-.11-.57-8.64.62-9.47.88s-1.45,3.74-.85,4a91.39,91.39,0,0,0,10.68-.46A32,32,0,0,0,27.18,19.72Z"/><path class="cls-17" d="M34.58,21.34c.26-.91,15.66-.07,17.28.64s.52,2.58,0,2.9-16.88.21-17.08,0A21.17,21.17,0,0,1,34.58,21.34Z"/><path class="cls-24" d="M34.35,7c-.07-1.39-3.47,1.39-3.4,3.58s2.12.07,2.12.07Z"/><path class="cls-24" d="M5.57,8.69c.51-2.55-3.15,2.57-3.15,4.23S4.62,13.41,5.57,8.69Z"/><path class="cls-24" d="M6.17,20.44C5,20.77,8.08,22.2,9.26,22.21s3.19-2,3.19-2Z"/><path class="cls-24" d="M21.09,37.88c-1.2-.63,4.89-1.44,6-1.13A4.07,4.07,0,0,1,29,38.15Z"/><path class="cls-16" d="M6.12,39.78s1.18,1.95,11.12,1.65,17.31-.32,17.31-.32l3.36.61-3.36.15L7.13,41.8Z"/><path class="cls-16" d="M57.53,30.66s-2.44,5.1-3.54,5.72-15.19,0-16.47,0-1.7-3.16-1.7-3.16l.68,4,19.26.2Z"/><path class="cls-25" d="M11.05,14c-.15,1.33,9.47-.65,9.94-1.53s4.06-7.65,5.36-8.77S19.71,3.55,17.55,5,11.59,9.24,11.05,14Z"/><path class="cls-25" d="M22.6,12.07c-.05,1.2,3.39.52,4.06.21s4.22-7.25,6-8.56-5.38-.23-7,1.57S22.6,12.07,22.6,12.07Z"/><path class="cls-25" d="M10.66,13.86c-1.34.66-3.08.26-3.3-.58S9.89,7.93,12.9,6.53,11.25,7.41,10.66,13.86Z"/><path class="cls-16" d="M62.27,27.13A139.26,139.26,0,0,1,59,41.8H56.28l-2.64-.08v0L38,41.72l18.37-.56.13,0a15.63,15.63,0,0,0,2.28.14C59.15,41.22,62.19,27.47,62.27,27.13Z"/><path class="cls-16" d="M8.84,37.88S6.46,31,6.67,30.24s3.7,5.35,5.26,6.09,6.45.89,6.45.89-6.44-.1-7.36-.42S8.84,37.88,8.84,37.88Z"/><path class="cls-5" d="M15.62,36.68c-.85.12-2.55-8.41-1.88-9.29s6.52-.18,7.71.46,2.4,8.4,2.14,8.83S16.46,36.56,15.62,36.68Z"/><path class="cls-5" d="M24,27.39c-.83-.12.78,8.36,1.25,8.65s3.19,0,3.44-.75a21.21,21.21,0,0,0-.89-6.4C27.32,28,24,27.39,24,27.39Z"/><path class="cls-23" d="M6.1,24.41c-.25-1,2.67-1.94,4.72-1.67a4.7,4.7,0,0,1,3.09,1.89Z"/><path class="cls-24" d="M3.71,31.42c.31-1.54,1.11.74,1.14,1.47S3.32,33.26,3.71,31.42Z"/></g></g></g></svg>