<svg xmlns="http://www.w3.org/2000/svg" xmlns:xlink="http://www.w3.org/1999/xlink" viewBox="0 0 37.78 58.1"><defs><style>.cls-1{isolation:isolate;}.cls-2{fill:url(#Безымянный_градиент_480);}.cls-3{fill:#ff9274;}.cls-16,.cls-3,.cls-5,.cls-6,.cls-7,.cls-9{mix-blend-mode:multiply;}.cls-16,.cls-17,.cls-3{opacity:0.5;}.cls-4{fill:#ffd636;}.cls-5{fill:#d60066;opacity:0.3;}.cls-6{fill:#ea4c74;}.cls-6,.cls-9{opacity:0.2;}.cls-7{fill:#d42f55;opacity:0.8;}.cls-8{fill:#d84c04;}.cls-9{fill:#ef7a98;}.cls-10{fill:url(#Безымянный_градиент_458);}.cls-11{fill:url(#Безымянный_градиент_458-2);}.cls-12{fill:url(#Безымянный_градиент_458-3);}.cls-13{fill:url(#Безымянный_градиент_458-4);}.cls-14,.cls-18{fill:#fff;}.cls-14{mix-blend-mode:soft-light;}.cls-15{fill:#ffe7db;}.cls-16{fill:#d42774;}.cls-17{fill:#ffb311;mix-blend-mode:screen;}</style><linearGradient id="Безымянный_градиент_480" x1="18.89" y1="58.1" x2="18.89" y2="0.05" gradientUnits="userSpaceOnUse"><stop offset="0" stop-color="#ffa200"/><stop offset="1" stop-color="#ffb82f"/></linearGradient><linearGradient id="Безымянный_градиент_458" x1="15.97" y1="20.24" x2="25.03" y2="20.24" gradientUnits="userSpaceOnUse"><stop offset="0" stop-color="#ffde00"/><stop offset="1" stop-color="#ffe834"/></linearGradient><linearGradient id="Безымянный_градиент_458-2" x1="26.11" y1="20.98" x2="31.14" y2="20.98" xlink:href="#Безымянный_градиент_458"/><linearGradient id="Безымянный_градиент_458-3" x1="32.82" y1="23.04" x2="34.43" y2="23.04" xlink:href="#Безымянный_градиент_458"/><linearGradient id="Безымянный_градиент_458-4" x1="0.14" y1="1.8" x2="8.05" y2="1.8" xlink:href="#Безымянный_градиент_458"/></defs><g class="cls-1"><g id="Слой_2" data-name="Слой 2"><g id="layer1"><path class="cls-2" d="M23.86,58.1c-4.56,0-5.91-1.42-5.19-3.2.11-.22.24-.45.36-.68,0,0,0,0,0,0a23.56,23.56,0,0,0,1.05-2.44c2.91-8.14-8.12-6.18-12-7-2-.44-3.88-3-5.31-5.74l0,0a29,29,0,0,1-2.53-6.5C.07,31.62.82,30.36,1.89,29c1.81-2.27,4.54-4.76,5.23-5.75A1,1,0,0,0,7.28,23C7.36,22,5.71,17.7,4,16.8,2.44,16-.39,8.14,0,4a4.39,4.39,0,0,1,.44-1.6C2.23-.8,7.52-.16,8.34,1s.26,8.24,4.22,12.71c0,0,2.29,5.05,3.41,5.56s5.58-.32,7.88,1.3c1.14.81,2.91.19,4.68.11a7.3,7.3,0,0,1,3.29,1.12h0a5.5,5.5,0,0,0,1.7.66c.92.1,1.38,2.24,1.55,5.16,0,0,0,.08,0,.14,0,.88.08,1.82.08,2.81v.11a88.43,88.43,0,0,1-1,13.35,3.53,3.53,0,0,0,0,.8A9.31,9.31,0,0,0,35.93,49h0c.42.62.87,1.25,1.35,1.88C40.29,54.66,29,58.1,23.86,58.1Z"/><path class="cls-3" d="M2.23,2.13C.82,3.2,2.62,9.5,4.6,10.28A3.14,3.14,0,0,0,9,8.12c.32-1.87-.45-6.33-1.1-6.78S3.85.9,2.23,2.13Z"/><path class="cls-4" d="M2.44,7.2a6.2,6.2,0,0,0,2,2.86c1.38,1,4.05.78,4.65,0,1.08-1.46,0-4.21,0-4.21s.43,2.29-.55,3.32S4.28,11,2.44,7.2Z"/><path class="cls-5" d="M7.89,30.53s-1.39-.38-1.32-.67S5.78,25.72,1.89,29C4,26.44,7.23,23.56,7.28,23A47.74,47.74,0,0,1,7.89,30.53Z"/><path class="cls-6" d="M12.82,14.25c-2.32-3.53-6.17-1.36-5.65,2.4s3.24,4.79,6.35,4.13S13.71,15.59,12.82,14.25Z"/><path class="cls-7" d="M20.09,51.76c2.91-8.14-8.12-6.18-12-7-2-.44-3.88-3-5.31-5.74,2,3.18,3.91,6.06,15,5.84,10.36-.21,2.53,8.11,1.3,9.39A23.56,23.56,0,0,0,20.09,51.76Z"/><path class="cls-8" d="M23.86,58.1c-4.56,0-5.91-1.42-5.19-3.2a2.8,2.8,0,0,1,.36-.68s0,0,0,0c6.23-9.46,15.25-7.18,18.24-3.36S29,58.1,23.86,58.1Z"/><path class="cls-9" d="M34.63,30.54v.11a90,90,0,0,1-1,13.35,3,3,0,0,0,0,.8c-1.52.79.79-1.06-8-.39S11.63,25.12,11.63,25.12c1-2.31,2.09-4.34,5.58-3.71a33.6,33.6,0,0,0,7.19.83c3.65,0,5.2.14,7.11,1.13a6.07,6.07,0,0,1,3,4.22C34.56,27.84,34.61,29,34.63,30.54Z"/><path class="cls-10" d="M16,19.24A32.58,32.58,0,0,0,20.89,21c2.37.56,4.65.09,4,0s-2.37-1.23-4-1.35Z"/><path class="cls-11" d="M26.16,20.91c-.59,0,3.75.19,4.7.52s-.67-.79-1.75-.94A9.22,9.22,0,0,0,26.16,20.91Z"/><path class="cls-12" d="M33,22.29c-.61,0,.76.59,1.24,1.31s.1-.8-.29-1A6.54,6.54,0,0,0,33,22.29Z"/><path class="cls-13" d="M.16,3.29C0,4.52,1.57,1.79,3.78.84A6.05,6.05,0,0,1,8.05.71S7.16-.22,4.23.05A4.4,4.4,0,0,0,.16,3.29Z"/><path class="cls-14" d="M4.6,9.63C3.2,9.2,7.37,6.26,8.51,7.88S7.2,10.43,4.6,9.63Z"/><path class="cls-15" d="M1.89,3.08a10.15,10.15,0,0,1,3.5-1.65,3.81,3.81,0,0,1,2.92.69s-.08-.81-.42-1c-.88-.62-5.14.3-5.66.75A1.41,1.41,0,0,0,1.89,3.08Z"/><path class="cls-16" d="M1.86,2.54s-.35,4,2.23,6.12S8.75,9.2,9,8.12a17.79,17.79,0,0,0-.2-4S9.53,7.5,9,8.66A3.59,3.59,0,0,1,4.31,9.72C2.64,8.66,1.34,5.13,1.86,2.54Z"/><path class="cls-17" d="M7.12,12.46c-.59,1.14,2.13,0,3.31,0s.41-1.73-1.44-1.58S7.12,12.46,7.12,12.46Z"/><path class="cls-7" d="M7.89,30.53c-.28-.08-1.54-.15-1.32-.67s.93-.63,1-1.32.15-4-1.53-4.07C6.18,24.33,7.27,23,7.28,23,7.36,22,5.71,17.7,4,16.8,2.44,16-.39,8.14,0,4c.3-.44,1.07,8.7,3.4,11.65s3.83,4.1,4.45,6.63S8.16,30.61,7.89,30.53Z"/><path class="cls-5" d="M8.1,44.71c-2-1.11,2.21-3.73,7.87-3.1s7.29,4.8,5.79,5.51-1.54-.76-5.79-1.74A28.26,28.26,0,0,0,8.1,44.71Z"/><path class="cls-7" d="M34.64,34.94c.31-5.8-.75-11.68-2.81-13.17a5.5,5.5,0,0,0,1.7.66c.92.1,1.38,2.24,1.55,5.16,0,0,0,.08,0,.14,0,.88.08,1.82.08,2.81v.11a88.43,88.43,0,0,1-1,13.35,3.53,3.53,0,0,0,0,.8A9.31,9.31,0,0,0,35.93,49c-.14-.16-2.36-2.72-2.31-3.69S34.32,40.75,34.64,34.94Z"/><path class="cls-17" d="M23.41,49.24c-.86.16.63-3.46,3.87-4.62s7.26,2.53,7.35,3.33-3.36-.79-5.9-.42A21.94,21.94,0,0,0,23.41,49.24Z"/><path class="cls-18" d="M25.79,48.31c-1.37.34,0-1.71,1.86-2.05s3.06,1.1,2.57,1.24S27.57,47.87,25.79,48.31Z"/><path class="cls-18" d="M17.7,20c-1.17.2,1.93,1.46,3.19,1.48S21.31,19.32,17.7,20Z"/><path class="cls-18" d="M26.16,20.91c-.86.12.44.82,1.56.52S27.64,20.7,26.16,20.91Z"/><path class="cls-17" d="M.65,32.07C1,33.29,5.5,29.89,5.09,28.3S-.13,29.44.65,32.07Z"/><path class="cls-9" d="M18.89,23c-.64.06,2.3,8.9,3.4,10.05S22.61,22.58,18.89,23Z"/><path class="cls-9" d="M26.11,23.79c-1,0,0,7.21.68,7.35S27.43,23.76,26.11,23.79Z"/><path class="cls-9" d="M31.83,24.66c-.66.15-1.17,4.9,0,5.47S32.79,24.44,31.83,24.66Z"/><path class="cls-6" d="M1,33.9C.89,32.3,4,31.14,5.46,31.14s4.75,9.23,4.08,10.37S7,43.87,6,43.48,1.93,37.11,1,33.9Z"/><path class="cls-5" d="M19.44,53.77c-1.05,3.46,9.76,3.38,12.44.78s.59-5.22,3.28-4.77S32.1,46.33,27.26,48A18,18,0,0,0,19.44,53.77Z"/></g></g></g></svg>