<svg xmlns="http://www.w3.org/2000/svg" xmlns:xlink="http://www.w3.org/1999/xlink" viewBox="0 0 54.25 50.63"><defs><style>.cls-1{isolation:isolate;}.cls-2{fill:url(#Безымянный_градиент_704);}.cls-3,.cls-7{fill:#d42774;}.cls-10,.cls-12,.cls-13,.cls-15,.cls-20,.cls-3,.cls-7,.cls-8,.cls-9{mix-blend-mode:multiply;}.cls-3{opacity:0.3;}.cls-4{fill:url(#Безымянный_градиент_702);}.cls-5{fill:url(#Безымянный_градиент_717);}.cls-6{fill:url(#Безымянный_градиент_717-2);}.cls-15,.cls-7{opacity:0.5;}.cls-8{fill:#ba0066;}.cls-10,.cls-8,.cls-9{opacity:0.8;}.cls-9{fill:#920066;}.cls-10,.cls-13{fill:#a40066;}.cls-11{fill:#ff8390;mix-blend-mode:screen;opacity:0.92;}.cls-12{fill:#f14f74;opacity:0.2;}.cls-13,.cls-20{opacity:0.6;}.cls-14{fill:#ffa190;}.cls-15{fill:#e82774;}.cls-16{fill:#ff896f;}.cls-17{fill:#fff;}.cls-18{fill:#ff7577;}.cls-19{fill:#ff8d93;}.cls-20{fill:#d13966;}</style><linearGradient id="Безымянный_градиент_704" x1="27.12" y1="50.63" x2="27.12" gradientUnits="userSpaceOnUse"><stop offset="0" stop-color="#ffb6ca"/><stop offset="1" stop-color="#ffddc7"/></linearGradient><linearGradient id="Безымянный_градиент_702" x1="12.85" y1="34.02" x2="12.85" y2="25.84" gradientUnits="userSpaceOnUse"><stop offset="0" stop-color="#eb5e63"/><stop offset="1" stop-color="#c20631"/></linearGradient><linearGradient id="Безымянный_градиент_717" x1="10.33" y1="25.36" x2="10.33" y2="12.03" gradientUnits="userSpaceOnUse"><stop offset="0" stop-color="#fe6a5b"/><stop offset="1" stop-color="#a60031"/></linearGradient><linearGradient id="Безымянный_градиент_717-2" x1="27.87" y1="28.39" x2="27.87" y2="8.86" xlink:href="#Безымянный_градиент_717"/></defs><g class="cls-1"><g id="Слой_2" data-name="Слой 2"><g id="layer1"><path class="cls-2" d="M54.23,25.33a28.8,28.8,0,0,1-.63,5.53h0c-.71,3.24-2,5.53-3.64,6-4.05,1-8.37.28-12.19-1a6.9,6.9,0,0,0-5.91.43,12.8,12.8,0,0,0-2.28,1.89c-.2.08-.19,2.79-.17,5.57h0c0,.57,0,1.14,0,1.69a20.39,20.39,0,0,1-.19,4.32h0c-.44.4-5.3.65-6.09,0a1.26,1.26,0,0,1-.26-.65v0a31.83,31.83,0,0,1,.19-7.33v0c0-.07,0-.12.05-.15v0s0,0,0,0a3.83,3.83,0,0,0-2.65,0c-.79.37-1.05,5.66-1.39,7.54-.06.38-.13.62-.21.66a13.69,13.69,0,0,1-1.95.26C12.09,50.49,0,51.23,0,49.75a2,2,0,0,1,.06-.44c.37-1.79,2.55-6.25,3.69-9a8.31,8.31,0,0,0,.67-2.14h0c0-.7-1.25-2.32-2.27-4.09s-1.78-3.65-.88-4.92C3.06,26.6,7.37,27,8.06,19.94c.29-3,0-11.76,2.35-13.92S33.53-4.57,45.3,3.29c3.86,2.58,6.3,6.92,7.64,11.64h0A35.45,35.45,0,0,1,54.23,25.33Z"/><path class="cls-3" d="M9.31,25.07C8.1,25,6.86,32.2,7.61,33.67s6.75.19,9.89.29S14.78,25.34,9.31,25.07Z"/><path class="cls-3" d="M24.68,28.18c-5.52-.69-7.52-4.84-8-14.9S20,1.12,32.09,7.26,39.78,30.07,24.68,28.18Z"/><path class="cls-3" d="M4.78,26.8c-1.29,1.16,4.3-2.3,4.3-2.3a8.18,8.18,0,0,0,4.79-6.57c.68-5-.38-10.64-3.54-11.32-1.34-.29-2.05,6-2.1,10.59S7,24.78,4.78,26.8Z"/><path class="cls-4" d="M8.22,33.9c-1.29-.56.27-5.67.9-7.67S17.4,30.47,17.93,32s-3.35,1.89-4.18,1.77-1.35-1.18-1.65-1.06.3.75.06,1.08S8.51,34,8.22,33.9Z"/><path class="cls-5" d="M10,23.67c2.5-1.85,4.09-8.11,2.2-11.11S9,20.2,7.9,23.67,9.16,24.29,10,23.67Z"/><path class="cls-6" d="M19.1,23.67c-2-3.36-1.27-9.61,1.38-13.4s12.93.52,16.62,7.84S28.33,29.36,24.68,28.18A9.14,9.14,0,0,1,19.1,23.67Z"/><path class="cls-7" d="M41.17,17.46a41.79,41.79,0,0,0,1.44,7.93c1.18,4,8.46,3,9.26,1.41S44.7,26.74,41.17,17.46Z"/><path class="cls-8" d="M29.58,10.61c-7.09-3.14-10.21,8.35-8.23,14s16.37,2,15.74-3.92A12.6,12.6,0,0,0,29.58,10.61Z"/><path class="cls-8" d="M13.05,16c-1.78-3-3.49,8.1-3.49,8.1S12.48,22.56,13.05,16Z"/><path class="cls-9" d="M12.85,43.47a.13.13,0,0,1,0-.06A.28.28,0,0,0,12.85,43.47Z"/><path class="cls-9" d="M23.05,41.72c0-.07,0-.12.05-.15Z"/><path class="cls-7" d="M29.58,38.16c0,.53-.08,3-.17,5.57h0c-.09,3-.19,6-.19,6-1.65-.09-1.34-6.87-1.34-6.87s-2.25-6.17-4.75-1.36a3.83,3.83,0,0,0-2.65,0c-1,.44-1.14,7.94-1.6,8.2a13.69,13.69,0,0,1-1.95.26,2.17,2.17,0,0,1-.27-.26c-1.56-1.76,2.09-9-1.4-9.18-1.95-.11-2.33,2.57-2.4,2.84.24-1.84-3.07-4.46-4-3.56s-1.77,3.92-1.66,3.53.35-4.84-1.81-4.74c-.68,0-1.07,1.42-1.6,1.66a8.31,8.31,0,0,0,.67-2.14h0A18.94,18.94,0,0,0,8,39c.94.12.89-.19,2.3,0,.85.11,1.91.22,3.11.44a25.59,25.59,0,0,0,6.06.67C25.29,39.26,29.61,37,29.58,38.16Z"/><path class="cls-10" d="M19.09,49.09c-.06.38-.13.62-.21.66a13.69,13.69,0,0,1-1.95.26C12.09,50.49,0,51.23,0,49.75a2,2,0,0,1,.06-.44l.26-.08c.35,1,10.33,2,16.06,0A8.17,8.17,0,0,1,19.09,49.09Z"/><path class="cls-10" d="M29.23,49.75h0c-.44.4-5.3.65-6.09,0a1.26,1.26,0,0,1-.26-.65v-.05c.6,1.81,5-.93,5.31-.46A8.31,8.31,0,0,0,29.23,49.75Z"/><path class="cls-11" d="M9.86,24.85c-.29-.13,2.54-2.7,4.28-3.83s4.43,5.84,7.57,7.89c2.62,1.72-2.41,1-8.27-2.25A33.35,33.35,0,0,0,9.86,24.85Z"/><path class="cls-3" d="M53.6,30.86c-.71,3.24-2,5.53-3.64,6-4.05,1-8.37.28-12.19-1C32.44,34.09,30,38,29.58,38.16c-.2.08-.19,2.79-.17,5.57h0c0,.57,0,1.14,0,1.69h0s-.35-7.26-.47-8-3.31-2.16-2.89-5.1,8.78,2.94,16.89,3.93C50.89,37.24,53.5,31.1,53.6,30.86Z"/><path class="cls-12" d="M43.23,26.54c-2.06-1.23-1.51-13.39-2.84-15.75s-4.58-4.55-2.62-6.33S49.16,6.93,53,14.94,51.92,31.75,43.23,26.54Z"/><path class="cls-3" d="M40.39,10.79c-.65-2.74-2.62-2.48-2.62-5.1S43.35,5.17,44.94,7s-3,2.16-3.58,1.86S40.39,10.79,40.39,10.79Z"/><path class="cls-11" d="M12.19,5.43c-.43.72,1.54,1.44,2.78,1.31s1.82-2.86,6.89-3.45,13.5,5,16.37,8.29.67-3-1.13-6.08,6,.06,8.17-.46S41.15-.51,31.1,0A50.26,50.26,0,0,0,12.19,5.43Z"/><path class="cls-7" d="M.88,30.39c1.32,3.76,2.38.53,4.41-1.62s-.87,9.39-.87,9.39S.79,32.41.88,30.39Z"/><path class="cls-13" d="M54.23,25.33a28.8,28.8,0,0,1-.63,5.53h0c-.71,3.24-2,5.53-3.64,6-4.05,1-8.37.28-12.19-1a6.9,6.9,0,0,0-5.91.43s.36-3.18,1-2.94,8.22,3.21,11.47,2.94,9.92-11,9.92-11Z"/><path class="cls-11" d="M31.08,28.2C28.22,29,38.23,35,42.65,35.43S51,30,51.66,29.1s-7.45-.46-9-2.06-1-7.52-2.46-7.29S39.7,25.66,31.08,28.2Z"/><path class="cls-14" d="M20.67,25.81a9,9,0,0,0,4.82,2.91c3.23.78,8-2.12,9-2.91A16.44,16.44,0,0,1,26,28.2C22.87,28.08,21.68,26.2,20.67,25.81Z"/><path class="cls-7" d="M20.29,41.75s-.82-1.55-1.71-1.5-1.64-.32-1.78,2.06.11,5.2.94,6.22,1.32-1.48,1.86-3.68S20.29,41.75,20.29,41.75Z"/><path class="cls-7" d="M22.86,12.49c-.29.84-3.34,6.15-4.28,5.49s1.13-7.24,3-8.65,6.8.55,6.94.75A7.78,7.78,0,0,0,22.86,12.49Z"/><path class="cls-7" d="M13.05,16c-.41-.1-.42-.66-1.1-.25s-2.2,4.13-2.39,4.2S9.47,14.42,11,12.82,13.05,16,13.05,16Z"/><path class="cls-10" d="M27.09,10.22c-3.17.15-4.28,12,.78,15.09S37.19,22.1,37,19.75,30.91,10,27.09,10.22Z"/><path class="cls-10" d="M13,17.38c-1-2.73-2.64,6-2.64,6S12.18,21.88,13,17.38Z"/><path class="cls-3" d="M22.68,3.86c-5.17.2,1.42,3,8,7.31s8.16,4.33,8.08,4S37.4,6.81,22.68,3.86Z"/><path class="cls-3" d="M10.33,6.61c-1.32.64-1.06,4.84,0,5.15s2.72-.14,3.16,2.69S14.54,6.85,10.33,6.61Z"/><path class="cls-15" d="M52.94,14.93C52.66,14.49,43.68.55,34.9.09s-21.08,3.61-24,6.52-1.71,6.31-1.93,8.7-1.19,10-1.76,10.36-5,2.56-5.54,3.79c-.45,1.08.33,3.91.53,4.61-1-1.76-1.78-3.65-.88-4.92C3.06,26.6,7.37,27,8.06,19.94c.29-3,0-11.76,2.35-13.92S33.53-4.57,45.3,3.29C49.16,5.87,51.6,10.21,52.94,14.93Z"/><path class="cls-11" d="M10.08,39.84c-1.95-.61-4.3,8.22-4.4,9.5s1.72-5.52,2.55-6.5S9.48,46,11.31,45.63,13.54,40.91,10.08,39.84Z"/><path class="cls-11" d="M6.6,39.81c-1.57-2.15-3,.38-4.69,4.7S.11,49.68,2.28,50s5.1-4.28,4.88-7.07S6.6,39.81,6.6,39.81Z"/><path class="cls-8" d="M12.85,32.32a3.65,3.65,0,0,1,1.93-1c.56,0,2.17.61,2.69.38s-5.76-5.76-7.32-5.81c-.16,0-1.31,7.7-.61,7.92a5,5,0,0,0,2.62,0c.24-.23-.2-.9-.06-1.08S12.5,32.64,12.85,32.32Z"/><path class="cls-16" d="M12.1,32.71a5.09,5.09,0,0,1,2.68-1.41Z"/><path class="cls-7" d="M4.37,39a2.32,2.32,0,0,1,1.31-.48c.85-.08.1.44,3.16.48s4.49,1.83,4.39,2.29-2.94-1.51-3.9-1.65-1.07,1.61-1.61,1.72S7.66,39.69,6.35,39,4.37,39,4.37,39Z"/><path class="cls-11" d="M19.47,33.33c-.32.41-3.27,2-4.12,4s4.41,3.24,9.53,1.64-.11-4-.18-6.22S19.47,33.33,19.47,33.33Z"/><path class="cls-17" d="M10.39,25.23c-1.29-.09,2.21-.88,3-.42s1.2,2.06.66,2.06S11.69,25.32,10.39,25.23Z"/><path class="cls-17" d="M35.15,7C33.68,6.85,36,9.72,37,10.08S39.44,7.44,35.15,7Z"/><path class="cls-13" d="M42.85,26.16c-.78-3.51,1.92-1.76,4.48,0S45.76,29.49,42.85,26.16Z"/><path class="cls-18" d="M31.77,2.68c-2.72.17.57,2,2,2.35S35.56,2.43,31.77,2.68Z"/><path class="cls-13" d="M31.24,3c-.61.42.91,1.32,1.51,1.49S34.14,3.8,34,3.29,31.72,2.64,31.24,3Z"/><path class="cls-19" d="M36.28,28.58c-1.72-.45.1-2.79,1.12-3.37s2.5,1.19,2.35,1.86C39.36,28.78,36.94,28.75,36.28,28.58Z"/><path class="cls-20" d="M35.56,28.05c0,.25.21-.67,1.15-1s2.46-.05,2.6-.22c.29-.37-.57-1.66-1.41-1.73S35.46,26.83,35.56,28.05Z"/><path class="cls-17" d="M35.69,28.2a4.48,4.48,0,0,0,2.3.36,2.49,2.49,0,0,0,1.74-1.78c.07-.08.64,1.41-1.45,2S35.69,28.2,35.69,28.2Z"/></g></g></g></svg>