<svg xmlns="http://www.w3.org/2000/svg" xmlns:xlink="http://www.w3.org/1999/xlink" viewBox="0 0 43.41 66.35"><defs><style>.cls-1{isolation:isolate;}.cls-2{fill:url(#Безымянный_градиент_432);}.cls-3{fill:url(#Безымянный_градиент_423);}.cls-4{fill:#ebc3d3;}.cls-5,.cls-6{fill:#9a376d;}.cls-12,.cls-16,.cls-19,.cls-22,.cls-25,.cls-28,.cls-31,.cls-37,.cls-38,.cls-5,.cls-6{mix-blend-mode:multiply;}.cls-12,.cls-14,.cls-20,.cls-37,.cls-5{opacity:0.5;}.cls-16,.cls-24,.cls-25,.cls-38,.cls-6{opacity:0.3;}.cls-7{opacity:0.45;fill:url(#Безымянный_градиент_375);}.cls-14,.cls-24,.cls-8,.cls-9{fill:#fff;}.cls-14,.cls-24,.cls-29,.cls-30,.cls-34,.cls-9{mix-blend-mode:soft-light;}.cls-10{fill:url(#Безымянный_градиент_375-2);}.cls-11{fill:#ff7a00;}.cls-12{fill:#b10053;}.cls-13{fill:#97001a;}.cls-15{fill:#ffa457;}.cls-16,.cls-19{fill:#d42f55;}.cls-17{fill:#ff6500;}.cls-18{fill:#e23100;}.cls-19{opacity:0.8;}.cls-20{fill:url(#Безымянный_градиент_11);}.cls-21{fill:url(#Безымянный_градиент_86);}.cls-22{fill:#9a7aff;}.cls-22,.cls-28{opacity:0.2;}.cls-23{fill:url(#Безымянный_градиент_98);}.cls-25{fill:#9a3792;}.cls-26{mix-blend-mode:screen;fill:url(#Безымянный_градиент_43);}.cls-27{fill:#ff81bf;}.cls-28,.cls-31{fill:#de0098;}.cls-29{fill:#ff83ff;}.cls-30{fill:#75ffff;}.cls-31{opacity:0.4;}.cls-32{fill:url(#Безымянный_градиент_65);}.cls-33{fill:url(#Безымянный_градиент_65-2);}.cls-34{fill:#ffb192;opacity:0.6;}.cls-35{fill:#cf4060;}.cls-36{fill:#ffbdb3;}.cls-37{fill:#ffb4ba;}.cls-38{fill:#f96fff;}.cls-39{fill:#ff0064;}.cls-40{fill:#ffc4b6;}.cls-41{fill:url(#Безымянный_градиент_65-3);}</style><linearGradient id="Безымянный_градиент_432" x1="23.85" y1="67.66" x2="23.85" y2="24.78" gradientTransform="translate(-1.8 -1.8) rotate(1.21)" gradientUnits="userSpaceOnUse"><stop offset="0" stop-color="#e8e5ed"/><stop offset="0.05" stop-color="#e5ddea"/><stop offset="0.28" stop-color="#dabbdc"/><stop offset="0.46" stop-color="#d3a7d4"/><stop offset="0.59" stop-color="#d19fd1"/><stop offset="0.64" stop-color="#be92c3"/><stop offset="0.72" stop-color="#a57fb0"/><stop offset="0.81" stop-color="#9272a3"/><stop offset="0.9" stop-color="#886b9b"/><stop offset="1" stop-color="#846898"/></linearGradient><linearGradient id="Безымянный_градиент_423" x1="12.5" y1="20.68" x2="34.53" y2="20.68" gradientTransform="translate(-1.8 -1.8) rotate(1.21)" gradientUnits="userSpaceOnUse"><stop offset="0" stop-color="#9082a9"/><stop offset="0.22" stop-color="#9386ab"/><stop offset="0.42" stop-color="#9d90b3"/><stop offset="0.6" stop-color="#ada3c0"/><stop offset="0.79" stop-color="#c4bcd1"/><stop offset="0.96" stop-color="#e1dde8"/><stop offset="1" stop-color="#e8e5ed"/></linearGradient><linearGradient id="Безымянный_градиент_375" x1="17.17" y1="21.3" x2="30.18" y2="21.3" gradientTransform="translate(-1.8 -1.8) rotate(1.21)" gradientUnits="userSpaceOnUse"><stop offset="0" stop-color="#a71100"/><stop offset="0.39" stop-color="#d83303"/><stop offset="1" stop-color="#ec5c11"/></linearGradient><linearGradient id="Безымянный_градиент_375-2" x1="14.68" y1="9.85" x2="34.92" y2="9.85" xlink:href="#Безымянный_градиент_375"/><radialGradient id="Безымянный_градиент_11" cx="23.65" cy="49.08" r="20.21" gradientTransform="translate(-1.8 -1.8) rotate(1.21)" gradientUnits="userSpaceOnUse"><stop offset="0" stop-color="#e8e5ed"/><stop offset="0.14" stop-color="#e3dde3"/><stop offset="0.42" stop-color="#dbd1d5"/><stop offset="0.66" stop-color="#d8cdd0"/><stop offset="0.68" stop-color="#d4c5ce"/><stop offset="0.75" stop-color="#c7acc9"/><stop offset="0.83" stop-color="#be99c5"/><stop offset="0.91" stop-color="#b98fc3"/><stop offset="1" stop-color="#b78bc2"/></radialGradient><linearGradient id="Безымянный_градиент_86" x1="23.55" y1="63.9" x2="23.55" y2="36.98" gradientTransform="translate(-1.8 -1.8) rotate(1.21)" gradientUnits="userSpaceOnUse"><stop offset="0" stop-color="#ff8d7e"/><stop offset="0.32" stop-color="#ff131a"/><stop offset="1" stop-color="#c50042"/></linearGradient><linearGradient id="Безымянный_градиент_98" x1="8.55" y1="40.19" x2="39.8" y2="40.19" gradientTransform="translate(-1.8 -1.8) rotate(1.21)" gradientUnits="userSpaceOnUse"><stop offset="0" stop-color="#ff6154"/><stop offset="1" stop-color="#ff5b9d"/></linearGradient><linearGradient id="Безымянный_градиент_43" x1="5.53" y1="44.87" x2="17.93" y2="44.87" gradientTransform="translate(-1.8 -1.8) rotate(1.21)" gradientUnits="userSpaceOnUse"><stop offset="0.02" stop-color="#008dfe"/><stop offset="1"/></linearGradient><linearGradient id="Безымянный_градиент_65" x1="17.2" y1="26.78" x2="30.79" y2="26.78" gradientTransform="translate(-1.8 -1.8) rotate(1.21)" gradientUnits="userSpaceOnUse"><stop offset="0" stop-color="#5b1833"/><stop offset="1" stop-color="#6d2948"/></linearGradient><linearGradient id="Безымянный_градиент_65-2" x1="17.05" y1="28.6" x2="30.66" y2="28.6" xlink:href="#Безымянный_градиент_65"/><linearGradient id="Безымянный_градиент_65-3" x1="13.21" y1="29.53" x2="33.03" y2="29.53" xlink:href="#Безымянный_градиент_65"/></defs><g class="cls-1"><g id="Слой_2" data-name="Слой 2"><g id="layer1"><path class="cls-2" d="M42,44a15.1,15.1,0,0,0-2.88-8c-6.84-8-12-7.46-12.41-9.49a2.61,2.61,0,0,1,1.15-2.85l-6.33.32-6.3-.59a2.63,2.63,0,0,1,1,2.9c-.48,2-5.63,1.27-12.81,9C1.55,37.22.07,41.3,0,45.86v0c-.11,8.48,4.63,18.64,20.61,20.47C38.45,65.07,42.85,52.91,42,44ZM2.57,42.67C5.41,30.76,16,29.1,17.16,27.67A5.64,5.64,0,0,0,18,23.9l6.51.14a5.56,5.56,0,0,0,.63,3.79C26.18,29.32,36.72,31.42,39,43.45S31.62,62.06,20.39,62.59C9.19,61.58-.25,54.59,2.57,42.67Z"/><path class="cls-3" d="M10.54,15c-.6.83.13,5.59.9,6.86,1.75,2.87,17.82,2.35,19.43.74,1.24-1.24,1.71-6.51,1.39-7.31S10.54,15,10.54,15Z"/><path class="cls-4" d="M10.54,15c-.56,1.95,21.34,3.7,21.72.29S11.77,10.73,10.54,15Z"/><path class="cls-5" d="M14,14.94c-.39,1.35,14.6,2.07,14.86-.27S14.8,12,14,14.94Z"/><path class="cls-6" d="M13.35,16.71c-2.21-.59-1.27,2.83-.1,4.78s15.27,2.22,16.59-.61.06-2.54-5.3-2.84A110.46,110.46,0,0,1,13.35,16.71Z"/><path class="cls-7" d="M15.16,17.08c-.78-.2,1,3.66,3.87,5.24s8.1-1.29,8.94-4C28,18.31,19.73,17.7,15.16,17.08Z"/><path class="cls-8" d="M22.64,16.22c-4.31.31,2.73,1.21,5,.89s4.77-1.34,4.5-1.88c-.17-.34-3.76.34-6,.69A19.81,19.81,0,0,1,22.64,16.22Z"/><path class="cls-8" d="M31.34,19.8c-.71-.18-2.49,2.08-3.46,3s2.19.29,3.12-.83S31.71,19.9,31.34,19.8Z"/><path class="cls-8" d="M11.08,14.53c-.54.51,0,1.18,1,1.47s.32-1.45-.07-1.58A1.72,1.72,0,0,0,11.08,14.53Z"/><path class="cls-9" d="M15.68,23.57c-1.67-.33-2-4.62-1.34-5.36s7,4.84,6.15,5.46S15.68,23.57,15.68,23.57Z"/><path class="cls-9" d="M10.84,16.43a11.83,11.83,0,0,0,.56,4.68A2.09,2.09,0,0,0,13,22.6c.32.09-1-3-1.39-4.52C11,16,11,16,10.84,16.43Z"/><path class="cls-6" d="M12.18,13.51c-1.3.91-1.81,1.33,3.46.17s11.33-.57,12.61,0,.93,1.76,3.32,1.34-3.42-2.69-10.21-2.73S12.18,13.51,12.18,13.51Z"/><path class="cls-10" d="M15,15.58a128,128,0,0,0-2.2-13.46S26.59-2.17,33,5.21c0,0-4,5.32-4.63,10.34C28.36,15.55,23.29,17,15,15.58Z"/><path class="cls-11" d="M32.67,5.64C29.1,9.33,10.91,3.29,13,1.74S18.52-.19,22.08.08a3.89,3.89,0,0,0,1.45.6A4.34,4.34,0,0,0,24.81.42l.36.06h0S25,2.12,26.68.81h0C31.14,1.88,34.4,3.85,32.67,5.64Z"/><path class="cls-12" d="M16.81,15.85s-.95-10.25,0-11.44,7-2.62,11.3-1.86,4.8,2.84,4.8,2.84A7.4,7.4,0,0,0,26.82,2.8c-4.08.12-8.65.69-9.24,2.35S17.9,16,17.9,16Z"/><path class="cls-12" d="M19.82,16.16s-.06-8.52,1.33-10.39S32,6.16,32,6.16,23.37,4.7,21.73,5.91s-.51,10.28-.51,10.28Z"/><path class="cls-12" d="M23.61,16.14s-.48-5.08,2.65-6.88,3.83.79,3.83.79l-.64,1.46s-.67-2.68-3.1-1.55-2.19,6.19-2.19,6.19Z"/><path class="cls-13" d="M17.46,10.12s-1.11-4.24-.68-5.71,8.49-1.54,8.49-1.54-6,.43-7.48,1.91C16.77,5.79,17.46,10.12,17.46,10.12Z"/><path class="cls-13" d="M20.84,9.58s-.34-3.49.73-4.15,4.43,0,4.43,0-3.27-.4-4.27.44S20.84,9.58,20.84,9.58Z"/><path class="cls-14" d="M13.61,1.54c-1,.21,1.86,2.18,2.6,2.39s3.17-1,4.52-1.16S15,1.26,13.61,1.54Z"/><path class="cls-14" d="M18,4.6a14.47,14.47,0,0,0,2.84,1.08c.36-.08,1.43-.58,2-.83S21.13,3.06,18,4.6Z"/><path class="cls-14" d="M22.16,6a50.73,50.73,0,0,0,6.16.8A7.09,7.09,0,0,0,31,6.53S26.31,4.66,22.16,6Z"/><path class="cls-15" d="M21.4,6.3a2.82,2.82,0,0,0,1-.16.68.68,0,0,0,.29-.58A2.17,2.17,0,0,0,21.4,6.3Z"/><path class="cls-15" d="M17.43,5.45s.81-.12.91-.49-.13-.46-.13-.46S17.75,4.57,17.43,5.45Z"/><path class="cls-16" d="M21.51,16s-.41-6.93-.05-8.26,4-.83,6.33-.62-.39,0-2.35,2.38-1.9,6-2.23,6.32S21.51,16,21.51,16Z"/><path class="cls-16" d="M18.34,5.64c-.37.07-.85,4.87-.17,8.14s1.42.66,1.57,0,.45-6.5.7-7.12S18.34,5.64,18.34,5.64Z"/><path class="cls-16" d="M16.44,4.46c0-.33-3.06-1.22-3-1.12S15,12.91,15.37,14,16,10,16.44,4.46Z"/><path class="cls-17" d="M24.3,13.79a8.76,8.76,0,0,1,1.59-3.32,2.26,2.26,0,0,1,1.88-.74s-.88-.41-2.12.73A5.58,5.58,0,0,0,24.3,13.79Z"/><path class="cls-17" d="M20.94,13.21s.15-4.39.27-5.43.19-1.48.19-1.48S20.42,7.66,20.94,13.21Z"/><path class="cls-18" d="M25.17.48l.66.81S25.1,1.56,25.17.48Z"/><path class="cls-18" d="M22.08.08a5.69,5.69,0,0,0,2.73.34A2.29,2.29,0,0,1,22.08.08Z"/><path class="cls-13" d="M32.33,4.68a4,4,0,0,1,.21,1.09,6.38,6.38,0,0,1-.4.65s.72-1,.74-1S32.33,4.68,32.33,4.68Z"/><path class="cls-19" d="M14.82,13.86s.54,1.84,6.69,2,7-1.45,7-1.45l-.18,1.11s-5.14,1.57-13.35,0Z"/><path class="cls-20" d="M20.39,62.59c-11.2-1-20.64-8-17.82-19.92A18.74,18.74,0,0,1,6,35.35c4.23-5.43,10.31-6.62,11.15-7.68A5.64,5.64,0,0,0,18,23.9l6.51.14a5.56,5.56,0,0,0,.63,3.79c.83,1.15,7.29,2.66,11.27,8.82A18.93,18.93,0,0,1,39,43.45C41.36,55.47,31.62,62.06,20.39,62.59Z"/><path class="cls-21" d="M20.39,62.59c-11.2-1-20.64-8-17.82-19.92A18.74,18.74,0,0,1,6,35.35l15.46,5.74,14.9-4.44A18.93,18.93,0,0,1,39,43.45C41.36,55.47,31.62,62.06,20.39,62.59Z"/><path class="cls-22" d="M4,38.69c2.05-3.34,10.41,3,16.49,11.68s10,2.28,12.8-3,1.93,6.73-1.77,10.46,5.64-.46,7.48-7.39-2.59-13.82-2.59-13.82,1.5,5-1.51,6.24-16.41-1.69-21.59-4S6,35.35,6,35.35A17.78,17.78,0,0,0,4,38.69Z"/><path class="cls-23" d="M7,34.89c-4.81-.37,7.43,6.91,20.4,8.53s9.76-6.11,8.05-8-10.12,0-16.74.21A74.59,74.59,0,0,1,7,34.89Z"/><path class="cls-24" d="M4.74,55C.28,42.71,17.89,57.78,23.92,59.11S32.64,59,32.64,59s-7.4,4.65-15,3.23S4.74,55,4.74,55Z"/><path class="cls-25" d="M2.08,45.9S2.93,61.83,20.2,62.2,39.41,47,39.41,47s0,16.36-19,16S2.08,45.9,2.08,45.9Z"/><path class="cls-8" d="M23.38,65.4c-1.71-.52,6.53-3,11.14-6.54S35,65.21,23.38,65.4Z"/><path class="cls-8" d="M1.22,40.82C.7,44.29,5.15,35.94,6.7,33.64S2.07,35.18,1.22,40.82Z"/><path class="cls-8" d="M7.56,32.75c-.58-.07.76-1.57,1.28-1.56S8.28,32.85,7.56,32.75Z"/><path class="cls-8" d="M36.71,34.62c-.89.11,1.68,4.38,2.56,7.55s2,.72,1.8-1.55S38.26,34.45,36.71,34.62Z"/><path class="cls-5" d="M15.19,27.34c2.5-.64.77,1.83,5.68,3.26S26.79,29,26.53,27a4,4,0,0,1,1.31-3.34,33.66,33.66,0,0,1-12.63-.27S17.14,25.5,15.19,27.34Z"/><path class="cls-26" d="M6.92,56.05S-.1,50.72,4,40.4c3-7.63,8.85-9.79,8.85-9.79s2.31-.14,2.4,8.57S10.84,56.33,6.92,56.05Z"/><path class="cls-27" d="M9.48,38a55.34,55.34,0,0,0,15.88,5.7c9.71,2,11.28-2.18,11.28-2.18s-2.49,2.19-10.44,1.33S9.48,38,9.48,38Z"/><path class="cls-9" d="M21.68,42.79c-.64-.46,3.34-.34,5.35.26s.65,1-.13.89S21.68,42.79,21.68,42.79Z"/><path class="cls-28" d="M14,40.13c-1.58-.7,5.87,9,9.45,13.25s7.07-2.85,9-6a28.07,28.07,0,0,1,3.39-4.59,24.16,24.16,0,0,1-9.69,1C21.17,43.17,14,40.13,14,40.13Z"/><path class="cls-5" d="M20.61,66.35C4.63,64.52-.11,54.36,0,45.88c0,.7.18,18.21,20.17,19.8C40.58,67.29,42,44,42,44,42.85,52.91,38.45,65.07,20.61,66.35Z"/><path class="cls-28" d="M15.64,42.07c-7.87-4.72-6.72,4.16-3.9,9.51s2.61-2.16,5.66-1.69,2.73,4.79,5.92,7.22-5.05,4.12-7,1.26,1.36-2.64,1.64-2.08,4.3,3,1.94-1.36-4-1.89-5.6.58-5.12.15-8.1-7.28S5,36.72,6.43,36.65s6.87,3.61,14.18,6.18S19.55,46.75,15.64,42.07Z"/><path class="cls-29" d="M14.05,61.42c-4.76-3.63,3.51-3.2,10.94-1.81S23.59,64,14.05,61.42Z"/><path class="cls-8" d="M27.67,31.59c-3.72.6-.81,7,2.89,9.72s4.91-3.47,3.53-6.11S28.66,31.42,27.67,31.59Z"/><path class="cls-8" d="M14,32.13c.09-2.07-3.43.22-3.69,1.58S13.87,34,14,32.13Z"/><path class="cls-9" d="M28.05,28.42c-1.05.18,3.47,2.1,5.73,4.09S33,29.29,28.05,28.42Z"/><path class="cls-30" d="M3.44,52.89C.49,48.27,3,59.06,9.78,62.74s12.16,1.35,12.48.77-6.41-.6-11.12-2.69S3.44,52.89,3.44,52.89Z"/><path class="cls-31" d="M34.89,43.85a10.57,10.57,0,0,0,3-4.19c.08-.13,3.05,6.09.66,10.68s-3.37,5.13-3.86,3.6,1.47-8.1-.41-8.08-3.87,7.22-6.89,7.61-2.72-4.21-.79-6.5,1,1.47,2.71.63,2-3.05-4.37-3.5-3.72,4.46-1.33,2.81-.19,4.8-1.07,4.9-2.26-2.34-5.92-7.09-5.24-4.67-6.83-2.78S12,51,9.58,51.21s-4.71-5-4.69-9.48S5,36.84,6,36.63s9.42,5.56,17.66,6.71S34.89,43.85,34.89,43.85Z"/><path class="cls-8" d="M4.47,46.08C2.81,44.84,2.71,49,3.69,50S6,47.21,4.47,46.08Z"/><path class="cls-32" d="M15.76,23.85c-1.33-.51-1.73,1.52,2.68,3s9.4-.64,9.86-1.51a1.07,1.07,0,0,0-.62-1.54c-.31-.07-.84,1.06-.9,1.32s-3.21,1.06-6.54.72-4-1-4.15-1.34A4.65,4.65,0,0,0,15.76,23.85Z"/><path class="cls-33" d="M15.82,25c-1.3-.5-2.91,3,3.9,4.34,4.82,1,8.52-1.42,8.55-2.51s-1.45-1-1.71-.9.21.92.21.92-4.24,1.54-6.91.92S16.35,26.34,16.28,26,16.1,25.1,15.82,25Z"/><path class="cls-34" d="M19.48,28c-.8.51,2.17,1.7,4.25,1.24s3.33-1.5,3.32-1.94-3.48.67-4.94.73S19.48,28,19.48,28Z"/><path class="cls-34" d="M18.64,25.8c-.43.34,1,1,3.59,1.15s4.5-1,4.57-1.35-3.43.4-4.67.38S18.87,25.61,18.64,25.8Z"/><path class="cls-5" d="M22.88,34.58c-.31,0,3,11,3.39,16.47.39,6,9,4.58,13.05-1,4.21-5.82-.91-12.72-.91-12.72Z"/><path class="cls-35" d="M28.13,33.29c-.61-1.24,2-2.3,2.51-2.16s.41.53.41.53.17-.29-.22-.71-1.24-.64-2.55.1A1.26,1.26,0,0,0,28.13,33.29Z"/><path class="cls-35" d="M37.71,46.11l.23.17a31.33,31.33,0,0,1-6.06,2c-2,.3-2.87,0-3.11-.16l-.08,0,10.12-3.61a2.75,2.75,0,0,0-.9,1.17C37.79,45.91,37.71,46.11,37.71,46.11Z"/><path class="cls-35" d="M40.37,45.16a3.1,3.1,0,0,0-.37-.37,1.28,1.28,0,0,0-1-.37l4.37-1.56C43.25,43.47,42,44.32,40.37,45.16Z"/><path class="cls-36" d="M28.92,33.82c-.72-.19-1.54-1.32-1.38-1.94.21-.81,2.33-1.43,3.28-.82S29.65,34,28.92,33.82ZM39,44.42a1.28,1.28,0,0,1,1,.37,9.69,9.69,0,0,0,3.36-1.93c.13-.26,0-.86-.39-1.67-1.28-.13-1-.68-.52-1.09C40.3,36,35.22,29,34.15,28.52c-1.42-.61-10.94,3.93-11.64,5s5.2,13.69,6.18,14.54l.08,0c.84.35,5.35-1,9.14-2.48a2.75,2.75,0,0,1,.9-1.17l.17-.06Z"/><path class="cls-37" d="M39,44.42a1.28,1.28,0,0,1,1,.37c1.79-.77,3.13-1.5,3.36-1.93.13-.26,0-.86-.39-1.67-1.28-.13-1-.68-.52-1.08C40.3,36,35.22,29,34.15,28.52c-1.42-.61-10.94,3.93-11.64,5s5.2,13.69,6.18,14.54l.08,0c.84.35,5.35-1,9.14-2.48a2.77,2.77,0,0,1,.91-1.17l.16,0Zm-1.65.38c-1.3,2.15-3.84,2.39-6,2.47S26,43.74,25.87,41.89,23,33.91,24,32.83s8.67-4.95,10.33-3.7a46.07,46.07,0,0,1,3.46,4.77c2,3.05,5,8,4.69,9S38.63,42.65,37.34,44.8Z"/><path class="cls-38" d="M34.05,45.78c-3.1,1.14-6.85-4.19-8.3-6.18s2.82-5.22,6.13-6.88,6.09,1.44,7.78,5.09S36.75,44.79,34.05,45.78Z"/><path class="cls-39" d="M36.16,36.38h0a15.62,15.62,0,0,1-1.24,5s-4.81.1-6.59-1.47h0a1.75,1.75,0,0,1-.63-1.59c.39-3.23,3.61-2,4.23-1.16,0,0-.86-3,2.3-3.25C35.72,33.85,36.19,34.94,36.16,36.38Z"/><path class="cls-8" d="M33,34.79c-.29.58,2,1,2.42,1.45s.36-1.05-.12-1.65A1.68,1.68,0,0,0,33,34.79Z"/><path class="cls-8" d="M29.35,37c-.32.23-.06.47.46.3S29.35,37,29.35,37Z"/><path class="cls-5" d="M36.16,36.39a15.62,15.62,0,0,1-1.24,5s-4.81.1-6.59-1.47a11.18,11.18,0,0,0,5,.83C35.61,40.5,36.11,36.86,36.16,36.39Z"/><path class="cls-35" d="M40.37,45.16s-1-.72-1.46-.52-1,1.64-1,1.64l-.23-.17s.4-1.45,1.12-1.73S40.37,45.16,40.37,45.16Z"/><path class="cls-40" d="M37.94,46.28a4,4,0,0,1-.12-.59,2.15,2.15,0,0,1,.82-1.2C38.85,44.45,37.94,46.28,37.94,46.28Z"/><path class="cls-41" d="M28.63,31.92a1.44,1.44,0,0,0,1.93-1.46c.16-2-2.3-1.94-9.35-.31s-9.37-1.93-8.54-3.57,2.21-.38,2.7-.71.3-1.44-.18-1.66-2.9-.43-4.15,2.34c-1.12,2.47,1.88,5,5.45,5.5s7.45-1.42,9.53-1.76,1.75.23,1.75.23S29.45,30.73,28.63,31.92Z"/><path class="cls-34" d="M16.45,30.53c-1.36.26.19,1.06,2.82,1s6.52-1.69,7.35-2-2.74-.08-6.07.82S16.45,30.53,16.45,30.53Z"/><path class="cls-34" d="M29.36,29.19c-.94.24-.24,1,.12,1.62s1.06-.12.94-.9S29.36,29.19,29.36,29.19Z"/></g></g></g></svg>