<svg xmlns="http://www.w3.org/2000/svg" xmlns:xlink="http://www.w3.org/1999/xlink" viewBox="0 0 48.01 55.13"><defs><style>.cls-1{isolation:isolate;}.cls-2{fill:url(#Безымянный_градиент_633);}.cls-3{fill:#d93b66;}.cls-12,.cls-13,.cls-23,.cls-25,.cls-3,.cls-4,.cls-6{mix-blend-mode:multiply;}.cls-3,.cls-4{opacity:0.3;}.cls-4{fill:#963b66;}.cls-10,.cls-11,.cls-14,.cls-15,.cls-16,.cls-17,.cls-18,.cls-19,.cls-20,.cls-22,.cls-27,.cls-32,.cls-5,.cls-9{mix-blend-mode:screen;}.cls-5{fill:url(#Безымянный_градиент_633-2);}.cls-6{fill:#820045;}.cls-12,.cls-13,.cls-18,.cls-20,.cls-23,.cls-25,.cls-6{opacity:0.5;}.cls-7{fill:#ff001a;mix-blend-mode:darken;}.cls-21,.cls-8{fill:#fff;}.cls-8{mix-blend-mode:soft-light;}.cls-11,.cls-14,.cls-16,.cls-9{opacity:0.72;}.cls-9{fill:url(#Безымянный_градиент_635);}.cls-10{fill:#ff8390;opacity:0.92;}.cls-11{fill:url(#Безымянный_градиент_635-2);}.cls-12{fill:#b80066;}.cls-13{fill:#960066;}.cls-14{fill:url(#Безымянный_градиент_640);}.cls-15{fill:url(#Безымянный_градиент_655);}.cls-16{fill:url(#Безымянный_градиент_641);}.cls-17{fill:url(#Безымянный_градиент_651);}.cls-18{fill:#ff9790;}.cls-19{fill:#f7b;}.cls-20{fill:#ff5793;}.cls-22{fill:url(#Безымянный_градиент_655-2);}.cls-23{fill:#7a0033;}.cls-24{fill:#ffa9b3;}.cls-25{fill:#ec0066;}.cls-26{fill:#ff8d98;}.cls-27{fill:#ffc098;}.cls-28{fill:url(#Безымянный_градиент_662);}.cls-29{fill:#ff5e66;}.cls-30{fill:url(#Безымянный_градиент_662-2);}.cls-31{fill:#ff88a4;}.cls-33{fill:#ff007c;}</style><linearGradient id="Безымянный_градиент_633" x1="24.01" y1="55.06" x2="24.01" gradientUnits="userSpaceOnUse"><stop offset="0" stop-color="#ff7a00"/><stop offset="0.56" stop-color="#eb0029"/><stop offset="1" stop-color="#a1002c"/></linearGradient><linearGradient id="Безымянный_градиент_633-2" x1="23.17" y1="52.13" x2="23.17" y2="21.54" xlink:href="#Безымянный_градиент_633"/><linearGradient id="Безымянный_градиент_635" x1="24.66" y1="41.33" x2="24.66" y2="8.2" gradientUnits="userSpaceOnUse"><stop offset="0.24"/><stop offset="0.99" stop-color="#ff86a4"/></linearGradient><linearGradient id="Безымянный_градиент_635-2" x1="12.39" y1="18.23" x2="12.39" y2="0.02" xlink:href="#Безымянный_градиент_635"/><linearGradient id="Безымянный_градиент_640" x1="36.39" y1="54.89" x2="36.39" y2="19.51" gradientUnits="userSpaceOnUse"><stop offset="0.01" stop-color="#ff7200"/><stop offset="0.76"/></linearGradient><linearGradient id="Безымянный_градиент_655" x1="36.39" y1="54.89" x2="36.39" y2="19.51" gradientUnits="userSpaceOnUse"><stop offset="0.02" stop-color="#ff2cfe"/><stop offset="1"/></linearGradient><linearGradient id="Безымянный_градиент_641" x1="0.22" y1="19.3" x2="13.48" y2="19.3" gradientUnits="userSpaceOnUse"><stop offset="0.01" stop-color="#ff86a4"/><stop offset="0.76"/></linearGradient><linearGradient id="Безымянный_градиент_651" x1="23.26" y1="55.06" x2="23.26" y2="26.36" gradientUnits="userSpaceOnUse"><stop offset="0.02" stop-color="#ff1400"/><stop offset="1"/></linearGradient><linearGradient id="Безымянный_градиент_655-2" x1="16.67" y1="54.89" x2="16.67" y2="38.16" xlink:href="#Безымянный_градиент_655"/><linearGradient id="Безымянный_градиент_662" x1="20.53" y1="39.44" x2="20.53" y2="34.7" gradientUnits="userSpaceOnUse"><stop offset="0" stop-color="#ff134b"/><stop offset="1" stop-color="#97003b"/></linearGradient><linearGradient id="Безымянный_градиент_662-2" x1="31.62" y1="30.11" x2="31.62" y2="26.13" xlink:href="#Безымянный_градиент_662"/></defs><g class="cls-1"><g id="Слой_2" data-name="Слой 2"><g id="layer1"><path class="cls-2" d="M48,21.33c0,.9-.74,2.7-1.94,5h0c-1.12,2.17-2.65,4.8-4.39,7.58C35.6,43.67,27.06,55.19,25.09,55.06,23.43,55,17.27,49.8,11.58,44.22h0C6.56,39.28,1.9,34,1.05,31.56A14.58,14.58,0,0,1,.47,29c-1-6.55-.26-18.57,1.14-19.84C3.22,7.72,18.42.62,20.09,0,22.3-.77,48.08,16.6,48,21.33Z"/><path class="cls-3" d="M3.8,10.43c-1.49,2.36-3,12.89-.57,19.43s10.23,10,16.68,11.83-4.71-9.5,2.26-15.34,8.19-6,7.14,4.55,15.08,8.18,16.4-9.42c.54-7.26-22.22-20.21-25.28-20.24S5.56,7.61,3.8,10.43Z"/><path class="cls-4" d="M5.22,9.47c-5.15,9,9.16,11.37,18.63,12.1s19-1.37,13-8.6S25,1,18.6,1.6,5.22,9.47,5.22,9.47Z"/><path class="cls-5" d="M22.43,51.84c-3-1.22-17.8-13-18.63-19.22s8.26,4.13,11.93,6.53-.42-4.77,2.52-14S29.62,27.16,33,30.9s6.66-4.85,9.27-2.19S30.27,55,22.43,51.84Z"/><path class="cls-4" d="M5.22,26.78C4.53,20.25,16.43,22,17.3,25.11s1,13.42-1.92,12.88S5.69,31.28,5.22,26.78Z"/><path class="cls-4" d="M43.58,18.92c-4.29-2.25-10.38,2.85-11.06,13.7s11.57-4.1,13.22-8.52S43.58,18.92,43.58,18.92Z"/><path class="cls-6" d="M1.75,30.34c.65,2.3-.05-12.45,5.44-18.55s6,5.91,14.89,7.49,15.68-4,9.15-8.7S30,8.56,38,13.32s2.56,12.53-1.49,24.88C34.25,45,46.86,25.66,46.69,21S25.26,1.88,20.21,1.24,3.33,8,1.75,11.06.37,25.44,1.75,30.34Z"/><path class="cls-7" d="M28.45,49.52c-2.51.61-8.37-17.23-6.54-28.41s11.71-3.59,19.49-.94S33.5,48.28,28.45,49.52Z"/><path class="cls-8" d="M23.84,8.2C21,8,13.2,17.11,13.16,20.4S22.9,40.26,23.84,41.29s12-21.22,12.31-23.6S23.84,8.2,23.84,8.2Z"/><path class="cls-9" d="M23.84,8.2C21,8,13.2,17.11,13.16,20.4S22.9,40.26,23.84,41.29s12-21.22,12.31-23.6S23.84,8.2,23.84,8.2Z"/><path class="cls-10" d="M23.84,8.2C21,8,13.2,17.11,13.16,20.4S22.9,40.26,23.84,41.29s12-21.22,12.31-23.6S23.84,8.2,23.84,8.2Z"/><path class="cls-11" d="M20.09,0C20.76-.2,23,7,23,7.44s-7.15,7.36-9.24,10.25-12.06-6.85-12-8S17.22,1,20.09,0Z"/><path class="cls-12" d="M1.05,31.57c1.46-4.31,12.11-12.74,12.11-12s2.94,9,10.68,21.68c0,0,1.65,12.74,1.25,13.77S10.51,44.76,1.05,31.57Z"/><path class="cls-13" d="M36.21,17c.7,1.25,10.83,4.68,11.52,4.47s-6.31-8.53-15-14S21.61.61,21.44.53a43.39,43.39,0,0,0,2.93,7.61C25.41,9.84,36.21,17,36.21,17Z"/><path class="cls-14" d="M25.66,54.89C25.14,53.73,25,43,27.05,38s8.14-17.67,10.19-18.38,10.19,2.72,10.19,2.72S38.92,42.19,25.66,54.89Z"/><path class="cls-15" d="M25.66,54.89C25.14,53.73,25,43,27.05,38s8.14-17.67,10.19-18.38,10.19,2.72,10.19,2.72S38.92,42.19,25.66,54.89Z"/><path class="cls-16" d="M1.79,9.7c.63-1.84,12,8.72,11.68,9.32A136.14,136.14,0,0,1,2,29.07C.61,29.82-1.09,18.11,1.79,9.7Z"/><path class="cls-17" d="M46.06,26.36c-5.05,9.8-18.44,28.87-21,28.7-3.12-.21-22.22-18.28-24-23.5A14.58,14.58,0,0,1,.47,29c.76-.8,1.24-.16,1.63.3s-.07,3,.32,4.09,10.91,12,14.48,14.84,7.54,2,8.26,2.7,3.87-1.41,7.6-5.53,1.58-4.75,3.62-6.72S45.83,26.67,46.06,26.36Z"/><path class="cls-18" d="M31.67,13s4.31,3.14,5.27,4.1,7.37,3.44,7.37,3.44-6.39-2.23-7-2.32-2.46,2.88-2.46,2.88,1.5-3.54,1.34-4.15S31.67,13,31.67,13Z"/><path class="cls-7" d="M6.36,25.51C3.23,29.86,10,40.6,14.29,44.39s7.77-2.63,9-.54-.56-3.09-4.16-10.1-5.18-12.52-6.71-12.64S6.36,25.51,6.36,25.51Z"/><path class="cls-19" d="M19.76,10.58s-5.26,6-6,6.48-1.53-.25-1.7.14a9,9,0,0,0-.3,3,6.55,6.55,0,0,0,1.39,1.5c.35.28,4.53,9.24,5.53,11.37.48,1,3.26,5.08,4.62,9.9,1.51,5.33,1.59,11.43,1.83,12.09L25,42.94,26.33,38S25.09,40,24,39.77,14,23.52,13.75,21.57c-.34-2.94,2-6.2,2-6.2Z"/><path class="cls-20" d="M3,9.13c-.57.52,9.21,7.86,10.13,7.93S22,8.65,22.84,7.71,20.91.93,20.34.53,4.14,8.11,3,9.13Z"/><path class="cls-21" d="M13.48,21.7c-1.71.88-1.66-3.44-1.34-4A24.52,24.52,0,0,1,15.73,15S13.75,21.56,13.48,21.7Z"/><path class="cls-21" d="M35.07,15.57c-.36-.13.67,2.13,1,2.52s1.31-.14,1.33-.39A16,16,0,0,0,35.07,15.57Z"/><path class="cls-22" d="M8.62,40.81S15.13,36.72,19,38.7s6.14,15.94,5.66,16.19S13.89,48.35,8.62,40.81Z"/><path class="cls-13" d="M37.56,19.35c-1.32-.18-5.13,8.9-5.12,10S44.9,28.1,46.31,24.76,37.56,19.35,37.56,19.35Z"/><path class="cls-13" d="M11.27,16.46C11.06,18,5.75,21,3.34,20.41S.6,12.15,1.39,11,11.27,16.46,11.27,16.46Z"/><path class="cls-23" d="M48,21.33c0,.9-.74,2.7-1.94,5h0c-1.12,2.17-2.65,4.8-4.39,7.58l-.58.63c.34-.45,6.14-8.53,5.07-14.4-1.11-6-23.1-18-25.1-18.63C18.23.69,3.63,7.92,1.78,9.7S.37,23.94,1.45,29.11,12,44.32,12,44.32l-.38-.1h0C6.56,39.28,1.9,34,1.05,31.56A14.58,14.58,0,0,1,.47,29c-1-6.55-.26-18.57,1.14-19.84C3.22,7.72,18.42.62,20.09,0,22.3-.77,48.08,16.6,48,21.33Z"/><path class="cls-24" d="M16.51,1.91C16.17,1.82,19.79,0,20.25.06s1.66,3.59,1.55,3.85-1.76-1.5-3-1.78A13.07,13.07,0,0,0,16.51,1.91Z"/><path class="cls-25" d="M18,31.63C14.42,27.52,21,47.1,23,51.38s.23-5.18,0-9.12S18,31.63,18,31.63Z"/><path class="cls-26" d="M1.15,31.81c.3-2.7,6.12,7.27,6.12,7.27l1.9,2.52,6,5.86S5.54,40.55,1.15,31.81Z"/><path class="cls-26" d="M48,21.33a4.15,4.15,0,0,0-2.29,1c-.68.81-2.25,7.35-2.32,7.53s-2.95,6-2.95,6S46,28.27,48,21.33Z"/><path class="cls-26" d="M1.61,9.18c-.42.75,2.2-.1,3-.81s3-2.54,3-2.54S2.11,8.2,1.61,9.18Z"/><path class="cls-21" d="M23.19,6.83c-.4-.11-1.37,1.95-1.21,2s3,.05,3.1.07A8.8,8.8,0,0,0,23.19,6.83Z"/><path class="cls-21" d="M1.56,30.48c-.51.71-.08-1.16.23-1.52a6.23,6.23,0,0,1,1.48-.86Z"/><path class="cls-27" d="M13.48,46c0-2.22,10.6,3.77,11.52,5.63s.49,3,.09,3.44S16.94,50.07,13.48,46Z"/><path class="cls-28" d="M19.82,34.71c.57-.19,2.33,4.24,2.15,4.67S17.37,38.16,19.82,34.71Z"/><path class="cls-13" d="M19.08,36.62c-.08,1,1.65,1.77,2.24,1.74s-.28-2.21-.89-3S19.17,35.49,19.08,36.62Z"/><path class="cls-29" d="M19.35,37.78c-.06-.13,1.87.86,2.17.8s-.36-1.89-.36-1.89a10,10,0,0,1,.9,2.75C22,40.08,19.84,38.75,19.35,37.78Z"/><path class="cls-30" d="M32.64,26.24c-.29-.64-2.71,1.55-2.06,3.38S33.29,27.64,32.64,26.24Z"/><path class="cls-13" d="M31.06,27.27c-.93,1.57.56,2.13,1.38.85s0-2-.19-1.94A4.37,4.37,0,0,0,31.06,27.27Z"/><path class="cls-31" d="M30.69,29.85c-.22-1,1.37-.85,1.61-1.1S31.13,30.88,30.69,29.85Z"/><g class="cls-32"><path class="cls-33" d="M7.84,34.6c.22-2.68,2.06,1.23,2.06,2.47S7.5,38.7,7.84,34.6Z"/><path class="cls-33" d="M10,36.35c-.13,0,.45,1.68.87,1.53S10.13,36.38,10,36.35Z"/><path class="cls-33" d="M9,29.11c0,.21,1.11,2.4,1.63,1.95S9.2,28.15,9,29.11Z"/><path class="cls-33" d="M3,17.69c-.73,1.43-.44,5.12.74,6.1s.68-4.06.87-6.11S3.4,16.91,3,17.69Z"/><path class="cls-33" d="M8.62,11.62c-.38,1.36,1.9.44,2.14-1.27S8.92,10.56,8.62,11.62Z"/><path class="cls-33" d="M29.55,45c-1.37.38-.19-2.69.33-3.22S30.21,44.8,29.55,45Z"/><path class="cls-33" d="M30.18,45.81c-.72-.11.55-1.29.88-1.07S30.61,45.88,30.18,45.81Z"/><path class="cls-33" d="M40,16.15c-.37,0,.49,2,1.3,1.73S40.63,16.15,40,16.15Z"/><path class="cls-33" d="M34.39,29.43c.26-1.26,2.65-3.26,3.78-3.09s-2.8,4.45-3.35,4.67S34.16,30.52,34.39,29.43Z"/><path class="cls-33" d="M37.37,31.86c-.38-.18.48-.61.84-.8S37.78,32.06,37.37,31.86Z"/><path class="cls-33" d="M28.33,7.35c0,.42-.75-.24-1-.51S28.37,6.9,28.33,7.35Z"/></g></g></g></g></svg>