<svg xmlns="http://www.w3.org/2000/svg" xmlns:xlink="http://www.w3.org/1999/xlink" viewBox="0 0 41.46 51.58"><defs><style>.cls-1{isolation:isolate;}.cls-2{fill:url(#Безымянный_градиент_776);}.cls-3{fill:url(#Безымянный_градиент_539);}.cls-4{fill:url(#Безымянный_градиент_601);}.cls-5{fill:url(#Безымянный_градиент_605);}.cls-6{fill:url(#Безымянный_градиент_776-2);}.cls-7{fill:url(#Безымянный_градиент_539-2);}.cls-8{fill:url(#Безымянный_градиент_776-3);}.cls-9{fill:url(#Безымянный_градиент_542);}.cls-10,.cls-14{fill:#fff;}.cls-10{mix-blend-mode:soft-light;}.cls-11{fill:#6e5066;opacity:0.3;}.cls-11,.cls-12,.cls-15,.cls-16,.cls-18{mix-blend-mode:multiply;}.cls-12{fill:#6e3b66;}.cls-12,.cls-15,.cls-16,.cls-18{opacity:0.5;}.cls-13{fill:#eed6dd;}.cls-15{fill:#923b66;}.cls-16{fill:#c9d16d;}.cls-17{mix-blend-mode:screen;fill:url(#Безымянный_градиент_409);}.cls-18{fill:#927466;}</style><linearGradient id="Безымянный_градиент_776" x1="4.13" y1="46.58" x2="39.23" y2="46.58" gradientUnits="userSpaceOnUse"><stop offset="0" stop-color="#728ee3"/><stop offset="0.3" stop-color="#836888"/><stop offset="0.57" stop-color="#e1d9e0"/><stop offset="0.85" stop-color="#937d9a"/><stop offset="1" stop-color="#6d636a"/></linearGradient><linearGradient id="Безымянный_градиент_539" x1="23.94" y1="48.01" x2="19.46" y2="35.69" gradientUnits="userSpaceOnUse"><stop offset="0" stop-color="#decdd1"/><stop offset="0.2" stop-color="#dbc9ce"/><stop offset="0.38" stop-color="#d2bfc3"/><stop offset="0.54" stop-color="#c2acb1"/><stop offset="0.7" stop-color="#ae959a"/><stop offset="1" stop-color="#ddd4ea"/></linearGradient><linearGradient id="Безымянный_градиент_601" x1="20.83" y1="43.99" x2="20.83" y2="12.05" gradientUnits="userSpaceOnUse"><stop offset="0" stop-color="#f7e2f8"/><stop offset="0.03" stop-color="#f4ddf5"/><stop offset="0.27" stop-color="#e1bbe1"/><stop offset="0.46" stop-color="#d5a7d5"/><stop offset="0.59" stop-color="#d19fd1"/><stop offset="0.64" stop-color="#be92c3"/><stop offset="0.72" stop-color="#a57fb0"/><stop offset="0.81" stop-color="#9272a3"/><stop offset="0.9" stop-color="#886b9b"/><stop offset="1" stop-color="#846898"/></linearGradient><linearGradient id="Безымянный_градиент_605" x1="21.06" y1="42.42" x2="21.06" y2="12.73" gradientUnits="userSpaceOnUse"><stop offset="0" stop-color="#a9de00"/><stop offset="1" stop-color="#408100"/></linearGradient><linearGradient id="Безымянный_градиент_776-2" x1="0.16" y1="11.73" x2="41.41" y2="11.73" xlink:href="#Безымянный_градиент_776"/><linearGradient id="Безымянный_градиент_539-2" x1="23.26" y1="13.9" x2="18.24" y2="0.12" xlink:href="#Безымянный_градиент_539"/><linearGradient id="Безымянный_градиент_776-3" x1="10.46" y1="4.4" x2="30.63" y2="4.4" xlink:href="#Безымянный_градиент_776"/><linearGradient id="Безымянный_градиент_542" x1="21.84" y1="4.49" x2="19.27" y2="-2.57" gradientUnits="userSpaceOnUse"><stop offset="0" stop-color="#decdd1"/><stop offset="0.41" stop-color="#deced5"/><stop offset="0.78" stop-color="#ddd1df"/><stop offset="1" stop-color="#ddd4ea"/></linearGradient><linearGradient id="Безымянный_градиент_409" x1="7.13" y1="28.87" x2="15.36" y2="28.87" gradientUnits="userSpaceOnUse"><stop offset="0.02" stop-color="#0045fe"/><stop offset="1"/></linearGradient></defs><g class="cls-1"><g id="Слой_2" data-name="Слой 2"><g id="layer1"><path class="cls-2" d="M39.23,42l-.72,4.62h0l-.3,1.9c-17.15,6.44-33.06.81-33.06.81l-.4-3.07h0l-.62-4.64C18.18,46.94,39.23,42,39.23,42Z"/><path class="cls-3" d="M4.36,42C.71,39,37.67,40.3,39.23,42c.91,1-8.65,3.1-18.17,3.28C14.12,45.37,7.21,44.25,4.36,42Z"/><path class="cls-4" d="M2.28,12.05l4,29.47s12.63,5.55,30.19,0l2.91-29.47Z"/><path class="cls-5" d="M35.64,25.52c-.43,6.56-1.51,13.56-3.27,15-2.74,2.28-20.19,2.62-22.1.19C9.3,39.5,8.43,36,7.75,31.91c-1.32-8-1.91-18.27-1.13-18.3,0,0,27.13-1.69,28.56-.38C35.87,13.86,36,19.5,35.64,25.52Z"/><path class="cls-6" d="M41.41,7.09l-.3,2.76h0v0s0,.07,0,.14l-.43,4.08A86.91,86.91,0,0,1,1,14.11L.5,9.86h0L.16,7.09Z"/><path class="cls-7" d="M.16,7.09c-2.82-1.7,33.42-2.67,40.5-.59,3.92,1.16-7.27,2.78-18.95,2.94C12.29,9.57,2.56,8.55.16,7.09Z"/><path class="cls-8" d="M11.58,7.5,10.46.65,30.63,1l-.47,6.07S18.79,9.16,11.58,7.5Z"/><path class="cls-9" d="M10.66.82C8,.18,28.71-.65,30.48.82S18.44,2.68,10.66.82Z"/><path class="cls-10" d="M26,2.07a38,38,0,0,0-4.63.36c-.33,0,.07,4.93.16,5.28s3.88-.06,4.44-.19S26.36,2.21,26,2.07Z"/><path class="cls-10" d="M22,9.45c-.94,0-.78,6.09-.58,6.61S29,16,29.82,15.92s.72-6.5.37-6.85S22,9.45,22,9.45Z"/><path class="cls-10" d="M23.58,45.4c-.91.49-.62,5.5-.46,5.81s6.53-.33,7.31-1.08,1.17-5.33,1-5.54S23.58,45.4,23.58,45.4Z"/><path class="cls-11" d="M11.48,44.85c-.88-.1-.67,4.93-.52,5.41s8.1,1.1,9.87,1.06c1,0,.77-5.3.5-5.69S11.48,44.85,11.48,44.85Z"/><path class="cls-11" d="M39.05,43.14c-.13-.44-7.29,1.23-7.32,1.42s-.66,5.32-.63,5.65,5.74-1.28,6.33-1.74S39.05,43.14,39.05,43.14Z"/><path class="cls-11" d="M32.81,9c-1.63,0-1.86,5.94-1.62,6.48S38.8,14.33,39.37,14s1.46-5.62,1.41-5.84S32.81,9,32.81,9Z"/><path class="cls-11" d="M20.55,10.17c0-.72-11.37-.95-12.34-.72s-.4,4.54,0,5.47,11.26,1.63,11.84,1.35S20.55,10.17,20.55,10.17Z"/><path class="cls-11" d="M20,2.74c-.51-.78-6.87-1.08-7.51-1.08s-.13,5,.38,5.72,6.73.74,7.16.74S20,2.74,20,2.74Z"/><path class="cls-11" d="M27.49,2.33c-.55-.06-1,4.85-.81,5.05a7.33,7.33,0,0,0,3.13-.68c.23-.29,1.18-4.64.62-4.89S27.49,2.33,27.49,2.33Z"/><path class="cls-10" d="M16.22,9.21c-3.14-.55,4-.9,9.25-1.46s13.72-1.18,14.81-.69S30.78,10.06,16.22,9.21Z"/><path class="cls-10" d="M20.78,45.25c-4.21-.45,9.36-1.94,12.52-2.83s5.27-.32,5.18,0S29.3,45.61,20.78,45.25Z"/><path class="cls-12" d="M40.35,12.91c.41-.34.67-2.28.74-2.88l-.43,4.08A86.91,86.91,0,0,1,1,14.11L.5,9.86c.07.19.66,3.33,1.78,4.23s10.67,2.2,22.34,1.8S39.87,13.3,40.35,12.91Z"/><path class="cls-12" d="M41.11,9.89s0,.07,0,.14Z"/><path class="cls-13" d="M1.27,7.57s8,2.65,21.66,2.39,17.7-2.39,17.7-2.39S20.17,11.38,1.27,7.57Z"/><path class="cls-13" d="M11.41,1A40.07,40.07,0,0,0,22.46,2.76c6,.08,8.14-1.59,8.14-1.59A60.92,60.92,0,0,1,11.41,1Z"/><path class="cls-14" d="M21.63,2.62c-1.69-.28,2.91-.85,4.67-.74S25.32,3.23,21.63,2.62Z"/><path class="cls-14" d="M21.73,9.86C20.26,9.67,27.5,8.75,29,9.07S27.4,10.61,21.73,9.86Z"/><path class="cls-13" d="M7.16,43.44s12.92,4,31-.61C38.16,42.83,25.3,49.14,7.16,43.44Z"/><path class="cls-14" d="M23.27,45.83c-1.3-.09,4.14-1.27,6.43-1.15S27.88,46.14,23.27,45.83Z"/><path class="cls-12" d="M38.51,46.59l-.3,1.9c-17.15,6.44-33.06.81-33.06.81l-.4-3.07c0,.22,1.58,5.61,16.5,5.06C36,50.73,38.37,46.84,38.51,46.59Z"/><path class="cls-15" d="M2.72,15.26s14,4.78,23.93,4.09S39,15.56,39,15.56V14.48s-14.71,4.39-36.3,0Z"/><path class="cls-10" d="M.74,8.15C.87,6.8,2.33,13.4,2.28,14.09S.12,12.19.74,8.15Z"/><path class="cls-10" d="M5.67,47.69c-.78-.35-1.13-4-.68-4.62S8.35,46,8.35,47.92,5.67,47.69,5.67,47.69Z"/><path class="cls-10" d="M11.22,2c.39-.87,1.87,4.54,1.57,5.16S10.91,5.56,11.22,2Z"/><path class="cls-14" d="M6.79,40.5C6.16,40.71,5,29.44,5.32,27.29s3.08,12.52,3,13.55S6.79,40.5,6.79,40.5Z"/><path class="cls-16" d="M10.83,38.83c-3.36-.42-4-20.52-3.16-22.09s11,.67,15.28.38,10.13-2,11.62-.85.81,9.83.5,11.75-7.71-2.82-14-.94S16.2,39.52,10.83,38.83Z"/><path class="cls-10" d="M36.82,31.11c-.29-4-3.06,10-2.54,10.48S36.48,43.43,36.82,31.11Z"/><path class="cls-14" d="M25.28,19.71c-1.45.08,2.73,12.67,5.32,12.52S36.07,18.39,36,18.1,30.36,19.42,25.28,19.71Z"/><path class="cls-14" d="M30.27,33.61c-1,.06-.84,2.7,0,3.24S31.94,33.53,30.27,33.61Z"/><path class="cls-17" d="M7.93,18.06c-2,.36.24,18.69,1.68,21.12S15.47,35.05,15.36,28,9.31,17.81,7.93,18.06Z"/><path class="cls-10" d="M12.9,37.68c-1.08-.65-.81-13.9-.41-14.36S13.91,36,13.76,37,12.9,37.68,12.9,37.68Z"/><path class="cls-12" d="M5.15,49.3S4.63,43,4.79,42.42s1.64-.83,1.64-.83-1.76-14.21-2.3-18.5-1.41-8.61-1.41-8.61S5.92,40,5.82,40.41s-1.75.77-1.69,1.18S5.15,49.3,5.15,49.3Z"/><path class="cls-12" d="M2.29,6.22s5.44-.51,7.15-.59l1.7-.08L10.46.75S11.7,6.1,12,6.66,18.9,8.14,22.17,8a70.3,70.3,0,0,0,8-.93,46,46,0,0,1-19,.46s-.11-1.11-.57-1.33S2.29,6.22,2.29,6.22Z"/><path class="cls-18" d="M35.64,25.52c-.43,6.56-1.51,13.56-3.27,15-2.74,2.28-20.19,2.62-22.1.19C9.3,39.5,8.43,36,7.75,31.91v0s1.55,6.2,3.49,7.48c3.39,2.22,17.86,3.33,20.95.32S35.64,25.5,35.64,25.5Z"/></g></g></g></svg>