<svg xmlns="http://www.w3.org/2000/svg" xmlns:xlink="http://www.w3.org/1999/xlink" viewBox="0 0 56.52 54.83"><defs><style>.cls-1{isolation:isolate;}.cls-2{fill:url(#Безымянный_градиент_648);}.cls-3{fill:url(#Безымянный_градиент_696);}.cls-4{fill:url(#Безымянный_градиент_490);}.cls-5{fill:url(#Безымянный_градиент_524);}.cls-6{fill:url(#Безымянный_градиент_520);}.cls-7{fill:url(#Безымянный_градиент_511);}.cls-8{fill:#ff9000;}.cls-23,.cls-9{fill:#b82774;}.cls-12,.cls-15,.cls-18,.cls-19,.cls-22,.cls-23,.cls-26,.cls-28,.cls-9{mix-blend-mode:multiply;}.cls-13,.cls-19,.cls-26,.cls-28,.cls-9{opacity:0.5;}.cls-10,.cls-13,.cls-20{fill:#fff;}.cls-10,.cls-13,.cls-21{mix-blend-mode:soft-light;}.cls-11{fill:#4a0e7c;}.cls-12{fill:#9865d3;}.cls-12,.cls-15,.cls-22{opacity:0.8;}.cls-14{fill:#40005e;}.cls-15{fill:#b8659f;}.cls-16{fill:url(#Безымянный_градиент_521);}.cls-17{fill:url(#Безымянный_градиент_638);}.cls-18{fill:#ab5455;opacity:0.2;}.cls-19,.cls-22{fill:#923b66;}.cls-21{fill:#b6d3ff;}.cls-23{opacity:0.4;}.cls-24{fill:#9f81ff;}.cls-25{mix-blend-mode:screen;opacity:0.72;fill:url(#Безымянный_градиент_529);}.cls-26{fill:#6e3b66;}.cls-27{fill:#4f0086;}.cls-28{fill:#912774;}.cls-29{fill:url(#Безымянный_градиент_511-2);}.cls-30{fill:url(#Безымянный_градиент_490-2);}</style><linearGradient id="Безымянный_градиент_648" x1="18.24" y1="4.15" x2="30.63" y2="4.15" gradientUnits="userSpaceOnUse"><stop offset="0" stop-color="#1d0066"/><stop offset="1" stop-color="#93003b"/></linearGradient><linearGradient id="Безымянный_градиент_696" y1="30.85" x2="56.4" y2="30.85" gradientUnits="userSpaceOnUse"><stop offset="0" stop-color="#3d069a"/><stop offset="1" stop-color="#6509ba"/></linearGradient><linearGradient id="Безымянный_градиент_490" x1="18.23" y1="51.07" x2="42.73" y2="8.65" gradientUnits="userSpaceOnUse"><stop offset="0" stop-color="#902ef6"/><stop offset="1" stop-color="#682eff"/></linearGradient><linearGradient id="Безымянный_градиент_524" x1="30.47" y1="46.83" x2="30.47" y2="14.79" gradientUnits="userSpaceOnUse"><stop offset="0" stop-color="#ff003b"/><stop offset="1" stop-color="#de0086"/></linearGradient><linearGradient id="Безымянный_градиент_520" x1="28.49" y1="46.58" x2="28.49" y2="16.14" gradientUnits="userSpaceOnUse"><stop offset="0" stop-color="#f8e1f2"/><stop offset="1" stop-color="#ffbad2"/></linearGradient><linearGradient id="Безымянный_градиент_511" x1="4.99" y1="11.87" x2="43.74" y2="11.87" gradientUnits="userSpaceOnUse"><stop offset="0" stop-color="#8963cf"/><stop offset="1" stop-color="#926dff"/></linearGradient><linearGradient id="Безымянный_градиент_521" x1="29.28" y1="35.3" x2="29.28" y2="28.9" gradientUnits="userSpaceOnUse"><stop offset="0" stop-color="#83003b"/><stop offset="1" stop-color="#de0057"/></linearGradient><linearGradient id="Безымянный_градиент_638" x1="29.67" y1="35.3" x2="29.67" y2="28.9" gradientUnits="userSpaceOnUse"><stop offset="0" stop-color="#de0086"/><stop offset="1" stop-color="#ff003b"/></linearGradient><radialGradient id="Безымянный_градиент_529" cx="36.65" cy="23.47" r="19.58" gradientUnits="userSpaceOnUse"><stop offset="0.02" stop-color="#f1f9fe"/><stop offset="1"/></radialGradient><linearGradient id="Безымянный_градиент_511-2" x1="7.23" y1="42.64" x2="9.76" y2="42.64" xlink:href="#Безымянный_градиент_511"/><linearGradient id="Безымянный_градиент_490-2" x1="46.99" y1="14.76" x2="48.52" y2="12.11" xlink:href="#Безымянный_градиент_490"/></defs><g class="cls-1"><g id="Слой_2" data-name="Слой 2"><g id="layer1"><path class="cls-2" d="M18.24,7.92S20,1.71,23.73.19s8,6.6,6.63,7.34S28,3.7,25.08,2.67C21.46,1.41,23,10.19,18.24,7.92Z"/><path class="cls-3" d="M56.32,32.56v.18s0,0,0,0v.05c-1.22,12.54-13.7,22-28.1,22-.55,0-1.1,0-1.64,0C12.79,54.12,1.1,44.77.07,32.56c-1-11.72,8-22.18,21.29-25h0a33.24,33.24,0,0,1,6.83-.7c.89,0,1.77,0,2.64.1A30.62,30.62,0,0,1,46.3,12.42,2.65,2.65,0,0,0,47,14.19a2.43,2.43,0,0,0,1.93.33A26.07,26.07,0,0,1,51,16.73v0A22.1,22.1,0,0,1,56.25,28.3,20.87,20.87,0,0,1,56.32,32.56Z"/><path class="cls-4" d="M56.45,31.57c0,.4-.08.79-.14,1.17,0,0,0,0,0,0v.05c-1.69,12-13,20.92-26,20.92h-.68C17.69,53.46,7.35,45.58,5,34.79c0-.22-.09-.44-.13-.66h0a23.88,23.88,0,0,1-.34-2.56c-.75-10.67,6.24-20.3,16.88-24h0a27.22,27.22,0,0,1,3.75-1A27.71,27.71,0,0,1,30.64,6a27.31,27.31,0,0,1,15.71,4.83s0,.14,0,.36,0,.22,0,.35a6.15,6.15,0,0,0,0,.86A2.65,2.65,0,0,0,47,14.19a2.43,2.43,0,0,0,1.93.33,3.4,3.4,0,0,0,.5-.1,2.44,2.44,0,0,0,.34-.08c.3-.08.48-.15.48-.15a23.27,23.27,0,0,1,5.32,9c.1.33.2.65.27,1a1.27,1.27,0,0,1,.06.18c0,.21.1.42.14.64s.07.33.07.33A21.6,21.6,0,0,1,56.45,31.57Z"/><path class="cls-5" d="M48,31.57c-.5,8.61-8.37,15.26-17.59,15.26a19.34,19.34,0,0,1-3.06-.25c-7.79-1.26-14-7.36-14.31-15A15.81,15.81,0,0,1,21.51,17.1a18.66,18.66,0,0,1,9.07-2.31C40.71,14.79,48.48,22.51,48,31.57Z"/><path class="cls-6" d="M44,32.05c-.39,8.19-7.81,14.53-16.6,14.53h-.1c-7.79-1.26-14-7.36-14.31-15A15.81,15.81,0,0,1,21.51,17.1a17.88,17.88,0,0,1,5.81-1C36.94,16.14,44.4,23.45,44,32.05Z"/><path class="cls-7" d="M5.11,17.09S21-2.33,43.74,9.27c0,0-19.2-11.46-35.47,8.27C8.27,17.54,4.25,19.24,5.11,17.09Z"/><path class="cls-8" d="M44.83,32.29c.09-1.79-6-.46-5.81.73S44.67,35.63,44.83,32.29Z"/><path class="cls-9" d="M39,33c.31-.54,1.76.78,3.46.95s2.05-.61,2.05-.61a2,2,0,0,1-1.29,1.87C42,35.67,39.19,33.44,39,33Z"/><path class="cls-10" d="M40.28,32.43c-.59.51,1.58.66,2.44,0S41.55,31.33,40.28,32.43Z"/><path class="cls-8" d="M28.18,15.21c-3.22.26-.23,5.49.24,5.52S31.42,14.94,28.18,15.21Z"/><path class="cls-9" d="M29.56,18.44s-.82,2-1.31,1.77-1.65-3.31-1.17-4.54-.89-.07-.69,1.8a5.6,5.6,0,0,0,2,3.67C28.9,21.35,29.56,18.44,29.56,18.44Z"/><path class="cls-10" d="M28.86,15.5c-1.23-.12.06,1.77.46,2S30.2,15.64,28.86,15.5Z"/><path class="cls-8" d="M13,32.37s4.35.25,4.63.92-4,2-4,2A29.11,29.11,0,0,1,13,32.37Z"/><path class="cls-9" d="M17.67,33.29s-.46,1-4.1,1.78l.51,1.46S17.31,35.32,17.67,33.29Z"/><path class="cls-10" d="M14.18,32.59c-1.21.59,2.16,1.08,2.45.69S14.65,32.36,14.18,32.59Z"/><path class="cls-8" d="M29.17,46.76c-2.75,0-.33-4.36.2-4.47S32.06,46.76,29.17,46.76Z"/><path class="cls-9" d="M29,42.59s-1.32,2.54-.78,3.52,2.06.27,2.06.27-.38.66-2.43.24S29,42.59,29,42.59Z"/><path class="cls-10" d="M29.78,42.64c-.59-.22-.32,1.42.28,1.53S29.78,42.64,29.78,42.64Z"/><path class="cls-9" d="M32.28,33.06l-1,1.48a4.53,4.53,0,0,1-2.5.61,3.8,3.8,0,0,1-2.89-2.78s-.13,4.84,3,5.69c1.62.43,2.76-.85,3.49-2.21A11.77,11.77,0,0,0,37,34.37C38.86,33.11,32.28,33.06,32.28,33.06Z"/><path class="cls-11" d="M32.33,30.65s5.35.57,6,1.76-7.89,2.4-7.89,2.4A5.92,5.92,0,0,0,32.33,30.65Z"/><path class="cls-12" d="M32.33,30.65s2.15.81,2.09,2-3.71,2.1-3.71,2.1A5.52,5.52,0,0,0,32.33,30.65Z"/><path class="cls-13" d="M34.59,31.21c-.66,0,0,1.53,1,1.77s2.61-.18,2.51-.62S35.48,31.19,34.59,31.21Z"/><path class="cls-9" d="M26.45,33.77c-.68-.35-3.74-7.32.58-13.84,2.41-3.63,1.64,3.52,2,6.69S26.45,33.77,26.45,33.77Z"/><path class="cls-14" d="M27,30.68l-1.15.75s-.71-12.95,2.94-13.89Z"/><path class="cls-11" d="M27,30.68s-.57-9.3,1.29-12.69c1.19-2.16,2.53,3.56,3.16,8.09a37.41,37.41,0,0,1,.35,5A4,4,0,0,0,27,30.68Z"/><path class="cls-15" d="M26,32.05a62,62,0,0,1,0-7.42c.29-2.29.84-3.27,1-3.34s-.13,6.64-.07,7.93L27,30.77Z"/><path class="cls-13" d="M27.83,19.85a9.61,9.61,0,0,0,1.79,7.51c1.91,2.42,1.3-3.07.74-6.28S28.51,16.78,27.83,19.85Z"/><path class="cls-16" d="M32.58,32.13a3.31,3.31,0,1,1-3.29-3.23A3.27,3.27,0,0,1,32.58,32.13Z"/><path class="cls-17" d="M32.58,32.13a3.08,3.08,0,0,1-2.92,3.17,3,3,0,0,1-2.9-3.17,3.08,3.08,0,0,1,2.92-3.23A3,3,0,0,1,32.58,32.13Z"/><path class="cls-18" d="M27.37,30.7c-.21.87,3.89,2,4.65,2.14s.33-2.81-1.42-3.45S27.37,30.7,27.37,30.7Z"/><path class="cls-19" d="M13,31.57c0,.8,7.88-7.13,16.72-7.88s12.6,6.19,15.9,6.53-2-16.79-16.39-15.38S12.83,26.64,13,31.57Z"/><path class="cls-20" d="M31.24,15.5s10.61.27,15.06,10.06c0,0-6.31,3.21-10.52,1S31.24,15.5,31.24,15.5Z"/><path class="cls-20" d="M16.3,38.44c2.73-1.57,10.47,5.15,10.52,6.91S17.41,43.37,16.3,38.44Z"/><path class="cls-21" d="M56,30.09s-4.2,3.42-5.55-2.77C49,20.91,39.74,7.55,21.89,16.37c-17,8.39-5.37,24.2-7.12,24.24S6.15,39.17,5,34.79c0-.22-.09-.44-.13-.66h0C3.34,22.87,11.09,9,30.84,7c.34,0,.69-.08,1-.1h0a19,19,0,0,1,14.39,4.34c0,.11,0,.22,0,.35a6.15,6.15,0,0,0,0,.86A2.65,2.65,0,0,0,47,14.19a2.43,2.43,0,0,0,1.93.33,3.4,3.4,0,0,0,.5-.1A27.6,27.6,0,0,1,51,16.73v0A37.54,37.54,0,0,1,56,30.09Z"/><path class="cls-19" d="M10.21,49c-.12-.61,2.23-1.09,2.71-1s5.31,4.21,11.86,5.78S19.1,55.66,10.21,49Z"/><path class="cls-21" d="M3.73,42.4C3,41.64.42,36.1.62,34.37S3.68,31.92,4,32.05s1.57,6.46,3.86,10.24S3.73,42.4,3.73,42.4Z"/><path class="cls-19" d="M.43,26.65C0,28.94,4,27.74,4.3,27.32s1.41-5.16,2.3-6.85-2.37-.81-2.37-.81S1.49,21.49.43,26.65Z"/><path class="cls-22" d="M56.44,31.57c0,.41-.08.82-.13,1.22v0c-1.22,12.55-13.7,22-28.1,22-.55,0-1.1,0-1.64,0l-.44-.64s1.39-.09,3.51-.4c4.46-.66,12.94-2.38,18.13-6.38,6.1-4.71,8.44-12.57,8.48-19.06a16.55,16.55,0,0,0-.39-3.95A21.65,21.65,0,0,1,56.44,31.57Z"/><path class="cls-23" d="M53.15,36c-.63-3.32-6.33,2.28-12.41,7.71-5.89,5.26-22.3,8-14.13,9.8C31.81,54.63,55.58,48.91,53.15,36Z"/><path class="cls-24" d="M18.31,42.4A17.59,17.59,0,0,0,30.12,48c7.29.27,13.21-6.36,13.21-6.36s-6.07,5.16-13,5.23C23.79,46.9,18.31,42.4,18.31,42.4Z"/><path class="cls-20" d="M32.25,47.14c-1.22-.2,2.21-1.08,3.35-1.25S36.37,48,32.25,47.14Z"/><path class="cls-20" d="M9.9,13.58c-.93,2.25,4.35-2.33,8.65-4.53S11.57,9.53,9.9,13.58Z"/><path class="cls-25" d="M47.36,31.83c-.5,8.46-8.23,15-17.29,15a19.83,19.83,0,0,1-3-.24C19.4,45.35,13.33,39.35,13,31.83A15.58,15.58,0,0,1,21.37,17.6a18.37,18.37,0,0,1,8.91-2.27C40.24,15.33,47.88,22.92,47.36,31.83Z"/><path class="cls-22" d="M46.35,10.85s0,.14,0,.36,0-.48,0-.36a22.87,22.87,0,0,0-2.17-.78,34.75,34.75,0,0,0-12.26-3.2,50.78,50.78,0,0,0-6.8-.31A27.71,27.71,0,0,1,30.64,6,27.31,27.31,0,0,1,46.35,10.85Z"/><path class="cls-20" d="M15,27c-.39-2.56,2.29-5.28,3.79-5.83S15,27,15,27Z"/><path class="cls-26" d="M24,2.47c-.9-.2.9-1.81,2.14-1.51s2.32,2.58,1.93,3.24S25.72,2.25,24,2.47Z"/><path class="cls-10" d="M20.45,3.91c.09,1.15,3.46-2.17,4.62-2.83S22-.58,20.45,3.91Z"/><path class="cls-19" d="M32.82,13.52c-4.65.56,6.67,1.29,11.72,8,4.87,6.45,5,4.16,5,4.16S46.65,14.19,32.82,13.52Z"/><path class="cls-27" d="M5.75,39.5c0-2.2,2.75,0,3.7,2.3S6.66,43.59,5.75,39.5Z"/><path class="cls-28" d="M6.45,40.87c.66,1,2.21.64,2.55.67s-1.17-2.6-2.33-2.87S6.08,40.29,6.45,40.87Z"/><path class="cls-29" d="M7.23,42.33s1,.86,1.81.66.41-1.19.41-1.19S10,43,9.59,43.38,7.58,42.7,7.23,42.33Z"/><path class="cls-30" d="M46.35,10.85s2.65,2.8,3.86,3.34a5.1,5.1,0,0,1-3.07.6C45.64,14.49,46.35,10.85,46.35,10.85Z"/><path class="cls-19" d="M46.31,11.21a4.35,4.35,0,0,1,1.58,2c.24,1.09-.67,1.09-1.33.75S46.31,11.21,46.31,11.21Z"/></g></g></g></svg>