<svg xmlns="http://www.w3.org/2000/svg" xmlns:xlink="http://www.w3.org/1999/xlink" viewBox="0 0 58.08 27.79"><defs><style>.cls-1{isolation:isolate;}.cls-2{fill:url(#Безымянный_градиент_476);}.cls-3{fill:url(#Безымянный_градиент_480);}.cls-4{fill:url(#Безымянный_градиент_459);}.cls-5{fill:url(#Безымянный_градиент_638);}.cls-6{fill:url(#Безымянный_градиент_446);}.cls-7{fill:url(#Безымянный_градиент_459-2);}.cls-8{fill:url(#Безымянный_градиент_458);}.cls-11,.cls-9{fill:#b82774;}.cls-11,.cls-34,.cls-9{mix-blend-mode:multiply;}.cls-9{opacity:0.5;}.cls-10{fill:url(#Безымянный_градиент_458-2);}.cls-11{opacity:0.8;}.cls-12{fill:url(#Безымянный_градиент_458-3);}.cls-13,.cls-14{fill:#ffffdb;}.cls-14,.cls-24{mix-blend-mode:soft-light;}.cls-15{fill:url(#Безымянный_градиент_458-4);}.cls-16{fill:url(#Безымянный_градиент_469);}.cls-17{fill:url(#Безымянный_градиент_476-2);}.cls-18{fill:url(#Безымянный_градиент_480-2);}.cls-19{fill:url(#Безымянный_градиент_459-3);}.cls-20{fill:url(#Безымянный_градиент_638-2);}.cls-21{fill:url(#Безымянный_градиент_476-3);}.cls-22{fill:url(#Безымянный_градиент_458-5);}.cls-23{fill:url(#Безымянный_градиент_458-6);}.cls-24{fill:#ffffb1;opacity:0.3;}.cls-25{fill:url(#Безымянный_градиент_458-7);}.cls-26{fill:url(#Безымянный_градиент_458-8);}.cls-27{fill:url(#Безымянный_градиент_458-9);}.cls-28{fill:url(#Безымянный_градиент_458-10);}.cls-29{fill:url(#Безымянный_градиент_476-4);}.cls-30{fill:url(#Безымянный_градиент_446-2);}.cls-31{fill:url(#Безымянный_градиент_458-11);}.cls-32{fill:url(#Безымянный_градиент_458-12);}.cls-33{fill:url(#Безымянный_градиент_458-13);}.cls-34{fill:#ff6355;opacity:0.2;}</style><linearGradient id="Безымянный_градиент_476" x1="37.01" y1="26.61" x2="37.01" y2="2.7" gradientUnits="userSpaceOnUse"><stop offset="0.05" stop-color="#ff4b00"/><stop offset="1" stop-color="#ff7204"/></linearGradient><linearGradient id="Безымянный_градиент_480" x1="47.66" y1="26.6" x2="47.66" y2="0.73" gradientUnits="userSpaceOnUse"><stop offset="0" stop-color="#ffa200"/><stop offset="1" stop-color="#ffb82f"/></linearGradient><linearGradient id="Безымянный_градиент_459" x1="47.65" y1="24.27" x2="47.65" y2="3.06" gradientUnits="userSpaceOnUse"><stop offset="0" stop-color="#ff7234"/><stop offset="1" stop-color="#ff5e00"/></linearGradient><linearGradient id="Безымянный_градиент_638" x1="47.22" y1="24.23" x2="47.22" y2="3.06" gradientUnits="userSpaceOnUse"><stop offset="0" stop-color="#de0086"/><stop offset="1" stop-color="#ff003b"/></linearGradient><linearGradient id="Безымянный_градиент_446" x1="48.75" y1="13.71" x2="48.75" y2="7.04" gradientUnits="userSpaceOnUse"><stop offset="0" stop-color="#ffa200"/><stop offset="1" stop-color="#ffc234"/></linearGradient><linearGradient id="Безымянный_градиент_459-2" x1="48.75" y1="13.71" x2="48.75" y2="7.04" xlink:href="#Безымянный_градиент_459"/><linearGradient id="Безымянный_градиент_458" x1="42.6" y1="4.28" x2="42.6" gradientUnits="userSpaceOnUse"><stop offset="0" stop-color="#ffde00"/><stop offset="1" stop-color="#ffe834"/></linearGradient><linearGradient id="Безымянный_градиент_458-2" x1="48.19" y1="13.78" x2="48.19" y2="12.62" xlink:href="#Безымянный_градиент_458"/><linearGradient id="Безымянный_градиент_458-3" x1="48.02" y1="18.69" x2="48.02" y2="16.59" xlink:href="#Безымянный_градиент_458"/><linearGradient id="Безымянный_градиент_458-4" x1="40.07" y1="24.01" x2="42.66" y2="24.01" xlink:href="#Безымянный_градиент_458"/><linearGradient id="Безымянный_градиент_469" x1="21.52" y1="25.09" x2="21.52" y2="2.02" gradientUnits="userSpaceOnUse"><stop offset="0" stop-color="#ff5e00"/><stop offset="0.54" stop-color="#ff691c"/><stop offset="1" stop-color="#ffff34"/></linearGradient><linearGradient id="Безымянный_градиент_476-2" x1="15.04" y1="17.33" x2="15.04" y2="2.66" xlink:href="#Безымянный_градиент_476"/><linearGradient id="Безымянный_градиент_480-2" x1="24.74" y1="27.79" x2="24.74" y2="2.3" xlink:href="#Безымянный_градиент_480"/><linearGradient id="Безымянный_градиент_459-3" x1="24.74" y1="24.53" x2="24.74" y2="5.71" xlink:href="#Безымянный_градиент_459"/><linearGradient id="Безымянный_градиент_638-2" x1="24.13" y1="24.07" x2="24.13" y2="6.28" xlink:href="#Безымянный_градиент_638"/><linearGradient id="Безымянный_градиент_476-3" x1="27.88" y1="27.4" x2="27.88" y2="23.03" xlink:href="#Безымянный_градиент_476"/><linearGradient id="Безымянный_градиент_458-5" x1="18.69" y1="7.4" x2="18.69" y2="2.34" xlink:href="#Безымянный_градиент_458"/><linearGradient id="Безымянный_градиент_458-6" x1="27.37" y1="6.78" x2="27.37" y2="2" xlink:href="#Безымянный_градиент_458"/><linearGradient id="Безымянный_градиент_458-7" x1="30.77" y1="16.13" x2="30.77" y2="10.13" xlink:href="#Безымянный_градиент_458"/><linearGradient id="Безымянный_градиент_458-8" x1="19.88" y1="16.13" x2="19.88" y2="12.76" xlink:href="#Безымянный_градиент_458"/><linearGradient id="Безымянный_градиент_458-9" x1="30.13" y1="23.35" x2="32.98" y2="23.35" xlink:href="#Безымянный_градиент_458"/><linearGradient id="Безымянный_градиент_458-10" x1="17.09" y1="23.72" x2="21.08" y2="23.72" xlink:href="#Безымянный_градиент_458"/><linearGradient id="Безымянный_градиент_476-4" x1="4.41" y1="24.59" x2="4.41" y2="9.85" xlink:href="#Безымянный_градиент_476"/><linearGradient id="Безымянный_градиент_446-2" x1="8.91" y1="24.59" x2="8.91" y2="9.64" xlink:href="#Безымянный_градиент_446"/><linearGradient id="Безымянный_градиент_458-11" x1="3.1" y1="15.62" x2="3.1" y2="14.77" xlink:href="#Безымянный_градиент_458"/><linearGradient id="Безымянный_градиент_458-12" x1="7.55" y1="11.28" x2="7.55" y2="9.62" xlink:href="#Безымянный_градиент_458"/><linearGradient id="Безымянный_градиент_458-13" x1="13.92" y1="14.89" x2="13.92" y2="14.45" xlink:href="#Безымянный_градиент_458"/></defs><g class="cls-1"><g id="Слой_2" data-name="Слой 2"><g id="layer1"><path class="cls-2" d="M37.6,2.7s-5,.7-5.49,1.43,1,20.34,1.84,21.45,8.07,1,8.07,1Z"/><path class="cls-3" d="M54.79,1.83C49.85-1.08,37.6,2.7,37.6,2.7c-.83.58-.09,22.39.46,23.06s5.88,1.16,6.37.58.88-5.64.88-5.64,6.48.62,8.61-.95c2.75-2,4.23-6.46,4.16-10.49C58,6.06,57,3.12,54.79,1.83Zm-9.3,6.09c.29-1.25,5.62-1.54,6.59,1.66S47.53,14,46.17,13.66C45.18,13.44,45.19,9.16,45.49,7.92Z"/><path class="cls-4" d="M46.7,16l-.43,0a4.77,4.77,0,0,1-.6-.09,2.9,2.9,0,0,1-1.82-1.32c-1.19-1.9-.89-6.15-.62-7.24.36-1.53,1.93-2.52,4.12-2.64h.47c3.17,0,5.72,1.64,6.49,4.19a4.56,4.56,0,0,1-.7,4.12C52,15.23,48.58,16,46.7,16Zm9-7.19c-.13-2.43-.92-4.31-2.13-5a8.5,8.5,0,0,0-4.21-.77H49a44,44,0,0,0-9.32,1.49c0,.64-.06,1.49-.07,2.49-.06,5.06.25,13.82.56,17,.43.08,1,.15,1.56.2.3,0,.6,0,.89,0,.16-1,.32-2.49.42-3.75l.19-2.27v-.08l2.35.22.77.05c.36,0,.81,0,1.32,0h.52c2.82,0,4.11-.41,4.4-.63,2-1.44,3.3-5.09,3.21-8.64C55.75,9.11,55.75,9,55.74,8.85Z"/><path class="cls-5" d="M54.85,8.85c-.13-2.43-.93-4.31-2.13-5A7.78,7.78,0,0,0,49,3.06h0a44,44,0,0,0-9.32,1.49c-.24,3.87.11,15.68.49,19.48.43.08,1,.15,1.56.2.16-1,.32-2.47.42-3.71l.19-2.35.89.08,1.46.14.77.05c.47,0,1.12.06,1.84.06h.51a9.26,9.26,0,0,0,3.88-.62C53.75,16.59,55.13,14.47,54.85,8.85ZM53.61,13c-1.65,2.2-5,3-6.91,3l-.43,0-.46,0a4.55,4.55,0,0,1-1-.11A2.88,2.88,0,0,1,43,14.61c-1.19-1.9-.89-6.15-.63-7.24.39-1.63,2.15-2.65,4.59-2.65h.9c3.17,0,5.72,1.64,6.49,4.19A4.56,4.56,0,0,1,53.61,13Z"/><path class="cls-6" d="M46.17,13.66c-1-.22-1-4.5-.68-5.74s5.62-1.54,6.59,1.66S47.53,14,46.17,13.66Z"/><path class="cls-7" d="M46.17,13.66c-1-.22-1-4.5-.68-5.74s5.62-1.54,6.59,1.66S47.53,14,46.17,13.66Z"/><path class="cls-8" d="M31.76,4.28s9.91-7.07,21.67-3c0,0-6.3-1.14-16,2.16A16.57,16.57,0,0,0,31.76,4.28Z"/><path class="cls-9" d="M45.7,7.59c-.38,1.87-.39,4.57.44,4s2.64.88,4.46.38,2-3.45-.73-4.59S45.7,7.59,45.7,7.59Z"/><path class="cls-9" d="M32.92,4.87C33.66,2.2,37.3,10.5,37,17.33s-2.48,8.31-3.28,7.6S32.31,7.06,32.92,4.87Z"/><path class="cls-9" d="M35.26,26.14c-1.13-.4,2.19-.28,3.63,0s3.39.47,3.39.47A38.49,38.49,0,0,1,35.26,26.14Z"/><path class="cls-9" d="M58.08,9.26c.07,4-1.41,8.46-4.16,10.49-2.13,1.57-8.61.95-8.61.95s5.88.09,7.8-1.09C56.46,17.55,57.51,13.5,58.08,9.26Z"/><path class="cls-10" d="M45.79,13.3s1.43.94,4.81-.68a5.87,5.87,0,0,1-1.32.67C48,13.75,46.26,14.1,45.79,13.3Z"/><path class="cls-11" d="M55.75,9.23c-.11.32-.25.49-.4.42-.81-.34-.36-5.76-5.91-6.08S40,8,39.56,7c0-1,0-1.85.07-2.49A44,44,0,0,1,49,3.06h.45a8.5,8.5,0,0,1,4.21.77c1.21.71,2,2.59,2.13,5C55.75,9,55.75,9.11,55.75,9.23Z"/><path class="cls-11" d="M43.12,14.85s1.51,1.49,4.85,1.09A10.19,10.19,0,0,0,53.61,13,7.35,7.35,0,0,1,48,17C44,17.37,43.12,14.85,43.12,14.85Z"/><path class="cls-12" d="M42.29,18.17a28.4,28.4,0,0,0,7.19.47c3.89-.26,4.27-2.05,4.27-2.05S50.67,19.45,42.29,18.17Z"/><path class="cls-13" d="M35.42,3.48a9.86,9.86,0,0,0,2,.18,19.88,19.88,0,0,0,2.17-.93A5.73,5.73,0,0,0,35.42,3.48Z"/><path class="cls-14" d="M43.18,18.25c-.44,0,0,1.25.11,1.38s1.52-.61,1.34-.94S43.65,18.25,43.18,18.25Z"/><path class="cls-15" d="M40.09,23.72a10.29,10.29,0,0,0,1.69.35c.73.06.88-.35.88-.35a1.43,1.43,0,0,1-.09.55,11.86,11.86,0,0,1-2.39-.2C40,24,40.09,23.72,40.09,23.72Z"/><path class="cls-16" d="M31.23,2.31S17.81,24.61,15.37,25.08a.25.25,0,0,1-.23,0,3.37,3.37,0,0,1-.29-.37c-1.36-1.76-3.31-3.49-3-4.53a55.08,55.08,0,0,1,4-5.49c2.13-2.72,4.71-5.92,6.7-8.33A43.3,43.3,0,0,1,25.76,2.7C26.59,2.22,29.91,1.67,31.23,2.31Z"/><path class="cls-17" d="M17.88,2.67S15,2.52,13.7,3.35s-4.3,5.27-4.08,7,7,6.24,7,6.24l3.85.71L14.2,9.57,18.14,2.7Z"/><path class="cls-18" d="M36,11.63a52.55,52.55,0,0,1-4.09,4.6,27.47,27.47,0,0,1,3.88,5.15c.92,2.58-2.65,5.24-4.23,6-.61.3-3.34-1.71-6.49-4.36-.8.75-1.58,1.45-2.29,2.08a.53.53,0,0,0-.12.1l-.18.15C20.65,27,19.24,28,18.8,27.77A10.65,10.65,0,0,1,15.14,25a3.37,3.37,0,0,1-.29-.37l-.21-.34A3,3,0,0,1,14.26,22a28.78,28.78,0,0,1,3.64-5.38c-.74-.69-1.43-1.35-2-1.94a24.26,24.26,0,0,1-2.29-2.43c-2.6-4,2.74-9.11,4.31-9.55.48-.13,2.34,1.4,4.68,3.65.68.65,1.4,1.36,2.13,2.1,3.12-3.5,5.89-6.26,6.53-6.11C32.81,2.66,38.41,7.45,36,11.63Z"/><path class="cls-19" d="M33.69,9.62h0a1.55,1.55,0,0,1-.16.5c-.28.37-1.48,1.76-3.7,4.09L28,16.13l1.72,2A37.69,37.69,0,0,1,33,22.3a5.46,5.46,0,0,1-1.74,1.87l-.66-.45c-.78-.56-1.95-1.47-3.66-2.91l-2-1.66-.58.54L23.1,20.91a49.4,49.4,0,0,1-4.17,3.62c-.22-.15-.43-.3-.63-.46a4.12,4.12,0,0,1-1.21-1.31,36.64,36.64,0,0,1,3.1-4.39l1.63-2.08-1.93-1.81C17.55,12.27,16.28,11,16,10.6a1.74,1.74,0,0,1-.1-1.42,6.74,6.74,0,0,1,1.54-2.53c.19-.21.38-.4.56-.57.89.74,2.41,2.1,4.66,4.38L24.17,12l.65.65,2.05-2.31c1.71-1.91,3-3.22,3.84-4.07l.6-.57a7.48,7.48,0,0,1,2.25,3A2.14,2.14,0,0,1,33.69,9.62Z"/><path class="cls-20" d="M28.6,14.22l-1.82,1.91,1.72,2a40.3,40.3,0,0,1,3.31,4.18,4.34,4.34,0,0,1-1.18,1.42c-.78-.56-1.95-1.47-3.66-2.91l-2-1.66H23.76l-1.88,1.76c-1.68,1.58-2.83,2.56-3.58,3.16a4.12,4.12,0,0,1-1.21-1.31,36.64,36.64,0,0,1,3.1-4.39l1.63-2.08-1.93-1.81C17.55,12.27,16.28,11,16,10.6a1.74,1.74,0,0,1-.1-1.42,6.74,6.74,0,0,1,1.54-2.53c.91.8,2.22,2,4,3.81l2.18,2.2h1.23l2.05-2.31c1.71-1.91,3-3.22,3.84-4.07a6.69,6.69,0,0,1,1.63,2.41,1.68,1.68,0,0,1,0,1.44C32,10.5,30.83,11.89,28.6,14.22Z"/><path class="cls-21" d="M24.19,23.87s4.25,2.92,7.39,3.53A22.26,22.26,0,0,1,25.09,23Z"/><path class="cls-22" d="M13.7,3.35A7.24,7.24,0,0,1,17.2,3c2.37.2,6.49,4.39,6.49,4.39s-4-4.3-5.5-4.91S13.7,3.35,13.7,3.35Z"/><path class="cls-23" d="M25.58,2.7s-2.21,2.5-2.06,3.38,1.88,1.1,3.62-.31S31.23,2.3,31.23,2.3,29.07,1.41,25.58,2.7Z"/><path class="cls-9" d="M9.87,11c.47-2.39,8,5.62,8,5.62a7.39,7.39,0,0,1-2.42-.75C14.76,15.33,11,12.81,9.87,11Z"/><path class="cls-9" d="M24.19,23.87s1-.75,1.34-.45a32.11,32.11,0,0,1,3.35,3.08C28.88,26.75,24.19,23.87,24.19,23.87Z"/><path class="cls-9" d="M22.5,25.37C20.65,27,19.24,28,18.8,27.77A10.65,10.65,0,0,1,15.14,25a3.37,3.37,0,0,1-.29-.37c-1.36-1.76-3.31-3.49-3-4.53a19.75,19.75,0,0,0,2.79,4.19c.23.26.48.51.73.75l.41.37A5.31,5.31,0,0,0,22.5,25.37Z"/><path class="cls-24" d="M10.08,9.4c.07,1.17,2,1.11,2.4.6s.17-1.94,2.34-4.79S11.92,1.88,10.08,9.4Z"/><path class="cls-25" d="M28,16.13s5.36-5.51,5.52-6A22.72,22.72,0,0,1,28,16.13Z"/><path class="cls-26" d="M18.1,12.76s2.35,3.11,3.55,3.37Z"/><path class="cls-11" d="M33.69,9.62h0s-1,.69-1.22.37-.14-2.76-2.42-2.07-4.42,6.72-5.31,6.51-3.33-4-4.87-4.92S16.6,7.69,16,10.6a1.74,1.74,0,0,1-.1-1.42,6.74,6.74,0,0,1,1.54-2.53c.19-.21.38-.4.56-.57.89.74,2.41,2.1,4.66,4.38L24.17,12l.65.65,2.05-2.31c1.71-1.91,3-3.22,3.84-4.07l.6-.57a7.48,7.48,0,0,1,2.25,3A2.14,2.14,0,0,1,33.69,9.62Z"/><path class="cls-13" d="M30.73,2.14c-.75.58,1,1.16,1.6,1.15S31.73,2.26,30.73,2.14Z"/><path class="cls-13" d="M17.07,2.62c-1.08.23-1,.88-.55,1.06s2.36-.08,2.34-.39S18,2.43,17.07,2.62Z"/><path class="cls-14" d="M24.86,19.38c-.28,0-1.68,1.69.64,1.2C26.14,20.45,25.69,19.38,24.86,19.38Z"/><path class="cls-27" d="M30.13,23.35a5,5,0,0,0,1.1.92c.42.19,1.75-1.85,1.75-1.85s-.89,1.24-1.43,1.43S30.13,23.35,30.13,23.35Z"/><path class="cls-28" d="M17.09,22.76a6.22,6.22,0,0,0,1.53,1.83c.84.57,2.46-1.83,2.46-1.83s-1.54,1.53-2.19,1.53S17.09,22.76,17.09,22.76Z"/><path class="cls-29" d="M8.83,24.59H8.3c-1,0-2.87-.15-3.1-.52a8.25,8.25,0,0,1-.42-1.86c-.15-1-.28-2-.3-2.21v0H4.1c-1,0-3.81,0-3.95-.31s-.31-3.8.31-4.08A22.9,22.9,0,0,1,3.89,15H4l.1,0h0c0-.16-.67-3.15-.32-3.9S6.33,9.93,7,9.85L8.78,24.24Z"/><path class="cls-30" d="M16.36,17.33h0c-.2,1.18-.69,2.32-1.46,2.5a27.69,27.69,0,0,1-3.24.2,25.16,25.16,0,0,1-.37,3.06,1.59,1.59,0,0,1-.12.44c-.39.89-1.55,1.09-2.58,1H8.3a5.46,5.46,0,0,1-1.15-.22A.21.21,0,0,1,7,24.24,14,14,0,0,1,6.18,20C5.58,20,5,20,4.48,20h0c-1.51-.1-2.58-.27-2.69-.53-.37-.92-.85-3.35.49-4.08A6.36,6.36,0,0,1,3.89,15H4l.1,0,1.66-.18a26.4,26.4,0,0,1-.08-3.46A1.83,1.83,0,0,1,7,9.85a7.12,7.12,0,0,1,4.44.41c.32.16.44,2,.45,4.21,2.45,0,3.9,0,4.19.18S16.56,16.15,16.36,17.33Z"/><path class="cls-31" d="M.45,15.56A3.29,3.29,0,0,0,2,15.48a29.19,29.19,0,0,1,3.71-.71A24.8,24.8,0,0,0,.45,15.56Z"/><path class="cls-32" d="M3.7,11.28c.64-.92,5.31-2,7.7-1,0,0-1.05-.78-4-.62S3.65,10.84,3.7,11.28Z"/><path class="cls-9" d="M.15,19.64s2.16.2,4,.31C3.08,20,.29,19.94.15,19.64Z"/><path class="cls-9" d="M6.18,20s0,2.9-.52,3.14c-.24.13-.59-.41-.88-1-.15-1-.28-2-.3-2.21C5.22,20,5.85,20.05,6.18,20Z"/><path class="cls-9" d="M11.29,23.1a1.59,1.59,0,0,1-.12.44c-.39.89-1.55,1.09-2.58,1H8.3c-1,0-2.87-.15-3.1-.52A16.8,16.8,0,0,0,7,24.24a11.36,11.36,0,0,0,1.75,0A4.91,4.91,0,0,0,10.22,24,2.66,2.66,0,0,0,11.29,23.1Z"/><path class="cls-33" d="M11.85,14.47s.84.15,2.32.35S16,14.77,16,14.77,15.74,14.36,11.85,14.47Z"/><path class="cls-9" d="M16.36,17.34c-.2,1.18-.69,2.32-1.46,2.5a27.69,27.69,0,0,1-3.24.2,15.12,15.12,0,0,0,3.5-.55C15.73,19.14,16.31,17.48,16.36,17.34Z"/><path class="cls-9" d="M3.7,11.28c.41-.53,1.51-.43,1.69-.34a15,15,0,0,1,.14,3.73,2.65,2.65,0,0,1-1.39.1A10.46,10.46,0,0,1,3.7,11.28Z"/><path class="cls-34" d="M1.72,15.84c-.36,1.48,4.41,4.38,7.92,4s5.7-3.68,5.93-4.18-3.59-.75-3.72-.95S11,11,8.91,10.68s-2.36,2.84-2.73,4.21S2.38,14.77,1.72,15.84Z"/><path class="cls-13" d="M5.64,10.52a.69.69,0,0,0,.14,1.18c.23.09.83-1.23.56-1.35A.69.69,0,0,0,5.64,10.52Z"/><path class="cls-13" d="M2,15.48c-.44-.17-.83.69-.61,1.07S3.23,15.91,2,15.48Z"/></g></g></g></svg>