<svg xmlns="http://www.w3.org/2000/svg" xmlns:xlink="http://www.w3.org/1999/xlink" viewBox="0 0 56.14 27.79"><defs><style>.cls-1{isolation:isolate;}.cls-2{fill:url(#Безымянный_градиент_476);}.cls-3{fill:url(#Безымянный_градиент_480);}.cls-4{fill:url(#Безымянный_градиент_459);}.cls-5{fill:url(#Безымянный_градиент_490);}.cls-6{fill:url(#Безымянный_градиент_446);}.cls-7{fill:url(#Безымянный_градиент_459-2);}.cls-8{fill:url(#Безымянный_градиент_458);}.cls-11,.cls-9{fill:#b82774;}.cls-11,.cls-31,.cls-9{mix-blend-mode:multiply;}.cls-9{opacity:0.5;}.cls-10{fill:url(#Безымянный_градиент_458-2);}.cls-11{opacity:0.8;}.cls-12{fill:url(#Безымянный_градиент_458-3);}.cls-13,.cls-14{fill:#ffffdb;}.cls-14,.cls-24{mix-blend-mode:soft-light;}.cls-15{fill:url(#Безымянный_градиент_458-4);}.cls-16{fill:url(#Безымянный_градиент_469);}.cls-17{fill:url(#Безымянный_градиент_476-2);}.cls-18{fill:url(#Безымянный_градиент_480-2);}.cls-19{fill:url(#Безымянный_градиент_459-3);}.cls-20{fill:url(#Безымянный_градиент_490-2);}.cls-21{fill:url(#Безымянный_градиент_476-3);}.cls-22{fill:url(#Безымянный_градиент_458-5);}.cls-23{fill:url(#Безымянный_градиент_458-6);}.cls-24{fill:#ffffb1;opacity:0.3;}.cls-25{fill:url(#Безымянный_градиент_458-7);}.cls-26{fill:url(#Безымянный_градиент_458-8);}.cls-27{fill:url(#Безымянный_градиент_458-9);}.cls-28{fill:url(#Безымянный_градиент_458-10);}.cls-29{fill:url(#Безымянный_градиент_476-4);}.cls-30{fill:url(#Безымянный_градиент_446-2);}.cls-31{fill:#ff6355;opacity:0.2;}</style><linearGradient id="Безымянный_градиент_476" x1="35.07" y1="26.61" x2="35.07" y2="2.7" gradientUnits="userSpaceOnUse"><stop offset="0.05" stop-color="#ff4b00"/><stop offset="1" stop-color="#ff7204"/></linearGradient><linearGradient id="Безымянный_градиент_480" x1="45.71" y1="26.6" x2="45.71" y2="0.73" gradientUnits="userSpaceOnUse"><stop offset="0" stop-color="#ffa200"/><stop offset="1" stop-color="#ffb82f"/></linearGradient><linearGradient id="Безымянный_градиент_459" x1="45.71" y1="24.27" x2="45.71" y2="3.06" gradientUnits="userSpaceOnUse"><stop offset="0" stop-color="#ff7234"/><stop offset="1" stop-color="#ff5e00"/></linearGradient><linearGradient id="Безымянный_градиент_490" x1="45.28" y1="24.23" x2="45.28" y2="3.06" gradientUnits="userSpaceOnUse"><stop offset="0" stop-color="#902ef6"/><stop offset="1" stop-color="#682eff"/></linearGradient><linearGradient id="Безымянный_градиент_446" x1="46.81" y1="13.71" x2="46.81" y2="7.04" gradientUnits="userSpaceOnUse"><stop offset="0" stop-color="#ffa200"/><stop offset="1" stop-color="#ffc234"/></linearGradient><linearGradient id="Безымянный_градиент_459-2" x1="46.81" y1="13.71" x2="46.81" y2="7.04" xlink:href="#Безымянный_градиент_459"/><linearGradient id="Безымянный_градиент_458" x1="40.66" y1="4.28" x2="40.66" gradientUnits="userSpaceOnUse"><stop offset="0" stop-color="#ffde00"/><stop offset="1" stop-color="#ffe834"/></linearGradient><linearGradient id="Безымянный_градиент_458-2" x1="46.25" y1="13.78" x2="46.25" y2="12.62" xlink:href="#Безымянный_градиент_458"/><linearGradient id="Безымянный_градиент_458-3" x1="46.08" y1="18.69" x2="46.08" y2="16.59" xlink:href="#Безымянный_градиент_458"/><linearGradient id="Безымянный_градиент_458-4" x1="38.12" y1="23.91" x2="40.68" y2="23.91" xlink:href="#Безымянный_градиент_458"/><linearGradient id="Безымянный_градиент_469" x1="19.58" y1="25.09" x2="19.58" y2="2.02" gradientUnits="userSpaceOnUse"><stop offset="0" stop-color="#ff5e00"/><stop offset="0.54" stop-color="#ff691c"/><stop offset="1" stop-color="#ffff34"/></linearGradient><linearGradient id="Безымянный_градиент_476-2" x1="13.1" y1="17.33" x2="13.1" y2="2.66" xlink:href="#Безымянный_градиент_476"/><linearGradient id="Безымянный_градиент_480-2" x1="22.8" y1="27.79" x2="22.8" y2="2.3" xlink:href="#Безымянный_градиент_480"/><linearGradient id="Безымянный_градиент_459-3" x1="22.8" y1="24.53" x2="22.8" y2="5.71" xlink:href="#Безымянный_градиент_459"/><linearGradient id="Безымянный_градиент_490-2" x1="22.19" y1="24.07" x2="22.19" y2="6.28" xlink:href="#Безымянный_градиент_490"/><linearGradient id="Безымянный_градиент_476-3" x1="25.94" y1="27.4" x2="25.94" y2="23.03" xlink:href="#Безымянный_градиент_476"/><linearGradient id="Безымянный_градиент_458-5" x1="16.75" y1="7.4" x2="16.75" y2="2.34" xlink:href="#Безымянный_градиент_458"/><linearGradient id="Безымянный_градиент_458-6" x1="25.43" y1="6.78" x2="25.43" y2="2" xlink:href="#Безымянный_градиент_458"/><linearGradient id="Безымянный_градиент_458-7" x1="28.83" y1="16.13" x2="28.83" y2="10.13" xlink:href="#Безымянный_градиент_458"/><linearGradient id="Безымянный_градиент_458-8" x1="17.93" y1="16.13" x2="17.93" y2="12.76" xlink:href="#Безымянный_градиент_458"/><linearGradient id="Безымянный_градиент_458-9" x1="15.15" y1="23.64" x2="17.93" y2="23.64" xlink:href="#Безымянный_градиент_458"/><linearGradient id="Безымянный_градиент_458-10" x1="28.24" y1="23.19" x2="31.09" y2="23.19" xlink:href="#Безымянный_градиент_458"/><linearGradient id="Безымянный_градиент_476-4" x1="2.8" y1="20.34" x2="2.8" y2="13.14" xlink:href="#Безымянный_градиент_476"/><linearGradient id="Безымянный_градиент_446-2" x1="7.74" y1="20.35" x2="7.74" y2="12.91" xlink:href="#Безымянный_градиент_446"/></defs><g class="cls-1"><g id="Слой_2" data-name="Слой 2"><g id="layer1"><path class="cls-2" d="M35.66,2.7s-5,.7-5.49,1.43,1,20.34,1.84,21.45,8.06,1,8.06,1Z"/><path class="cls-3" d="M52.85,1.83c-4.94-2.91-17.19.87-17.19.87-.83.58-.1,22.39.46,23.06s5.88,1.16,6.37.58.88-5.64.88-5.64,6.48.62,8.61-.95c2.74-2,4.23-6.46,4.16-10.49C56.09,6.06,55,3.12,52.85,1.83Zm-9.3,6.09c.29-1.25,5.62-1.54,6.59,1.66S45.59,14,44.23,13.66C43.24,13.44,43.25,9.16,43.55,7.92Z"/><path class="cls-4" d="M44.76,16l-.43,0a4.77,4.77,0,0,1-.6-.09,2.9,2.9,0,0,1-1.82-1.32c-1.19-1.9-.89-6.15-.63-7.24.37-1.53,1.93-2.52,4.13-2.64h.47c3.17,0,5.72,1.64,6.49,4.19a4.56,4.56,0,0,1-.7,4.12C50,15.23,46.64,16,44.76,16Zm9-7.19c-.13-2.43-.92-4.31-2.13-5a8.5,8.5,0,0,0-4.21-.77H47a43.92,43.92,0,0,0-9.31,1.49c0,.64-.06,1.49-.07,2.49-.06,5.06.25,13.82.55,17,.44.08,1,.15,1.57.2.3,0,.6,0,.89,0,.16-1,.32-2.49.42-3.75l.19-2.27v-.08l2.35.22.77.05c.35,0,.81,0,1.32,0h.52c2.82,0,4.11-.41,4.4-.63,1.95-1.44,3.3-5.09,3.21-8.64C53.81,9.11,53.81,9,53.8,8.85Z"/><path class="cls-5" d="M52.91,8.85c-.13-2.43-.93-4.31-2.13-5a7.78,7.78,0,0,0-3.73-.77h0a43.92,43.92,0,0,0-9.31,1.49c-.24,3.87.11,15.68.48,19.48.44.08,1,.15,1.57.2.16-1,.32-2.47.42-3.71l.19-2.35.89.08,1.46.14.76.05c.48,0,1.13.06,1.85.06h.51a9.26,9.26,0,0,0,3.88-.62C51.81,16.59,53.19,14.47,52.91,8.85ZM51.67,13c-1.65,2.2-5,3-6.91,3l-.43,0-.46,0a4.55,4.55,0,0,1-1-.11A2.88,2.88,0,0,1,41,14.61c-1.19-1.9-.89-6.15-.63-7.24.39-1.63,2.15-2.65,4.59-2.65h.9c3.17,0,5.72,1.64,6.49,4.19A4.56,4.56,0,0,1,51.67,13Z"/><path class="cls-6" d="M44.23,13.66c-1-.22-1-4.5-.68-5.74s5.62-1.54,6.59,1.66S45.59,14,44.23,13.66Z"/><path class="cls-7" d="M44.23,13.66c-1-.22-1-4.5-.68-5.74s5.62-1.54,6.59,1.66S45.59,14,44.23,13.66Z"/><path class="cls-8" d="M29.82,4.28s9.91-7.07,21.67-3c0,0-6.3-1.14-16,2.16A16.57,16.57,0,0,0,29.82,4.28Z"/><path class="cls-9" d="M43.76,7.59c-.38,1.87-.39,4.57.44,4s2.64.88,4.46.38,2-3.45-.73-4.59S43.76,7.59,43.76,7.59Z"/><path class="cls-9" d="M31,4.87c.74-2.67,4.38,5.63,4.09,12.46s-2.48,8.31-3.29,7.6S30.37,7.06,31,4.87Z"/><path class="cls-9" d="M33.32,26.14c-1.13-.4,2.19-.28,3.63,0s3.39.47,3.39.47A38.49,38.49,0,0,1,33.32,26.14Z"/><path class="cls-9" d="M56.14,9.26c.07,4-1.42,8.46-4.16,10.49-2.13,1.57-8.61.95-8.61.95s5.88.09,7.8-1.09C54.52,17.55,55.57,13.5,56.14,9.26Z"/><path class="cls-10" d="M43.85,13.3s1.43.94,4.81-.68a5.81,5.81,0,0,1-1.33.67C46.09,13.75,44.32,14.1,43.85,13.3Z"/><path class="cls-11" d="M53.81,9.23c-.11.32-.25.49-.4.42C52.6,9.31,53,3.89,47.5,3.57S38,8,37.62,7c0-1,0-1.85.07-2.49A43.92,43.92,0,0,1,47,3.06h.46a8.5,8.5,0,0,1,4.21.77c1.21.71,2,2.59,2.13,5C53.81,9,53.81,9.11,53.81,9.23Z"/><path class="cls-11" d="M41.18,14.85s1.51,1.49,4.85,1.09A10.19,10.19,0,0,0,51.67,13,7.35,7.35,0,0,1,46,17C42,17.37,41.18,14.85,41.18,14.85Z"/><path class="cls-12" d="M40.35,18.17a28.33,28.33,0,0,0,7.19.47c3.89-.26,4.27-2.05,4.27-2.05S48.73,19.45,40.35,18.17Z"/><path class="cls-13" d="M33.48,3.48a9.78,9.78,0,0,0,2,.18,19.88,19.88,0,0,0,2.17-.93A5.73,5.73,0,0,0,33.48,3.48Z"/><path class="cls-14" d="M41.24,18.25c-.44,0,0,1.25.11,1.38s1.52-.61,1.34-.94S41.71,18.25,41.24,18.25Z"/><path class="cls-15" d="M38.12,23.47a2.51,2.51,0,0,0,1.46.74c.92.12,1.1-.21,1.1-.21l0,.27a9.58,9.58,0,0,1-1.78.06c-.65-.07-.68-.3-.68-.3Z"/><path class="cls-16" d="M29.29,2.31S15.87,24.61,13.43,25.08a.25.25,0,0,1-.23,0,3.37,3.37,0,0,1-.29-.37c-1.36-1.76-3.31-3.49-3-4.53a55.08,55.08,0,0,1,4-5.49c2.13-2.72,4.71-5.92,6.7-8.33A43.3,43.3,0,0,1,23.82,2.7C24.65,2.22,28,1.67,29.29,2.31Z"/><path class="cls-17" d="M15.94,2.67s-2.86-.15-4.18.68-4.3,5.27-4.08,7,7,6.24,7,6.24l3.85.71L12.26,9.57,16.2,2.7Z"/><path class="cls-18" d="M34.08,11.63A52.55,52.55,0,0,1,30,16.23a27.47,27.47,0,0,1,3.88,5.15c.92,2.58-2.65,5.24-4.23,6-.62.3-3.34-1.71-6.49-4.36-.8.75-1.58,1.45-2.29,2.08a.53.53,0,0,0-.12.1l-.19.15C18.71,27,17.3,28,16.86,27.77A10.65,10.65,0,0,1,13.2,25a3.37,3.37,0,0,1-.29-.37l-.21-.34A3,3,0,0,1,12.32,22,28.78,28.78,0,0,1,16,16.59c-.74-.69-1.43-1.35-2-1.94a24.26,24.26,0,0,1-2.29-2.43C9,8.18,14.38,3.11,16,2.67c.48-.13,2.34,1.4,4.68,3.65.68.65,1.4,1.36,2.13,2.1,3.12-3.5,5.89-6.26,6.53-6.11C30.87,2.66,36.47,7.45,34.08,11.63Z"/><path class="cls-19" d="M31.75,9.62h0a1.55,1.55,0,0,1-.16.5c-.28.37-1.48,1.76-3.7,4.09l-1.82,1.91,1.72,2a39.24,39.24,0,0,1,3.3,4.18,5.52,5.52,0,0,1-1.75,1.87l-.65-.45c-.78-.56-2-1.47-3.66-2.91l-2-1.66-.58.54-1.31,1.22A49.4,49.4,0,0,1,17,24.53c-.23-.15-.43-.3-.63-.46a4.12,4.12,0,0,1-1.21-1.31,36.64,36.64,0,0,1,3.1-4.39l1.62-2.08L18,14.48C15.61,12.27,14.34,11,14,10.6a1.74,1.74,0,0,1-.1-1.42,6.62,6.62,0,0,1,1.54-2.53c.19-.21.38-.4.56-.57.89.74,2.4,2.1,4.65,4.38L22.23,12l.64.65,2.06-2.31c1.71-1.91,3-3.22,3.84-4.07l.6-.57a7.48,7.48,0,0,1,2.25,3A2.3,2.3,0,0,1,31.75,9.62Z"/><path class="cls-20" d="M26.66,14.22l-1.82,1.91,1.72,2a40.3,40.3,0,0,1,3.31,4.18,4.34,4.34,0,0,1-1.18,1.42c-.78-.56-2-1.47-3.66-2.91l-2-1.66H21.82l-1.88,1.76c-1.68,1.58-2.83,2.56-3.58,3.16a4.12,4.12,0,0,1-1.21-1.31,36.64,36.64,0,0,1,3.1-4.39l1.62-2.08L18,14.48C15.61,12.27,14.34,11,14,10.6a1.74,1.74,0,0,1-.1-1.42,6.62,6.62,0,0,1,1.54-2.53c.91.8,2.22,2,4,3.81l2.18,2.2h1.22l2.06-2.31c1.71-1.91,3-3.22,3.84-4.07A6.69,6.69,0,0,1,30.4,8.69a1.68,1.68,0,0,1,0,1.44C30.08,10.5,28.89,11.89,26.66,14.22Z"/><path class="cls-21" d="M22.25,23.87s4.25,2.92,7.39,3.53A22.26,22.26,0,0,1,23.15,23Z"/><path class="cls-22" d="M11.76,3.35A7.24,7.24,0,0,1,15.26,3c2.36.2,6.49,4.39,6.49,4.39s-4-4.3-5.5-4.91S11.76,3.35,11.76,3.35Z"/><path class="cls-23" d="M23.64,2.7s-2.21,2.5-2.06,3.38,1.88,1.1,3.62-.31S29.29,2.3,29.29,2.3,27.12,1.41,23.64,2.7Z"/><path class="cls-9" d="M7.93,11c.47-2.39,8,5.62,8,5.62a7.39,7.39,0,0,1-2.42-.75C12.82,15.33,9.05,12.81,7.93,11Z"/><path class="cls-9" d="M22.25,23.87s1-.75,1.34-.45a32.11,32.11,0,0,1,3.35,3.08C26.94,26.75,22.25,23.87,22.25,23.87Z"/><path class="cls-9" d="M20.55,25.37C18.71,27,17.3,28,16.86,27.77A10.65,10.65,0,0,1,13.2,25a3.37,3.37,0,0,1-.29-.37c-1.36-1.76-3.31-3.49-3-4.53a19.75,19.75,0,0,0,2.79,4.19c.23.26.48.51.73.75l.41.37A5.3,5.3,0,0,0,20.55,25.37Z"/><path class="cls-24" d="M8.14,9.4c.07,1.17,2,1.11,2.4.6s.17-1.94,2.34-4.79S10,1.88,8.14,9.4Z"/><path class="cls-25" d="M26.07,16.13s5.36-5.51,5.52-6A22.72,22.72,0,0,1,26.07,16.13Z"/><path class="cls-26" d="M16.16,12.76s2.35,3.11,3.55,3.37Z"/><path class="cls-11" d="M31.75,9.62h0s-1,.69-1.22.37-.14-2.76-2.42-2.07-4.42,6.72-5.31,6.51-3.33-4-4.87-4.92S14.65,7.69,14,10.6a1.74,1.74,0,0,1-.1-1.42,6.62,6.62,0,0,1,1.54-2.53c.19-.21.38-.4.56-.57.89.74,2.4,2.1,4.65,4.38L22.23,12l.64.65,2.06-2.31c1.71-1.91,3-3.22,3.84-4.07l.6-.57a7.48,7.48,0,0,1,2.25,3A2.3,2.3,0,0,1,31.75,9.62Z"/><path class="cls-13" d="M28.79,2.14c-.75.58,1,1.16,1.6,1.15S29.79,2.26,28.79,2.14Z"/><path class="cls-13" d="M15.13,2.62c-1.08.23-1,.88-.55,1.06s2.36-.08,2.34-.39S16,2.43,15.13,2.62Z"/><path class="cls-14" d="M22.92,19.38c-.28,0-1.68,1.69.64,1.2C24.2,20.45,23.75,19.38,22.92,19.38Z"/><path class="cls-27" d="M15.15,22.76A4.71,4.71,0,0,0,16.57,24a1.86,1.86,0,0,0,1.36-.18s-.51.68-.94.74S15.4,23.37,15.15,22.76Z"/><path class="cls-28" d="M28.24,23.39a3,3,0,0,0,1.26.35c.57,0,1.59-1.44,1.59-1.44s-.87,1.64-1.52,1.77S28.24,23.39,28.24,23.39Z"/><path class="cls-29" d="M5.61,20.34l-1.23-.07H4.26A26.67,26.67,0,0,1,.65,19.9c-.12,0-.24-.31-.33-.69a11.05,11.05,0,0,1-.13-4.58c.38-.86,3.13-1.37,3.71-1.47l.11,0,1.54,6.93Z"/><path class="cls-30" d="M13.36,17.46h0a3,3,0,0,1-1.06,2.36,27.4,27.4,0,0,1-6.69.52c-.45,0-.86,0-1.23-.07H4.26c-.75-.08-1.28-.21-1.41-.42a0,0,0,0,1,0,0c-.8-1.24-1.21-5.37,0-6.29a2.68,2.68,0,0,1,1.1-.38l.11,0c2.64-.46,8.3-.23,9,.78A7.45,7.45,0,0,1,13.36,17.46Z"/><path class="cls-9" d="M13.36,17.46a3,3,0,0,1-1.06,2.36,27.4,27.4,0,0,1-6.69.52c-.45,0-.86,0-1.23-.07H4.26A26.67,26.67,0,0,1,.65,19.9c-.12,0-.24-.31-.33-.69a5.48,5.48,0,0,0,2.52.62c.81.1,1.75.18,2.71.24a23.68,23.68,0,0,0,5.57-.17A3.07,3.07,0,0,0,13.36,17.46Z"/><path class="cls-31" d="M2.8,14.07c-1,.53,2.33,2.74,6.28,3.79s4.11-2.67,3.52-3.57S5.23,12.73,2.8,14.07Z"/><path class="cls-13" d="M2.3,14.35C2.05,15.63,4,14.12,4,13.63S2.49,13.38,2.3,14.35Z"/><path class="cls-9" d="M.09,15c.86-1.17,1.77.5,1.9,2.56S.84,19.91.6,19.63-.21,17.72.09,15Z"/></g></g></g></svg>