<svg xmlns="http://www.w3.org/2000/svg" xmlns:xlink="http://www.w3.org/1999/xlink" viewBox="0 0 25.71 64.12"><defs><style>.cls-1{isolation:isolate;}.cls-2{fill:url(#Безымянный_градиент_432);}.cls-3{fill:url(#Безымянный_градиент_423);}.cls-4{fill:#ebc3d3;}.cls-30,.cls-5,.cls-7{fill:#9a376d;}.cls-13,.cls-15,.cls-19,.cls-22,.cls-30,.cls-5,.cls-7{mix-blend-mode:multiply;}.cls-13,.cls-16,.cls-22,.cls-5,.cls-6{opacity:0.5;}.cls-6{fill:url(#Безымянный_градиент_347);}.cls-15,.cls-7{opacity:0.3;}.cls-8{fill:url(#Безымянный_градиент_375);}.cls-9{fill:#ff7a00;}.cls-10{opacity:0.45;fill:url(#Безымянный_градиент_375-2);}.cls-11{fill:url(#Безымянный_градиент_397);}.cls-12{fill:#b6cc00;}.cls-13{fill:#b10053;}.cls-14{fill:#97001a;}.cls-15,.cls-19{fill:#d42f55;}.cls-16,.cls-18,.cls-20,.cls-33{fill:#fff;}.cls-16,.cls-20,.cls-33{mix-blend-mode:soft-light;}.cls-17{fill:#ffa457;}.cls-19{opacity:0.8;}.cls-21{fill:#ffff91;}.cls-22{fill:#c9d16d;}.cls-23,.cls-24,.cls-25,.cls-26,.cls-27,.cls-28,.cls-29{mix-blend-mode:screen;}.cls-23{fill:url(#Безымянный_градиент_409);}.cls-24{fill:url(#Безымянный_градиент_418);}.cls-25{fill:url(#Безымянный_градиент_418-2);}.cls-26{fill:url(#Безымянный_градиент_418-3);}.cls-27{fill:url(#Безымянный_градиент_418-4);}.cls-28{fill:url(#Безымянный_градиент_418-5);}.cls-29{fill:url(#Безымянный_градиент_418-6);}.cls-30{opacity:0.2;}.cls-31{fill:url(#Безымянный_градиент_648);}.cls-32{fill:url(#Безымянный_градиент_648-2);}.cls-33{opacity:0.6;}.cls-34{fill:#ff6500;}</style><linearGradient id="Безымянный_градиент_432" x1="9.9" y1="60.78" x2="9.9" y2="18.61" gradientTransform="translate(3.1 3.42) rotate(-0.45)" gradientUnits="userSpaceOnUse"><stop offset="0" stop-color="#e8e5ed"/><stop offset="0.05" stop-color="#e5ddea"/><stop offset="0.28" stop-color="#dabbdc"/><stop offset="0.46" stop-color="#d3a7d4"/><stop offset="0.59" stop-color="#d19fd1"/><stop offset="0.64" stop-color="#be92c3"/><stop offset="0.72" stop-color="#a57fb0"/><stop offset="0.81" stop-color="#9272a3"/><stop offset="0.9" stop-color="#886b9b"/><stop offset="1" stop-color="#846898"/></linearGradient><linearGradient id="Безымянный_градиент_423" x1="-3.19" y1="15.31" x2="22.52" y2="15.31" gradientTransform="translate(3.1 3.42) rotate(-0.45)" gradientUnits="userSpaceOnUse"><stop offset="0" stop-color="#9082a9"/><stop offset="0.22" stop-color="#9386ab"/><stop offset="0.42" stop-color="#9d90b3"/><stop offset="0.6" stop-color="#ada3c0"/><stop offset="0.79" stop-color="#c4bcd1"/><stop offset="0.96" stop-color="#e1dde8"/><stop offset="1" stop-color="#e8e5ed"/></linearGradient><linearGradient id="Безымянный_градиент_347" x1="9.67" y1="57.47" x2="9.67" y2="19.93" gradientTransform="translate(3.1 3.42) rotate(-0.45)" gradientUnits="userSpaceOnUse"><stop offset="0" stop-color="#e8e5ed"/><stop offset="0.28" stop-color="#e0d8dd"/><stop offset="0.62" stop-color="#dacfd3"/><stop offset="1" stop-color="#d8cccf"/></linearGradient><linearGradient id="Безымянный_градиент_375" x1="-1.09" y1="4.52" x2="19.79" y2="4.52" gradientTransform="translate(3.1 3.42) rotate(-0.45)" gradientUnits="userSpaceOnUse"><stop offset="0" stop-color="#a71100"/><stop offset="0.39" stop-color="#d83303"/><stop offset="1" stop-color="#ec5c11"/></linearGradient><linearGradient id="Безымянный_градиент_375-2" x1="2.27" y1="16.04" x2="17.45" y2="16.04" xlink:href="#Безымянный_градиент_375"/><linearGradient id="Безымянный_градиент_397" x1="9.61" y1="57.47" x2="9.61" y2="35.37" gradientTransform="translate(3.1 3.42) rotate(-0.45)" gradientUnits="userSpaceOnUse"><stop offset="0" stop-color="#a9de00"/><stop offset="1" stop-color="#54771d"/></linearGradient><linearGradient id="Безымянный_градиент_409" x1="1.15" y1="37.06" x2="7.57" y2="37.06" gradientTransform="translate(3.1 3.42) rotate(-0.45)" gradientUnits="userSpaceOnUse"><stop offset="0.02" stop-color="#0045fe"/><stop offset="1"/></linearGradient><radialGradient id="Безымянный_градиент_418" cx="8.98" cy="46.92" r="2.29" gradientTransform="translate(3.1 3.42) rotate(-0.45)" gradientUnits="userSpaceOnUse"><stop offset="0"/><stop offset="0.98" stop-color="#39ff00"/></radialGradient><radialGradient id="Безымянный_градиент_418-2" cx="9.9" cy="54.44" r="0.82" xlink:href="#Безымянный_градиент_418"/><radialGradient id="Безымянный_градиент_418-3" cx="7.75" cy="39.51" r="0.82" xlink:href="#Безымянный_градиент_418"/><radialGradient id="Безымянный_градиент_418-4" cx="10.88" cy="38.07" r="0.82" xlink:href="#Безымянный_градиент_418"/><radialGradient id="Безымянный_градиент_418-5" cx="10.06" cy="50.17" r="0.82" xlink:href="#Безымянный_градиент_418"/><radialGradient id="Безымянный_градиент_418-6" cx="10.12" cy="56.31" r="0.41" xlink:href="#Безымянный_градиент_418"/><linearGradient id="Безымянный_градиент_648" x1="4.93" y1="23.5" x2="14.38" y2="23.5" gradientTransform="translate(3.1 3.42) rotate(-0.45)" gradientUnits="userSpaceOnUse"><stop offset="0" stop-color="#1d0066"/><stop offset="1" stop-color="#93003b"/></linearGradient><linearGradient id="Безымянный_градиент_648-2" x1="3.93" y1="26.28" x2="15.48" y2="26.28" xlink:href="#Безымянный_градиент_648"/></defs><g class="cls-1"><g id="Слой_2" data-name="Слой 2"><g id="layer1"><path class="cls-2" d="M23.05,33.39c-7.91-4.05-8.61-9.56-3-11.49l-6.87.28L6.27,22c5.6,1.85,5,7.37-2.86,11.55C.21,35.25.35,40.66,2,46.46H2c2.42,8.42,8.07,17.68,11.44,17.65s9-9.63,11.27-18.18h0C26.22,40.24,26.21,35,23.05,33.39ZM3.94,36.91c.95-3.87,4.75-3.55,6.2-6.59s.58-6.31.94-6.51l1.84-.54,1.85.51c.35.19-.47,3.49,1,6.5s5.29,2.63,6.31,6.49-1,19.63-8.9,24C5.26,56.52,3,40.79,3.94,36.91Z"/><path class="cls-3" d="M.22,14c-.67,1,.33,6.52,1.28,8,2.14,3.28,20.86,2.13,22.69.2,1.4-1.49,1.77-7.65,1.37-8.57S.22,14,.22,14Z"/><path class="cls-4" d="M.22,14c-.59,2.3,25,3.59,25.34-.39S1.51,8.9.22,14Z"/><path class="cls-5" d="M4.2,13.74c-.4,1.58,17.09,1.91,17.32-.82S5.08,10.27,4.2,13.74Z"/><path class="cls-6" d="M22.26,41.57c-.52,6.28-3.14,15.94-9,19.25-6.79-3.67-9.44-15.65-9.48-21.5a10.29,10.29,0,0,1,.2-2.41c.95-3.87,4.75-3.55,6.2-6.59s.58-6.31.94-6.51l1.84-.54,1.85.51c.35.19-.47,3.49,1,6.5s5.29,2.63,6.31,6.49A16.55,16.55,0,0,1,22.26,41.57Z"/><path class="cls-7" d="M3.55,15.82c-2.6-.61-1.39,3.35,0,5.58s17.89,2.07,19.34-1.28,0-2.95-6.28-3.13A130,130,0,0,1,3.55,15.82Z"/><path class="cls-5" d="M10,26c.28,1.54.5,4.34,3.27,6.63s3.53-3.76,3.21-6,.72-2.89.72-2.89-6.11.32-7.9.2A7.8,7.8,0,0,1,10,26Z"/><path class="cls-8" d="M4.89,13.74,2,4.26,22.87.79,20.1,13.62S12.51,16.31,4.89,13.74Z"/><path class="cls-9" d="M2,4.26c-2-.73,19.2-5.82,20.73-3.78S12.28,8.1,2,4.26Z"/><path class="cls-10" d="M5.67,16.2c-.91-.22,1.3,4.22,4.69,6s9.41-1.78,10.29-5C20.65,17.19,11,16.76,5.67,16.2Z"/><path class="cls-11" d="M22.26,41.57c-.52,6.28-3.14,15.94-9,19.25-6.79-3.67-9.44-15.65-9.48-21.5C8.21,37.65,17.85,40.05,22.26,41.57Z"/><path class="cls-12" d="M3.74,39.32c-.51,4.45,8.35,2.31,13.1,2s5.15.42,5.42.24S17.91,38.79,13,37.93,3.83,38.52,3.74,39.32Z"/><path class="cls-13" d="M7.05,2.27S15,4,15.86,4.82s-.66,9.84-.66,9.84l1.48-.21s.9-8.94.73-10.06S15.25,2.33,7.05,2.27Z"/><path class="cls-13" d="M6.31,2.47s6.8,1,7.28,2.8-1.19,8-4.07,8.29-5.91-4-5.91-4L3.16,8.06S5.43,12.89,9.27,13,13.05,6.29,13,5.55,9.87,3.13,6.31,2.47Z"/><path class="cls-14" d="M13.66,3.94s2,.3,2.4,1.34-.33,6.24-.19,6.76S18,5.26,17.34,4.14,13.66,3.94,13.66,3.94Z"/><path class="cls-15" d="M15.57,5.53c-.39-.55-1.78.52-1.89,1.13S12.13,12.52,11,13.9s3,2.14,4-.66S15.57,5.53,15.57,5.53Z"/><path class="cls-15" d="M12.4,6.24c-.71-.7-8.21-.57-9-.77S3.91,10.4,7.76,12,13.2,7,12.4,6.24Z"/><path class="cls-16" d="M18.39,3.8a9.38,9.38,0,0,1-2.8-1.27c-.67-.31,5.76-1,6.65-1.64s-.07,1.44-1.62,2.17A6.48,6.48,0,0,1,18.39,3.8Z"/><path class="cls-16" d="M14,5.1c-.53-.17-.92-.5-.33-.7a1.82,1.82,0,0,1,1.56.41C15.25,5,14.23,5.17,14,5.1Z"/><path class="cls-16" d="M12.18,5.39c-.21.13-6.35.24-7.39-.49S9,4,10.66,4.2,12.29,5.33,12.18,5.39Z"/><path class="cls-17" d="M17.1,3.37c-.47.07.5.92.76,1a5.8,5.8,0,0,0,1.87-.77A14.76,14.76,0,0,0,17.1,3.37Z"/><path class="cls-17" d="M13.41,4.76c-.12,0,.06.55.26.62s1-.27,1-.27A7.29,7.29,0,0,0,13.41,4.76Z"/><path class="cls-15" d="M21.41,7.56s-1.36.4-2.81,2.66S17,13.83,17.08,14.1s2.59-.6,2.94-1.18A50.64,50.64,0,0,0,21.41,7.56Z"/><path class="cls-18" d="M14.37,14.94c-5,.5,3.22,1.32,5.82.86s3.32-1.9,3.21-2.34-2.41.52-5,1A23.6,23.6,0,0,1,14.37,14.94Z"/><path class="cls-18" d="M24.64,18.82c-.83-.19-2.84,2.51-3.94,3.58s2.56.26,3.61-1.08S25.07,18.92,24.64,18.82Z"/><path class="cls-18" d="M.83,13.35C.22,14,.89,14.73,2.1,15S2.41,13.34,2,13.2A2,2,0,0,0,.83,13.35Z"/><path class="cls-19" d="M4.43,12.22S7.33,15,13,14.7a9,9,0,0,0,7.77-4.39l-.71,3.31s-8,2.8-15.21.12Z"/><path class="cls-15" d="M18.36,4.56c-.8.53-.91,3.1-.87,3.63S20,6,20.77,4.54s.87-1.55.67-1.62A21.26,21.26,0,0,0,18.36,4.56Z"/><path class="cls-20" d="M6.5,23.74c-2-.33-2.49-5.32-1.74-6.21S13.05,23,12.11,23.7,6.5,23.74,6.5,23.74Z"/><path class="cls-18" d="M2.26,35.48c-.77.25-1.46,4,0,9.28,1.3,4.78,2,5.44,2.44,5.58s-1.35-7.88-1-11.46S2.26,35.48,2.26,35.48Z"/><path class="cls-21" d="M13.29,62.29c-1.8-.06,2.7-2.88,5.17-5.82s1.48.81-.75,3.33S13.68,62.31,13.29,62.29Z"/><path class="cls-18" d="M21.58,33.92c-.54.1.79,1.75,1.26,3.32s1.4-.36,1.21-1.47S21.77,33.89,21.58,33.92Z"/><path class="cls-18" d="M17.21,33.24c-2.6-.1-3.07,4.77-.53,6.59s5.57-1.07,4.95-3.62S17.21,33.24,17.21,33.24Z"/><path class="cls-16" d="M6.71,49.81c0,1.28,3.34,7.71,5.07,9.54s5.83-5,7-8.3S6.6,44.25,6.71,49.81Z"/><path class="cls-22" d="M4.15,44c.24-3.22,2.94-1.5,5.49.48s3-1.39,5.15-2.41a4,4,0,0,1,5.39,1.7c1.17,1.94,1.17,2.66,1.28,2.57s1.27-4.31.8-4.73-6.82-.39-10.18.27-7.33.25-7.95-.89S4.15,44,4.15,44Z"/><path class="cls-5" d="M24.74,45.94c-2.23,8.55-7.85,18.15-11.27,18.18S4.45,54.89,2,46.47c.16.47,5.36,16.21,11.49,16.73C18.9,63.65,24.66,46.2,24.74,45.94Z"/><path class="cls-23" d="M6.29,34.79C3.47,37,4.46,43.42,6.38,46.36s5.05-6.51,4.48-9.75S7.83,33.6,6.29,34.79Z"/><path class="cls-7" d="M4.37,51.31c.31-1,5.14,6.54,7,8.76s-.72,1.85-.72,1.85S5,56.71,4.37,51.31Z"/><path class="cls-7" d="M25,38.53c-1.27-.07-3.42,9.58-4.43,13.25s.13,3.28,1.89-.38S26.83,38.72,25,38.53Z"/><path class="cls-20" d="M3.53,34.54c-1-.39,2.06-1.81,3-2.69S5.82,34.73,3.53,34.54Z"/><path class="cls-24" d="M14.74,50.25A2.29,2.29,0,1,1,12.43,48,2.3,2.3,0,0,1,14.74,50.25Z"/><path class="cls-22" d="M11.78,48.51c-.85.05-.69,2.44.08,3.24s2.26,0,2.12-1.63S11.78,48.51,11.78,48.51Z"/><path class="cls-18" d="M13.2,48.52c-1.08-.22.06,1.61.46,2.24s1-.79.68-1.48A1.5,1.5,0,0,0,13.2,48.52Z"/><path class="cls-18" d="M10.7,50.28A1.53,1.53,0,0,0,11.31,52C11.93,52.5,10.7,50.28,10.7,50.28Z"/><path class="cls-25" d="M14.24,57.77a.82.82,0,0,1-.81.82.8.8,0,0,1-.82-.8.82.82,0,1,1,1.63,0Z"/><path class="cls-22" d="M13.18,57.16c-.3,0-.24.86,0,1.15s.81,0,.76-.58S13.18,57.16,13.18,57.16Z"/><path class="cls-18" d="M13.69,57.16c-.38-.08,0,.57.16.79s.37-.28.25-.52A.52.52,0,0,0,13.69,57.16Z"/><path class="cls-18" d="M12.8,57.78a.53.53,0,0,0,.22.6C13.24,58.57,12.8,57.78,12.8,57.78Z"/><path class="cls-26" d="M12,42.86a.82.82,0,0,1-.81.82.8.8,0,0,1-.82-.8.83.83,0,0,1,.81-.83A.82.82,0,0,1,12,42.86Z"/><path class="cls-22" d="M10.92,42.25c-.31,0-.25.86,0,1.15s.81,0,.76-.58S10.92,42.25,10.92,42.25Z"/><path class="cls-18" d="M11.42,42.25c-.38-.08,0,.57.17.79s.36-.28.24-.52A.52.52,0,0,0,11.42,42.25Z"/><path class="cls-18" d="M10.53,42.87a.55.55,0,0,0,.22.6C11,43.66,10.53,42.87,10.53,42.87Z"/><path class="cls-27" d="M15.09,41.4a.82.82,0,1,1-.82-.81A.82.82,0,0,1,15.09,41.4Z"/><path class="cls-22" d="M14,40.78c-.31,0-.25.87,0,1.15s.81,0,.76-.58S14,40.78,14,40.78Z"/><path class="cls-18" d="M14.54,40.78c-.38-.08,0,.57.17.8s.36-.28.24-.53A.55.55,0,0,0,14.54,40.78Z"/><path class="cls-18" d="M13.65,41.41a.55.55,0,0,0,.22.6C14.09,42.2,13.65,41.41,13.65,41.41Z"/><path class="cls-28" d="M14.37,53.5a.83.83,0,0,1-.81.83.82.82,0,1,1,0-1.63A.8.8,0,0,1,14.37,53.5Z"/><path class="cls-22" d="M13.32,52.89c-.31,0-.25.86,0,1.15s.81,0,.76-.58S13.32,52.89,13.32,52.89Z"/><path class="cls-18" d="M13.82,52.89c-.38-.08,0,.57.17.79s.36-.28.24-.52A.52.52,0,0,0,13.82,52.89Z"/><path class="cls-18" d="M12.93,53.52a.53.53,0,0,0,.22.59C13.37,54.3,12.93,53.52,12.93,53.52Z"/><path class="cls-29" d="M14.06,59.64a.4.4,0,0,1-.4.41.41.41,0,1,1,.4-.41Z"/><path class="cls-22" d="M13.54,59.33c-.15,0-.13.44,0,.58s.4,0,.38-.29S13.54,59.33,13.54,59.33Z"/><path class="cls-18" d="M13.79,59.33c-.19,0,0,.29.08.4s.18-.14.12-.26A.29.29,0,0,0,13.79,59.33Z"/><path class="cls-18" d="M13.35,59.65a.27.27,0,0,0,.1.3C13.56,60,13.35,59.65,13.35,59.65Z"/><path class="cls-20" d="M.61,15.58c-.27.63.24,4,.81,5.44A2.44,2.44,0,0,0,3.31,22.7c.38.1-1.26-3.47-1.78-5.22C.83,15.09.83,15.09.61,15.58Z"/><path class="cls-30" d="M5.12,35.76c-.62,2.89,4.36-.09,7.17.72s1.15-7.27.09-8-1.71,3.22-4,4.25S5.47,34.11,5.12,35.76Z"/><path class="cls-31" d="M9.37,24.62c-1.8,0-2.14,4.51,3.6,4.47,6-.05,4.73-4,4.2-4.25s-.6,0-.6,0a2.75,2.75,0,0,0-.2,1.2c.1.38-1.15,1.2-3.49.9s-2.88-.75-3-1.52S9.37,24.62,9.37,24.62Z"/><path class="cls-32" d="M9.64,27.7S7,28.44,7.26,29.92s7.38,2.69,10.08,1.26c3.2-1.7.13-3.73-.35-3.79s.08.51-.11,1.06c-.58,1.65-5.07,1.58-6.42,1.11s-1.33-.92-1.16-1.14A3.91,3.91,0,0,0,9.64,27.7Z"/><path class="cls-33" d="M13.67,28.77c-1.79,0,1-1.12,2.45-2.11s.17-1.29.66-1.61,1,.57.66,1.84S15.3,28.74,13.67,28.77Z"/><path class="cls-33" d="M12.79,31.57C11.54,30.91,16,30.12,17.11,29s1.86-.08,1.44,1S15.28,32,12.79,31.57Z"/><path class="cls-5" d="M7.71,30.49l-.26.25s1.25,3,5.94,2.43,5.4-2.69,5.4-2.69l-.27-.26S17,31.55,13.44,31.66A11.6,11.6,0,0,1,7.71,30.49Z"/><path class="cls-33" d="M8.35,26.29c.43-.76,2.57,1.59,2.73,2.12S8.32,28.25,8.35,26.29Z"/><path class="cls-33" d="M7.35,30.14c.07-1.07,2.93.9,3.07,1.19S7.82,30.8,7.35,30.14Z"/><path class="cls-34" d="M6.65,12.61a5.21,5.21,0,0,0,3.06,1.23c1.66,0,2.59-2.68,2.59-2.68A5,5,0,0,1,10,13.46C8.53,14,6.65,12.61,6.65,12.61Z"/><path class="cls-34" d="M16.74,13.78s.58-1.56.77-2.4a8.5,8.5,0,0,0-.23-2.64Z"/></g></g></g></svg>