<svg xmlns="http://www.w3.org/2000/svg" xmlns:xlink="http://www.w3.org/1999/xlink" viewBox="0 0 54.37 42.95"><defs><style>.cls-1{isolation:isolate;}.cls-2{fill:url(#Безымянный_градиент_294);}.cls-3{fill:#b3b0ff;}.cls-18,.cls-22,.cls-23,.cls-24,.cls-3,.cls-6,.cls-7,.cls-8,.cls-9{mix-blend-mode:multiply;}.cls-22,.cls-3,.cls-6,.cls-9{opacity:0.2;}.cls-14,.cls-4{fill:#fff;}.cls-10,.cls-11,.cls-12,.cls-13,.cls-16,.cls-20,.cls-21,.cls-4,.cls-5{mix-blend-mode:soft-light;}.cls-5{fill:#8de1ff;}.cls-6{fill:#a69ce7;}.cls-7{fill:#635ec0;}.cls-18,.cls-23,.cls-7,.cls-8{opacity:0.4;}.cls-8{fill:#3340c0;}.cls-23,.cls-9{fill:#905ec0;}.cls-10{fill:#4068ff;}.cls-11{fill:#81f2ff;}.cls-12{fill:#dbf2ff;}.cls-13,.cls-16{fill:#fff2ff;}.cls-13,.cls-24{opacity:0.5;}.cls-15{fill:#dfe5ff;}.cls-17{fill:#dde3ff;}.cls-18{fill:#72acef;}.cls-19{fill:#c7d1ff;}.cls-20{fill:#8dffff;}.cls-21{fill:#8dcaff;}.cls-22{fill:#959cc0;}.cls-24{fill:#5e2e84;}</style><linearGradient id="Безымянный_градиент_294" x1="27.18" y1="42.95" x2="27.18" y2="0.02" gradientUnits="userSpaceOnUse"><stop offset="0" stop-color="#b8ffff"/><stop offset="1" stop-color="#6481ff"/></linearGradient></defs><g class="cls-1"><g id="Слой_2" data-name="Слой 2"><g id="layer1"><path class="cls-2" d="M26.27,43C23.83,42.86.27,18.09,0,16.2c-.07-.51.51-1.67,1.43-3.08h0c.11-.18.23-.37.37-.56v0C4.29,8.85,8.55,3.76,9.28,3.42,9.82,3.16,22.6,0,27.16,0S43.32,2.48,44.3,2.67c1.46.28,6.14,6.77,8.55,10.44h0c.2.3.38.57.54.83h0a15.12,15.12,0,0,1,1,1.61C54.93,16.85,28.71,43,26.27,43Z"/><path class="cls-3" d="M2,15.65c-.33,2.35,13.66,20,24.94,21,5.8.52,9.77-8.4,11.83-11.75S26,20.58,22.9,20.11s-1.12,6.42-.56,8.68,5.14,3.27,6.33,3.15,5.13-7.09,2.41-8-3.77,2.48-5,.76,7.66-3.25,9,0-2.5,8.39-8.68,7.68S16.81,25.78,20.86,18c4.41-8.44,13.81,1.27,19.47,4.94,5.44,3.54,10.22-8,9.85-12C49.79,6.91,39,.83,27.47.54S3.51,4.94,2,15.65Z"/><path class="cls-4" d="M9.28,3.42c-1.89.58,8,4.85,9.53,5.1S34,9,36.23,8.74s8.66-5.28,8.6-5.82S29.91-.31,26.82,0,10.73,3,9.28,3.42Z"/><path class="cls-5" d="M.7,16c.17,1.23,12.08,7.63,12.85,7.73s6-15,5.26-15.23-8.71-4-9.69-4S.36,13.45.7,16Z"/><path class="cls-6" d="M14.91,24c-1.37,0,4.61-13.8,5.26-14.55s15.23-.64,16.38,0,4.66,12.48,4.6,13.25S22.81,24.13,14.91,24Z"/><path class="cls-7" d="M54.36,15.56c-.12,2.64-11.5,7.1-12.35,7.1S37.88,9.68,38,8.89,44,4.6,45.13,4.43,54.36,15.56,54.36,15.56Z"/><path class="cls-8" d="M14.91,24C13.4,23.87,25,41.91,26,42.59S41,25.07,41.06,23.87,31.44,25,14.91,24Z"/><path class="cls-9" d="M14.91,24c-.64.36,6.08,11.33,7.4,12.69s7.91-7.56,12-8.71,6.55-2.89,6.31-4.19-6.36.11-13.5.46S15.57,23.6,14.91,24Z"/><path class="cls-10" d="M51.6,19.21c-.41-1.07-10,4.08-11,5.55s-11.94,16.77-12.2,17S43.69,28.43,51.6,19.21Z"/><path class="cls-11" d="M.92,17.62c.61-.71,12.14,5.95,13.93,8.2S25,42.25,25,42.25,7.61,27.17.92,17.62Z"/><path class="cls-12" d="M9.28,3.42s6.78,4.93,9.53,5.1,14.69,1.1,17.42.22S49.51,1,28,.56A62,62,0,0,0,9.28,3.42Z"/><path class="cls-13" d="M0,16.2c.57,1,11.68,6.75,13.43,7S19,10.45,18.92,9.78s-6-3.55-6.74-3.89,5.33,2.86,5.8,5S14.09,21.08,11.32,21,0,16.2,0,16.2Z"/><path class="cls-14" d="M13,5.89a33.67,33.67,0,0,1,10.53,0c5.68.9,5.13,3,5.13,3s-7.79.14-10-.34A23.59,23.59,0,0,1,13,5.89Z"/><path class="cls-15" d="M35.74,8.86c0-.35,2.34-.94,2.79-.66s0,2.37-.68,2.46S35.74,8.86,35.74,8.86Z"/><path class="cls-15" d="M17.54,8.13c-1.08-.06.79,3.58,1.14,3.56s3.66-2.64,3.42-2.85A44.54,44.54,0,0,0,17.54,8.13Z"/><path class="cls-16" d="M34.62,35.63c-1.91.22,4.63-8.71,7.11-10.48s1.77,2.41.69,3.64S34.62,35.63,34.62,35.63Z"/><path class="cls-17" d="M39.93,23.75c-.54-.67,1.3-1.87,1.52-1.93a10.17,10.17,0,0,1,2.45.55,13.19,13.19,0,0,1-3.26,1.94C40.3,24.31,39.93,23.75,39.93,23.75Z"/><path class="cls-18" d="M.82,16.86c-1,.06,10.29,12.68,13,14.64s3-3.7,1-6.05S.82,16.86.82,16.86Z"/><path class="cls-19" d="M.19,15.38C0,16.51,11.08,23.48,13,23.07s5.73-11.38,5.73-11.38-3.92,11.39-3.84,11.83c0,.22,6.31.52,12.47.47s12.53-.47,12.53-.47A137.74,137.74,0,0,1,14.91,24a57.94,57.94,0,0,0,2.52,5.22s-3.12-4.13-5.06-5.43S1.31,17.46.86,17.2.19,15.38.19,15.38Z"/><path class="cls-19" d="M37.32,10.48l3.26,8.89-2.42-8.93Z"/><path class="cls-20" d="M17.45,13.55c.86-2.24-1.93-5.16-5.47-6.86s-4.49,11-1.72,13S17.45,13.55,17.45,13.55Z"/><path class="cls-21" d="M38.64,10.14c2.48-3.69,10.12,3.78,12,6.58s-6,5.73-7.89,4.67S38.64,10.14,38.64,10.14Z"/><path class="cls-22" d="M18.21,13.52c-2.59,5.28,4.63.63,9.74,1.6s10,6.77,11.67,6.49S37,10.82,35.69,9.93s-11.52-.62-13-.34A7.35,7.35,0,0,0,18.21,13.52Z"/><path class="cls-17" d="M53,14.6c-.33-.25-1.21,2.52-2.9,4a48.2,48.2,0,0,1-6.19,3.81s6-2.4,7.33-3.67S53,14.6,53,14.6Z"/><path class="cls-17" d="M1.8,12.55a20.25,20.25,0,0,0,.36,4.57c.42,1,5.92,4.1,5.92,4.1S4,17.8,3.32,15.36a13.4,13.4,0,0,1-.49-4.27Z"/><path class="cls-23" d="M.92,17.62s11.5,5.65,13.94,8.46,1.56,6.44-.5,5.73S.92,17.62.92,17.62Z"/><path class="cls-23" d="M15.06,24.31c-.46-.06,3.85,8.62,5.86,9.57s6.46-2.7,11-5.09,5.83-1,6.77-2.61a15.33,15.33,0,0,0,1.22-2.43A98.11,98.11,0,0,1,15.06,24.31Z"/><path class="cls-8" d="M40.93,24.21c-.29.1-2.5,3.67-2.24,3.73s2.93-3,4-3.26,1.23,2.13,1.44,1.9,6-6.56,6.32-6.9-5.95,2.48-7,3.13S40.93,24.21,40.93,24.21Z"/><path class="cls-24" d="M53.4,14h0s-6-7.45-7.29-8.84S39.12.61,29.49.69,12.54,2.8,10.17,4s-8,8.07-8.35,8.49C4.29,8.85,8.55,3.76,9.28,3.42,9.82,3.16,22.6,0,27.16,0S43.32,2.48,44.3,2.67c1.46.28,6.14,6.77,8.55,10.44h0C53.06,13.42,53.24,13.69,53.4,14Z"/><path class="cls-14" d="M13,23.52c-.84.36,1.7,2,2,2.13s.07-2.09-.15-2.44S13,23.52,13,23.52Z"/><path class="cls-14" d="M17.83,32.23c1.1-1.32,5.33,6.7,5.18,7S16.38,34,17.83,32.23Z"/><path class="cls-24" d="M26.27,43C23.83,42.86.27,18.09,0,16.2c-.07-.51.51-1.67,1.43-3.08,0,.2.31,4.42,1,5.76.43.89,7.51,7.93,16.35,17.58,3.09,3.39,5.72,4.16,7.36,4.37s5.12-1.25,8.52-5.2c8.1-9.42,15.32-15.27,16.75-17.1,2.26-2.9,1.54-5.25,1.49-5.41a27.7,27.7,0,0,1,1.5,2.45C54.93,16.85,28.71,43,26.27,43Z"/></g></g></g></svg>