<svg xmlns="http://www.w3.org/2000/svg" xmlns:xlink="http://www.w3.org/1999/xlink" viewBox="0 0 42.42 62.62"><defs><style>.cls-1{isolation:isolate;}.cls-2{fill:url(#Безымянный_градиент_375);}.cls-3{fill:#ff7a00;}.cls-4{fill:#b10053;}.cls-11,.cls-15,.cls-17,.cls-19,.cls-4,.cls-6{mix-blend-mode:multiply;}.cls-10,.cls-15,.cls-17,.cls-4,.cls-6,.cls-7{opacity:0.5;}.cls-5{fill:#ff6500;}.cls-6{fill:#d42f55;}.cls-16,.cls-18,.cls-7{fill:#fff;}.cls-16,.cls-20,.cls-7{mix-blend-mode:soft-light;}.cls-8{fill:#ffa457;}.cls-9{fill:url(#Безымянный_градиент_432);}.cls-10{fill:url(#Безымянный_градиент_347);}.cls-11{fill:#7f6593;opacity:0.2;}.cls-12{fill:url(#Безымянный_градиент_361);}.cls-13{fill:url(#Безымянный_градиент_197);}.cls-14{fill:url(#Безымянный_градиент_2);}.cls-15{fill:#9a376d;}.cls-17{fill:#9a5066;}.cls-19{fill:#ce2f55;opacity:0.8;}.cls-20{fill:#abbbff;}.cls-21{fill:url(#Безымянный_градиент_375-2);}</style><linearGradient id="Безымянный_градиент_375" x1="0.24" y1="55.86" x2="40.87" y2="55.86" gradientUnits="userSpaceOnUse"><stop offset="0" stop-color="#a71100"/><stop offset="0.39" stop-color="#d83303"/><stop offset="1" stop-color="#ec5c11"/></linearGradient><linearGradient id="Безымянный_градиент_432" x1="20.58" y1="51.52" x2="20.58" y2="13.67" gradientUnits="userSpaceOnUse"><stop offset="0" stop-color="#e8e5ed"/><stop offset="0.05" stop-color="#e5ddea"/><stop offset="0.28" stop-color="#dabbdc"/><stop offset="0.46" stop-color="#d3a7d4"/><stop offset="0.59" stop-color="#d19fd1"/><stop offset="0.64" stop-color="#be92c3"/><stop offset="0.72" stop-color="#a57fb0"/><stop offset="0.81" stop-color="#9272a3"/><stop offset="0.9" stop-color="#886b9b"/><stop offset="1" stop-color="#846898"/></linearGradient><linearGradient id="Безымянный_градиент_347" x1="20.41" y1="50.14" x2="20.41" y2="13.49" gradientUnits="userSpaceOnUse"><stop offset="0" stop-color="#e8e5ed"/><stop offset="0.28" stop-color="#e0d8dd"/><stop offset="0.62" stop-color="#dacfd3"/><stop offset="1" stop-color="#d8cccf"/></linearGradient><linearGradient id="Безымянный_градиент_361" x1="20.71" y1="50.02" x2="20.71" y2="39.31" gradientUnits="userSpaceOnUse"><stop offset="0" stop-color="#512eff"/><stop offset="1" stop-color="#6b7cff"/></linearGradient><linearGradient id="Безымянный_градиент_197" x1="21.04" y1="38.06" x2="21.04" y2="23.26" gradientUnits="userSpaceOnUse"><stop offset="0" stop-color="#512eff"/><stop offset="1" stop-color="#6b2ed8"/></linearGradient><linearGradient id="Безымянный_градиент_2" x1="6.54" y1="24.21" x2="35.61" y2="24.21" gradientUnits="userSpaceOnUse"><stop offset="0.04" stop-color="#9190ff"/><stop offset="0.99" stop-color="#7a8bff"/></linearGradient><linearGradient id="Безымянный_градиент_375-2" x1="0" y1="8.56" x2="42.42" y2="8.56" xlink:href="#Безымянный_градиент_375"/></defs><g class="cls-1"><g id="Слой_2" data-name="Слой 2"><g id="layer1"><path class="cls-2" d="M.24,49.44.59,60.73s23.2,4.23,38.61,0l1.67-11.67Z"/><path class="cls-3" d="M.59,49.66c-4.38-1.55,35.92-4.81,39.88-1.21S17.72,55.74.59,49.66Z"/><path class="cls-4" d="M7.12,61.66s6.35-8.18,8.08-9.06,21.57-5.44,21.57-5.44S23.16,50.63,20.05,51.9,13,62,12,62,7.12,61.66,7.12,61.66Z"/><path class="cls-4" d="M17.7,62.62s3.89-8.23,5.16-9.72,15.82-5.23,15.82-5.23S25.92,52.13,25,53.45s-2,6.49-3.07,7.6S17.7,62.62,17.7,62.62Z"/><path class="cls-4" d="M28.14,62.45s3.11-6.52,5.18-8.59,7.07-1.45,7.07-1.45l-.24,1.67a6,6,0,0,0-5.52-.7c-3,1.21-5.51,9-5.51,9Z"/><path class="cls-5" d="M29.57,61.09s2.58-5.52,4.46-7a5.35,5.35,0,0,1,4.28-.88,4.85,4.85,0,0,0-4,.35C32.13,54.73,29.57,61.09,29.57,61.09Z"/><path class="cls-5" d="M22.17,60.76s2.89-6,3.65-7.14,3.75-2.51,3.75-2.51S25.82,52.55,25,53.45,22.85,59.39,22.17,60.76Z"/><path class="cls-5" d="M12.3,61.83A17,17,0,0,0,15.67,58c1.25-2.08,3-5.21,3-5.21A39.52,39.52,0,0,0,12.3,61.83Z"/><path class="cls-6" d="M23.68,59.17c.47-1,2.1-5.34,2.83-5.81s7.22-.8,7.76-.8S31.73,55.5,30,58.87,23.43,59.69,23.68,59.17Z"/><path class="cls-6" d="M30.53,60.33s1.4-5,4.19-6.32,3.89-.24,4.49,1.13-.57,4.29-3.16,5.32A8.36,8.36,0,0,1,30.53,60.33Z"/><path class="cls-6" d="M19.07,53.23c-.7.2-3.18,4.82-3.56,6.43s1.92,1.37,3.21-.18A26.3,26.3,0,0,0,22,53.23,13.19,13.19,0,0,0,19.07,53.23Z"/><path class="cls-6" d="M1.11,50.51c-.82.41-.11,6.69,1,8.5s10.06-4.41,11.3-5.6-5.49-1.6-7.83-1.89A25.47,25.47,0,0,1,1.11,50.51Z"/><path class="cls-7" d="M27.31,52.32c-.68.48,4.64.12,7.63-.45a12.79,12.79,0,0,0,5.57-2.35c.05-.23-4.89.22-7.21.62A29.86,29.86,0,0,0,27.31,52.32Z"/><path class="cls-7" d="M5.86,51.17c-1.37-.59,3.5-.58,7.27-.36s5.23.36,5.23.36-2.92,1.43-4.82,1.27S5.86,51.17,5.86,51.17Z"/><path class="cls-8" d="M25,53.45c-.52.82.68.08.68.08l1.17-1.21A5.87,5.87,0,0,0,25,53.45Z"/><path class="cls-8" d="M33.21,54.59c-.12.47,1.73-1.06,1.73-1.06S33.86,53.2,33.21,54.59Z"/><path class="cls-8" d="M17.37,54.31a7.16,7.16,0,0,0,.86-.64,9.44,9.44,0,0,0,1-1.26A16.38,16.38,0,0,0,17.37,54.31Z"/><path class="cls-9" d="M39.34,13.67s0,2.05-.29,4.91c0,0,0,.07,0,.2A1.21,1.21,0,0,1,39,19c-.09.81-.19,1.67-.31,2.58l0,.26A37.19,37.19,0,0,1,36.39,31c-2.82,6.57-11.16,2-12.51,3.56-.44.53.11.87,1.18,1.19,2.12.64,6.26,1.15,8.39,2.71a7.42,7.42,0,0,1,2.19,3.23h0a0,0,0,0,0,0,0,31,31,0,0,1,1.71,7.58,64.24,64.24,0,0,1-16.79,2.27,64.27,64.27,0,0,1-16.8-2.27,29.88,29.88,0,0,1,1.88-8h0a6.9,6.9,0,0,1,2-2.87c2.25-1.66,6.79-2.13,8.76-2.83.81-.29,1.19-.61.79-1.07-1.34-1.58-9.68,3-12.49-3.56-.09-.2-.18-.41-.26-.62v0c-2.56-6.6-2.68-16.62-2.68-16.62l4.54.4-1.44,0c-2-.27-.5,15,3,17.41s9.14.6,10.74,1.08a1.44,1.44,0,0,1,.43.21c1.11.81.8,3.09.19,4.35-.19.41-.85.69-1.75.91-2.25.58-6,.8-7.39,1.7-2,1.26-2.84,6-2.29,7.62s8.82,2.18,13.4,2.18S32.83,48,33.38,47s-.16-5.08-2.28-7c-1-.91-6.45-1.42-8.28-2a3.73,3.73,0,0,1-.43-.16c-1.18-.63-1.73-3.74-.86-5.27,0,0,0,0,0,0,.92-1.48,7.82.71,12-1.43S37.15,17.42,36,15.32c-.26-.45-1.9-.78-4.29-1Z"/><path class="cls-10" d="M21.57,32.62c-.9,1.58-.21,4.19,1,4.83s8,1.21,9.12,2.24c2.19,2,2.69,6.69,2.11,7.77S26,50.14,21.24,50.14,8,49.53,7.4,47.88s.32-7.25,2.36-8.56,8.78-.71,9.48-2.17,1-4-.68-4.53S11,34,7.47,31.5s-5.12-18.25-3.06-18l1.5,0,14.67,1.28,11.47-1c2.48.22,4.16.55,4.43,1,1.21,2.16,1.73,14.1-2.56,16.33S22.45,31,21.57,32.62Z"/><path class="cls-11" d="M31.69,14.34l-11.11,1L6.36,14.07C10.84,14,24.6,13.7,31.69,14.34Z"/><path class="cls-12" d="M8.47,47.82c-3.35-1.5,6.25-8.82,11.94-8.51,2.35.13,12.19,4.69,13.18,7.36.53,1.43-3.94,2.56-9.39,3.08C19.46,50.21,14.17,50.37,8.47,47.82Z"/><path class="cls-13" d="M6.46,26.48c-.91-4.72,19.35-1.76,24.62-3,2.83-.67,4.46.24,4.53.92.25,2.27-1.06,6.29-3.54,7-5.36,1.57-9.39.06-10.5,1.31s-.5,5.06-1,5.31-.43-4.18-1.55-5.14-5.42.42-8.79-.19S6.46,26.48,6.46,26.48Z"/><path class="cls-14" d="M6.66,25.44c-2.21,1.74,25.87,2.64,28.84-.87C37.34,22.4,15.66,18.36,6.66,25.44Z"/><path class="cls-15" d="M4.57,23.26s-.77-6.44.34-8.14-1.42-1.2-1.42-1.2S4,20.21,4.57,23.26Z"/><path class="cls-15" d="M38.68,21.8A37.19,37.19,0,0,1,36.39,31c-2.82,6.57-11.16,2-12.51,3.56-.44.53.11.87,1.18,1.19,0,.42-.28,1.57-2.24,2.32a10.57,10.57,0,0,1-2.24.53,4.21,4.21,0,0,1-3.09-.49,2.81,2.81,0,0,1-1-2.48c.81-.29,1.19-.61.79-1.07-1.34-1.58-9.68,3-12.49-3.56-.09-.2-.18-.41-.26-.62v0s1.58,3.44,5.16,3.8c3.12.31,6.05-.75,9.39-1.29.5-.08,1-.15,1.51-.2a6.51,6.51,0,0,1,1,0c3.72.08,8.15,3.09,12.48.68C37.12,31.51,38.11,25.37,38.68,21.8Z"/><path class="cls-15" d="M37.37,49.25a64.24,64.24,0,0,1-16.79,2.27,64.27,64.27,0,0,1-16.8-2.27,29.88,29.88,0,0,1,1.88-8c-.06.28-1.51,6.49-.41,7.8.7.83,7.12,2.18,15.82,1.95,9-.25,14.42-1.28,15.18-2.47s-.48-6.47-.59-6.9A31,31,0,0,1,37.37,49.25Z"/><path class="cls-15" d="M35.37,14.62c1.24-.18,1.45,3.28,1.4,7.73,0,2.35.88-8,.65-8.43S35.37,14.62,35.37,14.62Z"/><path class="cls-16" d="M24.59,18.35c-3.22,0-1,4.82,2.28,7.31S34.8,21.59,35,19.1,32.73,18.41,24.59,18.35Z"/><path class="cls-17" d="M8.9,44.79c-1.37,2.78,5,4.2,9,3.58s3.18-3.87,7-5.43,7.88,2,8.16,3.28-7.86,4.57-15.08,3.62-9.37-1.72-9.88-2.36S8.9,44.79,8.9,44.79Z"/><path class="cls-18" d="M24.53,25.49c-1.13,0-.91,2.4.72,2.91S25.65,25.52,24.53,25.49Z"/><path class="cls-18" d="M25.36,37.49c-1,1-1.46,4.53.68,5.87s5.14-3,3.91-5C29.53,37.7,26.17,36.69,25.36,37.49Z"/><path class="cls-19" d="M1.82,14.62s8,3.51,21,4S39.3,15,39.3,15l0-1.29s-20.21,2.79-37.52,0Z"/><path class="cls-18" d="M30.69,34.17c-2.32-.7,1.49-.64,3.85-3.05s2.57-6.71,2.83-6.7c0,0-.36,6-2.16,7.85A7.48,7.48,0,0,1,30.69,34.17Z"/><path class="cls-18" d="M6.43,32.6c-.76-1.84,0-1,3,0S8.7,35.16,6.43,32.6Z"/><path class="cls-18" d="M6.06,40.94C5.35,43,6.55,42,9.19,40.09S7.28,37.37,6.06,40.94Z"/><path class="cls-18" d="M34.27,40.7c-1-.24,1,2.14.67,6.65-.18,2.51,1.26,1.17,1.26-.94C36.2,43.22,34.85,40.84,34.27,40.7Z"/><path class="cls-20" d="M13.19,41.51c-3.06,3.19,4.43,5.39,6,5.42s3.2-3.81,4.77-4.38-2.54-2.51-4.2-3S13.19,41.51,13.19,41.51Z"/><path class="cls-20" d="M20.86,48.06c-.75,0,1.4-3,3.94-3.27s2.59,1.09,2.59,1.58S22.91,48.06,20.86,48.06Z"/><path class="cls-21" d="M0,4.69l.36,8.75s24.22,4.23,40.31,0L42.42,1.8Z"/><path class="cls-3" d="M.36,4.91C-4.21,3.36,37.87-2.45,42,1.16S18.24,11,.36,4.91Z"/><path class="cls-4" d="M28.76,15.19s.71-7-.45-8.5c-1.4-1.83-18.17-4.55-18.17-4.55l1.54-.23S26,4.68,28.37,6.51s1.36,8.61,1.36,8.61Z"/><path class="cls-4" d="M33.66,14.76s3.71-8.17,3.44-9.7S18.57,1,18.57,1L20,.88s16.2,1.25,17.91,3.75-2.49,10-2.49,10Z"/><path class="cls-4" d="M22.53,15.37s.51-5.77-.37-8S5.38,4.58,3.49,5.48,1.1,13.56,1.1,13.56L3,13.84S2.43,6.91,4.26,6s11.36.28,13.3,1.81.48,7.55.48,7.55Z"/><path class="cls-5" d="M10.36,5.94s4.22.79,5.91,1.88a6.72,6.72,0,0,1,2.3,3.55s.11-3-1.16-3.91S10.36,5.94,10.36,5.94Z"/><path class="cls-5" d="M25.36,5.35a23.18,23.18,0,0,1,3,2.6,3.44,3.44,0,0,1,.53,1.5s-.08-2.22-.62-2.76A12.49,12.49,0,0,0,25.36,5.35Z"/><path class="cls-5" d="M29.72,2.84s5.91,1.37,6.51,2.23-.21,4-.21,4S37.33,5.61,37.19,5,29.72,2.84,29.72,2.84Z"/><path class="cls-4" d="M35.37,10.74s2.09,2.72,2.9-4.5c.14-1.29-.72-2.51-2.82-2.93a22.62,22.62,0,0,0-2.85.1S37,4,37.2,5.35,35.37,10.74,35.37,10.74Z"/><path class="cls-7" d="M23.86,3.48c-1.45.32,4.41,2.76,5.07,3s7-.89,7.3-1.37-6.47-2.32-7.48-2.36A43.17,43.17,0,0,0,23.86,3.48Z"/><path class="cls-7" d="M15,4.27c-1.24.24,4.64,1.05,6.36,2.2s4.88.35,5.53.35-.9-1-3.56-1.75A29.24,29.24,0,0,0,15,4.27Z"/><path class="cls-7" d="M35.64,2.26c-.32.42,1.84,1.77,2.67,1.94s3.2-.84,3.61-1.94S35.64,2.26,35.64,2.26Z"/><path class="cls-6" d="M14.17,8c-1.35-.52-6.09-1.6-7.63-.95s-3,5.15-3,6S15,14.61,16.55,14.76s1.32-3.27,1.09-4.54S15.47,8.55,14.17,8Z"/><path class="cls-6" d="M23.63,7.82c-1.28.16-.68,6.57-.35,7s4.15.76,5.14-1.37-.79-5.94-1.27-6A31.93,31.93,0,0,0,23.63,7.82Z"/><path class="cls-6" d="M31.28,7c-1.19.26-.93,5.06-.73,6.55s4.3-1.2,5.09-4.11.17-3.16,0-3.27S31.28,7,31.28,7Z"/><path class="cls-8" d="M17.14,7.3c-.52,0,.38,1.44.68,2.25s.72.93.72.93S18.32,7.73,17.14,7.3Z"/><path class="cls-8" d="M27.94,6.34c-.46-.16.24,1.1.58,1.8s.39.52.39.52S28.79,6.84,27.94,6.34Z"/><path class="cls-18" d="M9.61,49.86c-.16-.65,2.39-.38,2.85.16S10.65,50.46,9.61,49.86Z"/><path class="cls-18" d="M2.83,18.55c-.42-.31-.24,2.57,0,3.25S4.18,19.53,2.83,18.55Z"/></g></g></g></svg>