<svg xmlns="http://www.w3.org/2000/svg" xmlns:xlink="http://www.w3.org/1999/xlink" viewBox="0 0 54.67 41.28"><defs><style>.cls-1{isolation:isolate;}.cls-2{fill:url(#Безымянный_градиент_207);}.cls-3{fill:url(#Безымянный_градиент_197);}.cls-4{fill:#ff0064;}.cls-5{fill:url(#Безымянный_градиент_197-2);}.cls-6{fill:url(#Безымянный_градиент_197-3);}.cls-7{fill:url(#Безымянный_градиент_197-4);}.cls-8{fill:url(#Безымянный_градиент_197-5);}.cls-9{fill:url(#Безымянный_градиент_197-6);}.cls-10{fill:url(#Безымянный_градиент_197-7);}.cls-11,.cls-12,.cls-13{fill:#c60055;}.cls-11,.cls-12,.cls-13,.cls-15,.cls-17,.cls-18{mix-blend-mode:multiply;}.cls-11{opacity:0.5;}.cls-12{opacity:0.4;}.cls-13,.cls-14{opacity:0.3;}.cls-14{fill:#ffb64a;mix-blend-mode:screen;}.cls-15{fill:#eba4bc;}.cls-15,.cls-17,.cls-18{opacity:0.2;}.cls-16{fill:#fff;}.cls-17{fill:#eb5694;}.cls-18{fill:#dc6a94;}</style><linearGradient id="Безымянный_градиент_207" x1="27.33" y1="41.28" x2="27.33" gradientUnits="userSpaceOnUse"><stop offset="0" stop-color="#dbc6e0"/><stop offset="1" stop-color="#ffe4ec"/></linearGradient><linearGradient id="Безымянный_градиент_197" x1="6.97" y1="4.87" x2="6.97" y2="1.11" gradientUnits="userSpaceOnUse"><stop offset="0" stop-color="#512eff"/><stop offset="1" stop-color="#6b2ed8"/></linearGradient><linearGradient id="Безымянный_градиент_197-2" x1="19.61" y1="1.87" x2="25.57" y2="1.87" xlink:href="#Безымянный_градиент_197"/><linearGradient id="Безымянный_градиент_197-3" x1="35.3" y1="1.91" x2="41.33" y2="1.91" xlink:href="#Безымянный_градиент_197"/><linearGradient id="Безымянный_градиент_197-4" x1="51.69" y1="14.14" x2="51.69" y2="7.15" xlink:href="#Безымянный_градиент_197"/><linearGradient id="Безымянный_градиент_197-5" x1="47.66" y1="25.62" x2="52.44" y2="25.62" xlink:href="#Безымянный_градиент_197"/><linearGradient id="Безымянный_градиент_197-6" x1="2.11" y1="13.17" x2="2.11" y2="7.64" xlink:href="#Безымянный_градиент_197"/><linearGradient id="Безымянный_градиент_197-7" x1="0.55" y1="25.35" x2="5.74" y2="25.35" xlink:href="#Безымянный_градиент_197"/></defs><g class="cls-1"><g id="Слой_2" data-name="Слой 2"><g id="layer1"><path class="cls-2" d="M54.29,9.78c-.13,1.37-.29,2.83-.46,4.36-.12,1-.25,2.1-.37,3.17-.18,1.41-.38,2.85-.57,4.29-.15,1-.29,2.09-.45,3.12-.21,1.45-.43,2.87-.65,4.22-.18,1.08-.35,2.12-.52,3.09h0c-.27,1.56-.54,3-.79,4.13q-.12.6-.24,1.11A7.69,7.69,0,0,1,49.36,40c-1.44,1.09-41.62,2.75-44.09-1a14.72,14.72,0,0,1-2.42-4.24s0-.07,0-.1c-.08-.3-.15-.6-.23-.9,0,0,0,0,0,0-.29-1.2-.56-2.38-.8-3.54s-.45-2.29-.63-3.39c-.25-1.5-.45-2.94-.61-4.33C.41,21.25.31,20.15.23,19.08.12,17.61.05,16.21,0,14.9c0-1.13,0-2.2,0-3.2,0-1.53.12-2.89.24-4.06.31-3,.81-4.82,1.16-5a19.47,19.47,0,0,1,4.15-1c1.3-.2,2.8-.39,4.45-.55C11.07,1,12.19.9,13.36.81,14.77.7,16.25.6,17.77.51h0L21.12.34C22.58.27,24.07.22,25.57.17h0L28.94.08C30.45.05,32,0,33.43,0h3.38c1.56,0,3.08,0,4.52.05q1.76,0,3.36.09c1.67,0,3.19.13,4.51.23,3,.22,4.91.54,5.21,1h0C54.83,2,54.7,5.31,54.29,9.78Z"/><path class="cls-3" d="M10,1.11c-.52,1-1,2-1.75,3.26-1.74.18-2.61.28-4.34.5.66-1.28,1.16-2.25,1.64-3.21C6.87,1.46,8.37,1.27,10,1.11Z"/><path class="cls-4" d="M17.77.51c-.49,1-1,1.93-1.66,3.23-1.74.1-2.61.16-4.35.31.65-1.3,1.13-2.27,1.6-3.24C14.77.7,16.25.6,17.77.51Z"/><path class="cls-5" d="M25.57.17c-.47,1-1,2-1.61,3.26-1.74,0-2.61.06-4.35.13.61-1.29,1.06-2.25,1.51-3.22C22.58.27,24.07.22,25.57.17Z"/><path class="cls-4" d="M33.43,0c-.48,1.06-1,2.05-1.62,3.45-1.74,0-2.61,0-4.36,0L28.94.08C30.45.05,32,0,33.43,0Z"/><path class="cls-6" d="M41.33.05c-.52,1.19-1,2.23-1.68,3.77-1.74-.11-2.61-.16-4.35-.24.62-1.46,1.05-2.47,1.51-3.58C38.37,0,39.89,0,41.33.05Z"/><path class="cls-4" d="M49.2.37c-.55,1.36-1,2.45-1.72,4.14-1.73-.19-2.6-.27-4.34-.42C43.78,2.47,44.2,1.4,44.69.14,46.36.19,47.88.27,49.2.37Z"/><polygon class="cls-7" points="53.83 14.14 49.08 11.35 49.48 7.14 54.29 9.78 53.83 14.14"/><path class="cls-4" d="M53.46,17.31c-.18,1.41-.38,2.85-.57,4.29l-4.52-2.67.39-4.19Z"/><path class="cls-8" d="M52.44,24.72c-.21,1.45-.43,2.87-.65,4.22l-4.13-2.43.39-4.2Z"/><path class="cls-4" d="M51.27,32h0c-.27,1.56-.54,3-.79,4.13L47,34.08l.39-4.2Z"/><path class="cls-9" d="M4.2,13.17,0,11.7c0-1.53.12-2.89.24-4.06l3.49,1.1Z"/><path class="cls-4" d="M5,20.74.23,19.08C.12,17.61.05,16.21,0,14.9l4.5,1.42Z"/><path class="cls-10" d="M5.74,28.32l-4.58-1.6c-.25-1.5-.45-2.94-.61-4.33l4.74,1.5Z"/><path class="cls-4" d="M6.51,35.88,2.83,34.59c-.08-.3-.15-.6-.23-.9,0,0,0,0,0,0-.29-1.2-.56-2.38-.8-3.54l4.27,1.35Z"/><path class="cls-11" d="M54.41,1.34c-.28-2.78-3.61,10.1-4.65,20.13-.75,7.26-.88,17.4-.64,17.94S55.61,13.25,54.41,1.34Z"/><path class="cls-12" d="M50.24,37.28A7.69,7.69,0,0,1,49.36,40c-1.44,1.09-41.62,2.75-44.09-1-.4-.61-2.27-3.37-2.66-5.2,2,4.41,9.29,7.78,26.36,7.18S49,39.66,50.24,37.28Z"/><path class="cls-12" d="M1.42,2.67C1.15,4.23,13.34,20.25,21.54,24.26S49.76,3.91,54.41,1.34c0,0,.17.16.16,1.28s-18.65,15-22.1,18.85S46.63,39.14,49.36,40c0,0-.65.4-1,.27S34.07,29.9,30.46,22.8c0,0-3.85,3.37-6.13,3.49S19.52,23.35,19,23.1c0,0-11.14,10.21-12.42,16.31,0,0,0,.49-.64-.55S18.07,23.19,18.07,22.94,5.28,10.49,1.42,2.67Z"/><path class="cls-12" d="M20.22,23.53s3,4,4.36,4c2.58,0,5.66-.64,13.88-8C53.22,6.49,53.77,1.76,53.77,1.76s-4.92,4.81-12.8,12S27.05,24,25.36,24.55,20.22,23.53,20.22,23.53Z"/><path class="cls-13" d="M54.41,1.33C54.18,1.25,47-.17,31.13,1,16.8,2,4.06.49,2.13,3.21S.93,9,.69,15.16C.46,21.08,2.41,32.6,2.59,33.65-1.74,16.09.45,3.08,1.42,2.67,8.31-.33,52.88-.83,54.41,1.33Z"/><path class="cls-14" d="M3.51,3.34c-1,.5,4.81,7.21,10.13,13.49s14.55,5.7,20.56,1.69S51.72,3,51.16,1.76s-14.31.09-25.44.67S5.1,2.52,3.51,3.34Z"/><path class="cls-15" d="M6.54,39.41c-.56-1.33,6.58-9.79,19.08-9.54S47,40.25,47,40.25,21,42.69,6.54,39.41Z"/><path class="cls-12" d="M40,33.13a51.94,51.94,0,0,0,5.12,4.76c2.32,1.75,3.18,2.34,3.18,2.34s1,.4,1.34-.81S45.8,38.31,40,33.13Z"/><path class="cls-16" d="M31.27,24.19c-.79-.44,2.41,5.53,7.08,9.34A59.13,59.13,0,0,0,47,39.42S40.71,33.13,31.27,24.19Z"/><path class="cls-16" d="M6.89,38.24S14.25,27.85,19,23.1C19,23.1,9.69,29.1,6.89,38.24Z"/><path class="cls-15" d="M49.85,20.64c-.77,10.35,2.77.48,3.87-5.48a48.07,48.07,0,0,0,.05-13.4C53.71,1.12,50.5,11.92,49.85,20.64Z"/><path class="cls-17" d="M24.37,24.66c-1.2-.16,14.68-9.21,14.68-9.21S29.93,23.6,24.37,24.66Z"/><path class="cls-12" d="M1.42,2.67S2.69,7.05,7.26,12.94s13,10.59,13,10.59S6.52,12.6,1.42,2.67Z"/><path class="cls-15" d="M35.77,26C36,28.11,45,37.3,47.46,37.91s.58-16.42.46-21.08S35.53,23.49,35.77,26Z"/><path class="cls-18" d="M38.35,33.53c-2.91-1.44,1.44,3.33,3.49,5.15A6.1,6.1,0,0,0,47,40C47.38,39.88,41.6,36.73,38.35,33.53Z"/></g></g></g></svg>