<svg xmlns="http://www.w3.org/2000/svg" xmlns:xlink="http://www.w3.org/1999/xlink" viewBox="0 0 49.58 61.3"><defs><style>.cls-1{isolation:isolate;}.cls-2{fill:#cc0040;}.cls-3{fill:url(#Безымянный_градиент_330);}.cls-4{fill:#ff7a00;}.cls-5,.cls-6{fill:#b10053;}.cls-10,.cls-12,.cls-15,.cls-16,.cls-18,.cls-5,.cls-6,.cls-9{mix-blend-mode:multiply;}.cls-10,.cls-11,.cls-16,.cls-5,.cls-9{opacity:0.5;}.cls-15,.cls-6{opacity:0.3;}.cls-7{fill:#bb001a;}.cls-8{fill:#ff4c00;}.cls-12,.cls-9{fill:#d42f55;}.cls-10{fill:#912774;}.cls-11,.cls-19{fill:#fff;mix-blend-mode:soft-light;}.cls-13{fill:url(#Безымянный_градиент_638);}.cls-14{fill:#ff4a70;}.cls-15,.cls-16,.cls-18{fill:#963b66;}.cls-17{fill:#ff4a88;}.cls-18{opacity:0.2;}</style><linearGradient id="Безымянный_градиент_330" x1="8.21" y1="61.19" x2="8.21" y2="1.35" gradientUnits="userSpaceOnUse"><stop offset="0" stop-color="#d32a00"/><stop offset="1" stop-color="#ec5c11"/></linearGradient><linearGradient id="Безымянный_градиент_638" x1="24.79" y1="36.1" x2="24.79" y2="3.9" gradientUnits="userSpaceOnUse"><stop offset="0" stop-color="#de0086"/><stop offset="1" stop-color="#ff003b"/></linearGradient></defs><g class="cls-1"><g id="Слой_2" data-name="Слой 2"><g id="layer1"><path class="cls-2" d="M36.14,4.92s-2-.65-2.84,8.44S37,9.15,36.89,8.07A24.59,24.59,0,0,0,36.14,4.92Z"/><path class="cls-3" d="M11.18,57.19A5,5,0,0,1,11,58.42c-.51,1.83-5.14,3.65-7.24,2.3a1.59,1.59,0,0,1-.61-.93c-.86-2.9,1-11.33.61-24A269.37,269.37,0,0,0,1,6.54S12.33-.93,15.41,2.05c0,0-4.14,29.18-4.39,40.78C10.81,52.08,11.25,55.32,11.18,57.19Z"/><path class="cls-4" d="M1,6.54c1,7.36,13.8.58,14.41-4.49S.42,2.42,1,6.54Z"/><path class="cls-5" d="M3.31,60.16c1,2.24,4.51-.95,5.58-11.8.64-6.5,1.6-12.44,2.26-16.15.45-2.5.77-4,.77-4S9.33,43.53,9.2,48.54s.23,8.16-1,10.75S4.29,61.73,3.31,60.16Z"/><path class="cls-5" d="M8.35,60.63a14,14,0,0,0,2.34-7.2c.28-4.53.3-9,.3-9s.21,7.69.15,10.69S8.35,60.63,8.35,60.63Z"/><path class="cls-5" d="M3.26,52c.58,5.82,4.26-4.37,5.53-24.12S11.21,9.51,11.4,6.68s-4.88-5-4.88-5,5,1,6.37,3.22S10,15.88,9.36,27.2s-3.78,27.61-5.2,29S3.26,52,3.26,52Z"/><path class="cls-6" d="M3.73,44.42c-.09,2,4.6-11.34,4.44-22.88s.53-10.3.53-13.2A4.82,4.82,0,0,0,2.43,3.92s3-.83,4.85,1.27S7.22,9.82,7,15,5.39,35.11,4.79,37.94s-1,2.81-1,2.81Z"/><path class="cls-7" d="M7.28,5.19a5.28,5.28,0,0,1,1.41,3c.1,1.66-1.08,3.75-1.41,5S7.92,9.63,8,7.93A4.61,4.61,0,0,0,7.28,5.19Z"/><path class="cls-7" d="M6.52,1.67S9.6,3,10.52,4.46s.57-1-.4-1.63A14.3,14.3,0,0,0,6.52,1.67Z"/><path class="cls-8" d="M3.32,55.87c.36,1,1.6-1.32,2.78-5.72,0,0-.9,5.6-1.85,7S3.32,55.87,3.32,55.87Z"/><path class="cls-8" d="M6.64,61s1.47-.2,2.32-2.79.25-6.1.33-9.11.4-6,.4-6-.45,3.09-.54,5.54.23,6.54-.35,8.8A7,7,0,0,1,6.64,61Z"/><path class="cls-8" d="M8.76,60.2A6.36,6.36,0,0,0,10.54,58a12.61,12.61,0,0,0,.51-2A14.27,14.27,0,0,1,8.76,60.2Z"/><path class="cls-9" d="M3.64,46.5c.78-3.23,2.58.27,2.46,1.24a41.66,41.66,0,0,0,1.59-8.46C7.88,35.84,3.68,42.07,3.64,46.5Z"/><path class="cls-9" d="M6.64,47.84c0,2.4,1,4.51,1.37,4.24s1.43-8.69,1.74-12.16-1-3.21-1.21-2.89S6.64,47.84,6.64,47.84Z"/><path class="cls-9" d="M9.36,52.37a3.16,3.16,0,0,0,1,2.46A59.23,59.23,0,0,0,11,44.25c-.21-3.7,0-7.46-.11-7.39S8.64,46.53,9.36,52.37Z"/><path class="cls-10" d="M11.18,57.19A5,5,0,0,1,11,58.42c-.51,1.83-5.14,3.65-7.24,2.3a1.59,1.59,0,0,1-.61-.93c.07-1.45.83.29,2.11.41s2.62-1,2.7-.79-.78,1-.56,1.22,2.78-1.4,2.95-2a6.67,6.67,0,0,1,.79-1.49Z"/><path class="cls-10" d="M3.82,36S6.48,38.34,8.7,38.9s2.75-3.34,2.75-3.34l.12-1.73s-3.86,3.46-7.74,1.39Z"/><path class="cls-11" d="M2.16,8.93C1,7.56,5.79,6.06,6.92,6.35s1,2.68.29,3S3.38,10.36,2.16,8.93Z"/><path class="cls-11" d="M8.79,8.53c-.39-.2.79-2.53,1.54-2.88s1.09.7.9,1.55A2.55,2.55,0,0,1,8.79,8.53Z"/><path class="cls-11" d="M13.41,5.58c-.33-.2.72-3,1.31-3.74s.55,1.23.55,1.23A24.54,24.54,0,0,1,13.41,5.58Z"/><path class="cls-12" d="M1.48,9.82a7.07,7.07,0,0,0,5,3.54c3.43.4,7.3-4.76,7.9-6.62a19.17,19.17,0,0,0,.74-2.89l-.83,5.87s-4.28,4.42-8.61,4.42-4-2.78-4-2.78Z"/><path class="cls-13" d="M40.25,31.07a9.24,9.24,0,0,1-3.12-2l0,0c-1.82-1.78-2.22-3.49-2.49-1.82-.33,2.11-.18,6.59-5.82,7.46l-.27,0a14.24,14.24,0,0,1-2.33.1,46.45,46.45,0,0,1-13.53-2.19,5.59,5.59,0,0,1-3.26,3.09c-3.1,1.12-6.83-.44-6.83-1.42A134.06,134.06,0,0,0,1,17.91c-.47-3.24-.88-5.65-.93-6a2.87,2.87,0,0,1,0-.39c0-.75.41-1.22,1.82-1.65,3.74,9.88,12.79-1.76,12.79-1.76l.18-1.45a6.48,6.48,0,0,1,1-1l.11-.1c1.41-1.17,3.62-2.31,5.93-1.15,3.88,2,7.13,11.13,10.66,9.49s3.47-7.81,5-7.13,3.6,5.23,5.87,15c2,8.71,4.85,5.7,5.9,5.47a.25.25,0,0,1,.28,0C50.17,27.89,46,33.25,40.25,31.07Z"/><path class="cls-14" d="M9.21,15.24C4,15.77.53,13.24,0,11.48c0-.75.41-1.22,1.82-1.65,3.74,9.88,12.51-1.38,12.51-1.38s.1-.15.28-.38C15.16,8.62,15.51,14.62,9.21,15.24Z"/><path class="cls-15" d="M12.67,32.62s.63-13.95,1.64-18.44.3-6.11.3-6.11,3.2-3.2,6.58-1.75,5,6.39,5.49,13-2,13.38-4.36,14.55S12.67,32.62,12.67,32.62Z"/><path class="cls-16" d="M34.65,25.3c-.23-2.16,1.09-6.66,1.51-9.3.69-4.32.6-7,1.18-7.36,1.28-.77,4.19,6,4,13.59s-2.9,7.55-3.55,7.28C36.14,28.8,34.65,25.3,34.65,25.3Z"/><path class="cls-16" d="M42.24,31.27c-1-.25,3.55-1,6-3.24S48.53,32.16,42.24,31.27Z"/><path class="cls-17" d="M49.23,27.18A6.55,6.55,0,0,1,46.93,29c-2.22.84-3.79-.19-4.82-5.79S38.85,7.43,37.34,8.64s-.05,8.25-2.87,8.06-7.79-5.17-11.21-8.83S14.73,6.6,15.78,5.63l.11-.1c1.41-1.17,3.62-2.31,5.93-1.15,3.88,2,8.24,10.38,11.77,8.73s1-8.86,2.55-8.19S40.58,8,43.33,21.71C45.09,30.48,48.18,27.41,49.23,27.18Z"/><path class="cls-18" d="M13.93,13.11c-2.58,1.64-3.64,2.3-4.72,9.68S7.33,35,8.08,35.7s1.89-2.15,2.16-3.58C11.92,23.34,13.93,13.11,13.93,13.11Z"/><path class="cls-19" d="M2,13.72C.09,12.24,2.16,26.93,3.82,30s4.6-5.34,5.54-9.69,1-4.32.76-4.72S6.24,16,2,13.72Z"/><path class="cls-19" d="M3.17,14.37c-2.19-1.21-.43-.83,2.57-.59s5.51-2.26,6.33-1.91.69,2.78-2.19,3.28A12.58,12.58,0,0,1,3.17,14.37Z"/><path class="cls-11" d="M23,5.19c-1.69-.11,2.67,4.37,4.37,6.83s6.19,2.87,6,2.16-3.36-.51-5.84-3.4S24,5.25,23,5.19Z"/><path class="cls-11" d="M40,10.58c-.75-.28.5,5.5,1.92,10.5s2.15,4.64,2.15,4.64-1.61-6-2.15-9.14A26.39,26.39,0,0,0,40,10.58Z"/><path class="cls-15" d="M14.61,8.07c3.11-3,8-2.65,9.47.92s-5.4,6-8.43,10.27-.48,12.13.44,13.31-3.42,0-3.42,0,.69-13.33,1.64-18.44S14.61,8.07,14.61,8.07Z"/><path class="cls-19" d="M12.67,32.62c-.49,1.56-2.7,2.9-3,2.44s1.77-9.1,2.82-14,1.55-9,1.88-9S13.84,16.48,13.16,23,13,31.63,12.67,32.62Z"/><path class="cls-16" d="M9.41,35.71c-3.1,1.12-6.83-.44-6.83-1.42A134.06,134.06,0,0,0,1,17.91l0-.44S3,25.78,3.17,29s-.74,4.3,0,5.43C4,35.83,7.81,36.08,9.41,35.71Z"/><path class="cls-12" d="M1.48,9.82c-.48-4.9,2.18,4,5,4C6.52,13.78,2.9,14.29,1.48,9.82Z"/><path class="cls-16" d="M35.38,21.89A9.66,9.66,0,0,0,37.11,29c-1.82-1.78-2.22-3.49-2.49-1.82-.33,2.11-.18,6.59-5.82,7.46,2.44-.43,4.71-3.42,5.35-6.17s1.16-8.81,2.18-13.26-.22-6.53,1.4-6.68c.23,0,.3,3.24-.22,4.54A31.72,31.72,0,0,0,35.38,21.89Z"/><path class="cls-19" d="M30.36,14.61C27.45,13,27.27,25.73,28.8,29.26s5-1.33,5.76-6.59S37,15.88,35,16,30.36,14.61,30.36,14.61Z"/><path class="cls-18" d="M25.19,12.48c-1.44.87-3.54,16.81-4.39,20.09s5.35-1.17,5.94-9.21S25.65,12.21,25.19,12.48Z"/><path class="cls-16" d="M28.8,34.68l-.27,0a14.24,14.24,0,0,1-2.33.1,46.45,46.45,0,0,1-13.53-2.19s.33-4.62.41-7.14,1.39,4.12,2.9,6.38C18,34.82,28.8,34.68,28.8,34.68Z"/><path class="cls-16" d="M14.79,6.62c2.26-2.24,2.59-.41,3.69-.3S15.72,10,15.16,11.53s-1.42,6.39-1.42,6.39.81-5.56,1-7.2a6.18,6.18,0,0,0-.14-2.65A4.62,4.62,0,0,1,14.79,6.62Z"/></g></g></g></svg>