<svg xmlns="http://www.w3.org/2000/svg" xmlns:xlink="http://www.w3.org/1999/xlink" viewBox="0 0 33.34 66.08"><defs><style>.cls-1{isolation:isolate;}.cls-2{fill:url(#Безымянный_градиент_254);}.cls-3{fill:#ff6934;}.cls-4{fill:url(#Безымянный_градиент_249);}.cls-5{fill:#7f003d;}.cls-6{fill:#d12774;}.cls-15,.cls-20,.cls-23,.cls-24,.cls-26,.cls-30,.cls-31,.cls-6,.cls-8{mix-blend-mode:multiply;}.cls-26,.cls-30,.cls-6,.cls-9{opacity:0.3;}.cls-21,.cls-7,.cls-9{fill:#ffffb1;mix-blend-mode:soft-light;}.cls-20,.cls-24,.cls-31,.cls-7,.cls-8{opacity:0.5;}.cls-8{fill:#a03b66;}.cls-10{fill:#ff8934;}.cls-11{fill:url(#Безымянный_градиент_299);}.cls-12{fill:url(#Безымянный_градиент_249-2);}.cls-13{fill:url(#Безымянный_градиент_299-2);}.cls-14{fill:url(#Безымянный_градиент_249-3);}.cls-15,.cls-23,.cls-25{fill:#b53b66;}.cls-15{opacity:0.8;}.cls-16{fill:url(#Безымянный_градиент_260);}.cls-17{fill:url(#Безымянный_градиент_249-4);}.cls-18{fill:#ffdba1;}.cls-19{fill:url(#Безымянный_градиент_272);}.cls-20,.cls-26{fill:#963b66;}.cls-21{opacity:0.88;}.cls-22{fill:url(#Безымянный_градиент_272-2);}.cls-27{fill:url(#Безымянный_градиент_290);}.cls-28{fill:url(#Безымянный_градиент_288);}.cls-29{fill:url(#Безымянный_градиент_290-2);}.cls-30{fill:#d42f55;}.cls-31{fill:#b71166;}.cls-32{fill:url(#Безымянный_градиент_290-3);}</style><linearGradient id="Безымянный_градиент_254" x1="16.11" y1="56.82" x2="16.11" y2="21.44" gradientUnits="userSpaceOnUse"><stop offset="0" stop-color="#e52436"/><stop offset="1" stop-color="#fb4634"/></linearGradient><linearGradient id="Безымянный_градиент_249" x1="11.39" y1="22.12" x2="20.82" y2="22.12" gradientUnits="userSpaceOnUse"><stop offset="0" stop-color="#e52436"/><stop offset="1" stop-color="#d63334"/></linearGradient><linearGradient id="Безымянный_градиент_299" x1="24.86" y1="60.34" x2="24.86" y2="25.98" gradientUnits="userSpaceOnUse"><stop offset="0" stop-color="#dd182b"/><stop offset="1" stop-color="#e53534"/></linearGradient><linearGradient id="Безымянный_градиент_249-2" x1="20.38" y1="26.64" x2="29.36" y2="26.64" xlink:href="#Безымянный_градиент_249"/><linearGradient id="Безымянный_градиент_299-2" x1="8.62" y1="60.34" x2="8.62" y2="25.98" xlink:href="#Безымянный_градиент_299"/><linearGradient id="Безымянный_градиент_249-3" x1="3.96" y1="26.64" x2="13.25" y2="26.64" xlink:href="#Безымянный_градиент_249"/><linearGradient id="Безымянный_градиент_260" x1="16.28" y1="66.08" x2="16.28" y2="30.13" gradientUnits="userSpaceOnUse"><stop offset="0" stop-color="#fe3136"/><stop offset="1" stop-color="#fb4634"/></linearGradient><linearGradient id="Безымянный_градиент_249-4" x1="11.58" y1="30.83" x2="20.98" y2="30.83" xlink:href="#Безымянный_градиент_249"/><linearGradient id="Безымянный_градиент_272" x1="1.01" y1="36.91" x2="33.34" y2="36.91" gradientUnits="userSpaceOnUse"><stop offset="0.05" stop-color="#4f03c5"/><stop offset="0.25" stop-color="#1d0066"/><stop offset="1" stop-color="#93003b"/></linearGradient><linearGradient id="Безымянный_градиент_272-2" x1="3.12" y1="52.99" x2="30.96" y2="52.99" xlink:href="#Безымянный_градиент_272"/><linearGradient id="Безымянный_градиент_290" x1="16.18" y1="22.62" x2="11.35" y2="14.26" gradientUnits="userSpaceOnUse"><stop offset="0" stop-color="#ff9000"/><stop offset="1" stop-color="#fac54c"/></linearGradient><linearGradient id="Безымянный_градиент_288" x1="15.69" y1="16.91" x2="6.83" y2="1.56" gradientUnits="userSpaceOnUse"><stop offset="0" stop-color="#fac54c"/><stop offset="1" stop-color="#ff9000"/></linearGradient><linearGradient id="Безымянный_градиент_290-2" x1="22.43" y1="29.44" x2="10.76" y2="9.23" xlink:href="#Безымянный_градиент_290"/><linearGradient id="Безымянный_градиент_290-3" x1="22.54" y1="28.94" x2="14.75" y2="15.44" xlink:href="#Безымянный_градиент_290"/></defs><g class="cls-1"><g id="Слой_2" data-name="Слой 2"><g id="layer1"><path class="cls-2" d="M21.25,46.94v.11c0,.22,0,.44-.05.66a.71.71,0,0,1,0,.14c-.12,2.22-.21,4.45-.24,6.64,0,2.57-4.81,2.32-4.81,2.32s-4.78.25-4.83-2.32c0-.67,0-1.35-.05-2,0-.45,0-.9,0-1.35v0c-.58-14.13-2.91-29-2.24-29.3,2-1,7.09.55,7.09.55s5.12-1.45,7.08-.48C24.06,23,22,34.22,21.25,46.94Z"/><path class="cls-3" d="M9,21.84c.34-2.23,12.47-2.82,14.17,0C25,24.89,8.45,25.34,9,21.84Z"/><path class="cls-4" d="M20.78,22.31a1.16,1.16,0,0,1-.55.43h0c-1.64.78-6.22,1-8,.14L12,22.8h0a1,1,0,0,1-.62-.88c.07-1.7,8.6-1.23,9.36,0A.37.37,0,0,1,20.78,22.31Z"/><path class="cls-5" d="M20.22,22.74c-1.64.78-6.22,1-8,.14L12,22.8h0C11.37,22.09,18.24,22.07,20.22,22.74Z"/><path class="cls-6" d="M9.78,23.18c-.91-.11,1,17.28,2.78,23.32,1.75,5.77,7.33-3.85,9-12.67,1.76-9.42,1.59-9.72,1.24-9.89s-4.22.92-7.43.68A16.16,16.16,0,0,1,9.78,23.18Z"/><path class="cls-7" d="M15.39,24.34c-.75-.52,3.21-.54,5-1.43s2.33-.24,2.41,0S20.76,24.69,15.39,24.34Z"/><path class="cls-8" d="M12.13,22.42c-.57,0-1.25-1.16,1.9-1.56s5.76,1,6,1.45-2.31-.26-4.57-.18A23.21,23.21,0,0,0,12.13,22.42Z"/><path class="cls-8" d="M11.21,51.07h0v0Z"/><path class="cls-8" d="M21.19,47.85c-.12,2.22-.21,4.45-.24,6.64,0,2.57-4.81,2.32-4.81,2.32s-4.78.25-4.83-2.32c0-.67,0-1.35-.05-2,.23,1.52.27,4,4.57,4a4.56,4.56,0,0,0,3.8-1.7C21.16,52.73,21.06,49.47,21.19,47.85Z"/><path class="cls-7" d="M22.77,23.94c-.63-.49-1.81,9.74-1.19,10.45S23.4,24.43,22.77,23.94Z"/><path class="cls-9" d="M18.71,55.26c-3.26,1.14-4.85-1.55-3.66-4.17,3.84-8.36,4.18-10.28,5.34-11.73,1.88-2.35.54,10.3,0,12.73A5.06,5.06,0,0,1,18.71,55.26Z"/><path class="cls-6" d="M9.53,23.94c.08-.82,2.25-.88,3.23,2.38s.32,19-.42,19.38S9.14,27.89,9.53,23.94Z"/><path class="cls-7" d="M18.14,24.36c-.89-.45,1.78-1.73,3.2-.58C21.6,24,19,24.43,18.14,24.36Z"/><path class="cls-10" d="M10.53,23.55a17,17,0,0,0,6.06,1.2,9.35,9.35,0,0,0,6.07-1.57A19.52,19.52,0,0,1,10.53,23.55Z"/><path class="cls-7" d="M18.1,24.72c-.44-.28.53-1.49,1.82-1.41s1.43.44,1.43.53A9.07,9.07,0,0,1,18.1,24.72Z"/><path class="cls-11" d="M29.21,50.73a.5.5,0,0,0,0,.11c0,.21,0,.43-.06.64a.59.59,0,0,1,0,.13c-.19,2.16-.34,4.33-.43,6.46-.11,2.5-4.82,2.27-4.82,2.27s-4.71.23-4.69-2.27c0-.65,0-1.31,0-2,0-.44,0-.88,0-1.32h0s0,0,0,0C19,41,17.18,26.63,17.85,26.3c1.95-1,7,.53,7,.53s5.09-1.47,7-.53C32.75,27.47,30.36,38.37,29.21,50.73Z"/><path class="cls-3" d="M17.85,26.37c.4-2.16,12.35-2.74,14,0C33.53,29.33,17.23,29.76,17.85,26.37Z"/><path class="cls-12" d="M29.31,26.82a1.1,1.1,0,0,1-.54.4h0c-1.58.73-5.95,1-7.67.14L21,27.28h0a.9.9,0,0,1-.56-.83c.11-1.6,8.22-1.15,8.92,0A.35.35,0,0,1,29.31,26.82Z"/><path class="cls-5" d="M28.77,27.22c-1.58.73-5.95,1-7.67.14L21,27.28h0C20.35,26.61,26.9,26.59,28.77,27.22Z"/><path class="cls-6" d="M18.61,27.67c-.9-.1.42,16.77,2,22.63C22.21,55.92,28,46.57,29.87,38c2-9.14,1.85-9.43,1.5-9.59s-4.18.89-7.34.65A15.73,15.73,0,0,1,18.61,27.67Z"/><path class="cls-7" d="M24.09,28.8c-.72-.51,3.18-.53,5-1.4s2.3-.22,2.37,0S29.37,29.14,24.09,28.8Z"/><path class="cls-8" d="M21.06,26.93c-.53,0-1.14-1.1,1.86-1.47s5.46,1,5.66,1.36-2.19-.24-4.35-.17A20.84,20.84,0,0,0,21.06,26.93Z"/><path class="cls-8" d="M19.18,54.75h0v0S19.18,54.76,19.18,54.75Z"/><path class="cls-8" d="M29.12,51.61c-.19,2.16-.34,4.33-.43,6.46-.11,2.5-4.82,2.27-4.82,2.27s-4.71.23-4.69-2.27c0-.65,0-1.31,0-2,.19,1.48.15,3.9,4.39,3.86a4.67,4.67,0,0,0,3.8-1.66C29,56.37,28.94,53.19,29.12,51.61Z"/><path class="cls-7" d="M31.37,28.41c-.61-.48-2.07,9.45-1.47,10.13S32,28.88,31.37,28.41Z"/><path class="cls-9" d="M26.46,58.83c-3.25,1.1-4.75-1.51-3.49-4.06,4-8.13,4.42-10,5.61-11.4,1.92-2.28.23,10-.36,12.37A5.2,5.2,0,0,1,26.46,58.83Z"/><path class="cls-6" d="M18.33,28.41c.11-.8,2.25-.86,3.12,2.3s-.25,18.47-1,18.82S17.83,32.24,18.33,28.41Z"/><path class="cls-7" d="M26.8,28.81c-.86-.44,1.81-1.68,3.17-.56C30.22,28.45,27.6,28.88,26.8,28.81Z"/><path class="cls-10" d="M19.33,28a16.71,16.71,0,0,0,5.93,1.17,9.54,9.54,0,0,0,6-1.52A19.54,19.54,0,0,1,19.33,28Z"/><path class="cls-7" d="M26.75,29.16c-.43-.27.57-1.44,1.84-1.36s1.39.42,1.38.51A9.18,9.18,0,0,1,26.75,29.16Z"/><path class="cls-13" d="M14.31,50.73a.87.87,0,0,1,0,.11c0,.21,0,.43,0,.64a.57.57,0,0,1,0,.13c-.07,2.16-.09,4.33-.07,6.46,0,2.5-4.69,2.27-4.69,2.27s-4.7.23-4.81-2.27c0-.65-.06-1.31-.1-2l-.09-1.32h0v0C3.59,41,.92,26.63,1.58,26.3c1.89-1,7,.53,7,.53s5-1.47,7-.53C16.36,26.7,14.76,38.37,14.31,50.73Z"/><path class="cls-3" d="M1.58,26.37c.27-2.16,12.2-2.74,14,0C17.42,29.33,1.15,29.76,1.58,26.37Z"/><path class="cls-14" d="M13.21,26.83a1.12,1.12,0,0,1-.53.41h0c-1.59.75-6.09,1-7.91.14L4.6,27.3h0A1,1,0,0,1,4,26.44c0-1.64,8.43-1.19,9.21,0A.37.37,0,0,1,13.21,26.83Z"/><path class="cls-5" d="M12.67,27.24c-1.59.75-6.09,1-7.91.14L4.6,27.3h0C3.94,26.61,10.7,26.59,12.67,27.24Z"/><path class="cls-6" d="M2.41,27.67c-.9-.1,1.37,16.77,3.32,22.63,1.87,5.62,7.13-3.73,8.52-12.3,1.49-9.14,1.32-9.43,1-9.59s-4.13.89-7.31.65A16.39,16.39,0,0,1,2.41,27.67Z"/><path class="cls-7" d="M8,28.8c-.75-.51,3.15-.53,4.88-1.4s2.28-.22,2.37,0S13.25,29.14,8,28.8Z"/><path class="cls-8" d="M4.7,26.93c-.56,0-1.25-1.12,1.83-1.51s5.7,1,5.92,1.41-2.27-.25-4.5-.18A23.71,23.71,0,0,0,4.7,26.93Z"/><path class="cls-8" d="M4.51,54.75h0v0Z"/><path class="cls-8" d="M14.27,51.61c-.07,2.16-.09,4.33-.07,6.46,0,2.5-4.69,2.27-4.69,2.27s-4.7.23-4.81-2.27c0-.65-.06-1.31-.1-2C4.86,57.58,5,60,9.2,60a4.37,4.37,0,0,0,3.7-1.66C14.36,56.37,14.18,53.19,14.27,51.61Z"/><path class="cls-7" d="M15.22,28.41c-.64-.48-1.54,9.45-.91,10.13S15.85,28.88,15.22,28.41Z"/><path class="cls-9" d="M12,58.83c-3.18,1.1-4.82-1.51-3.71-4.06,3.57-8.13,3.86-10,5-11.4,1.79-2.28.79,10,.33,12.37A4.79,4.79,0,0,1,12,58.83Z"/><path class="cls-6" d="M2.18,28.41c0-.8,2.19-.86,3.24,2.3s.79,18.47.07,18.82S1.89,32.24,2.18,28.41Z"/><path class="cls-7" d="M10.66,28.81c-.88-.44,1.72-1.68,3.15-.56C14.07,28.45,11.47,28.88,10.66,28.81Z"/><path class="cls-10" d="M3.15,28a17.28,17.28,0,0,0,6,1.17,9.14,9.14,0,0,0,5.94-1.52A19.36,19.36,0,0,1,3.15,28Z"/><path class="cls-7" d="M10.64,29.16c-.45-.27.48-1.44,1.76-1.36s1.41.42,1.41.51A8.72,8.72,0,0,1,10.64,29.16Z"/><path class="cls-15" d="M11.13,60.27c-2.4.06-7.84-12.64-5-26.74.91-4.53,5.28-4.3,7.7-4.81s1.95-2.29,1.95-2.29-2.76-1.67-2.49-1.9,3.5.37,5.46.13A24.72,24.72,0,0,0,22,23.84c.88-.13,0,.68-1.79,1.17s-2.51.85-2.29,1.95,3.61,1.67,4.43,1.86-2.45-.41-5.44-.34S9.43,31.1,9.23,31.91,11.13,60.27,11.13,60.27Z"/><path class="cls-16" d="M21.66,56.09v.11c0,.22,0,.44-.05.67a.57.57,0,0,1,0,.13c-.14,2.25-.23,4.51-.27,6.72,0,2.59-5,2.35-5,2.35s-5,.24-5-2.35c0-.68,0-1.36-.05-2,0-.46,0-.91-.06-1.37h0s0,0,0,0c-.61-14.33-3.07-29.45-2.36-29.8,2.05-1,7.46.56,7.46.56s5.4-1.55,7.47-.56C24.58,30.89,22.51,43.17,21.66,56.09Z"/><path class="cls-3" d="M8.77,30.54c.35-2.27,13.13-2.88,14.92,0C25.63,33.66,8.22,34.12,8.77,30.54Z"/><path class="cls-17" d="M20.93,31a1.09,1.09,0,0,1-.55.41h0c-1.63.75-6.19,1-8,.14l-.16-.08h0a1,1,0,0,1-.62-.86c.08-1.64,8.57-1.18,9.33,0A.37.37,0,0,1,20.93,31Z"/><path class="cls-5" d="M20.38,31.43c-1.63.75-6.19,1-8,.14l-.16-.08h0C11.56,30.8,18.4,30.78,20.38,31.43Z"/><path class="cls-6" d="M9.62,31.91c-1-.1,1,17.61,2.93,23.73,1.83,5.84,7.69-3.9,9.43-12.87,1.86-9.6,1.69-9.9,1.32-10.08s-4.44.94-7.83.69A17.33,17.33,0,0,1,9.62,31.91Z"/><path class="cls-7" d="M15.52,33.1c-.78-.53,3.39-.55,5.26-1.46s2.46-.25,2.54,0S21.18,33.46,15.52,33.1Z"/><path class="cls-8" d="M12.32,31.12c-.57,0-1.24-1.12,1.9-1.51s5.73,1,6,1.41-2.3-.25-4.55-.18A24.28,24.28,0,0,0,12.32,31.12Z"/><path class="cls-8" d="M11.13,60.27h0a.08.08,0,0,1,0,0S11.13,60.28,11.13,60.27Z"/><path class="cls-8" d="M21.6,57c-.14,2.25-.23,4.51-.27,6.72,0,2.59-5,2.35-5,2.35s-5,.24-5-2.35c0-.68,0-1.36-.05-2,.24,1.54,1.19,3.82,4.78,4C20.38,65.92,21.38,59.47,21.6,57Z"/><path class="cls-7" d="M21,33.53c-.67-.49-1.36,9.08-.7,9.8S21.62,34,21,33.53Z"/><path class="cls-9" d="M19,64.5c-3.41,1.15-5.08-1.56-3.83-4.21,4-8.48,4.39-10.42,5.61-11.89,2-2.39.55,10.44,0,12.9A5.12,5.12,0,0,1,19,64.5Z"/><path class="cls-6" d="M9.35,32.69c.09-.83,2.38-.9,3.41,2.43s.33,19.35-.45,19.71S9,36.72,9.35,32.69Z"/><path class="cls-7" d="M18.42,33.12c-.93-.46,1.88-1.77,3.38-.6C22.07,32.74,19.28,33.19,18.42,33.12Z"/><path class="cls-10" d="M10.41,32.29a18.34,18.34,0,0,0,6.38,1.22,10,10,0,0,0,6.39-1.6A21.15,21.15,0,0,1,10.41,32.29Z"/><path class="cls-18" d="M18.38,33.49c-.47-.29.56-1.52,1.92-1.44s1.5.45,1.5.54A9.76,9.76,0,0,1,18.38,33.49Z"/><path class="cls-19" d="M33.34,29.57c0,.12-.1,1.49-.34,3h0a.07.07,0,0,0,0,0c-.28,1.7-.74,3.57-1.47,4.12-.52.38-7.71,7.89-14.35,7.9-5.77,0-13.33-5.2-14.73-6.86h0a1,1,0,0,1-.22-.34C1.91,36.4.83,32,1,31.77a8,8,0,0,1,.86-.62,3.61,3.61,0,0,0,.1.76C2,32,10.34,37.09,16.6,37c8.36-.18,15.24-6.82,15.24-6.82l.09-1S33.34,29.3,33.34,29.57Z"/><path class="cls-20" d="M1,31.77s5.44,4.37,10.81,6.15c4.55,1.51,4,5.49,3.46,6.08S5.14,41.08,2.91,38C1.25,35.71,1,31.77,1,31.77Z"/><path class="cls-21" d="M2.23,32.1C1.69,32.05,8,37.51,15.09,38c7.42.54,15.36-5.41,17.08-7.2,1.57-1.63.12-1.26.12-1.26A9.52,9.52,0,0,1,30,31.68,25.85,25.85,0,0,1,16.59,37C11.36,37.32,2.23,32.1,2.23,32.1Z"/><path class="cls-22" d="M31,45.65a34.88,34.88,0,0,1-.38,5.16h0A4.18,4.18,0,0,1,29.76,53c-.45.39-7,7.74-12.71,7.75-5.4,0-13.16-6.12-13.42-7.17,0-.21-.1-.57-.16-1a28.25,28.25,0,0,1-.31-4.72,6.76,6.76,0,0,1,.74-.62A4.34,4.34,0,0,0,4,48s7.19,5.18,12.56,5c7.21-.18,13.11-6.82,13.11-6.82l.08-1S31,45.38,31,45.65Z"/><path class="cls-21" d="M4.19,48.18c-.46,0,4.93,5.41,11.06,5.93,6.39.54,13.22-5.41,14.7-7.2,1.35-1.63.11-1.26.11-1.26a9.08,9.08,0,0,1-2,2.11A18.45,18.45,0,0,1,16.55,53C12,53.27,4.19,48.18,4.19,48.18Z"/><path class="cls-20" d="M3.36,49c.49-.49,6.51,4,10.45,5.11s4,5.66,3,6.2S6.18,55.87,4.6,54.14,3.36,49,3.36,49Z"/><path class="cls-7" d="M18.43,53.89c-1.46.08,2.3-1.26,4.32-2.46s4-2.42,4.4-2.33S23.2,53,18.43,53.89Z"/><path class="cls-7" d="M17.34,38.06c-1.82-.33,2.78-1.15,6.66-2.84s5-2.36,5.26-2.3S24.28,37.2,17.34,38.06Z"/><path class="cls-23" d="M29.66,46.21c-4.91,4-7.54,3.62-7.54,3.62L22,51.77A24.87,24.87,0,0,0,29.66,46.21Z"/><path class="cls-23" d="M4,48c.23.78,4.56,2.4,6.34,2l.2,1.69S4.86,49.21,4,48Z"/><path class="cls-15" d="M23.82,33.53s6.32-1.27,8-3.4c0,0-2.4,2.71-8.3,5.29Z"/><path class="cls-15" d="M2,31.91S5.49,34.05,8.76,34l.09,1.3A40,40,0,0,1,2,31.91Z"/><path class="cls-23" d="M22.53,46.21c.51-2.47,7.56-8.15,7.56-8.15a45.71,45.71,0,0,1-7.25,5Z"/><path class="cls-23" d="M5.36,40.17c.54.83,4.16,3.93,4.73,6l-.37-3.57A21.83,21.83,0,0,1,5.36,40.17Z"/><path class="cls-20" d="M33,32.64c-.28,1.7-.74,3.57-1.47,4.12-.52.38-7.71,7.89-14.35,7.9-5.77,0-13.33-5.2-14.73-6.86.23.2,8,6.59,14.93,6.27S31.15,37,31.84,35.87A13.13,13.13,0,0,0,33,32.64Z"/><path class="cls-20" d="M30.58,50.81A4.18,4.18,0,0,1,29.76,53c-.45.39-7,7.74-12.71,7.75-5.4,0-13.16-6.12-13.42-7.17,0-.21-.1-.57-.16-1,0,0,6.23,8,13.12,7.81S30.11,52.31,30.58,50.81Z"/><path class="cls-7" d="M19.05,53.89c-2,.74-1.44,5.42-1.34,6s2.89-.23,3.27-.55c2.2-1.91,1.06-5.62.67-6S19.84,53.61,19.05,53.89Z"/><path class="cls-7" d="M18,38.44c-1,.19-1.25,5.68-.59,5.63s4.46-.89,5.16-1.65a5.15,5.15,0,0,0,.8-5.51C23.09,36.49,19.79,38.09,18,38.44Z"/><path class="cls-15" d="M11.08,59a26.59,26.59,0,0,0,5.31,2.5c2.06.51,5.07-2,5.07-2a23.74,23.74,0,0,1-5,1.2C14.77,60.79,11.08,59,11.08,59Z"/><path class="cls-15" d="M9.72,42.64a11.26,11.26,0,0,0,6.11,3.06c3.65.48,7-2.61,7-2.61a12.82,12.82,0,0,1-7,1.49A17.94,17.94,0,0,1,9.72,42.64Z"/><g class="cls-24"><path class="cls-25" d="M12.16,47.85c-1.65.42.23,2.68.78,3.22s1-2,.79-2.62A1.24,1.24,0,0,0,12.16,47.85Z"/><path class="cls-25" d="M14.27,50.17c-.34-.59.1-1,.49-.83S14.37,50.33,14.27,50.17Z"/><path class="cls-25" d="M27.34,41.82c-.88,0-1.54,2-.91,2.6s1.8-1.1,1.74-1.69A1,1,0,0,0,27.34,41.82Z"/><path class="cls-25" d="M26,30.23c-.48.15-.24,1.24.17,1.28S27.61,29.74,26,30.23Z"/></g><path class="cls-26" d="M26.31,35c-2.3,1.1-2.48,1.81-2.16,3s4.9-1.63,5.82-3.42S26.31,35,26.31,35Z"/><path class="cls-26" d="M24.43,51.77c-1.49,1,0,4.64.52,4.9s3.62-3.55,3.75-5.17S25.67,50.92,24.43,51.77Z"/><path class="cls-27" d="M15.69,16.83s0,.13,0,.14a3.75,3.75,0,0,1-2-.07,5.49,5.49,0,0,0-1-.44,10.68,10.68,0,0,1,2.6,6.61c0,.34-2.07.11-2.07-.17a8.19,8.19,0,0,0-2.29-5.51c-.55-.56-1.08-1.08-.93-1.86a1.37,1.37,0,0,1,1-1,4.12,4.12,0,0,1,3.41.59,5.14,5.14,0,0,0,.71.32C14.87,16.15,15.18,16.29,15.69,16.83Z"/><path class="cls-28" d="M15.69,16.77H15.6a10,10,0,0,1-7.46-5.4C6.48,8.11,6.78,4.24,9,.45a.91.91,0,1,1,1.57.91c-2.41,4.15-1.76,7.28-.79,9.18a8.2,8.2,0,0,0,6,4.42.91.91,0,0,1-.09,1.81Z"/><path class="cls-29" d="M28.43,23.28h0c-.06.1-.12.2-.17.3l0,0c-.24.42-.49.81-.73,1.18a28.6,28.6,0,0,1-2.29,3c-.69,0-1.55,0-2,0A.89.89,0,0,1,23.5,27s.21-.23.52-.6h0a25.2,25.2,0,0,0,3-4.43,0,0,0,0,0,0,0c.16-.3.31-.61.46-.93v0a9.36,9.36,0,0,0,.86-6.11,2.41,2.41,0,0,0-1.19-1.75A2.49,2.49,0,0,0,25.76,13a6.26,6.26,0,0,0-1.1.24h0A31.53,31.53,0,0,0,20.51,15a26.43,26.43,0,0,1-4.26,1.79c-2.3.64-4.69,0-7-.63-2.48-.67-4.82-1.3-6.62-.18a1.72,1.72,0,0,0-.81,1.76,2.63,2.63,0,0,0,0,.38,1.38,1.38,0,0,0,0,.2c.49,2.46,4.4,6.4,7.42,8.21a6.7,6.7,0,0,0,2.23.95c.49.08-2.73.56-3.2.37a15.62,15.62,0,0,1-5.55-4.24l0,0A11.64,11.64,0,0,1,.11,18.72a3.77,3.77,0,0,1,1.57-4.25c2.47-1.53,5.3-.76,8,0,.64.17,1.28.35,1.92.49h0a10.44,10.44,0,0,0,3.14.31,4.41,4.41,0,0,0,.54-.07h0l.43-.1a13.12,13.12,0,0,0,1.72-.63h0l.45-.2h0l1.73-.82c3-1.43,6-2.91,8.24-1.88a4.16,4.16,0,0,1,2.19,2.93C31,17.5,29.85,20.72,28.43,23.28Z"/><path class="cls-30" d="M24.65,13.28A31.07,31.07,0,0,0,20.51,15a26.43,26.43,0,0,1-4.26,1.79c-2.3.64-4.69,0-7-.63-2.48-.67-4.82-1.3-6.62-.18a1.72,1.72,0,0,0-.81,1.76c0-.65,0-2,.88-2.42,1.2-.65,6.59.7,9.46,1.2,1.75.31,2.42-.58,2.64-1.31a4.51,4.51,0,0,0,.53-.07h0a2,2,0,0,0,.43-.1,11.82,11.82,0,0,0,1.72-.63c-2.23,1.07.17,1.27,2.17.65C21,14.67,22.76,13.79,24.65,13.28Z"/><path class="cls-15" d="M27.06,22c.16-.3.31-.61.46-.93A10,10,0,0,1,27.06,22Z"/><path class="cls-30" d="M27.53,21a9.36,9.36,0,0,0,.86-6.11,2.41,2.41,0,0,0-1.19-1.75A2.55,2.55,0,0,0,25.77,13,8.19,8.19,0,0,1,27.93,13C30.54,13.2,28.6,18.64,27.53,21Z"/><path class="cls-30" d="M21.13,12.74c3.1-1.06,3.54.1,3.4.36a3,3,0,0,1-1.53.79,3.72,3.72,0,0,0-3.09-.49A5.53,5.53,0,0,1,21.13,12.74Z"/><path class="cls-30" d="M9,.45A8.28,8.28,0,0,0,7.51,6.19C8,9.28,9.08,4.06,10,2.46A2.35,2.35,0,0,1,9,.45Z"/><path class="cls-31" d="M10.16,16.44s2.1,2.2,2.88,3.14,1.37-.31,1.27-.66A11.06,11.06,0,0,0,13.19,17Z"/><path class="cls-32" d="M24.31,17.41C23.56,23,18.67,30,17.44,31.68l-.06.09a.18.18,0,0,0-.05.07l-.16.21s-3.07.11-2.77-.14c0,0,.14-.18.36-.49h0c1.4-1.94,6.44-9.19,7.11-14.21a2.44,2.44,0,0,0-.21-1.8h0l-.07-.06c-.71-.5-2.35.38-3.85,1l-.64.24a11.4,11.4,0,0,1-1.8.46c-.55-.51-.44-1.12-.14-1.82h0c.17-.06.58-.25.92-.41,1.94-.9,5.29-2.76,7.06-1.52C24.14,14,24.55,15.64,24.31,17.41Z"/><path class="cls-7" d="M20.62,13.52c-1.74.21,1.23.79,1.44,2.5.13,1.05-1.27,5.87-1.16,7.29s4.41-4.57,3.28-8.44C23.3,11.86,20.62,13.52,20.62,13.52Z"/><path class="cls-30" d="M21.66,15.4l-.07-.06c-.71-.5-2.35.38-3.85,1,.46-.37.15-1.2,1.29-1.65A1.92,1.92,0,0,1,21.66,15.4Z"/><path class="cls-30" d="M17.44,31.68l-.06.09a.18.18,0,0,0-.05.07l-.16.21s-3.07.11-2.77-.14c0,0,.14-.18.36-.49,2.17,1.63,4.76-3.87,5.93-4.86A57.15,57.15,0,0,1,17.44,31.68Z"/><path class="cls-30" d="M8.34,27.89a15.62,15.62,0,0,1-5.55-4.24c.27.23,3.78,3.13,5.55,3.12a1.76,1.76,0,0,0,1-.2,6.7,6.7,0,0,0,2.23.95C12,27.6,8.81,28.08,8.34,27.89Z"/><path class="cls-30" d="M27.51,24.81a28.6,28.6,0,0,1-2.29,3c-.69,0-1.55,0-2,0A.89.89,0,0,1,23.5,27s.21-.23.52-.6h0C23.82,27.61,26,26.79,27.51,24.81Z"/><path class="cls-30" d="M28.43,23.29c-.06.1-.12.2-.17.3A1.39,1.39,0,0,1,28.43,23.29Z"/><path class="cls-7" d="M17.34,38.06c-.67-.23,1.8-1.29,2.64-1.37a3.26,3.26,0,0,1,1.65.34A18,18,0,0,1,17.34,38.06Z"/><path class="cls-7" d="M18.53,53.86c-.33-.14,1.17-1.1,1.93-1.27a1.68,1.68,0,0,1,1.33.13A12.35,12.35,0,0,1,18.53,53.86Z"/></g></g></g></svg>