<svg xmlns="http://www.w3.org/2000/svg" xmlns:xlink="http://www.w3.org/1999/xlink" viewBox="0 0 51.94 65.51"><defs><style>.cls-1{isolation:isolate;}.cls-2{fill:url(#Безымянный_градиент_197);}.cls-3{fill:url(#Безымянный_градиент_696);}.cls-4{fill:url(#Безымянный_градиент_197-2);}.cls-5{fill:url(#Безымянный_градиент_696-2);}.cls-6{fill:url(#Безымянный_градиент_227);}.cls-7{fill:#900055;}.cls-13,.cls-18,.cls-25,.cls-28,.cls-29,.cls-31,.cls-34,.cls-35,.cls-7,.cls-8{mix-blend-mode:multiply;}.cls-25,.cls-29,.cls-35,.cls-7{opacity:0.3;}.cls-8{fill:#da0553;opacity:0.2;}.cls-9{fill:#8981ff;}.cls-10{fill:url(#Безымянный_градиент_38);}.cls-11{fill:#665cff;}.cls-12{fill:#5d52ff;}.cls-13{fill:#6e3b66;}.cls-13,.cls-18,.cls-28,.cls-31,.cls-34{opacity:0.5;}.cls-14{fill:#fff;mix-blend-mode:soft-light;}.cls-15{fill:url(#Безымянный_градиент_638);}.cls-16{fill:url(#Безымянный_градиент_638-2);}.cls-17{fill:url(#Безымянный_градиент_38-2);}.cls-18,.cls-35{fill:#811166;}.cls-19{fill:url(#Безымянный_градиент_638-3);}.cls-20{fill:url(#Безымянный_градиент_676);}.cls-21{fill:url(#Безымянный_градиент_638-4);}.cls-22{fill:url(#Безымянный_градиент_638-5);}.cls-23{fill:url(#Безымянный_градиент_676-2);}.cls-24{fill:url(#Безымянный_градиент_638-6);}.cls-25{fill:#912774;}.cls-26{fill:#ff4f90;}.cls-27{fill:url(#Безымянный_градиент_222);}.cls-28,.cls-29{fill:#9d1166;}.cls-30{fill:#ff5ca2;}.cls-31{fill:#d42f55;}.cls-32{fill:#fff455;}.cls-33{fill:#920066;}.cls-34{fill:#9a1166;}</style><linearGradient id="Безымянный_градиент_197" x1="23.55" y1="66.37" x2="8.77" y2="31.33" gradientUnits="userSpaceOnUse"><stop offset="0" stop-color="#512eff"/><stop offset="1" stop-color="#6b2ed8"/></linearGradient><linearGradient id="Безымянный_градиент_696" x1="30.01" y1="52.23" x2="49.64" y2="52.23" gradientUnits="userSpaceOnUse"><stop offset="0" stop-color="#3d069a"/><stop offset="1" stop-color="#6509ba"/></linearGradient><linearGradient id="Безымянный_градиент_197-2" x1="28.41" y1="64.31" x2="13.64" y2="29.28" xlink:href="#Безымянный_градиент_197"/><linearGradient id="Безымянный_градиент_696-2" x1="32.21" y1="38.35" x2="51.94" y2="38.35" xlink:href="#Безымянный_градиент_696"/><linearGradient id="Безымянный_градиент_227" x1="0.66" y1="29.92" x2="51.93" y2="29.92" gradientUnits="userSpaceOnUse"><stop offset="0.04" stop-color="#9190ff"/><stop offset="1" stop-color="#6b59ff"/></linearGradient><linearGradient id="Безымянный_градиент_38" x1="72.22" y1="63.51" x2="71.07" y2="47.12" gradientTransform="translate(-45.29 -51.93) rotate(11.31)" gradientUnits="userSpaceOnUse"><stop offset="0" stop-color="#ffac15"/><stop offset="0.63" stop-color="#ff8100"/><stop offset="0.7" stop-color="#ffa400"/><stop offset="1" stop-color="#ffba00"/></linearGradient><linearGradient id="Безымянный_градиент_638" x1="19.62" y1="65.02" x2="19.62" y2="28.45" gradientUnits="userSpaceOnUse"><stop offset="0" stop-color="#de0086"/><stop offset="1" stop-color="#ff003b"/></linearGradient><linearGradient id="Безымянный_градиент_638-2" x1="38.37" y1="64.52" x2="38.37" y2="28.41" xlink:href="#Безымянный_градиент_638"/><linearGradient id="Безымянный_градиент_38-2" x1="194.72" y1="110.78" x2="192.63" y2="80.91" gradientTransform="translate(-91.44 -162.28) rotate(28.33)" xlink:href="#Безымянный_градиент_38"/><linearGradient id="Безымянный_градиент_638-3" x1="19.67" y1="28.75" x2="19.67" y2="25.34" xlink:href="#Безымянный_градиент_638"/><linearGradient id="Безымянный_градиент_676" x1="18.32" y1="30.93" x2="18.32" y2="18.83" gradientUnits="userSpaceOnUse"><stop offset="0" stop-color="#de0057"/><stop offset="1" stop-color="#83003b"/></linearGradient><linearGradient id="Безымянный_градиент_638-4" x1="35.99" y1="28.85" x2="35.99" y2="25.57" xlink:href="#Безымянный_градиент_638"/><linearGradient id="Безымянный_градиент_638-5" x1="18.2" y1="31.76" x2="18.2" y2="15.75" xlink:href="#Безымянный_градиент_638"/><linearGradient id="Безымянный_градиент_676-2" x1="40.9" y1="28.24" x2="40.9" y2="12.13" xlink:href="#Безымянный_градиент_676"/><linearGradient id="Безымянный_градиент_638-6" x1="39.15" y1="29.46" x2="39.15" y2="11.41" xlink:href="#Безымянный_градиент_638"/><linearGradient id="Безымянный_градиент_222" x1="29.87" y1="30.5" x2="29.87" y2="26.64" gradientUnits="userSpaceOnUse"><stop offset="0" stop-color="#ff0086"/><stop offset="0.99" stop-color="#ff4a77"/></linearGradient></defs><g class="cls-1"><g id="Слой_2" data-name="Слой 2"><g id="layer1"><path class="cls-2" d="M30.13,65.51S5,62.27,4.38,61.06a6.12,6.12,0,0,1-.12-1.44h0C4.12,54.65,4.8,39,4.8,39L30,41.56l.12,22.66Z"/><path class="cls-3" d="M49.63,59.09a4.21,4.21,0,0,1-.29,2C48,62.54,30.13,65.51,30.13,65.51V64.22L30,41.56,48.25,39S49.77,53.63,49.63,59.09Z"/><path class="cls-4" d="M32.74,45.51c-.08.69-.17,1.14-.29,1.21C31.81,47.1,3.74,44.41,3,44L3,43.89a12.12,12.12,0,0,1-.83-3.09A92.29,92.29,0,0,1,.69,30.44c0-.09.31-.15.84-.16,5-.14,30.25,2.89,30.92,3.64a.77.77,0,0,1,.15.36,1,1,0,0,1,0,.2A55.1,55.1,0,0,1,32.74,45.51Z"/><path class="cls-5" d="M49.93,42.09h0a4,4,0,0,1-.38,1.2c-.48.37-16.78,3.7-17.1,3.42a3.66,3.66,0,0,1-.14-1.16,69.33,69.33,0,0,1,.29-11.28c.1-.55.22-.91.37-1,.81-.52,18.75-3.73,19-3.28S50.7,38.87,49.93,42.09Z"/><path class="cls-6" d="M51.93,30c0,.61-15.59,4.11-19.29,4.48l-.43,0c-2.47.06-27.16-2.69-31-3.85-.29-.08-.46-.15-.5-.22C.31,29.9,4,29,8.81,28L9.05,28a177.67,177.67,0,0,1,18.33-2.62C33.51,25,51.9,29.37,51.93,30Z"/><path class="cls-7" d="M49.93,42.1a4,4,0,0,1-.38,1.2c-.48.37-16.78,3.7-17.1,3.42C31.82,47.1,3.74,44.41,3,44a9.2,9.2,0,0,1-.89-3.16c2.47,3.44,8.34,3.81,17,4.76s12.58,0,13.15,0l.44-.05c2.41-.29,13.6-1.76,15.19-2.11S49.91,42.18,49.93,42.1Z"/><path class="cls-8" d="M2.12,33c1.13-1.41,27.27,1.77,28.71,3.38s1.21,7.27,0,8.79S6.5,43.31,4.24,41.66,2.12,33,2.12,33Z"/><path class="cls-8" d="M34.14,34.51c-1.55.29-1.27,8.93-.56,10.2s13-.91,15-2,3-10.92,2.63-11.56S40.4,33.31,34.14,34.51Z"/><path class="cls-9" d="M51.33,29.69c.6.31-12.13,4-19.5,4.36S1,30.61,1,30.61s4.33,1.19,16.89,2.7,14.23,2.07,14.92,2A75.74,75.74,0,0,1,43,32.61c6.54-1.2,8.89-2.06,8.89-2.33S51.33,29.69,51.33,29.69Z"/><path class="cls-10" d="M27.3,26.35c-1.66-4.23-3-12.62-6.28-16.71S9.1,17.14,4.91,16.4s-5.36-3.76-3.28-6.29,4.49,1.28,4,2.23l1.63.24S5.54,9.14,3.44,8.76.08,11.47,0,13.82,5.06,18,6.34,18.21s8.15-9.38,12.78-8S23,24.16,27.3,26.35Z"/><path class="cls-7" d="M49.63,59.09a4.21,4.21,0,0,1-.29,2C48,62.54,30.13,65.51,30.13,65.51S5,62.27,4.38,61.06a6.12,6.12,0,0,1-.12-1.44c.11,1.18,14,3.47,18.86,4s6.89.58,6.89.58h.12c.93-.07,7.23-.52,12.93-1.45C49.23,61.77,49.63,59.09,49.63,59.09Z"/><path class="cls-8" d="M4.59,44.24c-.25,0,5.28,14.52,13.46,16.82s11.71-13.22,11.71-14S4.59,44.24,4.59,44.24Z"/><path class="cls-8" d="M30.78,46.71c-1,.34,1.36,14.93,2.19,16.07s13.69-.9,15.52-2.8,1.09-15-.63-15.41S30.78,46.71,30.78,46.71Z"/><path class="cls-11" d="M30.82,35.06c.76.12,1.14,11.7,1.63,11.66s.53-9.46,1.28-11.66A6.12,6.12,0,0,1,30.82,35.06Z"/><path class="cls-12" d="M30.13,46.72C29.7,46.65,29.82,63,30,64S30.67,51.33,30.13,46.72Z"/><path class="cls-13" d="M4.52,46.07c1.76-2.14,21.16,1.4,26.66,2.43s17.7-2.77,17.7-2.77l-.19-2.16s-13,2.8-16.48,3.16S4.59,44.24,4.59,44.24Z"/><path class="cls-7" d="M5.76,61.63s1.63-.65,10.33.67,12.8,3,12.8,3S12.36,63.25,5.76,61.63Z"/><path class="cls-7" d="M30.53,65.35s7.91-2.35,11-3a45.19,45.19,0,0,1,7.12-.83s-2.42.8-7.74,2S30.53,65.35,30.53,65.35Z"/><path class="cls-14" d="M31.15,34.07c-1.48.58.79,1.5,1.69,1.25a9.74,9.74,0,0,0,2.78-1.13C35.76,33.91,31.15,34.07,31.15,34.07Z"/><path class="cls-15" d="M21.71,64.37a1.4,1.4,0,0,1-1.71.57c-1.27-.32-7.18-1.12-8.16-1.39S9.65,33.21,9.76,31.93s16.92-3.4,17.63-3.47a3.29,3.29,0,0,1,2.11,1.16c.14.31-9.5,2.85-10.21,3.55s0,30.84.33,30.86S21.71,64.37,21.71,64.37Z"/><path class="cls-16" d="M27.7,28.48c-.73.06.67.76,1.8,1.14s12.15,1.74,13.11,3.07S40.9,63.5,40.9,63.5l-1.67.37a3.57,3.57,0,0,0,1.35.64,31.48,31.48,0,0,0,6-1.58c.32-.28,2.82-31,2.64-31.76S34,27.94,27.7,28.48Z"/><path class="cls-17" d="M27.59,26.8s-.14-12.42,3.26-17.73,5.89-1,8-.45,4.11-4.33,1.59-7-2.26.11-2.26.11L36.69.9S38-1.16,40.59,1s1.5,6.58-.28,8.44-3.57-2.57-6.62-.25-6,17.45-5.52,18.58S27.59,26.8,27.59,26.8Z"/><path class="cls-18" d="M11.65,31.77c-.91.39,5.78,1.33,8.37.73a46,46,0,0,1,10.51-1.45A60.17,60.17,0,0,1,42.4,32.5a32.49,32.49,0,0,0-6.78-2.22c-3.12-.54,3.53-1.15,3.53-1.15l-2.68-.38-12.73.74S12.55,30.37,11.65,31.77Z"/><path class="cls-19" d="M26.7,28.54c-.55.07-14.09-1.22-14.64-1.13l-3.77.7a6.68,6.68,0,0,1,.52-1.36c.21-.26,6.54-1.2,8.69-1.4S31,28.06,31,28.54,26.7,28.54,26.7,28.54Z"/><path class="cls-20" d="M9.41,20.43c-1.06.46,1,9.61,6.21,10.36s11.67-1.76,11.88-2-7.12-8.65-8.29-9.67S9.41,20.43,9.41,20.43Z"/><path class="cls-21" d="M43.18,27.59s.36-1,0-1.21A69.42,69.42,0,0,0,36,25.57c-1.09,0-7.47,3-7.32,3.14a11.42,11.42,0,0,0,3.87,0c2.22-.25,9.18-1.43,9.18-1.43Z"/><path class="cls-22" d="M28.42,29.18h0l-.09-.06a1.7,1.7,0,0,0,.31-.42A82.71,82.71,0,0,0,23,18.28l0,0a7.4,7.4,0,0,0-1.33-1.67c-4-2.74-11.49,2-13.38,3.86a1.74,1.74,0,0,0-.45.82l0,.13a6.6,6.6,0,0,0,1.12,4.17,14.48,14.48,0,0,0,1.47,2.09,14.18,14.18,0,0,0,1.68,1.7A12,12,0,0,0,14.46,31c4,2.07,11.08-.57,13.31-1.49l.68-.29h0Zm-13.2,1.09a4.24,4.24,0,0,1-1.55-.86,9.23,9.23,0,0,1-1.17-1.17C10.58,26,9.18,22.56,9.75,21.52,10.54,20.1,23.31,27.31,26,29l0,0C23.24,29.6,17.55,30.9,15.22,30.27Z"/><path class="cls-23" d="M35.12,13.79c4-1.09,2.52,9.78,1.55,11.54S33,28.24,33,28.24s12.14-.75,14.37-4.92A13.07,13.07,0,0,0,48,12.74C47.2,10.9,35.12,13.79,35.12,13.79Z"/><path class="cls-24" d="M48.35,11.79h0l-.13-.07c-1.58-.62-10.05-.43-13.58,1.78a4.84,4.84,0,0,0-.9.73C31.08,17.12,28,28.34,29.5,28.59a5.3,5.3,0,0,0,1.3.09c-.82.41-1.1.45.44.75A7,7,0,0,0,33,29.35c.45-.05,1-.12,1.5-.22h0L35.5,29l.43-.08,1.47-.32,1-.25.8-.21c.87-.23,1.75-.49,2.58-.76L42.9,27s.05,0,.07,0l.42-.16.1,0,.4-.16,0,0,.73-.31c.34-.16.65-.31,1-.47l.28-.17a3.79,3.79,0,0,0,.34-.2,6.36,6.36,0,0,0,.57-.4h0l.25-.21h0l.2-.2a3,3,0,0,0,.24-.28l.09-.15a1.19,1.19,0,0,0,.12-.22,18.07,18.07,0,0,0,1-3.72h0v0c0-.12,0-.24.07-.37s0,0,0-.07l.09-.58v-.05a2.17,2.17,0,0,0,0-.25c0-.19,0-.39.07-.58h0c0-.14,0-.28,0-.42v-.09l0-.12c0-.19,0-.39,0-.57l0-.55v0c0-.12,0-.24,0-.37s0-.48,0-.71C49.19,13.61,49,12.19,48.35,11.79ZM46.12,23.91c-2.18,2.16-8.53,3.25-12.23,3.93A13.43,13.43,0,0,0,38,24.5c4.13-4.75,7.9-11.61,9.32-11S49.09,21,46.12,23.91Z"/><path class="cls-18" d="M40.58,64.51s1.2-.62,2-10.7.61-21,1-21.31,5.62-1.33,5.62-1.33S47,60.71,46.28,62.22,40.58,64.51,40.58,64.51Z"/><path class="cls-18" d="M20.27,65s-1.11.09-1.4-1.59-1.1-28.67-.67-29.87,9.17-3.11,9.17-3.11-7.33,2.3-7.92,3.22-.5,12-.43,12.13.94.13.94.13.38,18.05.51,18.24,1.24.22,1.24.22A1.63,1.63,0,0,1,20.27,65Z"/><path class="cls-25" d="M10.72,33c-.53.1-.26,11.32.84,15.26S17,56,17.76,56.06s.09-20.57,0-21.37S10.72,33,10.72,33Z"/><path class="cls-18" d="M42.61,32.69c.42.57-.19,10.9-1.1,12.4,0,0-.91,17.62-1.47,18.58l.86-.17S43.45,37.21,42.61,32.69Z"/><path class="cls-26" d="M9.9,32.19c.13-.84,3.44.33,5.68.42s2.5.06,2.53.42-.41.95-3.13.66S9.73,32.78,9.9,32.19Z"/><path class="cls-26" d="M42.78,32.13A5,5,0,0,0,46,32c1.84-.54,2.83-.64,2.89-.83A29.8,29.8,0,0,0,42.78,32.13Z"/><path class="cls-18" d="M28.42,29.18l-.13-.08-.54-.3c-3.61-2-16-8.46-19.27-7.87a1,1,0,0,0-.64.33l-.06.1A6.84,6.84,0,0,0,9,25.69l0,0a15.07,15.07,0,0,0,1.39,1.93,14.18,14.18,0,0,0,1.68,1.7A11.66,11.66,0,0,0,14.43,31c4,2.07,11.08-.57,13.31-1.49.43-.17.68-.29.68-.29ZM12.5,28.24c-1.94-2.27-3.35-5.7-2.78-6.75C10.51,20.06,23.41,27.36,26,29h0c-2.76.59-8.43,1.88-10.75,1.25a4.14,4.14,0,0,1-1.53-.83A9.23,9.23,0,0,1,12.5,28.24Z"/><path class="cls-18" d="M48.35,11.79h0a3,3,0,0,0-2.19.36c-3.13,1.76-5.72,8.36-9,11.76L33.23,28l-.27.28c-.36.38-.44.45-.44.45l.51.65c.45-.05,1-.12,1.5-.22h0L35.5,29l.43-.08,1.47-.32,1-.25.8-.21c.87-.23,1.75-.49,2.58-.76L42.9,27s.05,0,.07,0l.42-.16.1,0,.4-.16,0,0,.73-.31c.34-.16.65-.31,1-.47l.28-.17a3.79,3.79,0,0,0,.34-.2,6.36,6.36,0,0,0,.57-.4h0l.25-.21h0l.2-.2a3,3,0,0,0,.24-.28l.09-.15a1.19,1.19,0,0,0,.12-.22,18.07,18.07,0,0,0,1-3.72h0v0c0-.12,0-.24.07-.37s0,0,0-.07l.09-.58v-.05a2.17,2.17,0,0,0,0-.25c0-.19,0-.39.07-.58h0c0-.14,0-.28,0-.42v-.09l0-.12c0-.19,0-.39,0-.57l0-.55v0c0-.12,0-.24,0-.37s0-.48,0-.71C49.19,13.61,49,12.19,48.35,11.79ZM46.12,23.91c-2.18,2.16-8.53,3.25-12.23,3.93A13.43,13.43,0,0,0,38,24.5c4.13-4.75,7.9-11.61,9.32-11S49.09,21,46.12,23.91Z"/><path class="cls-25" d="M30,26.81s-.08-5.58,2.51-8.58-.7,5.94-.86,7.11,4.88-7.92,7.49-9.15-2,7-3.53,8.69a11.58,11.58,0,0,1-4.16,2.65Z"/><path class="cls-25" d="M28.17,27.72s-4.63-6-6.31-6.8-3,1-.51,3.4S28.17,27.72,28.17,27.72Z"/><path class="cls-27" d="M26.29,29.69c-.78,1.32,6.13.77,6.68.18l.54-.58s-2-2.09-3.5-2.48a3.67,3.67,0,0,0-2.34,0,2.87,2.87,0,0,1,.57,2.4C27.8,30.3,26.29,29.69,26.29,29.69Z"/><path class="cls-28" d="M38.69,23.64c-.72,1.6,8.78-.93,9.2-4.19s.26-5.78-1-5.62-4.76,5.48-6,7.09S38.69,23.64,38.69,23.64Z"/><path class="cls-28" d="M9.91,21.39c-.76.17.11,4.6,2.54,6s9.89.73,10.38,0S11.66,21,9.91,21.39Z"/><path class="cls-18" d="M26.29,30.05c.57.54,2.64-.25,4.61-.91s2.61.15,2.61.15a1.76,1.76,0,0,1-1,.94,32.94,32.94,0,0,1-4.74.43A2.42,2.42,0,0,1,26.29,30.05Z"/><path class="cls-14" d="M34.34,14.23c-2,2.1,3.68.36,6.21.73s4.88-2.7,5.4-3.1S36.48,11.82,34.34,14.23Z"/><path class="cls-14" d="M10.55,19.65c-.27.63,3.42.71,8.79.26S22,17,20.21,16.45,11.34,17.78,10.55,19.65Z"/><path class="cls-9" d="M4.27,60.09l.31-15.58A147.22,147.22,0,0,0,4.27,60.09Z"/><path class="cls-9" d="M2,30.87c-.44-.68,4.25-2.34,4.25-2.34S.67,29.85.69,30.44,2,30.87,2,30.87Z"/><path class="cls-26" d="M13.68,21.34c-.56,0,6.9,3.85,9,4.9s3.4,1.8,3.4,1.8S15.72,21.36,13.68,21.34Z"/><path class="cls-26" d="M36,25.1s6-8.58,7.74-10.65C43.73,14.45,39.68,21.75,36,25.1Z"/><path class="cls-28" d="M31,27.21a59.9,59.9,0,0,1,3.47-5.64c1-1.14.81,2,.18,3.53s-3.25,2.35-3.39,2.27Z"/><path class="cls-28" d="M28.17,27.58s-2.2-2.67-3.25-3.82-1,.68-.57,1.91S28.17,27.58,28.17,27.58Z"/><path class="cls-29" d="M30.15,26.85a9.75,9.75,0,0,1,.57-4.36c.49-.8.7,2.64.57,3.3S30.15,26.85,30.15,26.85Z"/><path class="cls-30" d="M44.17,12.57c1.14-.55.38,1.57-.79,1.88s-2.31-.88-4.57-.78-1.56.77-3.68,1.16-1.91.26-1.4-.6,1.43,0,2.71-.31a6.37,6.37,0,0,1,3.49-.34A6.65,6.65,0,0,0,44.17,12.57Z"/><path class="cls-30" d="M10.53,20.14c0,.39.93.61,2.94.3s2.75-1,4.34-1.89c2-1.15,3.52-.5,3.84-1.37s-.33-.36-.69-.12-.27.13-3.37,1.22S10.48,19.18,10.53,20.14Z"/><path class="cls-31" d="M31.93,7.66c.94-.78,2,.68,2,.95s-1.19,1.2-2.48,3.61-2.18.62-2.18.62S30.91,8.49,31.93,7.66Z"/><path class="cls-31" d="M20.51,9.52c-.64.24,1.19,3.21,1.54,4.19a2.91,2.91,0,0,0,1.36,1.45S22.24,10.55,20.51,9.52Z"/><path class="cls-32" d="M33.5,6.58c-.58.43.72,1.69.87,1.73s1.72-.08,1.72-.08A12.87,12.87,0,0,0,35,6.83C34.59,6.47,33.5,6.58,33.5,6.58Z"/><path class="cls-32" d="M36.86.74A3.35,3.35,0,0,1,38.62,0c.42.08.4.22.4.22s-.8.77-.8,1.13S36.86.74,36.86.74Z"/><path class="cls-32" d="M19.87,9c-.34-.17-1,.72-.73,1a9.31,9.31,0,0,0,1.47.75s.41-.86.24-1.2S19.87,9,19.87,9Z"/><path class="cls-32" d="M5.44,10.28c-.26-.07.38,1.56.49,1.74s1,.2,1,.2S6.16,10.51,5.44,10.28Z"/><path class="cls-32" d="M.11,14.47c.18-.44,2.26,1.21,2.67,1.64s-.48.5-.69.36S.21,15.36.11,14.47Z"/><path class="cls-31" d="M2.5,16.72c-.08-.19.58-.29.75-.31a14.63,14.63,0,0,1,3.1,1c.35.29.2.65-.06.63A10.88,10.88,0,0,1,2.5,16.72Z"/><path class="cls-33" d="M18.15,43c-1.15-.67-1.36,1.43-.83,2.84s1.14.5,1.14-.76S18.39,43.15,18.15,43Z"/><path class="cls-33" d="M43.63,56.06c1-1.5,2.65-.2,1.27,1.32S42.69,57.45,43.63,56.06Z"/><path class="cls-34" d="M43.63,56.06c-.6.67.26,1.74,1.27.87S44.89,54.64,43.63,56.06Z"/><path class="cls-34" d="M17,44.17c.14.9.84,1.65,1.14,1.56s.66-2.48,0-2.85S16.83,43.22,17,44.17Z"/><path class="cls-26" d="M17.12,45.11s.26,1.18.74,1.28.58-.87.58-.87-.08,1.29-.51,1.34S17.12,45.11,17.12,45.11Z"/><path class="cls-26" d="M43.23,57.14c.09,1.1,1.67.24,1.67.24s-.48.8-1.16.83S43.23,57.14,43.23,57.14Z"/><path class="cls-25" d="M12.17,63.63c-.54-.53.45-2.59,3-2.34s4,3.48,4,3.48Z"/><path class="cls-35" d="M43.92,33.13c-.38.69-.62,4,.68,5.69s4.16-5,4.07-6.32S43.92,33.13,43.92,33.13Z"/><path class="cls-8" d="M29.1,35.06c-2.64-.89.4,4.41,1.72,6.38s.52-5.37.26-5.88S29.1,35.06,29.1,35.06Z"/><path class="cls-28" d="M48.91,19.08a20.27,20.27,0,0,1-1.18,4.83c-1,2.33-8.57,4.42-13.17,5.21.57-.13,9.78-2.32,12-4.33C48,23.43,48.66,20.76,48.91,19.08Z"/><path class="cls-28" d="M49.09,17.61l0,.12c0-.09,0-.13,0-.13Z"/><path class="cls-13" d="M3,44,3,43.89a12.12,12.12,0,0,1-.83-3.09A92.29,92.29,0,0,1,.69,30.44C.31,29.9,4,29,8.81,28c-1.28.27-6,1.32-7.28,2.26a.77.77,0,0,0-.34.38C.84,31.83,2.44,43.27,3,44Z"/><path class="cls-28" d="M49.19,15.39c0,.23,0,.47,0,.71s0,.25,0,.37v0l0,.55c0,.18,0,.38,0,.57l0,.12v.09c0,.14,0,.28,0,.42h0c0,.19-.05.39-.07.58a2.17,2.17,0,0,1,0,.25v.05l-.09.58s0,.05,0,.07,0,.25-.07.37c.07-.51.74-6.55-2.59-8a3.5,3.5,0,0,0-.9-.26c-4.52-.72-10.62,1.61-10.62,1.61,3.53-2.21,12-2.4,13.58-1.78l.13.07h0C49,12.19,49.19,13.61,49.19,15.39Z"/><path class="cls-28" d="M23,18.25c-.2-.25-1.87-2.3-4-2.19s-9.1,2.6-10.34,4.61a2.2,2.2,0,0,0-.15.26c-.83,1.72.16,4,.45,4.63l.06.13a6.84,6.84,0,0,1-1.21-4.33l.06-.1a1.74,1.74,0,0,1,.45-.82c1.89-1.85,9.36-6.6,13.38-3.86A7.4,7.4,0,0,1,23,18.25Z"/></g></g></g></svg>