<svg xmlns="http://www.w3.org/2000/svg" xmlns:xlink="http://www.w3.org/1999/xlink" viewBox="0 0 31.95 58.56"><defs><style>.cls-1{isolation:isolate;}.cls-2{fill:url(#Безымянный_градиент_132);}.cls-3{fill:url(#Безымянный_градиент_96);}.cls-4{fill:url(#Безымянный_градиент_544);}.cls-5{fill:url(#Безымянный_градиент_96-2);}.cls-6{fill:url(#Безымянный_градиент_132-2);}.cls-7{fill:#63495f;}.cls-20,.cls-22,.cls-8{fill:#fff;}.cls-20,.cls-8{mix-blend-mode:soft-light;}.cls-9{fill:#7f6593;opacity:0.2;}.cls-19,.cls-23,.cls-24,.cls-25,.cls-26,.cls-28,.cls-9{mix-blend-mode:multiply;}.cls-10{fill:url(#Безымянный_градиент_191);}.cls-11{fill:url(#Безымянный_градиент_132-3);}.cls-12{fill:url(#Безымянный_градиент_96-3);}.cls-13{fill:url(#Безымянный_градиент_3);}.cls-14{fill:url(#Безымянный_градиент_132-4);}.cls-15{fill:url(#Безымянный_градиент_96-4);}.cls-16{fill:url(#Безымянный_градиент_144);}.cls-17{fill:url(#Безымянный_градиент_96-5);}.cls-18{fill:url(#Безымянный_градиент_76);}.cls-19,.cls-28{fill:#6e5066;}.cls-19,.cls-20,.cls-24,.cls-25{opacity:0.5;}.cls-21{fill:#eed6dd;}.cls-23,.cls-24{fill:#7e527c;}.cls-23,.cls-26,.cls-28{opacity:0.8;}.cls-25{fill:#5b3952;}.cls-26{fill:#d42f55;}.cls-27{fill:url(#Безымянный_градиент_332);}</style><linearGradient id="Безымянный_градиент_132" x1="5.99" y1="-24.87" x2="2.9" y2="-33.37" gradientTransform="translate(-10.94 -0.7) rotate(89.98)" gradientUnits="userSpaceOnUse"><stop offset="0" stop-color="#c3b1b5"/><stop offset="0.15" stop-color="#bfadb3"/><stop offset="0.29" stop-color="#b5a3ab"/><stop offset="0.41" stop-color="#a3909f"/><stop offset="0.54" stop-color="#89778d"/><stop offset="0.63" stop-color="#715e7c"/><stop offset="0.7" stop-color="#937b80"/><stop offset="1" stop-color="#c1b8cf"/></linearGradient><linearGradient id="Безымянный_градиент_96" x1="5.81" y1="-24.78" x2="5.81" y2="-34.57" gradientTransform="translate(-10.94 -0.7) rotate(89.98)" gradientUnits="userSpaceOnUse"><stop offset="0" stop-color="#727a9d"/><stop offset="0.3" stop-color="#836888"/><stop offset="0.85" stop-color="#715379"/><stop offset="1" stop-color="#6d636a"/></linearGradient><linearGradient id="Безымянный_градиент_544" x1="13.67" y1="-23.08" x2="13.67" y2="-38.42" gradientTransform="translate(-10.94 -0.7) rotate(89.98)" gradientUnits="userSpaceOnUse"><stop offset="0" stop-color="#ad99a0"/><stop offset="0.99" stop-color="#655167"/></linearGradient><linearGradient id="Безымянный_градиент_96-2" x1="23.63" y1="-16.38" x2="23.63" y2="-42.85" xlink:href="#Безымянный_градиент_96"/><linearGradient id="Безымянный_градиент_132-2" x1="20.72" y1="-16.1" x2="12.01" y2="-40.02" xlink:href="#Безымянный_градиент_132"/><linearGradient id="Безымянный_градиент_191" x1="48.15" y1="-11.29" x2="48.15" y2="-22.26" gradientTransform="translate(-10.94 -0.7) rotate(89.98)" gradientUnits="userSpaceOnUse"><stop offset="0" stop-color="#5b5788"/><stop offset="1" stop-color="#4d3461"/></linearGradient><linearGradient id="Безымянный_градиент_132-3" x1="24.48" y1="-21.95" x2="24.48" y2="-36.58" xlink:href="#Безымянный_градиент_132"/><linearGradient id="Безымянный_градиент_96-3" x1="26.9" y1="-21.93" x2="26.9" y2="-36.65" xlink:href="#Безымянный_градиент_96"/><linearGradient id="Безымянный_градиент_3" x1="38.65" y1="-24.6" x2="38.01" y2="-33.78" gradientTransform="translate(-10.94 -0.7) rotate(89.98)" gradientUnits="userSpaceOnUse"><stop offset="0" stop-color="#c3b1b5"/><stop offset="0.1" stop-color="#ac96a4"/><stop offset="0.24" stop-color="#927792"/><stop offset="0.37" stop-color="#826586"/><stop offset="0.45" stop-color="#7c5e82"/><stop offset="1" stop-color="#937b80"/></linearGradient><linearGradient id="Безымянный_градиент_132-4" x1="46.41" y1="-23.43" x2="45.52" y2="-36.09" xlink:href="#Безымянный_градиент_132"/><linearGradient id="Безымянный_градиент_96-4" x1="55.72" y1="-24.07" x2="55.72" y2="-36.82" xlink:href="#Безымянный_градиент_96"/><linearGradient id="Безымянный_градиент_144" x1="46.58" y1="-10.99" x2="46.58" y2="-24.45" gradientTransform="translate(-10.94 -0.7) rotate(89.98)" gradientUnits="userSpaceOnUse"><stop offset="0" stop-color="#b8a1a6"/><stop offset="0.26" stop-color="#b49ea4"/><stop offset="0.49" stop-color="#aa939f"/><stop offset="0.72" stop-color="#978195"/><stop offset="0.93" stop-color="#7e6888"/><stop offset="1" stop-color="#745e83"/></linearGradient><linearGradient id="Безымянный_градиент_96-5" x1="56.78" y1="-10.94" x2="56.78" y2="-24.48" xlink:href="#Безымянный_градиент_96"/><linearGradient id="Безымянный_градиент_76" x1="49.23" y1="-18.17" x2="48.33" y2="-20.66" gradientTransform="translate(-10.94 -0.7) rotate(89.98)" gradientUnits="userSpaceOnUse"><stop offset="0" stop-color="#836888"/><stop offset="0.85" stop-color="#937d9a"/><stop offset="1" stop-color="#6d636a"/></linearGradient><linearGradient id="Безымянный_градиент_332" x1="55.92" y1="-26.7" x2="55.92" y2="-34.19" gradientTransform="translate(-10.94 -0.7) rotate(89.98)" gradientUnits="userSpaceOnUse"><stop offset="0" stop-color="#fff1de"/><stop offset="0.21" stop-color="#a690a5"/><stop offset="1" stop-color="#5c475e"/></linearGradient></defs><g class="cls-1"><g id="Слой_2" data-name="Слой 2"><g id="layer1"><path class="cls-2" d="M13.87,5.12S15.7,0,18.71,0s4.91,5.46,4.91,5.46A12.82,12.82,0,0,0,13.87,5.12Z"/><path class="cls-3" d="M23.62,5.46c.3,1.28-10.45,2.21-9.75-.34S23.09,3.18,23.62,5.46Z"/><path class="cls-4" d="M23.76,17.46c3.32-1.34-1.88-4.78-5.75-4.38s-5.4,2.48-5.46,3.45-.41-3.76-.41-3.76l7.91-5,7.44,8.08-.29,2.29Z"/><path class="cls-5" d="M9.57,24.86h0a17.63,17.63,0,0,1-3-.29c-.77-.33-1.24-2.8-1.11-3.75l26.44-.08c-.16,2.14-1.25,3.54-2,3.75h0C27.14,25.26,15.25,25.17,9.57,24.86Z"/><path class="cls-6" d="M31.15,21.18c.45-.13.72-.28.76-.44C32.38,19.08,29,9.31,23,6.05A8.41,8.41,0,0,0,18.84,5a10.75,10.75,0,0,0-8,4V9A24.56,24.56,0,0,0,5.47,20.82c0,.15.23.3.65.43C9.74,22.37,27.26,22.33,31.15,21.18Zm-6-4.4c-.85,1.27-11.53,2.22-12.42.27s2.45-5.36,5.58-5.9S26.28,15.17,25.18,16.78Z"/><path class="cls-7" d="M20.91,5.22s-2-2.33-5.08.25A9.21,9.21,0,0,1,20.91,5.22Z"/><path class="cls-8" d="M20.91,5.48c-3-.91-1.76,4.52-.78,5.36s4.38,2.51,5.58,4.78S22,17.86,21.6,18.72s2,2.74,3.27,2.93,5.77.47,6.55-1.49S27.28,7.4,20.91,5.48Z"/><path class="cls-8" d="M10.77,9.9c2.35-1.82,2.21,2.55,1.52,5.77s2.31,2.26,3.18,3-2,2.69-3.91,2.9S6.28,21.74,6.14,20,8,12.09,10.77,9.9Z"/><path class="cls-9" d="M19,5.66c0-.74-3.19-.39-4.3.71s1.35,4.37,1.61,4.74,2.79.34,3.08,0S18.85,8.3,19,5.66Z"/><path class="cls-9" d="M21.25,18.64c-.08-.23-1.47-.32-2.36,0s0,2.3.07,3,4.06.26,4.57.16S21.82,20.23,21.25,18.64Z"/><path class="cls-10" d="M.36,45.71V49c0,.39,10.75.24,10.75.24s.54-2.79,0-3.35S.36,45.71.36,45.71Z"/><path class="cls-11" d="M25.65,26.1a21.75,21.75,0,0,0-.74-3c-.41-1-2.68-2.27-5.8-2.27-4.26,0-7.35,1.4-7.7,2.18A18.08,18.08,0,0,0,11,26.74S18.52,21.58,25.65,26.1Z"/><path class="cls-12" d="M25.65,26.1c1.19,2.27-14,3.66-14.63.64S23.76,22.51,25.65,26.1Z"/><path class="cls-13" d="M21.2,26.05a108.62,108.62,0,0,1,2,23.57s-4.66-2.06-8.7.05a141.68,141.68,0,0,1-.29-23.31C17.52,24.18,21.2,26.05,21.2,26.05Z"/><path class="cls-14" d="M23.63,35.65s-6.5-1.33-10.77.86l.29,18.36s8.12-1.29,12.72-.09Z"/><path class="cls-15" d="M25.87,54.78c.76,3.11-12.67,3.47-12.72.09C13.11,52.4,25.12,51.72,25.87,54.78Z"/><path class="cls-16" d="M.17,54.69c0-.09,0-.4-.05-.84a38.86,38.86,0,0,1,.05-5.36c.2-.13,9.16.21,9.34-.05a2.86,2.86,0,0,0-.07-1.61c-.13-.31-9.08-.56-9.08-1.12,0-.06,0-.21,0-.43C.27,43.49,0,37.22.35,37s12.55,1.73,12.54,1l.63,15.57-2.91.32C6.7,54.34.22,55,.17,54.69Z"/><path class="cls-17" d="M.32,58.55c-.54-1.37-.2-4.7-.2-4.7s2.72-.08,6-.14h.07c2.4-.05,5.1-.1,7.3-.11l0,2.2s-3.57.81-7,1.55C3.51,58,.58,58.61.32,58.55Z"/><polygon class="cls-18" points="9.44 46.83 7.25 48.54 9.7 48.53 9.44 46.83"/><path class="cls-19" d="M19.88,13.15a6.46,6.46,0,0,1,0-1.77,8.23,8.23,0,0,1,3.81,2.23c.93,1.23.72,1.71.72,1.71A6.41,6.41,0,0,0,19.88,13.15Z"/><path class="cls-19" d="M15.34,13.73s0-.73-.29-.79-1.74,1.44-2,1.93-.3.64-.3.64A20.1,20.1,0,0,1,15.34,13.73Z"/><path class="cls-8" d="M19.84,11.38a4.6,4.6,0,0,0-2.74.13,8.32,8.32,0,0,0-1.92,1.28,3.38,3.38,0,0,0,.16.87,14.15,14.15,0,0,1,2.88-.72c.86,0,1.46.16,1.55.11A9.53,9.53,0,0,0,19.84,11.38Z"/><path class="cls-19" d="M28.33,24.44a2.94,2.94,0,0,0,1-2.67c-.14-.32-3.45.26-4.22.28s0,1.22.08,2.34S28.33,24.44,28.33,24.44Z"/><path class="cls-19" d="M11.41,23c.24-1.06-4.27-1.25-4.57-1.3s0,2.38.2,2.7,3.75.43,3.92.36A8.14,8.14,0,0,0,11.41,23Z"/><path class="cls-8" d="M5.45,21.13c.14-.12,1.11,1,1.27,2.08s-.18,1.25-.33,1.23A6.54,6.54,0,0,1,5.45,21.13Z"/><path class="cls-8" d="M19.16.3c-1,0,.12,2.45,1.05,2.88s2.53,1.07,2.53,1.07S22,.69,19.16.3Z"/><path class="cls-8" d="M24.77,22.91a7.45,7.45,0,0,0-3.9-1.71c-1.05,0,.08,2.4.26,2.54a38,38,0,0,1,3.71,1.33C25.76,25.61,24.77,22.91,24.77,22.91Z"/><path class="cls-8" d="M21,26.71c-.42-.94-2.22-1.32-2.76-1.15s.61,8.33.85,8.67,3.28,1,3.28,1S21.87,28.75,21,26.71Z"/><path class="cls-8" d="M23.2,36.87c0-1.29-3-1.41-3.76-1.12s1.1,15.67,1.28,16.14,3.57.91,4.3,1.38S23.2,36.87,23.2,36.87Z"/><path class="cls-20" d="M15.87,1.61c1.57-.84-.07,1.7-.87,2.2S15.87,1.61,15.87,1.61Z"/><path class="cls-20" d="M15,26.19c.81-.51-.14,9-.62,9.46S14,26.81,15,26.19Z"/><path class="cls-20" d="M13.61,36.91c1-.89,4.28,14,4.2,14.75s-4,1.93-4,1.93S12.29,38.08,13.61,36.91Z"/><path class="cls-9" d="M17.57,25.52c.89-.06.43,3,.91,6.05S19.3,35,19,35.1s-1.29.12-1.83-1.2S16,25.63,17.57,25.52Z"/><path class="cls-9" d="M19,35.83c0-.73-1.69-.49-2-.18s1.27,9.63,1.26,13.07-.13,3.42.49,3.47,1.37.42,1.61-.16S19.11,38,19,35.83Z"/><path class="cls-9" d="M20.08,21.08c0-.36-2.25-.38-2.75.12a2.8,2.8,0,0,0-.13,2.55,6.34,6.34,0,0,0,2.94,0A10,10,0,0,0,20.08,21.08Z"/><path class="cls-9" d="M18.62.3c-.6,0-1.11,1-1.1,1.71s1,1.28,1.75,1.3-.44-1.14-.41-2S18.84.31,18.62.3Z"/><path class="cls-21" d="M23.63,35.65s-6.84-1.25-10.77.86C12.86,36.51,16.42,33.58,23.63,35.65Z"/><path class="cls-21" d="M24.36,22.35a12.41,12.41,0,0,0-12.94.41S17,17.91,24.36,22.35Z"/><path class="cls-21" d="M14.79,4.11S20,2.48,23.36,5A7.87,7.87,0,0,0,14.79,4.11Z"/><path class="cls-22" d="M18.45,3.31a3.75,3.75,0,0,1,1.67.15C20.15,3.59,18.63,3.81,18.45,3.31Z"/><path class="cls-22" d="M21.78,2.5c-.58-.38-1,.48-.18,1S22.63,3.06,21.78,2.5Z"/><path class="cls-22" d="M30.17,16.27c-1-2.06-2.85.37-2.87,2.52s3.65,2.45,3.91,1.47S30.17,16.27,30.17,16.27Z"/><path class="cls-22" d="M24.57,24.38c-.16-.52-1.07-.47-1.29-.19S24.73,24.91,24.57,24.38Z"/><path class="cls-22" d="M24.72,46.64c-1.13-7.11-2.57,1.23-2.4,3.56A2.66,2.66,0,0,0,25,52.94C25.64,52.84,24.72,46.64,24.72,46.64Z"/><path class="cls-19" d="M25,25.32A11.43,11.43,0,0,0,19,24.24a7.36,7.36,0,0,0-4.78,2.12s5.48-1.47,7.14.76l.23,1s3.89-.54,4-1.61C25.67,25.89,25,25.32,25,25.32Z"/><path class="cls-19" d="M24.31,53.52c-2.67-.75-3.38,1.57-5.94,2.25s2.05,1.66,4.88,1.09S26.68,54.18,24.31,53.52Z"/><path class="cls-19" d="M9.44,46.83s-5.23-.41-7.15.26S.92,48.5.92,48.5l6.33,0Z"/><path class="cls-19" d="M6.56,57.34H6.43c-2.55-.23,4-2.05,4.93-2.9.28-.25-.08-.42-.75-.53a35.59,35.59,0,0,0-4.39-.21H5.9s6.9-.94,7-.93-2-13.2-3.34-14S1.46,37.05.83,37.38s-.47,8-.47,8v-.08C.27,43.49,0,37.22.35,37s12.55,1.73,12.54,1l.63,15.57,0,2.2S10,56.6,6.56,57.34Z"/><path class="cls-8" d="M.83,38c.73-1.3,5.92-.2,7.16,1.56s.35,5.56-1.21,6.2-5.4.43-5.94-.52S.83,38,.83,38Z"/><path class="cls-8" d="M7.68,49.71c-1-.8-7-1.17-7.32-.69a12.77,12.77,0,0,0,.25,4.41c.22.4,7.36.12,8.08-.62S8.19,50.14,7.68,49.71Z"/><path class="cls-20" d="M.17,54.69c.44-.85,7.13-.88,7.62-.49S4.48,57.87,2,58.29.17,54.69.17,54.69Z"/><path class="cls-23" d="M.17,48.49s-.32,3.66.3,5.35a11.3,11.3,0,0,0-.15,4.71A16.8,16.8,0,0,1,0,53.84S0,49.56.17,48.49Z"/><path class="cls-23" d="M2.94,37.2a4.93,4.93,0,0,0-2.23.34C.18,38,.39,44.83.49,45.28A1.14,1.14,0,0,0,.93,46L.36,48.47V45.53S-.16,37.28.35,37A10.87,10.87,0,0,1,2.94,37.2Z"/><path class="cls-24" d="M24.4,56.57A4.91,4.91,0,0,0,25.3,54c-.06-1.24-1.86-17.32-1.94-17.79s-.91-.88-.91-.88-.47-4.61-1-7.85c0,0,1,5.28,1.25,7.93l.91.24s2.1,18.1,2.24,19.21S24.4,56.57,24.4,56.57Z"/><path class="cls-24" d="M29.9,24.5s0-.12.13-.21a5.1,5.1,0,0,0,1.12-3.11c0-.14,0-.29,0-.44a14,14,0,0,0-.74-4.84C29,11.32,23,6.05,23,6.05c6,3.26,9.4,13,8.93,14.69-.16,2.14-1.25,3.54-2,3.75Z"/><path class="cls-23" d="M9.56,24.86a17.63,17.63,0,0,1-3-.29c-.77-.33-1.24-2.8-1.11-3.75A24.56,24.56,0,0,1,10.81,9c-.28.38-4.68,6.64-4.73,10.65,0,.44,0,.85,0,1.21l0,.44c.19,2.77,1,3.4,1.21,3.43S9.44,24.86,9.56,24.86Z"/><path class="cls-23" d="M14.05,29.24s0,4.45.09,5.61,0,1.1,0,1.1-1,.77-1,1.24S13,40.07,13,40.07a8.47,8.47,0,0,0-.3-1.37,3.81,3.81,0,0,0-1-.54,4.61,4.61,0,0,0,1.16,0,8.88,8.88,0,0,0,.06-1.51l1.05-.73S13.91,31.24,14.05,29.24Z"/><path class="cls-22" d="M21.87,52.73c.13-.37-1.48-.63-2.26-.4s-.81.42-.81.42S21.62,53.44,21.87,52.73Z"/><path class="cls-22" d="M18.75,35.07c-.1-.32,2,0,2.28.08S19.24,35.53,18.75,35.07Z"/><path class="cls-22" d="M19,20.6c-.16-.41,1.64,0,2.13.21S19.46,20.91,19,20.6Z"/><path class="cls-22" d="M17.41,11.4a4.31,4.31,0,0,1,3.05.14A2.13,2.13,0,0,0,17.41,11.4Z"/><path class="cls-23" d="M18.71,0a7.57,7.57,0,0,0-4.3,4.26s-.76,1.34-.06,1.84A.85.85,0,0,1,14,4.81S15.83.13,18.71,0Z"/><path class="cls-7" d="M18.5,24c.13-.78-1.66-.77-2.17-.44s-.53.49-.47.67S18.36,24.83,18.5,24Z"/><path class="cls-7" d="M15.28,38.11c.56-.67,1.32-.6,1.49-.31s-.49,1.25-1.11,1.39S15,38.45,15.28,38.11Z"/><path class="cls-7" d="M15.7,37.76a1.26,1.26,0,0,0-.42.88c0,.49.58.48.58.48a.65.65,0,0,1-.78,0C14.73,38.82,15,38.05,15.7,37.76Z"/><path class="cls-21" d="M15.12,39.07c-.06-.19.46-.1.5,0S15.18,39.25,15.12,39.07Z"/><path class="cls-25" d="M16.77,37.8c-.24-.59-1.21.07-1.2.71s.58.43.67.34S16.86,38,16.77,37.8Z"/><path class="cls-25" d="M18.3,23.56c-.28-.33-1.35.05-1.69.34s.79.59,1.38.4S18.51,23.82,18.3,23.56Z"/><path class="cls-7" d="M17.25,23.35s-1,.18-1.13.65,1,.49,1,.49-1.32-.07-1.38-.36S16.37,23.36,17.25,23.35Z"/><path class="cls-21" d="M15.75,24c.14-.18.57.41.57.41S15.59,24.33,15.75,24Z"/><path class="cls-26" d="M11.07,26.18c.09.9,1.86,1.88,3,2.11C14.11,28.29,10.43,28,11.07,26.18Z"/><path class="cls-22" d="M7.77,15.53c.54-1,.77.84,0,1.31S7.77,15.53,7.77,15.53Z"/><path class="cls-22" d="M1.28,43.58c.23-1.09,1.07.34,1.68,1.2S.58,46.3,1.28,43.58Z"/><path class="cls-19" d="M19.05,3.6c-2.2.06-.68.79,1.1,1.37A27.54,27.54,0,0,1,23,6.05a.69.69,0,0,0,.23-1C22.93,4.39,20.85,3.55,19.05,3.6Z"/><path class="cls-22" d="M7.63,53.47A2.88,2.88,0,0,0,4,53.75C3.82,53.93,7.84,54.07,7.63,53.47Z"/><path class="cls-8" d="M31.11,21.57c.07-.64-1.66,1.46-1.9,2.14s.82.58.82.58S31.37,22.81,31.11,21.57Z"/><path class="cls-7" d="M20.3,38.26c-.59-.76-3.59.73-3.69,1.56s2.14.42,2.76.17S20.3,38.26,20.3,38.26Z"/><path class="cls-7" d="M17.54,38.84s-.27.28.17.71A2.26,2.26,0,0,0,19.3,40s-1.8.7-2.7.29S17.05,39.11,17.54,38.84Z"/><path class="cls-25" d="M18.51,38.34c-1.35.8.47,1,.81,1.06s.27.44.27.44.92-1.2.71-1.58S18.51,38.34,18.51,38.34Z"/><path class="cls-21" d="M16.88,40.4c-.33-.23.37-.11.85-.09S17.24,40.53,16.88,40.4Z"/><path class="cls-27" d="M15.77,55.13a.44.44,0,0,1,.13-.32c.88-1.13,6.41-1.38,7.26,0a.6.6,0,0,1,.09.22C23.7,56.9,15.8,57.11,15.77,55.13Z"/><path class="cls-28" d="M15.9,54.81c.88-1.13,6.41-1.38,7.26,0C22.31,56.12,16.76,56.21,15.9,54.81Z"/></g></g></g></svg>