<svg xmlns="http://www.w3.org/2000/svg" xmlns:xlink="http://www.w3.org/1999/xlink" viewBox="0 0 31.74 58.93"><defs><style>.cls-1{isolation:isolate;}.cls-2{fill:url(#Безымянный_градиент_535);}.cls-3{fill:url(#Безымянный_градиент_517);}.cls-4{fill:url(#Безымянный_градиент_5);}.cls-5{fill:url(#Безымянный_градиент_517-2);}.cls-6{fill:url(#Безымянный_градиент_535-2);}.cls-7{fill:#cc1f38;}.cls-20,.cls-22,.cls-8{fill:#fff;}.cls-20,.cls-8{mix-blend-mode:soft-light;}.cls-9{fill:#da0553;opacity:0.2;}.cls-19,.cls-23,.cls-24,.cls-9{mix-blend-mode:multiply;}.cls-10{fill:url(#Безымянный_градиент_5-2);}.cls-11{fill:url(#Безымянный_градиент_535-3);}.cls-12{fill:url(#Безымянный_градиент_517-3);}.cls-13{fill:url(#Безымянный_градиент_159);}.cls-14{fill:url(#Безымянный_градиент_535-4);}.cls-15{fill:url(#Безымянный_градиент_4);}.cls-16{fill:url(#Безымянный_градиент_162);}.cls-17{fill:url(#Безымянный_градиент_4-2);}.cls-18{fill:url(#Безымянный_градиент_174);}.cls-19,.cls-23,.cls-24{fill:#d42f55;}.cls-19,.cls-20{opacity:0.5;}.cls-21{fill:#ffba95;}.cls-23{opacity:0.8;}.cls-24{opacity:0.3;}.cls-25{fill:#ffcf95;}.cls-26{fill:url(#Безымянный_градиент_488);}</style><linearGradient id="Безымянный_градиент_535" x1="16.93" y1="-21.84" x2="13.83" y2="-30.37" gradientTransform="translate(-8.51 -11.35) rotate(89.4)" gradientUnits="userSpaceOnUse"><stop offset="0" stop-color="#ffb092"/><stop offset="0.63" stop-color="#ff4f26"/><stop offset="0.7" stop-color="#ff6f3b"/><stop offset="1" stop-color="#ff938d"/></linearGradient><linearGradient id="Безымянный_градиент_517" x1="18.39" y1="-22.21" x2="15.23" y2="-30.89" gradientTransform="translate(-8.51 -11.35) rotate(89.4)" gradientUnits="userSpaceOnUse"><stop offset="0" stop-color="#e52436"/><stop offset="0.23" stop-color="#fe3931"/><stop offset="0.59" stop-color="#fb6134"/><stop offset="0.85" stop-color="#f63c3b"/><stop offset="1" stop-color="#cc0721"/></linearGradient><linearGradient id="Безымянный_градиент_5" x1="24.64" y1="-20.04" x2="24.64" y2="-35.44" gradientTransform="translate(-8.51 -11.35) rotate(89.4)" gradientUnits="userSpaceOnUse"><stop offset="0" stop-color="#d61527"/><stop offset="1" stop-color="#bb0e00"/></linearGradient><linearGradient id="Безымянный_градиент_517-2" x1="38.28" y1="-14.86" x2="29.56" y2="-38.82" xlink:href="#Безымянный_градиент_517"/><linearGradient id="Безымянный_градиент_535-2" x1="31.7" y1="-13.04" x2="22.97" y2="-37.04" xlink:href="#Безымянный_градиент_535"/><linearGradient id="Безымянный_градиент_5-2" x1="61.18" y1="-8.35" x2="57.35" y2="-18.88" xlink:href="#Безымянный_градиент_5"/><linearGradient id="Безымянный_градиент_535-3" x1="35.48" y1="-18.91" x2="35.48" y2="-33.59" xlink:href="#Безымянный_градиент_535"/><linearGradient id="Безымянный_градиент_517-3" x1="40.38" y1="-19.6" x2="35.59" y2="-32.78" xlink:href="#Безымянный_градиент_517"/><linearGradient id="Безымянный_градиент_159" x1="49.69" y1="-21.56" x2="49.05" y2="-30.78" gradientTransform="translate(-8.51 -11.35) rotate(89.4)" gradientUnits="userSpaceOnUse"><stop offset="0" stop-color="#ffb092"/><stop offset="0.07" stop-color="#ff9574"/><stop offset="0.16" stop-color="#ff7c58"/><stop offset="0.25" stop-color="#ff6842"/><stop offset="0.35" stop-color="#ff5a32"/><stop offset="0.47" stop-color="#ff5229"/><stop offset="0.63" stop-color="#ff4f26"/><stop offset="1" stop-color="#ff6f3b"/></linearGradient><linearGradient id="Безымянный_градиент_535-4" x1="57.48" y1="-20.39" x2="56.59" y2="-33.1" xlink:href="#Безымянный_градиент_535"/><linearGradient id="Безымянный_градиент_4" x1="68.89" y1="-21.76" x2="64.75" y2="-33.13" gradientTransform="translate(-8.51 -11.35) rotate(89.4)" gradientUnits="userSpaceOnUse"><stop offset="0" stop-color="#e52436"/><stop offset="0.23" stop-color="#fe3931"/><stop offset="0.65" stop-color="#f63c3b"/><stop offset="1" stop-color="#cc0721"/></linearGradient><linearGradient id="Безымянный_градиент_162" x1="57.65" y1="-7.91" x2="57.65" y2="-21.41" gradientTransform="translate(-8.51 -11.35) rotate(89.4)" gradientUnits="userSpaceOnUse"><stop offset="0" stop-color="#ffb092"/><stop offset="0.11" stop-color="#ff9574"/><stop offset="0.25" stop-color="#ff7c58"/><stop offset="0.4" stop-color="#ff6842"/><stop offset="0.56" stop-color="#ff5a32"/><stop offset="0.74" stop-color="#ff5229"/><stop offset="1" stop-color="#ff4f26"/></linearGradient><linearGradient id="Безымянный_градиент_4-2" x1="69.17" y1="-7.72" x2="64.33" y2="-21.02" xlink:href="#Безымянный_градиент_4"/><linearGradient id="Безымянный_градиент_174" x1="60.31" y1="-15.12" x2="59.41" y2="-17.61" gradientTransform="translate(-8.51 -11.35) rotate(89.4)" gradientUnits="userSpaceOnUse"><stop offset="0" stop-color="#e52436"/><stop offset="0.23" stop-color="#fe3931"/><stop offset="1" stop-color="#cc0721"/></linearGradient><linearGradient id="Безымянный_градиент_488" x1="67.02" y1="-23.67" x2="67.02" y2="-31.19" gradientTransform="translate(-8.51 -11.35) rotate(89.4)" gradientUnits="userSpaceOnUse"><stop offset="0" stop-color="#ff9019"/><stop offset="0.21" stop-color="#fe3919"/><stop offset="1" stop-color="#bb1538"/></linearGradient></defs><g class="cls-1"><g id="Слой_2" data-name="Слой 2"><g id="layer1"><path class="cls-2" d="M13.44,5.18S15.23,0,18.25,0s5,5.43,5,5.43A12.91,12.91,0,0,0,13.44,5.18Z"/><path class="cls-3" d="M23.23,5.43c.31,1.28-10.46,2.32-9.79-.25S22.67,3.14,23.23,5.43Z"/><path class="cls-4" d="M23.49,17.46c3.32-1.37-1.93-4.77-5.81-4.33s-5.39,2.54-5.44,3.51-.46-3.76-.46-3.76l7.89-5.1,7.54,8L27,18.11Z"/><path class="cls-5" d="M9.33,25h0a17.53,17.53,0,0,1-3-.27C5.55,24.45,5.06,22,5.17,21l26.53-.34c-.14,2.14-1.22,3.56-1.95,3.78h0C27,25.25,15,25.28,9.33,25Z"/><path class="cls-6" d="M31,21.12c.44-.13.71-.28.75-.44C32.15,19,28.63,9.23,22.59,6a8.36,8.36,0,0,0-4.16-1,10.76,10.76,0,0,0-8,4,0,0,0,0,1,0,0A24.66,24.66,0,0,0,5.17,21c0,.16.24.3.66.42C9.48,22.53,27.05,22.31,31,21.12Zm-6-4.35c-.84,1.28-11.55,2.35-12.46.4s2.41-5.41,5.54-6S26,15.14,24.91,16.77Z"/><path class="cls-7" d="M20.5,5.22s-2-2.32-5.08.3A9.14,9.14,0,0,1,20.5,5.22Z"/><path class="cls-8" d="M20.51,5.48c-3.06-.89-1.72,4.55-.73,5.38s4.42,2.47,5.65,4.74-3.72,2.28-4.09,3.15,2,2.73,3.31,2.9,5.79.42,6.55-1.55S26.92,7.33,20.51,5.48Z"/><path class="cls-8" d="M10.38,10c2.35-1.85,2.24,2.54,1.59,5.77s2.34,2.25,3.21,3-2,2.72-3.88,2.94-5.3.22-5.46-1.57S7.58,12.23,10.38,10Z"/><path class="cls-9" d="M18.56,5.67c0-.73-3.21-.36-4.31.76s1.39,4.37,1.66,4.74,2.81.31,3.09,0S18.47,8.33,18.56,5.67Z"/><path class="cls-9" d="M21,18.68c-.09-.24-1.49-.31-2.37,0s0,2.31.1,3,4.07.21,4.59.11S21.58,20.26,21,18.68Z"/><path class="cls-10" d="M.3,46l0,3.32c0,.39,10.78.13,10.78.13s.51-2.8-.08-3.36S.3,46,.3,46Z"/><path class="cls-11" d="M25.47,26.12a20.4,20.4,0,0,0-.77-3.05c-.42-1-2.71-2.25-5.84-2.22-4.28,0-7.36,1.48-7.7,2.26a18,18,0,0,0-.36,3.8S18.27,21.65,25.47,26.12Z"/><path class="cls-12" d="M25.47,26.12c1.22,2.26-14,3.81-14.67.79S23.54,22.53,25.47,26.12Z"/><path class="cls-13" d="M21,26.11a108.94,108.94,0,0,1,2.28,23.62s-4.7-2-8.73.14A141.4,141.4,0,0,1,14,26.49C17.29,24.27,21,26.11,21,26.11Z"/><path class="cls-14" d="M23.54,35.72s-6.53-1.28-10.79,1l.47,18.42s8.14-1.38,12.76-.21Z"/><path class="cls-15" d="M26,54.89c.8,3.1-12.67,3.6-12.76.21C13.16,52.63,25.2,51.82,26,54.89Z"/><path class="cls-16" d="M.2,55.05c0-.09,0-.4-.06-.84a40.48,40.48,0,0,1,0-5.38c.2-.13,9.2.12,9.37-.14a2.82,2.82,0,0,0-.08-1.62C9.28,46.77.31,46.6.3,46c0-.06,0-.21,0-.43C.19,43.82-.19,37.53.2,37.3s12.61,1.61,12.59.9l.79,15.61s-1.21.16-2.91.36C6.75,54.64.25,55.36.2,55.05Z"/><path class="cls-17" d="M.38,58.93c-.54-1.38-.24-4.72-.24-4.72L6.19,54h.07c2.4-.07,5.11-.15,7.32-.19L13.64,56s-3.57.85-7,1.63C3.59,58.34.65,59,.38,58.93Z"/><polygon class="cls-18" points="9.42 47.07 7.24 48.81 9.7 48.77 9.42 47.07"/><path class="cls-19" d="M19.56,13.18a6.48,6.48,0,0,1-.06-1.78,8.29,8.29,0,0,1,3.84,2.2c.95,1.22.74,1.71.74,1.71A6.42,6.42,0,0,0,19.56,13.18Z"/><path class="cls-19" d="M15,13.81S15,13.08,14.7,13,13,14.48,12.75,15s-.3.65-.3.65A20.23,20.23,0,0,1,15,13.81Z"/><path class="cls-8" d="M19.5,11.4a4.79,4.79,0,0,0-2.75.16,9.15,9.15,0,0,0-1.92,1.3,3.68,3.68,0,0,0,.18.87A15.06,15.06,0,0,1,17.89,13c.86,0,1.46.16,1.56.1A10.65,10.65,0,0,0,19.5,11.4Z"/><path class="cls-19" d="M28.15,24.42a2.91,2.91,0,0,0,1-2.68c-.14-.33-3.46.29-4.23.31s0,1.23.1,2.35S28.15,24.42,28.15,24.42Z"/><path class="cls-19" d="M11.16,23.11c.23-1.06-4.3-1.2-4.6-1.25s0,2.39.23,2.7,3.76.4,3.93.33A7.69,7.69,0,0,0,11.16,23.11Z"/><path class="cls-8" d="M5.15,21.33c.15-.12,1.13,1,1.3,2.08s-.17,1.26-.31,1.23A6.42,6.42,0,0,1,5.15,21.33Z"/><path class="cls-8" d="M18.71.3c-1,0,.13,2.46,1.07,2.88s2.56,1,2.56,1S21.51.66,18.71.3Z"/><path class="cls-8" d="M24.56,22.92a7.64,7.64,0,0,0-3.93-1.68c-1.06,0,.1,2.41.28,2.55a36.14,36.14,0,0,1,3.74,1.3C25.58,25.63,24.56,22.92,24.56,22.92Z"/><path class="cls-8" d="M20.77,26.77c-.43-.94-2.23-1.3-2.77-1.13s.69,8.36.94,8.7a15.91,15.91,0,0,0,3.29,1S21.71,28.81,20.77,26.77Z"/><path class="cls-8" d="M23.13,36.94c0-1.29-3.05-1.38-3.79-1.08S20.6,51.57,20.78,52s3.6.88,4.33,1.34S23.13,36.94,23.13,36.94Z"/><path class="cls-20" d="M15.41,1.64c1.57-.86-.05,1.71-.84,2.22S15.41,1.64,15.41,1.64Z"/><path class="cls-20" d="M14.77,26.31c.81-.52,0,9.07-.53,9.49S13.78,26.94,14.77,26.31Z"/><path class="cls-20" d="M13.5,37.08c1-.9,4.24,14.05,4.17,14.81s-3.82,1.92-3.82,1.92S12.19,38.27,13.5,37.08Z"/><path class="cls-9" d="M17.37,25.62c.88-.07.45,3,1,6.06s.87,3.38.58,3.53-1.29.13-1.84-1.18S15.81,25.74,17.37,25.62Z"/><path class="cls-9" d="M18.94,36c0-.74-1.7-.48-2-.17s1.37,9.65,1.4,13.1-.1,3.43.53,3.48,1.38.4,1.61-.18S19,38.16,18.94,36Z"/><path class="cls-9" d="M19.83,21.13c0-.36-2.26-.36-2.76.16a2.82,2.82,0,0,0-.1,2.55,6.29,6.29,0,0,0,3,0A10.32,10.32,0,0,0,19.83,21.13Z"/><path class="cls-9" d="M18.16.3c-.6,0-1.1,1-1.08,1.73s1,1.27,1.76,1.29-.45-1.14-.43-2S18.38.31,18.16.3Z"/><path class="cls-21" d="M23.54,35.72s-6.87-1.19-10.79,1C12.75,36.68,16.28,33.71,23.54,35.72Z"/><path class="cls-21" d="M24.14,22.36a12.43,12.43,0,0,0-13,.55S16.71,18,24.14,22.36Z"/><path class="cls-21" d="M14.36,4.16s5.16-1.69,8.6.78A7.88,7.88,0,0,0,14.36,4.16Z"/><path class="cls-22" d="M18,3.33a3.62,3.62,0,0,1,1.67.13C19.73,3.58,18.21,3.82,18,3.33Z"/><path class="cls-22" d="M21.36,2.48c-.59-.38-1,.49-.18,1S22.21,3,21.36,2.48Z"/><path class="cls-22" d="M29.91,16.21c-1-2.06-2.86.4-2.85,2.56S30.74,21.18,31,20.2,29.91,16.21,29.91,16.21Z"/><path class="cls-22" d="M24.37,24.4c-.16-.52-1.07-.47-1.29-.17S24.54,24.92,24.37,24.4Z"/><path class="cls-22" d="M24.75,46.73c-1.2-7.12-2.57,1.26-2.37,3.59a2.68,2.68,0,0,0,2.73,2.73C25.73,52.94,24.75,46.73,24.75,46.73Z"/><path class="cls-23" d="M24.79,25.34a11.34,11.34,0,0,0-6-1A7.3,7.3,0,0,0,14,26.49s5.48-1.53,7.17.69l.24,1s3.9-.58,4-1.66C25.49,25.9,24.79,25.34,24.79,25.34Z"/><path class="cls-19" d="M24.41,53.64c-2.7-.73-3.38,1.6-5.94,2.31s2.08,1.65,4.91,1S26.79,54.28,24.41,53.64Z"/><path class="cls-19" d="M9.42,47.07s-5.25-.35-7.17.33S.89,48.83.89,48.83l6.35,0Z"/><path class="cls-24" d="M6.63,57.65H6.51c-2.56-.21,4-2.1,4.91-3,.29-.25-.09-.42-.75-.52A35.2,35.2,0,0,0,6.26,54H5.94s6.91-1,7-1S10.79,39.79,9.49,39s-8.18-1.7-8.8-1.36-.39,8-.39,8l0-.08C.19,43.82-.19,37.53.2,37.3s12.61,1.61,12.59.9l.79,15.61L13.64,56S10.07,56.87,6.63,57.65Z"/><path class="cls-8" d="M.69,38.29C1.41,37,6.63,38,7.89,39.78S8.3,45.35,6.75,46s-5.42.48-6-.46S.69,38.29.69,38.29Z"/><path class="cls-8" d="M7.68,50c-1-.79-7.06-1.1-7.34-.62s.07,4,.29,4.43,7.38,0,8.1-.71S8.2,50.41,7.68,50Z"/><path class="cls-20" d="M.2,55.05c.44-.86,7.14-1,7.64-.57S4.55,58.2,2.11,58.64.2,55.05.2,55.05Z"/><path class="cls-23" d="M.13,48.83s-.28,3.68.36,5.37a11.49,11.49,0,0,0-.11,4.73A17.54,17.54,0,0,1,0,54.2S0,49.9.13,48.83Z"/><path class="cls-23" d="M2.8,37.47a4.92,4.92,0,0,0-2.23.37C0,38.28.32,45.16.43,45.61a1.14,1.14,0,0,0,.44.67L.33,48.81l0-2.94S-.31,37.59.2,37.3A10.67,10.67,0,0,1,2.8,37.47Z"/><path class="cls-19" d="M24.52,56.69a4.93,4.93,0,0,0,.88-2.59c-.07-1.23-2-17.35-2.12-17.82s-.93-.87-.93-.87-.51-4.62-1.05-7.87c0,0,1.08,5.29,1.33,8l.91.23S25.84,53.85,26,55,24.52,56.69,24.52,56.69Z"/><path class="cls-19" d="M29.72,24.47s0-.12.13-.22A5.1,5.1,0,0,0,31,21.12c0-.14,0-.28,0-.43a13.74,13.74,0,0,0-.79-4.86C28.64,11.25,22.59,6,22.59,6c6,3.21,9.56,13,9.11,14.66-.14,2.14-1.22,3.56-1.95,3.78Z"/><path class="cls-23" d="M9.32,25a17.53,17.53,0,0,1-3-.27C5.55,24.45,5.06,22,5.17,21a24.66,24.66,0,0,1,5.24-12c-.27.39-4.62,6.71-4.63,10.73,0,.44,0,.85,0,1.22,0,.15,0,.3,0,.43.22,2.78,1,3.4,1.25,3.44S9.2,25,9.32,25Z"/><path class="cls-23" d="M13.87,29.38S14,33.85,14,35s0,1.11,0,1.11-1,.78-1,1.24-.13,2.89-.13,2.89a8.58,8.58,0,0,0-.31-1.36,3.85,3.85,0,0,0-1-.54,4.64,4.64,0,0,0,1.16,0,8.92,8.92,0,0,0,.05-1.52l1.05-.73S13.75,31.39,13.87,29.38Z"/><path class="cls-22" d="M22,52.87c.13-.38-1.49-.62-2.27-.38s-.81.43-.81.43S21.71,53.58,22,52.87Z"/><path class="cls-22" d="M18.64,35.18c-.1-.32,2-.07,2.29.06S19.13,35.64,18.64,35.18Z"/><path class="cls-22" d="M18.73,20.67c-.17-.41,1.64-.06,2.13.18S19.21,21,18.73,20.67Z"/><path class="cls-22" d="M17.06,11.45a4.34,4.34,0,0,1,3.06.11A2.14,2.14,0,0,0,17.06,11.45Z"/><path class="cls-23" d="M18.25,0A7.58,7.58,0,0,0,14,4.32s-.75,1.35,0,1.84a.86.86,0,0,1-.39-1.29S15.36.16,18.25,0Z"/><path class="cls-7" d="M18.28,24.08c.12-.79-1.67-.76-2.18-.42s-.53.5-.47.68S18.14,24.92,18.28,24.08Z"/><path class="cls-7" d="M15.19,38.27c.56-.68,1.32-.62,1.49-.33s-.47,1.26-1.09,1.41S14.92,38.61,15.19,38.27Z"/><path class="cls-7" d="M15.61,37.91a1.25,1.25,0,0,0-.41.88c0,.5.58.48.58.48a.65.65,0,0,1-.78,0C14.64,39,15,38.21,15.61,37.91Z"/><path class="cls-21" d="M15,39.23c-.06-.19.47-.1.51,0S15.11,39.41,15,39.23Z"/><path class="cls-23" d="M16.68,37.94c-.25-.59-1.21.08-1.2.72s.59.43.69.34S16.77,38.15,16.68,37.94Z"/><path class="cls-23" d="M18.07,23.64c-.28-.32-1.35.06-1.69.36s.8.58,1.39.38S18.29,23.9,18.07,23.64Z"/><path class="cls-7" d="M17,23.44s-1,.19-1.13.66,1,.49,1,.49-1.33-.06-1.38-.35S16.14,23.46,17,23.44Z"/><path class="cls-25" d="M15.52,24.1c.14-.19.58.4.58.4S15.36,24.44,15.52,24.1Z"/><path class="cls-23" d="M10.85,26.34c.09.9,1.88,1.87,3.06,2.09C13.91,28.43,10.22,28.18,10.85,26.34Z"/><path class="cls-22" d="M7.43,15.69c.53-1,.78.84,0,1.31S7.43,15.69,7.43,15.69Z"/><path class="cls-22" d="M1.2,43.9c.22-1.1,1.08.33,1.7,1.19S.52,46.63,1.2,43.9Z"/><path class="cls-19" d="M18.63,3.61C16.42,3.69,18,4.4,19.75,5a29.79,29.79,0,0,1,2.84,1,.69.69,0,0,0,.23-1C22.53,4.37,20.43,3.54,18.63,3.61Z"/><path class="cls-22" d="M7.67,53.76A2.87,2.87,0,0,0,4,54.07C3.85,54.26,7.89,54.35,7.67,53.76Z"/><path class="cls-8" d="M30.91,21.51C31,20.87,29.25,23,29,23.68s.83.57.83.57S31.18,22.76,30.91,21.51Z"/><path class="cls-7" d="M20.23,38.37c-.6-.76-3.6.76-3.69,1.6s2.16.4,2.78.14S20.23,38.37,20.23,38.37Z"/><path class="cls-7" d="M17.47,39s-.27.29.17.72a2.29,2.29,0,0,0,1.6.45s-1.79.72-2.7.33S17,39.25,17.47,39Z"/><path class="cls-19" d="M18.43,38.47c-1.35.81.49,1,.83,1.05s.28.44.28.44.9-1.22.69-1.59S18.43,38.47,18.43,38.47Z"/><path class="cls-21" d="M16.82,40.55c-.33-.23.37-.12.85-.1S17.18,40.67,16.82,40.55Z"/><path class="cls-26" d="M15.86,55.33A.51.51,0,0,1,16,55c.87-1.14,6.41-1.44,7.28,0a.62.62,0,0,1,.1.22C23.83,57,15.91,57.32,15.86,55.33Z"/><path class="cls-23" d="M16,55c.87-1.14,6.41-1.44,7.28,0C22.43,56.26,16.85,56.41,16,55Z"/></g></g></g></svg>