<svg xmlns="http://www.w3.org/2000/svg" xmlns:xlink="http://www.w3.org/1999/xlink" viewBox="0 0 34.59 58.91"><defs><style>.cls-1{isolation:isolate;}.cls-2{fill:url(#Безымянный_градиент_467);}.cls-3{fill:url(#Безымянный_градиент_6);}.cls-4{fill:url(#Безымянный_градиент_49);}.cls-5{fill:url(#Безымянный_градиент_468);}.cls-6{fill:url(#Безымянный_градиент_38);}.cls-7{fill:#d13c00;}.cls-20,.cls-22,.cls-8{fill:#fff;}.cls-20,.cls-8{mix-blend-mode:soft-light;}.cls-9{fill:#da0553;opacity:0.2;}.cls-19,.cls-23,.cls-24,.cls-9{mix-blend-mode:multiply;}.cls-10{fill:url(#Безымянный_градиент_6-2);}.cls-11{fill:url(#Безымянный_градиент_467-2);}.cls-12{fill:url(#Безымянный_градиент_6-3);}.cls-13{fill:url(#Безымянный_градиент_85);}.cls-14{fill:url(#Безымянный_градиент_38-2);}.cls-15{fill:url(#Безымянный_градиент_64);}.cls-16{fill:url(#Безымянный_градиент_58);}.cls-17{fill:url(#Безымянный_градиент_64-2);}.cls-18{fill:url(#Безымянный_градиент_12);}.cls-19,.cls-23,.cls-24{fill:#d42f55;}.cls-19,.cls-20{opacity:0.5;}.cls-21{fill:#ffe016;}.cls-23{opacity:0.8;}.cls-24{opacity:0.3;}.cls-25{fill:#dc2c00;}.cls-26{fill:#ff8300;}.cls-27{fill:#ffa400;}.cls-28{fill:#ffcf95;}.cls-29{fill:#ed4800;}.cls-30{fill:url(#Безымянный_градиент_466);}</style><linearGradient id="Безымянный_градиент_467" x1="-3.8" y1="-34.73" x2="-6.97" y2="-43.44" gradientTransform="translate(-17.93 7.16) rotate(92.95)" gradientUnits="userSpaceOnUse"><stop offset="0" stop-color="#ffea34"/><stop offset="0.63" stop-color="#ff8100"/><stop offset="0.7" stop-color="#ffa400"/><stop offset="1" stop-color="#ffba00"/></linearGradient><linearGradient id="Безымянный_градиент_6" x1="-2.31" y1="-35.11" x2="-5.54" y2="-43.96" gradientTransform="translate(-17.93 7.16) rotate(92.95)" gradientUnits="userSpaceOnUse"><stop offset="0" stop-color="#ff5900"/><stop offset="0.23" stop-color="#fe6800"/><stop offset="0.39" stop-color="#f66a00"/><stop offset="1" stop-color="#f63f00"/></linearGradient><linearGradient id="Безымянный_градиент_49" x1="4.06" y1="-32.89" x2="4.06" y2="-48.61" gradientTransform="translate(-17.93 7.16) rotate(92.95)" gradientUnits="userSpaceOnUse"><stop offset="0" stop-color="#b01500"/><stop offset="0.23" stop-color="#fe6800"/><stop offset="0.56" stop-color="#f66a00"/><stop offset="1" stop-color="#bb0e00"/></linearGradient><linearGradient id="Безымянный_градиент_468" x1="17.99" y1="-27.6" x2="9.09" y2="-52.06" gradientTransform="translate(-17.93 7.16) rotate(92.95)" gradientUnits="userSpaceOnUse"><stop offset="0" stop-color="#ff5900"/><stop offset="0.23" stop-color="#fe6800"/><stop offset="0.66" stop-color="#fa9300"/><stop offset="0.85" stop-color="#f66a00"/><stop offset="1" stop-color="#f63f00"/></linearGradient><linearGradient id="Безымянный_градиент_38" x1="11.28" y1="-25.75" x2="2.36" y2="-50.24" gradientTransform="translate(-17.93 7.16) rotate(92.95)" gradientUnits="userSpaceOnUse"><stop offset="0" stop-color="#ffac15"/><stop offset="0.63" stop-color="#ff8100"/><stop offset="0.7" stop-color="#ffa400"/><stop offset="1" stop-color="#ffba00"/></linearGradient><linearGradient id="Безымянный_градиент_6-2" x1="41.36" y1="-20.96" x2="37.45" y2="-31.71" xlink:href="#Безымянный_градиент_6"/><linearGradient id="Безымянный_градиент_467-2" x1="15.13" y1="-31.74" x2="15.13" y2="-46.72" xlink:href="#Безымянный_градиент_467"/><linearGradient id="Безымянный_градиент_6-3" x1="20.14" y1="-32.44" x2="15.24" y2="-45.9" xlink:href="#Безымянный_градиент_6"/><linearGradient id="Безымянный_градиент_85" x1="29.64" y1="-34.45" x2="28.98" y2="-43.85" gradientTransform="translate(-17.93 7.16) rotate(92.95)" gradientUnits="userSpaceOnUse"><stop offset="0" stop-color="#ffac15"/><stop offset="0.63" stop-color="#ff8100"/><stop offset="1" stop-color="#ffa400"/></linearGradient><linearGradient id="Безымянный_градиент_38-2" x1="37.58" y1="-33.25" x2="36.68" y2="-46.22" xlink:href="#Безымянный_градиент_38"/><linearGradient id="Безымянный_градиент_64" x1="49.23" y1="-34.65" x2="45.01" y2="-46.25" gradientTransform="translate(-17.93 7.16) rotate(92.95)" gradientUnits="userSpaceOnUse"><stop offset="0" stop-color="#ff5900"/><stop offset="0.23" stop-color="#fe6800"/><stop offset="1" stop-color="#e82c00"/></linearGradient><linearGradient id="Безымянный_градиент_58" x1="37.76" y1="-20.51" x2="37.76" y2="-34.29" gradientTransform="translate(-17.93 7.16) rotate(92.95)" gradientUnits="userSpaceOnUse"><stop offset="0" stop-color="#ffba00"/><stop offset="1" stop-color="#ff8100"/></linearGradient><linearGradient id="Безымянный_градиент_64-2" x1="49.52" y1="-20.32" x2="44.58" y2="-33.9" xlink:href="#Безымянный_градиент_64"/><linearGradient id="Безымянный_градиент_12" x1="40.48" y1="-27.87" x2="39.55" y2="-30.41" gradientTransform="translate(-17.93 7.16) rotate(92.95)" gradientUnits="userSpaceOnUse"><stop offset="0" stop-color="#ff5900"/><stop offset="0.23" stop-color="#fe6800"/><stop offset="1" stop-color="#f66a00"/></linearGradient><linearGradient id="Безымянный_градиент_466" x1="47.32" y1="-36.6" x2="47.32" y2="-44.27" gradientTransform="translate(-17.93 7.16) rotate(92.95)" gradientUnits="userSpaceOnUse"><stop offset="0" stop-color="#ffba00"/><stop offset="0.21" stop-color="#fe6800"/><stop offset="1" stop-color="#d41b00"/></linearGradient></defs><g class="cls-1"><g id="Слой_2" data-name="Слой 2"><g id="layer1"><path class="cls-2" d="M16.9,5s2.15-5.13,5.22-5,4.74,5.85,4.74,5.85A13.17,13.17,0,0,0,16.9,5Z"/><path class="cls-3" d="M26.86,5.85c.24,1.32-10.81,1.7-10-.87S26.43,3.49,26.86,5.85Z"/><path class="cls-4" d="M26.36,18.12c3.47-1.19-1.67-5-5.64-4.77S15.06,15.59,15,16.58s-.23-3.86-.23-3.86L23.08,8l7.18,8.66L29.84,19Z"/><path class="cls-5" d="M11.45,25h0a18.3,18.3,0,0,1-3-.47c-.77-.37-1.12-2.93-.94-3.89l27.05,1.33c-.28,2.18-1.47,3.56-2.23,3.73h0C29.4,26.28,17.25,25.56,11.45,25Z"/><path class="cls-6" d="M33.72,22.33c.47-.11.75-.25.8-.41.57-1.68-2.4-11.85-8.35-15.5A8.59,8.59,0,0,0,22,5.1a11,11,0,0,0-8.41,3.62h0A25.22,25.22,0,0,0,7.47,20.59c0,.16.22.32.65.47C11.76,22.4,29.68,23.29,33.72,22.33Zm-5.87-4.82c-.94,1.25-11.92,1.66-12.72-.38s2.8-5.36,6-5.74S29.05,15.92,27.85,17.51Z"/><path class="cls-7" d="M24.09,5.46s-1.89-2.49-5.2,0A9.43,9.43,0,0,1,24.09,5.46Z"/><path class="cls-8" d="M24.08,5.73C21,4.63,22,10.26,23,11.17s4.34,2.8,5.45,5.18-3.93,2.09-4.36,2.95,1.9,2.91,3.18,3.17,5.87.79,6.78-1.17S30.49,8,24.08,5.73Z"/><path class="cls-8" d="M13.48,9.71c2.5-1.74,2.12,2.72,1.25,6s2.24,2.43,3.08,3.25-2.22,2.64-4.14,2.75-5.41-.11-5.46-2S10.48,11.79,13.48,9.71Z"/><path class="cls-9" d="M22.08,5.8c.07-.74-3.24-.57-4.44.5s1.15,4.54,1.39,4.94,2.85.49,3.16.16S21.83,8.5,22.08,5.8Z"/><path class="cls-9" d="M23.73,19.2c-.07-.24-1.49-.4-2.41-.12s-.16,2.36-.09,3.06,4.13.48,4.67.4S24.23,20.86,23.73,19.2Z"/><path class="cls-10" d="M.93,45.77s-.16,3-.18,3.38,11,.82,11,.82.7-2.82.13-3.42S.93,45.77.93,45.77Z"/><path class="cls-11" d="M27.83,27.07a21.94,21.94,0,0,0-.59-3.15c-.37-1.07-2.62-2.46-5.81-2.63-4.36-.23-7.6,1-8,1.81a18.73,18.73,0,0,0-.61,3.84S20.78,22.06,27.83,27.07Z"/><path class="cls-12" d="M27.83,27.07c1.1,2.38-14.55,3-15-.13S26.09,23.29,27.83,27.07Z"/><path class="cls-13" d="M23.28,26.77A111.51,111.51,0,0,1,24.11,51s-4.65-2.36-8.9-.41a144.51,144.51,0,0,1,.95-23.85C19.62,24.67,23.28,26.77,23.28,26.77Z"/><path class="cls-14" d="M25.26,36.73S18.68,35,14.2,37l-.69,18.79s8.38-.89,13,.59Z"/><path class="cls-15" d="M26.53,56.41c.61,3.22-13.14,2.87-13-.59C13.61,53.3,25.92,53.24,26.53,56.41Z"/><path class="cls-16" d="M.25,55c0-.1,0-.41,0-.86a40.24,40.24,0,0,1,.33-5.48c.21-.12,9.36.7,9.55.44a2.8,2.8,0,0,0,0-1.65C10,47.08.9,46.35.93,45.78v-.45c0-1.83,0-8.26.45-8.47s12.74,2.44,12.76,1.72l-.17,16-3,.18C7,54.94.29,55.27.25,55Z"/><path class="cls-17" d="M.2,58.91c-.47-1.44,0-4.82,0-4.82s2.78.06,6.17.17h.07c2.46.08,5.22.17,7.48.27l-.08,2.26s-3.7.64-7.25,1.21C3.5,58.51.46,59,.2,58.91Z"/><polygon class="cls-18" points="10.16 47.4 7.82 49.03 10.33 49.15 10.16 47.4"/><path class="cls-19" d="M22.63,13.52a6.63,6.63,0,0,1,.05-1.82,8.39,8.39,0,0,1,3.77,2.48c.89,1.31.64,1.79.64,1.79A6.51,6.51,0,0,0,22.63,13.52Z"/><path class="cls-19" d="M18,13.87s0-.75-.26-.83-1.85,1.38-2.12,1.87-.34.64-.34.64A20.14,20.14,0,0,1,18,13.87Z"/><path class="cls-8" d="M22.68,11.7a4.88,4.88,0,0,0-2.82,0,9.05,9.05,0,0,0-2,1.2,3.77,3.77,0,0,0,.12.9,15,15,0,0,1,3-.58c.88,0,1.48.24,1.58.2A10.37,10.37,0,0,0,22.68,11.7Z"/><path class="cls-19" d="M30.67,25.51a3,3,0,0,0,1.15-2.68c-.13-.33-3.55.09-4.34.06s-.07,1.25,0,2.4S30.67,25.51,30.67,25.51Z"/><path class="cls-19" d="M13.44,23.1c.3-1.07-4.3-1.5-4.61-1.57S8.69,24,8.89,24.3s3.82.65,4,.58A8.23,8.23,0,0,0,13.44,23.1Z"/><path class="cls-8" d="M7.43,20.91c.16-.11,1.09,1.1,1.2,2.19s-.26,1.27-.4,1.24A6.6,6.6,0,0,1,7.43,20.91Z"/><path class="cls-8" d="M22.57.33c-1,0,0,2.52.92,3S26,4.57,26,4.57,25.4.88,22.57.33Z"/><path class="cls-8" d="M27.1,23.76a7.7,7.7,0,0,0-3.89-2c-1.08,0-.06,2.47.12,2.62A35.91,35.91,0,0,1,27.05,26C28,26.57,27.1,23.76,27.1,23.76Z"/><path class="cls-8" d="M23,27.44c-.38-1-2.19-1.47-2.75-1.33s.17,8.56.4,8.92a16.6,16.6,0,0,0,3.3,1.2S23.82,29.58,23,27.44Z"/><path class="cls-8" d="M24.76,38c.08-1.32-3-1.6-3.79-1.35s.29,16.09.44,16.57S25,54.3,25.74,54.81,24.76,38,24.76,38Z"/><path class="cls-20" d="M19.13,1.5c1.65-.78-.16,1.73-1,2.21S19.13,1.5,19.13,1.5Z"/><path class="cls-20" d="M16.91,26.59c.86-.48-.62,9.24-1.13,9.64S15.87,27.17,16.91,26.59Z"/><path class="cls-20" d="M14.94,37.48C16,36.62,18.75,52,18.63,52.79s-4.39,1.75-4.39,1.75S13.53,38.61,14.94,37.48Z"/><path class="cls-9" d="M19.6,26c.91,0,.28,3.06.61,6.24s.66,3.5.36,3.64-1.33,0-1.8-1.33S18,26.07,19.6,26Z"/><path class="cls-9" d="M20.55,36.67c0-.75-1.7-.6-2-.3s.78,9.92.59,13.44-.32,3.48.32,3.57,1.38.5,1.65-.07S20.51,38.93,20.55,36.67Z"/><path class="cls-9" d="M22.4,21.63c0-.36-2.28-.5-2.82,0a2.89,2.89,0,0,0-.27,2.59,6.49,6.49,0,0,0,3,.15A10.22,10.22,0,0,0,22.4,21.63Z"/><path class="cls-9" d="M22,.3c-.61-.06-1.18,1-1.21,1.7s.91,1.35,1.72,1.42-.38-1.19-.31-2.09S22.24.33,22,.3Z"/><path class="cls-21" d="M25.26,36.73s-6.93-1.65-11.06.3C14.2,37,18,34.23,25.26,36.73Z"/><path class="cls-21" d="M26.71,23.16a12.7,12.7,0,0,0-13.25-.27S19.42,18.22,26.71,23.16Z"/><path class="cls-21" d="M17.9,4s5.36-1.39,8.72,1.33A8.06,8.06,0,0,0,17.9,4Z"/><path class="cls-22" d="M21.69,3.38a3.66,3.66,0,0,1,1.69.24C23.4,3.75,21.84,3.9,21.69,3.38Z"/><path class="cls-22" d="M25.13,2.73c-.57-.43-1,.44-.24,1S26,3.34,25.13,2.73Z"/><path class="cls-22" d="M33,17.26c-.92-2.17-2.94.22-3.07,2.42s3.6,2.69,3.92,1.71S33,17.26,33,17.26Z"/><path class="cls-22" d="M26.82,25.25c-.14-.54-1.07-.54-1.31-.26S27,25.79,26.82,25.25Z"/><path class="cls-22" d="M25.79,48c-.78-7.33-2.7,1.12-2.65,3.51a2.74,2.74,0,0,0,2.61,2.95C26.4,54.41,25.79,48,25.79,48Z"/><path class="cls-23" d="M27.19,26.24c-.14-.27-2.87-1.46-6-1.43a7.51,7.51,0,0,0-5,1.92s5.68-1.22,7.26,1.15l.18,1s4-.34,4.17-1.43C27.86,26.85,27.19,26.24,27.19,26.24Z"/><path class="cls-19" d="M25,55c-2.69-.9-3.54,1.43-6.2,2s2,1.81,4.94,1.38S27.39,55.84,25,55Z"/><path class="cls-19" d="M10.16,47.4s-5.33-.69-7.34-.12-1.47,1.37-1.47,1.37L7.82,49Z"/><path class="cls-24" d="M6.64,58H6.51c-2.59-.37,4.16-1.89,5.2-2.7.3-.24-.06-.44-.74-.58a34,34,0,0,0-4.48-.45H6.16s7.11-.59,7.25-.57S12,40.07,10.73,39.22,2.51,37,1.85,37.28.94,45.42.94,45.42v-.09c0-1.83,0-8.26.45-8.47s12.74,2.44,12.76,1.72l-.17,16-.08,2.26S10.19,57.43,6.64,58Z"/><path class="cls-8" d="M1.82,37.9c.81-1.3,6.06.11,7.24,2s.06,5.7-1.57,6.28-5.55.14-6.05-.85S1.82,37.9,1.82,37.9Z"/><path class="cls-8" d="M8.19,50.26c-.94-.88-7.11-1.58-7.44-1.11s-.18,4.11,0,4.53,7.52.52,8.3-.2S8.7,50.72,8.19,50.26Z"/><path class="cls-20" d="M.25,55c.5-.85,7.34-.53,7.82-.1S4.49,58.43,2,58.72.25,55,.25,55Z"/><path class="cls-23" d="M.58,48.61S.06,52.33.6,54.1a11.52,11.52,0,0,0-.4,4.81s-.32-1-.07-4.84C.13,54.07.32,49.69.58,48.61Z"/><path class="cls-23" d="M4,37.2a4.94,4.94,0,0,0-2.29.24c-.56.41-.72,7.43-.64,7.9a1.17,1.17,0,0,0,.41.71L.78,48.6l.16-3s-.1-8.46.44-8.73A10.93,10.93,0,0,1,4,37.2Z"/><path class="cls-19" d="M24.93,58.16A5.09,5.09,0,0,0,26,55.57c0-1.26-1-17.81-1-18.29s-.88-.94-.88-.94-.24-4.75-.58-8.08c0,0,.77,5.45.85,8.17l.92.3s1.19,18.61,1.27,19.76S24.93,58.16,24.93,58.16Z"/><path class="cls-19" d="M32.27,25.65s0-.11.14-.21a5.23,5.23,0,0,0,1.31-3.11c0-.14,0-.29.06-.45a14.19,14.19,0,0,0-.5-5C32,12.12,26.17,6.42,26.17,6.42c5.95,3.65,8.92,13.82,8.35,15.5-.28,2.18-1.47,3.56-2.23,3.73Z"/><path class="cls-23" d="M11.45,25a18.3,18.3,0,0,1-3-.47c-.77-.37-1.12-2.93-.94-3.89A25.22,25.22,0,0,1,13.56,8.73c-.29.38-5.13,6.55-5.39,10.65,0,.45-.05.86-.06,1.24,0,.15,0,.3,0,.44,0,2.85.8,3.53,1.05,3.58S11.32,24.93,11.45,25Z"/><path class="cls-23" d="M15.8,29.65s-.2,4.56-.2,5.75a4.84,4.84,0,0,1,0,1.13s-1,.73-1.13,1.21-.31,2.93-.31,2.93a8.81,8.81,0,0,0-.23-1.41c-.1-.2-1-.61-1-.61a4.61,4.61,0,0,0,1.19,0,10,10,0,0,0,.15-1.54l1.11-.69S15.56,31.7,15.8,29.65Z"/><path class="cls-22" d="M22.55,54.1c.15-.38-1.48-.73-2.29-.53s-.85.38-.85.38S22.26,54.81,22.55,54.1Z"/><path class="cls-22" d="M20.3,35.87c-.08-.33,2,.05,2.33.21S20.77,36.37,20.3,35.87Z"/><path class="cls-22" d="M21.3,21.09c-.14-.43,1.68,0,2.17.32S21.77,21.42,21.3,21.09Z"/><path class="cls-22" d="M20.19,11.59a4.44,4.44,0,0,1,3.11.31A2.18,2.18,0,0,0,20.19,11.59Z"/><path class="cls-23" d="M22.12,0A7.77,7.77,0,0,0,17.5,4.13S16.65,5.47,17.34,6A.88.88,0,0,1,17,4.67S19.18,0,22.12,0Z"/><path class="cls-25" d="M20.63,24.54c.18-.8-1.65-.88-2.19-.57s-.57.47-.52.66S20.44,25.38,20.63,24.54Z"/><path class="cls-25" d="M16.59,38.8c.61-.66,1.38-.55,1.54-.25s-.56,1.26-1.21,1.37S16.29,39.13,16.59,38.8Z"/><path class="cls-26" d="M17,38.46a1.28,1.28,0,0,0-.48.87c0,.51.56.53.56.53a.66.66,0,0,1-.79,0C16,39.49,16.34,38.72,17,38.46Z"/><path class="cls-27" d="M16.38,39.76c-.05-.19.47-.07.51.05S16.43,40,16.38,39.76Z"/><path class="cls-23" d="M18.13,38.55c-.22-.61-1.24,0-1.27.67s.57.47.67.38S18.21,38.77,18.13,38.55Z"/><path class="cls-23" d="M20.45,24.08c-.26-.35-1.38,0-1.75.26s.78.64,1.4.48S20.66,24.35,20.45,24.08Z"/><path class="cls-26" d="M19.39,23.8s-1.06.14-1.19.61,1,.56,1,.56-1.35-.15-1.39-.45S18.49,23.77,19.39,23.8Z"/><path class="cls-28" d="M17.82,24.38c.16-.18.56.45.56.45S17.64,24.72,17.82,24.38Z"/><path class="cls-23" d="M12.92,26.37c0,.93,1.8,2,3,2.32C15.91,28.69,12.17,28.2,12.92,26.37Z"/><path class="cls-22" d="M10.11,15.3c.61-1,.75.91-.06,1.34S10.11,15.3,10.11,15.3Z"/><path class="cls-22" d="M2,43.65c.29-1.11,1.08.4,1.66,1.31S1.12,46.39,2,43.65Z"/><path class="cls-19" d="M22.28,3.7c-2.25-.05-.74.77,1.06,1.47a27.21,27.21,0,0,1,2.83,1.25.72.72,0,0,0,.29-1C26.21,4.72,24.13,3.75,22.28,3.7Z"/><path class="cls-22" d="M8,54.1a3,3,0,0,0-3.76.09C4,54.37,8.13,54.72,8,54.1Z"/><path class="cls-8" d="M33.66,22.72c.1-.65-1.78,1.4-2.06,2.09s.81.63.81.63S33.86,24,33.66,22.72Z"/><path class="cls-29" d="M21.71,39.21c-.56-.8-3.71.56-3.86,1.41s2.18.54,2.82.32S21.71,39.21,21.71,39.21Z"/><path class="cls-26" d="M18.86,39.66s-.29.27.13.74A2.34,2.34,0,0,0,20.6,41s-1.88.62-2.78.16S18.35,39.91,18.86,39.66Z"/><path class="cls-19" d="M19.87,39.2c-1.42.75.44,1.06.78,1.13s.26.47.26.47,1-1.19.8-1.59S19.87,39.2,19.87,39.2Z"/><path class="cls-27" d="M18.1,41.22c-.32-.25.39-.09.87,0S18.46,41.37,18.1,41.22Z"/><path class="cls-30" d="M16.19,56.22a.49.49,0,0,1,.14-.32c1-1.1,6.63-1.06,7.42.45a.47.47,0,0,1,.09.22C24.2,58.46,16.11,58.25,16.19,56.22Z"/><path class="cls-23" d="M16.33,55.9c1-1.1,6.63-1.06,7.42.45C22.82,57.58,17.13,57.39,16.33,55.9Z"/></g></g></g></svg>