<svg xmlns="http://www.w3.org/2000/svg" xmlns:xlink="http://www.w3.org/1999/xlink" viewBox="0 0 57.14 55.35"><defs><style>.cls-1{isolation:isolate;}.cls-2{fill:url(#Безымянный_градиент_638);}.cls-3{fill:url(#Безымянный_градиент_857);}.cls-4{fill:#912774;}.cls-11,.cls-16,.cls-24,.cls-26,.cls-32,.cls-4,.cls-5,.cls-8{mix-blend-mode:multiply;}.cls-19,.cls-24,.cls-32,.cls-4{opacity:0.5;}.cls-11,.cls-5{opacity:0.3;}.cls-6{fill:#a20074;}.cls-7{fill:#ff4f90;}.cls-16,.cls-8{opacity:0.2;}.cls-9{fill:#910074;}.cls-10{fill:url(#Безымянный_градиент_468);}.cls-11{fill:#b30053;}.cls-12,.cls-17,.cls-19{fill:#fff;}.cls-12,.cls-19{mix-blend-mode:soft-light;}.cls-13{fill:url(#Безымянный_градиент_847);}.cls-14{fill:url(#Безымянный_градиент_466);}.cls-15{fill:url(#Безымянный_градиент_533);}.cls-16{fill:#da0553;}.cls-18{fill:#ffe016;}.cls-20{fill:url(#Безымянный_градиент_465);}.cls-21{fill:url(#Безымянный_градиент_464);}.cls-22{fill:#ed4800;}.cls-23{fill:#ffba00;}.cls-24,.cls-26{fill:#d42f55;}.cls-25{fill:url(#Безымянный_градиент_468-2);}.cls-26{opacity:0.6;}.cls-27{fill:url(#Безымянный_градиент_676);}.cls-28{fill:url(#Безымянный_градиент_676-2);}.cls-29{fill:url(#Безымянный_градиент_676-3);}.cls-30{fill:#ff86ce;}.cls-31{fill:#ffffa1;}.cls-32{fill:#c20074;}</style><linearGradient id="Безымянный_градиент_638" x1="28.57" y1="55.35" x2="28.57" gradientUnits="userSpaceOnUse"><stop offset="0" stop-color="#de0086"/><stop offset="1" stop-color="#ff003b"/></linearGradient><linearGradient id="Безымянный_градиент_857" x1="28.49" y1="52.06" x2="28.49" y2="3.28" gradientUnits="userSpaceOnUse"><stop offset="0" stop-color="#fc0"/><stop offset="0.23" stop-color="#fe6800"/><stop offset="0.66" stop-color="#faf400"/><stop offset="0.85" stop-color="#f66a00"/><stop offset="1" stop-color="#f63f00"/></linearGradient><linearGradient id="Безымянный_градиент_468" x1="18.5" y1="14.69" x2="42.49" y2="40.65" gradientUnits="userSpaceOnUse"><stop offset="0" stop-color="#ff5900"/><stop offset="0.23" stop-color="#fe6800"/><stop offset="0.66" stop-color="#fa9300"/><stop offset="0.85" stop-color="#f66a00"/><stop offset="1" stop-color="#f63f00"/></linearGradient><linearGradient id="Безымянный_градиент_847" x1="23.48" y1="11.61" x2="37.52" y2="41.7" gradientUnits="userSpaceOnUse"><stop offset="0" stop-color="#ffea34"/><stop offset="0.58" stop-color="#ff8100"/><stop offset="0.7" stop-color="#ffa400"/><stop offset="1" stop-color="#ffba00"/></linearGradient><linearGradient id="Безымянный_градиент_466" x1="30.5" y1="36.15" x2="30.5" y2="12.29" gradientTransform="translate(0 3.03) scale(1 0.96)" gradientUnits="userSpaceOnUse"><stop offset="0" stop-color="#ffba00"/><stop offset="0.21" stop-color="#fe6800"/><stop offset="1" stop-color="#d41b00"/></linearGradient><linearGradient id="Безымянный_градиент_533" x1="30.5" y1="36.32" x2="30.5" y2="13.58" gradientTransform="translate(0 3.03) scale(1 0.96)" gradientUnits="userSpaceOnUse"><stop offset="0.04" stop-color="#ef6300"/><stop offset="1" stop-color="#e13e00"/></linearGradient><linearGradient id="Безымянный_градиент_465" x1="30.29" y1="35.7" x2="30.29" y2="17.83" gradientUnits="userSpaceOnUse"><stop offset="0" stop-color="#c82400"/><stop offset="0.51" stop-color="#d84400"/><stop offset="1" stop-color="#d42f00"/></linearGradient><linearGradient id="Безымянный_градиент_464" x1="30.29" y1="34.72" x2="30.29" y2="16.96" gradientUnits="userSpaceOnUse"><stop offset="0" stop-color="#ffab00"/><stop offset="0.49" stop-color="#ffba00"/><stop offset="1" stop-color="#ef6c00"/></linearGradient><linearGradient id="Безымянный_градиент_468-2" x1="38.56" y1="13.18" x2="41.87" y2="13.18" xlink:href="#Безымянный_градиент_468"/><linearGradient id="Безымянный_градиент_676" x1="2.38" y1="23.84" x2="2.38" y2="20.36" gradientUnits="userSpaceOnUse"><stop offset="0" stop-color="#de0057"/><stop offset="1" stop-color="#83003b"/></linearGradient><linearGradient id="Безымянный_градиент_676-2" x1="2.67" y1="25.91" x2="2.67" y2="23.88" xlink:href="#Безымянный_градиент_676"/><linearGradient id="Безымянный_градиент_676-3" x1="51.42" y1="17" x2="51.42" y2="13.82" xlink:href="#Безымянный_градиент_676"/></defs><g class="cls-1"><g id="Слой_2" data-name="Слой 2"><g id="layer1"><path class="cls-2" d="M53.89,29.29c.17-.78.43-1.6.7-2.46q.09-.33.21-.69v0c.9-3,1.7-6.58-.44-11C51.43,8.93,44.11,9.63,41.9,6.75s-1.49-4-3.75-4.54S33,4,31.67,2.77c-3.27-3-5.76-4.06-8.25-.56-2,2.84-5.81.14-8.56,2.47s-1,6-5,9.08c-2.42,1.84-5.83,3.45-8,6.6a2.1,2.1,0,0,1,.43.68,3,3,0,0,1-.06,2.15c-.33.91-.84,1-1.32.91a1.89,1.89,0,0,1-.58-.3A14.78,14.78,0,0,0,.09,29a17.45,17.45,0,0,0,.24,1.78c1.38,7.78,6.3,6.49,7.27,9.09,1,2.77-1.24,6.14.84,8.33s6.13.69,7.84,1.29,3.42,5.76,10.64,5.85,9.38-4,11.47-4.54c3-.83,8,1.77,10.25-.52S49,43.45,49.79,42c.72-1.25,4.23,0,6.23-1.7,0,0,0,0,0,0a3.47,3.47,0,0,0,.65-.76h0c0-.07.09-.14.13-.22s0,0,0,0C58.46,36.19,53.1,32.92,53.89,29.29Zm-1.67-15A2.37,2.37,0,0,1,53,16.87a2.49,2.49,0,0,1-1,1.56c-.66.44-1.45.28-1.87-.82a3.49,3.49,0,0,1,0-2.85C50.47,14.19,51.14,13.92,52.22,14.28ZM2.08,25.72a.94.94,0,0,1-.16-.35c-.28-.35.15-.76.57-1,.25-.1.49-.13.58,0a2.93,2.93,0,0,1,.32.61c.18.48.28,1-.13,1.17a.4.4,0,0,1-.19,0A1.18,1.18,0,0,1,2.08,25.72Z"/><path class="cls-3" d="M50.89,29.1c.15-.69.37-1.41.61-2.17.06-.2.12-.4.19-.6v0A13,13,0,0,0,52,18.43c-.66.44-1.45.28-1.87-.82a3.49,3.49,0,0,1,0-2.85c-3-3.5-8.11-3.31-9.81-5.52C38.38,6.7,39,5.66,37,5.23s-4.52,1.6-5.71.49C28.42,3,26.23,2.15,24,5.23c-1.78,2.5-5.13.12-7.55,2.18s-.88,5.32-4.39,8C10,17,7,18.45,5.11,21.23A9.53,9.53,0,0,0,3.39,25a7.22,7.22,0,0,0-.13,1.17,10.17,10.17,0,0,0,.21,2.66c.12.56.12,1.08.21,1.57,1.22,6.86,5.55,5.73,6.41,8,.92,2.45-1.09,5.42.74,7.34s5.4.61,6.92,1.14,3,5.07,9.37,5.16,8.26-3.48,10.11-4c2.59-.73,7,1.56,9-.46s.29-6,1-7.29c.63-1.1,3.72,0,5.48-1.5,0,0,0,0,0,0a2.72,2.72,0,0,0,.58-.67,0,0,0,0,1,0,0l.11-.19s0,0,0,0C54.91,35.18,50.19,32.3,50.89,29.1Zm.85,8.11s0,0,0,0-.07.12-.11.17v0a2.74,2.74,0,0,1-.54.62h0c-1.63,1.37-4.52.37-5.11,1.4s.93,4.92-.94,6.79-6-.26-8.41.42c-1.71.49-3.48,3.81-9.4,3.73s-7.33-4.31-8.73-4.8-4.72.73-6.43-1.06.16-4.56-.7-6.84c-.79-2.12-4.83-1.06-6-7.45-.08-.46-.1-.94-.2-1.46a8.38,8.38,0,0,1,1.52-7.09c1.74-2.58,4.54-3.9,6.52-5.41,3.26-2.5,1.83-5.53,4.08-7.45s5.38.3,7-2c2-2.87,4.08-2,6.77.45,1.1,1,3.47-.84,5.32-.45s1.27,1.37,3.07,3.72,7.81,1.79,10.23,6.82a11.56,11.56,0,0,1,.35,9.06v0c-.06.19-.12.38-.17.57-.22.7-.43,1.37-.57,2C48.69,32,53.08,34.66,51.74,37.21Z"/><path class="cls-4" d="M56,40.3c-2,1.67-5.51.45-6.23,1.7-.82,1.45,1.13,6-1.15,8.28s-7.3-.31-10.25.52c-2.09.59-4.24,4.64-11.47,4.54S18,50.08,16.28,49.49s-5.75.89-7.84-1.29.2-5.56-.84-8.33c-1-2.6-5.89-1.31-7.27-9.09,1.68,4.47,5.15,6.83,7.3,7.37S7.29,45.87,9.48,48s4.89.21,6.87.63,5.52,5.93,11,6.24,8.67-4.93,11-6,6.25,3,9.43,1.28.2-6.85,1.48-8.79C50.4,39.7,54.3,41.32,56,40.3Z"/><g class="cls-5"><path class="cls-6" d="M37,35.18C34.91,37.41,40.78,49.62,45.68,50s3.33-5.39-.29-11.89S37,35.18,37,35.18Z"/><path class="cls-6" d="M29.43,34.83c7,.15,6.1,14.23,4.09,17.36S21.36,53.71,19,48.86,29.43,34.83,29.43,34.83Z"/><path class="cls-6" d="M14.16,48.06c-6.42,2.14-6.29-4.87-4.34-7.69s13.29-7.3,14.54-7.19S16.77,47.19,14.16,48.06Z"/><path class="cls-6" d="M20.4,31.42C5.84,35.71,1.88,37.23,1.25,29.24a34.83,34.83,0,0,1,.83-3.52,1.18,1.18,0,0,0,1,.49c.94,0,.24-1.5,0-1.81-.09-.12-.33-.09-.58,0,1.06-3.2,2.85-6.83,5.48-6.93C12.71,17.28,35,27.14,20.4,31.42Z"/><path class="cls-6" d="M17.45,4.28C14.28,5.28,11.77,12,20.82,20s2.82-13.9,1.1-14.81A11.11,11.11,0,0,0,17.45,4.28Z"/><path class="cls-6" d="M25.83.71c-2.63,1.78,1.53,16.37,3.08,18.94s2.37-14.91,1-16.79A6.37,6.37,0,0,0,25.83.71Z"/><path class="cls-6" d="M35.46,3.82c-1.32.94-4.79,14.81-3.92,16.08S40.09,9.14,39.75,6,36.64,3,35.46,3.82Z"/><path class="cls-6" d="M47.82,10.47c-4.65-1.35-10.4,4.6-11.31,10.7s15.68,7.48,17.76,3.53S53.25,12.06,47.82,10.47ZM53,16.87c-.41,1.81-2.15,2.56-2.84.74s-.34-4.14,2.06-3.33A2.37,2.37,0,0,1,53,16.87Z"/><path class="cls-6" d="M38.39,27.71c-.92,1.79,8.5,11.86,14,12.13s5.24-4.79-2.22-8.28S38.39,27.71,38.39,27.71Z"/></g><path class="cls-7" d="M.41,23.8a1.89,1.89,0,0,0,.58.3A18.67,18.67,0,0,0,.09,29,14.78,14.78,0,0,1,.41,23.8Z"/><path class="cls-7" d="M54.8,26.11a15.06,15.06,0,0,0-1.38-11c-3.34-5.9-8.81-4.49-10.76-6.52S40.8,3.83,38.15,2.86,33,4.94,31.94,4.73s-1.61-4.58-5.1-4a2.11,2.11,0,0,0-.45.1h0a3.47,3.47,0,0,0-1,.4c-1.83,1.1-1.46,3.4-2.5,3.52s-3.31-.7-5.42-.45h-.05a4.18,4.18,0,0,0-2.16.88c-2.21,1.89-2,7.69-3.26,8.59s-3.6,1.05-7.7,4.85A10.63,10.63,0,0,0,2.37,21a2.1,2.1,0,0,0-.43-.68c2.12-3.15,5.53-4.76,8-6.6,4-3,2.23-6.75,5-9.08s6.55.37,8.56-2.47c2.49-3.5,5-2.49,8.25.56,1.35,1.25,4.22-1,6.48-.56S39.7,3.88,41.9,6.75s9.53,2.18,12.46,8.32C56.5,19.53,55.7,23.1,54.8,26.11Z"/><g class="cls-8"><path class="cls-9" d="M33,52.79c-2.6,1.3-1.4-9-.18-12S36.34,47.59,33,52.79Z"/><path class="cls-9" d="M39.24,42.56c-.53.5,1.85,5.43,5.19,7.13S45.38,36.81,39.24,42.56Z"/><path class="cls-9" d="M16.56,39.84c-1.83-.32-2.76,7.91-2.4,8.22s4.37-4,5.36-6.71S16.56,39.84,16.56,39.84Z"/><path class="cls-9" d="M2.87,34c-2-1.61,5.88-6,11.92-5.35s.4,4.56-3.39,5.35S3.4,34.42,2.87,34Z"/><path class="cls-9" d="M6.2,18.12c-2.82,2.67,6,7,11.66,8.09S19,22.54,19,22.54,9.7,14.83,6.2,18.12Z"/><path class="cls-9" d="M19,4.37c-4,1.06,3,12.78,5.47,15.12S24.22,9,22.64,6.76A5.32,5.32,0,0,0,19,4.37Z"/><path class="cls-9" d="M35.26,4.05c1.2-3,2.39,3.24-.77,9S33.25,9.16,35.26,4.05Z"/><path class="cls-9" d="M41.64,12.24c-2.35,2.32-4.58,6.26-4.23,8.93s8.88-2.7,10.75-6.94S43.9,10,41.64,12.24Z"/><path class="cls-9" d="M48.57,31c-3.88-.85,4.44,5.83,6,6.36S55.58,32.51,48.57,31Z"/></g><path class="cls-4" d="M14.31,19.52c-.62,1.17-2.8,5.29-3,8.62s2.25,5.87,3.2,8.42.62,4.53,1.11,5.94,2.36-.17,4.12,0,1.19,2.78,6.37,5.77,6.61-2.55,10.15-3.77,4.51.64,7.49,0,.91-4.28,1.49-6.26,2.14-.21,3.83-2-.51-4.29-.48-5.4,0-3.16,0-3.16Z"/><path class="cls-10" d="M48.58,26.67c.59,9.81-7.49,18.25-18.08,18.25-10.27,0-18.18-7.93-18.12-17.36h0c0-.16,0-.33,0-.5s0-.25,0-.38l0-.45v0a16.94,16.94,0,0,1,5.52-11h0a18.33,18.33,0,0,1,7-4h0a18.85,18.85,0,0,1,4.62-.79c.29,0,.58,0,.88,0s.59,0,.87,0a18.86,18.86,0,0,1,5.14.95,17.61,17.61,0,0,1,2.05.84,3.06,3.06,0,0,0,3.08,1.85,17.49,17.49,0,0,1,2.94,2.76,16.76,16.76,0,0,1,4,9.37v0C48.56,26.37,48.57,26.52,48.58,26.67Z"/><path class="cls-11" d="M41.81,41.14c-.24.18-.76-1.56-.62-1.93s3-2,4.58-4.6,1.54-2.75,1.88-2.59S46.57,38.19,41.81,41.14Z"/><path class="cls-11" d="M13.23,32c-.25.08,2,6.37,5.2,8.56s4,.74,4.15.34-3.54-2-5.76-4.38A38.11,38.11,0,0,1,13.23,32Z"/><path class="cls-12" d="M24.42,43.93c-1.13-.45-.75-2.72-.35-2.78a25.94,25.94,0,0,0,9.5.86c5.46-.6,1.27,2.41-.59,2.75A23.29,23.29,0,0,1,24.42,43.93Z"/><path class="cls-13" d="M48.52,25.77c0,.14,0,.28,0,.41v0c.27,9-7.7,16.68-18,16.68-9.66,0-17.27-6.68-18-14.94a11.9,11.9,0,0,1-.06-1.2v-.58c0-.13,0-.27,0-.41a14.62,14.62,0,0,1,1.22-5.07h0a17.1,17.1,0,0,1,8.6-8.53h0L22.6,12l.25-.11a19.35,19.35,0,0,1,6.77-1.51c.29,0,.58,0,.88,0s.59,0,.87,0a19.67,19.67,0,0,1,6.49,1.39l.15.06.56.24,0,0,0,.08a3.06,3.06,0,0,0,3.08,1.85l.23,0a16.49,16.49,0,0,1,2,1.71A15.37,15.37,0,0,1,48.52,25.77Z"/><path class="cls-14" d="M43.17,25.76c.27,6.43-5.4,11.85-12.67,11.85S17.55,32.19,17.82,25.76c.26-6.16,5.93-11,12.67-11S42.91,19.6,43.17,25.76Z"/><path class="cls-15" d="M42.55,26.5c.24,6.12-5.15,11.27-12,11.27S18.2,32.62,18.44,26.5c.24-5.88,5.63-10.48,12-10.48S42.31,20.62,42.55,26.5Z"/><path class="cls-12" d="M44.69,17.31C44.49,18.65,42,20,39,17s-12.71-5-17.68.47c-5.16,5.64-3.22,11.2-4.07,11.49s-4.06.5-4.76-1a1.25,1.25,0,0,1-.12-.4h0a1.37,1.37,0,0,1,0-.45v-.05c0-.09,0-.19,0-.29.48-2.92,1.89-7.93,5.53-11.58h0a15,15,0,0,1,4.3-3h0L22.6,12l.25-.11A16.85,16.85,0,0,1,25,11.21h0a18.11,18.11,0,0,1,2.61-.47,23,23,0,0,1,8.9.63c.47.14.93.29,1.35.44l.15.06.58.23h0l0,0,0,.08a3.06,3.06,0,0,0,3.08,1.85l.23,0L42,14a10.87,10.87,0,0,1,1.88,1.73,4.08,4.08,0,0,1,.7,1.07A.86.86,0,0,1,44.69,17.31Z"/><path class="cls-12" d="M27.73,42.22C24,40.45,33.19,39.53,37.82,35.7S43,28.2,45,28.14s2.42,4.76-2,9.63S29.09,42.86,27.73,42.22Z"/><path class="cls-16" d="M15.12,35a7.63,7.63,0,0,1-1.67-5.91,29.33,29.33,0,0,1,4.16.38,14.36,14.36,0,0,1,2.15,4.41C19.88,35,16.63,36.93,15.12,35Z"/><path class="cls-16" d="M41.93,20.16c-.28-.74,2.6-1.24,3.13-1.85s2.54,2.55,2.33,4.1-3.47,1.65-3.9,1.32A19.9,19.9,0,0,1,41.93,20.16Z"/><path class="cls-12" d="M24.23,11.59c-1.93,1.62,1.18,1.57,9,2.73s3.66-2.72,1.83-3.42S25.76,10.3,24.23,11.59Z"/><path class="cls-17" d="M29.56,10.43c-2.68.4-.33,2,2.41,2.18S31.51,10.15,29.56,10.43Z"/><path class="cls-17" d="M37,40.53c-1.26-.29,2.26-2.92,3.35-2.75S39.5,41.11,37,40.53Z"/><path class="cls-18" d="M14.39,34a18.76,18.76,0,0,0,16.11,8.3c11.15-.14,15.3-7,15.3-7A18.31,18.31,0,0,1,30.2,43,18.8,18.8,0,0,1,14.39,34Z"/><path class="cls-17" d="M31.63,42.86c-1.09-.25,3.91-1.32,4.42-1.18S34.23,43.47,31.63,42.86Z"/><path class="cls-19" d="M19.47,30.36c1.12-3.91,21.56-6.61,22.62-5.61s-1.27,12-11.21,12.09S19.16,31.43,19.47,30.36Z"/><path class="cls-20" d="M26.2,21a3.29,3.29,0,0,1,.2-1.32,3.48,3.48,0,0,1,1.51-1.26,6.59,6.59,0,0,1,3.05-.6,3.75,3.75,0,0,1,1.44.22c.25.46.38,2.1.4,5a63.76,63.76,0,0,1-.31,8.64l.46,0a3,3,0,0,1,1.34.3.92.92,0,0,1,.09.48,8.21,8.21,0,0,1-.19,1.67,2.58,2.58,0,0,1-.53,1.26,1.17,1.17,0,0,1-.68.3,16.63,16.63,0,0,1-1.77.06,16.4,16.4,0,0,1-2.76-.15,1.23,1.23,0,0,1-.93-.59,4,4,0,0,1-.16-1.46,5.87,5.87,0,0,1,.14-1.63l1.21-.24.5-.08a43.81,43.81,0,0,1-.31-5.2,36.85,36.85,0,0,1,.35-4.83,6.38,6.38,0,0,1-2.91.94C26.23,22.36,26.19,21.88,26.2,21Z"/><path class="cls-21" d="M34.28,31a3,3,0,0,0-1.33-.3,2.83,2.83,0,0,0-.47,0,62.67,62.67,0,0,0,.32-8.59V22c0-2.8-.16-4.41-.4-4.86A3.79,3.79,0,0,0,31,17a6.68,6.68,0,0,0-3,.59,3.62,3.62,0,0,0-1.51,1.26,3.26,3.26,0,0,0-.2,1.31c0,.86,0,1.34.14,1.44a6.29,6.29,0,0,0,2.9-.93,38.09,38.09,0,0,0-.32,3.87c0,.31,0,.62,0,.93a41.39,41.39,0,0,0,.3,5.17l-.5.07-1.2.25a5.71,5.71,0,0,0-.14,1.62A3.86,3.86,0,0,0,27.53,34a1.2,1.2,0,0,0,.93.59,16.25,16.25,0,0,0,2.75.15A16.4,16.4,0,0,0,33,34.66a1.3,1.3,0,0,0,.69-.29,2.68,2.68,0,0,0,.52-1.26,7.42,7.42,0,0,0,.18-1.66A1.06,1.06,0,0,0,34.28,31Z"/><path class="cls-12" d="M32.8,22c-1.2,1.45-2.75,2.69-3.87,2.46a38.09,38.09,0,0,1,.32-3.87,6.29,6.29,0,0,1-2.9.93c-.11-.1-.15-.58-.14-1.44a3.26,3.26,0,0,1,.2-1.31,3.62,3.62,0,0,1,1.51-1.26A6.68,6.68,0,0,1,31,17a3.79,3.79,0,0,1,1.44.22C32.64,17.63,32.77,19.24,32.8,22Z"/><path class="cls-16" d="M29,24.81a9.34,9.34,0,0,0,.43,2.45,9.46,9.46,0,0,0,3-.76c.31-.21.1-3.54,0-3.72s-1.76,1.29-2.22,1.49S29,24.81,29,24.81Z"/><path class="cls-17" d="M31.87,17.34c-.86-.46-.9.85-.16,1.74S33,18,31.87,17.34Z"/><path class="cls-22" d="M14,21.44c-.73,0-1.3,2.32-.86,2.75s1.27-1,1.42-1.48S14,21.44,14,21.44Z"/><path class="cls-23" d="M13,23.23s0,.28.5.22a1.76,1.76,0,0,0,1-.69S14,24.08,13.37,24.4,12.89,23.62,13,23.23Z"/><path class="cls-24" d="M13.14,22.48c-.19,1.1.81.17,1,0s.39,0,.39,0-.26-1-.58-1.08S13.14,22.48,13.14,22.48Z"/><path class="cls-17" d="M13.55,24.29c-.29.08.12-.26.36-.52S13.8,24.14,13.55,24.29Z"/><path class="cls-25" d="M38.56,12.2A4.61,4.61,0,0,0,41.87,14S39.16,14.89,38.56,12.2Z"/><path class="cls-18" d="M22.29,34.9A12.18,12.18,0,0,0,30.73,38a11.46,11.46,0,0,0,8.42-3.45S30.07,40.65,22.29,34.9Z"/><path class="cls-26" d="M38.53,12.12l0,.08c-3.57-1.2-11-2.31-16.19.16s-8.55,8.12-8.68,8.33a17.1,17.1,0,0,1,8.6-8.53h0L22.6,12l.25-.11a19.35,19.35,0,0,1,6.77-1.51c.29,0,.58,0,.88,0s.59,0,.87,0a19.67,19.67,0,0,1,6.49,1.39l.15.06.56.24Z"/><path class="cls-22" d="M47.75,31.44c-.13-1,.23-2.17.53-2.16s.34.81.21,1.29A2.05,2.05,0,0,1,47.75,31.44Z"/><path class="cls-24" d="M47.75,30.05c-.29.83.59,1.06.71.14S48.12,29,47.75,30.05Z"/><path class="cls-17" d="M20.43,33A3,3,0,0,0,22.48,35Z"/><path class="cls-24" d="M18,24.26s3.69-7.07,12-7.79,12.88,7.14,12.88,7.14a11.89,11.89,0,0,0-12.36-8.82A13.21,13.21,0,0,0,18,24.26Z"/><path class="cls-12" d="M3.86,34.94c-.9-.06,2.24,2.77,4.37,3.21S12,36,11.91,34.94,8.07,35.25,3.86,34.94Z"/><path class="cls-12" d="M35,50.48c-1.67-.17-.47-3.7,2.06-4.55s5.54,2.65,5.23,2.8-2.38-.81-3.87-.27S35.68,50.56,35,50.48Z"/><path class="cls-12" d="M50.12,26.93c-.62.47-.49,3.33,1.37,5.05s1.16-.9,2.36-3.95S50.12,26.93,50.12,26.93Z"/><path class="cls-27" d="M1.94,20.36c-.27.69.53,2.58,0,3.48C1.94,23.84,4,21.39,1.94,20.36Z"/><path class="cls-28" d="M1.92,25.37c-.21-.75,1.08-.68,1.34-.26a1.55,1.55,0,0,1,.26.8s.16-.23,0-.87-.25-1.12-.48-1.16S1.84,24.72,1.76,25A.39.39,0,0,0,1.92,25.37Z"/><path class="cls-29" d="M50,17c-.31-1.7.9-2.29,2.1-2.24s1,1.63,1,1.63.15-2-1-2.45S49.11,14.44,50,17Z"/><path class="cls-12" d="M32.82,3.28c-1.08.78-.8,1.51-.55,1.43a34,34,0,0,1,4.46-2C38.31,2.25,34.21,2.27,32.82,3.28Z"/><path class="cls-30" d="M43.39,7.94c-1.22-.42-.48,1.1,2.25,1.9S46.43,9,43.39,7.94Z"/><path class="cls-30" d="M8.77,14.55c-.92,1,3.1-.16,3.5-1.08a12.19,12.19,0,0,0,.26-3.42,17,17,0,0,1-2.11,3C9.51,13.92,8.77,14.55,8.77,14.55Z"/><path class="cls-30" d="M53.85,31.25c-.39-.82.2,1.89,1.07,3.4s1.32,1.87,1.65,2S55.1,33.9,53.85,31.25Z"/><path class="cls-31" d="M35.58,47.21c-1.75,1.11,2,.87,3.09.46S38.11,45.6,35.58,47.21Z"/><path class="cls-31" d="M17,46.77c-.88-.15.34-1.15.93-1.18s.64,1.2.53,1.44S17.59,46.7,17,46.77Z"/><path class="cls-31" d="M50.07,30.9c-.86-.54-.93-2.09-.11-3.19s1,.76.76,2.13S50.07,30.9,50.07,30.9Z"/><path class="cls-31" d="M10.77,17.7c-1.08-.28.48-1.73,1.6-1.68S11.93,17.53,10.77,17.7Z"/><path class="cls-31" d="M8,36.22c-.37.24,1.45,1.22,1.77,1.39s1.27-.39,1-.7S8.47,35.94,8,36.22Z"/><path class="cls-32" d="M34.24,7c-.49.13.58-1.67,2-1.83S38,6.49,37.53,6.76,36.13,6.52,34.24,7Z"/><path class="cls-32" d="M24.31,5.19c.05,2.38.88,0,2.86-.39s1.25-1.26,0-1.51S24.31,5.19,24.31,5.19Z"/></g></g></g></svg>