<svg xmlns="http://www.w3.org/2000/svg" xmlns:xlink="http://www.w3.org/1999/xlink" viewBox="0 0 65.29 54.13"><defs><style>.cls-1{isolation:isolate;}.cls-2{fill:url(#Безымянный_градиент_572);}.cls-3{fill:url(#Безымянный_градиент_23);}.cls-4{fill:url(#Безымянный_градиент_559);}.cls-5{fill:url(#Безымянный_градиент_556);}.cls-6{fill:url(#Безымянный_градиент_32);}.cls-7{fill:url(#Безымянный_градиент_559-2);}.cls-8{fill:url(#Безымянный_градиент_563);}.cls-9{fill:url(#Безымянный_градиент_572-2);}.cls-10{fill:url(#Безымянный_градиент_32-2);}.cls-11{fill:url(#Безымянный_градиент_559-3);}.cls-12{fill:url(#Безымянный_градиент_563-2);}.cls-13,.cls-15,.cls-16{fill:#fff;}.cls-13,.cls-15{mix-blend-mode:soft-light;}.cls-14,.cls-17,.cls-19,.cls-20{fill:#d42f55;}.cls-14,.cls-17,.cls-18,.cls-19,.cls-20{mix-blend-mode:multiply;}.cls-14,.cls-18{opacity:0.2;}.cls-15,.cls-17{opacity:0.5;}.cls-18{fill:#da0553;}.cls-19{opacity:0.3;}.cls-20{opacity:0.8;}.cls-21{fill:#ffe016;}.cls-22{fill:#d13c00;}.cls-23{fill:#d12d00;}.cls-24{fill:#ff9500;}.cls-25{fill:#ffba00;}</style><linearGradient id="Безымянный_градиент_572" x1="60.75" y1="30.67" x2="60.75" y2="12.62" gradientUnits="userSpaceOnUse"><stop offset="0.66" stop-color="#fa9300"/><stop offset="0.85" stop-color="#f66a00"/><stop offset="1" stop-color="#f63f00"/></linearGradient><radialGradient id="Безымянный_градиент_23" cx="26.03" cy="8.77" r="27.75" gradientTransform="translate(0 0.11) scale(1 1.22)" gradientUnits="userSpaceOnUse"><stop offset="0" stop-color="#fac500"/><stop offset="0.85" stop-color="#ff9000"/><stop offset="1" stop-color="#f63f00"/></radialGradient><linearGradient id="Безымянный_градиент_559" x1="35.57" y1="13.13" x2="29.5" y2="-3.54" gradientUnits="userSpaceOnUse"><stop offset="0" stop-color="#ffea34"/><stop offset="0.7" stop-color="#ffa400"/><stop offset="1" stop-color="#ffba00"/></linearGradient><radialGradient id="Безымянный_градиент_556" cx="38.84" cy="5.14" r="10.45" gradientTransform="translate(0 0.11) scale(1 1.22)" gradientUnits="userSpaceOnUse"><stop offset="0" stop-color="#fa9300"/><stop offset="0.45" stop-color="#f66a00"/><stop offset="1" stop-color="#f63f00"/></radialGradient><radialGradient id="Безымянный_градиент_32" cx="51.09" cy="11.82" r="14.53" gradientTransform="translate(0 0.11) scale(1 1.22)" gradientUnits="userSpaceOnUse"><stop offset="0" stop-color="#faa800"/><stop offset="0.85" stop-color="#ff7f00"/><stop offset="1" stop-color="#f63f00"/></radialGradient><linearGradient id="Безымянный_градиент_559-2" x1="56.38" y1="12.46" x2="55.47" y2="9.97" xlink:href="#Безымянный_градиент_559"/><linearGradient id="Безымянный_градиент_563" x1="56.83" y1="31.08" x2="54.72" y2="25.28" gradientUnits="userSpaceOnUse"><stop offset="0" stop-color="#ffa400"/><stop offset="1" stop-color="#ffea34"/></linearGradient><linearGradient id="Безымянный_градиент_572-2" x1="46.91" y1="30.67" x2="46.91" y2="12.62" gradientTransform="matrix(-1, 0, 0, 1, 51.46, 0)" xlink:href="#Безымянный_градиент_572"/><radialGradient id="Безымянный_градиент_32-2" cx="6.93" cy="11.82" r="14.53" xlink:href="#Безымянный_градиент_32"/><linearGradient id="Безымянный_градиент_559-3" x1="10.33" y1="14.66" x2="8.28" y2="9.02" xlink:href="#Безымянный_градиент_559"/><linearGradient id="Безымянный_градиент_563-2" x1="43" y1="31.08" x2="40.88" y2="25.28" gradientTransform="matrix(-1, 0, 0, 1, 51.46, 0)" xlink:href="#Безымянный_градиент_563"/></defs><g class="cls-1"><g id="Слой_2" data-name="Слой 2"><g id="layer1"><path class="cls-2" d="M57.58,14.55c3.72.8,2.41,14.27,1.48,15.2s4.85.92,4.85.92S63.12,14,62,12.88,57.58,14.55,57.58,14.55Z"/><path class="cls-3" d="M51.47,6.73s0,.08,0,.23c0,.68-.19,2.88-.51,6.23l0,.2c-.17,1.74-.38,3.77-.65,6.05q-.29,2.49-.66,5.34a17.07,17.07,0,0,1-.6,2.73,16.68,16.68,0,0,1-3.55,6.17A18.15,18.15,0,0,1,44.17,35v0a67.38,67.38,0,0,1-7,5.29l-.06,0c-.2.14-.38.29-.55.43l-.14.12h0l-.39.37h0a3.35,3.35,0,0,0-.61.75c-1.77,3-1,4.06,1.66,5.76l1,.64.09.06c2.06,1.29,3.43,2.3,3.43,5,0,0-5.43.64-9.09.64s-9.09-.64-9.09-.64A4.76,4.76,0,0,1,26,49.1h0l.15-.1c.57-.37,1.2-.75,1.89-1.19,2.66-1.7,3.43-2.74,1.66-5.76a1.25,1.25,0,0,0-.08-.12c-1.13-1.71-5.09-3.54-8.55-6.79a17.57,17.57,0,0,1-5-7.75,16.81,16.81,0,0,1-.55-2.6c-.24-1.78-.45-3.56-.64-5.29-.23-2.23-.43-4.37-.59-6.33,0-.55-.08-1.09-.12-1.6h0c-.31-4.21-.46-7.33-.5-8.18a2.17,2.17,0,0,0,0-.24l.6.16L32.54,8.14Z"/><path class="cls-4" d="M51.45,7a1.79,1.79,0,0,1-.89.68c-8.62,3.88-32.09-.47-36.4-3.73a2.27,2.27,0,0,1-.54-.53c-.31-.46-.16-.87.55-1.23A19.85,19.85,0,0,1,20.32.38h0C33.28-1.48,53.18,4,51.45,7Z"/><path class="cls-5" d="M18.88,3.59C20,5.67,43.05,10.65,47.55,6.14,50.29,3.39,15.83-1.88,18.88,3.59Z"/><path class="cls-6" d="M65.11,30.27c-.86,6.62-15.15,1.3-15.35,1.54a28.2,28.2,0,0,1-1.86,4.56s-2.67-.06-3.74-1.34v0c.07-.09.52-.69,1.13-1.56A47.23,47.23,0,0,0,49,27.51l.09-.19s9.53,3.82,12.47,1.88,0-14.38-.85-15.07-6.82,1.74-6.82,1.74a8,8,0,0,1-.19,3.49,7.22,7.22,0,0,1-3.44.08h0l.66-6.05,0-.2s8.69-3,10.68-2.5c.6.15,1.23,1.37,1.79,3.18C64.74,18.12,65.71,25.63,65.11,30.27Z"/><path class="cls-7" d="M51.09,11.57s8.51-1.32,10.33-.94c0,0-3,0-10.48,2.56Z"/><path class="cls-8" d="M49.1,27.32S57.49,31,62.23,28.44C62.23,28.44,62,32.17,49.1,27.32Z"/><path class="cls-9" d="M7.71,14.55C4,15.35,5.3,28.82,6.23,29.75s-4.85.92-4.85.92S2.18,14,3.31,12.88,7.71,14.55,7.71,14.55Z"/><path class="cls-10" d="M21.13,35l-.1.1c-1.13,1.18-3.64,1.24-3.64,1.24a11.32,11.32,0,0,1-1.07-2.31h0c-.41-1.12-.67-2.11-.78-2.25S1,36.89.18,30.27a33.09,33.09,0,0,1,0-6.63c.47-6.09,2.09-12.58,3.52-12.95a1.3,1.3,0,0,1,.36,0h0a8.38,8.38,0,0,1,2.1.22c1.27.24,2.79.65,4.18,1.05l.32.1.28.08.76.23.19.06.35.11.33.11.16.05.3.1,1.23.41.11,0L15,19.44l-.19,0a7.44,7.44,0,0,1-3.26-.13,8,8,0,0,1-.19-3.49s-5.93-2.42-6.82-1.74S.78,27.26,3.72,29.2C6.44,31,14.78,27.86,16,27.38l.16-.06A58.36,58.36,0,0,0,21.13,35Z"/><path class="cls-11" d="M14.36,13.19l-.11,0L13,12.75l-.3-.1-.16-.05-.33-.11-.35-.11-.19-.06-.76-.23L10.65,12l-.32-.1c-1.92-.54-3.36-.85-4.4-1a14.92,14.92,0,0,0-1.88-.23H3.87A30.09,30.09,0,0,1,10.1,11h.12c1.85.23,3.47.47,3.88.53h.1Z"/><path class="cls-12" d="M16.19,27.32S7.81,31,3.06,28.44C3.06,28.44,3.31,32.17,16.19,27.32Z"/><path class="cls-13" d="M30.9,8.48c-.89-.63,8.41.34,13.26-.67s3.56-2.18,4.72-2.54,2,1.08,2.06,1.6S45.94,10.52,30.9,8.48Z"/><path class="cls-13" d="M19.68,32.36C19,32.9,27.26,40,30.38,41.7s11.92-4.76,15-8.91S49.35,24,49.1,23,47.05,32.5,38.48,37.58,20.51,30.53,19.68,32.36Z"/><path class="cls-14" d="M16.19,21.1c-.51,1.34,4.91,16.65,16.32,17.33s17.74-22,17.87-27.33c.08-3.16-4.87-2.58-8.41-.39-3.26,2-6.92,8.42-11.13,12.27C20.58,32.37,16.75,19.65,16.19,21.1Z"/><path class="cls-15" d="M19.64,7.19c-4.67.38-.89,14.27,4,17.3s12.75-9.6,15.09-12.13S22.38,7,19.64,7.19Z"/><path class="cls-16" d="M24.93,16.92c-.82-.45.3-4.45,1.59-4.7S28.52,18.89,24.93,16.92Z"/><path class="cls-17" d="M26,49.09l.15-.1L26,49.1Z"/><path class="cls-17" d="M33.05,50.18c-6-.37-5.56-2-6.94-1.19.57-.37,1.2-.75,1.89-1.19,2.66-1.7,3.43-2.74,1.66-5.76a1.25,1.25,0,0,0-.08-.12c.54.22,1.05.42,1.43.55,1.35.43,5-1.18,5-1.18h0a3.35,3.35,0,0,0-.61.75c-1.77,3-1,4.06,1.66,5.76l1,.64.09.06C39.32,49.21,39,50.55,33.05,50.18Z"/><path class="cls-18" d="M33.84,54.1c-1.2-.44-.44-3.08.76-3.48a11.17,11.17,0,0,1,4.38,0c.5.17.67,2.47.43,2.79S33.84,54.1,33.84,54.1Z"/><path class="cls-13" d="M24.47,53.33c-.79-.19.26-2.75.76-3.09s6.74.52,7.57.72.27,2.84.17,3A59.81,59.81,0,0,1,24.47,53.33Z"/><path class="cls-16" d="M26.49,50.53c-.9-.06-.86,2.32-.73,2.76s2.19.45,2.39.46a8.45,8.45,0,0,0,.43-3.13C28.43,50.35,26.49,50.53,26.49,50.53Z"/><path class="cls-13" d="M39.52,50.16c-.54,0-.2,2.65,0,3s1.4-.12,1.75,0S41.21,50.39,39.52,50.16Z"/><path class="cls-19" d="M18.69,3.37c.12.55,7.2,2.9,9.55,3.33s3.22-3,4.53-3.56C36.54,1.59,37.25,10.51,41,4c.55-1-7.54-2.65-14.38-2.82S18.52,2.64,18.69,3.37Z"/><path class="cls-20" d="M29.92,42.5s1.12,2.23,2,3.77,2.73-3.73,3.25-4.29-1.76.41-3,.33a12.58,12.58,0,0,1-2.83-.67Z"/><path class="cls-15" d="M41.9,3.77c-.63-.16-2.23,3.28-2.09,3.88s3,.5,4-1.49S41.9,3.77,41.9,3.77Z"/><path class="cls-16" d="M41.9,3.77c-.48.64,0,1.53.57,2.1s1.87-1.37,1.82-1.76S42.36,3.17,41.9,3.77Z"/><path class="cls-21" d="M15.13,4.51s14.54,4.8,26.14,4.64C41.27,9.15,30,10.75,15.13,4.51Z"/><path class="cls-16" d="M25.43,7.77c-.91-.73,3.07.11,4.12.28a3.36,3.36,0,0,1,1.53.6A19.34,19.34,0,0,1,25.43,7.77Z"/><path class="cls-20" d="M57.58,14.55c1.56.2,2.24,2.71,2.36,3.8s2.25-.29,1.66-2-.72-2.23-1.06-2.27S57.58,14.55,57.58,14.55Z"/><path class="cls-20" d="M7.71,14.55S5,14.07,4.54,14.38s-1.21,3.91-1.06,5.31S5.3,17.42,6,16.07A2.69,2.69,0,0,1,7.71,14.55Z"/><path class="cls-17" d="M51.19,31.83c-1.45-1-1.33-3.09-.8-3.46S57,30.55,60.25,30.1s2.45-5.79,3.09-7.67,2.79,6.73.75,9.4S51.19,31.83,51.19,31.83Z"/><path class="cls-17" d="M.8,31.89c-1.24-1.65-.36-4.83.37-5.3s1.09,3.54,4,3.6,10-2.05,10.71-2,.14,2.11-4,3.7S2.18,33.72.8,31.89Z"/><path class="cls-20" d="M17.39,36.37A12.36,12.36,0,0,1,21.13,35,5.3,5.3,0,0,1,17.39,36.37Z"/><path class="cls-20" d="M47.9,36.37A3.56,3.56,0,0,0,44.16,35,6.45,6.45,0,0,0,47.9,36.37Z"/><path class="cls-15" d="M16.89,29.58c-.93-.37-.8,1.3-.73,2.06a15.24,15.24,0,0,0,1.35,3.85c.28.27.88,0,1.87-.17s.73-.49.7-1.13A15,15,0,0,0,16.89,29.58Z"/><path class="cls-15" d="M6.6,10.71c-.59.18,2.91.94,4.46,1.17s2,.28,2.16,0S9.52,10.73,6.6,10.71Z"/><path class="cls-16" d="M7.17,11.19c-.85-.33,2.63-.22,3,.2S9.21,11.83,7.17,11.19Z"/><path class="cls-16" d="M57,10.8c-2.28.25,1.16.37,2.27.09S57.93,10.69,57,10.8Z"/><path class="cls-20" d="M50.94,13.19c1-.33,6.44-1.69,7.27-1.31s-3.09,3.08-4,3.53S54,18.15,53.13,19s-2.87.44-2.87.44Z"/><path class="cls-19" d="M9.63,12.07c-1.13.71,4.26,6.63,4.73,6.83s.07-5,0-5.34S10,11.82,9.63,12.07Z"/><path class="cls-17" d="M44.58,34.61a23.81,23.81,0,0,1,2.87.88c.4.31,2.06-4.36,2.26-6s-.35-2.28-.74-1.94S45.9,33,44.58,34.61Z"/><path class="cls-22" d="M40.67,9.16c.34-1,3.42-.42,3.62-.13s-1.14,1.82-2,2S40.67,9.16,40.67,9.16Z"/><path class="cls-23" d="M43.72,14.51a2.46,2.46,0,0,1,.71-2.25c.57-.32.67,1.67.42,2.25S43.87,14.84,43.72,14.51Z"/><path class="cls-17" d="M44.32,12.4c-.36.18-.33,1-.11,1.36s.67-.35.61-.88S44.77,12.17,44.32,12.4Z"/><path class="cls-24" d="M43.71,13.6a1.18,1.18,0,0,0,.25,1c.37.33.84-.25.93-.64a2.85,2.85,0,0,0,.07-.73s.11,1.18-.14,1.51a.78.78,0,0,1-1.16-.18A2.4,2.4,0,0,1,43.71,13.6Z"/><path class="cls-16" d="M44.39,14.89c-.14-.09.19-.36.36-.64s.15.3,0,.48S44.39,14.89,44.39,14.89Z"/><path class="cls-23" d="M19.58,30a2.92,2.92,0,0,1-.79-2.72c.32-.84,1.68.9,1.82,1.66S19.92,30.19,19.58,30Z"/><path class="cls-17" d="M18.78,27.53c-.22.51.32,1.2.76,1.35s.39-1,0-1.37S19,26.9,18.78,27.53Z"/><path class="cls-24" d="M19,29.2s.29.67.84.64.61-1,.44-1.45a2.88,2.88,0,0,0-.4-.74s.85,1,.83,1.51-.86,1.18-1.18.93A2.35,2.35,0,0,1,19,29.2Z"/><path class="cls-16" d="M20.43,29.74c-.19.05-.06-.51-.08-.91s.33.12.35.38A.83.83,0,0,1,20.43,29.74Z"/><path class="cls-17" d="M41.07,8.79c-.48.18.53,1.1,1.15,1.22s1.4-.95,1.31-1.11A3.22,3.22,0,0,0,41.07,8.79Z"/><path class="cls-25" d="M40.67,9.16s.83,1.68,1.66,1.6,1.83-1.29,1.83-1.29-.87,1.63-1.92,1.71S40.67,9.16,40.67,9.16Z"/><path class="cls-16" d="M42.55,11.12c-.52.05.41-.61.68-.77S43.39,10.78,42.55,11.12Z"/><path class="cls-13" d="M40.94,37.21c-2,.77,2.71-2.91,4.78-7s1,.46,1,.46A21.38,21.38,0,0,1,40.94,37.21Z"/><path class="cls-13" d="M2.64,23a5.13,5.13,0,0,0,.82,3.58c.5.6,1.69,0,1.77,0s-.05-5.22,0-6.58S2.93,19.47,2.64,23Z"/><path class="cls-13" d="M60.25,19.16c-.34.13,0,4.61,0,5.39s2.19.19,2.4,0-.35-6-.73-6.27S60.25,19.16,60.25,19.16Z"/><path class="cls-20" d="M10.1,11a25.39,25.39,0,0,0-3.95-.15H5.93a4.84,4.84,0,0,0-2,.48C1.81,12.61.18,23.68.18,23.68l0,0c.47-6.09,2.09-12.58,3.52-12.95a1.3,1.3,0,0,1,.36,0H3.87A30.09,30.09,0,0,1,10.1,11Z"/><path class="cls-20" d="M20.32.38c-.22,0-5.51,1.49-6,2.27a2,2,0,0,0-.15.65c0,.18,0,.38-.05.61-.15,2.5,0,7.66,0,7.66h-.08c-.31-4.21-.46-7.33-.5-8.18-.31-.46-.16-.87.55-1.23A19.85,19.85,0,0,1,20.32.38Z"/><path class="cls-20" d="M65.11,30.27c-.86,6.62-15.15,1.3-15.35,1.54a28.2,28.2,0,0,1-1.86,4.56s-2.67-.06-3.74-1.34a67.38,67.38,0,0,1-7,5.29c1.66-1.34,5.52-4.47,6.18-5.2.86-.92,1.8-1.95,1.8-1.95l.14.28.16.23A5.15,5.15,0,0,0,47,35.29c1.14.68,2.59-3.79,2.59-3.79s11.19,2.73,13.5,1,1.73-11.26,1.24-13.79-.93-4.87-.93-4.87h0C64.74,18.12,65.71,25.63,65.11,30.27Z"/><path class="cls-13" d="M17.77,30.15c1.32,2.17,1.72,2,1.87,1.74s-3.11-5.12-4.23-12.2S14.46,6.13,14.1,6s.51,15.18,1.3,18.27A28.19,28.19,0,0,0,17.77,30.15Z"/><path class="cls-16" d="M16.48,25.67c-.18.66-1.13-2.19-1.15-3.56S16.81,24.39,16.48,25.67Z"/><path class="cls-17" d="M2.09,25.58C2,27.05.12,24.34.37,21.41s1.54-7.49,2.24-8,1.14,1.69.85,3.81S2.26,23.8,2.09,25.58Z"/><path class="cls-15" d="M61.15,32.91c-1.24-1.21,2.34-4.37,2.94-4.9s-.56,3.88-1,4.52S61.15,32.91,61.15,32.91Z"/><path class="cls-20" d="M23.45,53.48s11.39.84,18.18,0A65.11,65.11,0,0,1,23.45,53.48Z"/><path class="cls-13" d="M29.37,49.65c-1.42-.8,3-2.42,5.36-2.29s4.11,2.07,3.71,2.29S32.24,50.49,29.37,49.65Z"/><path class="cls-20" d="M21,35.13c-1.13,1.18-3.64,1.24-3.64,1.24a11.32,11.32,0,0,1-1.07-2.31,6.61,6.61,0,0,0,1.38,1A17.94,17.94,0,0,0,21,35.13Z"/><path class="cls-20" d="M15.53,31.81c-.5-.49.58-1.78.4-2.07s-1.5,1.4-3.26,2.18a40.57,40.57,0,0,1-3.9,1.42A66.17,66.17,0,0,0,15.53,31.81Z"/><path class="cls-19" d="M49.1,8.66c-3.72.57-2.6,6.7-3.51,13.51s2.52-.53,3.55-4.78S50.6,9.25,50,8.94A1.72,1.72,0,0,0,49.1,8.66Z"/><path class="cls-19" d="M27.16,36.37c-.73-.61,4.9.68,8.11,1S32.35,40,27.16,36.37Z"/><path class="cls-16" d="M44.93,32.47c-.34-.85,1-2.86,1.68-2.95S46.44,32.58,44.93,32.47Z"/></g></g></g></svg>