<svg xmlns="http://www.w3.org/2000/svg" xmlns:xlink="http://www.w3.org/1999/xlink" viewBox="0 0 60.34 34.92"><defs><style>.cls-1{isolation:isolate;}.cls-2{fill:#404c29;}.cls-3{fill:url(#Безымянный_градиент_805);}.cls-4{fill:url(#Безымянный_градиент_814);}.cls-5{fill:url(#Безымянный_градиент_814-2);}.cls-6{fill:url(#Безымянный_градиент_829);}.cls-7{fill:url(#Безымянный_градиент_829-2);}.cls-8{fill:url(#Безымянный_градиент_844);}.cls-9{fill:#d8ec38;}.cls-10{fill:url(#Безымянный_градиент_805-2);}.cls-11{fill:url(#Безымянный_градиент_805-3);}.cls-12,.cls-16{fill:#91a674;}.cls-12,.cls-13,.cls-14,.cls-15,.cls-16,.cls-17,.cls-19,.cls-25,.cls-26,.cls-27,.cls-28{mix-blend-mode:multiply;}.cls-12,.cls-13,.cls-26{opacity:0.3;}.cls-13,.cls-14{fill:#9193ba;}.cls-14,.cls-15,.cls-16,.cls-17,.cls-19,.cls-25{opacity:0.5;}.cls-15{fill:#912774;}.cls-17{fill:#655174;}.cls-18{fill:url(#Безымянный_градиент_814-3);}.cls-19{fill:#543404;}.cls-20{fill:#6b3381;}.cls-21{fill:url(#Безымянный_градиент_615);}.cls-22{fill:url(#Безымянный_градиент_638);}.cls-23{fill:url(#Безымянный_градиент_638-2);}.cls-24{fill:#907a98;}.cls-25,.cls-26,.cls-28{fill:#925189;}.cls-27{fill:#d46baa;opacity:0.2;}.cls-28{opacity:0.8;}.cls-29{fill:#c2e238;}.cls-30{fill:#a7b138;}.cls-31{fill:#c2d138;}.cls-32{fill:#91a622;}.cls-33{fill:url(#Безымянный_градиент_829-3);}.cls-34{fill:url(#Безымянный_градиент_829-4);}.cls-35{fill:#526800;}.cls-36{fill:#526100;}</style><linearGradient id="Безымянный_градиент_805" y1="8.66" x2="59.06" y2="8.66" gradientUnits="userSpaceOnUse"><stop offset="0" stop-color="#84a61d"/><stop offset="1" stop-color="#b5ce45"/></linearGradient><linearGradient id="Безымянный_градиент_814" x1="21.86" y1="14.17" x2="59.06" y2="14.17" gradientUnits="userSpaceOnUse"><stop offset="0" stop-color="#848d04"/><stop offset="1" stop-color="#829a45"/></linearGradient><linearGradient id="Безымянный_градиент_814-2" x1="22.59" y1="23.45" x2="58.07" y2="23.45" xlink:href="#Безымянный_градиент_814"/><linearGradient id="Безымянный_градиент_829" y1="14.72" x2="22.49" y2="14.72" gradientUnits="userSpaceOnUse"><stop offset="0" stop-color="#427038"/><stop offset="0.99" stop-color="#635c06"/></linearGradient><linearGradient id="Безымянный_градиент_829-2" x1="1.5" y1="25.75" x2="23.1" y2="25.75" xlink:href="#Безымянный_градиент_829"/><linearGradient id="Безымянный_градиент_844" x1="24.03" y1="8.52" x2="37.14" y2="8.52" gradientUnits="userSpaceOnUse"><stop offset="0" stop-color="#d8ec38"/><stop offset="0.99" stop-color="#fff47c"/></linearGradient><linearGradient id="Безымянный_градиент_805-2" x1="24.03" y1="8.52" x2="37.14" y2="8.52" xlink:href="#Безымянный_градиент_805"/><linearGradient id="Безымянный_градиент_805-3" x1="22.73" y1="21.71" x2="60.34" y2="21.71" xlink:href="#Безымянный_градиент_805"/><linearGradient id="Безымянный_градиент_814-3" x1="30.27" y1="21.4" x2="60.34" y2="21.4" xlink:href="#Безымянный_градиент_814"/><linearGradient id="Безымянный_градиент_615" x1="29.47" y1="34.84" x2="29.47" y2="2.85" gradientUnits="userSpaceOnUse"><stop offset="0" stop-color="#f8e1f2"/><stop offset="1" stop-color="#fff"/></linearGradient><linearGradient id="Безымянный_градиент_638" x1="27.73" y1="34.56" x2="27.73" y2="3.85" gradientUnits="userSpaceOnUse"><stop offset="0" stop-color="#de0086"/><stop offset="1" stop-color="#ff003b"/></linearGradient><linearGradient id="Безымянный_градиент_638-2" x1="32.14" y1="33.84" x2="32.14" y2="2.85" xlink:href="#Безымянный_градиент_638"/><linearGradient id="Безымянный_градиент_829-3" x1="0.38" y1="20.65" x2="22.59" y2="20.65" xlink:href="#Безымянный_градиент_829"/><linearGradient id="Безымянный_градиент_829-4" x1="48.4" y1="5.26" x2="50.83" y2="5.26" xlink:href="#Безымянный_градиент_829"/></defs><g class="cls-1"><g id="Слой_2" data-name="Слой 2"><g id="layer1"><path class="cls-2" d="M58.07,12.61H56.54L2.66,16.26l-1.16.95L22.59,24S44.73,23.46,58.07,12.61Z"/><path class="cls-3" d="M59.06,6.14c-9.36,9.47-32.48,11.69-37.2,11.07-7.1-.94-13.92-4.65-18-7.28l0,0C2.34,9,1.24,8.2.61,7.74L.2,7.43,0,7.28a5.77,5.77,0,0,0,.6.09h0l.06,0C10.42,8.7,32.2,0,32.2,0c4,1.94,10.6,3.46,16.26,4.51a.84.84,0,0,0,0,.1.78.78,0,0,0,0,.41,1.14,1.14,0,0,0,.52.71,1.71,1.71,0,0,0,1.2.11,8.61,8.61,0,0,0,1.53-.47l.51-.22C56.17,5.8,59.06,6.14,59.06,6.14Z"/><path class="cls-4" d="M59.06,6.14l-.87,5.07s-15,11.84-35.7,11l-.63-4.95S49.25,15.81,59.06,6.14Z"/><path class="cls-5" d="M22.59,24s25.63-5,35.48-11.37l-1.52,15S39.14,33,23.1,34.28Z"/><path class="cls-6" d="M22.49,22.16c-9.86-.95-21.36-6.61-21.36-6.61L.76,12.89,0,7.28l.2.15.41.33A34.5,34.5,0,0,0,3.78,9.91l0,0c7.92,4.77,18.05,7.28,18.05,7.28Z"/><path class="cls-7" d="M22.59,24S8.34,18.66,1.5,17.21L3.73,30.73s14.2,3.49,19.37,3.55Z"/><path class="cls-2" d="M20.69,26.19l2,.7s20.07-4.1,34.86-9.58c0,0-17.52,7.24-34.91,8.57Z"/><path class="cls-8" d="M35.23,10.27c-6,2.29-13.86-1.21-10.32-3C31.21,4,41.4,7.92,35.23,10.27Z"/><path class="cls-9" d="M50.84,9c-4.93-.88-2.12-2.49-.71-3.13a1.71,1.71,0,0,1-1.2-.11A1.14,1.14,0,0,1,48.41,5l-13.18-3A24.14,24.14,0,0,1,30.07,3a12.66,12.66,0,0,1-2.78-.09C24.3,4.06,9,7.88,9,7.88c4.84,1.89-1.48,3-1.48,3L17.21,15c8.36-1.6,9.59.7,9.59.7C38,16.2,51.52,9.07,51.52,9.07ZM37,10.93c-8.34,3.15-19.28-1.68-14.38-4.21A17.33,17.33,0,0,1,30.72,5c6.3.08,11.52,3,7.7,5.29A9.64,9.64,0,0,1,37,10.93Z"/><path class="cls-10" d="M35.23,10.27c-6,2.29-13.86-1.21-10.32-3C31.21,4,41.4,7.92,35.23,10.27Z"/><path class="cls-9" d="M35.23,10.27c-6,2.29-13.86-1.21-10.32-3C31.21,4,41.4,7.92,35.23,10.27Z"/><path class="cls-11" d="M22.73,26.89s26.87-4.53,37.61-9.58l-2.67-.79-.08.79S48.51,21.86,22.73,26.89Z"/><path class="cls-12" d="M23.59,32.39c-.92-.15,2.24-6,12.66-9,10.82-3.16,20-4.85,20-4.85S56.69,23,51.49,27C46.53,30.73,29.51,33.31,23.59,32.39Z"/><path class="cls-13" d="M4.07,28.23C5,30,20.84,34.17,22,34.23s.44-5.85.47-6.9-17.89-4-18.51-4.28S21.36,25.88,22,25.59s-7.53-4-12.69-5.6-7.52-2.1-7.52-2.1S3,26,4.07,28.23Z"/><path class="cls-14" d="M1.8,11c.34-2.29,18.05,5.84,19.38,6.53,1,.53,1.39,4.4-.08,4.31S4.14,20.11,1.8,11Z"/><path class="cls-12" d="M26.14,25.54c-.41-.95,25.09-8.75,28.93-10.76s1.51,2.53,1.51,2.53A128.94,128.94,0,0,1,26.14,25.54Z"/><path class="cls-12" d="M23.48,17.1s7.91,4.08,15.28,2.4c7.52-1.71,15-4.09,16.71-6.41a25.54,25.54,0,0,0,3-6.38A63.93,63.93,0,0,1,23.48,17.1Z"/><path class="cls-15" d="M15.85,21s6,2.45,7,2.67,9-1.71,9-1.71A36.38,36.38,0,0,1,15.85,21Z"/><path class="cls-15" d="M2.66,16.26c-1.16.95,5.76,2.85,5.76,2.85l2.06.24Z"/><path class="cls-14" d="M0,7.28l.6.1v.38l.15,5.13Z"/><path class="cls-14" d="M32.2,0s-.69,1.27-12.83,5.2C8.39,8.76,1.44,7.54.67,7.39,10.42,8.7,32.2,0,32.2,0Z"/><path class="cls-16" d="M56.58,7.28A23.58,23.58,0,0,1,50.84,9a54.8,54.8,0,0,1-12.42,1.31,7.64,7.64,0,0,1-4.25-1.11A13.9,13.9,0,0,1,30.72,5a5.87,5.87,0,0,1-.65-2,1.54,1.54,0,0,1,1.09-1.84S41,2.93,48.42,4.61a.78.78,0,0,0,0,.41,1.14,1.14,0,0,0,.52.71,1.71,1.71,0,0,0,1.2.11,8.61,8.61,0,0,0,1.53-.47C54.92,6.19,57.09,6.91,56.58,7.28Z"/><path class="cls-15" d="M56.55,27.56S51.79,28.45,43,30.5C34.8,32.44,23.1,34.28,23.1,34.28S43.13,32,56.55,27.56Z"/><path class="cls-15" d="M3.73,30.73,23.1,34.28A168.91,168.91,0,0,1,3.73,30.73Z"/><path class="cls-17" d="M23.26,26.89s24.54-4.21,29.42-4.57,4.7-3,4.7-3l.16-.86S47.5,22.31,23.26,26.89Z"/><path class="cls-18" d="M60.34,17.31v.58A174.06,174.06,0,0,1,30.27,25.5S49.62,21.49,60.34,17.31Z"/><path class="cls-19" d="M14.85,5.65s8.68,7.77,18.21,10.11c0,0,.47,6.93.15,17.19,0,0,.66-14.59.12-17.9S20.91,5.73,14.85,5.65Z"/><path class="cls-20" d="M30,33.46l4.35-.67s-.73,1.68-2,1.79A3.06,3.06,0,0,1,30,33.46Z"/><path class="cls-21" d="M42.48,32.16h0a2.48,2.48,0,0,1-.09.4c-.07.22-.3.41-.66.6a10,10,0,0,1-2,.66h0c-.84.2-1.78.36-2.7.49-.64.1-1.26.18-1.84.24h0c-1.34.15-2.41.24-2.66.26h-.06s.62-.3,1-3.2.72-15.32.09-16.92C31.3,9.31,15.12,5,15.12,5s.82-.39,2.12-.84A23,23,0,0,1,22.91,2.9h0l.35,0h0a15,15,0,0,1,2.12,0,38.21,38.21,0,0,1,8.14,2.32c4.55,1.63,9.39,3.73,10,5.43C44.44,13.39,43.05,29.08,42.48,32.16Z"/><path class="cls-22" d="M36.94,34.32c-.64.1-1.26.18-1.84.24,1.48-.32,1.51-20.28,1.06-22S21.9,4.21,17.24,4.14l1.7-.29s16.39,5.83,18.43,8.32S37.21,34,36.94,34.32Z"/><path class="cls-23" d="M41.72,33.17a10,10,0,0,1-2,.66h-.13c1.5-.24,1.52-20.28,1.07-22S26.18,3.2,21.52,3.13l1.39-.23h0l.29,0,.06,0h0c1.11.41,16.58,6.17,18.55,8.58S42.12,31.15,41.72,33.17Z"/><path class="cls-24" d="M14.85,5.65s13.64,1.92,18.48,9.4c0,0,.46,14.81-.12,17.9s-3.19.51-3.19.51l-1,.19s3.47,2.42,4.17.58.55-16.82.52-19.28-11-9.17-18.61-10Z"/><path class="cls-25" d="M33.73,15c-.17-2.73,9-4.22,9.77-3.36s-.06,19.41-1.37,21c-1.08,1.3-7.78,2-8.4,1.66C32.84,33.74,34.25,23.33,33.73,15Z"/><path class="cls-26" d="M34,14.72c-.73,1.86,3.6,2.2,6.36.12s3.69-3.21,2.42-3.47S34.82,12.56,34,14.72Z"/><path class="cls-27" d="M32.14,4.72c-5.26-1.64-8.77.26-8.88,1.42s6.81,4.22,8.52,5.82S42,10.15,42,9.64,36.75,6.15,32.14,4.72Z"/><path class="cls-28" d="M42.47,32.17a2.48,2.48,0,0,1-.09.4c-.47,1.49-9.14,2.2-10,2.26a56.15,56.15,0,0,0,8.29-1.43A3,3,0,0,0,42.47,32.17Z"/><path class="cls-29" d="M6.33,11.34s10.1,4.29,14.83,5.18S33.07,16,33.07,16s-7.81,1.61-11.21,1.26S6.33,11.34,6.33,11.34Z"/><path class="cls-30" d="M19.7,26.06a12.59,12.59,0,0,0,3,.83c.79,0,6.8-1.39,6.8-1.39S23,26.86,19.7,26.06Z"/><path class="cls-31" d="M47.09,21s3.52-.88,5.81-1.28A48,48,0,0,0,60,17.21L58,16.6c-.28-.08-.36.71-.36.71S50.42,20.34,47.09,21Z"/><path class="cls-32" d="M2.66,16.26l-2.28,1a108.65,108.65,0,0,1,12.13,3.12l-10-3.63Z"/><path class="cls-33" d="M.38,17.31l.29,1S15.49,20.92,22.59,24C22.59,24,9.94,18.74.38,17.31Z"/><path class="cls-14" d="M2.53,22.31s9.21,2.24,13.68,2.6S5,22,2.53,22.31Z"/><path class="cls-34" d="M48.42,4.61a1.92,1.92,0,0,0,2.41,1.12S48.16,6.6,48.42,4.61Z"/><path class="cls-35" d="M47.9,12.39c-.93.08,1.08-1.3,2.73-1A27.23,27.23,0,0,1,47.9,12.39Z"/><path class="cls-35" d="M4.12,10.08s3.88.15,2.21,1.26Z"/><path class="cls-35" d="M6.75,9.2c-.77.58.43.44.74.19S7.28,8.8,6.75,9.2Z"/><path class="cls-36" d="M51.79,20.65s.14-.72,1.31-1.16a3.78,3.78,0,0,1,2.35,0A16.08,16.08,0,0,1,51.79,20.65Z"/><path class="cls-14" d="M18.41,16.83c-1.39-.14,3.05,4,3.55,4.32s.22-2.38-.53-3.34S18.41,16.83,18.41,16.83Z"/><path class="cls-14" d="M14.65,25.13c-1.92-.22,4,4.58,5.38,5.6s2.43-2.44,2.29-3.17S17.32,25.43,14.65,25.13Z"/><path class="cls-14" d="M59.06,6.14a18.31,18.31,0,0,1-3.2,2.52c-1.51.84,1.24.13,1.82.25s.51,2.3.51,2.3S58.88,7.79,59.06,6.14Z"/></g></g></g></svg>