<svg xmlns="http://www.w3.org/2000/svg" xmlns:xlink="http://www.w3.org/1999/xlink" viewBox="0 0 22.41 60.17"><defs><style>.cls-1{isolation:isolate;}.cls-2{fill:#776483;}.cls-3{fill:url(#Безымянный_градиент_253);}.cls-4{fill:url(#Безымянный_градиент_216);}.cls-5{fill:url(#Безымянный_градиент_223);}.cls-6{fill:url(#Безымянный_градиент_178);}.cls-7,.cls-9{fill:#de376d;}.cls-13,.cls-16,.cls-18,.cls-19,.cls-22,.cls-7,.cls-8,.cls-9{mix-blend-mode:multiply;}.cls-15,.cls-19,.cls-22,.cls-7,.cls-8{opacity:0.5;}.cls-8{fill:#be2f55;}.cls-9{opacity:0.7;}.cls-10,.cls-14,.cls-15,.cls-17,.cls-21{fill:#fff;}.cls-10,.cls-15,.cls-17,.cls-21{mix-blend-mode:soft-light;}.cls-11{fill:url(#Безымянный_градиент_140);}.cls-12{fill:url(#Безымянный_градиент_252);}.cls-13{fill:#e02774;}.cls-13,.cls-18{opacity:0.2;}.cls-16,.cls-18{fill:#b88974;}.cls-16{opacity:0.38;}.cls-17{opacity:0.8;}.cls-19{fill:#a28993;}.cls-20{fill:#663f6d;}.cls-21{opacity:0.3;}.cls-22{fill:#862f68;}.cls-23{fill:url(#Безымянный_градиент_458);}</style><linearGradient id="Безымянный_градиент_253" x1="40.91" y1="-190.73" x2="46.63" y2="-150.01" gradientTransform="translate(-27.16 191.37) rotate(-0.71)" gradientUnits="userSpaceOnUse"><stop offset="0" stop-color="#beafc0"/><stop offset="1" stop-color="#997a80"/></linearGradient><linearGradient id="Безымянный_градиент_216" x1="35.75" y1="-190.01" x2="41.35" y2="-150.15" gradientTransform="translate(-27.16 191.37) rotate(-0.71)" gradientUnits="userSpaceOnUse"><stop offset="0" stop-color="#e0d9e1"/><stop offset="1" stop-color="#b9a4a8"/></linearGradient><linearGradient id="Безымянный_градиент_223" x1="37.24" y1="-142" x2="44.61" y2="-142" gradientTransform="translate(-27.16 191.37) rotate(-0.71)" gradientUnits="userSpaceOnUse"><stop offset="0" stop-color="#ce5411"/><stop offset="1" stop-color="#b42b00"/></linearGradient><linearGradient id="Безымянный_градиент_178" x1="40.8" y1="-130.7" x2="40.8" y2="-139.1" gradientTransform="translate(-27.16 191.37) rotate(-0.71)" gradientUnits="userSpaceOnUse"><stop offset="0" stop-color="#ffa900"/><stop offset="1" stop-color="#ff9600"/></linearGradient><linearGradient id="Безымянный_градиент_140" x1="40.19" y1="-142.24" x2="40.19" y2="-150.65" gradientTransform="translate(-27.16 191.37) rotate(-0.71)" gradientUnits="userSpaceOnUse"><stop offset="0" stop-color="#ff9600"/><stop offset="1" stop-color="#ffa900"/></linearGradient><linearGradient id="Безымянный_градиент_252" x1="40.75" y1="-142.13" x2="40.75" y2="-145.03" gradientTransform="translate(-27.16 191.37) rotate(-0.71)" gradientUnits="userSpaceOnUse"><stop offset="0.05" stop-color="#ff3f00"/><stop offset="1" stop-color="#d95203"/></linearGradient><linearGradient id="Безымянный_градиент_458" x1="41.35" y1="-147.65" x2="41.35" y2="-151.01" gradientTransform="translate(-27.16 191.37) rotate(-0.71)" gradientUnits="userSpaceOnUse"><stop offset="0" stop-color="#ffde00"/><stop offset="1" stop-color="#ffe834"/></linearGradient></defs><g class="cls-1"><g id="Слой_2" data-name="Слой 2"><g id="layer1"><path class="cls-2" d="M21.88,24.11A52.29,52.29,0,0,0,16.23,41c-.39,3.09-.89,2.22-1.38-.23C13.94,36.18,13.06,26,13.06,26L12.74.23h0a33.56,33.56,0,0,1,1.88,3.65c.72,1.57,1.59,3.64,2.47,6.2.53,1.53,1.56,3.25,2,4.75,0,0-.62-.07-.79.07-.36.3-.94.87-.87,1.34s1,.75,1.55.88l.42.08C20.66,20.94,21.88,24.11,21.88,24.11Z"/><path class="cls-3" d="M20.86,23.45A51,51,0,0,0,16.23,41l-1.38-.23L12,40.29h0l-.43-.07L11.33,23l.33-7.6h0l.56-12.77c0-.14,0-.28,0-.42s0-.22,0-.32l0-.58c0-.09,0-.17,0-.25l0-.64c0-.13,0-.23,0-.3V0a.6.6,0,0,1,.4.23h0a13.9,13.9,0,0,1,1.88,3.65c1.2,3,2.58,7.24,3.73,11-.36.3-.94.87-.87,1.34s1,.75,1.55.88C20.11,20.72,20.86,23.45,20.86,23.45Z"/><path class="cls-4" d="M12.34,0a.85.85,0,0,0,0,.15c0,.07,0,.17,0,.3s0,.38,0,.64,0,.71,0,1.15c-.25,6.22-.83,24.11.12,38l-.32.08L7.56,41.45s0-.27.07-.78h0A25.68,25.68,0,0,0,3.88,26.44s0-.11.06-.3c.32-1.6,1.85-9.16,3.7-15.74h.13c.3,0,.61-.22.66-.93a3.15,3.15,0,0,0,0-1,1.73,1.73,0,0,0-.1-.28C9.39,4.6,10.56,1.56,11.65.45h0A1.5,1.5,0,0,1,12.34,0Z"/><path class="cls-5" d="M8.28,46l1.16,6.4s3.67-.77,5.11-.07l1.1-6.23S12.85,44.55,8.28,46Z"/><path class="cls-6" d="M17.53,55.13a2.35,2.35,0,0,1-.33.75c-.83,1.43-3.07,4.27-5,4.29-2.46,0-6.18-4-5.75-4.9s3-2.87,3-2.87a5.9,5.9,0,0,1,5.11-.07S17.52,54.58,17.53,55.13Z"/><path class="cls-7" d="M17.53,55.13l-.33.75c-.83,1.43-3.07,4.27-5,4.29-2.46,0-6.18-4-5.75-4.9.17-.28,5.93-1.32,8.52-.73Z"/><path class="cls-8" d="M9,49.73c.72-3.84,5.7,2,5.7,2l1-5.64a12.75,12.75,0,0,0-4.49-.47c-2.32.22-2.66,1.6-2.66,1.6Z"/><path class="cls-9" d="M7.75,57.62c.64.62-.6-2.07,1.12-2.6s4.4,2.28,5.53,2.22,2-2.37,2-2.37a18.78,18.78,0,0,0-6.62-.29c-3.51.51-3.43.63-3.37.89A6.67,6.67,0,0,0,7.75,57.62Z"/><path class="cls-10" d="M8.71,58.14c-.47-.65,1.46-.13,2.14.4s-.45.82-.79.67A6.18,6.18,0,0,1,8.71,58.14Z"/><path class="cls-11" d="M3.08,48.74c-.83,0-3-3.82-3.08-4.67s6.19-3.78,11.26-3.84,10.75,2.62,11.1,3.1-1,5.07-1.82,5.19S15.15,46.15,11,46.2,4,48.78,3.08,48.74Z"/><path class="cls-12" d="M3.08,48.74c.63.37,5.61-.51,5.61-.51A4.39,4.39,0,0,1,12,46.87a3.86,3.86,0,0,1,3.28,1.51s4.86.49,5.24.14-3.48-2.65-8.76-2.67A14.26,14.26,0,0,0,3.08,48.74Z"/><path class="cls-10" d="M12.49,40.26c-2.75,0-2.29,4.91-1.9,5.26s4.05.39,5.68.9,2.82-3.79,2.87-4.21S14.88,40.24,12.49,40.26Z"/><path class="cls-10" d="M12.14,51.77c-1,.07-.61,2-.36,2.26s3,.33,3.86.59-.92-2-1.66-2.37A7.07,7.07,0,0,0,12.14,51.77Z"/><path class="cls-13" d="M2.66,42.29c-.57.26.72,4.54,1.13,5.1S7.84,46.15,8.28,46s-.89-4.11-1.46-4.55S3.37,42,2.66,42.29Z"/><path class="cls-14" d="M12.49,40.26s.82,2.28,2.22,2.32a4.18,4.18,0,0,0,2.65-1.27A12,12,0,0,0,12.49,40.26Z"/><path class="cls-14" d="M12.75,54.36c-.25-.73,2.23-.73,2.73.34C15.48,54.7,13.11,55.36,12.75,54.36Z"/><path class="cls-8" d="M.7,45.73A18.82,18.82,0,0,0,3.08,48.6c.5.23,1.17-.89,2.74-1.48S8,48.35,8,48.35s-4,.73-4.93.39S.7,45.73.7,45.73Z"/><path class="cls-8" d="M18.53,47.32c-1.2-.2-2.38.79-2.23,1a14.17,14.17,0,0,0,4.24.22c.77-.2,1.54-3.06,1.54-3.06s-.93,1.81-1.53,2.1S18.53,47.32,18.53,47.32Z"/><path class="cls-15" d="M11.66,15.44a57.07,57.07,0,0,1-.33,7.6c-.52.94-6.52,4-6.65,2.78A76.48,76.48,0,0,1,7.77,10.4c.3,0,.61-.22.66-.93a3.15,3.15,0,0,0,0-1,61.18,61.18,0,0,1,3.26-8h0C11.67.69,11.73,9,11.66,15.44Z"/><path class="cls-16" d="M20,24.49c-.1-1.53-6.85-2.94-7.53-2.86s-.18,15.35,0,16.77,3.34,1.68,3.57,1.82.28-5.57,1.49-9.92S20,24.49,20,24.49Z"/><path class="cls-17" d="M12.08,34.34s-1.37-8.6-1.47-12S12.17,4.23,12.17,4.23,11.14,21.72,12.08,34.34Z"/><path class="cls-14" d="M11.05,19.48c.56.62,1.1-2.6.4-3.68S10.65,19,11.05,19.48Z"/><path class="cls-18" d="M7.63,40.66A25.68,25.68,0,0,0,3.88,26.44s0-.11.06-.3a7.13,7.13,0,0,1,4.43,3.31C10.18,32.33,7.74,40.29,7.63,40.66Z"/><path class="cls-14" d="M6.3,16.39c.94-3.13,2.27-1.14,1.93,2.16S4.7,22.47,4.76,22.23,6.3,16.39,6.3,16.39Z"/><path class="cls-19" d="M12.22,8.69c.35,1.4,4.78,3.78,5.09,3.34S13.29,1.08,12.8.92,12.22,8.69,12.22,8.69Z"/><path class="cls-8" d="M20.86,23.45l1,.66a51.69,51.69,0,0,0-3.78,8.45C17.19,35.87,17.72,29.94,20.86,23.45Z"/><path class="cls-20" d="M19.15,14.84s-1.26.77-1.42,1.28.48.76.48.76-.86-.35-.95-.71.54-1,1.1-1.26C18.69,14.73,19.08,14.87,19.15,14.84Z"/><path class="cls-2" d="M8.29,8.21a3.32,3.32,0,0,1,.24,1.25c.07.95-.7.93-.7.93a1.53,1.53,0,0,0,.49-.85A3.72,3.72,0,0,0,8.29,8.21Z"/><path class="cls-21" d="M12.38,21.32c-.93-.62-.31-6.84.13-7.41s6.85,4.69,7.43,6.52-.14,3.29-.77,3S12.38,21.32,12.38,21.32Z"/><path class="cls-22" d="M7.27,35.43s-.62-5-1.74-7.08S4.39,25.83,4.41,24.8s1.66-8.32,1.66-8.32S3.92,25,3.88,26.44C3.88,26.44,6.88,31.14,7.27,35.43Z"/><path class="cls-22" d="M8.72,6.84s2.72-5.42,3.57-5.75S15,4.88,15,4.88,13.23,0,12.34,0,9.63,3.84,8.72,6.84Z"/><path class="cls-23" d="M2.66,42.29a23.56,23.56,0,0,1,9.49-2.43c5.26-.15,9.9,3.24,9.9,3.24s-5.45-2.88-10-2.81A31,31,0,0,0,2.66,42.29Z"/></g></g></g></svg>