<svg xmlns="http://www.w3.org/2000/svg" xmlns:xlink="http://www.w3.org/1999/xlink" viewBox="0 0 50.06 61.44"><defs><style>.cls-1{isolation:isolate;}.cls-2{fill:url(#Безымянный_градиент_779);}.cls-3{fill:url(#Безымянный_градиент_758);}.cls-4{fill:url(#Безымянный_градиент_696);}.cls-5{fill:url(#Безымянный_градиент_660);}.cls-6{fill:url(#Безымянный_градиент_726);}.cls-10,.cls-18,.cls-7{fill:#fff;}.cls-18,.cls-7{mix-blend-mode:soft-light;}.cls-8{fill:#7f6593;opacity:0.2;}.cls-11,.cls-13,.cls-14,.cls-16,.cls-20,.cls-21,.cls-8,.cls-9{mix-blend-mode:multiply;}.cls-9{fill:#632c7c;}.cls-11,.cls-13,.cls-14,.cls-16,.cls-9{opacity:0.5;}.cls-11{fill:#6e5066;}.cls-12{fill:#887aa1;}.cls-13,.cls-20{fill:#912774;}.cls-14{fill:#7e527c;}.cls-15{fill:#63495f;}.cls-16{fill:#5b3952;}.cls-17{fill:#a89aa6;}.cls-18,.cls-20,.cls-21{opacity:0.3;}.cls-19{fill:#745d71;}.cls-22{fill:#5b2774;}.cls-23{mix-blend-mode:screen;fill:url(#Безымянный_градиент_752);}.cls-24{fill:#479dff;}.cls-25{fill:#47ffff;}.cls-26{fill:#3645f4;}</style><linearGradient id="Безымянный_градиент_779" x1="24.47" y1="62.76" x2="5.77" y2="11.36" gradientUnits="userSpaceOnUse"><stop offset="0" stop-color="#6379c0"/><stop offset="0.24" stop-color="#56599f"/><stop offset="0.47" stop-color="#e1d9e0"/><stop offset="0.85" stop-color="#937d9a"/><stop offset="1" stop-color="#6d6381"/></linearGradient><linearGradient id="Безымянный_градиент_758" x1="24.73" y1="0.62" x2="33.08" y2="60" gradientUnits="userSpaceOnUse"><stop offset="0" stop-color="#ddd4ea"/><stop offset="0.3" stop-color="#ae959a"/><stop offset="0.37" stop-color="#9b7584"/><stop offset="0.5" stop-color="#a58999"/><stop offset="0.65" stop-color="#ae9aac"/><stop offset="0.82" stop-color="#b3a4b6"/><stop offset="1" stop-color="#b5a7ba"/></linearGradient><linearGradient id="Безымянный_градиент_696" x1="22.31" y1="50.98" x2="22.31" y2="7.65" gradientUnits="userSpaceOnUse"><stop offset="0" stop-color="#3d069a"/><stop offset="1" stop-color="#6509ba"/></linearGradient><linearGradient id="Безымянный_градиент_660" x1="37.94" y1="7.75" x2="37.37" y2="51.06" gradientUnits="userSpaceOnUse"><stop offset="0" stop-color="#512eff"/><stop offset="1" stop-color="#7c1acc"/></linearGradient><linearGradient id="Безымянный_градиент_726" x1="27.74" y1="50.98" x2="27.74" y2="7.65" gradientUnits="userSpaceOnUse"><stop offset="0" stop-color="#ad8e84"/><stop offset="0.23" stop-color="#836888"/><stop offset="0.57" stop-color="#e1d9e0"/><stop offset="0.85" stop-color="#937d9a"/><stop offset="1" stop-color="#665783"/></linearGradient><radialGradient id="Безымянный_градиент_752" cx="71.47" cy="26.88" r="12.89" gradientTransform="translate(-31.38) scale(0.9 1)" gradientUnits="userSpaceOnUse"><stop offset="0" stop-color="#0045f4"/><stop offset="1"/></radialGradient></defs><g class="cls-1"><g id="Слой_2" data-name="Слой 2"><g id="layer1"><path class="cls-2" d="M31.42,60.23a45.9,45.9,0,0,1-4.67,1.2c-.1,0-2.76-2.56-5.95-5.69-4.47-4.4-10-10-10.77-11.75C8.66,41-.21,17,0,16.1s3-3.75,3-3.75L30.79,59.17Z"/><path class="cls-3" d="M50,33.21a.28.28,0,0,1,0,.06c0,1.58-.11,3-.2,4.14v0a15,15,0,0,1-.38,2.64c-1.12,3.31-17.08,20.27-18,20.15a6.14,6.14,0,0,1-1.27-.82c-3.95-2.88-15.65-12.65-18-15.86C9.39,39.78,2.51,14.11,3,12.35h0l0,0,.08,0,.11-.06.5-.23,1.31-.61.43-.21,1-.48.55-.26a2.53,2.53,0,0,0,.29-.14l.44-.2L8,10l6.57-3.07c.38-.16.75-.33,1.12-.51l.54-.25h0a3.69,3.69,0,0,0,3.25-1.45.12.12,0,0,1,0-.05c5.74-2.62,9-4.63,9.59-4.68,1.45-.11,19.54,8.94,20.24,9.6C49.87,10.08,50.24,24.25,50,33.21Z"/><path class="cls-4" d="M10.47,15.74,30.83,7.65s7,23.83.76,43.33c0,0-12.23-8.83-14.47-11.42S10.47,15.74,10.47,15.74Z"/><path class="cls-5" d="M30.83,7.65l13.32,6.86s1.62,19.67-.4,23.55S31.59,51,31.59,51,33.8,37.21,33.9,32.05,30.83,7.65,30.83,7.65Z"/><path class="cls-6" d="M10.52,16S26.83,9.45,31.13,9.51,42.84,16,42.84,16a69.85,69.85,0,0,1,.81,20.08c-.52,4.13-12.49,14.59-12.49,14.59l.43.31S41.82,42.49,44,37.41s.14-22.9.14-22.9S32.48,7.71,30.83,7.65s-20.36,8.09-20.36,8.09Z"/><path class="cls-7" d="M4,14.3C4.74,20.49,6.79,27,8.33,27.61s4.18.59,4.27.23S10,15.22,10,15.22,28.44,7.29,30.83,7,44.51,13.5,44.76,14a104.27,104.27,0,0,1,.29,10.57c-.1.81,3.88-.21,4.42-2s0-10.88-.31-11.83S31,.82,29.5.6,3.74,12.41,4,14.3Z"/><path class="cls-8" d="M7.83,27.75c-1-.18.87,5.81,1.13,6.73s5.2.13,5.47,0-1-5.73-1.4-5.95S7.83,27.75,7.83,27.75Z"/><path class="cls-8" d="M45.42,25.44c-.47-.05-.23,4.2,0,4.9s3.76-.28,4.11-1.25.06-5.58,0-5.7S45.42,25.44,45.42,25.44Z"/><path class="cls-7" d="M19,49.33c-.26-2,6.29-2,7-1.57s4.63,3.5,5.46,3.67S42.31,40.54,44.23,38.6s2.74,1.52,3.2,2.71-13.68,17.09-16,17.2S19,49.33,19,49.33Z"/><path class="cls-9" d="M44.15,14.51a3.13,3.13,0,0,0-1.06,1.32,49.45,49.45,0,0,0,.53,5.71s-2-3.53-3-5.12-5.47-4.25-9.52-4.72S10.52,16,10.52,16s17-7.9,20.31-8.35S44.15,14.51,44.15,14.51Z"/><path class="cls-10" d="M25.49,46.47s5.36,3.65,5.93,3.43,9.15-8.09,10.92-11,2.06-3.3,2.06-3.3a22.71,22.71,0,0,1-2.16,4.69C40.82,42.6,32.06,51,31.59,51S25.49,46.47,25.49,46.47Z"/><path class="cls-11" d="M12,46.34c.32-1,8.05,4.87,10.94,7.26s7.66,6.11,7.66,6.11-2.66,1.66-4.23,1.13S12,46.34,12,46.34Z"/><path class="cls-7" d="M10.52,44.73A12.73,12.73,0,0,1,9.75,40c.17-.48,1.53,2.8,2.71,4.46S11.64,46.33,10.52,44.73Z"/><path class="cls-12" d="M7.34,30.58s5.16,13,6.68,14.85,9.63,8.79,9.63,8.79-8.9-7.33-11.19-9.78S7.34,30.58,7.34,30.58Z"/><path class="cls-10" d="M36.19,2.68c-2.17-1.19-.71,4.41,2.71,7s7.11,1,7.3,0S37.58,3.44,36.19,2.68Z"/><path class="cls-10" d="M24,46.22c-2.53-.55.91,2.77,2.85,3.17S26,46.66,24,46.22Z"/><path class="cls-13" d="M15.63,36.26c.79,2.06,11.6,11.2,14.22,12s12.91-10,13.5-12.66a42.73,42.73,0,0,0,.71-6.6s-.08,6-.52,7.58S33.07,49.32,31.42,49.9s-13.76-9.45-14.3-10.34A33.14,33.14,0,0,1,15.63,36.26Z"/><path class="cls-11" d="M.11,16.81c.2.82,6.12,16,6.29,16.55s.59-2.45.11-5.62S3,13.91,3,13.91,0,15.2.11,16.81Z"/><path class="cls-14" d="M3.77,12l1.31-.61Z"/><path class="cls-14" d="M5.51,11.19l1-.48Z"/><path class="cls-14" d="M8,10c1.9-.9,4.18-2,6.57-3.06Z"/><path class="cls-14" d="M49.76,37.41c.1-3.08,0-9.66-.16-15.46-.16-5.45-.35-10.22-.47-10.82-.05-.27-.69-.89-1.69-1.72C43.75,6.4,33.12,1,29.5.6h-.07C28.12.53,25,2.29,19.56,4.71l0,0a.12.12,0,0,1,0-.05c5.74-2.62,9-4.63,9.59-4.68,1.45-.11,19.54,8.94,20.24,9.6S50.36,29.77,49.76,37.41Z"/><path class="cls-15" d="M5,20.65c-.87-.45-.25,2.47,0,2.8s.65.66.85.65A2.78,2.78,0,0,0,5,20.65Z"/><path class="cls-16" d="M4.71,20.73a1.51,1.51,0,0,0,.45,1.89c.57.39.89-.23.57-1.07S4.81,20.59,4.71,20.73Z"/><path class="cls-17" d="M5,23.4s.48.29.7.17.45-1,.45-1A3.88,3.88,0,0,1,6,24.19C5.75,24.75,5,23.4,5,23.4Z"/><path class="cls-10" d="M5.86,24.31c-.31.06.24-1,.26-1.1S6.18,24.24,5.86,24.31Z"/><path class="cls-11" d="M5.86,14.91c-.35.34-.28,3.39,1.72,3.8s1.4-3,1.4-3Z"/><path class="cls-15" d="M9,15.74a1.75,1.75,0,0,1-1.65,1.82,1.75,1.75,0,0,1-1.65-1.82,1.75,1.75,0,0,1,1.65-1.83A1.75,1.75,0,0,1,9,15.74Z"/><path class="cls-10" d="M6.07,14.86c-.05.76,2.49,1,2.7.88S8.36,14.08,7.33,14A1.19,1.19,0,0,0,6.07,14.86Z"/><path class="cls-7" d="M6.07,16.71C6,15.86,8,16.1,8.52,16.19s.12.9-.78,1.17S6.07,16.71,6.07,16.71Z"/><path class="cls-11" d="M45.92,13.16c-.36.35-.29,3.4,1.72,3.81S49,14,49,14Z"/><path class="cls-15" d="M49,14a1.66,1.66,0,1,1-3.31,0A1.66,1.66,0,1,1,49,14Z"/><path class="cls-10" d="M46.12,13.12c0,.75,2.5,1,2.7.87s-.41-1.65-1.44-1.7A1.2,1.2,0,0,0,46.12,13.12Z"/><path class="cls-7" d="M46.12,15c-.11-.84,1.93-.6,2.45-.51s.12.9-.78,1.17S46.12,15,46.12,15Z"/><path class="cls-11" d="M29.78,53.81c-.36.35-.29,3.39,1.72,3.81s1.4-3,1.4-3Z"/><path class="cls-15" d="M32.9,54.64a1.66,1.66,0,1,1-1.65-1.83A1.75,1.75,0,0,1,32.9,54.64Z"/><path class="cls-10" d="M30,53.77c-.06.75,2.49,1,2.69.87s-.41-1.65-1.43-1.7A1.18,1.18,0,0,0,30,53.77Z"/><path class="cls-7" d="M30,55.61c-.11-.85,1.93-.61,2.45-.52s.12.9-.78,1.18S30,55.61,30,55.61Z"/><path class="cls-18" d="M32.37,11.13c-1.19.73,1.68,17.39,2.31,18.84s8.12,2.08,8.67,1.86.53-12.28-2.22-15.7S32.74,10.9,32.37,11.13Z"/><path class="cls-19" d="M19.55,7.63A12.68,12.68,0,0,1,17,6.55l-.71-.37a3.7,3.7,0,0,0,3.26-1.45.12.12,0,0,1,0-.05.08.08,0,0,0,0,0c0,.08,0,.28.08.55C19.74,6.12,19.89,7.62,19.55,7.63Z"/><path class="cls-10" d="M17,6.55a6.54,6.54,0,0,0,2,.64c.8.06.82-.46.82-.46s.1.87-.11,1.15S17,6.55,17,6.55Z"/><path class="cls-11" d="M19.53,4.73s-1.16,1.36-1.15,1.69a.72.72,0,0,0,1.15.31C20,6.29,19.53,4.73,19.53,4.73Z"/><path class="cls-20" d="M16.64,37.41C14.36,34,32.55,29,33.59,30S32.14,46.43,31,47.79,19.49,41.69,16.64,37.41Z"/><path class="cls-18" d="M33,22.1c.24-1.17,2.2.8,2.64,4.51s-1.28,3.65-1.77,2.85S33,22.1,33,22.1Z"/><g class="cls-21"><path class="cls-22" d="M14.46,41.58c-.85,1.46-.17,2.44,1,2.5S14.46,41.58,14.46,41.58Z"/><path class="cls-22" d="M17.63,42.4c-1.35.75.51,2.11,1.42,2.8s2-1.23,1.11-2.1A2.66,2.66,0,0,0,17.63,42.4Z"/><path class="cls-22" d="M17.48,41.58c-.31.24.35.38.88.38S18,41.18,17.48,41.58Z"/><path class="cls-22" d="M41.29,47.24c-1.94-.39.81-2.85,1.39-2A1.38,1.38,0,0,1,41.29,47.24Z"/><path class="cls-22" d="M42.45,43.3c-.52,0,.58-1.37.93-.9S43,43.32,42.45,43.3Z"/></g><path class="cls-20" d="M29.52,10C26.31,10.76,32,24.89,33,26.75S32,8.53,29.52,10Z"/><path class="cls-9" d="M13.77,29.9S11.6,17.73,11.76,17a8.36,8.36,0,0,1,1.06-1.94l-2.3.9Z"/><path class="cls-10" d="M30,.69C29,.64,30.86,6,31.42,6.55a17.14,17.14,0,0,0,2.91,1.38C35,8.28,32.2.83,30,.69Z"/><ellipse class="cls-23" cx="32.72" cy="26.88" rx="11.56" ry="12.88"/><path class="cls-24" d="M38.25,35.92c.69,1.42-4.23,3.16-5.67,5.28s-8.76-5.87-10-12.23,4.64-9,6.23-12.36,7.62,2.46,9.76,4.49,1,7-.51,9.68-5.12,2.06-6.55,0-5.09-3-3.2-7.59,3.35-1.44,5.8-1,1.55,4.84.49,5.8-3.48-.69-3.44-2,2.27-1.86,2.3-2.91-2.28-1.79-3.35-1.1-.2,5.32,3.41,7.77,4.85-6.1,4.54-7.77S32.81,17.65,30,18.78s-4.56,4-3.49,9.54S31,36.49,34.6,34.67,38.25,35.92,38.25,35.92Z"/><path class="cls-25" d="M34.42,39.37c2.17-1.93,2.09-4.32,1.53-4.69s-2.14,1.73-4.79.63-5.23-2.18-5.75-7.79,2-7.72,4-8.46a6.46,6.46,0,0,1,6.71.88c2.51,1.86,1.85,8.19.27,9.54s-3.3.6-3.49.75a2.5,2.5,0,0,0,3.59,1.29c2.11-1.29,2.92-7.82,2.48-9.52s-4.59-3.88-6.74-4.79-3.05-1.17-3.85.19-5.08,4.71-5.69,7.89.19,5.25,1.56,8.12a21.66,21.66,0,0,0,6,7.44C32.33,42.36,32.68,40.91,34.42,39.37Z"/><path class="cls-25" d="M33.12,21.88a5.22,5.22,0,0,1,1.73,4c-.25,1.6-1.69,2.71-2.8,1.36s-.43-2,.85-3,.27-2.2-1.22-2.62-2.17,1-2.55,2.31,2.55,5.05,3.21,5.89-.43.16-2-.54a4.09,4.09,0,0,1-2.49-4.35c.26-2.07,1.24-3.65,2.28-4.09S32.33,21.59,33.12,21.88Z"/><path class="cls-26" d="M24.79,34.49a29.43,29.43,0,0,0,5.32,7c3,2.63,3.07-.92,4.31-1.87s2.94-2.14,2.94-2.14A39.27,39.27,0,0,0,33.46,40c-.59.59-.67,1.79-2.12,1.53S24.79,34.49,24.79,34.49Z"/><path class="cls-26" d="M28.19,27.22c.51,1.28,2.86,2.44,3.49,3.08s1.88,2.36,3.53,2.25a4.33,4.33,0,0,0,3.08-2.2,3.68,3.68,0,0,1-2.51,2.19c-2,.52-3.41-.69-4.62-1.84A11.72,11.72,0,0,1,28.19,27.22Z"/><path class="cls-14" d="M50,33.27c0,1.58-.11,3-.2,4.14v0a15,15,0,0,1-.38,2.64c-1.12,3.31-17.08,20.27-18,20.15a45.9,45.9,0,0,1-4.67,1.2c-.1,0-2.76-2.56-5.95-5.69h0s4.92,4.73,6.05,4.9,3.21-1.19,3.21-1.19l.09,0a5.47,5.47,0,0,0,.64-.24,19.66,19.66,0,0,0,7-5.59C42,48.65,48,42.67,48.68,40.63A56.36,56.36,0,0,0,50,33.27Z"/><path class="cls-14" d="M2.24,23.2s5.6,15.06,7.65,19.1S17.4,52.35,17.4,52.35,11.1,45.82,10,44,2.24,23.2,2.24,23.2Z"/></g></g></g></svg>