<svg xmlns="http://www.w3.org/2000/svg" xmlns:xlink="http://www.w3.org/1999/xlink" viewBox="0 0 45.84 49.44"><defs><style>.cls-1{isolation:isolate;}.cls-2{fill:url(#Безымянный_градиент_676);}.cls-3{fill:url(#Безымянный_градиент_638);}.cls-4{fill:url(#Безымянный_градиент_696);}.cls-5{fill:url(#Безымянный_градиент_660);}.cls-6{fill:url(#Безымянный_градиент_721);}.cls-7{fill:url(#Безымянный_градиент_689);}.cls-8{fill:url(#Безымянный_градиент_721-2);}.cls-9{fill:url(#Безымянный_градиент_689-2);}.cls-10,.cls-11,.cls-23{fill:#912774;}.cls-10,.cls-11,.cls-23,.cls-26{mix-blend-mode:multiply;}.cls-10,.cls-12,.cls-26{opacity:0.3;}.cls-11,.cls-13,.cls-17{opacity:0.5;}.cls-12,.cls-13,.cls-15,.cls-18{fill:#fff;}.cls-12,.cls-13,.cls-15,.cls-17{mix-blend-mode:soft-light;}.cls-14{fill:#7063ff;}.cls-16{fill:#ff4f90;}.cls-19{fill:#4f0086;}.cls-20{fill:#7e42ff;}.cls-21{fill:#b60066;}.cls-22{fill:#ff429c;}.cls-23{opacity:0.8;}.cls-24{fill:#8f5bff;}.cls-25{fill:#ffe5ff;}.cls-26{fill:#d463b8;}</style><linearGradient id="Безымянный_градиент_676" x1="18.85" y1="49.28" x2="18.85" gradientUnits="userSpaceOnUse"><stop offset="0" stop-color="#de0057"/><stop offset="1" stop-color="#83003b"/></linearGradient><linearGradient id="Безымянный_градиент_638" x1="27.3" y1="49.39" x2="27.3" y2="1.9" gradientUnits="userSpaceOnUse"><stop offset="0" stop-color="#de0086"/><stop offset="1" stop-color="#ff003b"/></linearGradient><linearGradient id="Безымянный_градиент_696" x1="13.63" y1="49.44" x2="13.63" y2="0.01" gradientUnits="userSpaceOnUse"><stop offset="0" stop-color="#3d069a"/><stop offset="1" stop-color="#6509ba"/></linearGradient><linearGradient id="Безымянный_градиент_660" x1="127" y1="134.11" x2="127" y2="86.85" gradientTransform="translate(143.69 137.77) rotate(-179.24)" gradientUnits="userSpaceOnUse"><stop offset="0" stop-color="#512eff"/><stop offset="1" stop-color="#7c1acc"/></linearGradient><linearGradient id="Безымянный_градиент_721" x1="105.78" y1="129.05" x2="105.85" y2="134.39" gradientTransform="translate(143.69 137.77) rotate(-179.24)" gradientUnits="userSpaceOnUse"><stop offset="0" stop-color="#f8e1f2"/><stop offset="1" stop-color="#e3c2d6"/></linearGradient><linearGradient id="Безымянный_градиент_689" x1="114.88" y1="133.2" x2="114.88" y2="128.62" gradientTransform="translate(143.69 137.77) rotate(-179.24)" gradientUnits="userSpaceOnUse"><stop offset="0.01" stop-color="#bd9bb5"/><stop offset="1" stop-color="#9f819e"/></linearGradient><linearGradient id="Безымянный_градиент_721-2" x1="129.59" y1="128.71" x2="129.66" y2="134.17" xlink:href="#Безымянный_градиент_721"/><linearGradient id="Безымянный_градиент_689-2" x1="139" y1="135.89" x2="139" y2="129.53" xlink:href="#Безымянный_градиент_689"/></defs><g class="cls-1"><g id="Слой_2" data-name="Слой 2"><g id="layer1"><path class="cls-2" d="M26.55,47.12a13.44,13.44,0,0,1-7.9,2.14l-.51,0-.46,0h-.1l-.45-.07c-.33-.06-.66-.14-1-.22-.16,0-.33-.1-.47-.12l0,0c-.13,0-.31-.09-.46-.15A11.76,11.76,0,0,1,13.65,48l-.29-.14-.52-.27-.29-.17L12,47.07,12,47c-.2-.12-.41-.27-.61-.41s-.46-.33-.68-.5l-.31-.24-.62-.53c-.17-.15-.36-.32-.53-.49s-.44-.42-.65-.64-.43-.46-.63-.69-.45-.5-.66-.77-.37-.46-.54-.69l-.38-.52c-.12-.16-.24-.34-.35-.5l-.35-.52-.6-1c-.15-.26-.3-.57-.46-.8v0A7.35,7.35,0,0,1,4.14,38l-.06-.12c-.12-.28-.29-.58-.43-.87l-.42-.91,0,0c-.11-.29-.26-.62-.39-.93s-.21-.53-.31-.8c0-.11-.09-.23-.13-.36-.21-.57-.41-1.18-.6-1.76,0-.1-.06-.19-.08-.28l-.24-.8-.27-1h0c0-.28-.15-.64-.22-.95s-.14-.62-.2-.93c0-.15-.06-.32-.08-.46a1,1,0,0,1,0-.17Q.5,26.66.38,25.8c0-.28-.07-.58-.11-.86l0-.33c0-.32-.07-.64-.09-1l-.06-.8c0-.09,0-.19,0-.28,0-.36,0-.72,0-1.08s0-.72,0-1.07A33.72,33.72,0,0,1,.33,16l.15-1.16A2.64,2.64,0,0,0,1.54,13,3.76,3.76,0,0,0,1,10.84H1c.25-1.93.38-2.9.64-4.84V6c.31-2.38.47-3.58.79-6h0a81.29,81.29,0,0,0,8.67,1.9l1.41.23-.3,4.72c-.29,4.63-.43,6.94-.72,11.57a14.42,14.42,0,0,0,1,6.3c.12.3.25.6.39.88a11.54,11.54,0,0,0,1.23,1.95,3.24,3.24,0,0,0,.29.34A6.75,6.75,0,0,0,19,30.38a5.49,5.49,0,0,0,3.08-.7c2.88-1.58,4.82-5.63,4.7-10.09-.13-4.62-.2-6.93-.33-11.55-.05-1.88-.08-2.82-.13-4.7A79.23,79.23,0,0,0,36,3c.6,6.4.89,9.59,1.49,16C38.38,28.6,35.32,41.59,26.55,47.12Z"/><path class="cls-3" d="M43.94,33v0c-.18.53-.36,1.06-.56,1.58,0,0,0,0,0,0C41,41.78,34.88,49,27.23,49.37a10.72,10.72,0,0,1-2.72-.21C11.81,46.54,7.63,29,9,18c.83-6.44,1.25-9.66,2.08-16.11l1.42.23a80.55,80.55,0,0,0,8.6,1C21,5,20.94,5.94,20.83,7.82l-.7,11.55c-.37,5.93,2.95,11.31,7.4,11.23s7.8-5.52,7.62-11.38C35,14.65,35,12.36,34.82,7.79c0-1.87-.08-2.8-.13-4.66A82.76,82.76,0,0,0,44.23,2c.23,2.5.35,3.74.58,6.24v0c.35,3.79.53,5.68.88,9.47A38.41,38.41,0,0,1,43.94,33Z"/><path class="cls-4" d="M27.23,49.37a81.87,81.87,0,0,1-8.58-.1l-.51-.05-.46,0h-.1l-.45-.07c-.33-.06-.67-.14-1-.22-.16,0-.33-.1-.47-.12l0,0c-.13,0-.31-.09-.46-.15A11.76,11.76,0,0,1,13.65,48l-.16-.07-.13-.07c-.18-.08-.35-.18-.52-.27l-.29-.17L12,47.07,12,47c-.2-.12-.41-.27-.61-.41s-.46-.33-.68-.5l-.31-.24-.62-.53c-.17-.15-.36-.32-.53-.49s-.44-.42-.65-.64-.43-.46-.63-.69-.45-.5-.66-.77-.37-.46-.54-.69l-.38-.52c-.12-.16-.24-.34-.35-.5l-.35-.52-.6-1c-.15-.26-.3-.57-.46-.8v0A7.35,7.35,0,0,1,4.14,38l-.06-.12c-.12-.28-.29-.58-.43-.87l-.42-.91,0,0c-.11-.29-.26-.62-.39-.93s-.21-.53-.31-.8c0-.11-.09-.23-.13-.36-.21-.57-.41-1.18-.6-1.76,0-.1-.06-.19-.08-.28l-.24-.8-.27-1h0c0-.28-.15-.64-.22-.95s-.14-.62-.2-.93c0-.15-.06-.32-.08-.46a1,1,0,0,1,0-.17Q.5,26.66.38,25.8c0-.28-.07-.58-.11-.86l0-.33c0-.32-.07-.64-.09-1s0-.53,0-.78,0-.2,0-.3c0-.36,0-.72,0-1.08s0-.72,0-1.07A33.72,33.72,0,0,1,.33,16l.15-1.16A2.64,2.64,0,0,0,1.54,13,3.76,3.76,0,0,0,1,10.84H1c.25-1.93.38-2.9.64-4.84V6c.31-2.38.47-3.58.79-6A83.77,83.77,0,0,0,11.11,1.9l1.41.23-.3,4.71c-.29,4.64-.44,7-.72,11.58a14.25,14.25,0,0,0,1,6.3c.12.3.25.6.39.88a10.94,10.94,0,0,0,1.23,1.95c.09.12.19.23.29.34A6.75,6.75,0,0,0,19,30.38a5.49,5.49,0,0,0,3.08-.7l1.45,7.44c1.22,4,1.83,6,3.05,10h0c.2.66.3,1,.51,1.66Z"/><path class="cls-5" d="M9,18c.83-6.43,1.25-9.65,2.08-16.1a83,83,0,0,0,10,1.21C21,5,20.94,5.94,20.83,7.82l-.7,11.56c-.37,5.92,2.95,11.3,7.4,11.22l-.3,18.77C12.42,49.59,7.58,29.43,9,18Z"/><path class="cls-6" d="M44.23,2c.13,1.41.19,2.12.32,3.53a83.44,83.44,0,0,1-9.74,1.82c-.05-1.69-.07-2.53-.12-4.21A80.61,80.61,0,0,0,44.23,2Z"/><path class="cls-7" d="M34.81,7.34a84,84,0,0,1-8.4.25l-.12-4.25a84,84,0,0,0,8.4-.21C34.74,4.81,34.76,5.65,34.81,7.34Z"/><path class="cls-8" d="M20.86,7.36a79.86,79.86,0,0,1-10.35-.89c.24-1.83.36-2.74.59-4.57a83,83,0,0,0,10,1.21C21,4.81,21,5.66,20.86,7.36Z"/><path class="cls-9" d="M10.51,6.47a84,84,0,0,1-8.7-1.68c.25-1.92.37-2.87.62-4.79A82.38,82.38,0,0,0,11.1,1.9C10.87,3.73,10.75,4.64,10.51,6.47Z"/><path class="cls-10" d="M35.16,19.91c-.23-8.37-5.59-1.84-8.24,3S23.05,29,23.05,29s5.22,3.58,8.82-.68A12.84,12.84,0,0,0,35.16,19.91Z"/><path class="cls-11" d="M6.9,26.87c-.85,2.71-6.38-.05-6.8-4v0A43.45,43.45,0,0,1,.32,15a.71.71,0,0,0,.16-.09A2.61,2.61,0,0,0,1.54,13,3.76,3.76,0,0,0,1,10.84H1l-.12-.14C1.14,9,1.4,7.41,1.65,6V6C2.16,3,2.58.86,2.58.86c.34-.73,6.94.42,7.5,2.43C11.76,9.33,9.05,20,6.9,26.87Z"/><path class="cls-12" d="M1.2,27.82c.14-1.1,6.73,2.5,7.47,3.52s3.34,8.14,7,13-4.57,2.26-8.9-3.11S1.2,27.82,1.2,27.82Z"/><path class="cls-13" d="M36.83,4.67c-2.14,7,.12,15-3.35,21.7-3.81,7.42-9.2,2.89-11.85,2-4-1.31,1,19.64,7.26,20.1,12.14.9,17.43-20.22,16.6-30.37C44.63,7.5,44,4.66,43,3.51S36.83,4.67,36.83,4.67Z"/><path class="cls-14" d="M9.3,15.84s.48,13.34,2.52,19.81C15.46,47.21,24,49.06,24,49.06A18,18,0,0,1,11,36.28C9.21,30.09,9.3,15.84,9.3,15.84Z"/><path class="cls-15" d="M9.65,30.93c.25-1.26,1.92,4,1.77,5.12C11.33,36.75,9.22,33.15,9.65,30.93Z"/><path class="cls-10" d="M14.29,47.86c-.91-1,4.17-1,5.63-.36l3.79,1.7S15.65,49.41,14.29,47.86Z"/><path class="cls-11" d="M26.32,4.48c.06-1.22,6.06-2.24,7.74,1.26s-4.12,11.71-5.79,14S26.2,7.22,26.32,4.48Z"/><path class="cls-11" d="M.55,26.9C3.08,33.64,7.38,40,11.8,45.57A9.26,9.26,0,0,0,17.94,49s-6.84-.36-12-8S.55,26.9.55,26.9Z"/><path class="cls-10" d="M31.11,29.24c.65-.89-3-.32-5.11-.12s-2.63-.28-2.63-.28S29.05,32.08,31.11,29.24Z"/><path class="cls-16" d="M34.89,10S36,21,34,25.33c-2.26,4.94-6.47,5.27-6.47,5.27s3.58,1.73,6.37-3.24C36.47,22.77,35.59,15.72,34.89,10Z"/><path class="cls-15" d="M35.07,24.08c.09-.82-1.38,2-1.91,2.87S34.74,27.13,35.07,24.08Z"/><g class="cls-17"><path class="cls-18" d="M41.92,22.29c-3,.78-2.67,8.9-1.25,10.12s2.76-5.28,2.76-5.28.39,1.7.61.53.22-5.05,0-4.31-.67,2.1-.67,2.1S43,22,41.92,22.29Z"/><path class="cls-18" d="M38.74,30.72c-.37-1-1.59,1.26-1.08,2.38S39.14,31.75,38.74,30.72Z"/><path class="cls-18" d="M40.05,14.63c-.14.71.82,3.07,1.88,2.37S40.38,12.89,40.05,14.63Z"/><path class="cls-18" d="M14.92,24.43c-.73,1.76-.3,3.9.81,4.69s2.78-2.6,2.31-3.82S15.24,23.67,14.92,24.43Z"/><path class="cls-18" d="M14.3,23.57c-.5.57,1,.71,1.15-.28S14.3,23.57,14.3,23.57Z"/></g><path class="cls-19" d="M13.19,40.92c-.2-1.81,2.54.27,3.41,2.39S13.59,44.43,13.19,40.92Z"/><path class="cls-11" d="M13.84,42.24c.6,1,2,.76,2.35.8s-1.08-2.46-2.15-2.8S13.5,41.67,13.84,42.24Z"/><path class="cls-20" d="M14.56,43.65s1,.87,1.67.73.37-1.07.37-1.07.55,1.11.14,1.46S14.88,44,14.56,43.65Z"/><path class="cls-19" d="M14.6,35.86c-.44.49-.92,2.4.94,1.81C16.36,37.41,15.65,34.67,14.6,35.86Z"/><path class="cls-11" d="M14.28,36.48c-.08.5,1.13,0,1.29.18s.16-.92-.3-1.07S14.28,36.48,14.28,36.48Z"/><path class="cls-20" d="M14.21,36.79a1.13,1.13,0,0,0,1.4.85c.3-.16.29-.74.29-.74a1,1,0,0,1-.24.83c-.32.35-1.17.18-1.39,0S14.21,36.79,14.21,36.79Z"/><path class="cls-21" d="M36.41,27.56c-.42.57-.87,2.54.91,1.58C38.1,28.71,37.41,26.18,36.41,27.56Z"/><path class="cls-11" d="M36.11,28.24c-.08.51,1.08-.25,1.24-.1s.15-.94-.3-1S36.11,28.24,36.11,28.24Z"/><path class="cls-22" d="M36,28.56a.9.9,0,0,0,1.35.53c.28-.22.27-.78.27-.78a1.22,1.22,0,0,1-.22.86,1.32,1.32,0,0,1-1.34.29C35.9,29.33,36,28.56,36,28.56Z"/><path class="cls-23" d="M43.36,34.66s-4,13.47-16.13,14.71a79.24,79.24,0,0,1-8.58-.11c-1.82-.1-4.11-.49-5.16-1.36a.5.5,0,0,1-.12-.17c2,1.26,8.41,1.54,11.14,1.43.78,0,1.27-.07,1.27-.07l1.27-.3.19,0C38.53,47.3,43.36,34.66,43.36,34.66Z"/><path class="cls-19" d="M20.48,13.57a5.8,5.8,0,0,0-.87,1.73,3.86,3.86,0,0,0,.68,1.42C20.36,15.46,20.4,14.83,20.48,13.57Z"/><path class="cls-20" d="M.48,14.87,1.54,13A1.63,1.63,0,0,1,.48,14.87Z"/><path class="cls-24" d="M19.61,15.3s.72.77.72.77l-.07,1Z"/><path class="cls-25" d="M33.15,3.26a3.4,3.4,0,0,1,1.6,2C34.84,5.8,36.69,3,36.69,3,35.27,3.11,34.57,3.17,33.15,3.26Z"/><path class="cls-25" d="M9.56,1.62c.69.13,1.11,1.54,1.39,1.6A25.59,25.59,0,0,0,14,2.31C12.24,2.07,11.34,1.93,9.56,1.62Z"/><path class="cls-26" d="M11.1,3.72c-.31,1.09-.61,4.56,0,5.76S17.8,5.62,18,4.3,14.78,2,14,2.31,11.1,3.72,11.1,3.72Z"/><path class="cls-26" d="M36.11,3.83c-1,.89-.64,7.33-.41,8.93s3.57-5.91,5.41-8S38.15,1.89,36.11,3.83Z"/><path class="cls-23" d="M43.94,33A55.12,55.12,0,0,0,45.35,22.1c-.13-4.1-.52-13.35-.54-13.85.35,3.79.53,5.68.88,9.47A38.41,38.41,0,0,1,43.94,33Z"/><path class="cls-18" d="M26.29,3.34S37,.72,44.23,2c0,0-6.93,2-9.54,1.92S26.29,3.34,26.29,3.34Z"/><path class="cls-18" d="M2.43,0S16.16.61,21.12,3.11a96.19,96.19,0,0,1-9.69-.85C8.76,1.71,2.43,0,2.43,0Z"/></g></g></g></svg>