<svg xmlns="http://www.w3.org/2000/svg" xmlns:xlink="http://www.w3.org/1999/xlink" viewBox="0 0 49.81 53.76"><defs><style>.cls-1{isolation:isolate;}.cls-2{fill:url(#Безымянный_градиент_644);}.cls-3{fill:url(#Безымянный_градиент_638);}.cls-4{fill:#912774;}.cls-10,.cls-18,.cls-20,.cls-21,.cls-25,.cls-26,.cls-30,.cls-4,.cls-9{mix-blend-mode:multiply;}.cls-19,.cls-20,.cls-30,.cls-4{opacity:0.5;}.cls-5{fill:url(#Безымянный_градиент_608);}.cls-6{fill:url(#Безымянный_градиент_615);}.cls-7{fill:#542cae;}.cls-8{fill:#8163f2;}.cls-21,.cls-9{fill:#d463b8;}.cls-9{opacity:0.2;}.cls-10{fill:#9d2f75;}.cls-10,.cls-18,.cls-25,.cls-28{opacity:0.8;}.cls-11{fill:url(#Безымянный_градиент_608-2);}.cls-12{fill:url(#Безымянный_градиент_615-2);}.cls-13{fill:#9c77c0;}.cls-14{fill:url(#Безымянный_градиент_648);}.cls-15{fill:url(#Безымянный_градиент_648-2);}.cls-16{fill:url(#Безымянный_градиент_648-3);}.cls-17{fill:url(#Безымянный_градиент_648-4);}.cls-18{fill:#d46baa;}.cls-19,.cls-23,.cls-24,.cls-28,.cls-32{fill:#fff;}.cls-19,.cls-24,.cls-28,.cls-32{mix-blend-mode:soft-light;}.cls-20{fill:#a439a5;}.cls-21,.cls-24,.cls-26{opacity:0.3;}.cls-22{fill:#ff4f90;}.cls-25{fill:#e093c1;}.cls-27{fill:#ac63b8;}.cls-29{fill:#7c0043;}.cls-30{fill:#d42f55;}.cls-31{fill:#d11663;}.cls-33{fill:#7c005c;}.cls-34{fill:#9d005c;}.cls-35{fill:#ff68a4;}</style><linearGradient id="Безымянный_градиент_644" x1="24.79" y1="53.76" x2="24.79" y2="4.14" gradientUnits="userSpaceOnUse"><stop offset="0" stop-color="#9300d6"/><stop offset="0.18" stop-color="#98005e"/><stop offset="1" stop-color="#dc003b"/></linearGradient><linearGradient id="Безымянный_градиент_638" x1="26.09" y1="49.9" x2="26.09" y2="4.14" gradientUnits="userSpaceOnUse"><stop offset="0" stop-color="#de0086"/><stop offset="1" stop-color="#ff003b"/></linearGradient><linearGradient id="Безымянный_градиент_608" x1="26.56" y1="44.45" x2="26.56" y2="5.84" gradientUnits="userSpaceOnUse"><stop offset="0" stop-color="#a98bce"/><stop offset="1" stop-color="#e7b8c0"/></linearGradient><linearGradient id="Безымянный_градиент_615" x1="27.37" y1="42.62" x2="27.37" y2="5.84" gradientUnits="userSpaceOnUse"><stop offset="0" stop-color="#f8e1f2"/><stop offset="1" stop-color="#fff"/></linearGradient><linearGradient id="Безымянный_градиент_608-2" x1="27.32" y1="16.73" x2="27.32" y2="5.84" xlink:href="#Безымянный_градиент_608"/><linearGradient id="Безымянный_градиент_615-2" x1="27.46" y1="15.71" x2="27.46" y2="5.84" xlink:href="#Безымянный_градиент_615"/><linearGradient id="Безымянный_градиент_648" x1="28.26" y1="11.76" x2="28.26" gradientUnits="userSpaceOnUse"><stop offset="0" stop-color="#1d0066"/><stop offset="1" stop-color="#93003b"/></linearGradient><linearGradient id="Безымянный_градиент_648-2" x1="34.89" y1="11.76" x2="34.89" xlink:href="#Безымянный_градиент_648"/><linearGradient id="Безымянный_градиент_648-3" x1="15.91" y1="11.76" x2="15.91" xlink:href="#Безымянный_градиент_648"/><linearGradient id="Безымянный_градиент_648-4" x1="22.09" y1="11.76" x2="22.09" xlink:href="#Безымянный_градиент_648"/></defs><g class="cls-1"><g id="Слой_2" data-name="Слой 2"><g id="layer1"><path class="cls-2" d="M2.37,4.14,0,8.7,3.43,46s1.5,7,7.18,7l31.62.82s5.87-1.17,7.31-10.1C51,35,2.37,4.14,2.37,4.14Z"/><path class="cls-3" d="M42.69,49.81a8.25,8.25,0,0,1-1.22.09H12.73A8.36,8.36,0,0,1,4.39,42l0-.76-2-37.1h43l4.37,36.42A8.35,8.35,0,0,1,42.69,49.81Z"/><path class="cls-4" d="M6.87,10.81s0,28.9.72,31.42,2.77,4.25,17.21,3.91,17-.25,18.15-1.35a8.73,8.73,0,0,0,2.92-5.4C46.37,36.51,6.87,10.81,6.87,10.81Z"/><path class="cls-5" d="M8.36,5.84l-1.49,5,2.19,28.3a7.2,7.2,0,0,0,6,5.18l25,.16s5.8-1.86,6.13-6.79S8.36,5.84,8.36,5.84Z"/><path class="cls-6" d="M8.36,5.84H42.82l3.51,29.72a6.25,6.25,0,0,1-6.18,7.06L17.57,41A6.82,6.82,0,0,1,11,35Z"/><path d="M15.75,29.29c0-.06,0-.15,0-.26s.29-.49.77-.82a6.55,6.55,0,0,1,2-.82,2.3,2.3,0,0,1,.77.67,2.13,2.13,0,0,1,.48.87s0,.07-.07.1l-.18.11-.16.13a2.38,2.38,0,0,0,1.42.45,2.48,2.48,0,0,0,1.74-.67,1.78,1.78,0,0,0,.62-1.64A2.35,2.35,0,0,0,22,25.77a1.66,1.66,0,0,1-1.07,0,2.7,2.7,0,0,1-.66-1.58A2.47,2.47,0,0,1,20.4,23a.87.87,0,0,1,.65-.2l.53,0,.36,0a1.28,1.28,0,0,0,.73-1.28,1.66,1.66,0,0,0-.74-1.11A2.47,2.47,0,0,0,20.45,20a2.24,2.24,0,0,0-1.11.29l.17.44q0,.16-.42.3a2,2,0,0,1-.65.13c-.34,0-.7-.29-1.1-.86a4.59,4.59,0,0,1-.72-1.51,1.55,1.55,0,0,1,.55-.63,1.65,1.65,0,0,1,.91-.34l.18.17a5.57,5.57,0,0,1,1.83-.29,5.73,5.73,0,0,1,3.16.89,3.41,3.41,0,0,1,1.62,2.61,3.92,3.92,0,0,1-1.29,3.38,4.3,4.3,0,0,1,2.17,3,3.56,3.56,0,0,1-1.32,3.16,5.12,5.12,0,0,1-3.59,1.39,4.78,4.78,0,0,1-3.58-1.55,1.65,1.65,0,0,1-.55.22A2.43,2.43,0,0,1,15.75,29.29Z"/><path d="M27.37,26.3a7.82,7.82,0,0,1,.25-3.06A9.14,9.14,0,0,1,29,20.4a6.91,6.91,0,0,1,2.36-2.08,6.42,6.42,0,0,1,3.21-.82,5.25,5.25,0,0,1,4.09,1.64,7.44,7.44,0,0,1,1.8,4.19,10.44,10.44,0,0,1,0,2.37A8.22,8.22,0,0,1,39.81,28a7.44,7.44,0,0,1-1.24,2,5.47,5.47,0,0,1-2,1.39,6.8,6.8,0,0,1-2.74.52,6.38,6.38,0,0,1-4.42-1.57A6.24,6.24,0,0,1,27.37,26.3ZM30.45,26a3.77,3.77,0,0,0,1.08,2.34,3.06,3.06,0,0,0,2.2.87,3.37,3.37,0,0,0,2.38-1,5.49,5.49,0,0,0,1.46-2.33,6,6,0,0,0,.28-2.59,3.6,3.6,0,0,0-1-2.16,3,3,0,0,0-2.22-.83,3.64,3.64,0,0,0-2.48.91,4.91,4.91,0,0,0-1.45,2.2A5.8,5.8,0,0,0,30.45,26Z"/><path class="cls-7" d="M20,33.17a5,5,0,0,1-3.63-1.5,1.11,1.11,0,0,1-.5.17h-.09l-.07-.06a2.64,2.64,0,0,1-1-1.66h0a1.13,1.13,0,0,1,0-.32c0-.3.32-.61.88-1a6.72,6.72,0,0,1,2.1-.85l.08,0,.07,0a2.33,2.33,0,0,1,.87.74,2.43,2.43,0,0,1,.54,1,.37.37,0,0,1-.2.37h0a2.13,2.13,0,0,0,1,.22,2.24,2.24,0,0,0,1.58-.61,1.57,1.57,0,0,0,.54-1.42,2.16,2.16,0,0,0-.95-1.4,2.06,2.06,0,0,1-1.11-.07L20,26.7A3,3,0,0,1,19.25,25a2.69,2.69,0,0,1,.12-1.31l.05-.07a1,1,0,0,1,.83-.29l.56,0,.27,0a1,1,0,0,0,.54-1,1.36,1.36,0,0,0-.64-.94A2.2,2.2,0,0,0,19.65,21a1.92,1.92,0,0,0-.79.16l.12.31,0,.08c-.07.26-.37.39-.59.47a2.17,2.17,0,0,1-.73.14c-.43,0-.86-.32-1.3-1a4.62,4.62,0,0,1-.76-1.59l0-.08,0-.07a1.74,1.74,0,0,1,.63-.73,1.88,1.88,0,0,1,1.05-.39h.1l.15.14a5.74,5.74,0,0,1,1.77-.26,6.07,6.07,0,0,1,3.3.93,3.67,3.67,0,0,1,1.73,2.79,4.11,4.11,0,0,1-1.15,3.37,4.4,4.4,0,0,1,2,3,3.8,3.8,0,0,1-1.4,3.37A5.4,5.4,0,0,1,20,33.17Zm-3.53-2.11.13.13A4.54,4.54,0,0,0,20,32.67a4.91,4.91,0,0,0,3.43-1.33A3.3,3.3,0,0,0,24.7,28.4a4.07,4.07,0,0,0-2.06-2.84l-.25-.17.22-.22A3.65,3.65,0,0,0,23.82,22a3.17,3.17,0,0,0-1.5-2.43,5.56,5.56,0,0,0-3-.85,5.31,5.31,0,0,0-1.75.28l-.14,0-.21-.19a1.36,1.36,0,0,0-.67.28,1.53,1.53,0,0,0-.44.45,4.92,4.92,0,0,0,.67,1.35c.43.62.72.75.89.75a1.81,1.81,0,0,0,.57-.12.94.94,0,0,0,.22-.1l-.21-.52.2-.1a2.66,2.66,0,0,1,2.85.21,1.85,1.85,0,0,1,.84,1.28,1.49,1.49,0,0,1-.84,1.52l-.06,0h-.07l-.39,0-.5,0a.76.76,0,0,0-.43.09,2.2,2.2,0,0,0-.07,1,2.52,2.52,0,0,0,.56,1.4,1.56,1.56,0,0,0,.86,0l.11,0,.1.07a2.59,2.59,0,0,1,1.24,1.81,2.06,2.06,0,0,1-.7,1.86,2.78,2.78,0,0,1-1.91.73,2.68,2.68,0,0,1-1.56-.49l-.23-.16.18-.21.21-.18.11-.07a2.53,2.53,0,0,0-.4-.64,2,2,0,0,0-.6-.56,6.1,6.1,0,0,0-1.85.76c-.6.41-.66.61-.66.64a2.07,2.07,0,0,0,0,.21A2.1,2.1,0,0,0,16,31.32l.36-.17Z"/><path class="cls-7" d="M33.05,33a6.69,6.69,0,0,1-4.59-1.63,6.5,6.5,0,0,1-2.13-4.19h0A8.14,8.14,0,0,1,26.58,24,9.38,9.38,0,0,1,28,21.06a7,7,0,0,1,2.44-2.16,6.79,6.79,0,0,1,3.33-.85A5.5,5.5,0,0,1,38,19.78a7.62,7.62,0,0,1,1.85,4.32,10.39,10.39,0,0,1,0,2.43,8.3,8.3,0,0,1-.63,2.38A7.74,7.74,0,0,1,38,31a5.77,5.77,0,0,1-2.07,1.46A7.12,7.12,0,0,1,33.05,33Zm-6.23-5.88a6,6,0,0,0,2,3.87,6.17,6.17,0,0,0,4.25,1.51A6.77,6.77,0,0,0,35.7,32a5.27,5.27,0,0,0,1.88-1.33,7,7,0,0,0,1.2-1.91,7.67,7.67,0,0,0,.59-2.23,10,10,0,0,0,0-2.32,7.18,7.18,0,0,0-1.73-4.05,5,5,0,0,0-3.91-1.56,6.39,6.39,0,0,0-3.09.78,6.76,6.76,0,0,0-2.28,2,9.08,9.08,0,0,0-1.29,2.76,7.7,7.7,0,0,0-.24,3Zm6.11,3.21a3.32,3.32,0,0,1-2.37-.94,4.07,4.07,0,0,1-1.16-2.49h0a6.15,6.15,0,0,1,.27-2.68,5.19,5.19,0,0,1,1.53-2.31,3.86,3.86,0,0,1,2.64-1,3.26,3.26,0,0,1,2.4.9A3.83,3.83,0,0,1,37.3,24.1,6.37,6.37,0,0,1,37,26.8a5.72,5.72,0,0,1-1.53,2.43A3.59,3.59,0,0,1,32.93,30.28Zm.91-8.89a3.32,3.32,0,0,0-2.31.85,4.65,4.65,0,0,0-1.38,2.09,5.6,5.6,0,0,0-.25,2.46h0a3.54,3.54,0,0,0,1,2.19,2.76,2.76,0,0,0,2,.8,3.11,3.11,0,0,0,2.21-.91,5.33,5.33,0,0,0,1.39-2.23,5.67,5.67,0,0,0,.27-2.48,3.34,3.34,0,0,0-.92-2A2.7,2.7,0,0,0,33.84,21.39Z"/><path class="cls-7" d="M20.24,33a5,5,0,0,1-3.63-1.5,1.11,1.11,0,0,1-.5.17H16L16,31.58a2.64,2.64,0,0,1-1-1.66h0a1.13,1.13,0,0,1,0-.32c0-.3.32-.61.88-1a6.72,6.72,0,0,1,2.1-.85l.08,0,.08,0a2.39,2.39,0,0,1,.86.74,2.43,2.43,0,0,1,.54,1,.37.37,0,0,1-.2.37h0a2.13,2.13,0,0,0,1,.22,2.24,2.24,0,0,0,1.58-.61A1.57,1.57,0,0,0,22.33,28a2.16,2.16,0,0,0-.95-1.4,2.06,2.06,0,0,1-1.11-.07l-.09-.07a3,3,0,0,1-.73-1.72,2.69,2.69,0,0,1,.12-1.31l.05-.07a1,1,0,0,1,.83-.29l.56,0,.27,0a1,1,0,0,0,.54-1,1.36,1.36,0,0,0-.64-.94,2.2,2.2,0,0,0-1.33-.43,1.92,1.92,0,0,0-.79.16l.12.31,0,.08c-.07.26-.37.39-.59.47a2.17,2.17,0,0,1-.73.14c-.43,0-.86-.32-1.3-1a4.7,4.7,0,0,1-.76-1.59l0-.08,0-.07a1.74,1.74,0,0,1,.63-.73,1.88,1.88,0,0,1,1-.39h.1l.15.14A5.74,5.74,0,0,1,19.49,18a6.07,6.07,0,0,1,3.3.93,3.67,3.67,0,0,1,1.73,2.79,4.11,4.11,0,0,1-1.15,3.37,4.4,4.4,0,0,1,2,3A3.8,3.8,0,0,1,24,31.51,5.4,5.4,0,0,1,20.24,33Zm-3.53-2.11.13.13a4.54,4.54,0,0,0,3.4,1.48,4.91,4.91,0,0,0,3.43-1.33A3.3,3.3,0,0,0,24.9,28.2a4.07,4.07,0,0,0-2.06-2.84l-.25-.17.22-.22A3.65,3.65,0,0,0,24,21.8a3.17,3.17,0,0,0-1.5-2.43,5.54,5.54,0,0,0-3-.85,5.35,5.35,0,0,0-1.75.28l-.14,0-.21-.19a1.36,1.36,0,0,0-.67.28,1.53,1.53,0,0,0-.44.45A4.92,4.92,0,0,0,17,20.73c.43.62.72.75.89.75a1.81,1.81,0,0,0,.57-.12.94.94,0,0,0,.22-.1l-.21-.52.2-.1a2.66,2.66,0,0,1,2.85.21,1.85,1.85,0,0,1,.84,1.28,1.49,1.49,0,0,1-.84,1.52l-.06,0h-.07l-.39,0-.5,0a.76.76,0,0,0-.43.09,2.2,2.2,0,0,0-.07,1,2.52,2.52,0,0,0,.56,1.4,1.56,1.56,0,0,0,.86,0l.11,0,.1.07A2.59,2.59,0,0,1,22.82,28a2.06,2.06,0,0,1-.7,1.86,2.78,2.78,0,0,1-1.91.73,2.68,2.68,0,0,1-1.56-.49l-.23-.16.18-.21.21-.18.11-.07a2.53,2.53,0,0,0-.4-.64,2,2,0,0,0-.6-.56,6.1,6.1,0,0,0-1.85.76c-.6.41-.65.61-.66.64s0,.17,0,.2a2.09,2.09,0,0,0,.78,1.26l.36-.18Z"/><path class="cls-7" d="M33.25,32.75a6.69,6.69,0,0,1-4.59-1.63,6.5,6.5,0,0,1-2.13-4.19h0a8.14,8.14,0,0,1,.25-3.16,9.38,9.38,0,0,1,1.37-2.91,7.09,7.09,0,0,1,2.44-2.16,6.79,6.79,0,0,1,3.33-.85,5.5,5.5,0,0,1,4.28,1.73,7.62,7.62,0,0,1,1.85,4.32,10.39,10.39,0,0,1,0,2.43,8.3,8.3,0,0,1-.63,2.38,7.74,7.74,0,0,1-1.28,2,5.77,5.77,0,0,1-2.07,1.46A7.12,7.12,0,0,1,33.25,32.75ZM27,26.87a6,6,0,0,0,2,3.87,6.17,6.17,0,0,0,4.25,1.51,6.77,6.77,0,0,0,2.65-.5,5.27,5.27,0,0,0,1.88-1.33A7,7,0,0,0,39,28.51a7.67,7.67,0,0,0,.59-2.23,10,10,0,0,0,0-2.32,7.18,7.18,0,0,0-1.73-4.05,5,5,0,0,0-3.91-1.56,6.39,6.39,0,0,0-3.09.78,6.76,6.76,0,0,0-2.28,2,9.08,9.08,0,0,0-1.29,2.76,7.7,7.7,0,0,0-.24,3Zm6.11,3.21a3.33,3.33,0,0,1-2.37-.94,4.07,4.07,0,0,1-1.16-2.49h0A6.15,6.15,0,0,1,29.87,24a5.19,5.19,0,0,1,1.53-2.31,3.86,3.86,0,0,1,2.64-1,3.26,3.26,0,0,1,2.4.9A3.83,3.83,0,0,1,37.5,23.9a6.37,6.37,0,0,1-.29,2.7A5.72,5.72,0,0,1,35.68,29,3.59,3.59,0,0,1,33.13,30.08ZM34,21.19a3.32,3.32,0,0,0-2.31.85,4.65,4.65,0,0,0-1.38,2.09,5.6,5.6,0,0,0-.25,2.46h0a3.54,3.54,0,0,0,1,2.19,2.78,2.78,0,0,0,2,.8,3.11,3.11,0,0,0,2.21-.91,5.33,5.33,0,0,0,1.39-2.23A5.67,5.67,0,0,0,37,24a3.34,3.34,0,0,0-.92-2A2.7,2.7,0,0,0,34,21.19Z"/><path class="cls-7" d="M20.44,32.77a5,5,0,0,1-3.63-1.5,1.11,1.11,0,0,1-.5.17h-.09l-.07-.06a2.64,2.64,0,0,1-1-1.66h0a1.13,1.13,0,0,1,0-.32c0-.3.32-.61.88-1a6.82,6.82,0,0,1,2.1-.85l.08,0,.08,0a2.39,2.39,0,0,1,.86.74,2.43,2.43,0,0,1,.54,1,.36.36,0,0,1-.2.37h0a2.14,2.14,0,0,0,1,.22,2.27,2.27,0,0,0,1.57-.6,1.59,1.59,0,0,0,.54-1.43,2.16,2.16,0,0,0-1-1.4,2.06,2.06,0,0,1-1.11-.07l-.09-.06a3.08,3.08,0,0,1-.73-1.73,2.69,2.69,0,0,1,.12-1.31l.05-.07a1.06,1.06,0,0,1,.83-.29l.56,0,.27,0A1,1,0,0,0,22,22a1.36,1.36,0,0,0-.64-.94,2.2,2.2,0,0,0-1.33-.43,2.1,2.1,0,0,0-.79.16l.12.31,0,.08c-.07.26-.37.39-.59.47a2.17,2.17,0,0,1-.73.14c-.43,0-.86-.32-1.3-1a4.74,4.74,0,0,1-.76-1.6l0-.07,0-.08a1.74,1.74,0,0,1,.63-.73,1.88,1.88,0,0,1,1.05-.39h.1l.15.14a5.74,5.74,0,0,1,1.77-.26,6.07,6.07,0,0,1,3.3.93,3.67,3.67,0,0,1,1.73,2.79,4.11,4.11,0,0,1-1.15,3.37,4.4,4.4,0,0,1,2,3,3.8,3.8,0,0,1-1.4,3.37A5.4,5.4,0,0,1,20.44,32.77Zm-3.53-2.11.13.13a4.54,4.54,0,0,0,3.4,1.48,4.91,4.91,0,0,0,3.43-1.33A3.3,3.3,0,0,0,25.1,28,4.07,4.07,0,0,0,23,25.16L22.79,25l.22-.22a3.64,3.64,0,0,0,1.21-3.16,3.17,3.17,0,0,0-1.5-2.44,5.54,5.54,0,0,0-3-.85,5.35,5.35,0,0,0-1.75.28l-.14,0-.21-.2a1.36,1.36,0,0,0-.67.28,1.66,1.66,0,0,0-.44.45,4.92,4.92,0,0,0,.67,1.35c.43.62.72.75.89.75a1.81,1.81,0,0,0,.57-.12,1,1,0,0,0,.22-.09l-.2-.52.19-.11a2.66,2.66,0,0,1,2.85.21,1.85,1.85,0,0,1,.84,1.28,1.49,1.49,0,0,1-.84,1.52l-.06,0h-.07l-.39,0-.5,0a.68.68,0,0,0-.43.1,2.14,2.14,0,0,0-.07,1,2.52,2.52,0,0,0,.56,1.4,1.56,1.56,0,0,0,.86,0l.11,0,.1.07A2.59,2.59,0,0,1,23,27.78a2.06,2.06,0,0,1-.7,1.86,2.77,2.77,0,0,1-1.9.73,2.68,2.68,0,0,1-1.57-.49l-.23-.16.18-.21.21-.18.11-.07a2.53,2.53,0,0,0-.4-.64,2,2,0,0,0-.6-.56,6.1,6.1,0,0,0-1.85.76c-.6.41-.65.61-.66.64a2.07,2.07,0,0,0,0,.21,2.15,2.15,0,0,0,.78,1.25c.06,0,.17-.07.36-.17Z"/><path class="cls-7" d="M33.45,32.55a6.69,6.69,0,0,1-4.59-1.63,6.5,6.5,0,0,1-2.13-4.19h0A8.14,8.14,0,0,1,27,23.57a9.38,9.38,0,0,1,1.37-2.91,7.09,7.09,0,0,1,2.44-2.16,6.79,6.79,0,0,1,3.33-.85,5.5,5.5,0,0,1,4.28,1.73,7.62,7.62,0,0,1,1.85,4.32,10.39,10.39,0,0,1,0,2.43,8.3,8.3,0,0,1-.63,2.38,8,8,0,0,1-1.28,2A5.75,5.75,0,0,1,36.29,32,7.12,7.12,0,0,1,33.45,32.55Zm-6.23-5.88a6,6,0,0,0,2,3.87,6.13,6.13,0,0,0,4.25,1.51,6.77,6.77,0,0,0,2.65-.5A5.25,5.25,0,0,0,38,30.23a7.24,7.24,0,0,0,1.2-1.92,7.67,7.67,0,0,0,.59-2.23,10,10,0,0,0,0-2.32A7.18,7.18,0,0,0,38,19.71a5,5,0,0,0-3.91-1.56,6.29,6.29,0,0,0-3.09.79,6.63,6.63,0,0,0-2.28,2,9.08,9.08,0,0,0-1.29,2.76,7.7,7.7,0,0,0-.24,3Zm6.11,3.21A3.29,3.29,0,0,1,31,28.94a4.07,4.07,0,0,1-1.16-2.49h0a6.15,6.15,0,0,1,.27-2.68,5.19,5.19,0,0,1,1.53-2.31,3.86,3.86,0,0,1,2.64-1,3.26,3.26,0,0,1,2.4.9A3.83,3.83,0,0,1,37.7,23.7a6.37,6.37,0,0,1-.29,2.7,5.72,5.72,0,0,1-1.53,2.43A3.59,3.59,0,0,1,33.33,29.88ZM34.24,21a3.32,3.32,0,0,0-2.31.85,4.65,4.65,0,0,0-1.38,2.09,5.6,5.6,0,0,0-.25,2.46h0a3.51,3.51,0,0,0,1,2.19,2.78,2.78,0,0,0,2,.8,3.11,3.11,0,0,0,2.21-.91,5.27,5.27,0,0,0,1.39-2.23,5.67,5.67,0,0,0,.27-2.48,3.34,3.34,0,0,0-.92-2A2.7,2.7,0,0,0,34.24,21Z"/><path class="cls-7" d="M20.64,32.57A5,5,0,0,1,17,31.07a1.15,1.15,0,0,1-.5.17h-.09l-.07-.06a2.7,2.7,0,0,1-1.05-1.66h0a1.81,1.81,0,0,1,0-.32c0-.3.32-.61.88-1a6.72,6.72,0,0,1,2.1-.85l.08,0,.07,0a2.33,2.33,0,0,1,.87.74,2.27,2.27,0,0,1,.53,1,.34.34,0,0,1-.2.37h0a2.13,2.13,0,0,0,1,.22,2.29,2.29,0,0,0,1.58-.6,1.56,1.56,0,0,0,.53-1.43,2.11,2.11,0,0,0-.94-1.4,2.06,2.06,0,0,1-1.11-.07l-.09-.06a3.08,3.08,0,0,1-.73-1.73A2.69,2.69,0,0,1,20,23.07L20,23a1.06,1.06,0,0,1,.83-.29l.56,0,.27,0a1,1,0,0,0,.54-1,1.4,1.4,0,0,0-.64-.94,2.2,2.2,0,0,0-1.33-.43,2.1,2.1,0,0,0-.79.16l.12.31,0,.08c-.07.26-.37.39-.59.47a2.17,2.17,0,0,1-.73.14c-.43,0-.86-.32-1.3-1a5,5,0,0,1-.77-1.6v-.07l0-.08a1.74,1.74,0,0,1,.63-.73,1.88,1.88,0,0,1,1.05-.39H18l.15.14a5.74,5.74,0,0,1,1.77-.26,6.07,6.07,0,0,1,3.3.93,3.67,3.67,0,0,1,1.73,2.79,4.11,4.11,0,0,1-1.15,3.37,4.43,4.43,0,0,1,2,3,3.8,3.8,0,0,1-1.4,3.37A5.4,5.4,0,0,1,20.64,32.57Zm-3.53-2.11.13.13a4.54,4.54,0,0,0,3.4,1.48,4.91,4.91,0,0,0,3.43-1.33A3.3,3.3,0,0,0,25.3,27.8,4.07,4.07,0,0,0,23.24,25L23,24.79l.22-.22a3.65,3.65,0,0,0,1.21-3.17A3.17,3.17,0,0,0,22.92,19a5.56,5.56,0,0,0-3-.85,5.31,5.31,0,0,0-1.75.28l-.14,0-.21-.19a1.36,1.36,0,0,0-.67.28,1.66,1.66,0,0,0-.44.45,4.92,4.92,0,0,0,.67,1.35c.43.62.72.75.89.75a1.81,1.81,0,0,0,.57-.12.65.65,0,0,0,.22-.1l-.21-.51.2-.11a2.66,2.66,0,0,1,2.85.21,1.85,1.85,0,0,1,.84,1.28,1.49,1.49,0,0,1-.84,1.52l-.06,0h-.07l-.39,0-.5,0a.68.68,0,0,0-.43.1,2.14,2.14,0,0,0-.07,1,2.52,2.52,0,0,0,.56,1.4,1.56,1.56,0,0,0,.86,0l.11,0,.09.07a2.58,2.58,0,0,1,1.25,1.81,2.06,2.06,0,0,1-.7,1.86,2.78,2.78,0,0,1-1.91.73,2.68,2.68,0,0,1-1.56-.49l-.23-.16.18-.21.21-.18.11-.07a2.53,2.53,0,0,0-.4-.64,2,2,0,0,0-.6-.56,6.1,6.1,0,0,0-1.85.76c-.6.41-.66.61-.66.64a2.07,2.07,0,0,0,0,.21,2.1,2.1,0,0,0,.78,1.25c.06,0,.17-.07.36-.17Z"/><path class="cls-7" d="M33.65,32.35a6.69,6.69,0,0,1-4.59-1.63,6.56,6.56,0,0,1-2.14-4.19h0a8.34,8.34,0,0,1,.26-3.16,9.16,9.16,0,0,1,1.37-2.91A7,7,0,0,1,31,18.3a6.79,6.79,0,0,1,3.33-.85,5.5,5.5,0,0,1,4.28,1.73,7.62,7.62,0,0,1,1.85,4.32,10.39,10.39,0,0,1,0,2.43,8.3,8.3,0,0,1-.63,2.38,8,8,0,0,1-1.28,2.05,5.87,5.87,0,0,1-2.07,1.45A7.12,7.12,0,0,1,33.65,32.35Zm-6.23-5.88a6,6,0,0,0,2,3.87,6.13,6.13,0,0,0,4.25,1.51,6.77,6.77,0,0,0,2.65-.5A5.15,5.15,0,0,0,38.18,30a7,7,0,0,0,1.2-1.91A8,8,0,0,0,40,25.88a10,10,0,0,0,0-2.32,7.18,7.18,0,0,0-1.73-4A5,5,0,0,0,34.32,18a6.39,6.39,0,0,0-3.09.78,6.76,6.76,0,0,0-2.28,2,9.08,9.08,0,0,0-1.29,2.76,7.51,7.51,0,0,0-.24,3Zm6.11,3.21a3.32,3.32,0,0,1-2.37-.94A4,4,0,0,1,30,26.25h0a6.15,6.15,0,0,1,.27-2.68,5.19,5.19,0,0,1,1.53-2.31,3.86,3.86,0,0,1,2.64-1,3.26,3.26,0,0,1,2.4.9A3.83,3.83,0,0,1,37.9,23.5a6.37,6.37,0,0,1-.29,2.7,5.72,5.72,0,0,1-1.53,2.43A3.59,3.59,0,0,1,33.53,29.68Zm.91-8.89a3.32,3.32,0,0,0-2.31.85,4.65,4.65,0,0,0-1.38,2.09,5.6,5.6,0,0,0-.25,2.46h0a3.56,3.56,0,0,0,1,2.19,2.8,2.8,0,0,0,2,.8,3.11,3.11,0,0,0,2.21-.91A5.27,5.27,0,0,0,37.13,26a5.67,5.67,0,0,0,.27-2.48,3.34,3.34,0,0,0-.92-2A2.7,2.7,0,0,0,34.44,20.79Z"/><path class="cls-7" d="M20.84,32.37a5,5,0,0,1-3.63-1.5,1.11,1.11,0,0,1-.5.17h-.09L16.55,31a2.7,2.7,0,0,1-1.05-1.66h0a1.81,1.81,0,0,1,0-.32c0-.3.32-.61.88-1a6.72,6.72,0,0,1,2.1-.85l.08,0,.07,0a2.33,2.33,0,0,1,.87.74,2.43,2.43,0,0,1,.54,1,.36.36,0,0,1-.21.37h0a2.13,2.13,0,0,0,1,.22,2.26,2.26,0,0,0,1.58-.61,1.53,1.53,0,0,0,.53-1.42A2.11,2.11,0,0,0,22,26,2.06,2.06,0,0,1,20.87,26l-.09-.07a3,3,0,0,1-.73-1.72,2.69,2.69,0,0,1,.12-1.31l0-.07a1.06,1.06,0,0,1,.83-.29l.56,0,.27,0a1,1,0,0,0,.54-1,1.36,1.36,0,0,0-.64-.94,2.2,2.2,0,0,0-1.33-.43,1.92,1.92,0,0,0-.79.16l.12.31,0,.08c-.07.26-.37.39-.59.47a2.17,2.17,0,0,1-.73.14c-.43,0-.86-.32-1.3-1a4.62,4.62,0,0,1-.76-1.59l0-.08,0-.07a1.74,1.74,0,0,1,.63-.73,1.88,1.88,0,0,1,1.05-.39h.1l.15.14a5.74,5.74,0,0,1,1.77-.26,6.07,6.07,0,0,1,3.3.93,3.67,3.67,0,0,1,1.73,2.79A4.11,4.11,0,0,1,24,24.51a4.43,4.43,0,0,1,2,3,3.8,3.8,0,0,1-1.4,3.37A5.4,5.4,0,0,1,20.84,32.37Zm-3.53-2.11.13.13a4.54,4.54,0,0,0,3.4,1.48,4.91,4.91,0,0,0,3.43-1.33A3.3,3.3,0,0,0,25.5,27.6a4.07,4.07,0,0,0-2.06-2.84l-.25-.17.22-.22a3.65,3.65,0,0,0,1.21-3.17,3.17,3.17,0,0,0-1.5-2.43,5.56,5.56,0,0,0-3-.85,5.31,5.31,0,0,0-1.75.28l-.14,0L18,18.05a1.36,1.36,0,0,0-.67.28,1.53,1.53,0,0,0-.44.45,4.92,4.92,0,0,0,.67,1.35c.43.62.72.75.89.75a1.81,1.81,0,0,0,.57-.12.65.65,0,0,0,.22-.1L19,20.15l.2-.11a2.66,2.66,0,0,1,2.85.21,1.85,1.85,0,0,1,.84,1.28,1.49,1.49,0,0,1-.84,1.52l-.06,0h-.07l-.39,0-.5,0a.68.68,0,0,0-.43.1,2.14,2.14,0,0,0-.07,1,2.52,2.52,0,0,0,.56,1.4,1.56,1.56,0,0,0,.86,0l.11,0,.09.07a2.58,2.58,0,0,1,1.25,1.81,2.06,2.06,0,0,1-.7,1.86,2.78,2.78,0,0,1-1.91.73,2.68,2.68,0,0,1-1.56-.49L19,29.32l.18-.21.21-.18.11-.07a2.53,2.53,0,0,0-.4-.64,2,2,0,0,0-.6-.56,6.1,6.1,0,0,0-1.85.76c-.6.41-.66.61-.66.64a2.07,2.07,0,0,0,0,.21,2.1,2.1,0,0,0,.78,1.25l.36-.17Z"/><path class="cls-7" d="M33.85,32.15a6.69,6.69,0,0,1-4.59-1.63,6.5,6.5,0,0,1-2.13-4.19h0a8.14,8.14,0,0,1,.25-3.16,9.16,9.16,0,0,1,1.37-2.91,7,7,0,0,1,2.44-2.16,6.79,6.79,0,0,1,3.33-.85A5.5,5.5,0,0,1,38.8,19a7.62,7.62,0,0,1,1.85,4.32,10.39,10.39,0,0,1,0,2.43A8.3,8.3,0,0,1,40,28.11a7.74,7.74,0,0,1-1.28,2,5.77,5.77,0,0,1-2.07,1.46A7.12,7.12,0,0,1,33.85,32.15Zm-6.23-5.88a6,6,0,0,0,2,3.87,6.13,6.13,0,0,0,4.25,1.51,6.77,6.77,0,0,0,2.65-.5,5.15,5.15,0,0,0,1.88-1.33,7,7,0,0,0,1.2-1.91,7.67,7.67,0,0,0,.59-2.23,10,10,0,0,0,0-2.32,7.18,7.18,0,0,0-1.73-4.05,5,5,0,0,0-3.91-1.56,6.39,6.39,0,0,0-3.09.78,6.76,6.76,0,0,0-2.28,2,9.08,9.08,0,0,0-1.29,2.76,7.7,7.7,0,0,0-.24,3Zm6.11,3.21a3.32,3.32,0,0,1-2.37-.94,4,4,0,0,1-1.16-2.49h0a6.15,6.15,0,0,1,.27-2.68A5.19,5.19,0,0,1,32,21.06a3.86,3.86,0,0,1,2.64-1A3.26,3.26,0,0,1,37,21,3.83,3.83,0,0,1,38.1,23.3a6.37,6.37,0,0,1-.29,2.7,5.72,5.72,0,0,1-1.53,2.43A3.59,3.59,0,0,1,33.73,29.48Zm.91-8.89a3.32,3.32,0,0,0-2.31.85A4.65,4.65,0,0,0,31,23.53,5.6,5.6,0,0,0,30.7,26h0a3.54,3.54,0,0,0,1,2.19,2.76,2.76,0,0,0,2,.8,3.11,3.11,0,0,0,2.21-.91,5.33,5.33,0,0,0,1.39-2.23,5.67,5.67,0,0,0,.27-2.48,3.34,3.34,0,0,0-.92-2A2.7,2.7,0,0,0,34.64,20.59Z"/><path class="cls-8" d="M15.75,29.29c0-.06,0-.15,0-.26s.29-.49.77-.82a6.55,6.55,0,0,1,2-.82,2.3,2.3,0,0,1,.77.67,2.13,2.13,0,0,1,.48.87s0,.07-.07.1l-.18.11-.16.13a2.38,2.38,0,0,0,1.42.45,2.48,2.48,0,0,0,1.74-.67,1.78,1.78,0,0,0,.62-1.64A2.35,2.35,0,0,0,22,25.77a1.66,1.66,0,0,1-1.07,0,2.7,2.7,0,0,1-.66-1.58A2.47,2.47,0,0,1,20.4,23a.87.87,0,0,1,.65-.2l.53,0,.36,0a1.28,1.28,0,0,0,.73-1.28,1.66,1.66,0,0,0-.74-1.11A2.47,2.47,0,0,0,20.45,20a2.24,2.24,0,0,0-1.11.29l.17.44q0,.16-.42.3a2,2,0,0,1-.65.13c-.34,0-.7-.29-1.1-.86a4.59,4.59,0,0,1-.72-1.51,1.55,1.55,0,0,1,.55-.63,1.65,1.65,0,0,1,.91-.34l.18.17a5.57,5.57,0,0,1,1.83-.29,5.73,5.73,0,0,1,3.16.89,3.41,3.41,0,0,1,1.62,2.61,3.92,3.92,0,0,1-1.29,3.38,4.3,4.3,0,0,1,2.17,3,3.56,3.56,0,0,1-1.32,3.16,5.12,5.12,0,0,1-3.59,1.39,4.78,4.78,0,0,1-3.58-1.55,1.65,1.65,0,0,1-.55.22A2.43,2.43,0,0,1,15.75,29.29Z"/><path class="cls-8" d="M27.37,26.3a7.82,7.82,0,0,1,.25-3.06A9.14,9.14,0,0,1,29,20.4a6.91,6.91,0,0,1,2.36-2.08,6.42,6.42,0,0,1,3.21-.82,5.25,5.25,0,0,1,4.09,1.64,7.44,7.44,0,0,1,1.8,4.19,10.44,10.44,0,0,1,0,2.37A8.22,8.22,0,0,1,39.81,28a7.44,7.44,0,0,1-1.24,2,5.47,5.47,0,0,1-2,1.39,6.8,6.8,0,0,1-2.74.52,6.38,6.38,0,0,1-4.42-1.57A6.24,6.24,0,0,1,27.37,26.3ZM30.45,26a3.77,3.77,0,0,0,1.08,2.34,3.06,3.06,0,0,0,2.2.87,3.37,3.37,0,0,0,2.38-1,5.49,5.49,0,0,0,1.46-2.33,6,6,0,0,0,.28-2.59,3.6,3.6,0,0,0-1-2.16,3,3,0,0,0-2.22-.83,3.64,3.64,0,0,0-2.48.91,4.91,4.91,0,0,0-1.45,2.2A5.8,5.8,0,0,0,30.45,26Z"/><path class="cls-9" d="M10.15,7.5c-1.12,1.78,2.59,7.33,13.13,13s18.62-9.76,18.95-13S11.13,5.93,10.15,7.5Z"/><path class="cls-10" d="M9.05,5.84l.47,12.5S16.35,20,17,20s2.27-2.11,3.1-2,2.26,1.58,2.46,1.47a5.77,5.77,0,0,1,2.88-.63c1.8,0,7.36,1.06,9,.42s4.73-2.36,6.56-2.12,3.21.37,3.21.37L42.82,5.84Z"/><path class="cls-11" d="M9.05,5.84l-.29.57s1.94,9.26,2,9.3,5-.05,5.14.09a9.16,9.16,0,0,0,1.56.93c.19,0,1.86-1.82,2.4-1.88a11.27,11.27,0,0,1,2.67.86c.43.14,3.22-.22,5.72-.22s4.87.16,5.86.22,4.19-1.67,6-1.8,4.82.71,5,.65a4.83,4.83,0,0,0,.78-.46Z"/><path class="cls-12" d="M9.05,5.84l2,8.84s5.25,1,5.88,1,2.27-1.47,3.1-1.4,2.26,1.1,2.46,1a7.81,7.81,0,0,1,2.88-.44c1.8,0,7.36.73,9,.29s4.73-1.64,6.56-1.48,4.89.39,4.89.39L42.82,5.84Z"/><ellipse class="cls-13" cx="16.98" cy="10.17" rx="1.73" ry="2.24"/><ellipse class="cls-13" cx="23.28" cy="10.17" rx="1.73" ry="2.24"/><ellipse class="cls-13" cx="29.57" cy="10.17" rx="1.73" ry="2.24"/><path class="cls-14" d="M27.76,9.27s-.46,2.06,1,2.47S34,5.57,31.31,1.62c-2.34-3.47-7-.79-7,2.65l1.88,0a1.79,1.79,0,0,1,2.67-1.12C30.7,4.07,29.59,7.92,27.76,9.27Z"/><path class="cls-13" d="M37.92,10.17a2,2,0,0,1-1.73,2.24,2,2,0,0,1-1.72-2.24,2,2,0,0,1,1.72-2.24A2,2,0,0,1,37.92,10.17Z"/><path class="cls-15" d="M34.39,9.27s-.46,2.06,1,2.47,5.24-6.17,2.58-10.12c-2.33-3.47-7-.79-7,2.65l1.88,0a1.79,1.79,0,0,1,2.67-1.12C37.33,4.07,36.22,7.92,34.39,9.27Z"/><path class="cls-16" d="M15.4,9.27s-.46,2.06,1,2.47S21.61,5.57,19,1.62c-2.34-3.47-7-.79-7,2.65l1.88,0A1.78,1.78,0,0,1,16.5,3.13C18.35,4.07,17.24,7.92,15.4,9.27Z"/><path class="cls-17" d="M21.58,9.27s-.46,2.06,1,2.47,5.23-6.17,2.58-10.12c-2.34-3.47-7-.79-7,2.65l1.88,0a1.78,1.78,0,0,1,2.66-1.12C24.53,4.07,23.41,7.92,21.58,9.27Z"/><path class="cls-18" d="M15.09,44.29c-1.48-.66.49-2.42,3.3-2.74s19.67,1.15,21.09,1.37.63,1.53.63,1.53Z"/><path class="cls-4" d="M9.87,52.9c-1.8-.5.2-2.57,2.42-2.57s27-.16,30.46,0,1.46,2.73-.37,3S9.87,52.9,9.87,52.9Z"/><path class="cls-19" d="M6,46.85c-1.74-1.62-1,3.29.59,4.58S8,52.62,9.48,51.16s.52-1.82-1.2-2.55A4.89,4.89,0,0,1,6,46.85Z"/><path class="cls-20" d="M2.34,6C1.76,4.37,1.2,8.7,1.1,13.78S2.9,37.51,3.23,41.21s.87.08.95-1.28S2.34,6,2.34,6Z"/><path class="cls-19" d="M9.49,39.39c-.16-2.13.85-3.84,1.32-3.45s1.79,3.32,3.59,4.56-.16,2.92-.26,3.26S10.48,43.18,9.49,39.39Z"/><path class="cls-21" d="M8.36,7.54c-.3-.7.15,9,0,15.88s.76,13.19,1.11,13.35,1.42-2.5,1.29-4S8.36,7.54,8.36,7.54Z"/><path class="cls-22" d="M42.69,49.81a8.25,8.25,0,0,1-1.22.09H12.73A8.36,8.36,0,0,1,4.39,42l0-.76.1-.17a9.75,9.75,0,0,0,5.07,6.78C13.74,49.84,41.52,49.82,42.69,49.81Z"/><path class="cls-23" d="M10.93,49.7c-.62-.47-.18-1,.87-.93a7.73,7.73,0,0,1,2.35.7C14.94,49.9,12,50.18,10.93,49.7Z"/><path class="cls-24" d="M35.77,11.31c-1.25-.3.27-3.15,1.5-3.53s.46,1.64-.16,2.58A1.8,1.8,0,0,1,35.77,11.31Z"/><path class="cls-19" d="M15,.4c-1.31.9,2.39,1.1,2.53,4.06s2.17,2.28,2.2-.33S16.69-.75,15,.4Z"/><path class="cls-19" d="M21.28.4c-1.31.9,2.39,1.1,2.53,4.06S26,6.74,26,4.13,23-.75,21.28.4Z"/><path class="cls-19" d="M27.5.4c-1.31.9,2.39,1.1,2.52,4.06s2.17,2.28,2.2-.33S29.17-.75,27.5.4Z"/><path class="cls-19" d="M33.82.4c-1.32.9,2.39,1.1,2.52,4.06s2.17,2.28,2.2-.33S35.49-.75,33.82.4Z"/><path class="cls-23" d="M18,.87C17.4.68,18,2.35,18.5,2.62S19.06,1.17,18,.87Z"/><path class="cls-23" d="M24.52,1.58c-.28-.14-.1.82.28.93S24.79,1.72,24.52,1.58Z"/><path class="cls-23" d="M36.81.85c-.65,0-.21,1.39.51,1.8S37.46.81,36.81.85Z"/><path class="cls-4" d="M32,1.78c-.31.4.33,2.24.47,2.35s.74-1.29,2.23-1.27S33.54,1.06,33,1.11A1.47,1.47,0,0,0,32,1.78Z"/><path class="cls-4" d="M25.42,1.78a9.85,9.85,0,0,0,.75,1.92c.15.11.46-.86,1.95-.84S27,1.06,26.39,1.11A1.47,1.47,0,0,0,25.42,1.78Z"/><path class="cls-4" d="M19.2,1.78A8.73,8.73,0,0,0,20,3.7c.14.11.46-.86,1.95-.84s-1.14-1.8-1.73-1.75A1.47,1.47,0,0,0,19.2,1.78Z"/><path class="cls-4" d="M13,1.78c-1.07,2.49.6,1.8.75,1.92s.46-.86,2-.84S14.58,1.06,14,1.11A1.47,1.47,0,0,0,13,1.78Z"/><path class="cls-19" d="M16.63,11.31c-1.25-.3.26-3.15,1.5-3.53s.45,1.64-.16,2.58A1.82,1.82,0,0,1,16.63,11.31Z"/><path class="cls-19" d="M23,11.31c-1.25-.3.26-3.15,1.5-3.53s.45,1.64-.16,2.58A1.82,1.82,0,0,1,23,11.31Z"/><path class="cls-24" d="M29,11.31c-1.25-.3.27-3.15,1.5-3.53s.45,1.64-.16,2.58A1.82,1.82,0,0,1,29,11.31Z"/><path class="cls-25" d="M19.87,14.79c-.23-.3-.22-.33.43-.34a5.56,5.56,0,0,1,2.18,1c.08.09-2.55-.59-2.55-.59Z"/><path class="cls-25" d="M28.71,15.12c-1.45.11,1.95.41,2.68.44l1.94.1A29.51,29.51,0,0,0,28.71,15.12Z"/><path class="cls-25" d="M15.91,15.8c-.25-.17.6-.11.93-.06s.59.88.59.93S15.91,15.8,15.91,15.8Z"/><path class="cls-25" d="M10.77,15.71c.2.15.07-2.17-.25-3.55s-1.44-6-1.44-6,0,.44,0,1S10.77,15.71,10.77,15.71Z"/><path class="cls-25" d="M40.24,13.71c-.42.23,2.3.19,3.49.61a2,2,0,0,0,1.93-.24A48.66,48.66,0,0,0,40.24,13.71Z"/><g class="cls-26"><path class="cls-27" d="M39.15,39.3c-2.38-1.79,2.57-3.15,3.69-1.74S42.22,41.6,39.15,39.3Z"/><path class="cls-27" d="M42.08,36.29c-.28.67,1.1,1.05,1.24.35A.64.64,0,0,0,42.08,36.29Z"/><path class="cls-27" d="M16.55,37.48c-1,.64.85,2.2,1.73,1.21S18.23,36.41,16.55,37.48Z"/></g><path class="cls-28" d="M22.54,49.9c-1.61-1.1,12-2.73,17-4.19s5.25-3.58,7.34-5.5S50,44.72,46.24,48C43.47,50.41,22.54,49.9,22.54,49.9Z"/><path class="cls-29" d="M2.5,27.14a3.14,3.14,0,0,1,.74-3.4c.94-.62,1.53,2.21,1.22,3.11S2.81,27.57,2.5,27.14Z"/><path class="cls-30" d="M3.08,24c-.59.37-.36,1.49.1,2s1.1-.67.87-1.41S3.81,23.51,3.08,24Z"/><path class="cls-31" d="M2.28,25.83a1.47,1.47,0,0,0,.64,1.31c.7.39,1.41-.57,1.48-1.15a3.76,3.76,0,0,0,0-1.07s.44,1.67.08,2.21-1.82.54-2.07,0A2.77,2.77,0,0,1,2.28,25.83Z"/><path class="cls-32" d="M3.74,27.5c-.26-.09.25-.56.48-1s.34.38.19.66S3.74,27.5,3.74,27.5Z"/><path class="cls-33" d="M30.85,49.81c-.4-.84,2.31-2,3.27-1.51s1.37,1,1.24,1.66S32.26,52.78,30.85,49.81Z"/><path class="cls-30" d="M31.22,49c-.76,1.39,2.75,1.7,3.39,1s-.34-1.69-1.18-1.76A5.16,5.16,0,0,0,31.22,49Z"/><path class="cls-31" d="M30.85,49.81S32,51.46,33.56,51.1,35.36,50,35.36,50a2.73,2.73,0,0,1-2.44,1.71A2.13,2.13,0,0,1,30.85,49.81Z"/><path class="cls-32" d="M33.8,51.51c-.24-.13.85-.77.85-.77S34.88,51.07,33.8,51.51Z"/><path class="cls-34" d="M39,47.51c-1.42.84,1,1.86,1.51,1.22S41.23,46.2,39,47.51Z"/><path class="cls-35" d="M38.64,48.29a1.36,1.36,0,0,0,1.27.43c.57,0,.92-.73.92-.73a1.27,1.27,0,0,1-.78,1.1C39.31,49.33,38.64,48.29,38.64,48.29Z"/></g></g></g></svg>