<svg xmlns="http://www.w3.org/2000/svg" xmlns:xlink="http://www.w3.org/1999/xlink" viewBox="0 0 50.68 46.16"><defs><style>.cls-1{isolation:isolate;}.cls-2{fill:url(#Безымянный_градиент_776);}.cls-3{fill:url(#Безымянный_градиент_776-2);}.cls-4{fill:url(#Безымянный_градиент_372);}.cls-12,.cls-14,.cls-5{fill:#fff;}.cls-12,.cls-5{mix-blend-mode:soft-light;}.cls-6{fill:#6e5066;}.cls-11,.cls-15,.cls-17,.cls-6,.cls-7{mix-blend-mode:multiply;}.cls-11,.cls-12,.cls-17,.cls-6{opacity:0.5;}.cls-7{fill:#7f6593;opacity:0.2;}.cls-8{fill:url(#Безымянный_градиент_332);}.cls-9{fill:url(#Безымянный_градиент_544);}.cls-10{fill:#ebf0ff;}.cls-11,.cls-15{fill:#7e527c;}.cls-13{fill:#eed6dd;}.cls-15{opacity:0.8;}.cls-16{fill:#63495f;}.cls-17{fill:#5b3952;}.cls-18{fill:#a89aa6;}</style><linearGradient id="Безымянный_градиент_776" x1="29.65" y1="49.56" x2="12.92" y2="3.61" gradientUnits="userSpaceOnUse"><stop offset="0" stop-color="#728ee3"/><stop offset="0.3" stop-color="#836888"/><stop offset="0.57" stop-color="#e1d9e0"/><stop offset="0.85" stop-color="#937d9a"/><stop offset="1" stop-color="#6d636a"/></linearGradient><linearGradient id="Безымянный_градиент_776-2" x1="38.25" y1="46.43" x2="22.35" y2="2.73" xlink:href="#Безымянный_градиент_776"/><linearGradient id="Безымянный_градиент_372" x1="31.62" y1="46.66" x2="15.56" y2="2.55" gradientUnits="userSpaceOnUse"><stop offset="0" stop-color="#decdd1"/><stop offset="0.15" stop-color="#dbc9ce"/><stop offset="0.28" stop-color="#d3bfc4"/><stop offset="0.4" stop-color="#c5acb4"/><stop offset="0.53" stop-color="#b2939e"/><stop offset="0.63" stop-color="#9b7584"/><stop offset="0.7" stop-color="#ae959a"/><stop offset="1" stop-color="#ddd4ea"/></linearGradient><linearGradient id="Безымянный_градиент_332" x1="29.67" y1="42.24" x2="17.52" y2="8.86" gradientUnits="userSpaceOnUse"><stop offset="0" stop-color="#fff1de"/><stop offset="0.21" stop-color="#a690a5"/><stop offset="1" stop-color="#5c475e"/></linearGradient><linearGradient id="Безымянный_градиент_544" x1="30.18" y1="41.5" x2="18.78" y2="10.19" gradientUnits="userSpaceOnUse"><stop offset="0" stop-color="#ad99a0"/><stop offset="0.99" stop-color="#655167"/></linearGradient></defs><g class="cls-1"><g id="Слой_2" data-name="Слой 2"><g id="layer1"><path class="cls-2" d="M40.11,45.75h0l-.93.15h0a18.46,18.46,0,0,1-5.91,0h0l-7-3.61-1.43-.73-.67.45L18.84,45.5l-.51.34h0l-.6,0h-.12c-1.55.14-5.13.4-6.76-.08h0c-.24-.07-.32-.32-.29-.72.16-1.86,2.94-7,5.37-11.15,1.84-3.18,3.46-5.77,3.46-5.77l.28-3.24.82-9.57L21.65,1.09l.06-.68s4.4-.93,7.26,0c0,0,0,0,0,0,1,.49,2.9,7.19,4.8,15.22.53,2.25,1.06,4.58,1.57,6.92s1,4.73,1.51,7C38.75,38.45,40.11,45.75,40.11,45.75Z"/><path class="cls-3" d="M40.76,31.74s2.51,11.89-.27,13.82a1.5,1.5,0,0,1-.38.19h0a2.67,2.67,0,0,1-.93.15h0a10.76,10.76,0,0,1-4-1.16,47.67,47.67,0,0,1-6.68-3.92s-.91.64-2.25,1.46l-.83.5h0l-.05,0c-2.13,1.25-4.9,2.69-6.94,3h0a4.28,4.28,0,0,1-.6,0h-.12a3,3,0,0,1-1-.14,1.81,1.81,0,0,1-1-1c-1.11-2.27-.31-7.7.29-10.81.25-1.32.46-2.21.46-2.21a53.92,53.92,0,0,1-7.49-7.31c-1.39-1.76-2.34-3.49-2.07-4.74.43-2,4.16-3.12,7.64-3.7a51.42,51.42,0,0,1,6-.62h.26A62.64,62.64,0,0,1,25.35,3.89C26.49,1.94,27.72.49,28.88.42H29a1.61,1.61,0,0,1,.48.08c3.76,1.16,7.39,14.87,7.39,14.87s13.07.4,13.81,4.33S40.76,31.74,40.76,31.74Z"/><path class="cls-4" d="M34.35,31.74s2.33,9.77.75,13a2,2,0,0,1-.64.81,2.12,2.12,0,0,1-1.22.35c-2.07.06-5.43-1.67-7.9-3.12-.45-.27-.89-.53-1.27-.78-1.09-.68-1.81-1.18-1.81-1.18a49,49,0,0,1-6.68,3.93,15.1,15.1,0,0,1-2.76,1,4.29,4.29,0,0,1-2,.09h0a1.68,1.68,0,0,1-.59-.26c-2.72-1.88-.38-13.27-.28-13.8a0,0,0,0,0,0,0S-.67,23.5,0,19.69H0c.76-3.92,13.81-4.32,13.81-4.32S17.8.41,21.71.41c1.2,0,2.46,1.47,3.64,3.48A63.07,63.07,0,0,1,30,15.36s1.64.05,3.81.3a27.43,27.43,0,0,1,7.73,1.77c1.26.58,2.18,1.32,2.37,2.26.55,2.56-4,7.19-7,9.88C35.45,30.87,34.35,31.74,34.35,31.74Z"/><path class="cls-5" d="M30,15.36s5.34-.16,7.6,0c8.83.74,11.19,2.21,11.88,3.23s-5,.1-5.39.09-.67-1.45-5.44-2.08S30,15.36,30,15.36Z"/><path class="cls-6" d="M40.76,31.74c-1.22.37-4.87.06-5.4,0s7-6.66,8.43-9.31S49.61,20,50.27,20.5s-2.78,5.06-5.06,7.38A40.25,40.25,0,0,1,40.76,31.74Z"/><path class="cls-5" d="M39.41,21.19a34.24,34.24,0,0,1-4,1.39,72,72,0,0,1-15.77,2.36,53.74,53.74,0,0,1-10.77-.51c-3.56-.57-6.42-1.62-7.91-3.24A4.88,4.88,0,0,1,0,19.68,2.77,2.77,0,0,1,1.33,18h0l.44-.27.07,0c3.79-2.07,12-2.32,12-2.32S17.8.41,21.71.41a1.92,1.92,0,0,1,1,.33,9.12,9.12,0,0,1,2.63,3.15A63.07,63.07,0,0,1,30,15.36s1.64.05,3.81.3a27.43,27.43,0,0,1,7.73,1.77A3.09,3.09,0,0,1,39.41,21.19Z"/><path class="cls-7" d="M1.86,22.81C.35,23.46,4.24,27,7.5,28.93s28.55-3.78,30.87-3.27,6-3.69,5.36-5.48S42,18.18,42,18.49a6.53,6.53,0,0,1-4.46,3.72C34.43,23,10.66,24.77,7.94,25S2.1,22.71,1.86,22.81Z"/><path class="cls-5" d="M10.86,45.36c-2.3-.52-2-6.77-.56-8.48s19.62-1.6,23.11-.53,1.94,8.27.73,9S22.84,40,22,40.21,15.33,46.37,10.86,45.36Z"/><path class="cls-8" d="M31.21,29.13l-1.43,1.16.42,1.64A36.86,36.86,0,0,1,31.49,41a4.75,4.75,0,0,1,0,.56,33.85,33.85,0,0,1-7.2-4l-1.32-.94-.73-.52-2,1.46A39.71,39.71,0,0,1,14.46,41a12.8,12.8,0,0,1-1.36.56,33.38,33.38,0,0,1,1-9.66l.38-1.64L13,29.13c-3.48-2.77-6.92-6.38-7.63-8,1.34-.79,5.6-1.58,9.42-1.7l2.46-.08.64-2.22A48.43,48.43,0,0,1,21.8,7.3c.27.42.55.92.84,1.48A55.67,55.67,0,0,1,26,17.14l.7,2.23,2.47.07c3.82.12,8.11.91,9.45,1.7C38,22.75,34.62,26.36,31.21,29.13Z"/><path class="cls-9" d="M38.62,21.14c-.61,1.47-3.46,4.62-6.56,7.28l-.85.71-1.43,1.16.42,1.64A37.35,37.35,0,0,1,31.49,41a40.69,40.69,0,0,1-5.81-3.43l-2-1.46H22.2l-2,1.46A39.71,39.71,0,0,1,14.46,41c0-.26,0-.54,0-.84s0-.73,0-1.13a40.92,40.92,0,0,1,.85-6c.07-.37.15-.73.23-1.09l.38-1.64-1.45-1.16c-3.47-2.77-6.88-6.38-7.57-8,1.32-.79,5.6-1.57,9.42-1.71l2.47-.07.64-2.22a54.07,54.07,0,0,1,3.19-8.36A55.67,55.67,0,0,1,26,17.14l.7,2.23,2.47.07C33,19.57,37.27,20.35,38.62,21.14Z"/><path class="cls-10" d="M22.2,36.14a4.29,4.29,0,0,1,1.93.35c.55.39,4.08,2.79,4.07,3.18S24.48,37.8,22.2,36.14Z"/><path class="cls-5" d="M13.1,41.59c-.51-.19.55-3.5.92-3.78s.28,3,.44,3.22A3.58,3.58,0,0,1,13.1,41.59Z"/><path class="cls-11" d="M14.47,30.29h1.47s-1.51,4.42-1.73,5.6S13.26,34.63,14.47,30.29Z"/><path class="cls-11" d="M6.25,22.51C5.32,20.84,19,21.44,19,21.44s2.78-9.09,4.85-10.08c0,0-1.73-4-2.05-4.06s-4.55,12.06-4.55,12.06A36.86,36.86,0,0,0,5.37,21.14Z"/><path class="cls-11" d="M26.69,19.37S37,21.14,37.93,22.08l.68-.94S35.45,19.58,26.69,19.37Z"/><path class="cls-6" d="M25.32,1.54c-1.94,0,.87,3.35,2.24,6.48s7.71,3.09,7.71,3.09-2.71-7.89-4.4-8.84S25.32,1.54,25.32,1.54Z"/><path class="cls-6" d="M34.4,46.09c-.41-.3.85-.11,1.37-2.31s5.3-2,5.76-1.75-.29,3-1,3.53S34.4,46.09,34.4,46.09Z"/><path class="cls-5" d="M36.23,41.87c-.54-.19-.49-5.34-.47-6.31s5.2-.58,5.46,0,.49,5.69.19,6S36.57,42,36.23,41.87Z"/><path class="cls-12" d="M19.2,45.48c1.18-.22,3.71-1.35,3.8-1.69s-2.8-.65-3.45-.72S15,45.3,14.67,45.48A40.18,40.18,0,0,0,19.2,45.48Z"/><path class="cls-6" d="M22.32,41a8.46,8.46,0,0,0-2.58,1.73c-.06.32,3,.7,3.42.77a8.83,8.83,0,0,0,2.16-.73S22.43,41,22.32,41Z"/><path class="cls-6" d="M44.48,21.81c-.36.39-2.29,2.73-2.27,3.32s5.47-.08,5.81-.53,2.77-3.74,2.25-4.1S45.5,20.67,44.48,21.81Z"/><path class="cls-13" d="M30,15.36s11.26,1.09,12.77,3.33c2.31,3.39-5,10.08-5,10.08S45.05,22.29,44,19.1,30,15.36,30,15.36Z"/><path class="cls-14" d="M43,17.9c-.86-.4.46,1.71.26,3.25s.89-.44.88-1.48A2.53,2.53,0,0,0,43,17.9Z"/><path class="cls-5" d="M23.46,1.33c-2.24-.83-.89,7,1.46,12.7,2.25,5.42,4.51,3.27,5,1.86S25.31,2.72,23.46,1.33Z"/><path class="cls-14" d="M25.77,6.41c-1.62-.21-.68,4.73.32,6.46s2.42.59,2.46-.92S26.38,6.48,25.77,6.41Z"/><path class="cls-5" d="M23.17.56c-.73.22,2,.73,4.17,1S30,1.82,30,1.27,27.1-.64,23.17.56Z"/><path class="cls-5" d="M34.37,45.91c-.2-.19,5.39-.92,6-.81s-.72.7-.72.7S35.89,46.41,34.37,45.91Z"/><path class="cls-12" d="M30.2,31.93A37.35,37.35,0,0,1,31.49,41a40.69,40.69,0,0,1-5.81-3.43l-2-1.46H22.2l-2,1.46A39.71,39.71,0,0,1,14.46,41c0-.26,0-.54,0-.84l.49-.47c-.2,0-.35-.27-.45-.66a10.35,10.35,0,0,1,.85-6,10.18,10.18,0,0,1,4.25-4.9c6-3.38,12.48.3,12.48.3l-.85.71-1.43,1.16Z"/><path class="cls-14" d="M9.52,43.85c-.22-1.46.34-2.45.86-2.4s1.21,3.37.73,3.76S9.58,44.24,9.52,43.85Z"/><path class="cls-15" d="M25.27,42.83c-2.13,1.25-4.9,2.69-6.94,3h0a4.28,4.28,0,0,1-.6,0h-.12c-1.55.14-5.13.4-6.76-.08h0a1.68,1.68,0,0,1-.59-.26c-2.72-1.88-.38-13.27-.28-13.8-.06.51-1.35,10.22-.21,12.56a1.86,1.86,0,0,0,.79.78,6.07,6.07,0,0,0,2.32.64,20.93,20.93,0,0,0,3.8,0c.83-.07,1.59-.16,2.22-.27a8.39,8.39,0,0,0,1.28-.28A47.83,47.83,0,0,0,25.27,42.83Z"/><path class="cls-15" d="M29.45.49,29,.44l-.13,0a18.71,18.71,0,0,0-6.16.32,8.35,8.35,0,0,0-1.07.35,2,2,0,0,0-.4.18C15.68,4.9,14.41,16,14.41,16s-10,.69-12.56,1.69c3.79-2.07,12-2.32,12-2.32S17.8.41,21.71.41c0,0,4.4-.93,7.26,0A1.61,1.61,0,0,1,29.45.49Z"/><path class="cls-16" d="M41.15,25.66c0-1.41-3.31,1.36-3.54,1.91s-.41,1.28-.25,1.52S40.82,28.58,41.15,25.66Z"/><path class="cls-17" d="M40.86,25.36a2.2,2.2,0,0,0-2.1,1.86c-.1,1,.9,1,1.76,0S41.11,25.39,40.86,25.36Z"/><path class="cls-18" d="M37.64,27.49s0,.8.25,1c.49.33,1.55-.1,1.55-.1a5.62,5.62,0,0,1-2.11.93C36.45,29.4,37.64,27.49,37.64,27.49Z"/><path class="cls-14" d="M37.09,29.25c-.28-.36,1.43-.38,1.58-.42S37.39,29.6,37.09,29.25Z"/><path class="cls-16" d="M16.9,44.14c-.22,0,.23-1,.76-1.16s1.27-.15,1.24.2A1.87,1.87,0,0,1,16.9,44.14Z"/><path class="cls-18" d="M17.3,43.21c-.4.93.23.85.85.72a4,4,0,0,1-1.64.39A2,2,0,0,1,17.3,43.21Z"/><path class="cls-14" d="M16.6,44.3c-.06-.07.34-.33.59-.34a1,1,0,0,1,.51.14A1.94,1.94,0,0,1,16.6,44.3Z"/><path class="cls-17" d="M18,42.9c-.83.4-.58,1,.08,1s.88-.72.73-.86S18,42.9,18,42.9Z"/><path class="cls-5" d="M11.44,26.47c-1.81-.9,1,2.24,1.81,2.86l1.22,1h1.47A53.18,53.18,0,0,0,11.44,26.47Z"/><path class="cls-14" d="M14.47,30.29c-.38-.29-.64-1.25-.22-1.2a7,7,0,0,1,1.69,1.2Z"/><path class="cls-15" d="M24.49,42.29a64.4,64.4,0,0,0,8.69,3.31,24.05,24.05,0,0,0,6.62.24,23.38,23.38,0,0,1-7.09.07C29.36,45.31,24.49,42.29,24.49,42.29Z"/><path class="cls-14" d="M.27,19.79c.32,1.57,2.45-.51,2.93-1.42S.37,17.5.27,19.79Z"/><path class="cls-13" d="M29.78,30.29s7.13-4.88,8.83-9.15A33.25,33.25,0,0,1,29.78,30.29Z"/><path class="cls-6" d="M16.46,29.6c-.68.07-3.94-2.69-4.45-4s4,0,10.85-.35,14.6-3.56,14.48-3.15S33,27.37,31.91,27.6s-3.34-1.34-8.18-1.22S17.38,29.5,16.46,29.6Z"/></g></g></g></svg>