<svg xmlns="http://www.w3.org/2000/svg" xmlns:xlink="http://www.w3.org/1999/xlink" viewBox="0 0 51.45 46.85"><defs><style>.cls-1{isolation:isolate;}.cls-2{fill:url(#Безымянный_градиент_517);}.cls-3{fill:url(#Безымянный_градиент_517-2);}.cls-4{fill:url(#Безымянный_градиент_535);}.cls-13,.cls-14,.cls-5{fill:#fff;}.cls-13,.cls-5{mix-blend-mode:soft-light;}.cls-6{fill:#b30053;}.cls-11,.cls-12,.cls-15,.cls-6,.cls-7{mix-blend-mode:multiply;}.cls-12,.cls-6{opacity:0.3;}.cls-7{fill:#d81bdc;opacity:0.2;}.cls-8{fill:url(#Безымянный_градиент_488);}.cls-9{fill:url(#Безымянный_градиент_549);}.cls-10{fill:#ffd8c3;}.cls-11,.cls-15{fill:#d42f55;}.cls-11,.cls-13{opacity:0.5;}.cls-12{fill:#b8038b;}.cls-15{opacity:0.8;}.cls-16{fill:#cc1f38;}.cls-17{fill:#ff7940;}</style><linearGradient id="Безымянный_градиент_517" x1="38.83" y1="47.13" x2="22.68" y2="2.77" gradientUnits="userSpaceOnUse"><stop offset="0" stop-color="#e52436"/><stop offset="0.23" stop-color="#fe3931"/><stop offset="0.59" stop-color="#fb6134"/><stop offset="0.85" stop-color="#f63c3b"/><stop offset="1" stop-color="#cc0721"/></linearGradient><linearGradient id="Безымянный_градиент_517-2" x1="30.09" y1="50.31" x2="13.12" y2="3.67" xlink:href="#Безымянный_градиент_517"/><linearGradient id="Безымянный_градиент_535" x1="32.09" y1="47.36" x2="15.8" y2="2.59" gradientUnits="userSpaceOnUse"><stop offset="0" stop-color="#ffb092"/><stop offset="0.63" stop-color="#ff4f26"/><stop offset="0.7" stop-color="#ff6f3b"/><stop offset="1" stop-color="#ff938d"/></linearGradient><linearGradient id="Безымянный_градиент_488" x1="30.12" y1="42.87" x2="17.79" y2="8.99" gradientUnits="userSpaceOnUse"><stop offset="0" stop-color="#ff9019"/><stop offset="0.21" stop-color="#fe3919"/><stop offset="1" stop-color="#bb1538"/></linearGradient><linearGradient id="Безымянный_градиент_549" x1="30.63" y1="42.13" x2="19.06" y2="10.34" gradientUnits="userSpaceOnUse"><stop offset="0" stop-color="#fc8c6c"/><stop offset="1" stop-color="#cc0721"/></linearGradient></defs><g class="cls-1"><g id="Слой_2" data-name="Слой 2"><g id="layer1"><path class="cls-2" d="M41.37,32.22s2.55,12.07-.27,14a1.72,1.72,0,0,1-.38.2h0a2.83,2.83,0,0,1-1,.15h0a11,11,0,0,1-4.11-1.18,48.44,48.44,0,0,1-6.78-4s-.93.64-2.29,1.48l-.83.5h0l-.06,0a23.62,23.62,0,0,1-7,3.06h0a4.16,4.16,0,0,1-.6.05h-.12a3,3,0,0,1-1-.14,1.71,1.71,0,0,1-.4-.22,2.16,2.16,0,0,1-.66-.81c-1.13-2.3-.31-7.81.3-11,.25-1.34.46-2.24.46-2.24A55.51,55.51,0,0,1,9,24.8C7.56,23,6.6,21.25,6.87,20c.44-2.06,4.22-3.17,7.76-3.76a53.32,53.32,0,0,1,6.11-.63H21A63.88,63.88,0,0,1,25.73,3.94C26.88,2,28.14.5,29.31.43h.1a1.66,1.66,0,0,1,.48.08c3.82,1.18,7.51,15.09,7.51,15.09s13.26.4,14,4.4S41.37,32.22,41.37,32.22Z"/><path class="cls-3" d="M40.72,46.44h0l-1,.15h0a18.45,18.45,0,0,1-6,0h0l-7.14-3.66-1.45-.74-.68.45-5.31,3.55-.51.34h0l-.6.05h-.12c-1.58.15-5.22.41-6.86-.08H11c-.24-.07-.32-.33-.29-.73.16-1.89,3-7.08,5.45-11.32,1.87-3.23,3.51-5.86,3.51-5.86l.28-3.28.84-9.72L22,1.11,22,.42s4.46-.95,7.37,0l0,0c1,.49,2.94,7.29,4.87,15.44.54,2.29,1.08,4.65,1.6,7s1,4.81,1.52,7.1C39.33,39,40.72,46.44,40.72,46.44Z"/><path class="cls-4" d="M34.87,32.22s2.37,9.92.76,13.2a1.93,1.93,0,0,1-.65.82,2.19,2.19,0,0,1-1.24.36c-2.1.06-5.51-1.69-8-3.17-.47-.27-.91-.54-1.3-.79-1.1-.69-1.83-1.19-1.83-1.19a49.53,49.53,0,0,1-6.79,4,15.32,15.32,0,0,1-2.8,1,4.38,4.38,0,0,1-2,.09H11a1.65,1.65,0,0,1-.6-.27c-2.76-1.9-.38-13.46-.28-14v0S-.68,23.85,0,20H0c.77-4,14-4.39,14-4.39S18.07.42,22,.42c1.21,0,2.5,1.49,3.69,3.52a64.32,64.32,0,0,1,4.72,11.65s1.67.05,3.87.3a28.22,28.22,0,0,1,7.84,1.8c1.29.59,2.21,1.34,2.41,2.3.56,2.6-4.09,7.29-7.13,10C36,31.34,34.87,32.22,34.87,32.22Z"/><path class="cls-5" d="M30.45,15.59s5.41-.16,7.71,0c9,.75,11.36,2.24,12.05,3.28s-5.06.1-5.47.09-.68-1.47-5.51-2.11S30.45,15.59,30.45,15.59Z"/><path class="cls-6" d="M41.37,32.22c-1.24.37-4.94.06-5.48,0s7.09-6.76,8.56-9.46,5.91-2.44,6.57-2-2.81,5.13-5.13,7.49A39.73,39.73,0,0,1,41.37,32.22Z"/><path class="cls-5" d="M40,21.51a36.63,36.63,0,0,1-4.09,1.41,73.59,73.59,0,0,1-16,2.4A55.34,55.34,0,0,1,9,24.8c-3.61-.58-6.51-1.64-8-3.29A5.34,5.34,0,0,1,0,20a2.83,2.83,0,0,1,1.32-1.71h0L1.81,18l.07,0c3.85-2.11,12.17-2.36,12.17-2.36S18.07.42,22,.42a2,2,0,0,1,1,.33,9.47,9.47,0,0,1,2.66,3.19,64.32,64.32,0,0,1,4.72,11.65s1.67.05,3.87.3a28.22,28.22,0,0,1,7.84,1.8A3.14,3.14,0,0,1,40,21.51Z"/><path class="cls-7" d="M1.89,23.15c-1.54.66,2.41,4.23,5.73,6.21s29-3.83,31.33-3.31,6.11-3.75,5.44-5.56-1.81-2-1.81-1.72a6.64,6.64,0,0,1-4.53,3.78c-3.1.77-27.23,2.59-30,2.83S2.13,23.05,1.89,23.15Z"/><path class="cls-5" d="M11,46c-2.34-.53-2-6.86-.57-8.61s19.91-1.62,23.45-.54,2,8.4.75,9.15-11.47-5.41-12.3-5.22S15.56,47.06,11,46Z"/><path class="cls-8" d="M31.68,29.57l-1.45,1.18.42,1.66A37.74,37.74,0,0,1,32,41.64a5,5,0,0,1,0,.58,34.58,34.58,0,0,1-7.31-4.06l-1.33-.95-.75-.53-2,1.48a37.81,37.81,0,0,1-5.83,3.48,13.46,13.46,0,0,1-1.37.58,34.09,34.09,0,0,1,1-9.81l.38-1.66L13.2,29.57c-3.54-2.82-7-6.48-7.75-8.12,1.36-.79,5.68-1.59,9.56-1.72l2.5-.08.65-2.25a48.06,48.06,0,0,1,4-10c.27.43.55.94.85,1.51a56.4,56.4,0,0,1,3.4,8.48l.71,2.26,2.51.07c3.87.13,8.23.93,9.6,1.72C38.52,23.09,35.14,26.75,31.68,29.57Z"/><path class="cls-9" d="M39.2,21.45c-.62,1.5-3.51,4.7-6.65,7.39l-.87.73-1.45,1.18.42,1.66A37.16,37.16,0,0,1,32,41.64a39.14,39.14,0,0,1-5.89-3.48L24,36.69H22.53l-2,1.47a37.81,37.81,0,0,1-5.83,3.48c0-.25,0-.54,0-.84s0-.74,0-1.15a42.43,42.43,0,0,1,.86-6.14c.07-.37.15-.73.24-1.1l.38-1.66-1.47-1.18c-3.53-2.81-7-6.48-7.69-8.12,1.35-.79,5.69-1.59,9.56-1.72l2.51-.08.65-2.25A55.36,55.36,0,0,1,23,8.91a57,57,0,0,1,3.4,8.49l.71,2.26,2.51.07C33.47,19.86,37.83,20.66,39.2,21.45Z"/><path class="cls-10" d="M22.53,36.68a4.32,4.32,0,0,1,2,.36c.56.39,4.15,2.83,4.14,3.23S24.85,38.36,22.53,36.68Z"/><path class="cls-5" d="M13.3,42.22c-.52-.2.55-3.55.93-3.84s.29,3,.44,3.26A3.6,3.6,0,0,1,13.3,42.22Z"/><path class="cls-11" d="M14.68,30.75h1.5s-1.53,4.48-1.76,5.68S13.46,35.16,14.68,30.75Z"/><path class="cls-11" d="M6.34,22.85c-.94-1.69,12.94-1.08,12.94-1.08s2.83-9.23,4.93-10.24c0,0-1.76-4.11-2.08-4.12s-4.62,12.24-4.62,12.24a37.64,37.64,0,0,0-12.06,1.8Z"/><path class="cls-11" d="M27.09,19.66s10.43,1.8,11.41,2.76l.7-1S36,19.88,27.09,19.66Z"/><path class="cls-12" d="M25.7,1.56c-2,0,.89,3.4,2.27,6.58s7.83,3.14,7.83,3.14-2.75-8-4.47-9S25.7,1.56,25.7,1.56Z"/><path class="cls-12" d="M34.91,46.78c-.4-.31.87-.1,1.4-2.34s5.38-2,5.85-1.78-.3,3.09-1.07,3.59S34.91,46.78,34.91,46.78Z"/><path class="cls-5" d="M36.77,42.5c-.54-.19-.49-5.42-.47-6.41s5.27-.58,5.54,0,.49,5.78.19,6.13S37.12,42.62,36.77,42.5Z"/><path class="cls-13" d="M19.49,46.16c1.2-.21,3.77-1.37,3.86-1.72s-2.84-.65-3.51-.73S15.19,46,14.89,46.16A39.13,39.13,0,0,0,19.49,46.16Z"/><path class="cls-11" d="M22.65,41.64A8.68,8.68,0,0,0,20,43.41c-.06.32,3.06.7,3.47.77a8.52,8.52,0,0,0,2.19-.74S22.77,41.6,22.65,41.64Z"/><path class="cls-12" d="M45.15,22.14c-.36.39-2.33,2.77-2.3,3.37s5.55-.08,5.89-.54,2.82-3.79,2.28-4.16S46.18,21,45.15,22.14Z"/><path class="cls-10" d="M30.45,15.59s11.43,1.1,13,3.38c2.34,3.45-5.09,10.24-5.09,10.24s7.4-6.58,6.38-9.82S30.45,15.59,30.45,15.59Z"/><path class="cls-14" d="M43.65,18.17c-.87-.41.47,1.73.26,3.3s.91-.45.89-1.5A2.57,2.57,0,0,0,43.65,18.17Z"/><path class="cls-5" d="M23.81,1.35c-2.27-.84-.9,7.14,1.49,12.89,2.28,5.5,4.57,3.32,5,1.89S25.69,2.76,23.81,1.35Z"/><path class="cls-14" d="M26.16,6.5c-1.65-.2-.7,4.8.32,6.56s2.46.6,2.5-.93S26.78,6.58,26.16,6.5Z"/><path class="cls-5" d="M23.51.57c-.73.22,2.08.74,4.24,1s2.68.27,2.67-.28S27.51-.65,23.51.57Z"/><path class="cls-5" d="M34.88,46.6c-.19-.19,5.48-.93,6-.83s-.73.72-.73.72S36.43,47.11,34.88,46.6Z"/><path class="cls-13" d="M30.65,32.41A37.16,37.16,0,0,1,32,41.64a39.14,39.14,0,0,1-5.89-3.48L24,36.69H22.53l-2,1.47a37.81,37.81,0,0,1-5.83,3.48c0-.25,0-.54,0-.84l.5-.48c-.19,0-.35-.28-.45-.67a10.54,10.54,0,0,1,.86-6.14,10.33,10.33,0,0,1,4.32-5c6-3.42,12.67.3,12.67.3l-.87.73-1.45,1.18Z"/><path class="cls-14" d="M9.66,44.51C9.44,43,10,42,10.54,42.07s1.22,3.42.73,3.82S9.72,44.9,9.66,44.51Z"/><path class="cls-15" d="M25.65,43.47a23.62,23.62,0,0,1-7,3.06h0a4.16,4.16,0,0,1-.6.05h-.12c-1.58.15-5.22.41-6.86-.08H11a1.65,1.65,0,0,1-.6-.27c-2.76-1.9-.38-13.46-.28-14C10,32.75,8.7,42.61,9.85,45a1.9,1.9,0,0,0,.81.8,6.36,6.36,0,0,0,2.35.65,21.61,21.61,0,0,0,3.86,0c.84-.07,1.62-.16,2.25-.27a10.19,10.19,0,0,0,1.31-.29A51,51,0,0,0,25.65,43.47Z"/><path class="cls-15" d="M29.89.5l-.44,0-.14,0a18.91,18.91,0,0,0-6.24.32A6.63,6.63,0,0,0,22,1.11a2.13,2.13,0,0,0-.41.18C15.91,5,14.63,16.23,14.63,16.23S4.45,16.93,1.88,18c3.85-2.11,12.17-2.36,12.17-2.36S18.07.42,22,.42c0,0,4.46-.95,7.37,0A1.66,1.66,0,0,1,29.89.5Z"/><path class="cls-16" d="M41.77,26.05c0-1.43-3.36,1.38-3.6,1.94a2.34,2.34,0,0,0-.25,1.54C38.08,29.77,41.44,29,41.77,26.05Z"/><path class="cls-11" d="M41.47,25.75a2.2,2.2,0,0,0-2.12,1.88c-.11,1,.91,1,1.78,0S41.72,25.77,41.47,25.75Z"/><path class="cls-17" d="M38.21,27.9s0,.82.25,1c.5.34,1.58-.09,1.58-.09a5.64,5.64,0,0,1-2.14.94C37,29.84,38.21,27.9,38.21,27.9Z"/><path class="cls-14" d="M37.64,29.69c-.28-.36,1.46-.39,1.61-.43S38,30.05,37.64,29.69Z"/><path class="cls-16" d="M17.15,44.8c-.22,0,.24-1,.77-1.17s1.3-.16,1.26.2A1.88,1.88,0,0,1,17.15,44.8Z"/><path class="cls-17" d="M17.56,43.86c-.41.94.23.87.86.74a4.16,4.16,0,0,1-1.66.38A2,2,0,0,1,17.56,43.86Z"/><path class="cls-14" d="M16.85,45c-.06-.06.35-.33.6-.33a.8.8,0,0,1,.51.14A2,2,0,0,1,16.85,45Z"/><path class="cls-11" d="M18.29,43.54c-.84.42-.59,1.05.09,1s.89-.73.73-.87S18.29,43.54,18.29,43.54Z"/><path class="cls-5" d="M11.61,26.87c-1.84-.92,1,2.27,1.84,2.9l1.23,1h1.5A55.12,55.12,0,0,0,11.61,26.87Z"/><path class="cls-14" d="M14.68,30.75c-.37-.3-.64-1.27-.21-1.22a7.15,7.15,0,0,1,1.71,1.22Z"/><path class="cls-10" d="M22.53,36.69a4.9,4.9,0,0,1,2,.35A17.21,17.21,0,0,1,26,38.37,14,14,0,0,1,22.53,36.69Z"/><path class="cls-15" d="M24.86,42.92a63.88,63.88,0,0,0,8.81,3.36,24.09,24.09,0,0,0,6.72.25,23.66,23.66,0,0,1-7.19.07C29.81,46,24.86,42.92,24.86,42.92Z"/><path class="cls-14" d="M.28,20.09c.31,1.6,2.49-.52,3-1.44S.37,17.76.28,20.09Z"/><path class="cls-10" d="M30.23,30.75s7.24-5,9-9.3A33.92,33.92,0,0,1,30.23,30.75Z"/><path class="cls-12" d="M16.86,30.14c-.69.07-4-2.73-4.51-4s4,0,11-.36,14.83-3.61,14.7-3.19-4.43,5.33-5.5,5.56-3.4-1.36-8.31-1.24S17.79,30,16.86,30.14Z"/></g></g></g></svg>